<svg width="57" height="56" viewBox="0 0 57 56" fill="none" xmlns="http://www.w3.org/2000/svg">
<path d="M16.7502 22.0213C16.7502 21.8023 16.6632 21.5923 16.5083 21.4374C16.3535 21.2826 16.1434 21.1956 15.9244 21.1956H9.98587C9.76688 21.1956 9.55686 21.2826 9.402 21.4374C9.24715 21.5923 9.16016 21.8023 9.16016 22.0213V27.9597C9.16016 28.1787 9.24715 28.3887 9.402 28.5436C9.55686 28.6985 9.76688 28.7854 9.98587 28.7854H15.9244C16.1434 28.7854 16.3535 28.6985 16.5083 28.5436C16.6632 28.3887 16.7502 28.1787 16.7502 27.9597V22.0213ZM15.0987 27.134H10.8116V22.847H15.0987V27.134ZM27.3364 22.0213C27.3364 21.9128 27.3151 21.8055 27.2736 21.7053C27.2321 21.6051 27.1712 21.5141 27.0946 21.4374C27.0179 21.3607 26.9269 21.2999 26.8267 21.2584C26.7265 21.2169 26.6191 21.1956 26.5107 21.1956H20.5721C20.3531 21.1956 20.1431 21.2826 19.9883 21.4374C19.8334 21.5923 19.7464 21.8023 19.7464 22.0213V27.9597C19.7464 28.1787 19.8334 28.3887 19.9883 28.5436C20.1431 28.6985 20.3531 28.7854 20.5721 28.7854H26.5107C26.6191 28.7854 26.7265 28.7641 26.8267 28.7226C26.9269 28.6811 27.0179 28.6203 27.0946 28.5436C27.1712 28.4669 27.2321 28.3759 27.2736 28.2757C27.3151 28.1755 27.3364 28.0682 27.3364 27.9597V22.0213ZM25.685 27.134H21.3979V22.847H25.685V27.134ZM37.9226 22.0213C37.9226 21.8023 37.8356 21.5923 37.6807 21.4374C37.5259 21.2826 37.3158 21.1956 37.0969 21.1956H31.1583C31.0498 21.1955 30.9425 21.2169 30.8423 21.2584C30.7421 21.2999 30.6511 21.3607 30.5744 21.4374C30.4977 21.514 30.4369 21.6051 30.3954 21.7053C30.3539 21.8055 30.3326 21.9128 30.3326 22.0213V27.9597C30.3326 28.4159 30.7022 28.7854 31.1583 28.7854H37.0969C37.3158 28.7854 37.5259 28.6985 37.6807 28.5436C37.8356 28.3887 37.9226 28.1787 37.9226 27.9597V22.0213ZM36.2711 27.134H31.984V22.847H36.2711V27.134ZM41.7445 28.7854H47.6831C48.1392 28.7854 48.5088 28.4159 48.5088 27.9597V22.0213C48.5088 21.5651 48.1392 21.1956 47.6831 21.1956H41.7445C41.6361 21.1955 41.5287 21.2169 41.4285 21.2584C41.3284 21.2999 41.2373 21.3607 41.1606 21.4374C41.084 21.514 41.0231 21.6051 40.9817 21.7053C40.9402 21.8055 40.9188 21.9128 40.9188 22.0213V27.9597C40.9188 28.4159 41.2884 28.7854 41.7445 28.7854ZM42.5703 22.847H46.8574V27.134H42.5703V22.847ZM16.7502 32.7684C16.7502 32.5494 16.6632 32.3394 16.5083 32.1845C16.3535 32.0297 16.1434 31.9427 15.9244 31.9427H9.98587C9.76688 31.9427 9.55686 32.0297 9.402 32.1845C9.24715 32.3394 9.16016 32.5494 9.16016 32.7684V38.7068C9.16016 38.9258 9.24715 39.1359 9.402 39.2907C9.55686 39.4456 9.76688 39.5326 9.98587 39.5326H15.9244C16.1434 39.5326 16.3535 39.4456 16.5083 39.2907C16.6632 39.1359 16.7502 38.9258 16.7502 38.7068V32.7684ZM15.0987 37.8811H10.8116V33.5941H15.0987V37.8811ZM27.3364 32.7684C27.3364 32.6599 27.3151 32.5526 27.2736 32.4524C27.2321 32.3522 27.1712 32.2612 27.0946 32.1845C27.0179 32.1078 26.9269 32.047 26.8267 32.0055C26.7265 31.964 26.6191 31.9427 26.5107 31.9427H20.5721C20.3531 31.9427 20.1431 32.0297 19.9883 32.1845C19.8334 32.3394 19.7464 32.5494 19.7464 32.7684V38.7068C19.7464 38.9258 19.8334 39.1359 19.9883 39.2907C20.1431 39.4456 20.3531 39.5326 20.5721 39.5326H26.5107C26.6191 39.5326 26.7265 39.5112 26.8267 39.4697C26.9269 39.4282 27.0179 39.3674 27.0946 39.2907C27.1712 39.214 27.2321 39.123 27.2736 39.0228C27.3151 38.9226 27.3364 38.8153 27.3364 38.7068V32.7684ZM25.685 37.8811H21.3979V33.5941H25.685V37.8811ZM37.9226 32.7684C37.9226 32.5494 37.8356 32.3394 37.6807 32.1845C37.5259 32.0297 37.3158 31.9427 37.0969 31.9427H31.1583C31.0498 31.9426 30.9425 31.964 30.8423 32.0055C30.7421 32.047 30.6511 32.1078 30.5744 32.1845C30.4977 32.2612 30.4369 32.3522 30.3954 32.4524C30.3539 32.5526 30.3326 32.6599 30.3326 32.7684V38.7068C30.3326 39.163 30.7022 39.5326 31.1583 39.5326H37.0969C37.3158 39.5326 37.5259 39.4456 37.6807 39.2907C37.8356 39.1359 37.9226 38.9258 37.9226 38.7068V32.7684ZM36.2711 37.8811H31.984V33.5941H36.2711V37.8811ZM40.9188 38.7068C40.9188 39.163 41.2884 39.5326 41.7445 39.5326H47.6831C48.1392 39.5326 48.5088 39.163 48.5088 38.7068V32.7684C48.5088 32.3123 48.1392 31.9427 47.6831 31.9427H41.7445C41.6361 31.9426 41.5287 31.964 41.4285 32.0055C41.3284 32.047 41.2373 32.1078 41.1606 32.1845C41.084 32.2612 41.0231 32.3522 40.9817 32.4524C40.9402 32.5526 40.9188 32.6599 40.9188 32.7684V38.7068ZM42.5703 33.5941H46.8574V37.8811H42.5703V33.5941ZM15.9244 42.6898H9.98587C9.76688 42.6898 9.55686 42.7768 9.402 42.9316C9.24715 43.0865 9.16016 43.2965 9.16016 43.5155V49.454C9.16016 49.6729 9.24715 49.883 9.402 50.0378C9.55686 50.1927 9.76688 50.2797 9.98587 50.2797H15.9244C16.1434 50.2797 16.3535 50.1927 16.5083 50.0378C16.6632 49.883 16.7502 49.6729 16.7502 49.454V43.5155C16.7502 43.2965 16.6632 43.0865 16.5083 42.9316C16.3535 42.7768 16.1434 42.6898 15.9244 42.6898ZM15.0987 48.6282H10.8116V44.3412H15.0987V48.6282ZM26.5107 42.6898H20.5721C20.3531 42.6898 20.1431 42.7768 19.9883 42.9316C19.8334 43.0865 19.7464 43.2965 19.7464 43.5155V49.454C19.7464 49.6729 19.8334 49.883 19.9883 50.0378C20.1431 50.1927 20.3531 50.2797 20.5721 50.2797H26.5107C26.6191 50.2797 26.7265 50.2583 26.8267 50.2168C26.9269 50.1753 27.0179 50.1145 27.0946 50.0378C27.1712 49.9611 27.2321 49.8701 27.2736 49.7699C27.3151 49.6698 27.3364 49.5624 27.3364 49.454V43.5155C27.3364 43.4071 27.3151 43.2997 27.2736 43.1995C27.2321 43.0993 27.1712 43.0083 27.0946 42.9316C27.0179 42.8549 26.9269 42.7941 26.8267 42.7526C26.7265 42.7111 26.6191 42.6898 26.5107 42.6898ZM25.685 48.6282H21.3979V44.3412H25.685V48.6282ZM37.0969 42.6898H31.1583C31.0498 42.6898 30.9425 42.7111 30.8423 42.7526C30.7421 42.7941 30.6511 42.8549 30.5744 42.9316C30.4977 43.0083 30.4369 43.0993 30.3954 43.1995C30.3539 43.2997 30.3326 43.4071 30.3326 43.5155V49.454C30.3326 49.9101 30.7022 50.2797 31.1583 50.2797H37.0969C37.3158 50.2797 37.5259 50.1927 37.6807 50.0378C37.8356 49.883 37.9226 49.6729 37.9226 49.454V43.5155C37.9226 43.0594 37.553 42.6898 37.0969 42.6898ZM36.2711 48.6282H31.984V44.3412H36.2711V48.6282ZM40.9188 49.454C40.9188 49.9101 41.2884 50.2797 41.7445 50.2797H47.6831C48.1392 50.2797 48.5088 49.9101 48.5088 49.454V43.5155C48.5088 43.0594 48.1392 42.6898 47.6831 42.6898H41.7445C41.6361 42.6898 41.5287 42.7111 41.4285 42.7526C41.3284 42.7941 41.2373 42.8549 41.1606 42.9316C41.084 43.0083 41.0231 43.0993 40.9817 43.1995C40.9402 43.2997 40.9188 43.4071 40.9188 43.5155V49.454ZM42.5703 44.3412H46.8574V48.6282H42.5703V44.3412Z" fill="#21409C"/>
<path d="M52.0229 6.12903H51.0044V2.97005C51.0044 1.33238 49.672 0 48.0343 0C46.3966 0 45.0642 1.33238 45.0642 2.97005V6.12903H41.4035V2.97005C41.4036 1.33238 40.0712 0 38.4335 0C36.7958 0 35.4635 1.33238 35.4635 2.97005V6.12903H31.8028V2.97005C31.8029 1.33238 30.4705 0 28.8328 0C27.1952 0 25.8628 1.33238 25.8628 2.97005V6.12903H22.202V2.97005C22.2021 1.33238 20.8697 0 19.232 0C17.5944 0 16.262 1.33238 16.262 2.97005V6.12903H12.6012V2.97005C12.6013 1.33238 11.269 0 9.63135 0C7.99367 0 6.66129 1.33238 6.66129 2.97005V6.12903H5.6428C3.76886 6.12903 2.24414 7.65375 2.24414 9.52769V52.6013C2.24414 54.4754 3.76875 56 5.6428 56H37.275C37.494 56 37.704 55.913 37.8588 55.7582C38.0137 55.6033 38.1007 55.3933 38.1007 55.1743C38.1007 54.7182 37.7311 54.3486 37.275 54.3486H5.6428C4.67946 54.3486 3.89558 53.5648 3.89558 52.6013V17.2799H14.4364C14.8924 17.2799 15.2621 16.9103 15.2621 16.4541C15.2621 15.998 14.8924 15.6284 14.4364 15.6284H3.89558V9.52769C3.89558 8.56424 4.67935 7.78047 5.6428 7.78047H6.66129V8.99813C6.66129 10.6358 7.99367 11.9682 9.63135 11.9682C11.269 11.9682 12.6014 10.6358 12.6014 8.99813V7.78047H16.2622V8.99813C16.2622 10.6358 17.5946 11.9682 19.2323 11.9682C20.8699 11.9682 22.2023 10.6358 22.2023 8.99813V7.78047H25.8631V8.99813C25.8631 10.6358 27.1955 11.9682 28.8332 11.9682C30.4708 11.9682 31.8032 10.6358 31.8032 8.99813V7.78047H35.4639V8.99813C35.4639 10.6358 36.7963 11.9682 38.4339 11.9682C40.0716 11.9682 41.404 10.6358 41.404 8.99813V7.78047H45.0648V8.99813C45.0648 10.6358 46.3972 11.9682 48.0349 11.9682C49.6725 11.9682 51.0049 10.6358 51.0049 8.99813V7.78047H52.0234C52.9869 7.78047 53.7706 8.56424 53.7706 9.52769V15.6284H17.7394C17.2833 15.6284 16.9136 15.998 16.9136 16.4541C16.9136 16.9103 17.2833 17.2799 17.7394 17.2799H53.7702V52.6013C53.7702 53.5648 52.9864 54.3486 52.023 54.3486H40.5778C40.4694 54.3485 40.362 54.3699 40.2618 54.4114C40.1617 54.4529 40.0706 54.5137 39.9939 54.5904C39.9173 54.6671 39.8564 54.7581 39.815 54.8583C39.7735 54.9585 39.7521 55.0658 39.7521 55.1743C39.7521 55.3933 39.8391 55.6033 39.994 55.7582C40.1488 55.913 40.3588 56 40.5778 56H52.0229C53.8968 56 55.4215 54.4753 55.4215 52.6013V9.52769C55.4215 7.65375 53.8968 6.12903 52.0229 6.12903ZM10.9499 8.99813C10.9499 9.7252 10.3584 10.3167 9.63124 10.3167C8.90417 10.3167 8.31262 9.7252 8.31262 8.99813V2.97005C8.31273 2.24298 8.90428 1.65144 9.63135 1.65144C10.3584 1.65144 10.95 2.24298 10.95 2.97005L10.9499 8.99813ZM20.5506 8.99813C20.5506 9.7252 19.9591 10.3167 19.232 10.3167C18.505 10.3167 17.9134 9.7252 17.9134 8.99813V2.97005C17.9134 2.24298 18.505 1.65144 19.232 1.65144C19.9591 1.65144 20.5506 2.24298 20.5506 2.97005V8.99813ZM30.1514 8.99813C30.1514 9.7252 29.5599 10.3167 28.8328 10.3167C28.1058 10.3167 27.5142 9.7252 27.5142 8.99813V2.97005C27.5142 2.24298 28.1058 1.65144 28.8328 1.65144C29.5599 1.65144 30.1514 2.24298 30.1514 2.97005V8.99813ZM39.7521 8.99813C39.7521 9.7252 39.1606 10.3167 38.4335 10.3167C37.7065 10.3167 37.1149 9.7252 37.1149 8.99813V2.97005C37.1149 2.24298 37.7064 1.65144 38.4335 1.65144C39.1606 1.65144 39.7521 2.24298 39.7521 2.97005V8.99813ZM49.3529 8.99813C49.3529 9.7252 48.7614 10.3167 48.0343 10.3167C47.3073 10.3167 46.7157 9.7252 46.7157 8.99813V2.97005C46.7157 2.24298 47.3072 1.65144 48.0343 1.65144C48.7614 1.65144 49.3529 2.24298 49.3529 2.97005V8.99813Z" fill="#21409C"/>
</svg>
