<svg width="57" height="56" viewBox="0 0 57 56" fill="none" xmlns="http://www.w3.org/2000/svg">
<path d="M42.9731 3.9138C42.6905 3.61634 42.3516 3.37806 41.976 3.21282C41.6005 3.04757 41.1958 2.95868 40.7856 2.9513C39.9606 2.94069 39.1637 3.25025 38.5622 3.81493L36.5681 5.72768C33.9483 4.58979 31.1274 3.98749 28.2713 3.95623C25.4153 3.92498 22.5819 4.4654 19.9378 5.54568L17.9831 3.58743C17.3985 3.00352 16.6061 2.67554 15.7798 2.67554C14.9536 2.67554 14.1611 3.00352 13.5766 3.58743L6.20558 10.9602C5.62124 11.5445 5.29297 12.337 5.29297 13.1634C5.29297 13.9898 5.62124 14.7823 6.20558 15.3667L8.16208 17.3249C6.47546 21.4529 6.11964 26.0043 7.14426 30.3442C8.16887 34.6841 10.5228 38.5959 13.8776 41.5335L7.47346 47.935C6.77935 48.6305 6.38996 49.5733 6.39094 50.5559C6.39193 51.5385 6.78321 52.4804 7.47871 53.1745C8.1742 53.8687 9.11695 54.258 10.0995 54.2571C11.0821 54.2561 12.0241 53.8648 12.7182 53.1693L20.4182 45.4815C25.3909 47.3761 30.8913 47.3493 35.8453 45.4063L43.6188 53.1684C43.9612 53.5182 44.3696 53.7967 44.8203 53.9878C45.271 54.1789 45.755 54.2787 46.2445 54.2816C46.734 54.2845 47.2193 54.1904 47.6722 54.0046C48.1251 53.8189 48.5367 53.5452 48.8832 53.1994C49.2297 52.8537 49.5042 52.4427 49.691 51.9902C49.8777 51.5377 49.9729 51.0527 49.9711 50.5632C49.9693 50.0737 49.8705 49.5894 49.6804 49.1383C49.4903 48.6872 49.2127 48.2782 48.8636 47.935L42.337 41.4084C45.5812 38.5158 47.8686 34.7046 48.8952 30.481C49.9219 26.2575 49.6392 21.8215 48.0848 17.7624L50.0816 15.8505C50.3774 15.5679 50.6146 15.2296 50.7796 14.8552C50.9446 14.4808 51.0343 14.0775 51.0434 13.6685C51.0525 13.2594 50.9809 12.8526 50.8326 12.4712C50.6844 12.0898 50.4625 11.7414 50.1796 11.4458L42.9731 3.9138ZM7.44371 14.1294C7.18766 13.8731 7.04383 13.5257 7.04383 13.1634C7.04383 12.8012 7.18766 12.4537 7.44371 12.1974L14.8138 4.82818C15.0703 4.57256 15.4177 4.42902 15.7798 4.42902C16.142 4.42902 16.4893 4.57256 16.7458 4.82818L18.2447 6.32705C14.2527 8.38554 11.0016 11.637 8.94346 15.6292L7.44371 14.1294ZM11.481 51.9294C11.1133 52.2963 10.6152 52.5023 10.0958 52.5023C9.57647 52.5023 9.07832 52.2963 8.71071 51.9294C8.34582 51.5631 8.14095 51.0671 8.14095 50.55C8.14095 50.0329 8.34582 49.5369 8.71071 49.1705L15.2417 42.6395C16.3213 43.4445 17.4744 44.1458 18.6857 44.7343L11.481 51.9294ZM47.6255 49.1749C47.9912 49.5424 48.196 50.0401 48.1947 50.5586C48.1935 51.077 47.9864 51.5738 47.6189 51.9395C47.2514 52.3052 46.7537 52.51 46.2353 52.5088C45.7168 52.5075 45.2201 52.3004 44.8543 51.9329L37.5612 44.6494C38.7649 44.05 39.9094 43.3387 40.9798 42.5249L47.6255 49.1749ZM28.036 45.1333C24.7551 45.1346 21.5258 44.3166 18.6412 42.7535C15.7566 41.1904 13.3079 38.9318 11.5175 36.1825C9.72706 33.4332 8.65149 30.2803 8.38841 27.01C8.12532 23.7397 8.68304 20.4554 10.011 17.4553V17.4483C11.5688 13.9224 14.1263 10.9307 17.3671 8.84355C20.6079 6.7564 24.3896 5.66542 28.2441 5.70565C32.0986 5.74587 35.8566 6.91555 39.0531 9.06989C42.2496 11.2242 44.7442 14.2686 46.2281 17.8263C46.2343 17.8447 46.2413 17.8628 46.2491 17.8805C47.4902 20.8754 47.9734 24.1302 47.6558 27.3564C47.3382 30.5827 46.2296 33.6807 44.4283 36.3761C42.627 39.0714 40.1886 41.2808 37.3293 42.8083C34.4699 44.3359 31.2778 45.1345 28.036 45.1333ZM48.8723 14.5879L47.3446 16.05C45.3737 12.0119 42.1928 8.68868 38.2446 6.54318L39.7741 5.0793C39.9037 4.95519 40.0565 4.85784 40.2238 4.79282C40.3911 4.7278 40.5695 4.69638 40.749 4.70036C40.9284 4.70434 41.1053 4.74365 41.2695 4.81602C41.4337 4.8884 41.5821 4.99243 41.7061 5.12218L48.9117 12.6577C49.0357 12.7872 49.133 12.9398 49.198 13.1069C49.263 13.274 49.2945 13.4523 49.2906 13.6315C49.2867 13.8107 49.2475 13.9875 49.1753 14.1516C49.1031 14.3157 48.9992 14.464 48.8697 14.5879H48.8723Z" fill="#21409C"/>
<path d="M31.6051 27.7514C31.987 27.1706 32.221 26.5051 32.2867 25.8131C32.3523 25.1211 32.2476 24.4235 31.9818 23.7812C31.7159 23.1389 31.2969 22.5714 30.7613 22.1283C30.2258 21.6851 29.5899 21.3797 28.9092 21.2388V11.4624C28.9092 11.2303 28.817 11.0078 28.6529 10.8437C28.4888 10.6796 28.2663 10.5874 28.0342 10.5874C27.8021 10.5874 27.5796 10.6796 27.4155 10.8437C27.2514 11.0078 27.1592 11.2303 27.1592 11.4624V21.2388C26.5434 21.3658 25.9633 21.6273 25.4603 22.0045C24.9572 22.3818 24.5437 22.8654 24.2493 23.421C23.9548 23.9765 23.7867 24.5902 23.7569 25.2182C23.7271 25.8463 23.8363 26.4732 24.0768 27.0541C24.3174 27.635 24.6832 28.1557 25.1482 28.5788C25.6133 29.002 26.166 29.3173 26.767 29.5021C27.368 29.6869 28.0023 29.7367 28.6248 29.6479C29.2473 29.5592 29.8424 29.3341 30.3678 28.9887L34.3053 32.9262C34.4703 33.0855 34.6914 33.1737 34.9208 33.1717C35.1502 33.1698 35.3697 33.0777 35.5319 32.9155C35.6941 32.7533 35.7862 32.5338 35.7882 32.3044C35.7901 32.075 35.702 31.8539 35.5426 31.6889L31.6051 27.7514ZM25.5124 25.4187C25.5122 25.0046 25.6139 24.5968 25.8086 24.2314C26.0034 23.8659 26.2851 23.5541 26.6289 23.3233C26.9727 23.0925 27.3681 22.95 27.78 22.9083C28.192 22.8665 28.6079 22.9269 28.991 23.084C29.3741 23.2411 29.7127 23.4902 29.9767 23.8091C30.2407 24.1281 30.4222 24.5072 30.505 24.9129C30.5878 25.3186 30.5694 25.7385 30.4515 26.1354C30.3336 26.5323 30.1197 26.8941 29.8288 27.1888C29.8244 27.1888 29.8183 27.1888 29.8148 27.1975C29.8113 27.2063 29.8096 27.2072 29.8052 27.2115C29.4517 27.5616 29.0026 27.7992 28.5143 27.8944C28.026 27.9895 27.5205 27.938 27.0614 27.7462C26.6024 27.5544 26.2104 27.2311 25.9349 26.8169C25.6594 26.4026 25.5127 25.9161 25.5133 25.4187H25.5124ZM23.7099 40.9027C19.9099 40.0012 16.5748 37.7321 14.3413 34.5283C13.1098 32.6962 12.2977 30.615 11.9631 28.433C11.9229 28.2073 11.7959 28.0064 11.6092 27.8734C11.4224 27.7405 11.191 27.6861 10.9646 27.722C10.7382 27.7578 10.5349 27.8811 10.3985 28.0653C10.262 28.2495 10.2033 28.4799 10.2349 28.7069C10.609 31.1412 11.5151 33.4632 12.8888 35.5074C15.3653 39.0714 19.0687 41.5973 23.2908 42.6019C23.3596 42.6185 23.4301 42.627 23.5008 42.6273C23.7146 42.6273 23.921 42.549 24.0811 42.4072C24.2411 42.2654 24.3436 42.0699 24.3694 41.8576C24.3951 41.6453 24.3422 41.431 24.2208 41.2551C24.0993 41.0791 23.9175 40.9538 23.7099 40.9027ZM26.7576 41.9212C26.6762 42.0009 26.6117 42.0962 26.5681 42.2015C26.5245 42.3067 26.5026 42.4197 26.5038 42.5337C26.5026 42.6489 26.5245 42.7632 26.568 42.8699C26.6116 42.9766 26.676 43.0735 26.7575 43.155C26.839 43.2365 26.9359 43.3009 27.0426 43.3444C27.1493 43.388 27.2636 43.4098 27.3788 43.4087C27.4928 43.41 27.6058 43.3882 27.7111 43.3446C27.8163 43.3009 27.9117 43.2364 27.9913 43.1549C28.074 43.0739 28.1398 42.9772 28.1848 42.8706C28.2299 42.7639 28.2533 42.6494 28.2538 42.5337C28.2533 42.4192 28.2299 42.306 28.1848 42.2007C28.1397 42.0955 28.0739 42.0004 27.9913 41.9212C27.8258 41.7611 27.6046 41.6716 27.3744 41.6716C27.1442 41.6716 26.923 41.7611 26.7576 41.9212Z" fill="#21409C"/>
</svg>
