<svg width="57" height="56" viewBox="0 0 57 56" fill="none" xmlns="http://www.w3.org/2000/svg">
<path d="M40.88 36.3357L39.993 34.3386C40.551 33.3595 40.9842 32.3145 41.2827 31.2278L43.3206 30.4433C43.4856 30.3798 43.6275 30.2678 43.7276 30.122C43.8277 29.9762 43.8813 29.8036 43.8813 29.6267V25.6106C43.8813 25.4338 43.8277 25.2611 43.7276 25.1153C43.6275 24.9696 43.4856 24.8575 43.3206 24.794L41.2835 24.0099C40.985 22.9228 40.5515 21.8774 39.9933 20.898L40.88 18.9018C40.9518 18.7401 40.9729 18.5606 40.9406 18.3867C40.9083 18.2128 40.8241 18.0528 40.699 17.9278L37.859 15.088C37.7339 14.963 37.574 14.8788 37.4001 14.8465C37.2263 14.8142 37.0468 14.8353 36.8852 14.9071L34.8882 15.794C33.9091 15.236 32.864 14.8027 31.7773 14.5042L30.9928 12.4665C30.9293 12.3014 30.8173 12.1595 30.6715 12.0595C30.5257 11.9594 30.3531 11.9058 30.1762 11.9058H26.1602C25.9834 11.9058 25.8107 11.9594 25.6649 12.0595C25.5192 12.1595 25.4071 12.3014 25.3436 12.4665L24.5592 14.5042C23.4725 14.8027 22.4273 15.236 21.4482 15.794L19.4512 14.9071C19.2896 14.8352 19.11 14.8141 18.9361 14.8464C18.7622 14.8787 18.6023 14.963 18.4773 15.0881L15.6374 17.928C15.5123 18.053 15.4281 18.213 15.3958 18.3869C15.3635 18.5607 15.3847 18.7403 15.4564 18.9019L16.3433 20.8986C15.7852 21.8778 15.3519 22.9231 15.0534 24.0099L13.0157 24.7942C12.8507 24.8578 12.7088 24.9698 12.6087 25.1156C12.5087 25.2613 12.4551 25.434 12.4551 25.6108V29.627C12.4551 29.8038 12.5087 29.9765 12.6087 30.1222C12.7088 30.268 12.8507 30.38 13.0157 30.4436L15.0531 31.2278C15.3515 32.3149 15.7849 33.3603 16.3432 34.3397L15.4564 36.3359C15.3847 36.4975 15.3635 36.6771 15.3958 36.8509C15.4281 37.0248 15.5123 37.1848 15.6374 37.3098L18.4773 40.1497C18.6023 40.2747 18.7623 40.3589 18.9362 40.3912C19.11 40.4235 19.2895 40.4024 19.4512 40.3306L21.4483 39.4437C22.4275 40.0016 23.4725 40.4349 24.5592 40.7334L25.3436 42.7712C25.4071 42.9362 25.5192 43.0781 25.6649 43.1782C25.8107 43.2783 25.9834 43.3319 26.1602 43.3319H30.1764C30.3532 43.3319 30.5259 43.2783 30.6716 43.1782C30.8174 43.0781 30.9294 42.9362 30.9929 42.7712L31.7771 40.7341C32.8642 40.4356 33.9096 40.0022 34.889 39.4439L36.8853 40.3306C37.0469 40.4024 37.2265 40.4236 37.4003 40.3913C37.5742 40.359 37.7342 40.2748 37.8592 40.1497L40.6991 37.3098C40.8241 37.1847 40.9082 37.0247 40.9405 36.8508C40.9728 36.6769 40.9517 36.4973 40.88 36.3357ZM39.696 30.3706C39.4058 31.5901 38.9227 32.7555 38.2649 33.8226C38.1904 33.9436 38.1465 34.081 38.137 34.2228C38.1274 34.3646 38.1526 34.5066 38.2103 34.6364L39.0367 36.497L37.0465 38.4872L35.1867 37.6611C35.0568 37.6035 34.9148 37.5783 34.773 37.5879C34.6312 37.5974 34.4938 37.6413 34.3727 37.7158C33.3055 38.3738 32.1399 38.857 30.9201 39.1472C30.7818 39.18 30.6537 39.2461 30.5467 39.3396C30.4397 39.4332 30.3571 39.5514 30.3061 39.684L29.5756 41.5817H26.7611L26.0304 39.6836C25.9794 39.5509 25.8968 39.4328 25.7898 39.3392C25.6828 39.2457 25.5547 39.1796 25.4165 39.1467C24.1969 38.8566 23.0316 38.3734 21.9645 37.7156C21.8435 37.641 21.7061 37.5971 21.5643 37.5876C21.4225 37.5781 21.2805 37.6033 21.1506 37.661L19.2899 38.4873L17.2997 36.4971L18.1259 34.6373C18.1836 34.5074 18.2087 34.3654 18.1992 34.2236C18.1897 34.0817 18.1457 33.9444 18.0712 33.8234C17.4131 32.756 16.9299 31.5904 16.6398 30.3706C16.6069 30.2324 16.5408 30.1042 16.4473 29.9973C16.3537 29.8903 16.2356 29.8077 16.103 29.7567L14.2052 29.0262V26.2116L16.1033 25.481C16.2359 25.43 16.3541 25.3474 16.4477 25.2404C16.5412 25.1334 16.6072 25.0052 16.6401 24.867C16.9303 23.6474 17.4134 22.482 18.0713 21.4149C18.1458 21.2938 18.1897 21.1565 18.1993 21.0146C18.2088 20.8728 18.1836 20.7308 18.126 20.6009L17.2997 18.7407L19.2899 16.7504L21.1505 17.5767C21.2804 17.6343 21.4224 17.6595 21.5642 17.65C21.706 17.6404 21.8434 17.5965 21.9644 17.522C23.0315 16.8642 24.1968 16.3811 25.4164 16.0909C25.5546 16.058 25.6827 15.9919 25.7897 15.8984C25.8967 15.8048 25.9792 15.6866 26.0303 15.554L26.761 13.6558H29.5756L30.3063 15.554C30.3573 15.6866 30.4399 15.8048 30.5469 15.8984C30.6539 15.9919 30.782 16.058 30.9202 16.0909C32.1397 16.3811 33.3051 16.8643 34.3722 17.522C34.4932 17.5965 34.6306 17.6405 34.7724 17.65C34.9142 17.6595 35.0562 17.6343 35.1861 17.5766L37.0465 16.7504L39.0368 18.7405L38.2107 20.6002C38.153 20.7302 38.1279 20.8722 38.1374 21.014C38.1469 21.1559 38.1909 21.2933 38.2654 21.4143C38.9234 22.4816 39.4066 23.6472 39.6967 24.867C39.7296 25.0052 39.7957 25.1334 39.8892 25.2404C39.9828 25.3474 40.101 25.4299 40.2336 25.481L42.1313 26.2114V29.0259L40.2331 29.7567C40.1004 29.8077 39.9822 29.8902 39.8886 29.9972C39.795 30.1042 39.7289 30.2323 39.696 30.3706ZM28.1682 18.6682C23.2329 18.6682 19.2177 22.6833 19.2177 27.6186C19.2177 32.5539 23.2329 36.5691 28.1682 36.5691C33.1035 36.5691 37.1186 32.5539 37.1186 27.6186C37.1186 22.6833 33.1035 18.6682 28.1682 18.6682ZM28.1682 34.8191C24.1978 34.8191 20.9677 31.589 20.9677 27.6186C20.9677 23.6483 24.1978 20.4182 28.1682 20.4182C32.1385 20.4182 35.3686 23.6483 35.3686 27.6186C35.3686 31.589 32.1385 34.8191 28.1682 34.8191ZM31.6132 29.4035C31.7013 30.1286 31.5054 30.792 31.0465 31.3225C30.5876 31.8532 29.8682 32.228 29.0432 32.3831V32.7287C29.0432 32.9608 28.951 33.1834 28.7869 33.3474C28.6229 33.5115 28.4003 33.6037 28.1682 33.6037C27.9362 33.6037 27.7136 33.5115 27.5495 33.3474C27.3854 33.1834 27.2932 32.9608 27.2932 32.7287V32.3684C26.0116 32.0904 25.0308 31.215 24.7286 30.0026C24.6725 29.7774 24.7081 29.5391 24.8276 29.3402C24.9471 29.1413 25.1408 28.998 25.3659 28.9418C25.8348 28.8257 26.3097 29.1103 26.4267 29.5792C26.6417 30.4421 27.5461 30.7304 28.2528 30.7116C28.8686 30.697 29.4593 30.4824 29.7229 30.1777C29.8572 30.0224 29.9043 29.8486 29.8759 29.6144C29.8264 29.2064 29.5722 28.7055 28.0337 28.4529C25.5922 28.0521 25.0216 26.7681 24.9728 25.7615C24.9063 24.3916 25.836 23.2432 27.2931 22.8839V22.5085C27.2931 22.2764 27.3853 22.0539 27.5494 21.8898C27.7135 21.7257 27.9361 21.6335 28.1681 21.6335C28.4002 21.6335 28.6227 21.7257 28.7868 21.8898C28.9509 22.0539 29.0431 22.2764 29.0431 22.5085V22.876C29.9875 23.0979 30.8816 23.7056 31.3522 24.8266C31.3967 24.9325 31.4199 25.0462 31.4205 25.1611C31.4211 25.276 31.399 25.3899 31.3555 25.4963C31.312 25.6027 31.2481 25.6994 31.1672 25.7811C31.0863 25.8627 30.9902 25.9276 30.8842 25.9721C30.4394 26.1591 29.9259 25.9498 29.7387 25.5041C29.3729 24.6329 28.4761 24.4092 27.7494 24.5741C27.5707 24.6146 26.6809 24.8583 26.7208 25.6766C26.7314 25.8937 26.7594 26.4702 28.3173 26.726C30.3287 27.0564 31.4377 27.9571 31.6132 29.4035ZM8.0604 18.5479L1.23124 9.89188C1.12939 9.76291 1.06592 9.60785 1.04812 9.44448C1.03031 9.2811 1.05889 9.11601 1.13058 8.96813C1.20227 8.82024 1.31417 8.69554 1.45345 8.60832C1.59273 8.52109 1.75377 8.47486 1.91812 8.47493H3.62098V2.13184C3.62098 1.89977 3.71317 1.67721 3.87726 1.51312C4.04135 1.34902 4.26391 1.25684 4.49598 1.25684C4.72804 1.25684 4.9506 1.34902 5.1147 1.51312C5.27879 1.67721 5.37098 1.89977 5.37098 2.13184V9.35004C5.37098 9.5821 5.27879 9.80466 5.1147 9.96876C4.9506 10.1329 4.72804 10.225 4.49598 10.225H3.72302L8.74738 16.5934L13.7719 10.225H12.9988C12.7667 10.225 12.5442 10.1329 12.3801 9.96876C12.216 9.80466 12.1238 9.5821 12.1238 9.35004V2.13184C12.1238 1.89977 12.216 1.67721 12.3801 1.51312C12.5442 1.34902 12.7667 1.25684 12.9988 1.25684C13.2309 1.25684 13.4534 1.34902 13.6175 1.51312C13.7816 1.67721 13.8738 1.89977 13.8738 2.13184V8.47504H15.5768C15.7411 8.47506 15.9021 8.52133 16.0413 8.60858C16.1805 8.69582 16.2924 8.82051 16.364 8.96836C16.4357 9.11621 16.4643 9.28126 16.4466 9.4446C16.4288 9.60795 16.3654 9.763 16.2636 9.89199L9.43437 18.5479C9.35248 18.6518 9.24812 18.7357 9.12914 18.7934C9.01015 18.8511 8.87963 18.8811 8.74738 18.8811C8.61514 18.8811 8.48462 18.8511 8.36563 18.7934C8.24664 18.7357 8.14229 18.6518 8.0604 18.5479ZM55.105 45.7546L48.2758 54.4106C48.194 54.5144 48.0896 54.5983 47.9706 54.6559C47.8517 54.7136 47.7212 54.7436 47.589 54.7436C47.4568 54.7436 47.3263 54.7136 47.2073 54.6559C47.0883 54.5983 46.984 54.5144 46.9021 54.4106L40.0728 45.7546C39.971 45.6257 39.9075 45.4706 39.8897 45.3072C39.8719 45.1439 39.9005 44.9788 39.9722 44.8309C40.0438 44.683 40.1557 44.5583 40.295 44.4711C40.4343 44.3838 40.5954 44.3376 40.7597 44.3377H42.4626V37.9946C42.4626 37.7625 42.5547 37.54 42.7188 37.3759C42.8829 37.2118 43.1055 37.1196 43.3376 37.1196C43.5696 37.1196 43.7922 37.2118 43.9563 37.3759C44.1204 37.54 44.2126 37.7625 44.2126 37.9946V45.2127C44.2126 45.4447 44.1204 45.6673 43.9563 45.8314C43.7922 45.9955 43.5696 46.0877 43.3376 46.0877H42.5646L47.5891 52.4559L52.6134 46.0877H51.8405C51.6084 46.0877 51.3859 45.9955 51.2218 45.8314C51.0577 45.6673 50.9655 45.4447 50.9655 45.2127V37.9946C50.9655 37.7625 51.0577 37.54 51.2218 37.3759C51.3859 37.2118 51.6084 37.1196 51.8405 37.1196C52.0725 37.1196 52.2951 37.2118 52.4592 37.3759C52.6233 37.54 52.7155 37.7625 52.7155 37.9946V44.3377H54.4181C54.5824 44.3377 54.7434 44.384 54.8826 44.4712C55.0219 44.5585 55.1337 44.6832 55.2054 44.831C55.2771 44.9789 55.3057 45.1439 55.2879 45.3073C55.2702 45.4706 55.2068 45.6256 55.105 45.7546ZM18.4182 6.25571C18.3297 6.04118 18.3301 5.80029 18.4192 5.58602C18.5083 5.37176 18.6789 5.20167 18.8934 5.11318C21.8396 3.89781 24.9599 3.28148 28.1681 3.28148C34.6688 3.28148 40.7804 5.81296 45.3771 10.4097C49.9737 15.0063 52.5053 21.1179 52.5053 27.6186C52.5053 27.9633 52.4979 28.3088 52.4833 28.6541L53.0692 27.8375C53.2045 27.6489 53.4092 27.5219 53.6382 27.4842C53.8672 27.4466 54.1018 27.5014 54.2903 27.6367C54.4789 27.772 54.6059 27.9767 54.6436 28.2057C54.6812 28.4347 54.6264 28.6693 54.4911 28.8578L51.9532 32.3944C51.8637 32.5191 51.7428 32.6181 51.6029 32.6813C51.463 32.7446 51.3088 32.7699 51.156 32.7548C51.0032 32.7396 50.8571 32.6845 50.7323 32.595C50.6075 32.5055 50.5084 32.3848 50.4451 32.2449L48.6512 28.2788C48.5561 28.0675 48.5488 27.827 48.6308 27.6103C48.7128 27.3935 48.8774 27.2181 49.0886 27.1226C49.2997 27.0271 49.5402 27.0192 49.7571 27.1008C49.974 27.1824 50.1497 27.3466 50.2457 27.5576L50.7325 28.6339C50.7477 28.2953 50.7553 27.9566 50.7553 27.6186C50.7553 15.1641 40.6227 5.03148 28.1681 5.03148C25.1901 5.03148 22.2941 5.60329 19.5609 6.73084C19.4546 6.77467 19.3408 6.79715 19.2259 6.797C19.111 6.79684 18.9972 6.77406 18.8911 6.72994C18.785 6.68582 18.6886 6.62123 18.6075 6.53986C18.5264 6.45849 18.462 6.36194 18.4182 6.25571ZM37.6029 49.1243C37.6882 49.3401 37.6843 49.5809 37.5921 49.7939C37.4998 50.0068 37.3268 50.1744 37.111 50.2597C34.264 51.3852 31.2552 51.9559 28.1681 51.9559C21.6674 51.9559 15.5559 49.4243 10.9592 44.8277C6.36257 40.231 3.83098 34.1194 3.83098 27.6187C3.83098 26.4559 3.91334 25.2968 4.07674 24.152L3.34984 24.9589C3.27294 25.0443 3.17997 25.1137 3.07625 25.1632C2.97253 25.2126 2.86008 25.2412 2.74533 25.2472C2.51357 25.2593 2.2865 25.1788 2.11406 25.0235C1.94163 24.8682 1.83795 24.6508 1.82583 24.419C1.81372 24.1873 1.89417 23.9602 2.04948 23.7878L4.96268 20.5534C5.06543 20.4392 5.19644 20.3541 5.34253 20.3066C5.48862 20.2592 5.64464 20.251 5.79489 20.283C5.94514 20.3149 6.08432 20.3859 6.19843 20.4887C6.31254 20.5916 6.39756 20.7226 6.44493 20.8688L7.78937 25.0088C7.85872 25.2289 7.83834 25.4675 7.73266 25.6726C7.62698 25.8777 7.44456 26.0328 7.2251 26.104C7.00565 26.1753 6.76692 26.157 6.56089 26.0531C6.35486 25.9492 6.1982 25.7682 6.12501 25.5494L5.79163 24.5231C5.65117 25.549 5.58071 26.5833 5.58076 27.6188C5.58076 40.0735 15.7134 50.206 28.1679 50.206C31.0337 50.206 33.8261 49.6765 36.4673 48.6324C36.5741 48.5901 36.6883 48.5693 36.8032 48.5711C36.9181 48.573 37.0315 48.5974 37.137 48.6431C37.2424 48.6888 37.3379 48.7548 37.4178 48.8373C37.4978 48.9199 37.5607 49.0174 37.6029 49.1243Z" fill="#21409C"/>
</svg>
