<svg width="57" height="56" viewBox="0 0 57 56" fill="none" xmlns="http://www.w3.org/2000/svg">
<path fill-rule="evenodd" clip-rule="evenodd" d="M32.813 37.9502C39.0478 39.6848 43.7526 45.0881 44.4577 51.6874C44.4708 51.81 44.458 51.9339 44.4201 52.0511C44.3821 52.1684 44.3199 52.2764 44.2376 52.368C44.1552 52.4597 44.0544 52.5329 43.9419 52.5831C43.8293 52.6333 43.7075 52.6592 43.5842 52.6592H13.4176C13.2943 52.6592 13.1724 52.6332 13.0598 52.583C12.9472 52.5328 12.8465 52.4594 12.7641 52.3677C12.6817 52.276 12.6196 52.168 12.5817 52.0507C12.5437 51.9334 12.5309 51.8095 12.5441 51.6869C13.2529 45.0876 17.9585 39.6842 24.1914 37.95C21.6602 36.4628 19.9554 33.7096 19.9554 30.5717C19.9554 25.864 23.7931 22.0222 28.5009 22.0222C33.2131 22.0222 37.0505 25.8641 37.0505 30.5717C37.0505 33.7097 35.3455 36.463 32.813 37.9502ZM28.5009 39.1214C21.466 39.1214 15.6181 44.2065 14.4292 50.9023H42.5731C41.3878 44.2064 35.5394 39.1214 28.5009 39.1214ZM28.5009 37.3645C32.2448 37.3645 35.2936 34.3121 35.2936 30.5717C35.2936 26.8315 32.2448 23.779 28.5009 23.779C24.7608 23.779 21.7123 26.8316 21.7123 30.5717C21.7123 34.312 24.7608 37.3645 28.5009 37.3645ZM13.2173 32.4153C13.2173 32.9002 12.8237 33.2937 12.3389 33.2937C11.8541 33.2937 11.4604 32.9002 11.4604 32.4153C11.4604 23.0105 19.096 15.3748 28.5009 15.3748C37.9058 15.3748 45.5414 23.0105 45.5414 32.4153C45.5414 32.9002 45.1477 33.2937 44.6629 33.2937C44.1782 33.2937 43.7845 32.9002 43.7845 32.4153C43.7845 23.9801 36.9362 17.1317 28.5009 17.1317C20.0657 17.1317 13.2173 23.9801 13.2173 32.4153ZM27.6225 8.80099V4.21876C27.6225 3.73398 28.0161 3.34033 28.5009 3.34033C28.9857 3.34033 29.3793 3.73398 29.3793 4.21876V8.80099L29.6262 8.58446C29.8013 8.43092 30.0303 8.35319 30.2627 8.36835C30.4951 8.3835 30.712 8.4903 30.8658 8.66527C31.0194 8.84042 31.0971 9.06938 31.082 9.30185C31.0668 9.53431 30.96 9.75124 30.7849 9.90496L29.0803 11.4008C28.9201 11.5415 28.7141 11.619 28.5009 11.619C28.2877 11.619 28.0817 11.5415 27.9215 11.4008L26.2169 9.90496C26.0418 9.75124 25.935 9.53431 25.9198 9.30185C25.9047 9.06938 25.9825 8.84042 26.1361 8.66527C26.2898 8.4903 26.5067 8.3835 26.7391 8.36835C26.9715 8.35319 27.2005 8.43092 27.3756 8.58446L27.6225 8.80099ZM13.7279 14.5564L13.7492 14.2287C13.7808 13.7449 14.1992 13.3777 14.683 13.4094C14.9154 13.4246 15.1323 13.5315 15.2859 13.7066C15.4396 13.8817 15.5174 14.1107 15.5023 14.3431L15.3547 16.6062C15.3409 16.8189 15.2501 17.0194 15.0993 17.1701C14.9486 17.3209 14.7481 17.4117 14.5354 17.4255L12.2722 17.5732C12.0398 17.5882 11.8108 17.5104 11.6357 17.3567C11.4607 17.2031 11.3537 16.9862 11.3384 16.7538C11.3234 16.5213 11.4013 16.2924 11.5549 16.1173C11.7086 15.9423 11.9255 15.8354 12.1579 15.8201L12.4856 15.7987L9.24547 12.5586C9.0808 12.3938 8.9883 12.1704 8.9883 11.9374C8.9883 11.7045 9.0808 11.4811 9.24547 11.3163C9.41025 11.1516 9.63365 11.0592 9.86658 11.0592C10.0995 11.0592 10.3229 11.1516 10.4877 11.3163L13.7279 14.5564ZM6.73019 29.6933L6.51366 29.4465C6.1938 29.0821 6.23003 28.5266 6.59447 28.2069C6.95891 27.8871 7.5143 27.9233 7.83416 28.2877L9.33002 29.9924C9.47064 30.1526 9.54818 30.3586 9.54818 30.5718C9.54818 30.785 9.47064 30.9909 9.33002 31.1511L7.83416 32.8558C7.5143 33.2202 6.95891 33.2564 6.59447 32.9367C6.23003 32.6169 6.1938 32.0614 6.51366 31.697L6.73019 31.4501H2.14796C1.66318 31.4501 1.26953 31.0566 1.26953 30.5717C1.26953 30.0869 1.66318 29.6933 2.14796 29.6933H6.73019ZM43.2739 14.5564L46.5141 11.3163C46.6789 11.1516 46.9023 11.0592 47.1352 11.0592C47.3682 11.0592 47.5916 11.1516 47.7563 11.3163C47.921 11.4811 48.0135 11.7045 48.0135 11.9374C48.0135 12.1704 47.921 12.3938 47.7563 12.5586L44.5163 15.7987L44.8439 15.8201C45.0763 15.8354 45.2932 15.9423 45.4469 16.1173C45.6005 16.2924 45.6784 16.5213 45.6634 16.7538C45.6481 16.9862 45.5412 17.2031 45.3661 17.3567C45.191 17.5104 44.9621 17.5882 44.7296 17.5732L42.4664 17.4255C42.2537 17.4117 42.0532 17.3209 41.9025 17.1701C41.7517 17.0194 41.6609 16.8189 41.6471 16.6062L41.4995 14.3431C41.4844 14.1107 41.5622 13.8817 41.7159 13.7066C41.8695 13.5315 42.0864 13.4246 42.3189 13.4094C42.8027 13.3777 43.221 13.7449 43.2526 14.2287L43.2739 14.5564ZM50.2716 29.6933H54.8539C55.3386 29.6933 55.7323 30.0869 55.7323 30.5717C55.7323 31.0566 55.3386 31.4501 54.8539 31.4501H50.2716L50.4882 31.697C50.808 32.0614 50.7718 32.6169 50.4073 32.9367C50.0429 33.2564 49.4875 33.2202 49.1677 32.8558L47.6718 31.1511C47.5312 30.9909 47.4536 30.785 47.4536 30.5718C47.4536 30.3586 47.5312 30.1526 47.6718 29.9924L49.1677 28.2877C49.4875 27.9233 50.0429 27.8871 50.4073 28.2069C50.7718 28.5266 50.808 29.0821 50.4882 29.4465L50.2716 29.6933Z" fill="#21409C"/>
</svg>
