<svg width="57" height="56" viewBox="0 0 57 56" fill="none" xmlns="http://www.w3.org/2000/svg">
<g clip-path="url(#clip0_3332_18314)">
<path d="M20.2767 13.1492C20.1158 13.6443 20.2742 14.175 20.68 14.5013L24.2932 17.4054L23.0771 21.8787C22.9406 22.381 23.1244 22.9033 23.5458 23.2098C23.9674 23.5156 24.5207 23.5291 24.9563 23.244L28.8349 20.7051L32.7135 23.2442C32.9157 23.3774 33.1524 23.4486 33.3945 23.449C33.6568 23.4486 33.9122 23.3649 34.1238 23.2098C34.5455 22.9037 34.7294 22.381 34.5926 21.8787L33.3765 17.4055L36.9895 14.5015C37.3956 14.1753 37.5539 13.6445 37.3929 13.1492C37.232 12.6537 36.7919 12.3174 36.2718 12.2922L31.6417 12.0665L29.9962 7.73281C29.8115 7.24598 29.3555 6.93131 28.8348 6.93131C28.314 6.93131 27.8581 7.24587 27.6734 7.7327L26.0279 12.0666L21.398 12.2922C20.8778 12.3174 20.4376 12.6537 20.2767 13.1492ZM26.445 13.7982C26.6865 13.7865 26.9192 13.7046 27.1147 13.5625C27.3103 13.4204 27.4601 13.2243 27.5458 12.9983L28.8347 9.60389L30.1235 12.9987C30.2094 13.2245 30.3592 13.4205 30.5548 13.5625C30.7503 13.7045 30.9829 13.7864 31.2243 13.7982L34.8508 13.9751L32.0207 16.2497C31.8323 16.4011 31.6921 16.6042 31.6175 16.8341C31.5428 17.064 31.5368 17.3106 31.6002 17.5439L32.5528 21.0476L29.5148 19.0588C29.3125 18.9265 29.0761 18.856 28.8344 18.856C28.5927 18.8561 28.3563 18.9266 28.154 19.0589L25.1163 21.0476L26.0688 17.5441C26.1323 17.3108 26.1263 17.0641 26.0516 16.8342C25.9769 16.6042 25.8367 16.4011 25.6483 16.2497L22.8182 13.9752L26.445 13.7982ZM27.9597 4.08603V0.875C27.9597 0.642936 28.0519 0.420376 28.216 0.256282C28.38 0.0921872 28.6026 0 28.8347 0C29.0667 0 29.2893 0.0921872 29.4534 0.256282C29.6175 0.420376 29.7097 0.642936 29.7097 0.875V4.08603C29.7097 4.3181 29.6175 4.54066 29.4534 4.70475C29.2893 4.86884 29.0667 4.96103 28.8347 4.96103C28.6026 4.96103 28.38 4.86884 28.216 4.70475C28.0519 4.54066 27.9597 4.3181 27.9597 4.08603ZM33.2883 9.27019C33.133 9.09773 33.0526 8.87066 33.0648 8.63892C33.0769 8.40718 33.1806 8.18975 33.3531 8.03447L36.9313 4.8125C37.0167 4.73561 37.1164 4.67628 37.2247 4.63792C37.333 4.59956 37.4478 4.5829 37.5625 4.58891C37.6773 4.59492 37.7897 4.62347 37.8935 4.67293C37.9972 4.7224 38.0901 4.79181 38.167 4.8772C38.2439 4.96259 38.3033 5.06228 38.3416 5.1706C38.38 5.27892 38.3966 5.39373 38.3906 5.50848C38.3846 5.62323 38.3561 5.73568 38.3066 5.8394C38.2571 5.94311 38.1877 6.03607 38.1023 6.11297L34.524 9.33494C34.3636 9.47985 34.155 9.55996 33.9388 9.5597C33.8161 9.55987 33.6947 9.53418 33.5827 9.48429C33.4706 9.43441 33.3703 9.36145 33.2883 9.27019ZM19.5023 4.87725C19.5791 4.79185 19.6721 4.72242 19.7758 4.67295C19.8795 4.62347 19.992 4.59491 20.1068 4.5889C20.2215 4.58289 20.3363 4.59954 20.4447 4.63791C20.553 4.67627 20.6527 4.7356 20.7381 4.8125L24.3164 8.03447C24.4888 8.18976 24.5925 8.4072 24.6047 8.63896C24.6168 8.87071 24.5364 9.09779 24.3811 9.27024C24.2258 9.44269 24.0084 9.54639 23.7766 9.55853C23.5448 9.57066 23.3178 9.49023 23.1453 9.33494L19.567 6.11297C19.3946 5.95769 19.2908 5.74026 19.2787 5.50852C19.2666 5.27678 19.347 5.0497 19.5023 4.87725ZM40.0603 14.5013L43.6735 17.4054L42.4573 21.8787C42.3208 22.381 42.5047 22.9033 42.9261 23.2098C43.3473 23.5156 43.9007 23.529 44.3366 23.244L48.2152 20.7051L52.0938 23.2442C52.296 23.3774 52.5327 23.4486 52.7748 23.449C53.0371 23.4486 53.2925 23.3649 53.5041 23.2098C53.9255 22.9039 54.1095 22.3814 53.9729 21.8787L52.7567 17.4055L56.3697 14.5015C56.7757 14.1754 56.9341 13.6446 56.7731 13.1492C56.6122 12.6537 56.1721 12.3174 55.6521 12.2922L51.0219 12.0665L49.3766 7.73281C49.1919 7.24598 48.7359 6.93131 48.2152 6.93131C47.6943 6.93131 47.2383 7.24587 47.0536 7.7327L45.4083 12.0665L40.7784 12.2921C40.258 12.3173 39.8179 12.6537 39.657 13.1492C39.496 13.6445 39.6544 14.1753 40.0603 14.5013ZM45.8252 13.7982C46.0667 13.7865 46.2995 13.7046 46.4951 13.5625C46.6906 13.4204 46.8405 13.2243 46.9263 12.9982L48.215 9.60378L49.5037 12.9981C49.5894 13.2241 49.7393 13.4202 49.9349 13.5623C50.1304 13.7044 50.3632 13.7864 50.6047 13.7981L54.2312 13.975L51.4014 16.2494C51.2128 16.4008 51.0726 16.6039 50.9979 16.8338C50.9231 17.0637 50.9171 17.3105 50.9806 17.5437L51.9331 21.0475L48.8951 19.0587C48.6929 18.9263 48.4565 18.8558 48.2148 18.8558C47.973 18.8558 47.7366 18.9264 47.5344 19.0588L44.4966 21.0475L45.4492 17.544C45.5126 17.3107 45.5066 17.064 45.4319 16.8341C45.3572 16.6042 45.2171 16.4011 45.0286 16.2496L42.1985 13.975L45.8252 13.7982ZM1.29952 14.5013L4.91272 17.4054L3.69658 21.8787C3.56008 22.381 3.74394 22.9033 4.16536 23.2098C4.58689 23.5156 5.14022 23.5291 5.57586 23.244L9.45441 20.7051L13.3331 23.2442C13.5352 23.3774 13.7719 23.4486 14.014 23.449C14.2763 23.4486 14.5318 23.3649 14.7433 23.2098C15.1648 22.9039 15.3487 22.3814 15.2121 21.8787L13.996 17.4055L17.609 14.5015C18.0148 14.1757 18.1732 13.645 18.0123 13.1486C17.8511 12.6535 17.411 12.3173 16.8914 12.2921L12.2612 12.0664L10.6159 7.73281C10.4311 7.24598 9.97514 6.93131 9.45441 6.93131C8.93356 6.93131 8.47758 7.24587 8.29285 7.7327L6.64752 12.0665L2.01767 12.2921C1.49738 12.3173 1.05725 12.6537 0.89647 13.1486C0.735142 13.6442 0.893408 14.1752 1.29952 14.5013ZM7.06445 13.7982C7.30593 13.7865 7.53873 13.7046 7.73432 13.5625C7.9299 13.4204 8.07977 13.2243 8.16553 12.9982L9.4543 9.60378L10.743 12.9981C10.8287 13.2241 10.9785 13.4202 11.1741 13.5623C11.3697 13.7044 11.6025 13.7864 11.8439 13.7981L15.4705 13.975L12.6406 16.2494C12.4521 16.4008 12.3119 16.6039 12.2371 16.8338C12.1624 17.0637 12.1564 17.3105 12.2198 17.5437L13.1724 21.0475L10.1344 19.0587C9.93218 18.9263 9.69572 18.8558 9.45401 18.8558C9.2123 18.8558 8.97585 18.9264 8.77366 19.0588L5.73588 21.0475L6.68842 17.544C6.75186 17.3107 6.74586 17.064 6.67116 16.8341C6.59646 16.6042 6.45631 16.4011 6.26788 16.2496L3.4378 13.975L7.06445 13.7982ZM56.697 46.477C56.0813 44.4888 54.8203 42.7036 53.1461 41.45C52.3555 40.8572 51.4809 40.3858 50.5511 40.0514C51.8276 39.0495 52.6501 37.4942 52.6501 35.7493C52.6501 32.7343 50.1971 30.2815 47.1822 30.2815C44.1672 30.2815 41.7142 32.7343 41.7142 35.7493C41.7142 37.4921 42.5348 39.0459 43.8088 40.0479C42.1013 40.6573 40.5887 41.7281 39.4303 43.171C38.8846 42.4074 38.2583 41.7047 37.5622 41.0751C36.1622 39.8079 34.5028 38.8612 32.6994 38.3009C34.5955 37.044 35.8489 34.8918 35.8489 32.4516C35.8489 28.5841 32.7023 25.4376 28.8348 25.4376C24.9673 25.4376 21.8207 28.5841 21.8207 32.4516C21.8207 34.8918 23.074 37.044 24.97 38.3009C23.1666 38.8611 21.5071 39.8078 20.1071 41.0751C19.4111 41.7047 18.7848 42.4073 18.2392 43.1709C17.0809 41.7279 15.5683 40.6571 13.8607 40.0475C15.1346 39.0456 15.9552 37.4918 15.9552 35.749C15.9552 32.734 13.5023 30.2811 10.4873 30.2811C7.47231 30.2811 5.01936 32.734 5.01936 35.749C5.01936 37.4937 5.84186 39.0492 7.11827 40.051C6.18843 40.3855 5.31374 40.8569 4.52313 41.4496C2.84892 42.7032 1.58794 44.4885 0.972267 46.4766C0.687783 47.3949 0.845392 48.3269 1.416 49.1011C1.9865 49.875 2.83022 50.3011 3.79163 50.3011H15.8877V51.8803C15.8877 54.152 17.7358 56.0001 20.0076 56.0001H37.6618C39.9334 56.0001 41.7816 54.152 41.7817 51.8803V50.3016H53.8777C54.8392 50.3016 55.6829 49.8753 56.2533 49.1015C56.8238 48.3273 56.9814 47.3953 56.697 46.477ZM47.1822 32.0315C49.2322 32.0315 50.9001 33.6993 50.9001 35.7493C50.9001 37.7995 49.2322 39.4673 47.1822 39.4673C45.1321 39.4673 43.4642 37.7995 43.4642 35.7493C43.4642 33.6993 45.1321 32.0315 47.1822 32.0315ZM23.5707 32.4516C23.5707 29.549 25.9322 27.1876 28.8348 27.1876C31.7374 27.1876 34.0989 29.549 34.0989 32.4516C34.0989 35.3533 31.7389 37.714 28.8376 37.7156H28.8318C25.9305 37.7139 23.5707 35.3532 23.5707 32.4516ZM10.4873 32.031C12.5374 32.031 14.2052 33.6989 14.2052 35.7489C14.2052 37.799 12.5374 39.4669 10.4873 39.4669C8.43722 39.4669 6.76936 37.799 6.76936 35.7489C6.76936 33.6989 8.43722 32.031 10.4873 32.031ZM16.0014 48.551H3.79174C3.38902 48.551 3.06374 48.3867 2.82475 48.0625C2.58566 47.7384 2.52495 47.379 2.64406 46.9943C3.71419 43.5386 6.86627 41.2169 10.4873 41.2169C13.2264 41.2169 15.7216 42.5403 17.2562 44.7806C16.6464 45.9654 16.2232 47.2371 16.0014 48.551ZM40.0317 51.8802C40.0316 53.1869 38.9685 54.25 37.6618 54.25H20.0076C18.7009 54.25 17.6377 53.1869 17.6377 51.8802V49.4736C18.2712 43.7655 23.0754 39.467 28.8318 39.4656L28.8348 39.4657L28.8376 39.4656C34.5939 39.4671 39.398 43.7655 40.0317 49.4736V51.8802ZM54.8447 48.0631C54.6057 48.3872 54.2805 48.5515 53.8777 48.5515H41.6682C41.4463 47.2375 41.023 45.9657 40.4133 44.7809C41.9481 42.5406 44.4431 41.2173 47.1821 41.2173C50.8032 41.2173 53.9553 43.5391 55.0254 46.9948C55.1445 47.3793 55.0837 47.7387 54.8447 48.0631Z" fill="#21409C"/>
</g>
<defs>
<clipPath id="clip0_3332_18314">
<rect width="56" height="56" fill="white" transform="translate(0.833984)"/>
</clipPath>
</defs>
</svg>
