<svg width="57" height="56" viewBox="0 0 57 56" fill="none" xmlns="http://www.w3.org/2000/svg">
<g clip-path="url(#clip0_3316_11393)">
<path d="M28.1356 0.00268555C27.1318 0.00268555 26.1287 0.0566477 25.1307 0.164222C24.2159 0.257663 23.3123 0.410906 22.4209 0.596853C22.2479 0.633069 22.0754 0.671071 21.9032 0.710851C16.651 1.90667 11.8552 4.59204 8.09075 8.44496C7.7389 8.80569 7.39618 9.17521 7.0629 9.55317C-3.10581 21.2272 -1.88547 38.9343 9.78869 49.103C20.9652 58.8383 37.7886 58.1905 48.1835 47.6248C48.5357 47.2644 48.8784 46.8948 49.2113 46.5166C53.699 41.406 56.172 34.8361 56.168 28.0349C56.168 12.553 43.6175 0.00256875 28.1356 0.00268555ZM9.33632 9.84658C9.48396 9.69333 9.6372 9.54663 9.78764 9.39806C9.96144 9.22706 10.1343 9.05513 10.3118 8.88974C10.4679 8.74397 10.6286 8.60381 10.7884 8.46178C10.9687 8.302 11.1481 8.14221 11.3332 7.98803C11.4957 7.85068 11.663 7.71892 11.8293 7.58624C12.0162 7.43673 12.2031 7.28723 12.3956 7.14333C12.5656 7.01572 12.7379 6.89111 12.9123 6.76956C13.1057 6.63127 13.3001 6.48924 13.4973 6.36029C13.6739 6.24122 13.8521 6.12441 14.0317 6.00989C14.2307 5.88164 14.4319 5.75704 14.6354 5.63613C15.0219 5.40538 15.4135 5.18325 15.8099 4.96989C15.9968 4.87026 16.1837 4.77273 16.3706 4.67742C16.5838 4.57026 16.7984 4.46591 17.0144 4.36439C17.2013 4.27563 17.3956 4.18686 17.5881 4.10276C17.8077 4.00932 18.0301 3.91588 18.2525 3.82244C18.4459 3.74301 18.6384 3.66546 18.8337 3.5907C19.0598 3.50474 19.2887 3.42438 19.5177 3.34402C19.7132 3.27495 19.9094 3.20798 20.1063 3.14312C20.339 3.06837 20.5735 2.99922 20.809 2.93101C21.0062 2.87401 21.2015 2.81514 21.3996 2.76188C21.4752 2.74226 21.5509 2.72637 21.6266 2.70675C18.8607 5.39241 16.8082 8.7254 15.6548 12.4041C13.437 11.8191 11.29 10.9929 9.25223 9.94002C9.28306 9.90731 9.30923 9.87461 9.33632 9.84658ZM7.99264 11.351C10.2372 12.5672 12.6174 13.5143 15.0839 14.1729C13.8747 18.3772 13.2401 22.7259 13.1973 27.1005H1.99373C2.19728 21.3318 4.30689 15.7933 7.99264 11.351ZM7.99264 44.7188C4.30711 40.2763 2.19753 34.7379 1.99373 28.9693H13.1973C13.24 33.3438 13.8747 37.6925 15.0839 41.8968C12.6175 42.5556 10.2373 43.5028 7.99264 44.7188ZM21.3939 53.3116C21.2052 53.2639 21.0099 53.2023 20.8155 53.1453C20.5791 53.0761 20.3418 53.007 20.1082 52.9313C19.911 52.8677 19.7167 52.7995 19.5223 52.7313C19.2921 52.6525 19.0631 52.57 18.8355 52.4837C18.6418 52.4094 18.449 52.3328 18.2571 52.2538C18.0338 52.1604 17.8105 52.0669 17.589 51.9735C17.3982 51.8894 17.2085 51.8028 17.02 51.7137C16.8023 51.611 16.5855 51.5063 16.3659 51.3979C16.179 51.3045 15.9921 51.211 15.8052 51.1092C15.5941 50.9961 15.3848 50.8802 15.1755 50.7606C14.9886 50.6569 14.811 50.5504 14.6307 50.442C14.4256 50.3184 14.2225 50.1917 14.0215 50.0617C13.8439 49.9486 13.6664 49.8337 13.4916 49.716C13.2926 49.5804 13.0954 49.4421 12.9002 49.3011C12.7292 49.1787 12.5582 49.0563 12.39 48.9273C12.1971 48.781 12.0065 48.6318 11.8181 48.4797C11.6527 48.348 11.4883 48.2172 11.3266 48.0817C11.1397 47.9266 10.9594 47.7649 10.7781 47.6042C10.6193 47.4631 10.4595 47.3239 10.3044 47.18C10.1259 47.0137 9.95303 46.8408 9.77923 46.6698C9.62879 46.5212 9.47555 46.3745 9.32791 46.2222C9.30081 46.1932 9.27465 46.1633 9.24755 46.1353C11.2852 45.082 13.4322 44.2554 15.6501 43.6703C16.8038 47.3489 18.8563 50.6818 21.6219 53.3676C21.5463 53.348 21.4696 53.3321 21.3939 53.3116ZM27.2013 54.1245C23.203 53.5564 19.698 49.3833 17.4928 43.2209C20.681 42.507 23.9344 42.124 27.2013 42.0781V54.1245ZM27.2013 40.2093C23.7359 40.2549 20.2849 40.6664 16.906 41.4371C15.7327 37.3833 15.1138 33.1892 15.0661 28.9693H27.2013V40.2093ZM27.2013 27.1005H15.0661C15.1137 22.8805 15.7326 18.6864 16.906 14.6326C20.285 15.4032 23.7359 15.8147 27.2013 15.8604V27.1005ZM27.2013 13.9916C23.9344 13.9461 20.681 13.5631 17.4928 12.8488C19.698 6.6864 23.203 2.51333 27.2013 1.94521V13.9916ZM48.2788 11.351C51.9643 15.7934 54.0739 21.3319 54.2777 27.1005H43.0741C43.0314 22.7259 42.3968 18.3772 41.1876 14.1729C43.6539 13.514 46.0341 12.5669 48.2788 11.351ZM34.87 2.75721C35.0662 2.8058 35.2615 2.86747 35.4559 2.92447C35.6923 2.99361 35.9296 3.06276 36.1632 3.13845C36.3604 3.20199 36.5548 3.2702 36.7491 3.33841C36.979 3.41784 37.2088 3.49913 37.4359 3.58603C37.6303 3.65985 37.8218 3.7374 38.0143 3.8159C38.2376 3.90934 38.4609 4.00278 38.6824 4.09622C38.873 4.18032 39.0627 4.26686 39.2515 4.35598C39.4692 4.45877 39.686 4.56342 39.9055 4.67181C40.0924 4.76526 40.2793 4.8587 40.4662 4.96055C40.6774 5.07361 40.8867 5.18948 41.096 5.30908C41.2829 5.4128 41.4604 5.51932 41.6407 5.62772C41.8458 5.75128 42.0489 5.87807 42.25 6.00802C42.4275 6.12108 42.6051 6.23602 42.7798 6.35375C42.9786 6.48897 43.1754 6.62696 43.3703 6.7677C43.5428 6.88978 43.7135 7.01438 43.8824 7.14146C44.0749 7.28629 44.2636 7.43673 44.4533 7.58811C44.6178 7.71892 44.7832 7.84974 44.9448 7.98617C45.1317 8.14128 45.312 8.30293 45.4933 8.46365C45.6522 8.60474 45.812 8.74397 45.9671 8.88787C46.1455 9.0542 46.3184 9.22706 46.4922 9.39806C46.6426 9.54663 46.7959 9.69333 46.9435 9.84564C46.9706 9.87461 46.9968 9.90451 47.0239 9.93254C44.9863 10.9859 42.8392 11.8125 40.6213 12.3975C39.4654 8.71851 37.4103 5.38583 34.642 2.70114C34.7177 2.72077 34.7943 2.73665 34.87 2.75721ZM29.0701 1.94521C33.0685 2.51333 36.5734 6.6864 38.7786 12.8488C35.5904 13.5627 32.337 13.9457 29.0701 13.9916V1.94521ZM29.0701 15.8604C32.5356 15.8149 35.9865 15.4033 39.3655 14.6326C40.5387 18.6865 41.1576 22.8805 41.2053 27.1005H29.0701V15.8604ZM29.0701 28.9693H41.2053C41.1578 33.1892 40.5388 37.3833 39.3655 41.4371C35.9865 40.6665 32.5356 40.255 29.0701 40.2093V28.9693ZM29.0701 54.1245V42.0781C32.3371 42.1237 35.5904 42.5066 38.7786 43.2209C36.5734 49.3833 33.0685 53.5564 29.0701 54.1245ZM46.9351 46.2231C46.7875 46.3755 46.6352 46.5222 46.4847 46.6707C46.3109 46.8417 46.1371 47.0146 45.9587 47.1809C45.8035 47.3258 45.6438 47.4612 45.4849 47.6061C45.3036 47.7668 45.1233 47.9275 44.9383 48.0826C44.7748 48.2191 44.6084 48.3508 44.4421 48.4835C44.2552 48.633 44.0683 48.7825 43.8759 48.9264C43.7058 49.054 43.5335 49.1786 43.3591 49.3002C43.1657 49.4385 42.9713 49.5805 42.7742 49.7094C42.5977 49.8285 42.4196 49.945 42.2397 50.0589C42.0406 50.1874 41.839 50.312 41.6351 50.4327C41.4483 50.542 41.2698 50.6485 41.0857 50.7541C40.696 50.976 40.3009 51.1885 39.9009 51.3914C39.6876 51.4985 39.473 51.6029 39.2571 51.7044C39.0702 51.7932 38.8758 51.8819 38.6833 51.966C38.4638 52.0595 38.2414 52.1529 38.019 52.2464C37.8255 52.3248 37.6331 52.4033 37.4387 52.4772C37.2107 52.5641 36.9818 52.6453 36.7519 52.7248C36.5575 52.7939 36.3622 52.8606 36.166 52.9247C35.9324 53.0004 35.6988 53.0696 35.4606 53.1378C35.2653 53.1957 35.069 53.2537 34.8719 53.3069C34.7962 53.3265 34.7205 53.3424 34.6448 53.362C37.4107 50.6764 39.4632 47.3434 40.6166 43.6647C42.8344 44.2497 44.9815 45.0759 47.0192 46.1288C46.9884 46.1624 46.9622 46.1951 46.9351 46.2231ZM48.2788 44.7188C46.0342 43.5026 43.654 42.5554 41.1876 41.8968C42.3967 37.6925 43.0313 33.3438 43.0741 28.9693H54.2777C54.0742 34.7379 51.9646 40.2765 48.2788 44.7188Z" fill="#21409C"/>
</g>
<defs>
<clipPath id="clip0_3316_11393">
<rect width="56" height="56" fill="white" transform="translate(0.167969)"/>
</clipPath>
</defs>
</svg>
