<svg width="57" height="69" viewBox="0 0 57 69" fill="none" xmlns="http://www.w3.org/2000/svg">
<path d="M54.9405 35.0944C54.9088 34.5724 54.7703 34.0624 54.5335 33.596L53.5253 31.6046C53.001 30.5741 52.6896 29.4486 52.6096 28.2953C52.3809 25.96 52.3856 23.6078 52.6237 21.2734C52.7017 20.788 52.6426 20.2906 52.4531 19.8369C52.2636 19.3832 51.9513 18.9914 51.5512 18.7054L49.0289 16.868C49.0125 16.8564 48.9987 16.8414 48.9884 16.8241C48.9781 16.8068 48.9715 16.7876 48.9691 16.7676C48.9663 16.7477 48.9676 16.7275 48.9729 16.7081C48.9781 16.6887 48.9872 16.6706 48.9996 16.6548L49.7825 15.65C50.465 14.7675 50.7885 13.6599 50.6881 12.5491C50.5877 11.4383 50.0708 10.4065 49.2412 9.66049C47.3466 7.96806 47 7.43099 46.9504 7.34073C46.7347 6.95204 46.527 6.54811 46.3164 6.14192C45.0812 3.74769 43.5435 0.768446 40.0503 0.768446C39.8977 0.768228 39.7471 0.803577 39.6105 0.871684L31.7666 4.76485L31.2901 4.0512C30.896 3.46757 30.2902 3.05998 29.6008 2.91459C28.9114 2.7692 28.1924 2.89741 27.5959 3.27212L26.5267 3.94909C25.9164 3.3937 25.3194 2.82395 24.7361 2.2403C23.7997 1.29961 22.5277 0.769163 21.2 0.765625H19.4104C19.0598 0.765725 18.7145 0.85242 18.4055 1.018C18.0964 1.18358 17.8331 1.42292 17.6389 1.71473C17.4447 2.00655 17.3257 2.34179 17.2924 2.69065C17.2591 3.03952 17.3127 3.39119 17.4482 3.71441C19.7774 9.28083 20.2657 11.8945 20.1962 12.7272C18.8872 12.4771 17.6231 12.0321 16.4462 11.4071C16.0552 11.2116 15.6292 11.0959 15.1931 11.0669C14.7569 11.0378 14.3193 11.0959 13.9058 11.2378C13.4988 11.3745 13.1231 11.5909 12.8008 11.8743C12.4784 12.1577 12.2158 12.5025 12.0283 12.8885C11.4513 14.1444 10.7278 15.3277 9.87294 16.4139C9.41113 16.9413 9.08421 17.5728 8.92022 18.2542C8.75622 18.9356 8.76003 19.6466 8.93133 20.3262C9.09311 21.0032 9.41063 21.6331 9.85867 22.1659C10.3067 22.6988 10.8729 23.1198 11.5123 23.3957C11.8568 23.5961 12.1307 23.8982 12.2963 24.2604C12.462 24.6227 12.5113 25.0273 12.4375 25.4188C12.4231 25.747 12.3 26.0611 12.0876 26.3119C11.8752 26.5627 11.5855 26.7359 11.2639 26.8043C10.4322 26.8824 9.59521 26.8848 8.7631 26.8116C7.18057 26.666 5.58562 26.7337 4.02117 27.013C3.57966 27.1119 3.1703 27.3207 2.83104 27.6198C2.49178 27.919 2.23361 28.299 2.08047 28.7244C1.92733 29.1499 1.88417 29.6071 1.95501 30.0537C2.02585 30.5003 2.20838 30.9218 2.48568 31.2791C3.84052 33.0104 4.09568 33.851 4.14254 34.1314C4.28197 34.9708 3.65649 37.347 3.19923 39.0857C2.70923 40.9474 2.28641 42.5575 2.33834 43.49C2.40125 44.1189 2.51567 44.7415 2.68044 45.3517V45.3545C2.88592 46.1962 3.16254 47.1914 3.46229 48.2672C3.89754 49.8287 4.34746 51.4433 4.55802 52.5547C4.72069 53.4308 5.14501 54.2372 5.77512 54.8677L7.22254 56.3141C7.38178 56.4725 7.59023 56.572 7.81359 56.5962C8.09584 56.6272 10.6486 56.8783 12.4099 56.0208C12.6445 55.8951 12.9082 55.8334 13.1742 55.8419L13.4966 55.8662C13.6188 55.8742 13.7368 55.9137 13.8392 55.9808C13.9416 56.0479 14.0248 56.1404 14.0808 56.2493C14.1394 56.36 14.1684 56.484 14.1649 56.6092C14.1615 56.7345 14.1257 56.8567 14.0611 56.964C13.4867 57.9799 12.709 58.8666 11.7765 59.5687C11.6515 59.6592 11.5496 59.7779 11.479 59.9151C11.295 60.2727 9.67254 63.4382 9.3931 64.5619C9.36078 64.6906 9.35477 64.8245 9.37545 64.9556C9.39612 65.0866 9.44304 65.2121 9.5134 65.3247C9.58377 65.4372 9.67613 65.5343 9.78495 65.6103C9.89377 65.6863 10.0168 65.7396 10.1467 65.7669C12.0706 66.1489 14.0429 66.2229 15.99 65.9864C16.1249 65.9652 16.2539 65.9162 16.3688 65.8425L18.1792 64.6866C18.2835 64.6199 18.4032 64.5811 18.5267 64.574C18.6503 64.5669 18.7737 64.5917 18.8849 64.646C19.9632 65.1844 21.0769 65.6488 22.2183 66.036C23.2517 66.3823 24.3588 66.4468 25.4254 66.2228L26.9428 65.9046L31.1315 67.566C31.5806 67.7444 32.0595 67.8357 32.5428 67.8351C33.0849 67.8356 33.621 67.7217 34.116 67.5009C34.6111 67.2802 35.0539 66.9575 35.4156 66.5539L36.4317 65.4132L39.4621 66.8106C39.8259 66.9791 40.2228 67.0645 40.6238 67.0606C41.0249 67.0567 41.42 66.9636 41.7805 66.788C42.1351 66.6175 42.4474 66.3703 42.6946 66.0644C42.9418 65.7584 43.1178 65.4013 43.2099 65.0189C43.637 63.1168 44.6947 61.4147 46.2114 60.1887L47.6283 60.8391C47.9751 60.9986 48.3583 61.062 48.738 61.0226C49.1176 60.9832 49.4797 60.8426 49.7863 60.6153C50.0928 60.388 50.3325 60.0826 50.4804 59.7309C50.6282 59.3792 50.6787 58.9943 50.6265 58.6164C50.2985 56.326 48.9171 51.9505 43.3476 48.3862C42.7204 47.9751 42.2704 47.3438 42.0864 46.6171C41.9025 45.8904 41.998 45.1212 42.3541 44.4615L43.8066 41.7536C44.93 41.3163 48.859 39.9015 52.2297 40.0431C52.612 40.059 52.9935 39.9949 53.3496 39.8549C53.7057 39.7149 54.0286 39.5021 54.2975 39.2301C54.5605 38.9616 54.7643 38.641 54.8958 38.289C55.0272 37.9369 55.0834 37.5613 55.0608 37.1862L54.9405 35.0944ZM10.8462 19.8196C10.7568 19.4487 10.7586 19.0617 10.8514 18.6916C10.9442 18.3216 11.1253 17.9795 11.3791 17.6945C12.3451 16.4838 13.1602 15.1602 13.8065 13.7528C13.8802 13.6012 13.9834 13.4659 14.1101 13.3547C14.2368 13.2435 14.3844 13.1587 14.5443 13.1052C14.7109 13.0484 14.8872 13.0254 15.0629 13.0375C15.2385 13.0496 15.41 13.0966 15.5672 13.1757C17.0334 13.9647 18.627 14.4896 20.2753 14.7265C20.5561 14.7616 20.8412 14.7217 21.1016 14.6109C21.362 14.5001 21.5884 14.3224 21.7577 14.0958C22.1737 13.5317 23.1475 12.2161 19.271 2.95281C19.2603 2.9295 19.2559 2.90377 19.2583 2.87822C19.2606 2.85267 19.2697 2.8282 19.2846 2.80726C19.2979 2.78611 19.3165 2.76879 19.3386 2.75701C19.3607 2.74524 19.3854 2.73942 19.4104 2.74013H21.2C21.5968 2.73872 21.99 2.81659 22.3564 2.96918C22.7227 3.12176 23.0549 3.34598 23.3333 3.62866C24.4358 4.74172 25.7144 5.87565 25.7686 5.9236C25.9293 6.06557 26.1318 6.15152 26.3456 6.16851C26.5594 6.1855 26.7729 6.13262 26.9541 6.01781L28.6578 4.93748C28.8176 4.83716 29.0103 4.80291 29.195 4.84197C29.3796 4.88103 29.5419 4.99034 29.6474 5.14677L30.6071 6.58421C30.7402 6.78449 30.9418 6.92936 31.1742 6.99167C31.4066 7.05399 31.6537 7.02946 31.8693 6.9227L40.2704 2.74803C42.2575 2.85747 43.2291 4.4619 44.5608 7.04681C44.7798 7.47049 44.9977 7.89303 45.2224 8.29752C45.4211 8.65519 45.9167 9.3378 47.9242 11.1318C48.3821 11.5434 48.6674 12.1128 48.7228 12.7259C48.7782 13.3389 48.5996 13.9502 48.2228 14.4371L47.4404 15.4424C47.2652 15.6671 47.1371 15.9246 47.0635 16.1998C46.99 16.4749 46.9725 16.762 47.0122 17.044C47.0518 17.326 47.1478 17.5972 47.2944 17.8414C47.4409 18.0856 47.6352 18.2979 47.8654 18.4657L50.3871 20.3036C50.4904 20.3761 50.5717 20.4755 50.6222 20.591C50.6726 20.7065 50.6903 20.8337 50.6733 20.9586C50.5974 21.4582 50.5468 21.9613 50.5215 22.466H13.4746C13.1566 22.0911 12.7595 21.7913 12.3117 21.5882C11.9437 21.4319 11.6187 21.1897 11.3637 20.882C11.1087 20.5743 10.9312 20.21 10.8462 19.8196ZM42.2897 50.0471C47.1948 53.1871 48.3972 56.9375 48.6772 58.894C48.682 58.9188 48.6792 58.9446 48.6691 58.9678C48.6591 58.9911 48.6422 59.0108 48.6208 59.0243C48.5983 59.0427 48.5709 59.0541 48.5421 59.0572C48.5132 59.0603 48.4841 59.0549 48.4582 59.0418L46.514 58.1504C46.3591 58.0794 46.1884 58.0496 46.0186 58.0639C45.8488 58.0783 45.6855 58.1362 45.5447 58.2322C43.387 59.7346 41.8713 61.9906 41.2967 64.5552C41.273 64.6537 41.2274 64.7457 41.1633 64.8243C41.0992 64.9029 41.0182 64.9661 40.9264 65.0093C40.8285 65.0569 40.7213 65.0822 40.6124 65.0833C40.5035 65.0843 40.3958 65.0612 40.297 65.0155L36.6028 63.3118C36.4106 63.2229 36.195 63.1982 35.9877 63.2412C35.7804 63.2843 35.5925 63.3929 35.4517 63.551L33.9462 65.2372C33.6912 65.5214 33.3554 65.7208 32.9837 65.8087C32.612 65.8965 32.2224 65.8686 31.8671 65.7286L27.4029 63.9572C27.2223 63.886 27.0249 63.8691 26.835 63.9087L25.0285 64.2878C24.3055 64.4411 23.5547 64.3981 22.854 64.1631C21.7996 63.8052 20.7707 63.376 19.7746 62.8785C19.3575 62.6718 18.8941 62.5763 18.4292 62.6012C17.9644 62.6261 17.5139 62.7706 17.1213 63.0207L15.4899 64.0621C14.2319 64.2014 12.9616 64.1851 11.7076 64.0136C12.1028 63.111 12.6972 61.8879 13.1404 61.018C14.2057 60.1778 15.0993 59.1404 15.7721 57.9626C16.0061 57.5677 16.1354 57.1197 16.148 56.661C16.1605 56.2022 16.0559 55.7479 15.8439 55.3408C15.6319 54.9337 15.3196 54.5873 14.9364 54.3344C14.5533 54.0814 14.1119 53.9302 13.6541 53.8951L13.3312 53.8703C12.7158 53.8326 12.1017 53.9614 11.5535 54.2432C10.5354 54.6118 9.44883 54.7532 8.3702 54.6572L7.17963 53.468C6.83058 53.1176 6.5958 52.6698 6.50617 52.1835C6.28036 50.9875 5.81859 49.3317 5.37262 47.7307C5.22584 47.2049 5.07512 46.6588 4.93286 46.1341H40.0407C40.0774 46.9181 40.3006 47.682 40.6918 48.3625C41.0831 49.043 41.6305 49.6205 42.2897 50.0471ZM52.8941 37.8435C52.8192 37.9186 52.7294 37.9773 52.6304 38.0156C52.5314 38.054 52.4255 38.0713 52.3195 38.0663C47.892 37.8796 42.9338 39.9697 42.7227 40.0589C42.5159 40.1469 42.3452 40.3027 42.2389 40.5006L40.6171 43.5267C40.5081 43.7315 40.4138 43.9438 40.3348 44.1619H4.44173C4.38251 43.9035 4.34102 43.6413 4.31754 43.3772C4.28254 42.7566 4.72568 41.0715 5.11689 39.5861C5.83552 36.8528 6.29221 34.9737 6.09746 33.8048C5.93713 32.8457 5.26705 31.6181 4.04883 30.0605C3.97603 29.9678 3.92816 29.858 3.90978 29.7416C3.8914 29.6252 3.90312 29.506 3.94383 29.3954C3.98343 29.2813 4.05166 29.1793 4.142 29.0991C4.23234 29.0189 4.34176 28.9632 4.4598 28.9373C5.85026 28.7028 7.26538 28.6505 8.66939 28.7816C9.63694 28.866 10.6104 28.8564 11.5761 28.7528C12.3217 28.6227 13.0033 28.2496 13.5144 27.6917C14.0255 27.1337 14.3375 26.4224 14.4015 25.6687C14.4534 25.2593 14.447 24.8447 14.3823 24.4371H50.4746C50.4872 25.7701 50.5418 27.1023 50.6383 28.4318C50.7367 29.8474 51.1189 31.2288 51.7623 32.4937L52.7733 34.4874C52.8882 34.714 52.9554 34.9616 52.9709 35.2151L53.0985 37.3025C53.1051 37.4019 53.0903 37.5017 53.0551 37.595C53.02 37.6883 52.9647 37.773 52.8941 37.8435Z" fill="#21409C"/>
</svg>
