<svg width="57" height="56" viewBox="0 0 57 56" fill="none" xmlns="http://www.w3.org/2000/svg">
<g clip-path="url(#clip0_3332_18310)">
<path d="M46.4167 26.8765L43.6462 25.9764C43.4668 25.9195 43.352 25.809 43.2853 25.6275C43.1267 25.1998 42.967 24.817 42.7997 24.4561C42.7187 24.2822 42.722 24.1269 42.8106 23.9519L44.1308 21.3608C44.3554 20.9232 44.4351 20.4256 44.3584 19.9398C44.2817 19.454 44.0526 19.0052 43.7042 18.6581L40.715 15.6689C40.368 15.3206 39.9195 15.0915 39.4339 15.0146C38.9484 14.9377 38.4509 15.0171 38.0134 15.2412L35.4147 16.5636C35.2473 16.65 35.0876 16.6522 34.9137 16.5723C34.544 16.4017 34.1514 16.2387 33.7412 16.0867C33.5618 16.0211 33.4503 15.9051 33.3912 15.7225L32.4922 12.952C32.1739 11.9775 31.3065 11.3475 30.2817 11.3475H26.0554C25.0284 11.3475 24.16 11.9775 23.8406 12.9531L22.9415 15.7203C22.8814 15.904 22.7709 16.02 22.5937 16.0856H22.5926C22.1825 16.2365 21.7876 16.4006 21.4234 16.5701C21.244 16.6522 21.0876 16.65 20.9137 16.5603L18.3215 15.2412C17.4214 14.7786 16.3342 14.9503 15.6167 15.6678L12.6308 18.6559C12.2824 19.0028 12.0533 19.4514 11.9765 19.937C11.8996 20.4225 11.979 20.9199 12.2031 21.3575L13.5222 23.9453C13.6097 24.1203 13.614 24.2833 13.5353 24.4539C13.3592 24.8323 13.1951 25.2261 13.0453 25.6286C12.9797 25.8079 12.8659 25.9173 12.6843 25.9753L9.91388 26.8744C9.4462 27.0259 9.03862 27.3218 8.74972 27.7196C8.46082 28.1174 8.30549 28.5965 8.30606 29.0881V33.3144C8.30606 34.325 8.95247 35.2142 9.91497 35.5292L12.6876 36.4294C12.8648 36.4862 12.9786 36.5956 13.0442 36.7761C13.1875 37.1644 13.3515 37.5592 13.532 37.9453C13.6129 38.1203 13.6086 38.2833 13.5233 38.455L12.2031 41.0461C11.9785 41.4836 11.8988 41.9812 11.9754 42.467C12.0521 42.9528 12.2812 43.4016 12.6297 43.7487L15.6156 46.7379C16.3331 47.4554 17.4203 47.6272 18.3172 47.1656L20.9159 45.8433C21.0833 45.7569 21.2429 45.7547 21.4168 45.8345C21.7909 46.0073 22.1858 46.1703 22.5872 46.318C22.7676 46.3858 22.8803 46.5017 22.9393 46.6833L23.8384 49.4537C24.1567 50.4304 25.0262 51.0615 26.0522 51.0615H30.2784C31.2868 51.0615 32.175 50.4151 32.49 49.4526L33.389 46.6854C33.4481 46.5039 33.5608 46.3868 33.7434 46.319C34.1492 46.1681 34.5429 46.0051 34.9104 45.8356C35.0865 45.7547 35.2462 45.7569 35.4168 45.8454L38.0101 47.1656C38.4477 47.3902 38.9452 47.4699 39.431 47.3933C39.9168 47.3166 40.3657 47.0875 40.7128 46.739L43.702 43.7498C44.0503 43.4029 44.2794 42.9543 44.3563 42.4688C44.4331 41.9832 44.3538 41.4858 44.1297 41.0483L42.8084 38.455C42.7209 38.2844 42.7176 38.1258 42.7986 37.9508C42.9714 37.5767 43.1343 37.1819 43.2842 36.7761C43.3498 36.5978 43.4636 36.4873 43.6484 36.4294L46.4134 35.5303C46.8816 35.3792 47.2898 35.0833 47.579 34.6852C47.8681 34.2871 48.0234 33.8075 48.0223 33.3154V29.0892C48.0256 28.0786 47.3792 27.1894 46.4167 26.8765ZM46.2767 33.3165C46.2767 33.5769 46.1236 33.7879 45.8764 33.8678L43.1158 34.7658C42.4201 34.9878 41.8984 35.4887 41.6468 36.1734C41.5112 36.5398 41.3701 36.8822 41.217 37.2136C40.9064 37.8731 40.9206 38.5972 41.2542 39.2501L42.5754 41.8434C42.6947 42.0775 42.6553 42.3279 42.4693 42.5139L39.4801 45.5031C39.2942 45.689 39.0437 45.7284 38.8086 45.6092L36.2175 44.2901C35.5722 43.9576 34.8492 43.9423 34.1831 44.2486C33.8539 44.4006 33.5017 44.5461 33.1364 44.6828C32.455 44.9376 31.9551 45.4572 31.7309 46.1462L30.8318 48.9134C30.7509 49.1606 30.5409 49.3148 30.2828 49.3148H26.0565C25.7929 49.3148 25.5873 49.165 25.5053 48.9145L24.6062 46.1451C24.382 45.4561 23.8833 44.9376 23.2008 44.6817C22.8343 44.5461 22.492 44.405 22.1551 44.2497C21.8368 44.102 21.5054 44.0287 21.1751 44.0287C20.8164 44.0287 20.4587 44.1151 20.1229 44.289L17.5253 45.6114C17.2967 45.7284 17.0397 45.688 16.857 45.5042L13.8711 42.515C13.6851 42.329 13.6458 42.0786 13.765 41.8434L15.0873 39.2479C15.4143 38.5983 15.4286 37.8775 15.1234 37.2147C14.9615 36.8679 14.8161 36.5179 14.6892 36.1756C14.4365 35.4876 13.9159 34.9878 13.2268 34.7679L10.4597 33.8689C10.2125 33.7879 10.0583 33.5769 10.0583 33.3176V29.0914C10.0583 28.8322 10.2125 28.6211 10.4586 28.5401L13.2225 27.6422C13.9159 27.4212 14.4365 26.9203 14.6881 26.2367C14.8204 25.8812 14.967 25.5301 15.1256 25.19C15.4286 24.5315 15.4143 23.8108 15.0851 23.1567L13.7639 20.5634C13.6447 20.3294 13.684 20.0789 13.87 19.8929L16.8548 16.9048C17.0386 16.7211 17.2945 16.6806 17.5264 16.7987L20.1197 18.1189C20.7672 18.4503 21.4901 18.4645 22.1584 18.1583C22.4833 18.0073 22.8333 17.8619 23.1975 17.7273C23.8789 17.4769 24.3787 16.9573 24.6051 16.2617L25.5042 13.4945C25.5851 13.2451 25.7918 13.0964 26.0554 13.0964H30.2817C30.5442 13.0964 30.7487 13.2451 30.8297 13.4934L31.7287 16.2628C31.9551 16.9562 32.4561 17.4758 33.1353 17.7262C33.4995 17.8619 33.8517 18.0073 34.182 18.1604C34.847 18.4656 35.57 18.4503 36.212 18.12L38.8086 16.7987C39.0426 16.6795 39.2931 16.7189 39.479 16.9048L42.4683 19.894C42.6542 20.08 42.6936 20.3304 42.5743 20.5656L41.2542 23.1567C40.9206 23.8097 40.9064 24.5337 41.2148 25.1944C41.3625 25.5126 41.5047 25.8539 41.6458 26.2334C41.8973 26.9203 42.4201 27.4201 43.1114 27.6411L45.8775 28.5401C46.1247 28.62 46.2778 28.8322 46.2778 29.0914V33.3165H46.2767ZM28.1675 20.2517C22.1278 20.2517 17.2136 25.1659 17.2136 31.2056C17.2136 34.7133 18.8717 37.8414 21.4442 39.8473C21.477 39.8769 21.5131 39.9042 21.5503 39.9283C23.39 41.3272 25.6836 42.1584 28.1675 42.1584C30.6459 42.1584 32.9351 41.3304 34.7726 39.937C34.8218 39.9064 34.8678 39.8714 34.9104 39.8309C37.472 37.8239 39.1214 34.7034 39.1214 31.2045C39.1214 25.1648 34.2072 20.2517 28.1675 20.2517ZM22.9 38.747V37.9453C22.9 35.7764 24.6653 34.0111 26.8342 34.0111H29.5007C31.6718 34.0111 33.4383 35.7764 33.4383 37.9453V38.7448C31.9442 39.7926 30.1275 40.4095 28.1675 40.4095C26.2097 40.4106 24.3929 39.7937 22.9 38.747ZM28.1675 30.7528C26.7675 30.7528 25.6278 29.612 25.6278 28.2109C25.6278 26.8087 26.7664 25.669 28.1675 25.669C29.5697 25.669 30.7093 26.8098 30.7093 28.2109C30.7093 29.612 29.5697 30.7528 28.1675 30.7528ZM35.1368 37.2081C34.777 34.4453 32.4243 32.2994 29.5708 32.2644C31.2497 31.6814 32.4583 30.0845 32.4583 28.2098C32.4583 25.844 30.5333 23.919 28.1675 23.919C25.8028 23.919 23.88 25.844 23.88 28.2098C23.88 30.0845 25.0875 31.6814 26.7653 32.2633C23.9117 32.2983 21.5601 34.4453 21.2014 37.2103C19.809 35.597 18.9636 33.4981 18.9636 31.2045C18.9636 26.1284 23.0925 21.9995 28.1686 21.9995C33.2447 21.9995 37.3736 26.1284 37.3736 31.2045C37.3725 33.497 36.5281 35.5948 35.1368 37.2081ZM55.777 10.3664L50.7359 5.32529C50.4854 5.07482 50.1508 4.93701 49.7953 4.93701C49.4398 4.93701 49.1051 5.07482 48.8547 5.32639L43.8168 10.3675C43.4318 10.7525 43.3192 11.3223 43.5292 11.82C43.7359 12.3176 44.2172 12.6381 44.7575 12.6381H46.2461V25.0139C46.2461 25.7478 46.8433 26.3439 47.5761 26.3439H52.0156C52.7495 26.3439 53.3456 25.7467 53.3456 25.0139V12.637H54.8342C55.3734 12.637 55.8547 12.3154 56.0625 11.8189C56.2725 11.319 56.1609 10.7503 55.777 10.3664ZM52.9267 10.8881C52.1928 10.8881 51.5967 11.4853 51.5967 12.2181V24.595H47.9939V12.2181C47.9939 11.4842 47.3967 10.8881 46.6639 10.8881H45.767L49.7953 6.85764L53.8257 10.8881H52.9267ZM10.0889 25.0139V12.637H11.5797C12.1211 12.637 12.6045 12.3133 12.8101 11.8123C13.0147 11.3147 12.9009 10.7459 12.5203 10.3664L7.47919 5.32529C6.96513 4.81123 6.12294 4.80795 5.59794 5.32529L0.560127 10.3664C0.374186 10.5517 0.247395 10.788 0.1958 11.0454C0.144206 11.3028 0.170127 11.5697 0.270283 11.8123C0.475908 12.3133 0.959346 12.637 1.50075 12.637H2.98935V25.0139C2.98935 25.7478 3.58763 26.3439 4.32263 26.3439H8.75888C9.49278 26.3439 10.0889 25.7467 10.0889 25.0139ZM8.33997 12.2181V24.595H4.73716V12.2181C4.73716 11.4842 4.13997 10.8881 3.40716 10.8881H2.51028L6.53856 6.85764L10.5701 10.8881H9.67325C8.93825 10.8881 8.33997 11.4853 8.33997 12.2181Z" fill="#21409C"/>
</g>
<defs>
<clipPath id="clip0_3332_18310">
<rect width="56" height="56" fill="white" transform="translate(0.167969)"/>
</clipPath>
</defs>
</svg>
