<svg width="53" height="57" viewBox="0 0 53 57" fill="none" xmlns="http://www.w3.org/2000/svg">
<path fill-rule="evenodd" clip-rule="evenodd" d="M48.3367 27.2544C48.0947 27.2951 47.8788 27.4303 47.7365 27.6303C47.5943 27.8302 47.5372 28.0784 47.5779 28.3204C47.7778 29.5048 47.8796 30.6985 47.8796 31.8682C47.8796 38.39 44.974 44.2771 40.288 48.1968C39.8974 45.6309 38.7892 43.2276 37.0913 41.2645C35.3934 39.3013 33.175 37.8583 30.6922 37.1019C31.7085 36.4275 32.5422 35.5123 33.1193 34.4377C33.6963 33.3631 33.9986 32.1625 33.9993 30.9428C33.9993 26.8602 30.6792 23.54 26.5966 23.54C22.5139 23.54 19.1938 26.8602 19.1938 30.9428C19.1938 33.5116 20.5096 35.7731 22.501 37.1019C20.0181 37.8583 17.7997 39.3013 16.1018 41.2645C14.4039 43.2276 13.2957 45.6309 12.9051 48.1968C10.52 46.1982 8.60353 43.6994 7.29161 40.8776C5.9797 38.0558 5.30441 34.98 5.31359 31.8682C5.31359 30.6985 5.41537 29.5067 5.61525 28.3204C5.63753 28.1997 5.63557 28.0757 5.6095 27.9558C5.58342 27.8359 5.53374 27.7223 5.46335 27.6217C5.39296 27.5212 5.30326 27.4356 5.19949 27.3701C5.09572 27.3045 4.97994 27.2603 4.8589 27.2399C4.73786 27.2195 4.61397 27.2234 4.49446 27.2514C4.37494 27.2794 4.26218 27.3308 4.16275 27.4028C4.06331 27.4747 3.97919 27.5658 3.91527 27.6706C3.85136 27.7754 3.80893 27.8918 3.79046 28.0132C3.57433 29.2868 3.46476 30.5763 3.46289 31.8682C3.46289 43.2314 11.58 52.8236 22.7619 54.6743C22.9997 54.705 23.2402 54.6423 23.4327 54.4993C23.6251 54.3562 23.7545 54.1441 23.7936 53.9075C23.8327 53.6709 23.7785 53.4284 23.6423 53.231C23.5061 53.0337 23.2987 52.8969 23.0636 52.8495C20.0401 52.35 17.1609 51.2009 14.6244 49.4812C15.0667 43.2018 20.2302 38.3456 26.5966 38.3456C32.963 38.3456 38.1245 43.2018 38.5706 49.4812C36.0335 51.2011 33.1537 52.3503 30.1295 52.8495C30.0063 52.8654 29.8876 52.906 29.7804 52.9689C29.6732 53.0317 29.5797 53.1155 29.5056 53.2152C29.4315 53.3149 29.3782 53.4286 29.349 53.5493C29.3197 53.6701 29.3151 53.7955 29.3353 53.9181C29.3556 54.0407 29.4004 54.1579 29.4669 54.2629C29.5335 54.3678 29.6205 54.4582 29.7228 54.5288C29.825 54.5994 29.9405 54.6486 30.0622 54.6736C30.1839 54.6986 30.3094 54.6988 30.4312 54.6743C41.6131 52.8236 49.7303 43.2333 49.7303 31.8682C49.7303 30.5949 49.6192 29.2975 49.4027 28.0132C49.3829 27.8931 49.3397 27.7782 49.2753 27.675C49.2109 27.5718 49.1268 27.4823 49.0277 27.4118C48.9286 27.3412 48.8165 27.291 48.6979 27.264C48.5793 27.237 48.4565 27.2337 48.3367 27.2544ZM21.0445 30.9428C21.0445 27.8818 23.5355 25.3907 26.5966 25.3907C29.6576 25.3907 32.1487 27.8818 32.1487 30.9428C32.1487 34.0039 29.6576 36.4949 26.5966 36.4949C23.5355 36.4949 21.0445 34.0039 21.0445 30.9428ZM36.731 8.69561C36.6778 8.53106 36.5795 8.38472 36.4474 8.27317C36.3152 8.16162 36.1544 8.08934 35.9833 8.06453L30.0703 7.2058L27.4257 1.84619C27.1148 1.21696 26.0784 1.21696 25.7675 1.84619L23.1228 7.2058L17.2098 8.06453C17.0389 8.08935 16.8784 8.1615 16.7463 8.27283C16.6143 8.38415 16.5161 8.53021 16.4627 8.69447C16.4094 8.85873 16.4031 9.03464 16.4445 9.2023C16.486 9.36996 16.5735 9.52267 16.6972 9.64317L20.976 13.8128L19.9655 19.7017C19.9363 19.872 19.9552 20.0471 20.0203 20.2071C20.0854 20.3672 20.1941 20.5058 20.3339 20.6074C20.4737 20.7089 20.6392 20.7692 20.8116 20.7815C20.9839 20.7938 21.1563 20.7576 21.3091 20.677L26.5966 17.8954L31.884 20.677C32.0366 20.7588 32.2092 20.7956 32.3819 20.7832C32.5545 20.7707 32.7201 20.7095 32.8593 20.6067C32.9993 20.5051 33.1081 20.3662 33.1732 20.2059C33.2383 20.0456 33.2571 19.8703 33.2276 19.6998L32.2171 13.8146L36.4978 9.64132C36.6214 9.52098 36.7089 9.36849 36.7504 9.20106C36.792 9.03362 36.7859 8.85791 36.7328 8.69376L36.731 8.69561ZM30.5756 12.8245C30.4681 12.9294 30.3877 13.0588 30.3412 13.2016C30.2948 13.3444 30.2838 13.4963 30.3091 13.6444L31.0864 18.1656L27.0259 16.0299C26.8928 15.9605 26.7449 15.9243 26.5947 15.9243C26.4446 15.9243 26.2966 15.9605 26.1635 16.0299L22.1049 18.1656L22.8804 13.6444C22.9057 13.4963 22.8946 13.3444 22.8482 13.2016C22.8018 13.0588 22.7214 12.9294 22.6139 12.8245L19.3307 9.62466L23.8686 8.96582C24.0168 8.94406 24.1575 8.88673 24.2787 8.79875C24.3999 8.71076 24.4979 8.59473 24.5645 8.46058L26.5966 4.34833L28.6268 8.46243C28.6933 8.59658 28.7914 8.71261 28.9126 8.8006C29.0338 8.88858 29.1745 8.94591 29.3226 8.96767L33.8605 9.62651L30.5774 12.8264L30.5756 12.8245Z" fill="#21409C"/>
<path fill-rule="evenodd" clip-rule="evenodd" d="M4.45212 23.5827C4.42242 23.7531 4.4411 23.9284 4.50603 24.0888C4.57096 24.2492 4.67955 24.3881 4.81947 24.4899C4.95938 24.5916 5.12502 24.6521 5.29759 24.6645C5.47015 24.6768 5.64273 24.6406 5.79572 24.5598L9.93943 22.3797L14.085 24.5598C14.2373 24.6413 14.4096 24.6779 14.5819 24.6654C14.7542 24.653 14.9194 24.592 15.0584 24.4895C15.1985 24.3879 15.3072 24.249 15.3723 24.0888C15.4374 23.9285 15.4563 23.7531 15.4267 23.5827L14.6346 18.9689L17.9881 15.7024C18.1124 15.582 18.2004 15.4291 18.2421 15.2612C18.2839 15.0933 18.2777 14.917 18.2243 14.7524C18.1709 14.5878 18.0725 14.4415 17.9401 14.33C17.8077 14.2186 17.6467 14.1465 17.4755 14.1219L12.8413 13.4501L10.7685 9.24903C10.4576 8.61979 9.42123 8.61979 9.11032 9.24903L7.03754 13.4501L2.4034 14.1219C2.23211 14.1465 2.07113 14.2186 1.93876 14.33C1.80638 14.4415 1.70791 14.5878 1.65452 14.7524C1.60113 14.917 1.59496 15.0933 1.63672 15.2612C1.67848 15.4291 1.76649 15.582 1.89076 15.7024L5.24421 18.9689L4.45212 23.5827ZM4.52615 15.6857L7.78337 15.212C7.93187 15.1905 8.07293 15.1333 8.19446 15.0453C8.31599 14.9573 8.41434 14.8411 8.48108 14.7067L9.93943 11.7512L11.3978 14.7067C11.4643 14.8409 11.5624 14.9569 11.6836 15.0449C11.8048 15.1329 11.9455 15.1902 12.0936 15.212L15.3527 15.6857L12.9949 17.9825C12.8874 18.0873 12.807 18.2167 12.7606 18.3595C12.7142 18.5023 12.7031 18.6543 12.7284 18.8023L13.2855 22.0484L10.3706 20.5161C10.2375 20.4466 10.0896 20.4104 9.93943 20.4104C9.78928 20.4104 9.64135 20.4466 9.50821 20.5161L6.59337 22.0484L7.14858 18.8023C7.1741 18.6544 7.16335 18.5026 7.11726 18.3598C7.07116 18.217 6.99109 18.0875 6.88393 17.9825L4.52615 15.6857ZM50.788 14.1219L46.1538 13.4501L44.081 9.24903C43.7701 8.61979 42.7337 8.61979 42.4228 9.24903L40.35 13.4501L35.7159 14.1219C35.5446 14.1465 35.3836 14.2186 35.2513 14.33C35.1189 14.4415 35.0204 14.5878 34.967 14.7524C34.9136 14.917 34.9075 15.0933 34.9492 15.2612C34.991 15.4291 35.079 15.582 35.2033 15.7024L38.5567 18.9689L37.7646 23.5827C37.7349 23.7531 37.7536 23.9284 37.8185 24.0888C37.8835 24.2492 37.9921 24.3881 38.132 24.4899C38.2719 24.5916 38.4375 24.6521 38.6101 24.6645C38.7826 24.6768 38.9552 24.6406 39.1082 24.5598L43.2519 22.3797L47.3975 24.5598C47.5498 24.6413 47.7221 24.6779 47.8944 24.6654C48.0667 24.653 48.2319 24.592 48.3709 24.4895C48.511 24.3879 48.6197 24.249 48.6848 24.0888C48.7499 23.9285 48.7688 23.7531 48.7392 23.5827L47.9471 18.9689L51.3006 15.7024C51.4249 15.582 51.5129 15.4291 51.5546 15.2612C51.5964 15.0933 51.5902 14.917 51.5368 14.7524C51.4834 14.5878 51.385 14.4415 51.2526 14.33C51.1202 14.2186 50.9592 14.1465 50.788 14.1219ZM46.3074 17.9825C46.1999 18.0873 46.1195 18.2167 46.0731 18.3595C46.0267 18.5023 46.0156 18.6543 46.0409 18.8023L46.598 22.0484L43.6831 20.5161C43.55 20.4466 43.4021 20.4104 43.2519 20.4104C43.1018 20.4104 42.9539 20.4466 42.8207 20.5161L39.9059 22.0484L40.4611 18.8023C40.4866 18.6544 40.4759 18.5026 40.4298 18.3598C40.3837 18.217 40.3036 18.0875 40.1964 17.9825L37.8386 15.6857L41.0959 15.212C41.2444 15.1905 41.3854 15.1333 41.507 15.0453C41.6285 14.9573 41.7268 14.8411 41.7936 14.7067L43.2519 11.7512L44.7103 14.7067C44.7768 14.8409 44.8749 14.9569 44.9961 15.0449C45.1173 15.1329 45.258 15.1902 45.4061 15.212L48.6652 15.6857L46.3074 17.9825Z" fill="#21409C"/>
<path d="M26.5953 55.0018C27.1063 55.0018 27.5206 54.5875 27.5206 54.0765C27.5206 53.5654 27.1063 53.1511 26.5953 53.1511C26.0842 53.1511 25.6699 53.5654 25.6699 54.0765C25.6699 54.5875 26.0842 55.0018 26.5953 55.0018Z" fill="#21409C"/>
</svg>
