<svg width="56" height="56" viewBox="0 0 56 56" fill="none" xmlns="http://www.w3.org/2000/svg">
<path d="M35.8934 54.2839C36.3478 54.2839 36.7926 54.1751 37.1974 53.9791C38.0617 54.1516 38.9409 54.2387 39.8222 54.2391C47.2142 54.2391 53.2278 48.2495 53.2278 40.8871C53.2278 34.2151 48.2462 28.5047 41.6398 27.6047C41.4821 27.5833 41.3223 27.6254 41.1956 27.7218C41.0689 27.8182 40.9857 27.961 40.9642 28.1187C40.9428 28.2765 40.9849 28.4363 41.0813 28.563C41.1777 28.6897 41.3205 28.7729 41.4782 28.7943C47.4926 29.6135 52.0278 34.8119 52.0278 40.8871C52.0278 47.4743 46.4382 53.0391 39.8222 53.0391C33.0926 53.0391 27.6174 47.5879 27.6174 40.8871C27.6174 34.7015 32.2374 29.4911 38.3638 28.7671C38.3926 28.7639 38.4158 28.7487 38.4438 28.7415C38.483 28.7311 38.5214 28.7215 38.5582 28.7039C38.5918 28.6871 38.6206 28.6639 38.6502 28.6415C38.6822 28.6175 38.7118 28.5951 38.7382 28.5663C38.763 28.5375 38.7806 28.5063 38.7998 28.4743C38.8206 28.4399 38.8398 28.4079 38.8534 28.3703C38.867 28.3335 38.871 28.2967 38.8766 28.2583C38.8806 28.2287 38.8934 28.2023 38.8934 28.1711V4.71594C38.8926 3.92055 38.5762 3.15798 38.0138 2.59556C37.4514 2.03313 36.6888 1.71679 35.8934 1.71594H5.77344C4.97805 1.71679 4.21548 2.03313 3.65305 2.59556C3.09063 3.15798 2.77428 3.92055 2.77344 4.71594V41.9079C2.77344 42.0671 2.83665 42.2197 2.94917 42.3322C3.0617 42.4447 3.21431 42.5079 3.37344 42.5079C3.53257 42.5079 3.68518 42.4447 3.7977 42.3322C3.91022 42.2197 3.97344 42.0671 3.97344 41.9079V4.71514C3.97344 3.72314 4.78144 2.91514 5.77344 2.91514H35.8934C36.8862 2.91514 37.6934 3.72314 37.6934 4.71514V27.6639C34.2748 28.204 31.2001 30.0521 29.119 32.8175H19.6422C19.4831 32.8175 19.3305 32.8808 19.218 32.9933C19.1055 33.1058 19.0422 33.2584 19.0422 33.4175C19.0422 33.5767 19.1055 33.7293 19.218 33.8418C19.3305 33.9543 19.4831 34.0175 19.6422 34.0175H28.3126C27.8423 34.8113 27.4551 35.6515 27.1574 36.5247H19.6422C19.4831 36.5247 19.3305 36.588 19.218 36.7005C19.1055 36.813 19.0422 36.9656 19.0422 37.1247C19.0422 37.2839 19.1055 37.4365 19.218 37.549C19.3305 37.6615 19.4831 37.7247 19.6422 37.7247H26.807C26.552 38.7596 26.4212 39.8213 26.4174 40.8871L26.4182 40.9071H10.8862C10.7271 40.9071 10.5745 40.9704 10.462 41.0829C10.3495 41.1954 10.2862 41.348 10.2862 41.5071C10.2862 41.6663 10.3495 41.8189 10.462 41.9314C10.5745 42.0439 10.7271 42.1071 10.8862 42.1071H26.479C26.6038 43.4671 26.9318 44.7671 27.4358 45.9791H7.70304V17.1191C7.70304 16.96 7.63982 16.8074 7.5273 16.6949C7.41478 16.5824 7.26217 16.5191 7.10304 16.5191C6.94391 16.5191 6.7913 16.5824 6.67877 16.6949C6.56625 16.8074 6.50304 16.96 6.50304 17.1191V46.5807C6.50304 46.9119 6.77184 47.1807 7.10304 47.1807H28.0054C29.4223 49.8012 31.6684 51.8776 34.3918 53.0847H5.77344C4.78144 53.0847 3.97344 52.2767 3.97344 51.2847V45.1279C3.97344 44.9688 3.91022 44.8162 3.7977 44.7037C3.68518 44.5912 3.53257 44.5279 3.37344 44.5279C3.21431 44.5279 3.0617 44.5912 2.94917 44.7037C2.83665 44.8162 2.77344 44.9688 2.77344 45.1279V51.2847C2.77428 52.0801 3.09063 52.8427 3.65305 53.4051C4.21548 53.9676 4.97805 54.2839 5.77344 54.2847L35.8934 54.2839Z" fill="#21409C"/>
<path d="M6.50391 9.42795V14.0151C6.50391 14.1743 6.56712 14.3269 6.67964 14.4394C6.79216 14.5519 6.94478 14.6151 7.10391 14.6151C7.26304 14.6151 7.41565 14.5519 7.52817 14.4394C7.64069 14.3269 7.70391 14.1743 7.70391 14.0151V10.0279H33.9735V25.3679C33.9735 25.5271 34.0367 25.6797 34.1492 25.7922C34.2618 25.9047 34.4144 25.9679 34.5735 25.9679C34.7326 25.9679 34.8852 25.9047 34.9978 25.7922C35.1103 25.6797 35.1735 25.5271 35.1735 25.3679V9.42795C35.1735 9.26882 35.1103 9.1162 34.9978 9.00368C34.8852 8.89116 34.7326 8.82795 34.5735 8.82795H7.10391C6.94478 8.82795 6.79216 8.89116 6.67964 9.00368C6.56712 9.1162 6.50391 9.26882 6.50391 9.42795ZM22.4343 50.6407C22.5934 50.6407 22.746 50.5775 22.8586 50.465C22.9711 50.3525 23.0343 50.1999 23.0343 50.0407C23.0343 49.8816 22.9711 49.729 22.8586 49.6165C22.746 49.504 22.5934 49.4407 22.4343 49.4407H19.2343C19.0752 49.4407 18.9226 49.504 18.81 49.6165C18.6975 49.729 18.6343 49.8816 18.6343 50.0407C18.6343 50.1999 18.6975 50.3525 18.81 50.465C18.9226 50.5775 19.0752 50.6407 19.2343 50.6407H22.4343ZM20.2495 6.55435H23.6343C23.7934 6.55435 23.946 6.49113 24.0586 6.37861C24.1711 6.26609 24.2343 6.11348 24.2343 5.95435C24.2343 5.94875 24.2311 5.94315 24.2311 5.93755C24.2311 5.93195 24.2343 5.92635 24.2343 5.91995C24.2343 5.76082 24.1711 5.6082 24.0586 5.49568C23.946 5.38316 23.7934 5.31995 23.6343 5.31995H20.2495C20.0904 5.31995 19.9378 5.38316 19.8252 5.49568C19.7127 5.6082 19.6495 5.76082 19.6495 5.91995C19.6495 5.92635 19.6527 5.93195 19.6535 5.93755C19.6535 5.94315 19.6495 5.94875 19.6495 5.95435C19.6495 6.28635 19.9183 6.55435 20.2495 6.55435ZM17.6343 6.55435H18.3383C18.4974 6.55435 18.65 6.49113 18.7626 6.37861C18.8751 6.26609 18.9383 6.11348 18.9383 5.95435C18.9383 5.94875 18.9351 5.94315 18.9351 5.93755C18.9351 5.93195 18.9391 5.92635 18.9391 5.91995C18.9391 5.76082 18.8759 5.6082 18.7634 5.49568C18.6508 5.38316 18.4982 5.31995 18.3391 5.31995H17.6351C17.476 5.31995 17.3234 5.38316 17.2108 5.49568C17.0983 5.6082 17.0351 5.76082 17.0351 5.91995C17.0351 5.92635 17.0375 5.93195 17.0383 5.93755C17.0383 5.94315 17.0343 5.94875 17.0343 5.95435C17.0343 6.28635 17.3031 6.55435 17.6343 6.55435ZM39.8231 32.2143C39.9822 32.2143 40.1348 32.1511 40.2474 32.0386C40.3599 31.9261 40.4231 31.7735 40.4231 31.6143V31.2623C40.4231 31.1032 40.3599 30.9506 40.2474 30.8381C40.1348 30.7256 39.9822 30.6623 39.8231 30.6623C39.664 30.6623 39.5114 30.7256 39.3988 30.8381C39.2863 30.9506 39.2231 31.1032 39.2231 31.2623V31.6143C39.2231 31.9463 39.4919 32.2143 39.8231 32.2143ZM33.7087 33.8991L33.4591 33.6495C33.3464 33.5371 33.1937 33.474 33.0345 33.4742C32.8754 33.4743 32.7228 33.5377 32.6103 33.6503C32.4979 33.763 32.4348 33.9157 32.4349 34.0749C32.4351 34.2341 32.4984 34.3867 32.6111 34.4991L32.8599 34.7471C32.9736 34.8531 33.1241 34.9108 33.2795 34.9081C33.435 34.9053 33.5833 34.8424 33.6932 34.7324C33.8031 34.6225 33.8661 34.4742 33.8688 34.3188C33.8716 34.1633 33.8147 34.0129 33.7087 33.8991ZM30.2231 40.2623C30.064 40.2623 29.9114 40.3256 29.7988 40.4381C29.6863 40.5506 29.6231 40.7032 29.6231 40.8623C29.6231 41.0215 29.6863 41.1741 29.7988 41.2866C29.9114 41.3991 30.064 41.4623 30.2231 41.4623H30.5751C30.7342 41.4623 30.8868 41.3991 30.9994 41.2866C31.1119 41.1741 31.1751 41.0215 31.1751 40.8623C31.1751 40.7032 31.1119 40.5506 30.9994 40.4381C30.8868 40.3256 30.7342 40.2623 30.5751 40.2623H30.2231ZM32.8599 46.9775L32.6103 47.2255C32.4976 47.3381 32.4343 47.4908 32.4342 47.6501C32.4342 47.8093 32.4973 47.9621 32.6099 48.0747C32.7225 48.1874 32.8752 48.2507 33.0344 48.2508C33.1937 48.2509 33.3464 48.1877 33.4591 48.0751L33.7087 47.8263C33.7644 47.7706 33.8086 47.7044 33.8388 47.6316C33.869 47.5588 33.8845 47.4808 33.8845 47.4019C33.8845 47.3231 33.869 47.2451 33.8388 47.1723C33.8086 47.0994 33.7644 47.0333 33.7087 46.9775C33.653 46.9218 33.5868 46.8776 33.514 46.8474C33.4412 46.8173 33.3631 46.8018 33.2843 46.8018C33.2055 46.8018 33.1274 46.8173 33.0546 46.8474C32.9818 46.8776 32.9156 46.9218 32.8599 46.9775ZM39.2231 50.1103V50.4623C39.2231 50.6215 39.2863 50.7741 39.3988 50.8866C39.5114 50.9991 39.664 51.0623 39.8231 51.0623C39.9822 51.0623 40.1348 50.9991 40.2474 50.8866C40.3599 50.7741 40.4231 50.6215 40.4231 50.4623V50.1103C40.4231 49.9512 40.3599 49.7986 40.2474 49.6861C40.1348 49.5736 39.9822 49.5103 39.8231 49.5103C39.664 49.5103 39.5114 49.5736 39.3988 49.6861C39.2863 49.7986 39.2231 49.9512 39.2231 50.1103ZM45.9375 47.8263L46.1871 48.0751C46.3003 48.1844 46.4519 48.2448 46.6092 48.2434C46.7665 48.2419 46.917 48.1787 47.0282 48.0674C47.1394 47.9561 47.2024 47.8056 47.2037 47.6483C47.205 47.491 47.1445 47.3395 47.0351 47.2263L46.7871 46.9775C46.674 46.8682 46.5225 46.8076 46.3651 46.8089C46.2078 46.8102 46.0573 46.8733 45.946 46.9845C45.8347 47.0956 45.7715 47.2461 45.7701 47.4034C45.7687 47.5607 45.8291 47.7123 45.9383 47.8255L45.9375 47.8263ZM49.4231 41.4623C49.5822 41.4623 49.7348 41.3991 49.8474 41.2866C49.9599 41.1741 50.0231 41.0215 50.0231 40.8623C50.0231 40.7032 49.9599 40.5506 49.8474 40.4381C49.7348 40.3256 49.5822 40.2623 49.4231 40.2623H49.0711C48.912 40.2623 48.7594 40.3256 48.6468 40.4381C48.5343 40.5506 48.4711 40.7032 48.4711 40.8623C48.4711 41.0215 48.5343 41.1741 48.6468 41.2866C48.7594 41.3991 48.912 41.4623 49.0711 41.4623H49.4231ZM46.7863 34.7479L47.0359 34.4991C47.1486 34.3867 47.2119 34.2341 47.2121 34.0749C47.2122 33.9157 47.1492 33.763 47.0367 33.6503C46.9243 33.5377 46.7716 33.4743 46.6125 33.4742C46.4533 33.474 46.3006 33.5371 46.1879 33.6495L45.9383 33.8991C45.8323 34.0129 45.7746 34.1633 45.7774 34.3188C45.7801 34.4742 45.8431 34.6225 45.953 34.7324C46.0629 34.8424 46.2112 34.9053 46.3667 34.9081C46.5221 34.9108 46.6726 34.8531 46.7863 34.7471V34.7479ZM37.7743 40.8639C37.776 41.4064 37.9927 41.9261 38.3769 42.3091C38.7611 42.6921 39.2814 42.9071 39.8239 42.9071C40.1615 42.9071 40.4839 42.8159 40.7735 42.6615L43.1631 45.0511C43.218 45.1101 43.2843 45.1574 43.3579 45.1902C43.4315 45.223 43.5109 45.2406 43.5915 45.242C43.672 45.2434 43.7521 45.2286 43.8268 45.1984C43.9015 45.1683 43.9694 45.1234 44.0263 45.0664C44.0833 45.0094 44.1282 44.9415 44.1584 44.8668C44.1886 44.7921 44.2034 44.7121 44.202 44.6315C44.2006 44.551 44.1829 44.4715 44.1501 44.3979C44.1173 44.3243 44.0701 44.2581 44.0111 44.2031L41.6239 41.8159C41.7845 41.5241 41.8702 41.197 41.8735 40.8639C41.8735 39.9439 41.2599 39.1727 40.4239 38.9143V34.3039C40.4239 34.1448 40.3607 33.9922 40.2482 33.8797C40.1356 33.7672 39.983 33.7039 39.8239 33.7039C39.6648 33.7039 39.5122 33.7672 39.3996 33.8797C39.2871 33.9922 39.2239 34.1448 39.2239 34.3039V38.9135C38.8057 39.0409 38.4392 39.299 38.1783 39.6498C37.9175 40.0007 37.7759 40.4259 37.7743 40.8631V40.8639ZM39.8239 40.0143C40.2919 40.0143 40.6735 40.3951 40.6735 40.8639C40.6735 41.3247 40.2791 41.7071 39.8239 41.7071C39.5996 41.7076 39.3842 41.6191 39.2249 41.461C39.0657 41.303 38.9756 41.0883 38.9743 40.8639C38.9743 40.3951 39.3551 40.0143 39.8239 40.0143ZM10.8871 27.2775H14.8679C15.027 27.2775 15.1796 27.2143 15.2922 27.1018C15.4047 26.9893 15.4679 26.8367 15.4679 26.6775V20.0663C15.4679 19.9072 15.4047 19.7546 15.2922 19.6421C15.1796 19.5296 15.027 19.4663 14.8679 19.4663H10.8871C10.728 19.4663 10.5754 19.5296 10.4628 19.6421C10.3503 19.7546 10.2871 19.9072 10.2871 20.0663V26.6775C10.2871 27.0087 10.5559 27.2775 10.8871 27.2775ZM11.4871 20.6663H14.2679V26.0775H11.4871V20.6663Z" fill="#21409C"/>
<path d="M18.8479 14.1039C18.6888 14.1039 18.5362 14.1672 18.4236 14.2797C18.3111 14.3922 18.2479 14.5448 18.2479 14.7039V26.6775C18.2479 27.0087 18.5167 27.2775 18.8479 27.2775H22.8287C22.9878 27.2775 23.1404 27.2143 23.253 27.1018C23.3655 26.9893 23.4287 26.8367 23.4287 26.6775V14.7031C23.4287 14.544 23.3655 14.3914 23.253 14.2789C23.1404 14.1664 22.9878 14.1031 22.8287 14.1031L18.8479 14.1039ZM22.2287 26.0775H19.4479V15.3031H22.2287V26.0775ZM26.8095 21.488C26.6504 21.488 26.4978 21.5512 26.3852 21.6637C26.2727 21.7762 26.2095 21.9288 26.2095 22.088V26.6775C26.2095 27.0087 26.4775 27.2775 26.8095 27.2775H30.7903C30.9494 27.2775 31.1021 27.2143 31.2146 27.1018C31.3271 26.9893 31.3903 26.8367 31.3903 26.6775V22.088C31.3903 21.9288 31.3271 21.7762 31.2146 21.6637C31.1021 21.5512 30.9494 21.488 30.7903 21.488H26.8095ZM30.1903 26.0775H27.4095V22.688H30.1903V26.0775ZM10.2871 37.2712C10.2871 37.6024 10.5559 37.8712 10.8871 37.8712H16.4871C16.6462 37.8712 16.7989 37.8079 16.9114 37.6954C17.0239 37.5829 17.0871 37.4303 17.0871 37.2712V31.6712C17.0871 31.512 17.0239 31.3594 16.9114 31.2469C16.7989 31.1344 16.6462 31.0712 16.4871 31.0712H10.8871C10.728 31.0712 10.5754 31.1344 10.4628 31.2469C10.3503 31.3594 10.2871 31.512 10.2871 31.6712V37.2712ZM11.4871 32.2712H15.8871V36.6712H11.4871V32.2712Z" fill="#21409C"/>
</svg>
