<svg width="74" height="73" viewBox="0 0 74 73" fill="none" xmlns="http://www.w3.org/2000/svg">
<g clip-path="url(#clip0_4073_12927)">
<path d="M18.5723 64.3027C13.2256 64.3027 8.87695 59.9541 8.87695 54.6074C8.87695 49.2607 13.2256 44.9121 18.5723 44.9121C23.9189 44.9121 28.2676 49.2607 28.2676 54.6074C28.2676 59.9541 23.9189 64.3027 18.5723 64.3027ZM18.5723 46.3379C14.0098 46.3379 10.3027 50.0449 10.3027 54.6074C10.3027 59.1699 14.0098 62.877 18.5723 62.877C23.1348 62.877 26.8418 59.1699 26.8418 54.6074C26.8418 50.0449 23.1348 46.3379 18.5723 46.3379Z" fill="#21409C"/>
<path d="M18.5723 59.8828C15.6637 59.8828 13.2969 57.516 13.2969 54.6074C13.2969 51.6988 15.6637 49.332 18.5723 49.332C21.4809 49.332 23.8477 51.6988 23.8477 54.6074C23.8477 57.516 21.4809 59.8828 18.5723 59.8828ZM18.5723 50.7578C16.4479 50.7578 14.7227 52.483 14.7227 54.6074C14.7227 56.7318 16.4479 58.457 18.5723 58.457C20.6967 58.457 22.4219 56.7318 22.4219 54.6074C22.4219 52.483 20.6967 50.7578 18.5723 50.7578ZM9.58984 59.0273H1.46289C1.06367 59.0273 0.75 58.7137 0.75 58.3145V50.9004C0.75 50.5012 1.06367 50.1875 1.46289 50.1875H9.58984C9.98906 50.1875 10.3027 50.5012 10.3027 50.9004V58.3145C10.3027 58.7137 9.98906 59.0273 9.58984 59.0273ZM2.17578 57.6016H8.87695V51.6133H2.17578V57.6016Z" fill="#21409C"/>
<path d="M4.74219 50.9005H3.31641V43.9142C3.31641 43.7431 3.37344 43.5862 3.4875 43.4579C7.79336 38.3108 14.0953 35.3595 20.8107 35.3595H27.9254L31.6895 30.6829C34.5838 27.0899 38.3193 24.1386 42.4969 22.1425C46.6602 20.1464 51.3082 19.0913 55.9277 19.0913V20.5171C46.9025 20.5171 38.4762 24.5521 32.8016 31.5669L28.8236 36.5001C28.6953 36.6712 28.4814 36.771 28.2676 36.771H20.8107C14.6086 36.771 8.76289 39.4657 4.74219 44.1565V50.9005Z" fill="#21409C"/>
<path d="M39.674 36.7852H32.9728C32.5736 36.7852 32.2599 36.4715 32.2599 36.0723V34.2188C32.2599 32.8072 33.4148 31.6523 34.8263 31.6523H39.674C41.0855 31.6523 42.2404 32.8072 42.2404 34.2188C42.2404 35.6303 41.0855 36.7852 39.674 36.7852ZM33.6857 35.3594H39.674C40.3013 35.3594 40.8146 34.8461 40.8146 34.2188C40.8146 33.5914 40.3013 33.0781 39.674 33.0781H34.8263C34.199 33.0781 33.6857 33.5914 33.6857 34.2188V35.3594ZM9.16228 44.627H4.02947C3.75857 44.627 3.50193 44.4701 3.38786 44.2135C3.2738 43.9568 3.30232 43.6717 3.48767 43.4578C5.44099 41.1195 8.30681 39.7793 11.358 39.7793H12.5842C12.9834 39.7793 13.297 40.093 13.297 40.4922C13.297 42.7734 11.4435 44.627 9.16228 44.627ZM5.75466 43.2012H9.16228C10.4027 43.2012 11.4578 42.36 11.7715 41.2051H11.3437C9.2906 41.2051 7.32302 41.918 5.75466 43.2012Z" fill="#21409C"/>
<path d="M68.0469 64.3029C67.9186 64.3029 67.7902 64.2744 67.6762 64.2031C67.4623 64.0748 67.334 63.8467 67.334 63.59V57.8441L64.4824 56.3898L61.6309 57.8441V63.59C61.6309 63.8324 61.5025 64.0748 61.2887 64.2031C61.0748 64.3314 60.8182 64.3457 60.59 64.2316L56.8402 62.3068L57.4961 61.0379L60.2193 62.4352V57.4164C60.2193 57.1455 60.3762 56.9031 60.6043 56.7748L64.1687 54.9498C64.3684 54.85 64.6107 54.85 64.8246 54.9498L68.3891 56.7748C68.6314 56.9031 68.774 57.1455 68.774 57.4164V62.4352L72.3385 60.6102V52.7256L67.7332 50.373C67.4908 50.2447 67.3482 50.0023 67.3482 49.7314V23.2689C67.3482 22.998 67.5051 22.7557 67.7332 22.6273L72.3385 20.2748V12.4045L68.774 10.5795V15.5982C68.774 15.8691 68.6172 16.1115 68.3891 16.2398L64.8246 18.0648C64.625 18.1646 64.3826 18.1646 64.1687 18.0648L60.6043 16.2398C60.3619 16.1115 60.2193 15.8691 60.2193 15.5982V10.5795L56.6406 12.4045V20.2891L61.2459 22.6416C61.4883 22.7699 61.6309 23.0123 61.6309 23.2832V49.7457C61.6309 50.0166 61.474 50.259 61.2459 50.3873L56.6406 52.7256V54.465C56.6406 54.8643 56.327 55.1779 55.9277 55.1779H55.7852C55.5998 55.8053 55.3432 56.4041 55.0437 56.9744L56.3555 58.2861C56.4838 58.4144 56.5693 58.5998 56.5693 58.7852C56.5693 58.9705 56.498 59.1559 56.3555 59.2842L53.3328 62.3068C53.0477 62.592 52.6057 62.592 52.3205 62.3068L51.0088 60.9951C50.4385 61.2945 49.8396 61.5512 49.2123 61.7365V63.59C49.2123 63.9893 48.8986 64.3029 48.4994 64.3029H44.2221C43.8229 64.3029 43.5092 63.9893 43.5092 63.59V61.7365C42.8818 61.5512 42.283 61.2945 41.7127 60.9951L40.401 62.3068C40.1158 62.592 39.6738 62.592 39.3887 62.3068L36.3945 59.2842C36.1094 58.999 36.1094 58.557 36.3945 58.2719L37.7063 56.9602C37.4068 56.3898 37.1502 55.791 36.9648 55.1637H35.1113C34.7121 55.1637 34.3984 54.85 34.3984 54.4508V50.1734C34.3984 49.7742 34.7121 49.4605 35.1113 49.4605H36.9648C37.1502 48.8332 37.4068 48.2344 37.7063 47.6641L36.3945 46.3523C36.1094 46.0672 36.1094 45.6252 36.3945 45.34L39.4172 42.3174C39.7023 42.0322 40.1443 42.0322 40.4295 42.3174L41.7412 43.6291C42.3115 43.3297 42.9104 43.073 43.5377 42.8877V41.0342C43.5377 40.635 43.8514 40.3213 44.2506 40.3213H48.5279C48.9271 40.3213 49.2408 40.635 49.2408 41.0342V42.8877C49.8682 43.073 50.467 43.3297 51.0373 43.6291L52.349 42.3174C52.6342 42.0322 53.0762 42.0322 53.3613 42.3174L56.384 45.34C56.5123 45.4684 56.5979 45.6537 56.5979 45.8391C56.5979 46.0244 56.5266 46.2098 56.384 46.3381L55.0723 47.6498C55.3717 48.2201 55.6283 48.8189 55.8137 49.4463H57.6672C58.0664 49.4463 58.3801 49.76 58.3801 50.1592V50.2162L60.2336 49.2609V23.7109L55.6283 21.3584C55.3859 21.2301 55.2434 20.9877 55.2434 20.7168V11.9625C55.2434 11.6916 55.4002 11.4492 55.6283 11.3209L60.6186 8.76875C60.8324 8.65469 61.1033 8.66894 61.3172 8.79726C61.5311 8.92558 61.6594 9.15371 61.6594 9.41035V15.1562L64.5109 16.6105L67.3625 15.1562V9.41035C67.3625 9.16797 67.4908 8.92558 67.7047 8.79726C67.9186 8.66894 68.1752 8.65469 68.4033 8.76875L73.3936 11.3209C73.6359 11.4492 73.7785 11.6916 73.7785 11.9625V20.7168C73.7785 20.9877 73.6217 21.2301 73.3936 21.3584L68.7598 23.7109V49.3037L73.365 51.6562C73.6074 51.7846 73.75 52.0269 73.75 52.2978V61.0521C73.75 61.323 73.5932 61.5654 73.365 61.6937L68.3748 64.2459C68.275 64.2744 68.1609 64.3029 68.0469 64.3029ZM44.9492 62.8771H47.8008V61.1947C47.8008 60.8668 48.0289 60.5816 48.3426 60.4961C49.198 60.2965 50.0107 59.9543 50.7522 59.498C51.0373 59.3269 51.3937 59.3697 51.6219 59.5978L52.8053 60.7812L54.8156 58.7709L53.6322 57.5875C53.4041 57.3594 53.3613 56.9887 53.5324 56.7178C53.9887 55.9764 54.3309 55.1637 54.5305 54.3082C54.6018 53.9945 54.8727 53.7807 55.1863 53.7664V52.2978C55.1863 52.0269 55.3432 51.7846 55.5713 51.6562L56.8973 50.9861V50.9006H55.2148C54.8869 50.9006 54.6018 50.6725 54.5162 50.3588C54.3166 49.5033 53.9744 48.6906 53.5182 47.9492C53.3471 47.6641 53.3898 47.3076 53.618 47.0795L54.8014 45.8961L52.791 43.8857L51.6076 45.0691C51.3795 45.2973 51.0088 45.34 50.7379 45.1689C49.9965 44.7127 49.1838 44.3705 48.3283 44.1709C48.0147 44.0996 47.7865 43.8145 47.7865 43.4723V41.7756H44.935V43.458C44.935 43.7859 44.7068 44.0711 44.3932 44.1566C43.5377 44.3562 42.725 44.6984 41.9836 45.1547C41.6984 45.3258 41.342 45.283 41.1139 45.0549L39.9305 43.8715L37.9201 45.8818L39.1035 47.0652C39.3316 47.2934 39.3744 47.6641 39.2033 47.935C38.7471 48.6764 38.4049 49.4891 38.2053 50.3445C38.134 50.6582 37.8346 50.8863 37.5066 50.8863H35.8242V53.7379H37.5066C37.8346 53.7379 38.1197 53.966 38.2053 54.2797C38.4049 55.1352 38.7471 55.9479 39.2033 56.6893C39.3744 56.9744 39.3316 57.3309 39.1035 57.559L37.9201 58.7424L39.9305 60.7527L41.1139 59.5693C41.342 59.3412 41.7127 59.2984 41.9836 59.4695C42.725 59.9258 43.5377 60.268 44.3932 60.4676C44.7068 60.5389 44.935 60.824 44.935 61.1662V62.8771H44.9492ZM46.375 58.0295C43.224 58.0295 40.6719 55.4773 40.6719 52.3264C40.6719 49.1754 43.224 46.6232 46.375 46.6232C49.526 46.6232 52.0781 49.1754 52.0781 52.3264C52.0781 55.4773 49.526 58.0295 46.375 58.0295ZM46.375 48.049C44.0225 48.049 42.0977 49.9738 42.0977 52.3264C42.0977 54.6789 44.0225 56.6037 46.375 56.6037C48.7275 56.6037 50.6523 54.6789 50.6523 52.3264C50.6523 49.9738 48.7275 48.049 46.375 48.049Z" fill="#21409C"/>
<path d="M36.5799 32.8215L35.482 31.909L36.3375 30.8824C40.6434 25.6641 46.9881 22.6699 53.7605 22.6699H60.918V24.0957H53.7605C47.4158 24.0957 41.4703 26.9045 37.4353 31.7949L36.5799 32.8215ZM32.9727 35.3594H58.0664V36.7852H32.9727V35.3594ZM37.3641 59.0273H27.5547C27.1555 59.0273 26.8418 58.7137 26.8418 58.3145V50.9004C26.8418 50.5012 27.1555 50.1875 27.5547 50.1875H35.1113V51.6133H28.2676V57.6016H37.3641V59.0273ZM41.5986 50.1875H51.1656V51.6133H41.5986V50.1875Z" fill="#21409C"/>
</g>
<defs>
<clipPath id="clip0_4073_12927">
<rect width="73" height="73" fill="white" transform="translate(0.75)"/>
</clipPath>
</defs>
</svg>
