<svg width="52" height="52" viewBox="0 0 52 52" fill="none" xmlns="http://www.w3.org/2000/svg">
<path d="M25.1875 45.5H26.8125V47.125H25.1875V45.5ZM39.2064 40.3634L40.3552 39.2145L41.5041 40.3634L40.3552 41.5122L39.2064 40.3634ZM45.5 25.1875H47.125V26.8125H45.5V25.1875Z" fill="white"/>
<path d="M49.5618 20.3126H43.8012C43.4869 19.3212 43.0886 18.3585 42.6109 17.4347L46.6823 13.3625C46.8347 13.2101 46.9202 13.0035 46.9202 12.788C46.9202 12.5726 46.8347 12.366 46.6823 12.2136L43.2349 8.76696C40.9795 6.46822 38.2909 4.63919 35.3245 3.38556C32.3581 2.13193 29.1727 1.47855 25.9523 1.46317C22.732 1.44779 19.5405 2.07071 16.5622 3.29595C13.584 4.52119 10.8781 6.32446 8.60082 8.60155C6.32356 10.8787 4.52011 13.5844 3.29466 16.5626C2.06921 19.5407 1.44605 22.7322 1.46121 25.9526C1.47636 29.173 2.12952 32.3584 3.38294 35.3249C4.63636 38.2914 6.46519 40.9801 8.76378 43.2356L12.2104 46.6831C12.3628 46.8354 12.5694 46.921 12.7848 46.921C13.0003 46.921 13.2069 46.8354 13.3593 46.6831L17.4315 42.6116C18.3561 43.0892 19.3197 43.4871 20.3118 43.8012V49.5626C20.3118 49.7781 20.3974 49.9847 20.5498 50.1371C20.7022 50.2895 20.9089 50.3751 21.1243 50.3751H30.8743C31.0898 50.3751 31.2965 50.2895 31.4489 50.1371C31.6012 49.9847 31.6868 49.7781 31.6868 49.5626V43.802C32.6781 43.4878 33.6409 43.0899 34.5647 42.6125L38.637 46.6839C38.7893 46.8362 38.996 46.9218 39.2114 46.9218C39.4269 46.9218 39.6335 46.8362 39.7858 46.6839L46.6799 39.7898C46.8322 39.6375 46.9178 39.4308 46.9178 39.2154C46.9178 39 46.8322 38.7933 46.6799 38.641L42.6085 34.5687C43.0869 33.6439 43.4856 32.6801 43.8004 31.6876H49.5618C49.7773 31.6876 49.984 31.602 50.1364 31.4496C50.2887 31.2972 50.3743 31.0906 50.3743 30.8751V21.1251C50.3743 20.9096 50.2887 20.7029 50.1364 20.5506C49.984 20.3982 49.7773 20.3126 49.5618 20.3126ZM9.91184 9.91259C14.078 5.74507 19.6993 3.35749 25.5912 3.25291C31.4831 3.14833 37.1855 5.33492 41.497 9.35196L40.3497 10.4992C36.3401 6.79893 31.0544 4.79348 25.5994 4.90286C20.1444 5.01223 14.9433 7.22795 11.0852 11.086C7.2272 14.944 5.01149 20.1451 4.90211 25.6001C4.79274 31.0551 6.79818 36.3409 10.4985 40.3505L9.35122 41.4977C5.33418 37.1862 3.14759 31.4838 3.25217 25.5919C3.35675 19.7 5.74433 14.0788 9.91184 9.91259ZM32.8934 19.106C34.6973 20.9395 35.7036 23.4116 35.6931 25.9836C35.6826 28.5557 34.6562 31.0195 32.8375 32.8382C31.0187 34.657 28.555 35.6834 25.9829 35.6939C23.4108 35.7043 20.9388 34.698 19.1053 32.8941C18.9529 32.7418 18.7463 32.6563 18.5308 32.6563C18.3154 32.6563 18.1088 32.7418 17.9564 32.8941L11.6482 39.2024C8.2405 35.5 6.39596 30.6236 6.50019 25.5928C6.60442 20.562 8.64934 15.7663 12.2074 12.2082C15.7655 8.65009 20.5613 6.60517 25.5921 6.50094C30.6229 6.39671 35.4993 8.24124 39.2017 11.6489L32.8934 17.9563C32.8179 18.0318 32.7579 18.1214 32.717 18.22C32.6762 18.3187 32.6551 18.4244 32.6551 18.5312C32.6551 18.638 32.6762 18.7437 32.717 18.8423C32.7579 18.941 32.8179 19.0306 32.8934 19.106ZM48.7493 30.0626H43.1951C43.0175 30.0625 42.8447 30.1206 42.7033 30.228C42.5618 30.3354 42.4594 30.4862 42.4118 30.6573C42.055 31.9319 41.5473 33.1593 40.8998 34.3136C40.8125 34.4685 40.7784 34.6477 40.8028 34.8238C40.8271 35 40.9086 35.1632 41.0347 35.2886L44.9582 39.213L39.2138 44.9573L35.2895 41.0338C35.1641 40.9077 35.0008 40.8263 34.8247 40.8019C34.6486 40.7775 34.4694 40.8116 34.3145 40.8989C33.1602 41.5465 31.9327 42.0541 30.6582 42.411C30.4871 42.4586 30.3363 42.5609 30.2289 42.7024C30.1215 42.8438 30.0634 43.0166 30.0635 43.1942V48.7501H21.9368V43.1958C21.9369 43.0182 21.8788 42.8455 21.7714 42.704C21.664 42.5625 21.5132 42.4602 21.3421 42.4126C20.0676 42.0557 18.8402 41.5481 17.6858 40.9005C17.531 40.8132 17.3517 40.7792 17.1756 40.8035C16.9995 40.8279 16.8362 40.9093 16.7108 41.0354L12.7865 44.959L10.4887 42.6612L18.5528 34.598C20.7268 36.4801 23.5331 37.4691 26.4068 37.3657C29.2806 37.2624 32.0086 36.0745 34.0418 34.041C36.0751 32.0075 37.2627 29.2794 37.3658 26.4057C37.4688 23.5319 36.4796 20.7258 34.5972 18.5519L42.6605 10.4878L44.9582 12.7856L41.0347 16.71C40.9086 16.8353 40.8271 16.9986 40.8028 17.1747C40.7784 17.3508 40.8125 17.5301 40.8998 17.685C41.5475 18.8392 42.0551 20.0666 42.4118 21.3412C42.4594 21.5123 42.5618 21.6631 42.7033 21.7706C42.8447 21.878 43.0175 21.9361 43.1951 21.936H48.7493V30.0626Z" fill="white"/>
<path d="M26.8125 22.8654V13.8125C26.8125 13.597 26.7269 13.3903 26.5745 13.238C26.4222 13.0856 26.2155 13 26 13C25.7845 13 25.5778 13.0856 25.4255 13.238C25.2731 13.3903 25.1875 13.597 25.1875 13.8125V22.8654C24.6291 23.0114 24.1197 23.3035 23.7116 23.7116C23.3035 24.1197 23.0114 24.6291 22.8654 25.1875H17.0625C16.847 25.1875 16.6403 25.2731 16.488 25.4255C16.3356 25.5778 16.25 25.7845 16.25 26C16.25 26.2155 16.3356 26.4222 16.488 26.5745C16.6403 26.7269 16.847 26.8125 17.0625 26.8125H22.8654C23.0075 27.3669 23.2937 27.8739 23.6951 28.282C24.0965 28.69 24.5987 28.9845 25.1507 29.1357C25.7028 29.2869 26.285 29.2892 26.8383 29.1426C27.3915 28.996 27.8961 28.7056 28.3009 28.3009C28.7056 27.8961 28.996 27.3915 29.1426 26.8383C29.2892 26.285 29.2869 25.7028 29.1357 25.1507C28.9845 24.5987 28.69 24.0965 28.282 23.6951C27.8739 23.2937 27.3669 23.0075 26.8125 22.8654ZM26 27.625C25.6786 27.625 25.3644 27.5297 25.0972 27.3511C24.83 27.1726 24.6217 26.9188 24.4987 26.6219C24.3757 26.3249 24.3435 25.9982 24.4062 25.683C24.4689 25.3678 24.6237 25.0782 24.851 24.851C25.0782 24.6237 25.3678 24.4689 25.683 24.4062C25.9982 24.3435 26.3249 24.3757 26.6219 24.4987C26.9188 24.6217 27.1726 24.83 27.3511 25.0972C27.5297 25.3644 27.625 25.6786 27.625 26C27.625 26.431 27.4538 26.8443 27.149 27.149C26.8443 27.4538 26.431 27.625 26 27.625ZM26 10.5625C25.7845 10.5625 25.5778 10.4769 25.4255 10.3245C25.2731 10.1722 25.1875 9.96549 25.1875 9.75V8.125C25.1875 7.90951 25.2731 7.70285 25.4255 7.55048C25.5778 7.3981 25.7845 7.3125 26 7.3125C26.2155 7.3125 26.4222 7.3981 26.5745 7.55048C26.7269 7.70285 26.8125 7.90951 26.8125 8.125V9.75C26.8125 9.96549 26.7269 10.1722 26.5745 10.3245C26.4222 10.4769 26.2155 10.5625 26 10.5625ZM34.125 12.74C33.9824 12.7399 33.8424 12.7022 33.719 12.6308C33.5956 12.5595 33.4932 12.4569 33.422 12.3334C33.3508 12.2099 33.3133 12.0698 33.3133 11.9273C33.3134 11.7847 33.3509 11.6447 33.4222 11.5213L34.2347 10.1132C34.3432 9.92809 34.5205 9.79343 34.7279 9.73859C34.9354 9.68375 35.1561 9.71318 35.3419 9.82046C35.5277 9.92774 35.6635 10.1042 35.7197 10.3112C35.7759 10.5183 35.748 10.7392 35.6419 10.9257L34.8294 12.3338C34.7581 12.4574 34.6554 12.56 34.5317 12.6313C34.408 12.7027 34.2678 12.7401 34.125 12.74ZM17.875 12.74C17.7322 12.7401 17.592 12.7027 17.4683 12.6313C17.3446 12.56 17.2419 12.4574 17.1706 12.3338L16.3581 10.9257C16.252 10.7392 16.2241 10.5183 16.2803 10.3112C16.3365 10.1042 16.4723 9.92774 16.6581 9.82046C16.8439 9.71318 17.0646 9.68375 17.2721 9.73859C17.4795 9.79343 17.6568 9.92809 17.7653 10.1132L18.5778 11.5213C18.6491 11.6447 18.6866 11.7847 18.6867 11.9273C18.6867 12.0698 18.6492 12.2099 18.578 12.3334C18.5068 12.4569 18.4044 12.5595 18.281 12.6308C18.1576 12.7022 18.0176 12.7399 17.875 12.74ZM11.9267 18.6875C11.784 18.6878 11.6438 18.6502 11.5204 18.5786L10.1124 17.7661C9.92728 17.6576 9.79262 17.4803 9.73778 17.2729C9.68294 17.0654 9.71237 16.8447 9.81965 16.6589C9.92693 16.4731 10.1034 16.3373 10.3104 16.2811C10.5175 16.2249 10.7384 16.2528 10.9249 16.3589L12.3329 17.1714C12.4878 17.2608 12.6089 17.3989 12.6773 17.5641C12.7458 17.7293 12.7578 17.9125 12.7115 18.0853C12.6652 18.2581 12.5632 18.4107 12.4213 18.5196C12.2794 18.6285 12.1055 18.6875 11.9267 18.6875ZM9.75 26.8125H8.125C7.90951 26.8125 7.70285 26.7269 7.55048 26.5745C7.3981 26.4222 7.3125 26.2155 7.3125 26C7.3125 25.7845 7.3981 25.5778 7.55048 25.4255C7.70285 25.2731 7.90951 25.1875 8.125 25.1875H9.75C9.96549 25.1875 10.1722 25.2731 10.3245 25.4255C10.4769 25.5778 10.5625 25.7845 10.5625 26C10.5625 26.2155 10.4769 26.4222 10.3245 26.5745C10.1722 26.7269 9.96549 26.8125 9.75 26.8125ZM10.5202 35.75C10.3414 35.75 10.1675 35.691 10.0257 35.5821C9.88376 35.4732 9.78176 35.3206 9.73547 35.1478C9.68918 34.975 9.70119 34.7918 9.76962 34.6266C9.83806 34.4613 9.95911 34.3233 10.114 34.2339L11.5221 33.4214C11.6145 33.3672 11.7167 33.3318 11.8229 33.3173C11.9291 33.3028 12.0371 33.3094 12.1407 33.3368C12.2442 33.3642 12.3414 33.4118 12.4265 33.4769C12.5116 33.542 12.583 33.6233 12.6366 33.716C12.6902 33.8088 12.7249 33.9113 12.7387 34.0176C12.7525 34.1238 12.7452 34.2318 12.7171 34.3352C12.689 34.4386 12.6408 34.5354 12.5751 34.6201C12.5095 34.7048 12.4277 34.7757 12.3346 34.8286L10.9265 35.6411C10.8031 35.7127 10.6629 35.7503 10.5202 35.75Z" fill="white"/>
<path d="M25.9997 34.1247C24.9323 34.1277 23.8749 33.9185 22.889 33.5092C21.9032 33.1 21.0085 32.4989 20.257 31.7408C20.1795 31.6658 20.1177 31.576 20.0753 31.4768C20.0328 31.3777 20.0106 31.271 20.0098 31.1631C20.009 31.0552 20.0297 30.9483 20.0707 30.8485C20.1117 30.7487 20.1722 30.6581 20.2486 30.5819C20.3249 30.5057 20.4157 30.4455 20.5157 30.4048C20.6156 30.3641 20.7226 30.3437 20.8305 30.3448C20.9383 30.3459 21.0449 30.3684 21.144 30.4111C21.243 30.4539 21.3326 30.5159 21.4075 30.5936C22.0083 31.2073 22.7248 31.6958 23.5157 32.0308C24.3065 32.3657 25.1559 32.5406 26.0148 32.5451C26.8737 32.5497 27.7249 32.3839 28.5192 32.0573C29.3136 31.7308 30.0353 31.2499 30.6426 30.6426C31.2499 30.0353 31.7308 29.3136 32.0573 28.5192C32.3839 27.7249 32.5497 26.8737 32.5451 26.0148C32.5406 25.1559 32.3657 24.3065 32.0308 23.5157C31.6958 22.7248 31.2073 22.0083 30.5936 21.4075C30.5159 21.3326 30.4539 21.243 30.4111 21.144C30.3684 21.0449 30.3459 20.9383 30.3448 20.8305C30.3437 20.7226 30.3641 20.6156 30.4048 20.5157C30.4455 20.4157 30.5057 20.3249 30.5819 20.2486C30.6581 20.1722 30.7487 20.1117 30.8485 20.0707C30.9483 20.0297 31.0552 20.009 31.1631 20.0098C31.271 20.0106 31.3777 20.0328 31.4768 20.0753C31.576 20.1177 31.6658 20.1795 31.7408 20.257C32.876 21.3931 33.649 22.8403 33.9622 24.4156C34.2753 25.9909 34.1146 27.6236 33.5002 29.1076C32.8859 30.5916 31.8455 31.8602 30.5105 32.7531C29.1755 33.6461 27.6058 34.1234 25.9997 34.1247Z" fill="white"/>
</svg>
