<svg width="56" height="56" viewBox="0 0 56 56" fill="none" xmlns="http://www.w3.org/2000/svg">
<path d="M15.9162 22.0213C15.9162 21.8023 15.8292 21.5923 15.6743 21.4374C15.5195 21.2826 15.3095 21.1956 15.0905 21.1956H9.15189C8.9329 21.1956 8.72287 21.2826 8.56802 21.4374C8.41317 21.5923 8.32617 21.8023 8.32617 22.0213V27.9597C8.32617 28.1787 8.41317 28.3887 8.56802 28.5436C8.72287 28.6985 8.9329 28.7855 9.15189 28.7855H15.0905C15.3095 28.7855 15.5195 28.6985 15.6743 28.5436C15.8292 28.3887 15.9162 28.1787 15.9162 27.9597V22.0213ZM14.2647 27.134H9.97761V22.847H14.2647V27.134ZM26.5024 22.0213C26.5024 21.9128 26.4811 21.8055 26.4396 21.7053C26.3981 21.6051 26.3373 21.5141 26.2606 21.4374C26.1839 21.3607 26.0929 21.2999 25.9927 21.2584C25.8925 21.2169 25.7852 21.1956 25.6767 21.1956H19.7382C19.5192 21.1956 19.3091 21.2826 19.1543 21.4374C18.9994 21.5923 18.9124 21.8023 18.9124 22.0213V27.9597C18.9124 28.1787 18.9994 28.3887 19.1543 28.5436C19.3091 28.6985 19.5192 28.7855 19.7382 28.7855H25.6767C25.7852 28.7855 25.8925 28.7641 25.9927 28.7226C26.0929 28.6811 26.1839 28.6203 26.2606 28.5436C26.3373 28.4669 26.3981 28.3759 26.4396 28.2757C26.4811 28.1755 26.5024 28.0682 26.5024 27.9597V22.0213ZM24.851 27.134H20.5639V22.847H24.851V27.134ZM37.0886 22.0213C37.0886 21.8023 37.0016 21.5923 36.8467 21.4374C36.6919 21.2826 36.4819 21.1956 36.2629 21.1956H30.3243C30.2159 21.1955 30.1085 21.2169 30.0083 21.2584C29.9081 21.2999 29.8171 21.3607 29.7404 21.4374C29.6637 21.514 29.6029 21.6051 29.5614 21.7053C29.5199 21.8055 29.4986 21.9128 29.4986 22.0213V27.9597C29.4986 28.4159 29.8682 28.7855 30.3243 28.7855H36.2629C36.4819 28.7855 36.6919 28.6985 36.8467 28.5436C37.0016 28.3887 37.0886 28.1787 37.0886 27.9597V22.0213ZM35.4371 27.134H31.15V22.847H35.4371V27.134ZM40.9106 28.7855H46.8491C47.3053 28.7855 47.6748 28.4159 47.6748 27.9597V22.0213C47.6748 21.5651 47.3053 21.1956 46.8491 21.1956H40.9106C40.8021 21.1955 40.6947 21.2169 40.5946 21.2584C40.4944 21.2999 40.4033 21.3607 40.3267 21.4374C40.25 21.514 40.1892 21.6051 40.1477 21.7053C40.1062 21.8055 40.0848 21.9128 40.0848 22.0213V27.9597C40.0848 28.4159 40.4544 28.7855 40.9106 28.7855ZM41.7363 22.847H46.0234V27.134H41.7363V22.847ZM15.9162 32.7684C15.9162 32.5494 15.8292 32.3394 15.6743 32.1845C15.5195 32.0297 15.3095 31.9427 15.0905 31.9427H9.15189C8.9329 31.9427 8.72287 32.0297 8.56802 32.1845C8.41317 32.3394 8.32617 32.5494 8.32617 32.7684V38.7068C8.32617 38.9258 8.41317 39.1359 8.56802 39.2907C8.72287 39.4456 8.9329 39.5326 9.15189 39.5326H15.0905C15.3095 39.5326 15.5195 39.4456 15.6743 39.2907C15.8292 39.1359 15.9162 38.9258 15.9162 38.7068V32.7684ZM14.2647 37.8811H9.97761V33.5941H14.2647V37.8811ZM26.5024 32.7684C26.5024 32.6599 26.4811 32.5526 26.4396 32.4524C26.3981 32.3522 26.3373 32.2612 26.2606 32.1845C26.1839 32.1078 26.0929 32.047 25.9927 32.0055C25.8925 31.964 25.7852 31.9427 25.6767 31.9427H19.7382C19.5192 31.9427 19.3091 32.0297 19.1543 32.1845C18.9994 32.3394 18.9124 32.5494 18.9124 32.7684V38.7068C18.9124 38.9258 18.9994 39.1359 19.1543 39.2907C19.3091 39.4456 19.5192 39.5326 19.7382 39.5326H25.6767C25.7852 39.5326 25.8925 39.5112 25.9927 39.4697C26.0929 39.4282 26.1839 39.3674 26.2606 39.2907C26.3373 39.214 26.3981 39.123 26.4396 39.0228C26.4811 38.9226 26.5024 38.8153 26.5024 38.7068V32.7684ZM24.851 37.8811H20.5639V33.5941H24.851V37.8811ZM37.0886 32.7684C37.0886 32.5494 37.0016 32.3394 36.8467 32.1845C36.6919 32.0297 36.4819 31.9427 36.2629 31.9427H30.3243C30.2159 31.9426 30.1085 31.964 30.0083 32.0055C29.9081 32.047 29.8171 32.1078 29.7404 32.1845C29.6637 32.2612 29.6029 32.3522 29.5614 32.4524C29.5199 32.5526 29.4986 32.6599 29.4986 32.7684V38.7068C29.4986 39.163 29.8682 39.5326 30.3243 39.5326H36.2629C36.4819 39.5326 36.6919 39.4456 36.8467 39.2907C37.0016 39.1359 37.0886 38.9258 37.0886 38.7068V32.7684ZM35.4371 37.8811H31.15V33.5941H35.4371V37.8811ZM40.0848 38.7068C40.0848 39.163 40.4544 39.5326 40.9106 39.5326H46.8491C47.3053 39.5326 47.6748 39.163 47.6748 38.7068V32.7684C47.6748 32.3123 47.3053 31.9427 46.8491 31.9427H40.9106C40.8021 31.9426 40.6947 31.964 40.5946 32.0055C40.4944 32.047 40.4033 32.1078 40.3267 32.1845C40.25 32.2612 40.1892 32.3522 40.1477 32.4524C40.1062 32.5526 40.0848 32.6599 40.0848 32.7684V38.7068ZM41.7363 33.5941H46.0234V37.8811H41.7363V33.5941ZM15.0905 42.6898H9.15189C8.9329 42.6898 8.72287 42.7768 8.56802 42.9316C8.41317 43.0865 8.32617 43.2965 8.32617 43.5155V49.454C8.32617 49.6729 8.41317 49.883 8.56802 50.0378C8.72287 50.1927 8.9329 50.2797 9.15189 50.2797H15.0905C15.3095 50.2797 15.5195 50.1927 15.6743 50.0378C15.8292 49.883 15.9162 49.6729 15.9162 49.454V43.5155C15.9162 43.2965 15.8292 43.0865 15.6743 42.9316C15.5195 42.7768 15.3095 42.6898 15.0905 42.6898ZM14.2647 48.6282H9.97761V44.3412H14.2647V48.6282ZM25.6767 42.6898H19.7382C19.5192 42.6898 19.3091 42.7768 19.1543 42.9316C18.9994 43.0865 18.9124 43.2965 18.9124 43.5155V49.454C18.9124 49.6729 18.9994 49.883 19.1543 50.0378C19.3091 50.1927 19.5192 50.2797 19.7382 50.2797H25.6767C25.7852 50.2797 25.8925 50.2583 25.9927 50.2168C26.0929 50.1753 26.1839 50.1145 26.2606 50.0378C26.3373 49.9611 26.3981 49.8701 26.4396 49.7699C26.4811 49.6698 26.5024 49.5624 26.5024 49.454V43.5155C26.5024 43.4071 26.4811 43.2997 26.4396 43.1995C26.3981 43.0993 26.3373 43.0083 26.2606 42.9316C26.1839 42.8549 26.0929 42.7941 25.9927 42.7526C25.8925 42.7111 25.7852 42.6898 25.6767 42.6898ZM24.851 48.6282H20.5639V44.3412H24.851V48.6282ZM36.2629 42.6898H30.3243C30.2159 42.6898 30.1085 42.7111 30.0083 42.7526C29.9081 42.7941 29.8171 42.8549 29.7404 42.9316C29.6637 43.0083 29.6029 43.0993 29.5614 43.1995C29.5199 43.2997 29.4986 43.4071 29.4986 43.5155V49.454C29.4986 49.9101 29.8682 50.2797 30.3243 50.2797H36.2629C36.4819 50.2797 36.6919 50.1927 36.8467 50.0378C37.0016 49.883 37.0886 49.6729 37.0886 49.454V43.5155C37.0886 43.0594 36.719 42.6898 36.2629 42.6898ZM35.4371 48.6282H31.15V44.3412H35.4371V48.6282ZM40.0848 49.454C40.0848 49.9101 40.4544 50.2797 40.9106 50.2797H46.8491C47.3053 50.2797 47.6748 49.9101 47.6748 49.454V43.5155C47.6748 43.0594 47.3053 42.6898 46.8491 42.6898H40.9106C40.8021 42.6898 40.6947 42.7111 40.5946 42.7526C40.4944 42.7941 40.4033 42.8549 40.3267 42.9316C40.25 43.0083 40.1892 43.0993 40.1477 43.1995C40.1062 43.2997 40.0848 43.4071 40.0848 43.5155V49.454ZM41.7363 44.3412H46.0234V48.6282H41.7363V44.3412Z" fill="#21409C"/>
<path d="M51.1889 6.12903H50.1704V2.97005C50.1704 1.33238 48.838 0 47.2003 0C45.5626 0 44.2303 1.33238 44.2303 2.97005V6.12903H40.5695V2.97005C40.5696 1.33238 39.2372 0 37.5995 0C35.9618 0 34.6295 1.33238 34.6295 2.97005V6.12903H30.9688V2.97005C30.9689 1.33238 29.6365 0 27.9988 0C26.3612 0 25.0288 1.33238 25.0288 2.97005V6.12903H21.368V2.97005C21.3681 1.33238 20.0357 0 18.398 0C16.7604 0 15.428 1.33238 15.428 2.97005V6.12903H11.7672V2.97005C11.7673 1.33238 10.435 0 8.79736 0C7.15969 0 5.82731 1.33238 5.82731 2.97005V6.12903H4.80881C2.93487 6.12903 1.41016 7.65375 1.41016 9.52769V52.6013C1.41016 54.4754 2.93476 56 4.80881 56H36.441C36.66 56 36.87 55.913 37.0249 55.7582C37.1797 55.6033 37.2667 55.3933 37.2667 55.1743C37.2667 54.7182 36.8971 54.3486 36.441 54.3486H4.80881C3.84548 54.3486 3.06159 53.5648 3.06159 52.6013V17.2799H13.6024C14.0584 17.2799 14.4281 16.9103 14.4281 16.4541C14.4281 15.998 14.0584 15.6284 13.6024 15.6284H3.06159V9.52769C3.06159 8.56424 3.84536 7.78047 4.80881 7.78047H5.82731V8.99813C5.82731 10.6358 7.15969 11.9682 8.79736 11.9682C10.435 11.9682 11.7674 10.6358 11.7674 8.99813V7.78047H15.4282V8.99813C15.4282 10.6358 16.7606 11.9682 18.3983 11.9682C20.0359 11.9682 21.3683 10.6358 21.3683 8.99813V7.78047H25.0291V8.99813C25.0291 10.6358 26.3615 11.9682 27.9992 11.9682C29.6368 11.9682 30.9692 10.6358 30.9692 8.99813V7.78047H34.6299V8.99813C34.6299 10.6358 35.9623 11.9682 37.6 11.9682C39.2376 11.9682 40.57 10.6358 40.57 8.99813V7.78047H44.2308V8.99813C44.2308 10.6358 45.5632 11.9682 47.2009 11.9682C48.8385 11.9682 50.1709 10.6358 50.1709 8.99813V7.78047H51.1894C52.1529 7.78047 52.9366 8.56424 52.9366 9.52769V15.6284H16.9054C16.4494 15.6284 16.0796 15.998 16.0796 16.4541C16.0796 16.9103 16.4494 17.2799 16.9054 17.2799H52.9362V52.6013C52.9362 53.5648 52.1524 54.3486 51.189 54.3486H39.7439C39.6354 54.3486 39.528 54.3699 39.4279 54.4114C39.3277 54.4529 39.2366 54.5137 39.16 54.5904C39.0833 54.6671 39.0225 54.7581 38.981 54.8583C38.9395 54.9585 38.9181 55.0658 38.9181 55.1743C38.9181 55.3933 39.0051 55.6033 39.16 55.7582C39.3148 55.913 39.5249 56 39.7439 56H51.1889C53.0628 56 54.5875 54.4753 54.5875 52.6013V9.52769C54.5875 7.65375 53.0628 6.12903 51.1889 6.12903ZM10.1159 8.99813C10.1159 9.7252 9.52444 10.3167 8.79725 10.3167C8.07018 10.3167 7.47864 9.7252 7.47864 8.99813V2.97005C7.47875 2.24298 8.07029 1.65144 8.79736 1.65144C9.52444 1.65144 10.116 2.24298 10.116 2.97005L10.1159 8.99813ZM19.7167 8.99813C19.7167 9.7252 19.1251 10.3167 18.398 10.3167C17.671 10.3167 17.0794 9.7252 17.0794 8.99813V2.97005C17.0794 2.24298 17.671 1.65144 18.398 1.65144C19.1251 1.65144 19.7167 2.24298 19.7167 2.97005V8.99813ZM29.3175 8.99813C29.3175 9.7252 28.7259 10.3167 27.9988 10.3167C27.2718 10.3167 26.6802 9.7252 26.6802 8.99813V2.97005C26.6802 2.24298 27.2718 1.65144 27.9988 1.65144C28.7259 1.65144 29.3175 2.24298 29.3175 2.97005V8.99813ZM38.9181 8.99813C38.9181 9.7252 38.3266 10.3167 37.5995 10.3167C36.8726 10.3167 36.2809 9.7252 36.2809 8.99813V2.97005C36.2809 2.24298 36.8725 1.65144 37.5995 1.65144C38.3266 1.65144 38.9181 2.24298 38.9181 2.97005V8.99813ZM48.5189 8.99813C48.5189 9.7252 47.9274 10.3167 47.2003 10.3167C46.4734 10.3167 45.8817 9.7252 45.8817 8.99813V2.97005C45.8817 2.24298 46.4732 1.65144 47.2003 1.65144C47.9274 1.65144 48.5189 2.24298 48.5189 2.97005V8.99813Z" fill="#21409C"/>
</svg>
