<svg width="57" height="56" viewBox="0 0 57 56" fill="none" xmlns="http://www.w3.org/2000/svg">
<g clip-path="url(#clip0_3741_439)">
<path d="M28.4992 6.99487C23.8604 6.99487 20.0996 10.7554 20.0996 15.3946C20.0996 20.0335 23.8604 23.7939 28.4992 23.7939C33.1381 23.7939 36.8989 20.0335 36.8989 15.3946C36.8939 10.7575 33.136 6.9999 28.4992 6.99487ZM28.4992 21.9274C24.8913 21.9274 21.9661 19.0025 21.9661 15.3947C21.9661 11.7863 24.8913 8.8615 28.4992 8.8615C32.1072 8.8615 35.0324 11.7863 35.0324 15.3946C35.0281 19.0009 32.1055 21.9235 28.4992 21.9273V21.9274Z" fill="#21409C"/>
<path d="M28.4986 10.728C25.9216 10.728 23.832 12.8172 23.832 15.3946C23.832 17.9717 25.9217 20.0608 28.4986 20.0608C31.0756 20.0608 33.1653 17.9717 33.1653 15.3946C33.1623 12.8184 31.0744 10.7311 28.4986 10.728ZM28.4986 18.1943C26.9525 18.1943 25.6985 16.9408 25.6985 15.3946C25.6985 13.8481 26.9525 12.5946 28.4986 12.5946C30.0448 12.5946 31.2987 13.848 31.2987 15.3946C31.297 16.9404 30.0443 18.1925 28.4986 18.1943Z" fill="#21409C"/>
<path d="M42.4981 20.0608C43.5286 20.0599 44.3634 19.2248 44.3646 18.1943V12.5945C44.3634 11.5642 43.5286 10.7293 42.4981 10.728H39.6971C39.2993 9.76253 38.7752 8.85403 38.1386 8.02625L39.5331 5.60807C39.6575 5.39603 39.7387 5.16147 39.7721 4.9179C39.8055 4.67434 39.7903 4.42657 39.7276 4.18888C39.6646 3.95125 39.5554 3.72838 39.4062 3.53307C39.2569 3.33776 39.0705 3.17386 38.8577 3.05077L34.0053 0.250566L33.9959 0.245863C33.1042 -0.26085 31.9708 0.048559 31.4603 0.937958L30.0624 3.36128C29.0238 3.22926 27.9727 3.22926 26.9342 3.36128L25.5419 0.946927C25.0295 0.0516215 23.889 -0.259865 22.9921 0.250675L18.1372 3.05241C17.9252 3.17546 17.7395 3.33908 17.5907 3.53393C17.442 3.72879 17.3331 3.95105 17.2703 4.18801C17.2076 4.42494 17.1922 4.67192 17.225 4.91481C17.2579 5.15769 17.3383 5.39172 17.4617 5.60348L18.8587 8.02625C18.2221 8.85403 17.6981 9.76253 17.3002 10.728H14.4993C13.4688 10.7293 12.634 11.5642 12.6328 12.5946V18.1943C12.634 19.2248 13.4688 20.0599 14.4993 20.0608H17.3003C17.6982 21.0264 18.2222 21.9351 18.8588 22.763L17.4644 25.1808C17.34 25.3928 17.2587 25.6274 17.2253 25.8709C17.192 26.1145 17.2071 26.3623 17.2699 26.5999C17.3326 26.8376 17.4418 27.0606 17.5911 27.2559C17.7404 27.4512 17.9268 27.6151 18.1397 27.7381L23.0012 30.5429C23.2821 30.7014 23.5992 30.7846 23.9218 30.7842C24.2496 30.7861 24.5719 30.7006 24.8557 30.5365C25.1394 30.3724 25.3744 30.1357 25.5363 29.8508L26.9342 27.4271C27.9727 27.5596 29.0239 27.5596 30.0624 27.4271L31.4551 29.8422C31.9678 30.7376 33.1085 31.0487 34.0053 30.5378L38.8602 27.7364C39.0723 27.6134 39.258 27.4498 39.4067 27.2549C39.5555 27.0601 39.6643 26.8378 39.7271 26.6008C39.7898 26.3638 39.8052 26.1168 39.7724 25.8739C39.7395 25.6309 39.6591 25.3968 39.5357 25.185L38.1387 22.763C38.7753 21.9351 39.2994 21.0264 39.6973 20.0608H42.4981ZM38.1725 18.8219C37.7581 20.0114 37.1234 21.1123 36.3016 22.0671C36.176 22.2137 36.0989 22.3956 36.0811 22.5878C36.0633 22.7801 36.1056 22.9731 36.2021 23.1402L37.9251 26.1215L33.0782 28.9185L31.3607 25.9412C31.2645 25.7741 31.1189 25.641 30.9439 25.5601C30.769 25.4792 30.5732 25.4545 30.3836 25.4895C29.1374 25.7168 27.8604 25.7168 26.6143 25.4895C26.4247 25.4543 26.2288 25.4788 26.0538 25.5597C25.8787 25.6406 25.7331 25.7739 25.6372 25.9412L23.9256 28.9216L19.0783 26.1181L20.7954 23.1407C20.8919 22.9735 20.9342 22.7805 20.9165 22.5883C20.8987 22.3961 20.8218 22.2142 20.6962 22.0675C19.8741 21.113 19.2393 20.012 18.8249 18.8223C18.7614 18.639 18.6424 18.48 18.4844 18.3674C18.3264 18.2549 18.1372 18.1943 17.9432 18.1943H14.4993V12.5945H17.9432C18.1371 12.5945 18.3262 12.534 18.4841 12.4215C18.6421 12.3091 18.7611 12.1502 18.8246 11.967C19.2394 10.7775 19.8743 9.67675 20.6962 8.72217C20.8218 8.57547 20.8988 8.39346 20.9166 8.2012C20.9344 8.00893 20.8922 7.81587 20.7958 7.64859L19.0724 4.66738L23.9193 1.87034L25.6367 4.84773C25.7325 5.0152 25.878 5.14867 26.0531 5.22958C26.2283 5.3105 26.4242 5.33483 26.6138 5.29921C27.86 5.07236 29.137 5.07236 30.3832 5.29921C30.5728 5.33443 30.7686 5.30995 30.9437 5.22914C31.1188 5.14833 31.2645 5.01518 31.3607 4.84806L33.0717 1.87121H33.0735L33.0789 1.87242L37.9186 4.67208L36.2017 7.64947C36.1051 7.81662 36.0628 8.00959 36.0806 8.20179C36.0983 8.39399 36.1753 8.57596 36.3008 8.72261C37.1227 9.67731 37.7575 10.7782 38.1721 11.9678C38.2358 12.151 38.355 12.3098 38.5131 12.4221C38.6712 12.5344 38.8603 12.5947 39.0543 12.5945H42.4981V18.1943H39.0543C38.8603 18.1943 38.6711 18.2547 38.5131 18.3672C38.355 18.4797 38.236 18.6386 38.1724 18.8219H38.1725Z" fill="#21409C"/>
<path d="M3.3001 53.6597H7.96627C8.35788 53.6586 8.74485 53.5749 9.10189 53.4141C9.45893 53.2532 9.77802 53.0188 10.0383 52.7262H33.4453C34.8146 52.7266 36.1576 52.35 37.3271 51.6377L54.8216 40.9886C55.2371 40.7355 55.5952 40.3984 55.8729 39.9988C56.1505 39.5992 56.3416 39.146 56.4339 38.6683C56.5261 38.2054 56.5219 37.7284 56.4214 37.2672C56.3209 36.806 56.1263 36.3705 55.8499 35.9879C55.8334 35.9604 55.8154 35.9337 55.7961 35.908C55.3571 35.3213 54.7443 34.8878 54.0448 34.6693C53.3453 34.4508 52.5947 34.4583 51.8998 34.6907L34.6244 40.4494C34.3385 40.5444 34.0392 40.5929 33.7379 40.593H33.2017C33.4208 39.9932 33.5033 39.352 33.4432 38.7162C33.3831 38.0805 33.1819 37.4661 32.8544 36.918L32.7707 36.7787C32.2708 35.9515 31.5664 35.2669 30.7253 34.7908C29.8842 34.3147 28.9347 34.0631 27.9682 34.0602H23.087C21.3654 34.0582 19.6952 33.4723 18.3496 32.3983C16.6721 31.0602 14.5907 30.3301 12.4449 30.3271H10.5941C10.4024 29.7828 10.0468 29.3111 9.57632 28.9769C9.10581 28.6427 8.54339 28.4624 7.96627 28.4606H3.3001C1.75437 28.4623 0.50175 29.7149 0.5 31.2607V50.8597C0.50175 52.4054 1.75437 53.6581 3.3001 53.6597ZM17.1828 33.856C18.8599 35.1942 20.9411 35.9242 23.0866 35.9268H27.9678C28.6121 35.9286 29.245 36.0962 29.8057 36.4135C30.3664 36.7309 30.8359 37.1872 31.1691 37.7387L31.2532 37.8779C31.5022 38.2932 31.622 38.7732 31.5973 39.2568C31.5725 39.7404 31.4044 40.2057 31.1143 40.5935H25.442C23.5991 40.5921 21.7973 41.1377 20.2649 42.1613L19.5813 42.6171C19.3753 42.7545 19.2324 42.968 19.1839 43.2107C19.1353 43.4535 19.1852 43.7055 19.3226 43.9115C19.4599 44.1174 19.6734 44.2604 19.9162 44.3089C20.1589 44.3574 20.411 44.3075 20.6169 44.1702L21.3005 43.7143C22.5263 42.8952 23.9677 42.4586 25.442 42.4599H33.7374C34.2394 42.4599 34.738 42.3793 35.2139 42.2207L52.4902 36.4625C52.799 36.3561 53.1329 36.3462 53.4476 36.4339C53.7623 36.5216 54.0429 36.703 54.2521 36.9538C54.2683 36.9812 54.2867 37.0072 54.3055 37.0333C54.4413 37.2145 54.5377 37.4221 54.5886 37.6428C54.6396 37.8634 54.6438 38.0922 54.6011 38.3146C54.5584 38.5369 54.4697 38.7478 54.3406 38.9338C54.2116 39.1198 54.0451 39.2768 53.8518 39.3946L36.3573 50.0436C35.4797 50.5772 34.4724 50.8595 33.4453 50.8595H10.7663V32.1938H12.4449C14.1668 32.196 15.837 32.7821 17.1828 33.8561V33.856ZM2.36651 31.2607C2.36675 31.0131 2.46518 30.7758 2.64021 30.6008C2.81524 30.4258 3.05257 30.3273 3.3001 30.3271H7.96627C8.21377 30.3273 8.45105 30.4258 8.62605 30.6008C8.80106 30.7758 8.89949 31.0131 8.89975 31.2606V50.8597C8.89931 51.3749 8.48152 51.7923 7.96627 51.7928H3.3001C2.78485 51.7923 2.36695 51.375 2.36651 50.8597V31.2607Z" fill="#21409C"/>
</g>
<defs>
<clipPath id="clip0_3741_439">
<rect width="56" height="56" fill="white" transform="translate(0.5)"/>
</clipPath>
</defs>
</svg>
