<svg width="53" height="57" viewBox="0 0 53 57" fill="none" xmlns="http://www.w3.org/2000/svg">
<path fill-rule="evenodd" clip-rule="evenodd" d="M48.0007 27.2544C47.7588 27.2951 47.5429 27.4303 47.4006 27.6303C47.2583 27.8302 47.2012 28.0784 47.242 28.3204C47.4418 29.5048 47.5436 30.6985 47.5436 31.8682C47.5436 38.39 44.638 44.2771 39.9521 48.1968C39.5615 45.6309 38.4533 43.2276 36.7554 41.2645C35.0575 39.3013 32.8391 37.8583 30.3562 37.1019C31.3725 36.4275 32.2063 35.5123 32.7833 34.4377C33.3603 33.3631 33.6627 32.1625 33.6634 30.9428C33.6634 26.8602 30.3433 23.54 26.2606 23.54C22.178 23.54 18.8579 26.8602 18.8579 30.9428C18.8579 33.5116 20.1737 35.7731 22.165 37.1019C19.6822 37.8583 17.4638 39.3013 15.7659 41.2645C14.068 43.2276 12.9598 45.6309 12.5692 48.1968C10.184 46.1982 8.26759 43.6994 6.95568 40.8776C5.64376 38.0558 4.96847 34.98 4.97765 31.8682C4.97765 30.6985 5.07944 29.5067 5.27931 28.3204C5.30159 28.1997 5.29964 28.0757 5.27356 27.9558C5.24748 27.8359 5.1978 27.7223 5.12741 27.6217C5.05702 27.5212 4.96733 27.4356 4.86356 27.3701C4.75978 27.3045 4.64401 27.2603 4.52296 27.2399C4.40192 27.2195 4.27804 27.2234 4.15852 27.2514C4.039 27.2793 3.92624 27.3308 3.82681 27.4028C3.72737 27.4747 3.64325 27.5658 3.57934 27.6706C3.51542 27.7754 3.473 27.8918 3.45453 28.0132C3.23839 29.2868 3.12882 30.5763 3.12695 31.8682C3.12695 43.2314 11.2441 52.8236 22.426 54.6743C22.6638 54.705 22.9043 54.6423 23.0967 54.4993C23.2892 54.3562 23.4186 54.1441 23.4577 53.9075C23.4968 53.6709 23.4426 53.4284 23.3064 53.231C23.1702 53.0337 22.9627 52.8969 22.7277 52.8495C19.7042 52.35 16.825 51.2009 14.2885 49.4812C14.7308 43.2018 19.8942 38.3456 26.2606 38.3456C32.627 38.3456 37.7886 43.2018 38.2346 49.4812C35.6976 51.2011 32.8177 52.3503 29.7936 52.8495C29.6704 52.8654 29.5516 52.906 29.4444 52.9689C29.3372 53.0317 29.2438 53.1155 29.1697 53.2152C29.0955 53.3149 29.0423 53.4286 29.013 53.5493C28.9838 53.6701 28.9791 53.7955 28.9994 53.9181C29.0197 54.0407 29.0644 54.1579 29.131 54.2629C29.1975 54.3678 29.2845 54.4582 29.3868 54.5288C29.4891 54.5994 29.6045 54.6486 29.7262 54.6736C29.848 54.6986 29.9735 54.6988 30.0953 54.6743C41.2772 52.8236 49.3943 43.2333 49.3943 31.8682C49.3943 30.5949 49.2833 29.2975 49.0667 28.0132C49.047 27.8931 49.0037 27.7782 48.9394 27.675C48.875 27.5718 48.7909 27.4823 48.6918 27.4118C48.5927 27.3412 48.4806 27.291 48.362 27.264C48.2434 27.237 48.1206 27.2337 48.0007 27.2544ZM20.7086 30.9428C20.7086 27.8818 23.1996 25.3907 26.2606 25.3907C29.3217 25.3907 31.8127 27.8818 31.8127 30.9428C31.8127 34.0039 29.3217 36.4949 26.2606 36.4949C23.1996 36.4949 20.7086 34.0039 20.7086 30.9428ZM36.395 8.69561C36.3418 8.53106 36.2436 8.38472 36.1114 8.27317C35.9793 8.16162 35.8185 8.08934 35.6474 8.06453L29.7344 7.2058L27.0897 1.84619C26.7788 1.21696 25.7424 1.21696 25.4315 1.84619L22.7869 7.2058L16.8739 8.06453C16.703 8.08935 16.5424 8.1615 16.4104 8.27283C16.2784 8.38415 16.1801 8.53021 16.1268 8.69447C16.0734 8.85873 16.0671 9.03464 16.1086 9.2023C16.15 9.36996 16.2375 9.52267 16.3613 9.64317L20.6401 13.8128L19.6296 19.7017C19.6003 19.872 19.6193 20.0471 19.6844 20.2071C19.7495 20.3672 19.8581 20.5058 19.998 20.6074C20.1378 20.7089 20.3033 20.7692 20.4756 20.7815C20.648 20.7938 20.8204 20.7576 20.9732 20.677L26.2606 17.8954L31.5481 20.677C31.7006 20.7588 31.8733 20.7956 32.0459 20.7832C32.2186 20.7707 32.3841 20.7095 32.5234 20.6067C32.6634 20.5051 32.7721 20.3662 32.8372 20.2059C32.9023 20.0456 32.9212 19.8703 32.8917 19.6998L31.8812 13.8146L36.1618 9.64132C36.2855 9.52098 36.373 9.36849 36.4145 9.20106C36.456 9.03362 36.4499 8.85791 36.3969 8.69376L36.395 8.69561ZM30.2396 12.8245C30.1321 12.9294 30.0517 13.0588 30.0053 13.2016C29.9589 13.3444 29.9478 13.4963 29.9731 13.6444L30.7504 18.1656L26.69 16.0299C26.5569 15.9605 26.4089 15.9243 26.2588 15.9243C26.1086 15.9243 25.9607 15.9605 25.8276 16.0299L21.769 18.1656L22.5444 13.6444C22.5697 13.4963 22.5587 13.3444 22.5123 13.2016C22.4658 13.0588 22.3854 12.9294 22.2779 12.8245L18.9948 9.62466L23.5327 8.96582C23.6809 8.94406 23.8216 8.88673 23.9428 8.79875C24.0639 8.71076 24.162 8.59473 24.2286 8.46058L26.2606 4.34833L28.2908 8.46243C28.3574 8.59658 28.4555 8.71261 28.5767 8.8006C28.6978 8.88858 28.8385 8.94591 28.9867 8.96767L33.5246 9.62651L30.2415 12.8264L30.2396 12.8245Z" fill="#21409C"/>
<path fill-rule="evenodd" clip-rule="evenodd" d="M4.11618 23.5827C4.08648 23.7531 4.10516 23.9284 4.17009 24.0888C4.23503 24.2492 4.34361 24.3881 4.48353 24.4899C4.62345 24.5916 4.78909 24.6521 4.96165 24.6645C5.13421 24.6768 5.30679 24.6406 5.45978 24.5598L9.60349 22.3797L13.749 24.5598C13.9014 24.6413 14.0737 24.6779 14.2459 24.6654C14.4182 24.653 14.5835 24.592 14.7225 24.4895C14.8625 24.3879 14.9713 24.249 15.0364 24.0888C15.1015 23.9285 15.1203 23.7531 15.0908 23.5827L14.2987 18.9689L17.6522 15.7024C17.7764 15.582 17.8644 15.4291 17.9062 15.2612C17.948 15.0933 17.9418 14.917 17.8884 14.7524C17.835 14.5878 17.7365 14.4415 17.6042 14.33C17.4718 14.2186 17.3108 14.1465 17.1395 14.1219L12.5054 13.4501L10.4326 9.24903C10.1217 8.61979 9.08529 8.61979 8.77438 9.24903L6.7016 13.4501L2.06746 14.1219C1.89617 14.1465 1.7352 14.2186 1.60282 14.33C1.47044 14.4415 1.37197 14.5878 1.31858 14.7524C1.26519 14.917 1.25903 15.0933 1.30079 15.2612C1.34254 15.4291 1.43055 15.582 1.55482 15.7024L4.90828 18.9689L4.11618 23.5827ZM4.19021 15.6857L7.44743 15.212C7.59593 15.1905 7.737 15.1333 7.85852 15.0453C7.98005 14.9573 8.0784 14.8411 8.14514 14.7067L9.60349 11.7512L11.0618 14.7067C11.1284 14.8409 11.2265 14.9569 11.3477 15.0449C11.4688 15.1329 11.6095 15.1902 11.7577 15.212L15.0168 15.6857L12.659 17.9825C12.5515 18.0873 12.4711 18.2167 12.4247 18.3595C12.3782 18.5023 12.3672 18.6543 12.3925 18.8023L12.9495 22.0484L10.0347 20.5161C9.90156 20.4466 9.75364 20.4104 9.60349 20.4104C9.45334 20.4104 9.30542 20.4466 9.17228 20.5161L6.25743 22.0484L6.81264 18.8023C6.83817 18.6544 6.82742 18.5026 6.78132 18.3598C6.73522 18.217 6.65516 18.0875 6.54799 17.9825L4.19021 15.6857ZM50.452 14.1219L45.8179 13.4501L43.7451 9.24903C43.4342 8.61979 42.3978 8.61979 42.0869 9.24903L40.0141 13.4501L35.38 14.1219C35.2087 14.1465 35.0477 14.2186 34.9153 14.33C34.7829 14.4415 34.6845 14.5878 34.6311 14.7524C34.5777 14.917 34.5715 15.0933 34.6133 15.2612C34.655 15.4291 34.7431 15.582 34.8673 15.7024L38.2208 18.9689L37.4287 23.5827C37.399 23.7531 37.4177 23.9284 37.4826 24.0888C37.5475 24.2492 37.6561 24.3881 37.796 24.4899C37.9359 24.5916 38.1016 24.6521 38.2741 24.6645C38.4467 24.6768 38.6193 24.6406 38.7723 24.5598L42.916 22.3797L47.0615 24.5598C47.2139 24.6413 47.3862 24.6779 47.5584 24.6654C47.7307 24.653 47.896 24.592 48.035 24.4895C48.175 24.3879 48.2838 24.249 48.3489 24.0888C48.414 23.9285 48.4328 23.7531 48.4033 23.5827L47.6112 18.9689L50.9647 15.7024C51.0889 15.582 51.1769 15.4291 51.2187 15.2612C51.2605 15.0933 51.2543 14.917 51.2009 14.7524C51.1475 14.5878 51.049 14.4415 50.9167 14.33C50.7843 14.2186 50.6233 14.1465 50.452 14.1219ZM45.9715 17.9825C45.864 18.0873 45.7836 18.2167 45.7372 18.3595C45.6907 18.5023 45.6797 18.6543 45.705 18.8023L46.262 22.0484L43.3472 20.5161C43.2141 20.4466 43.0661 20.4104 42.916 20.4104C42.7658 20.4104 42.6179 20.4466 42.4848 20.5161L39.5699 22.0484L40.1251 18.8023C40.1507 18.6544 40.1399 18.5026 40.0938 18.3598C40.0477 18.217 39.9677 18.0875 39.8605 17.9825L37.5027 15.6857L40.7599 15.212C40.9084 15.1905 41.0495 15.1333 41.171 15.0453C41.2925 14.9573 41.3909 14.8411 41.4576 14.7067L42.916 11.7512L44.3743 14.7067C44.4409 14.8409 44.539 14.9569 44.6602 15.0449C44.7813 15.1329 44.922 15.1902 45.0702 15.212L48.3293 15.6857L45.9715 17.9825Z" fill="#21409C"/>
<path d="M26.2593 55.0018C26.7704 55.0018 27.1847 54.5875 27.1847 54.0765C27.1847 53.5654 26.7704 53.1511 26.2593 53.1511C25.7483 53.1511 25.334 53.5654 25.334 54.0765C25.334 54.5875 25.7483 55.0018 26.2593 55.0018Z" fill="#21409C"/>
</svg>
