<svg width="56" height="56" viewBox="0 0 56 56" fill="none" xmlns="http://www.w3.org/2000/svg">
<path d="M40.712 36.3355L39.825 34.3384C40.383 33.3593 40.8163 32.3142 41.1148 31.2275L43.1526 30.4431C43.3177 30.3796 43.4596 30.2675 43.5596 30.1218C43.6597 29.976 43.7133 29.8033 43.7133 29.6265V25.6104C43.7133 25.4335 43.6597 25.2609 43.5596 25.1151C43.4596 24.9693 43.3177 24.8573 43.1526 24.7938L41.1155 24.0097C40.817 22.9226 40.3836 21.8771 39.8253 20.8977L40.712 18.9015C40.7838 18.7399 40.805 18.5603 40.7726 18.3864C40.7403 18.2126 40.6561 18.0526 40.531 17.9275L37.691 15.0877C37.566 14.9627 37.406 14.8785 37.2322 14.8462C37.0583 14.8139 36.8788 14.8351 36.7172 14.9068L34.7203 15.7937C33.7411 15.2357 32.696 14.8024 31.6093 14.504L30.8249 12.4662C30.7613 12.3012 30.6493 12.1593 30.5035 12.0592C30.3578 11.9591 30.1851 11.9056 30.0083 11.9056H25.9922C25.8154 11.9056 25.6427 11.9591 25.497 12.0592C25.3512 12.1593 25.2392 12.3012 25.1757 12.4662L24.3912 14.504C23.3045 14.8024 22.2594 15.2357 21.2803 15.7937L19.2832 14.9068C19.1216 14.835 18.942 14.8138 18.7681 14.8461C18.5943 14.8784 18.4343 14.9627 18.3093 15.0878L15.4694 17.9277C15.3444 18.0528 15.2602 18.2128 15.2279 18.3866C15.1956 18.5605 15.2167 18.74 15.2885 18.9016L16.1753 20.8984C15.6172 21.8776 15.1839 22.9228 14.8854 24.0097L12.8478 24.794C12.6828 24.8575 12.5409 24.9695 12.4408 25.1153C12.3407 25.2611 12.2871 25.4338 12.2871 25.6106V29.6267C12.2871 29.8035 12.3407 29.9762 12.4408 30.122C12.5409 30.2678 12.6828 30.3798 12.8478 30.4433L14.8851 31.2275C15.1836 32.3146 15.617 33.3601 16.1752 34.3395L15.2885 36.3357C15.2167 36.4973 15.1956 36.6768 15.2279 36.8507C15.2602 37.0245 15.3444 37.1845 15.4694 37.3095L18.3093 40.1495C18.4344 40.2745 18.5943 40.3587 18.7682 40.391C18.942 40.4232 19.1216 40.4021 19.2832 40.3304L21.2804 39.4435C22.2595 40.0014 23.3045 40.4347 24.3912 40.7332L25.1757 42.771C25.2392 42.936 25.3512 43.0779 25.497 43.178C25.6427 43.2781 25.8154 43.3316 25.9922 43.3316H30.0084C30.1852 43.3316 30.3579 43.2781 30.5037 43.178C30.6494 43.0779 30.7615 42.936 30.825 42.771L31.6091 40.7339C32.6962 40.4354 33.7416 40.0019 34.721 39.4437L36.7173 40.3304C36.8789 40.4022 37.0585 40.4233 37.2323 40.391C37.4062 40.3587 37.5662 40.2745 37.6912 40.1495L40.5311 37.3095C40.6561 37.1844 40.7403 37.0244 40.7726 36.8505C40.8048 36.6767 40.7837 36.4971 40.712 36.3355ZM39.5281 30.3704C39.2378 31.5899 38.7547 32.7552 38.0969 33.8223C38.0224 33.9434 37.9785 34.0807 37.969 34.2225C37.9595 34.3643 37.9846 34.5063 38.0423 34.6362L38.8687 36.4968L36.8786 38.487L35.0187 37.6609C34.8888 37.6032 34.7468 37.5781 34.605 37.5876C34.4632 37.5971 34.3258 37.641 34.2048 37.7155C33.1375 38.3735 31.9719 38.8568 30.7521 39.1469C30.6139 39.1798 30.4857 39.2458 30.3787 39.3394C30.2717 39.4329 30.1891 39.5511 30.1381 39.6838L29.4076 41.5814H26.5932L25.8624 39.6833C25.8114 39.5507 25.7288 39.4325 25.6218 39.339C25.5149 39.2454 25.3867 39.1794 25.2485 39.1465C24.029 38.8563 22.8636 38.3732 21.7965 37.7153C21.6755 37.6408 21.5381 37.5969 21.3963 37.5874C21.2545 37.5779 21.1125 37.603 20.9827 37.6608L19.122 38.4871L17.1318 36.4969L17.9579 34.6371C18.0156 34.5072 18.0408 34.3652 18.0312 34.2233C18.0217 34.0815 17.9778 33.9441 17.9032 33.8231C17.2452 32.7558 16.762 31.5902 16.4718 30.3704C16.4389 30.2321 16.3728 30.104 16.2793 29.997C16.1858 29.8901 16.0676 29.8075 15.935 29.7564L14.0372 29.0259V26.2114L15.9353 25.4808C16.068 25.4297 16.1862 25.3471 16.2797 25.2401C16.3732 25.1332 16.4393 25.005 16.4721 24.8667C16.7623 23.6471 17.2455 22.4818 17.9033 21.4146C17.9778 21.2936 18.0218 21.1562 18.0313 21.0144C18.0408 20.8726 18.0157 20.7306 17.958 20.6007L17.1318 18.7404L19.122 16.7501L20.9825 17.5764C21.1124 17.6341 21.2544 17.6593 21.3962 17.6497C21.538 17.6402 21.6754 17.5963 21.7964 17.5218C22.8635 16.8639 24.0289 16.3808 25.2484 16.0907C25.3866 16.0578 25.5148 15.9917 25.6217 15.8981C25.7287 15.8046 25.8113 15.6864 25.8623 15.5538L26.593 13.6556H29.4076L30.1383 15.5538C30.1894 15.6864 30.272 15.8046 30.3789 15.8981C30.4859 15.9917 30.614 16.0578 30.7522 16.0907C31.9718 16.3809 33.1371 16.864 34.2042 17.5218C34.3252 17.5963 34.4626 17.6402 34.6044 17.6497C34.7462 17.6592 34.8882 17.634 35.0181 17.5763L36.8786 16.7501L38.8689 18.7403L38.0427 20.6C37.9851 20.7299 37.9599 20.872 37.9694 21.0138C37.979 21.1556 38.0229 21.293 38.0974 21.4141C38.7554 22.4813 39.2386 23.6469 39.5287 24.8667C39.5616 25.005 39.6277 25.1331 39.7213 25.2401C39.8148 25.3471 39.933 25.4297 40.0656 25.4808L41.9633 26.2112V29.0257L40.0651 29.7564C39.9324 29.8074 39.8142 29.89 39.7206 29.997C39.6271 30.1039 39.561 30.2321 39.5281 30.3704ZM28.0003 18.668C23.0649 18.668 19.0498 22.683 19.0498 27.6184C19.0498 32.5537 23.0649 36.5689 28.0003 36.5689C32.9355 36.5689 36.9506 32.5537 36.9506 27.6184C36.9506 22.683 32.9355 18.668 28.0003 18.668ZM28.0003 34.8189C24.0298 34.8189 20.7998 31.5888 20.7998 27.6184C20.7998 23.6481 24.0298 20.418 28.0003 20.418C31.9706 20.418 35.2006 23.6481 35.2006 27.6184C35.2006 31.5888 31.9706 34.8189 28.0003 34.8189ZM31.4452 29.4033C31.5333 30.1283 31.3374 30.7918 30.8786 31.3223C30.4196 31.8529 29.7003 32.2278 28.8753 32.3829V32.7285C28.8753 32.9605 28.7831 33.1831 28.619 33.3472C28.4549 33.5113 28.2323 33.6035 28.0003 33.6035C27.7682 33.6035 27.5456 33.5113 27.3815 33.3472C27.2174 33.1831 27.1253 32.9605 27.1253 32.7285V32.3682C25.8436 32.0902 24.8628 31.2147 24.5606 30.0023C24.5045 29.7771 24.5401 29.5389 24.6597 29.34C24.7792 29.1411 24.9728 28.9978 25.198 28.9416C25.6669 28.8254 26.1418 29.11 26.2587 29.5789C26.4737 30.4419 27.3781 30.7302 28.0848 30.7114C28.7006 30.6967 29.2913 30.4821 29.5549 30.1774C29.6892 30.0221 29.7364 29.8483 29.7079 29.6141C29.6584 29.2062 29.4042 28.7052 27.8657 28.4527C25.4243 28.0518 24.8537 26.7679 24.8049 25.7613C24.7384 24.3914 25.6681 23.2429 27.1252 22.8836V22.5083C27.1252 22.2762 27.2173 22.0536 27.3814 21.8895C27.5455 21.7255 27.7681 21.6333 28.0002 21.6333C28.2322 21.6333 28.4548 21.7255 28.6189 21.8895C28.783 22.0536 28.8752 22.2762 28.8752 22.5083V22.8758C29.8195 23.0977 30.7136 23.7054 31.1843 24.8264C31.2288 24.9323 31.252 25.046 31.2525 25.1609C31.2531 25.2758 31.231 25.3897 31.1875 25.496C31.1441 25.6024 31.0801 25.6992 30.9992 25.7808C30.9184 25.8625 30.8222 25.9274 30.7163 25.9718C30.2714 26.1589 29.7579 25.9495 29.5708 25.5038C29.2049 24.6327 28.3082 24.409 27.5815 24.5738C27.4027 24.6144 26.513 24.8581 26.5528 25.6763C26.5634 25.8934 26.5914 26.4699 28.1493 26.7258C30.1607 27.0562 31.2697 27.9569 31.4452 29.4033ZM7.89243 18.5477L1.06327 9.89164C0.961418 9.76267 0.897952 9.60761 0.880149 9.44423C0.862345 9.28086 0.890925 9.11577 0.962612 8.96788C1.0343 8.82 1.1462 8.6953 1.28548 8.60807C1.42477 8.52084 1.58581 8.47462 1.75015 8.47469H3.45301V2.13159C3.45301 1.89953 3.5452 1.67697 3.70929 1.51287C3.87339 1.34878 4.09594 1.25659 4.32801 1.25659C4.56007 1.25659 4.78263 1.34878 4.94673 1.51287C5.11082 1.67697 5.20301 1.89953 5.20301 2.13159V9.3498C5.20301 9.58186 5.11082 9.80442 4.94673 9.96851C4.78263 10.1326 4.56007 10.2248 4.32801 10.2248H3.55506L8.57942 16.5932L13.6039 10.2248H12.8308C12.5988 10.2248 12.3762 10.1326 12.2121 9.96851C12.048 9.80442 11.9558 9.58186 11.9558 9.3498V2.13159C11.9558 1.89953 12.048 1.67697 12.2121 1.51287C12.3762 1.34878 12.5988 1.25659 12.8308 1.25659C13.0629 1.25659 13.2854 1.34878 13.4495 1.51287C13.6136 1.67697 13.7058 1.89953 13.7058 2.13159V8.4748H15.4088C15.5731 8.47481 15.7341 8.52109 15.8733 8.60833C16.0125 8.69558 16.1244 8.82026 16.1961 8.96812C16.2677 9.11597 16.2963 9.28101 16.2786 9.44436C16.2608 9.60771 16.1974 9.76275 16.0957 9.89175L9.2664 18.5477C9.18451 18.6515 9.08015 18.7355 8.96117 18.7932C8.84218 18.8509 8.71166 18.8808 8.57942 18.8808C8.44717 18.8808 8.31665 18.8509 8.19766 18.7932C8.07868 18.7355 7.97432 18.6515 7.89243 18.5477ZM54.937 45.7544L48.1079 54.4103C48.026 54.5141 47.9216 54.598 47.8027 54.6557C47.6837 54.7134 47.5532 54.7433 47.421 54.7433C47.2888 54.7433 47.1583 54.7134 47.0393 54.6557C46.9204 54.598 46.816 54.5141 46.7341 54.4103L39.9049 45.7544C39.803 45.6254 39.7395 45.4704 39.7217 45.307C39.7039 45.1436 39.7325 44.9785 39.8042 44.8306C39.8759 44.6828 39.9878 44.5581 40.1271 44.4708C40.2663 44.3836 40.4274 44.3374 40.5917 44.3374H42.2946V37.9943C42.2946 37.7623 42.3868 37.5397 42.5509 37.3756C42.715 37.2115 42.9375 37.1193 43.1696 37.1193C43.4017 37.1193 43.6242 37.2115 43.7883 37.3756C43.9524 37.5397 44.0446 37.7623 44.0446 37.9943V45.2124C44.0446 45.4445 43.9524 45.6671 43.7883 45.8312C43.6242 45.9953 43.4017 46.0874 43.1696 46.0874H42.3966L47.4211 52.4557L52.4455 46.0874H51.6725C51.4405 46.0874 51.2179 45.9953 51.0538 45.8312C50.8897 45.6671 50.7975 45.4445 50.7975 45.2124V37.9943C50.7975 37.7623 50.8897 37.5397 51.0538 37.3756C51.2179 37.2115 51.4405 37.1193 51.6725 37.1193C51.9046 37.1193 52.1271 37.2115 52.2912 37.3756C52.4553 37.5397 52.5475 37.7623 52.5475 37.9943V44.3374H54.2502C54.4145 44.3375 54.5754 44.3837 54.7147 44.471C54.8539 44.5582 54.9658 44.6829 55.0374 44.8308C55.1091 44.9786 55.1377 45.1437 55.1199 45.307C55.1022 45.4704 55.0388 45.6254 54.937 45.7544ZM18.2502 6.25547C18.1618 6.04094 18.1621 5.80004 18.2512 5.58578C18.3404 5.37151 18.511 5.20143 18.7255 5.11294C21.6716 3.89756 24.792 3.28123 28.0002 3.28123C34.5009 3.28123 40.6124 5.81272 45.2091 10.4094C49.8057 15.006 52.3373 21.1177 52.3373 27.6184C52.3373 27.963 52.33 28.3085 52.3153 28.6538L52.9012 27.8372C53.0365 27.6487 53.2412 27.5216 53.4702 27.484C53.6992 27.4463 53.9338 27.5012 54.1224 27.6365C54.3109 27.7718 54.438 27.9765 54.4756 28.2055C54.5133 28.4345 54.4584 28.669 54.3231 28.8576L51.7853 32.3941C51.6957 32.5189 51.5749 32.6178 51.4349 32.6811C51.295 32.7444 51.1409 32.7697 50.9881 32.7545C50.8352 32.7394 50.6891 32.6843 50.5643 32.5948C50.4395 32.5053 50.3405 32.3845 50.2771 32.2446L48.4832 28.2786C48.3882 28.0672 48.3808 27.8268 48.4628 27.61C48.5448 27.3932 48.7095 27.2179 48.9206 27.1224C49.1318 27.0268 49.3722 27.019 49.5891 27.1006C49.8061 27.1821 49.9818 27.3464 50.0777 27.5573L50.5645 28.6337C50.5797 28.2951 50.5873 27.9563 50.5873 27.6184C50.5873 15.1638 40.4547 5.03123 28.0002 5.03123C25.0221 5.03123 22.1262 5.60305 19.3929 6.73059C19.2867 6.77443 19.1728 6.79691 19.0579 6.79675C18.943 6.7966 18.8293 6.77381 18.7232 6.72969C18.6171 6.68557 18.5207 6.62098 18.4395 6.53962C18.3584 6.45825 18.2941 6.36169 18.2502 6.25547ZM37.4349 49.124C37.5203 49.3398 37.5164 49.5807 37.4241 49.7936C37.3319 50.0065 37.1588 50.1741 36.943 50.2594C34.0961 51.3849 31.0873 51.9556 28.0002 51.9556C21.4994 51.9556 15.3879 49.424 10.7912 44.8274C6.1946 40.2307 3.66301 34.1192 3.66301 27.6185C3.66301 26.4556 3.74537 25.2966 3.90877 24.1517L3.18187 24.9587C3.10497 25.0441 3.012 25.1135 2.90828 25.1629C2.80456 25.2124 2.69211 25.2409 2.57736 25.2469C2.34561 25.259 2.11853 25.1786 1.9461 25.0233C1.77366 24.868 1.66998 24.6505 1.65787 24.4188C1.64575 24.187 1.7262 23.96 1.88151 23.7875L4.79471 20.5532C4.89746 20.439 5.02847 20.3539 5.17456 20.3064C5.32065 20.2589 5.47667 20.2507 5.62692 20.2827C5.77717 20.3147 5.91635 20.3856 6.03046 20.4885C6.14458 20.5913 6.22959 20.7224 6.27696 20.8685L7.6214 25.0086C7.69075 25.2286 7.67037 25.4672 7.56469 25.6723C7.45901 25.8774 7.27659 26.0325 7.05713 26.1038C6.83768 26.1751 6.59895 26.1568 6.39292 26.0529C6.18689 25.949 6.03023 25.7679 5.95704 25.5491L5.62367 24.5228C5.4832 25.5488 5.41274 26.5831 5.41279 27.6186C5.41279 40.0732 15.5454 50.2057 27.9999 50.2057C30.8658 50.2057 33.6581 49.6763 36.2993 48.6322C36.4062 48.5899 36.5203 48.5691 36.6352 48.5709C36.7501 48.5727 36.8636 48.5972 36.969 48.6429C37.0745 48.6885 37.1699 48.7545 37.2498 48.8371C37.3298 48.9196 37.3927 49.0171 37.4349 49.124Z" fill="#21409C"/>
</svg>
