<svg width="54" height="54" viewBox="0 0 54 54" fill="none" xmlns="http://www.w3.org/2000/svg">
<path d="M26.8347 2.1587C26.7163 2.15805 26.5991 2.18287 26.4911 2.23147C26.3831 2.28007 26.2868 2.35133 26.2087 2.4404L20.4182 9.06345C20.3131 9.18304 20.2445 9.33038 20.2209 9.48787C20.1972 9.64536 20.2193 9.80634 20.2847 9.95157C20.3501 10.0968 20.4558 10.2202 20.5894 10.3069C20.723 10.3936 20.8787 10.44 21.038 10.4406H23.5326L23.5889 14.591C23.5906 14.6999 23.6136 14.8075 23.6568 14.9075C23.7 15.0075 23.7625 15.098 23.8407 15.1738C23.9189 15.2497 24.0112 15.3094 24.1125 15.3496C24.2138 15.3897 24.322 15.4096 24.4309 15.4079C24.5398 15.4063 24.6473 15.3832 24.7473 15.34C24.8473 15.2968 24.9379 15.2343 25.0137 15.1561C25.0896 15.0779 25.1493 14.9856 25.1895 14.8843C25.2296 14.7831 25.2494 14.6749 25.2478 14.566L25.1789 9.6018C25.1765 9.38399 25.0884 9.17589 24.9338 9.02246C24.7792 8.86902 24.5704 8.78256 24.3526 8.78175H22.8659L26.8347 4.2464L30.8004 8.78488H29.3168C29.0973 8.78571 28.8872 8.87346 28.7323 9.02892C28.5774 9.18438 28.4905 9.39488 28.4905 9.61432L28.503 14.5785C28.503 14.7985 28.5904 15.0094 28.7459 15.165C28.9015 15.3205 29.1124 15.4079 29.3324 15.4079C29.5524 15.4079 29.7634 15.3205 29.9189 15.165C30.0745 15.0094 30.1619 14.7985 30.1619 14.5785L30.1494 10.4406H32.6283C33.3419 10.4406 33.7238 9.59867 33.2543 9.06345L27.4576 2.4404C27.3794 2.35149 27.2831 2.28034 27.1751 2.23175C27.0671 2.18317 26.95 2.15826 26.8316 2.1587H26.8347ZM9.43826 7.94917C9.23987 7.95143 9.04887 8.02472 8.8999 8.15575L2.27373 13.9587C2.18468 14.0366 2.11332 14.1326 2.06443 14.2403C2.01553 14.348 1.99023 14.4649 1.99023 14.5832C1.99023 14.7014 2.01553 14.8184 2.06443 14.9261C2.11332 15.0338 2.18468 15.1298 2.27373 15.2076L8.8999 21.0012C9.432 21.4707 10.2771 21.092 10.2771 20.3752V17.8963H13.5824C14.5151 17.8963 15.235 18.6193 15.235 19.5551V31.1423C15.235 31.3623 15.3224 31.5733 15.4779 31.7289C15.6335 31.8844 15.8444 31.9718 16.0644 31.9718C16.2844 31.9718 16.4954 31.8844 16.6509 31.7289C16.8065 31.5733 16.8939 31.3623 16.8939 31.1423V19.5489C16.8939 17.7272 15.404 16.2374 13.5824 16.2374H9.44139C9.22332 16.2382 9.01442 16.3252 8.86022 16.4794C8.70602 16.6336 8.61903 16.8425 8.6182 17.0606V18.5536L4.07973 14.5785L8.6182 10.6034V12.0964C8.6182 12.5534 8.98754 12.9196 9.44139 12.9227H15.235C15.8889 12.919 16.5371 13.045 17.142 13.2934C17.7469 13.5418 18.2965 13.9078 18.759 14.37C19.2216 14.8323 19.5878 15.3816 19.8366 15.9864C20.0855 16.5911 20.2118 17.2392 20.2085 17.8931V25.3425C20.2085 27.0076 20.8283 28.5319 21.8455 29.6932C19.1116 30.8924 16.9006 33.0356 15.6168 35.7309C14.9404 34.7232 14.0282 33.8959 12.9595 33.3208C13.357 32.6854 13.5855 31.9374 13.5855 31.1392C13.5855 28.8637 11.7231 27.0014 9.44452 27.0014C7.16902 27.0014 5.30981 28.8637 5.30981 31.1392C5.30981 31.9374 5.53517 32.6854 5.92955 33.3208C4.73612 33.9661 3.73982 34.9226 3.04651 36.0888C2.3532 37.2549 1.9888 38.5872 1.99203 39.9439V41.055C1.99203 43.3461 3.84811 45.2179 6.12987 45.2179H12.7592C13.3476 45.2179 13.9079 45.0958 14.4149 44.8736V48.5357C14.4149 49.5279 14.7279 50.5075 15.4854 51.1492C16.2428 51.7908 17.3321 51.9943 18.6467 51.7376L26.8316 49.5341L35.0259 51.7376C36.3217 51.988 37.4266 51.7877 38.184 51.1492C38.9415 50.5107 39.2576 49.5404 39.2576 48.5513V44.8736C39.7678 45.0958 40.3281 45.2179 40.9165 45.2179H47.5427C49.8244 45.2179 51.6805 43.3461 51.6805 41.055V39.9439C51.6805 37.0799 50.0905 34.5853 47.743 33.3208C48.1374 32.6854 48.369 31.9374 48.369 31.1392C48.369 28.8637 46.5035 27.0014 44.228 27.0014C41.9494 27.0014 40.0808 28.8637 40.0808 31.1392C40.0808 31.9405 40.3124 32.6886 40.7099 33.3239C39.6427 33.8986 38.7316 34.7248 38.0557 35.7309C36.7714 33.0368 34.5605 30.8947 31.827 29.6963C32.8474 28.5319 33.464 27.0045 33.464 25.3456V17.8931C33.464 15.1262 35.6613 12.9227 38.4282 12.9227H44.228C44.4466 12.9219 44.656 12.8345 44.8103 12.6796C44.9646 12.5247 45.0512 12.315 45.0512 12.0964V10.6097L49.5897 14.5847L45.0512 18.5567V17.0574C45.0504 16.8394 44.9634 16.6305 44.8092 16.4763C44.655 16.3221 44.4461 16.2351 44.228 16.2342H40.0808C39.2047 16.2384 38.3657 16.5889 37.7471 17.2093C37.1284 17.8297 36.7803 18.6696 36.7787 19.5458V30.3129C36.7787 30.7667 37.148 31.1361 37.6018 31.1361C37.8205 31.1361 38.0302 31.0495 38.185 30.8952C38.3399 30.7409 38.4273 30.5315 38.4282 30.3129V19.5458C38.4282 18.613 39.1481 17.8869 40.0808 17.89H43.3986V20.3721C43.3954 21.0857 44.2343 21.4676 44.7726 20.9981L51.3988 15.2013C51.4879 15.1235 51.5592 15.0275 51.6081 14.9198C51.657 14.8121 51.6823 14.6952 51.6823 14.5769C51.6823 14.4586 51.657 14.3417 51.6081 14.234C51.5592 14.1263 51.4879 14.0303 51.3988 13.9525L44.7726 8.15575C44.6526 8.05023 44.5047 7.98161 44.3467 7.95815C44.1886 7.93469 44.0271 7.95738 43.8817 8.02351C43.7362 8.08963 43.6129 8.19636 43.5267 8.33088C43.4404 8.46539 43.3948 8.62196 43.3954 8.78175V11.2638H38.425C34.7692 11.2638 31.8051 14.2342 31.8051 17.89V20.9668C31.1841 20.2601 30.4196 19.694 29.5625 19.3061C28.7054 18.9183 27.7755 18.7177 26.8347 18.7177C25.8939 18.7177 24.964 18.9183 24.1069 19.3061C23.2498 19.694 22.4853 20.2601 21.8643 20.9668V17.89C21.8626 16.1334 21.1639 14.4493 19.9215 13.2075C18.6791 11.9657 16.9947 11.2678 15.2381 11.267H10.2771V8.78175C10.2775 8.67191 10.256 8.56309 10.2139 8.46165C10.1718 8.36021 10.1099 8.26818 10.0318 8.19095C9.95368 8.11372 9.86096 8.05284 9.75905 8.01186C9.65714 7.97088 9.54808 7.94751 9.43826 7.94917ZM26.8347 20.3752C29.5547 20.3752 31.8051 22.5912 31.8051 25.3456C31.8051 28.1 29.5891 30.316 26.8347 30.316C24.0803 30.316 21.8643 28.1 21.8643 25.3456C21.8643 22.5912 24.1179 20.3752 26.8347 20.3752ZM9.41322 28.6603C9.7466 28.6465 10.0793 28.7 10.3916 28.8176C10.7038 28.9353 10.9892 29.1145 11.2307 29.3448C11.4722 29.5751 11.6648 29.8516 11.7971 30.1579C11.9294 30.4642 11.9987 30.794 12.0008 31.1277C12.0029 31.4614 11.9378 31.792 11.8094 32.1C11.6809 32.4079 11.4918 32.6869 11.2532 32.9202C11.0147 33.1535 10.7316 33.3363 10.4208 33.4579C10.1101 33.5794 9.77805 33.6371 9.44452 33.6276C8.7854 33.6317 8.15163 33.3739 7.68263 32.9107C7.21363 32.4476 6.94781 31.8171 6.94366 31.158C6.93951 30.4989 7.19736 29.8651 7.6605 29.3961C8.12363 28.9271 8.7541 28.6644 9.41322 28.6603ZM44.1967 28.6603C44.5355 28.6374 44.8754 28.6841 45.1955 28.7975C45.5156 28.911 45.809 29.0887 46.0578 29.3198C46.3066 29.5509 46.5055 29.8305 46.6422 30.1413C46.7789 30.4522 46.8505 30.7877 46.8526 31.1273C46.8548 31.4668 46.7874 31.8033 46.6546 32.1158C46.5219 32.4283 46.3265 32.7104 46.0807 32.9446C45.8348 33.1789 45.5436 33.3603 45.225 33.4777C44.9064 33.5952 44.5671 33.6462 44.228 33.6276C43.5686 33.6259 42.9366 33.3632 42.4703 32.8969C42.004 32.4306 41.7413 31.7987 41.7397 31.1392C41.7397 29.7808 42.8352 28.6916 44.1967 28.6603ZM23.2571 30.917C24.3226 31.6074 25.5651 31.9747 26.8347 31.9747C28.1043 31.9747 29.3468 31.6074 30.4123 30.917C32.518 31.6546 34.3416 33.0301 35.6296 34.852C36.9175 36.674 37.6058 38.852 37.5987 41.0832V48.5513C37.5987 49.2023 37.4109 49.6343 37.1167 49.8847C36.8193 50.1351 36.3154 50.2978 35.3764 50.1163L30.0242 48.6765L33.4327 47.7563C35.2293 47.2743 36.306 45.4025 35.8271 43.5997C35.6002 42.7484 35.0469 42.0208 34.2872 41.5746V41.0832C34.2864 40.8632 34.1982 40.6525 34.042 40.4976C33.8859 40.3426 33.6746 40.256 33.4546 40.2569C33.2346 40.2577 33.024 40.3459 32.869 40.502C32.7141 40.6581 32.6275 40.8694 32.6283 41.0894C32.3216 41.0894 32.0023 41.1207 31.6893 41.2021L21.0411 43.9408V41.0832C21.0411 40.8632 20.9537 40.6522 20.7982 40.4967C20.6426 40.3411 20.4316 40.2537 20.2117 40.2537C19.9917 40.2537 19.7807 40.3411 19.6252 40.4967C19.4696 40.6522 19.3822 40.8632 19.3822 41.0832V44.3665L19.1756 44.4197C18.9713 44.4818 18.7989 44.6203 18.6941 44.8064C18.5893 44.9924 18.5604 45.2117 18.6132 45.4186C18.666 45.6254 18.7966 45.804 18.9777 45.917C19.1589 46.03 19.3766 46.0689 19.5857 46.0254L32.1056 42.8109C33.0602 42.5668 33.9836 43.0864 34.234 44.0285C34.4844 44.9675 33.946 45.9033 33.0039 46.1569L18.2992 50.1163C17.354 50.2978 16.8501 50.1351 16.5558 49.8847C16.2585 49.6343 16.0738 49.1961 16.0738 48.5325V41.0832C16.0665 38.8523 16.7543 36.6746 18.0417 34.8527C19.329 33.0308 21.152 31.6552 23.2571 30.917ZM11.7576 34.5759C13.1692 35.1925 14.2897 36.36 14.85 37.8123C14.5683 38.8546 14.4149 39.9501 14.4149 41.0832V42.9299C13.9617 43.3406 13.3708 43.5662 12.7592 43.5621H6.133C5.80472 43.5638 5.4794 43.5 5.17606 43.3745C4.87272 43.249 4.59745 43.0643 4.36634 42.8311C4.13523 42.598 3.95293 42.3211 3.83009 42.0167C3.70725 41.7122 3.64634 41.3864 3.65092 41.0581V39.9439C3.65092 37.5213 5.08445 35.468 7.13772 34.5759C7.81827 35.0395 8.62264 35.2874 9.44608 35.2874C10.2695 35.2874 11.077 35.0395 11.7576 34.5759ZM41.9181 34.5759C42.5991 35.0383 43.4033 35.2855 44.2265 35.2855C45.0496 35.2855 45.8538 35.0383 46.5348 34.5759C48.5881 35.4711 50.0247 37.5213 50.0247 39.9439V41.055C50.0247 42.4635 48.9293 43.5621 47.5427 43.5621H40.9165C40.3034 43.5658 39.7113 43.3391 39.2576 42.9267V41.08C39.2576 39.9501 39.1105 38.8546 38.8257 37.8123C39.1021 37.0955 39.5176 36.4405 40.0484 35.885C40.5791 35.3296 41.2146 34.8847 41.9181 34.5759ZM30.1494 36.1096C29.0445 36.1096 29.0445 37.7685 30.1494 37.7685H32.6346C33.7394 37.7685 33.7394 36.1096 32.6346 36.1096H30.1494Z" fill="white"/>
</svg>
