<svg width="57" height="56" viewBox="0 0 57 56" fill="none" xmlns="http://www.w3.org/2000/svg">
<path fill-rule="evenodd" clip-rule="evenodd" d="M22.8054 14.4349C22.5356 14.1312 22.5607 13.6674 22.8681 13.3982C23.1694 13.1297 23.6337 13.1579 23.9035 13.461L26.4262 16.3119L33.1597 10.3867C33.4672 10.1193 33.9316 10.1489 34.1951 10.4532C34.465 10.7575 34.4336 11.2213 34.1324 11.4886L26.8467 17.8964C26.5427 18.1661 26.0816 18.1327 25.8112 17.8324L22.8054 14.4349ZM45.0264 37.7943L29.2314 45.6466V29.4926L45.6602 21.3246V36.7726C45.6602 37.2213 45.428 37.5935 45.0264 37.7943ZM11.3403 36.7726V21.3246L27.7628 29.4926V45.6466L11.9741 37.7943C11.5724 37.5935 11.3403 37.2213 11.3403 36.7726ZM28.4971 23.8216C24.0479 23.8216 20.289 20.8019 19.1657 16.7041L12.2565 20.1405L28.4972 28.217L44.7442 20.1405L37.835 16.7041C36.7053 20.8019 32.9526 23.8216 28.4971 23.8216ZM28.4971 5.93053C23.9725 5.93053 20.289 9.61354 20.289 14.1425C20.289 18.6695 23.9725 22.3538 28.4971 22.3538C33.028 22.3538 36.7115 18.6695 36.7115 14.1425C36.7115 9.61354 33.028 5.93053 28.4971 5.93053ZM50.2663 15.2018C50.3628 15.202 50.4583 15.1832 50.5474 15.1464C50.6365 15.1096 50.7175 15.0556 50.7858 14.9874C50.854 14.9193 50.908 14.8383 50.9449 14.7492C50.9817 14.6601 51.0006 14.5646 51.0005 14.4682V7.27094C51.0006 7.17449 50.9817 7.07896 50.9449 6.98982C50.9081 6.90068 50.854 6.81969 50.7858 6.75149C50.7176 6.68328 50.6366 6.62921 50.5475 6.59237C50.4583 6.55553 50.3628 6.53664 50.2663 6.53678H43.0685C42.9721 6.53665 42.8766 6.55555 42.7874 6.5924C42.6983 6.62925 42.6173 6.68332 42.5491 6.75152C42.4809 6.81972 42.4268 6.9007 42.39 6.98984C42.3531 7.07897 42.3342 7.1745 42.3344 7.27094C42.3344 7.67638 42.6607 8.00454 43.0685 8.00454H48.4967L40.2384 16.2604L38.1173 15.208C38.1613 14.8573 38.1801 14.5021 38.1801 14.1425C38.1801 8.804 33.8375 4.46277 28.4972 4.46277C22.7512 4.46277 18.2595 9.45629 18.8771 15.208L16.7623 16.2604L8.50387 8.00454H13.9321C14.3337 8.00454 14.6662 7.67638 14.6662 7.27094C14.6662 6.86618 14.3336 6.53678 13.9321 6.53678H6.73416C6.63771 6.53665 6.54219 6.55555 6.45305 6.5924C6.36392 6.62925 6.28293 6.68332 6.21474 6.75152C6.14654 6.81972 6.09246 6.9007 6.05561 6.98984C6.01877 7.07897 5.99987 7.1745 6 7.27094V14.4682C5.99987 14.5646 6.01877 14.6601 6.05563 14.7492C6.09248 14.8383 6.14656 14.9192 6.21477 14.9874C6.28298 15.0556 6.36397 15.1096 6.4531 15.1464C6.54222 15.1832 6.63774 15.202 6.73416 15.2018C6.83059 15.202 6.92611 15.1832 7.01524 15.1464C7.10438 15.1096 7.18538 15.0556 7.25359 14.9874C7.3218 14.9193 7.37588 14.8383 7.41273 14.7492C7.44958 14.6601 7.46847 14.5646 7.46832 14.4682V9.04312L15.3753 16.9494L10.2797 19.4828C10.1571 19.5434 10.054 19.6371 9.98188 19.7533C9.90979 19.8696 9.87168 20.0036 9.87184 20.1404V36.7726C9.87184 37.7842 10.4116 38.6577 11.3215 39.1083L15.3753 41.124L7.46832 49.0315V43.6064C7.46832 43.2004 7.14206 42.8722 6.73416 42.8722C6.32626 42.8722 6 43.2003 6 43.6064V50.8037C5.99987 50.9001 6.01877 50.9956 6.05563 51.0847C6.09248 51.1738 6.14656 51.2547 6.21477 51.3229C6.28298 51.391 6.36397 51.4451 6.4531 51.4819C6.54222 51.5186 6.63774 51.5375 6.73416 51.5373H13.932C14.3336 51.5373 14.6661 51.2084 14.6661 50.8037C14.6661 50.397 14.3335 50.0695 13.932 50.0695H8.50387L16.7622 41.8136L28.1707 47.4885C28.3779 47.5893 28.6217 47.5897 28.8234 47.4885L40.2383 41.8136L48.4966 50.0695H43.0684C42.9719 50.0692 42.8763 50.088 42.7871 50.1248C42.6979 50.1616 42.6169 50.2156 42.5486 50.2839C42.4804 50.3521 42.4263 50.4332 42.3895 50.5224C42.3528 50.6116 42.334 50.7072 42.3343 50.8037C42.3341 50.9001 42.353 50.9956 42.3899 51.0847C42.4267 51.1738 42.4808 51.2547 42.549 51.3229C42.6172 51.391 42.6982 51.4451 42.7874 51.4819C42.8765 51.5186 42.972 51.5375 43.0684 51.5373H50.2662C50.3626 51.5375 50.4582 51.5187 50.5473 51.4819C50.6364 51.4451 50.7174 51.3911 50.7856 51.3229C50.8538 51.2548 50.9079 51.1738 50.9448 51.0847C50.9816 50.9956 51.0005 50.9001 51.0004 50.8037V43.6064C51.0004 43.2004 50.6741 42.8722 50.2662 42.8722C49.8583 42.8722 49.5319 43.2003 49.5319 43.6064V49.0315L41.625 41.124L45.6788 39.1083C46.5887 38.6577 47.1284 37.7842 47.1284 36.7726V20.1404C47.1286 20.0036 47.0905 19.8696 47.0184 19.7533C46.9463 19.6371 46.8431 19.5434 46.7205 19.4828L41.6249 16.9494L49.5318 9.04312V14.4682C49.5318 14.5646 49.5507 14.6601 49.5876 14.7492C49.6245 14.8383 49.6786 14.9192 49.7468 14.9874C49.8151 15.0555 49.8961 15.1096 49.9852 15.1463C50.0744 15.1831 50.1699 15.202 50.2663 15.2018Z" fill="#21409C"/>
</svg>
