<svg width="54" height="68" viewBox="0 0 54 68" fill="none" xmlns="http://www.w3.org/2000/svg">
<g clip-path="url(#clip0_4046_158)">
<path d="M37.9687 23.8281C38.428 25.1638 38.6577 26.5638 38.6577 27.9894C38.6577 28.5545 38.2111 29.0041 37.6497 29.0041C37.0883 29.0041 36.6418 28.5545 36.6418 27.9894C36.6418 26.795 36.4504 25.6133 36.0676 24.4959C35.0086 21.4006 32.6355 18.986 29.5606 17.8815C29.0375 17.6888 28.7568 17.1109 28.9482 16.5843C29.1395 16.0577 29.7137 15.7751 30.2368 15.9678C33.8859 17.2778 36.7056 20.142 37.9687 23.8281ZM42.5491 28.9398C42.3067 33.4608 40.2908 37.6093 36.8714 40.6018C34.2303 42.9137 32.6738 46.2273 32.5079 49.785C35.7997 49.5924 37.5732 53.7665 35.1873 56.0013C37.5094 58.159 35.9018 62.2561 32.6993 62.2176H31.6275C31.7296 64.6707 29.7775 66.7514 27.3278 66.7514H19.7107C17.261 66.7643 15.3089 64.6707 15.411 62.2176H14.3392C11.1367 62.2561 9.52911 58.159 11.8512 56.0013C9.8098 54.1647 10.7922 50.5042 13.4461 49.9134C12.923 49.3483 12.5019 48.6805 12.2212 47.9355C7.41113 48.2951 3.76208 43.3118 5.34419 38.8037C-0.716292 36.0423 -0.716292 27.0904 5.34419 24.329C3.76208 19.8337 7.41113 14.8504 12.2212 15.1972C14.5178 9.07078 23.5129 10.6377 23.5894 17.2265V45.9062C23.5894 47.3961 23.0408 48.7447 22.1349 49.785H24.9674V13.6303C24.9419 12.3331 26.1412 11.2028 27.4298 11.3441C36.1697 11.9734 43.1871 20.1291 42.5491 28.9398ZM15.7682 42.7082C15.9724 43.2348 15.7044 43.8127 15.1813 44.0182C14.9134 44.121 14.6837 44.2623 14.5051 44.4549C13.7395 45.2255 13.9437 46.497 13.9692 46.6512C14.9261 51.2235 21.5097 50.5942 21.599 45.9191V17.2393C21.5735 13.0908 15.9468 11.8964 14.2627 15.6467C15.6151 15.9164 19.6214 19.3585 16.7506 20.0007C15.781 19.975 15.5896 18.6906 14.8113 18.254C11.0347 15.2357 5.6504 19.3713 7.2963 23.7639C9.19738 23.4813 11.175 24.2648 12.3999 25.7418C12.7571 26.1656 12.7061 26.8078 12.2723 27.1674C11.8512 27.527 11.2133 27.4757 10.856 27.039C10.5881 26.7179 10.0012 26.1399 9.06979 25.8702C8.16391 25.6005 7.37285 25.7675 6.99009 25.8831C1.78445 27.4243 1.36341 34.8736 6.31386 37.0185C6.99009 35.9268 10.9709 32.87 11.6726 35.002C11.813 35.5414 11.4812 36.0937 10.9453 36.235C5.2166 37.6606 6.00765 45.765 11.915 45.9191C11.9405 45.0714 12.1702 43.9283 13.0761 43.0164C13.7268 42.3357 15.2323 41.4495 15.7682 42.7082ZM29.6244 62.2176H17.4396C17.3376 63.5533 18.3838 64.7221 19.7235 64.7221H27.3405C28.6802 64.735 29.7137 63.5533 29.6244 62.2176ZM34.2814 58.6086C34.2814 57.7352 33.5796 57.016 32.6993 57.016H14.3647C13.4971 57.016 12.7826 57.7224 12.7826 58.6086C12.7826 59.4819 13.4844 60.2012 14.3647 60.2012H32.712C33.5669 60.1883 34.2814 59.4819 34.2814 58.6086ZM14.3647 51.8143C12.285 51.8657 12.285 54.9353 14.3647 54.9867H32.712C33.5796 54.9867 34.2941 54.2803 34.2941 53.3941C34.2941 52.5207 33.5924 51.8015 32.712 51.8015H14.3647V51.8143ZM27.2512 13.3605C27.0726 13.3734 26.996 13.4376 26.9705 13.6303V49.785H30.4665C30.6451 45.6365 32.4696 41.7578 35.5445 39.0734C45.254 30.7123 39.9208 14.4009 27.2512 13.3605ZM40.2143 15.2357L44.8713 10.5478C45.7899 9.59737 44.3992 8.18457 43.4423 9.10931L38.7853 13.7972C37.8666 14.7605 39.2701 16.1604 40.2143 15.2357ZM51.6973 27.1289H45.1137C43.7868 27.1546 43.7868 29.1325 45.1137 29.1582H51.6973C53.0242 29.1325 53.0242 27.1546 51.6973 27.1289ZM40.2143 41.0385C39.2701 40.1138 37.8666 41.5137 38.7853 42.477L43.4423 47.1649C44.3992 48.0896 45.7899 46.6897 44.8713 45.7264L40.2143 41.0385ZM26.9833 8.87812V2.25082C26.9578 0.91509 24.9929 0.91509 24.9674 2.25082V8.87812C24.9929 10.2139 26.9578 10.2139 26.9833 8.87812Z" fill="white"/>
</g>
<defs>
<clipPath id="clip0_4046_158">
<rect width="53" height="67" fill="white" transform="translate(0.666016 0.5)"/>
</clipPath>
</defs>
</svg>
