<svg width="74" height="73" viewBox="0 0 74 73" fill="none" xmlns="http://www.w3.org/2000/svg">
<path d="M36.7508 59.3125C41.2627 59.3125 45.6733 57.9746 49.4248 55.4679C53.1763 52.9612 56.1002 49.3984 57.8268 45.23C59.5534 41.0615 60.0052 36.4747 59.125 32.0495C58.2448 27.6243 56.0721 23.5595 52.8817 20.3691C49.6913 17.1787 45.6265 15.0061 41.2013 14.1258C36.7761 13.2456 32.1893 13.6974 28.0209 15.424C23.8524 17.1506 20.2896 20.0746 17.7829 23.8261C15.2763 27.5776 13.9383 31.9881 13.9383 36.5C13.9453 42.5481 16.3509 48.3465 20.6276 52.6232C24.9043 56.8999 30.7027 59.3056 36.7508 59.3125ZM36.7508 15.9688C40.8115 15.9687 44.781 17.1729 48.1574 19.4289C51.5337 21.6849 54.1653 24.8914 55.7192 28.643C57.2732 32.3946 57.6798 36.5228 56.8876 40.5054C56.0954 44.4881 54.14 48.1464 51.2686 51.0178C48.3973 53.8891 44.7389 55.8445 40.7563 56.6367C36.7736 57.429 32.6454 57.0224 28.8939 55.4684C25.1423 53.9144 21.9357 51.2829 19.6797 47.9066C17.4237 44.5302 16.2196 40.5607 16.2196 36.5C16.2256 31.0566 18.3907 25.8379 22.2397 21.9889C26.0888 18.1398 31.3074 15.9748 36.7508 15.9688ZM26.4852 41.0625H34.8962L33.3426 51.1547C33.3038 51.4099 33.3526 51.6706 33.4811 51.8944C33.6096 52.1182 33.8102 52.2918 34.0501 52.3869C34.29 52.4819 34.555 52.4928 34.8019 52.4178C35.0488 52.3427 35.263 52.1862 35.4094 51.9737L47.9563 33.7237C48.0739 33.5525 48.1425 33.3523 48.1546 33.145C48.1668 32.9376 48.1221 32.7308 48.0254 32.547C47.9287 32.3632 47.7836 32.2092 47.6058 32.1018C47.4279 31.9944 47.2242 31.9376 47.0164 31.9375H38.6055L40.159 21.8453C40.1979 21.5901 40.149 21.3294 40.0205 21.1056C39.8921 20.8818 39.6915 20.7082 39.4516 20.6131C39.2117 20.5181 38.9466 20.5072 38.6997 20.5822C38.4528 20.6573 38.2386 20.8138 38.0922 21.0263L25.5453 39.2763C25.4277 39.4475 25.3592 39.6477 25.347 39.855C25.3348 40.0624 25.3795 40.2692 25.4762 40.453C25.573 40.6368 25.7181 40.7908 25.8959 40.8982C26.0737 41.0056 26.2775 41.0624 26.4852 41.0625ZM37.1455 26.4294L36.1486 32.9047C36.1236 33.0673 36.134 33.2332 36.1792 33.3913C36.2243 33.5494 36.3031 33.6959 36.4101 33.8207C36.5172 33.9455 36.6499 34.0457 36.7993 34.1144C36.9486 34.1831 37.1111 34.2187 37.2755 34.2188H44.8493L36.3562 46.5717L37.3531 40.0953C37.3781 39.9327 37.3676 39.7668 37.3225 39.6087C37.2773 39.4506 37.1985 39.3041 37.0915 39.1793C36.9845 39.0545 36.8517 38.9543 36.7024 38.8856C36.553 38.8169 36.3905 38.7813 36.2261 38.7812H28.6524L37.1455 26.4294ZM36.7508 2.28125C30.3944 2.28213 24.1652 4.06296 18.7689 7.42205L18.7198 7.373C17.6493 6.30578 16.1993 5.7065 14.6877 5.7065C13.1761 5.7065 11.7261 6.30578 10.6556 7.373L6.28815 11.7405C6.07432 11.9544 5.95419 12.2444 5.95419 12.5469C5.95419 12.8493 6.07432 13.1394 6.28815 13.3533L7.19267 14.2578L4.0069 17.4436C3.89796 17.5488 3.81106 17.6747 3.75128 17.8138C3.6915 17.953 3.66004 18.1027 3.65872 18.2541C3.65741 18.4056 3.68627 18.5558 3.74362 18.6959C3.80097 18.8361 3.88567 18.9635 3.99276 19.0706C4.09986 19.1777 4.22721 19.2624 4.36739 19.3197C4.50757 19.3771 4.65777 19.4059 4.80922 19.4046C4.96067 19.4033 5.11034 19.3718 5.2495 19.312C5.38866 19.2523 5.51452 19.1654 5.61974 19.0564L8.80551 15.8707L11.7552 18.8203L8.5694 22.0061C8.46046 22.1113 8.37356 22.2372 8.31378 22.3763C8.254 22.5155 8.22254 22.6652 8.22122 22.8166C8.21991 22.9681 8.24877 23.1183 8.30612 23.2584C8.36347 23.3986 8.44816 23.526 8.55526 23.6331C8.66236 23.7402 8.78971 23.8249 8.92989 23.8822C9.07007 23.9396 9.22027 23.9684 9.37172 23.9671C9.52317 23.9658 9.67284 23.9343 9.812 23.8745C9.95116 23.8148 10.077 23.7279 10.1822 23.6189L13.368 20.4332L14.2725 21.3377C14.4864 21.5515 14.7765 21.6716 15.0789 21.6716C15.3814 21.6716 15.6715 21.5515 15.8854 21.3377L20.2528 16.9702C21.288 15.9299 21.8817 14.5302 21.9101 13.0629C21.9386 11.5956 21.3997 10.1739 20.4057 9.0942C26.8327 5.267 34.3995 3.81787 41.7858 4.99966C49.1721 6.18144 55.909 9.91911 60.8211 15.5605C65.7332 21.202 68.5086 28.389 68.6631 35.8676C68.8176 43.3463 66.3413 50.6418 61.6664 56.4813C56.9915 62.3207 50.4147 66.3334 43.0835 67.8192C35.7523 69.305 28.1321 68.1696 21.5525 64.6111C14.9729 61.0526 9.85158 55.2969 7.08209 48.3482C4.3126 41.3995 4.07077 33.699 6.39879 26.5903C6.44769 26.4474 6.46774 26.2963 6.45778 26.1456C6.44782 25.9949 6.40805 25.8478 6.34077 25.7126C6.27349 25.5774 6.18005 25.457 6.06586 25.3582C5.95166 25.2594 5.81899 25.1843 5.67554 25.1372C5.53209 25.09 5.38072 25.0719 5.2302 25.0837C5.07967 25.0956 4.933 25.1372 4.79868 25.2061C4.66436 25.2751 4.54507 25.37 4.44772 25.4855C4.35038 25.6009 4.27692 25.7345 4.2316 25.8785C1.98909 32.749 1.97991 40.1533 4.20536 47.0294C6.43081 53.9054 10.7766 59.9002 16.6195 64.1539C22.4624 68.4076 29.5022 70.7017 36.7294 70.7073C43.9567 70.7129 51.0001 68.4297 56.8496 64.1851C62.6991 59.9405 67.0541 53.9525 69.2903 47.0799C71.5264 40.2073 71.5287 32.803 69.2969 25.929C67.065 19.055 62.7137 13.0643 56.8669 8.81604C51.02 4.56777 43.9781 2.28015 36.7508 2.28125ZM18.64 15.3574L15.0789 18.9184L8.70742 12.5469L12.2684 8.98584C12.9104 8.3449 13.7805 7.98491 14.6877 7.98491C15.5949 7.98491 16.465 8.3449 17.107 8.98584L18.64 10.5188C19.2804 11.1611 19.64 12.0311 19.64 12.9381C19.64 13.8451 19.2804 14.7151 18.64 15.3574Z" fill="#21409C"/>
</svg>
