<svg width="57" height="56" viewBox="0 0 57 56" fill="none" xmlns="http://www.w3.org/2000/svg">
<g clip-path="url(#clip0_3741_359)">
<path d="M55.2023 30.4564L53.3003 29.8407C53.2555 29.8264 53.2369 29.8111 53.2161 29.7575C53.1133 29.4819 52.9984 29.2063 52.8748 28.9339C52.8552 28.8902 52.8552 28.8694 52.8792 28.8224L53.787 27.0385C54.1567 26.3155 54.02 25.4416 53.4436 24.8597L51.3819 22.798C50.8033 22.2249 49.9283 22.0882 49.2064 22.4579L47.4269 23.3657C47.3755 23.3919 47.3536 23.3897 47.3066 23.3679C47.0375 23.2454 46.7619 23.1305 46.4873 23.0277C46.4327 23.0069 46.4173 22.9872 46.4042 22.9479L45.7873 21.0414C45.5369 20.266 44.8194 19.7454 44.0034 19.7454H41.0919C40.2628 19.7454 39.5628 20.2539 39.3091 21.0404L38.69 22.9435C38.6758 22.9872 38.6605 23.008 38.6134 23.0266C38.3389 23.1283 38.0611 23.2421 37.7833 23.3689C37.7406 23.3886 37.7188 23.3908 37.6739 23.3679L35.8889 22.4568C35.1659 22.0871 34.292 22.2238 33.7102 22.8002L31.6484 24.8619C31.0753 25.4405 30.9386 26.3155 31.3083 27.0374L32.2183 28.8202C32.2413 28.865 32.2413 28.888 32.2183 28.9372C32.0958 29.2063 31.9809 29.4819 31.8759 29.7641C31.8617 29.8035 31.8464 29.8232 31.7994 29.8396L29.8908 30.4575C29.5233 30.5779 29.2138 30.8032 28.9884 31.093C28.9644 31.07 28.9403 31.0471 28.9163 31.0219L27.2275 29.2599V28.1093C27.7886 27.7461 28.318 27.325 28.8069 26.8471C30.5208 25.1736 31.5675 22.996 31.8005 20.6499C33.3886 20.2485 34.5414 18.8233 34.5414 17.1116C34.5414 16.206 34.2089 15.378 33.6609 14.7404V11.0139C33.6609 5.51457 29.1864 1.04004 23.687 1.04004H17.9788C15.8088 1.04004 14.0073 2.64348 13.6978 4.72707C11.5606 4.98738 9.89922 6.81395 9.89922 9.02004V14.7393C9.35125 15.378 9.01875 16.2071 9.01875 17.1127C9.01875 18.8244 10.1716 20.2496 11.7597 20.651C11.9927 22.996 13.0394 25.1747 14.7533 26.8482C15.2422 27.3261 15.7716 27.7472 16.3327 28.1104V29.2599L14.6428 31.023C14.2972 31.385 13.9264 31.6027 13.4408 31.7296L6.25703 33.6207C4.6186 34.0516 3.44282 35.3018 3.1136 36.9664L0.584847 49.7961C0.333285 51.0769 0.660316 52.385 1.48391 53.3858C2.30641 54.3855 3.52703 54.9597 4.83188 54.9597H38.7316C40.0364 54.9597 41.257 54.3866 42.0795 53.3858C42.902 52.385 43.2302 51.0769 42.9786 49.795L42.5553 47.648H44.0056C44.8194 47.648 45.5369 47.1274 45.7895 46.3519L46.4053 44.4499C46.4228 44.3974 46.4425 44.3821 46.4884 44.3657C46.7641 44.2629 47.0397 44.148 47.312 44.0244C47.3569 44.0036 47.3798 44.0036 47.4214 44.0255L49.2064 44.9366C49.9294 45.3063 50.8033 45.1696 51.3852 44.5932L53.4469 42.5314C54.02 41.9528 54.1567 41.0779 53.787 40.356L52.8792 38.5764C52.853 38.525 52.8552 38.5032 52.877 38.4561C53.0028 38.1816 53.1166 37.9038 53.2161 37.6369C53.2369 37.5822 53.2588 37.5669 53.2981 37.5538L55.2034 36.9336C55.9909 36.6788 56.4995 35.9788 56.4995 35.1497V32.2382C56.4995 31.4233 55.9778 30.7069 55.2023 30.4564ZM14.2261 6.44426H14.5269C15.0092 6.44426 15.4008 6.0527 15.4008 5.57035V5.36582C15.4008 3.94504 16.558 2.78895 17.9798 2.78895H23.6881C28.2239 2.78895 31.9131 6.47926 31.9131 11.0139V13.6105C31.5741 13.511 31.2153 13.4596 30.8434 13.4639V13.0418C30.8434 12.03 30.465 11.1211 29.7497 10.4146C29.0289 9.70145 28.1178 9.32957 27.1116 9.34379C23.162 9.3777 19.8589 9.02223 17.0141 8.25441C16.9616 8.2402 16.908 8.23145 16.8533 8.22707C15.9564 8.15707 14.7139 8.47316 13.8827 10.3686C13.4648 11.3202 13.2286 12.4774 13.0448 13.4836C12.5755 13.4344 12.101 13.4775 11.6481 13.6105V9.02113C11.6492 7.60035 12.8053 6.44426 14.2261 6.44426ZM13.4627 19.8657C13.4506 19.4019 13.0777 19.0279 12.6139 19.0136C11.5792 18.9841 10.7688 18.1485 10.7688 17.1127C10.7688 16.0649 11.6208 15.2118 12.6697 15.2118C12.9213 15.2118 13.1706 15.2621 13.4102 15.3594C13.6541 15.46 13.9297 15.4447 14.1616 15.3189C14.3934 15.1932 14.5553 14.9689 14.6023 14.7097C14.6319 14.5511 14.6614 14.386 14.6909 14.2154C15.0738 12.0629 15.5408 9.96613 16.6498 9.96613H16.652C19.6314 10.7591 23.0603 11.1277 27.1313 11.0905C27.6738 11.0839 28.1298 11.2688 28.5214 11.656C28.9075 12.0377 29.0956 12.4905 29.0956 13.0407V14.4943C29.0956 14.7786 29.2334 15.0444 29.4653 15.2085C29.6972 15.3725 29.9947 15.413 30.2616 15.3179C30.4628 15.2468 30.6761 15.2096 30.8927 15.2096C31.9405 15.2096 32.7936 16.0616 32.7936 17.1105C32.7936 18.1463 31.9831 18.9808 30.9484 19.0114C30.4847 19.0246 30.1117 19.3986 30.0997 19.8635C29.9848 24.3325 26.253 27.9682 21.7806 27.9682C17.3083 27.9682 13.5775 24.3347 13.4627 19.8657ZM21.7817 29.7193C23.0658 29.7193 24.3159 29.4754 25.4808 29.0127V30.0168C25.4808 32.0566 23.8216 33.7158 21.7817 33.7158C19.7419 33.7158 18.0827 32.0566 18.0827 30.0168V29.0127C19.2598 29.4803 20.5151 29.72 21.7817 29.7193ZM11.1231 53.2108L9.34032 38.3489C9.33157 38.28 9.34688 38.2494 9.38188 38.2111C9.42453 38.163 9.45516 38.1499 9.5175 38.1499H34.0459C34.1083 38.1499 34.1389 38.1641 34.1816 38.2111C34.2166 38.2494 34.2308 38.28 34.2231 38.3489L32.4403 53.2108H11.1231ZM40.7288 52.2746C40.2398 52.8696 39.5114 53.2108 38.7316 53.2108H34.2013L35.96 38.5568C36.0267 37.9989 35.8583 37.4619 35.4864 37.0452C35.1091 36.623 34.6114 36.3999 34.047 36.3999H9.51641C8.95204 36.3999 8.45438 36.623 8.07703 37.0452C7.70516 37.4619 7.53672 37.9989 7.60344 38.5568L9.3611 53.2108H4.83188C4.05203 53.2108 3.3236 52.8696 2.83469 52.2746C2.34469 51.6796 2.1511 50.8986 2.30094 50.133L4.83078 37.3044C5.02985 36.2982 5.71235 35.5708 6.70438 35.3105L13.8859 33.4194C14.68 33.2116 15.3428 32.8222 15.9083 32.2294L16.5569 31.5524C17.2219 33.8099 19.312 35.4625 21.7817 35.4625C24.2514 35.4625 26.3416 33.8099 27.0066 31.5524L27.6541 32.2272C28.2217 32.8211 28.8834 33.2105 29.6764 33.4172L36.8602 35.3083C37.8511 35.5686 38.5336 36.296 38.7327 37.3011L38.8355 37.8229L38.842 37.8579L40.6325 46.9382L40.6358 46.9546L41.2625 50.1308C41.4123 50.8986 41.2177 51.6796 40.7288 52.2746ZM38.5172 33.6972C38.5172 31.4736 40.3252 29.6635 42.5477 29.6635C44.7713 29.6635 46.5814 31.4725 46.5814 33.6972C46.5814 35.9197 44.7723 37.7277 42.5477 37.7277C41.8105 37.7277 41.105 37.533 40.4859 37.1622L40.4477 36.9654C40.2092 35.76 39.5245 34.7735 38.5423 34.1566C38.5257 34.004 38.5173 33.8507 38.5172 33.6972ZM54.7506 35.1508C54.7506 35.2154 54.7244 35.2514 54.6631 35.2711L52.7534 35.8924C52.2033 36.0739 51.7866 36.4732 51.5777 37.0244C51.4902 37.2607 51.395 37.4914 51.2878 37.7255C51.0439 38.2538 51.0527 38.8335 51.3184 39.3639L52.2306 41.15C52.2481 41.185 52.2656 41.2386 52.2077 41.2966L50.1525 43.3518C50.0913 43.4119 50.0377 43.3955 50.0027 43.3769L48.2133 42.4636C47.6905 42.1989 47.1097 42.1891 46.5814 42.433C46.352 42.5381 46.1189 42.6347 45.8825 42.7228C45.3323 42.923 44.9288 43.3408 44.7428 43.9041L44.1259 45.8094C44.1063 45.8685 44.0669 45.8969 44.0056 45.8969H42.2097L40.8961 39.2338C41.4266 39.3913 41.9811 39.4733 42.5488 39.4733C45.737 39.4733 48.3314 36.8811 48.3314 33.6939C48.3314 30.5057 45.737 27.9113 42.5488 27.9113C39.4348 27.9113 36.8897 30.3886 36.7748 33.4774L30.9583 31.9461L32.343 31.4977C32.9019 31.3139 33.3197 30.9093 33.5177 30.3657C33.6063 30.1294 33.7047 29.8921 33.8086 29.6635C34.0547 29.1319 34.0438 28.5511 33.778 28.025L32.8658 26.2389C32.8483 26.2039 32.8308 26.1504 32.8888 26.0924L34.9439 24.0372C35.0052 23.9771 35.0588 23.9935 35.0938 24.0121L36.8864 24.9264C37.4103 25.1879 37.99 25.1977 38.515 24.9549C38.7487 24.8482 38.9862 24.7501 39.227 24.6607C39.7706 24.4539 40.1709 24.0383 40.3536 23.4838L40.9738 21.5763C40.9934 21.5161 41.0295 21.4899 41.0941 21.4899H44.0056C44.068 21.4899 44.1063 21.5172 44.1259 21.5763L44.745 23.4882C44.9266 24.0405 45.3291 24.4572 45.877 24.6629C46.1133 24.7514 46.3506 24.8499 46.5792 24.9538C47.1075 25.1988 47.6872 25.1889 48.2177 24.9232L50.0038 24.011C50.0388 23.9935 50.0923 23.976 50.1503 24.0339L52.2055 26.0891C52.2656 26.1504 52.2492 26.2039 52.2306 26.24L51.325 28.0207C51.0548 28.5446 51.0417 29.1275 51.2878 29.6591C51.3943 29.8909 51.4921 30.1266 51.5809 30.3657C51.7866 30.9125 52.2033 31.315 52.76 31.4977L54.6664 32.1146C54.7255 32.1332 54.7528 32.1714 54.7528 32.2349V35.1508H54.7506ZM21.7817 42.8618C20.2297 42.8618 18.9664 44.1261 18.9664 45.6803C18.9664 47.2324 20.2297 48.4957 21.7817 48.4957C23.3338 48.4957 24.597 47.2324 24.597 45.6803C24.5959 44.1261 23.3338 42.8618 21.7817 42.8618ZM21.7817 46.7468C21.1933 46.7468 20.7153 46.2688 20.7153 45.6803C20.7153 45.0908 21.1933 44.6107 21.7817 44.6107C22.3702 44.6107 22.8481 45.0908 22.8481 45.6803C22.8481 46.2677 22.3691 46.7468 21.7817 46.7468Z" fill="#21409C"/>
</g>
<defs>
<clipPath id="clip0_3741_359">
<rect width="56" height="56" fill="white" transform="translate(0.5)"/>
</clipPath>
</defs>
</svg>
