<svg width="57" height="56" viewBox="0 0 57 56" fill="none" xmlns="http://www.w3.org/2000/svg">
<g clip-path="url(#clip0_3741_394)">
<path d="M28.4676 0.00268555C27.4638 0.00268555 26.4608 0.0566477 25.4627 0.164222C24.5479 0.257663 23.6443 0.410906 22.7529 0.596853C22.58 0.633069 22.4074 0.671071 22.2352 0.710851C16.983 1.90667 12.1872 4.59204 8.42279 8.44496C8.07093 8.80569 7.72821 9.17521 7.39493 9.55317C-2.77378 21.2272 -1.55344 38.9343 10.1207 49.103C21.2972 58.8383 38.1207 58.1905 48.5155 47.6248C48.8677 47.2644 49.2104 46.8948 49.5434 46.5166C54.031 41.406 56.504 34.8361 56.5 28.0349C56.5 12.553 43.9495 0.00256875 28.4676 0.00268555ZM9.66835 9.84658C9.81599 9.69333 9.96923 9.54663 10.1197 9.39806C10.2935 9.22706 10.4663 9.05513 10.6439 8.88974C10.7999 8.74397 10.9606 8.60381 11.1204 8.46178C11.3008 8.302 11.4802 8.14221 11.6652 7.98803C11.8278 7.85068 11.995 7.71892 12.1614 7.58624C12.3482 7.43673 12.5351 7.28723 12.7276 7.14333C12.8976 7.01572 13.0699 6.89111 13.2443 6.76956C13.4378 6.63127 13.6321 6.48924 13.8293 6.36029C14.0059 6.24122 14.1841 6.12441 14.3638 6.00989C14.5627 5.88164 14.7639 5.75704 14.9674 5.63613C15.3539 5.40538 15.7455 5.18325 16.1419 4.96989C16.3288 4.87026 16.5157 4.77273 16.7026 4.67742C16.9158 4.57026 17.1304 4.46591 17.3464 4.36439C17.5333 4.27563 17.7276 4.18686 17.9201 4.10276C18.1397 4.00932 18.3621 3.91588 18.5845 3.82244C18.7779 3.74301 18.9704 3.66546 19.1657 3.5907C19.3918 3.50474 19.6208 3.42438 19.8497 3.34402C20.0452 3.27495 20.2414 3.20798 20.4384 3.14312C20.671 3.06837 20.9056 2.99922 21.141 2.93101C21.3382 2.87401 21.5335 2.81514 21.7316 2.76188C21.8073 2.74226 21.883 2.72637 21.9586 2.70675C19.1928 5.39241 17.1402 8.72539 15.9868 12.4041C13.769 11.8191 11.622 10.9929 9.58426 9.94002C9.61509 9.90731 9.64126 9.87461 9.66835 9.84658ZM8.32467 11.351C10.5692 12.5672 12.9494 13.5143 15.4159 14.1729C14.2067 18.3772 13.5721 22.7259 13.5293 27.1005H2.32576C2.52931 21.3318 4.63892 15.7933 8.32467 11.351ZM8.32467 44.7187C4.63914 40.2763 2.52956 34.7379 2.32576 28.9693H13.5293C13.5721 33.3438 14.2067 37.6925 15.4159 41.8968C12.9495 42.5556 10.5693 43.5028 8.32467 44.7187ZM21.726 53.3116C21.5372 53.2639 21.3419 53.2023 21.1476 53.1453C20.9112 53.0761 20.6738 53.007 20.4402 52.9313C20.2431 52.8677 20.0487 52.7995 19.8544 52.7313C19.6241 52.6525 19.3951 52.57 19.1676 52.4837C18.9738 52.4094 18.781 52.3328 18.5892 52.2538C18.3658 52.1604 18.1425 52.0669 17.9211 51.9735C17.7303 51.8894 17.5406 51.8028 17.352 51.7137C17.1343 51.611 16.9175 51.5063 16.6979 51.3979C16.511 51.3045 16.3242 51.211 16.1373 51.1092C15.9261 50.9961 15.7168 50.8802 15.5075 50.7606C15.3206 50.6569 15.1431 50.5504 14.9627 50.442C14.7577 50.3184 14.5546 50.1917 14.3535 50.0617C14.1759 49.9486 13.9984 49.8337 13.8237 49.716C13.6246 49.5804 13.4274 49.4421 13.2322 49.3011C13.0612 49.1787 12.8902 49.0563 12.722 48.9273C12.5291 48.781 12.3385 48.6318 12.1501 48.4797C11.9848 48.348 11.8203 48.2172 11.6586 48.0817C11.4718 47.9266 11.2914 47.7649 11.1101 47.6042C10.9513 47.4631 10.7915 47.3239 10.6364 47.18C10.4579 47.0137 10.2851 46.8408 10.1113 46.6698C9.96082 46.5212 9.80758 46.3745 9.65994 46.2222C9.63285 46.1932 9.60668 46.1633 9.57959 46.1353C11.6172 45.082 13.7642 44.2554 15.9822 43.6703C17.1358 47.3489 19.1883 50.6818 21.954 53.3676C21.8783 53.348 21.8017 53.3321 21.726 53.3116ZM27.5333 54.1245C23.535 53.5564 20.03 49.3833 17.8248 43.2209C21.0131 42.507 24.2665 42.124 27.5333 42.0781V54.1245ZM27.5333 40.2093C24.0679 40.2549 20.617 40.6664 17.238 41.4371C16.0647 37.3833 15.4458 33.1892 15.3982 28.9693H27.5333V40.2093ZM27.5333 27.1005H15.3982C15.4457 22.8805 16.0646 18.6864 17.238 14.6326C20.617 15.4032 24.0679 15.8147 27.5333 15.8604V27.1005ZM27.5333 13.9916C24.2664 13.9461 21.013 13.5631 17.8248 12.8488C20.03 6.6864 23.535 2.51333 27.5333 1.94521V13.9916ZM48.6108 11.351C52.2964 15.7934 54.4059 21.3319 54.6097 27.1005H43.4062C43.3634 22.7259 42.7288 18.3772 41.5196 14.1729C43.986 13.514 46.3661 12.5669 48.6108 11.351ZM35.202 2.75721C35.3983 2.8058 35.5936 2.86747 35.7879 2.92447C36.0243 2.99361 36.2617 3.06276 36.4953 3.13845C36.6924 3.20199 36.8868 3.2702 37.0811 3.33841C37.311 3.41784 37.5409 3.49913 37.7679 3.58603C37.9623 3.65985 38.1538 3.7374 38.3463 3.8159C38.5697 3.90934 38.793 4.00278 39.0144 4.09622C39.2051 4.18032 39.3947 4.26686 39.5835 4.35598C39.8012 4.45877 40.018 4.56342 40.2376 4.67181C40.4245 4.76526 40.6113 4.8587 40.7982 4.96055C41.0094 5.07361 41.2187 5.18948 41.428 5.30908C41.6149 5.4128 41.7924 5.51932 41.9728 5.62772C42.1778 5.75128 42.3809 5.87807 42.582 6.00802C42.7595 6.12108 42.9371 6.23602 43.1118 6.35375C43.3106 6.48897 43.5075 6.62696 43.7024 6.7677C43.8749 6.88978 44.0456 7.01438 44.2144 7.14146C44.4069 7.28629 44.5957 7.43673 44.7853 7.58811C44.9498 7.71892 45.1152 7.84974 45.2769 7.98617C45.4637 8.14128 45.6441 8.30293 45.8253 8.46365C45.9842 8.60474 46.144 8.74397 46.2991 8.88787C46.4776 9.0542 46.6504 9.22706 46.8242 9.39806C46.9747 9.54663 47.1279 9.69333 47.2756 9.84564C47.3027 9.87461 47.3288 9.90451 47.3559 9.93254C45.3183 10.9859 43.1712 11.8125 40.9533 12.3975C39.7975 8.71851 37.7424 5.38583 34.974 2.70114C35.0497 2.72077 35.1264 2.73665 35.202 2.75721ZM29.4022 1.94521C33.4005 2.51333 36.9055 6.6864 39.1107 12.8488C35.9224 13.5627 32.669 13.9457 29.4022 13.9916V1.94521ZM29.4022 15.8604C32.8676 15.8149 36.3185 15.4033 39.6975 14.6326C40.8708 18.6865 41.4897 22.8805 41.5373 27.1005H29.4022V15.8604ZM29.4022 28.9693H41.5373C41.4898 33.1892 40.8709 37.3833 39.6975 41.4371C36.3185 40.6665 32.8676 40.255 29.4022 40.2093V28.9693ZM29.4022 54.1245V42.0781C32.6691 42.1237 35.9225 42.5066 39.1107 43.2209C36.9055 49.3833 33.4005 53.5564 29.4022 54.1245ZM47.2671 46.2231C47.1195 46.3755 46.9672 46.5222 46.8168 46.6707C46.643 46.8417 46.4692 47.0146 46.2907 47.1809C46.1356 47.3258 45.9758 47.4612 45.8169 47.6061C45.6357 47.7668 45.4553 47.9275 45.2703 48.0826C45.1068 48.219 44.9405 48.3508 44.7741 48.4835C44.5873 48.633 44.4004 48.7825 44.2079 48.9264C44.0378 49.054 43.8656 49.1786 43.6912 49.3002C43.4977 49.4385 43.3034 49.5805 43.1062 49.7094C42.9298 49.8285 42.7516 49.945 42.5717 50.0589C42.3726 50.1874 42.1711 50.312 41.9672 50.4327C41.7803 50.542 41.6018 50.6485 41.4177 50.7541C41.028 50.976 40.6329 51.1885 40.2329 51.3914C40.0197 51.4985 39.8051 51.6029 39.5891 51.7044C39.4022 51.7932 39.2079 51.8819 39.0154 51.966C38.7958 52.0595 38.5734 52.1529 38.351 52.2464C38.1576 52.3248 37.9651 52.4033 37.7707 52.4772C37.5427 52.5641 37.3138 52.6453 37.0839 52.7248C36.8895 52.7939 36.6942 52.8606 36.4981 52.9247C36.2645 53.0004 36.0309 53.0696 35.7926 53.1378C35.5973 53.1957 35.4011 53.2536 35.2039 53.3069C35.1282 53.3265 35.0525 53.3424 34.9768 53.362C37.7427 50.6764 39.7953 47.3434 40.9487 43.6647C43.1665 44.2497 45.3135 45.0759 47.3512 46.1288C47.3204 46.1624 47.2942 46.1951 47.2671 46.2231ZM48.6108 44.7187C46.3663 43.5026 43.9861 42.5554 41.5196 41.8968C42.7288 37.6925 43.3634 33.3438 43.4062 28.9693H54.6097C54.4062 34.7379 52.2966 40.2765 48.6108 44.7187Z" fill="#21409C"/>
</g>
<defs>
<clipPath id="clip0_3741_394">
<rect width="56" height="56" fill="white" transform="translate(0.5)"/>
</clipPath>
</defs>
</svg>
