<svg width="53" height="60" viewBox="0 0 53 60" fill="none" xmlns="http://www.w3.org/2000/svg">
<path d="M38.07 14.0493C36.2489 12.4118 34.098 11.1812 31.7613 10.4398C29.4247 9.69849 26.9562 9.46353 24.5211 9.75068C20.8455 10.1693 17.4005 11.749 14.6894 14.2592C11.9782 16.7693 10.1431 20.0783 9.45202 23.7026C8.76095 27.3269 9.25021 31.0767 10.8483 34.4039C12.4464 37.7312 15.0695 40.4617 18.3345 42.1964V52.3937C18.3351 52.9335 18.5503 53.451 18.933 53.8327C19.3158 54.2143 19.8347 54.429 20.376 54.4295H22.4174V56.4653C22.4179 57.0051 22.6332 57.5226 23.0159 57.9043C23.3986 58.2859 23.9176 58.5006 24.4588 58.5011H28.5417C29.0829 58.5006 29.6018 58.2859 29.9846 57.9043C30.3673 57.5226 30.5825 57.0051 30.5831 56.4653V54.4295H32.6245C33.1658 54.429 33.6847 54.2143 34.0674 53.8327C34.4501 53.451 34.6654 52.9335 34.6659 52.3937V42.1974C37.1295 40.8889 39.2398 39.0065 40.8175 36.7103C42.3952 34.4141 43.3936 31.772 43.7278 29.0085C44.062 26.245 43.7221 23.4419 42.7371 20.8375C41.7521 18.2331 40.151 15.9043 38.07 14.0493ZM32.6245 46.2863V48.3221H20.376V46.2863H32.6245ZM28.5437 56.4653H24.4588V54.4295H28.5417L28.5437 56.4653ZM29.5624 52.3937H20.376V50.3579H32.6245V52.3937H29.5624ZM33.1981 40.6593C33.0261 40.7428 32.881 40.8729 32.7795 41.0347C32.6781 41.1966 32.6244 41.3836 32.6245 41.5744V44.2505H27.5209V39.5824L30.284 36.8269C30.4699 36.6349 30.5728 36.3778 30.5705 36.1109C30.5682 35.844 30.4608 35.5887 30.2716 35.4C30.0823 35.2113 29.8263 35.1042 29.5587 35.1019C29.2911 35.0996 29.0332 35.2022 28.8407 35.3876L26.5002 37.7217L24.1597 35.3876C23.9672 35.2022 23.7094 35.0996 23.4418 35.1019C23.1741 35.1042 22.9181 35.2113 22.7289 35.4C22.5396 35.5887 22.4323 35.844 22.43 36.1109C22.4276 36.3778 22.5305 36.6349 22.7164 36.8269L25.4795 39.5824V44.2505H20.376V41.5734C20.376 41.3828 20.3223 41.1961 20.2211 41.0345C20.1198 40.8729 19.9751 40.7429 19.8033 40.6593C16.824 39.2161 14.3947 36.8478 12.8804 33.91C11.3662 30.9723 10.8487 27.6239 11.4059 24.3678C11.963 21.1118 13.5646 18.1239 15.9701 15.8532C18.3755 13.5825 21.4549 12.1515 24.7456 11.7753C25.3354 11.7097 25.9283 11.6767 26.5217 11.6766C30.2836 11.6656 33.9148 13.0522 36.7074 15.566C38.5795 17.2347 40.0108 19.3374 40.8751 21.6884C41.7393 24.0395 42.0099 26.5665 41.6629 29.0466C41.3158 31.5266 40.3619 33.8832 38.8853 35.9085C37.4087 37.9338 35.4548 39.5654 33.1961 40.6593H33.1981ZM26.5002 7.60596C26.7709 7.60596 27.0306 7.49871 27.222 7.30782C27.4134 7.11693 27.5209 6.85802 27.5209 6.58805V2.51644C27.5209 2.24647 27.4134 1.98757 27.222 1.79667C27.0306 1.60578 26.7709 1.49854 26.5002 1.49854C26.2295 1.49854 25.9699 1.60578 25.7785 1.79667C25.5871 1.98757 25.4795 2.24647 25.4795 2.51644V6.58805C25.4795 6.85802 25.5871 7.11693 25.7785 7.30782C25.9699 7.49871 26.2295 7.60596 26.5002 7.60596ZM11.3427 13.2706C11.4374 13.3652 11.5499 13.4402 11.6738 13.4914C11.7976 13.5426 11.9304 13.569 12.0644 13.569C12.1985 13.5691 12.3313 13.5428 12.4552 13.4917C12.579 13.4406 12.6916 13.3656 12.7864 13.2711C12.8813 13.1766 12.9565 13.0644 13.0079 12.9409C13.0592 12.8174 13.0857 12.685 13.0857 12.5513C13.0858 12.4176 13.0594 12.2852 13.0081 12.1617C12.9569 12.0381 12.8817 11.9258 12.787 11.8313L9.89936 8.95163C9.80521 8.85441 9.69258 8.77686 9.56805 8.72351C9.44351 8.67017 9.30958 8.64208 9.17405 8.64091C9.03852 8.63974 8.90411 8.66549 8.77867 8.71667C8.65323 8.76785 8.53926 8.84343 8.44342 8.93901C8.34759 9.03458 8.2718 9.14823 8.22047 9.27333C8.16915 9.39843 8.14333 9.53246 8.1445 9.66762C8.14568 9.80278 8.17384 9.93635 8.22733 10.0605C8.28083 10.1847 8.35859 10.297 8.45608 10.3909L11.3427 13.2706ZM6.08598 25.9282H2.00313C1.73242 25.9282 1.4728 26.0355 1.28138 26.2264C1.08996 26.4173 0.982422 26.6762 0.982422 26.9461C0.982422 27.2161 1.08996 27.475 1.28138 27.6659C1.4728 27.8568 1.73242 27.964 2.00313 27.964H6.08598C6.35669 27.964 6.61631 27.8568 6.80774 27.6659C6.99916 27.475 7.1067 27.2161 7.1067 26.9461C7.1067 26.6762 6.99916 26.4173 6.80774 26.2264C6.61631 26.0355 6.35669 25.9282 6.08598 25.9282Z" fill="white"/>
<path d="M11.3427 40.6219L8.45614 43.5016C8.35865 43.5955 8.28089 43.7078 8.2274 43.832C8.17391 43.9562 8.14575 44.0897 8.14457 44.2249C8.14339 44.36 8.16922 44.4941 8.22054 44.6192C8.27186 44.7443 8.34765 44.8579 8.44349 44.9535C8.53933 45.0491 8.65329 45.1246 8.77874 45.1758C8.90418 45.227 9.03858 45.2528 9.17411 45.2516C9.30964 45.2504 9.44358 45.2223 9.56811 45.169C9.69264 45.1156 9.80527 45.0381 9.89943 44.9409L12.787 42.0612C12.973 41.8692 13.0758 41.6121 13.0735 41.3452C13.0712 41.0783 12.9638 40.823 12.7746 40.6343C12.5853 40.4456 12.3293 40.3385 12.0617 40.3362C11.7941 40.3339 11.5352 40.4365 11.3427 40.6219ZM43.1012 8.95187L40.2136 11.8315C40.1161 11.9254 40.0383 12.0377 39.9848 12.1619C39.9313 12.2861 39.9032 12.4197 39.902 12.5548C39.9008 12.69 39.9266 12.824 39.978 12.9491C40.0293 13.0742 40.1051 13.1879 40.2009 13.2835C40.2967 13.379 40.4107 13.4546 40.5362 13.5058C40.6616 13.557 40.796 13.5827 40.9315 13.5815C41.0671 13.5804 41.201 13.5523 41.3255 13.4989C41.4501 13.4456 41.5627 13.3681 41.6568 13.2708L44.5444 10.3912C44.6419 10.2973 44.7197 10.185 44.7732 10.0608C44.8267 9.93659 44.8548 9.80302 44.856 9.66786C44.8572 9.53271 44.8314 9.39867 44.78 9.27357C44.7287 9.14848 44.6529 9.03482 44.5571 8.93925C44.4613 8.84368 44.3473 8.76809 44.2218 8.71691C44.0964 8.66573 43.962 8.63998 43.8265 8.64115C43.6909 8.64233 43.557 8.67041 43.4325 8.72375C43.3079 8.7771 43.1953 8.85465 43.1012 8.95187ZM41.6579 40.6219C41.4665 40.4309 41.2068 40.3235 40.9361 40.3235C40.6653 40.3234 40.4056 40.4305 40.2141 40.6214C40.0225 40.8123 39.9149 41.0712 39.9148 41.3412C39.9147 41.6112 40.0222 41.8702 40.2136 42.0612L43.1012 44.9409C43.2937 45.1263 43.5515 45.2289 43.8191 45.2266C44.0868 45.2243 44.3428 45.1172 44.532 44.9285C44.7213 44.7397 44.8286 44.4844 44.8309 44.2175C44.8333 43.9507 44.7304 43.6935 44.5444 43.5016L41.6579 40.6219ZM50.9974 25.9285H46.9145C46.6438 25.9285 46.3842 26.0357 46.1928 26.2266C46.0014 26.4175 45.8938 26.6764 45.8938 26.9464C45.8938 27.2163 46.0014 27.4752 46.1928 27.6661C46.3842 27.857 46.6438 27.9643 46.9145 27.9643H50.9974C51.2681 27.9643 51.5277 27.857 51.7191 27.6661C51.9106 27.4752 52.0181 27.2163 52.0181 26.9464C52.0181 26.6764 51.9106 26.4175 51.7191 26.2266C51.5277 26.0357 51.2681 25.9285 50.9974 25.9285Z" fill="white"/>
</svg>
