<svg width="74" height="73" viewBox="0 0 74 73" fill="none" xmlns="http://www.w3.org/2000/svg">
<g clip-path="url(#clip0_4073_12951)">
<path d="M37.2493 49.8835C40.6035 49.8835 43.3327 47.1543 43.3327 43.8001C43.3327 40.4459 40.6035 37.7168 37.2493 37.7168C33.8952 37.7168 31.166 40.4459 31.166 43.8001C31.166 47.1543 33.8952 49.8835 37.2493 49.8835ZM37.2493 40.1501C39.2614 40.1501 40.8993 41.7881 40.8993 43.8001C40.8993 45.8122 39.2614 47.4501 37.2493 47.4501C35.2373 47.4501 33.5993 45.8122 33.5993 43.8001C33.5993 41.7881 35.2373 40.1501 37.2493 40.1501Z" fill="#21409C"/>
<path d="M23.8671 40.1502C23.1939 40.1502 22.6504 40.6956 22.6504 41.3669V46.2335C22.6504 46.9048 23.1939 47.4502 23.8671 47.4502H26.9355C27.0639 47.8116 27.2108 48.1661 27.3756 48.5123L25.2054 50.6832C25.0924 50.796 25.0028 50.93 24.9417 51.0775C24.8805 51.225 24.8491 51.3831 24.8491 51.5428C24.8491 51.8653 24.9768 52.1754 25.2055 52.4029L28.6464 55.845C28.7592 55.9582 28.8933 56.0479 29.0408 56.1092C29.1884 56.1704 29.3466 56.2019 29.5063 56.2019C29.6661 56.2019 29.8243 56.1704 29.9718 56.1092C30.1194 56.0479 30.2534 55.9582 30.3662 55.845L32.537 53.6762C32.8832 53.8408 33.2378 53.9873 33.5992 54.1151V57.1835C33.5992 57.8548 34.1427 58.4002 34.8158 58.4002H39.6825C40.0052 58.4002 40.3147 58.272 40.5428 58.0438C40.771 57.8157 40.8992 57.5062 40.8992 57.1835V54.1151C41.2606 53.9873 41.6152 53.8407 41.9615 53.676L44.1317 55.845C44.2446 55.9582 44.3787 56.0479 44.5263 56.1091C44.6739 56.1704 44.8321 56.2019 44.9919 56.2019C45.1517 56.2019 45.3099 56.1704 45.4575 56.1091C45.6051 56.0479 45.7392 55.9582 45.8521 55.845L49.293 52.4029C49.406 52.2901 49.4956 52.156 49.5568 52.0085C49.618 51.8609 49.6494 51.7028 49.6494 51.5431C49.6494 51.3833 49.618 51.2252 49.5568 51.0776C49.4956 50.9301 49.406 50.7961 49.293 50.6832L47.1221 48.5123C47.288 48.1664 47.4352 47.8119 47.5632 47.4502H50.6337C51.3068 47.4502 51.8504 46.9048 51.8504 46.2335V41.3669C51.8504 40.6956 51.3068 40.1502 50.6337 40.1502H47.5653C47.4369 39.7888 47.29 39.4343 47.1252 39.088L49.2954 36.9172C49.4083 36.8044 49.498 36.6704 49.5591 36.5229C49.6202 36.3754 49.6517 36.2173 49.6517 36.0576C49.6517 35.7351 49.524 35.425 49.2952 35.1975L45.8544 31.7552C45.7415 31.6421 45.6075 31.5523 45.46 31.4911C45.3124 31.4299 45.1542 31.3983 44.9945 31.3983C44.8347 31.3983 44.6765 31.4299 44.529 31.4911C44.3814 31.5523 44.2474 31.6421 44.1346 31.7552L41.9638 33.9241C41.6176 33.7594 41.263 33.6129 40.9016 33.4851V30.4169C40.9016 29.7456 40.3581 29.2002 39.6849 29.2002H34.8183C34.4956 29.2002 34.1861 29.3284 33.958 29.5565C33.7298 29.7847 33.6016 30.0942 33.6016 30.4169V33.4853C33.2401 33.6131 32.8856 33.7596 32.5393 33.9242L30.3691 31.7553C30.2562 31.6422 30.1221 31.5525 29.9745 31.4912C29.8269 31.43 29.6687 31.3985 29.5089 31.3985C29.3491 31.3985 29.1909 31.43 29.0433 31.4912C28.8957 31.5525 28.7616 31.6422 28.6487 31.7553L25.2078 35.1975C25.0948 35.3103 25.0052 35.4444 24.944 35.5919C24.8828 35.7395 24.8513 35.8976 24.8513 36.0573C24.8513 36.2171 24.8828 36.3752 24.944 36.5228C25.0052 36.6703 25.0948 36.8043 25.2078 36.9172L27.3787 39.088C27.2128 39.434 27.0656 39.7885 26.9376 40.1502H23.8671ZM29.7323 38.0026L27.7862 36.0575L29.506 34.3359L31.4527 36.281C31.6431 36.4729 31.8922 36.5955 32.1603 36.6295C32.4285 36.6635 32.7003 36.6069 32.9326 36.4687C33.6161 36.0658 34.3528 35.761 35.1212 35.5634C35.6576 35.425 36.0337 34.9401 36.0337 34.3859V31.6335H38.4671V34.3859C38.4672 34.6555 38.557 34.9175 38.7221 35.1306C38.8873 35.3437 39.1185 35.4959 39.3796 35.5634C40.1479 35.7611 40.8846 36.0658 41.568 36.4687C42.0451 36.7498 42.6559 36.6755 43.048 36.281L44.9946 34.3359L46.7147 36.0575L44.7685 38.0026C44.5777 38.1934 44.4557 38.4422 44.4217 38.7099C44.3877 38.9775 44.4436 39.2489 44.5807 39.4813C44.9844 40.1651 45.29 40.9022 45.4884 41.671C45.6268 42.2074 46.1117 42.5835 46.6659 42.5835H49.4171V45.0169H46.6647C46.395 45.0168 46.133 45.1065 45.9198 45.2717C45.7067 45.4369 45.5545 45.6682 45.4872 45.9294C45.2888 46.6982 44.9832 47.4353 44.5794 48.1191C44.4427 48.3516 44.3869 48.6229 44.4209 48.8905C44.4549 49.1581 44.5767 49.4068 44.7673 49.5978L46.7135 51.5429L44.993 53.2645L43.0467 51.3194C42.8559 51.1283 42.6069 51.0062 42.339 50.9722C42.0711 50.9383 41.7995 50.9943 41.567 51.1317C40.8835 51.5345 40.1468 51.8392 39.3785 52.037C38.8432 52.1742 38.4671 52.6603 38.4671 53.2145V55.9669H36.0337V53.2145C36.0335 52.9448 35.9438 52.6829 35.7787 52.4698C35.6135 52.2567 35.3823 52.1045 35.1212 52.037C34.3529 51.8393 33.6162 51.5346 32.9327 51.1317C32.7002 50.9944 32.4286 50.9383 32.1607 50.9723C31.8928 51.0063 31.6437 51.1284 31.4528 51.3194L29.5062 53.2645L27.7861 51.5429L29.7323 49.5978C29.9231 49.407 30.0451 49.1582 30.0791 48.8905C30.1131 48.6229 30.0572 48.3515 29.9201 48.1191C29.5164 47.4353 29.2108 46.6982 29.0123 45.9294C28.8739 45.3917 28.3903 45.0169 27.8361 45.0169H25.0837V42.5835H27.8361C28.1058 42.5836 28.3678 42.4939 28.581 42.3287C28.7941 42.1635 28.9463 41.9322 29.0136 41.671C29.212 40.9022 29.5176 40.1651 29.9213 39.4813C30.0581 39.2487 30.1138 38.9773 30.0796 38.7097C30.0454 38.442 29.9232 38.1933 29.7323 38.0026Z" fill="#21409C"/>
<path d="M0.75 2.43333H36.0333V3.87402C34.6205 4.37772 33.6 5.7162 33.6 7.3C33.6 8.8838 34.6205 10.2223 36.0333 10.726V12.1667H34.8167C34.1435 12.1667 33.6 12.712 33.6 13.3833V17.0333H29.95C29.2769 17.0333 28.7333 17.5787 28.7333 18.25V19.7079L18.7363 21.929C18.5523 21.9697 18.3802 22.0527 18.2338 22.1714C18.0874 22.2901 17.9706 22.4412 17.8927 22.6128L11.8093 35.9961C11.7265 36.1788 11.69 36.3791 11.7031 36.5792C11.7163 36.7793 11.7787 36.9731 11.8848 37.1433L17.9681 46.8766C18.1084 47.1002 18.3174 47.2723 18.5637 47.3671C18.81 47.4619 19.0805 47.4743 19.3344 47.4024C19.5885 47.3297 19.8119 47.1763 19.9711 46.9654C20.1303 46.7545 20.2165 46.4976 20.2167 46.2333V36.6973L22.4153 30.1029L30.1996 26.7667H44.2262L52.0947 31.2621L54.2833 36.7334V46.2333C54.2835 46.4975 54.3697 46.7545 54.5288 46.9654C54.688 47.1763 54.9114 47.3297 55.1654 47.4024C55.2742 47.4338 55.3868 47.4498 55.5 47.45C55.7064 47.45 55.9094 47.3975 56.09 47.2974C56.2705 47.1974 56.4226 47.053 56.5319 46.8779L62.6152 37.1445C62.7216 36.9744 62.7842 36.7806 62.7973 36.5804C62.8105 36.3803 62.7738 36.1799 62.6907 35.9974L56.6073 22.614C56.5295 22.4424 56.4127 22.2912 56.2662 22.1725C56.1198 22.0539 55.9478 21.9709 55.7637 21.9303L45.7667 19.7079V18.25C45.7667 17.5787 45.2231 17.0333 44.55 17.0333H40.9V13.3833C40.9 12.712 40.3565 12.1667 39.6833 12.1667H38.4667V10.726C39.8795 10.2223 40.9 8.8838 40.9 7.3C40.9 5.7162 39.8795 4.37772 38.4667 3.87402V2.43333H73.75V0H0.75V2.43333ZM20.954 28.0819C20.7958 28.1493 20.6538 28.2496 20.5373 28.3761C20.4208 28.5027 20.3326 28.6525 20.2784 28.8157L17.8451 36.1157C17.8048 36.2398 17.7839 36.3695 17.7833 36.5V41.991L14.2948 36.4084L19.8565 24.1729L28.7333 22.2007V24.7481L20.954 28.0819ZM54.6435 24.1729L60.2052 36.4084L56.7167 41.991V36.5C56.7166 36.345 56.6874 36.1914 56.6306 36.0472L54.1973 29.9639C54.0947 29.7087 53.909 29.4957 53.6703 29.3592L45.7667 24.8442V22.2007L54.6435 24.1729ZM43.3333 20.6833V24.3333H31.1667V19.4667H43.3333V20.6833ZM36.0333 17.0333V14.6H38.4667V17.0333H36.0333ZM37.25 8.51667C36.5787 8.51667 36.0333 7.97008 36.0333 7.3C36.0333 6.62992 36.5787 6.08333 37.25 6.08333C37.9213 6.08333 38.4667 6.62992 38.4667 7.3C38.4667 7.97008 37.9213 8.51667 37.25 8.51667ZM70.1 61.3489V54.75C70.1 54.0787 69.5565 53.5333 68.8833 53.5333H61.5833C60.9102 53.5333 60.3667 54.0787 60.3667 54.75V60.8333H14.1333V54.75C14.1333 54.0787 13.5898 53.5333 12.9167 53.5333H5.61667C4.94355 53.5333 4.4 54.0787 4.4 54.75V61.3489C2.25486 62.2914 0.75 64.4286 0.75 66.9167C0.75 70.2709 3.47914 73 6.83333 73H67.6667C71.0209 73 73.75 70.2709 73.75 66.9167C73.75 64.4286 72.2451 62.2912 70.1 61.3489ZM62.8 55.9667H67.6667V60.8333H62.8V55.9667ZM6.83333 55.9667H11.7V60.8333H6.83333V55.9667ZM67.6667 70.5667H6.83333C4.82127 70.5667 3.18333 68.9287 3.18333 66.9167C3.18333 64.9046 4.82127 63.2667 6.83333 63.2667H67.6667C69.6787 63.2667 71.3167 64.9046 71.3167 66.9167C71.3167 68.9287 69.6787 70.5667 67.6667 70.5667Z" fill="#21409C"/>
<path d="M6.83333 65.7H9.26667V68.1334H6.83333V65.7ZM14.1333 65.7H16.5667V68.1334H14.1333V65.7ZM21.4333 65.7H23.8667V68.1334H21.4333V65.7ZM28.7333 65.7H31.1667V68.1334H28.7333V65.7ZM36.0333 65.7H38.4667V68.1334H36.0333V65.7ZM43.3333 65.7H45.7667V68.1334H43.3333V65.7ZM50.6333 65.7H53.0667V68.1334H50.6333V65.7ZM57.9333 65.7H60.3667V68.1334H57.9333V65.7ZM65.2333 65.7H67.6667V68.1334H65.2333V65.7ZM5.61667 4.8667H31.1667V7.30003H5.61667V4.8667ZM0.75 4.8667H3.18333V7.30003H0.75V4.8667ZM71.3167 4.8667H73.75V7.30003H71.3167V4.8667ZM43.3333 4.8667H68.8833V7.30003H43.3333V4.8667Z" fill="#21409C"/>
</g>
<defs>
<clipPath id="clip0_4073_12951">
<rect width="73" height="73" fill="white" transform="translate(0.75)"/>
</clipPath>
</defs>
</svg>
