<svg width="53" height="54" viewBox="0 0 53 54" fill="none" xmlns="http://www.w3.org/2000/svg">
<path d="M16.9911 18.0943L18.2278 19.6843C17.7299 20.4712 17.3444 21.3225 17.0875 22.2219L15.1843 22.4628C14.8791 22.5029 14.6543 22.7599 14.6543 23.057V26.1246C14.6543 26.4297 14.8791 26.6867 15.1843 26.7188L16.9188 26.9356C17.1276 27.9394 17.489 28.9031 18.0029 29.7864L16.9991 31.0793C16.8144 31.3202 16.8305 31.6575 17.0473 31.8743L19.2155 34.0425C19.4323 34.2593 19.7696 34.2753 20.0105 34.0906L21.207 33.1591C22.1305 33.7534 23.1343 34.187 24.1943 34.444L24.379 35.8975C24.4191 36.2026 24.6761 36.4275 24.9732 36.4275H28.0408C28.346 36.4275 28.6029 36.2026 28.6351 35.8975L28.8198 34.444C29.8798 34.187 30.8835 33.7534 31.807 33.1591L33.0035 34.0906C33.2444 34.2753 33.5817 34.2593 33.7985 34.0425L35.9667 31.8743C36.1835 31.6575 36.1996 31.3202 36.0149 31.0793L35.0111 29.7864C35.517 28.895 35.8864 27.9394 36.0952 26.9356L37.8298 26.7188C38.1349 26.6787 38.3598 26.4217 38.3598 26.1246V23.057C38.3598 22.7519 38.1349 22.4949 37.8298 22.4628L35.9266 22.2219C35.6696 21.3225 35.2841 20.4712 34.7863 19.6843L36.0229 18.0943C36.2076 17.8534 36.1916 17.5161 35.9748 17.2993L33.8066 15.1311C33.7027 15.0275 33.5646 14.9654 33.4182 14.9566C33.2718 14.9477 33.1272 14.9926 33.0116 15.0829L31.3172 16.3999C30.5543 15.9662 29.7432 15.637 28.9161 15.4282L28.6511 13.2761C28.633 13.1308 28.5628 12.997 28.4535 12.8995C28.3443 12.802 28.2033 12.7475 28.0569 12.7461H24.9893C24.6841 12.7461 24.4272 12.9709 24.3951 13.2761L24.1301 15.4282C23.2949 15.637 22.4919 15.9662 21.729 16.3999L20.0346 15.0829C19.919 14.9926 19.7744 14.9477 19.628 14.9566C19.4816 14.9654 19.3434 15.0275 19.2396 15.1311L17.0714 17.2993C16.8225 17.5161 16.8064 17.8534 16.9911 18.0943ZM19.6813 16.3597L21.2793 17.6044C21.4801 17.757 21.7531 17.7731 21.9699 17.6365C22.8452 17.0905 23.7928 16.7131 24.7644 16.5123C25.0214 16.4641 25.2061 16.2553 25.2382 15.9984L25.4952 13.9506H27.4948L27.7517 15.9984C27.7838 16.2553 27.9766 16.4641 28.2255 16.5123C29.2052 16.7131 30.1448 17.0905 31.0201 17.6365C31.2369 17.7731 31.5099 17.757 31.7107 17.6044L33.3087 16.3597L34.722 17.7731L33.5416 19.2908C33.4629 19.3926 33.4189 19.5169 33.416 19.6455C33.4131 19.7741 33.4515 19.9003 33.5255 20.0055C34.1438 20.8808 34.5775 21.8605 34.8344 22.9125C34.8907 23.1534 35.0994 23.3381 35.3484 23.3702L37.1311 23.595V25.5946L35.4929 25.7953C35.2279 25.8275 35.0191 26.0362 34.971 26.3012C34.7863 27.4496 34.3767 28.5337 33.7584 29.5134C33.6219 29.7302 33.6379 30.0032 33.7905 30.204L34.722 31.4085L33.3087 32.8219L32.1845 31.9465C32.0827 31.8679 31.9583 31.8239 31.8297 31.821C31.7011 31.8181 31.575 31.8565 31.4698 31.9305C30.466 32.6452 29.3498 33.127 28.1452 33.3599C27.8882 33.4081 27.6955 33.6169 27.6634 33.8738L27.4948 35.2229H25.4952L25.3266 33.8738C25.3112 33.7481 25.2562 33.6305 25.1696 33.5382C25.083 33.4458 24.9692 33.3833 24.8448 33.3599C23.6482 33.127 22.532 32.6452 21.5202 31.9305C21.415 31.8565 21.2888 31.8181 21.1602 31.821C21.0316 31.8239 20.9073 31.8679 20.8055 31.9465L19.6813 32.8219L18.2679 31.4085L19.1994 30.204C19.352 30.0032 19.3681 29.7302 19.2316 29.5134C18.6132 28.5337 18.2037 27.4496 18.019 26.3012C17.9973 26.1723 17.9349 26.0537 17.841 25.9627C17.7471 25.8717 17.6266 25.813 17.497 25.7953L15.8508 25.5865V23.587L17.6335 23.3622C17.8825 23.33 18.0832 23.1534 18.1475 22.9044C18.4044 21.8525 18.8381 20.8728 19.4564 19.9975C19.5304 19.8922 19.5688 19.7661 19.5659 19.6375C19.563 19.5089 19.519 19.3846 19.4404 19.2828L18.2599 17.765L19.6813 16.3597Z" fill="white"/>
<path d="M26.4992 30.3006C29.4624 30.3006 31.8715 27.8915 31.8715 24.9283C31.8715 21.9651 29.4624 19.556 26.4992 19.556C23.536 19.556 21.127 21.9651 21.127 24.9283C21.127 27.8915 23.536 30.3006 26.4992 30.3006ZM26.4992 20.7606C28.7959 20.7606 30.667 22.6316 30.667 24.9283C30.667 27.225 28.7959 29.096 26.4992 29.096C24.2026 29.096 22.3315 27.225 22.3315 24.9283C22.3315 22.6316 24.2026 20.7606 26.4992 20.7606ZM35.3566 14.7539C35.6859 14.7539 35.9589 14.4809 35.9589 14.1516V9.13268H38.8097C39.0907 10.5059 40.3033 11.5418 41.7568 11.5418C43.4191 11.5418 44.7682 10.1927 44.7682 8.53041C44.7682 6.86813 43.4191 5.51904 41.7568 5.51904C40.3033 5.51904 39.0827 6.55495 38.8097 7.92813H35.3566C35.0274 7.92813 34.7544 8.20116 34.7544 8.53041V14.1516C34.7544 14.4809 35.0194 14.7539 35.3566 14.7539ZM41.7568 6.72359C42.7526 6.72359 43.5636 7.53465 43.5636 8.53041C43.5636 9.52616 42.7526 10.3372 41.7568 10.3372C40.761 10.3372 39.95 9.52616 39.95 8.53041C39.95 7.53465 40.761 6.72359 41.7568 6.72359Z" fill="white"/>
<path d="M47.3783 11.9434C45.9248 11.9434 44.7042 12.9793 44.4312 14.3525H41.7571C41.4279 14.3525 41.1548 14.6255 41.1548 14.9547V19.1706H36.9309C36.6017 19.1706 36.3286 19.4437 36.3286 19.7729C36.3286 20.1021 36.6017 20.3752 36.9309 20.3752H41.1548V23.9888H40.151C39.8218 23.9888 39.5488 24.2618 39.5488 24.5911C39.5488 24.9203 39.8218 25.1934 40.151 25.1934H41.7571C42.0863 25.1934 42.3594 24.9203 42.3594 24.5911V20.3752H43.3632C44.8006 20.3752 45.973 21.5476 45.973 22.985V41.6555H7.02604V22.985C7.02604 21.5476 8.19847 20.3752 9.63589 20.3752H10.6397V24.5911C10.6397 24.9203 10.9127 25.1934 11.242 25.1934H12.848C13.1773 25.1934 13.4503 24.9203 13.4503 24.5911C13.4503 24.2618 13.1773 23.9888 12.848 23.9888H11.8442V20.3752H16.0682C16.3974 20.3752 16.6704 20.1021 16.6704 19.7729C16.6704 19.4437 16.3974 19.1706 16.0682 19.1706H11.8442V14.9547C11.8442 14.6255 11.5712 14.3525 11.242 14.3525H8.56786C8.2868 12.9793 7.07422 11.9434 5.62074 11.9434C3.95847 11.9434 2.60938 13.2925 2.60938 14.9547C2.60938 16.617 3.95847 17.9661 5.62074 17.9661C7.07422 17.9661 8.29483 16.9302 8.56786 15.557H10.6397V19.1706H9.63589C7.53195 19.1706 5.8215 20.8811 5.8215 22.985V43.8638C5.8215 45.9678 7.53195 47.6782 9.63589 47.6782H18.67V51.2918H16.0601C15.7309 51.2918 15.4579 51.5649 15.4579 51.8941C15.4579 52.2234 15.7309 52.4964 16.0601 52.4964H36.9389C37.2682 52.4964 37.5412 52.2234 37.5412 51.8941C37.5412 51.5649 37.2682 51.2918 36.9389 51.2918H34.3291V47.6782H43.3632C45.4671 47.6782 47.1776 45.9678 47.1776 43.8638V22.985C47.1776 20.8811 45.4671 19.1706 43.3632 19.1706H42.3594V15.557H44.4312C44.7123 16.9302 45.9248 17.9661 47.3783 17.9661C49.0406 17.9661 50.3897 16.617 50.3897 14.9547C50.3897 13.2925 49.0406 11.9434 47.3783 11.9434ZM5.62074 16.7615C4.62498 16.7615 3.81392 15.9505 3.81392 14.9547C3.81392 13.959 4.62498 13.1479 5.62074 13.1479C6.6165 13.1479 7.42756 13.959 7.42756 14.9547C7.42756 15.9505 6.6165 16.7615 5.62074 16.7615ZM33.1245 51.2918H19.8745V47.6782H33.1245V51.2918ZM45.973 43.8638C45.973 45.3012 44.8006 46.4737 43.3632 46.4737H9.63589C8.19847 46.4737 7.02604 45.3012 7.02604 43.8638V42.86H45.973V43.8638ZM47.3783 16.7615C46.3826 16.7615 45.5715 15.9505 45.5715 14.9547C45.5715 13.959 46.3826 13.1479 47.3783 13.1479C48.3741 13.1479 49.1851 13.959 49.1851 14.9547C49.1851 15.9505 48.3741 16.7615 47.3783 16.7615Z" fill="white"/>
<path d="M11.2418 11.5418C12.6953 11.5418 13.9159 10.5059 14.189 9.13269H17.0397V14.1516C17.0397 14.4809 17.3127 14.7539 17.642 14.7539C17.9712 14.7539 18.2443 14.4809 18.2443 14.1516V8.53042C18.2443 8.20118 17.9712 7.92815 17.642 7.92815H14.189C13.9079 6.55497 12.6953 5.51906 11.2418 5.51906C9.57956 5.51906 8.23047 6.86815 8.23047 8.53042C8.23047 10.1927 9.57956 11.5418 11.2418 11.5418ZM11.2418 6.7236C12.2376 6.7236 13.0487 7.53466 13.0487 8.53042C13.0487 9.52618 12.2376 10.3372 11.2418 10.3372C10.2461 10.3372 9.43501 9.52618 9.43501 8.53042C9.43501 7.53466 10.2461 6.7236 11.2418 6.7236ZM25.8971 7.46239V10.9395C25.8971 11.2688 26.1702 11.5418 26.4994 11.5418C26.8287 11.5418 27.1017 11.2688 27.1017 10.9395V7.46239C28.4749 7.18133 29.5108 5.96875 29.5108 4.51527C29.5108 2.853 28.1617 1.50391 26.4994 1.50391C24.8371 1.50391 23.488 2.853 23.488 4.51527C23.488 5.96875 24.524 7.18936 25.8971 7.46239ZM26.4994 2.70845C27.4952 2.70845 28.3062 3.51951 28.3062 4.51527C28.3062 5.51103 27.4952 6.32209 26.4994 6.32209C25.5037 6.32209 24.6926 5.51103 24.6926 4.51527C24.6926 3.51951 25.5037 2.70845 26.4994 2.70845Z" fill="white"/>
</svg>
