<svg width="54" height="54" viewBox="0 0 54 54" fill="none" xmlns="http://www.w3.org/2000/svg">
<g clip-path="url(#clip0_4046_188)">
<path d="M39.7956 51.2227H14.5377C14.3918 51.2232 14.2483 51.1852 14.1218 51.1125C13.9953 51.0398 13.8902 50.935 13.8173 50.8086C13.7446 50.6827 13.7063 50.5399 13.7063 50.3945C13.7063 50.2492 13.7446 50.1064 13.8173 49.9805L26.4503 28.1055C26.5231 27.9801 26.6276 27.8759 26.7533 27.8035C26.879 27.7311 27.0216 27.693 27.1667 27.693C27.3117 27.693 27.4543 27.7311 27.58 27.8035C27.7057 27.8759 27.8102 27.9801 27.883 28.1055L40.516 49.9805C40.5887 50.1064 40.627 50.2492 40.627 50.3945C40.627 50.5399 40.5887 50.6827 40.516 50.8086C40.4431 50.935 40.338 51.0398 40.2115 51.1125C40.085 51.1852 39.9415 51.2232 39.7956 51.2227ZM15.987 49.5664H38.3463L27.1667 30.1759L15.987 49.5664ZM52.8385 39.0078C52.7151 39.0071 52.5935 38.9788 52.4824 38.925L1.13869 14.4953C1.03785 14.4503 0.947043 14.3855 0.871616 14.3048C0.796189 14.2241 0.737664 14.1291 0.699485 14.0255C0.661307 13.9219 0.644246 13.8116 0.649308 13.7013C0.654369 13.591 0.68145 13.4828 0.728958 13.3831C0.776465 13.2833 0.843438 13.1941 0.925936 13.1207C1.00843 13.0473 1.10479 12.9911 1.20933 12.9554C1.31387 12.9198 1.42448 12.9054 1.53466 12.9132C1.64484 12.9209 1.75235 12.9506 1.85087 13.0005L53.1946 37.4302C53.2945 37.475 53.3845 37.539 53.4594 37.6187C53.5344 37.6984 53.5928 37.7922 53.6313 37.8946C53.6698 37.997 53.6876 38.106 53.6837 38.2154C53.6799 38.3247 53.6544 38.4322 53.6087 38.5316C53.5404 38.6772 53.4312 38.7998 53.2944 38.8843C53.1577 38.9689 52.9993 39.0118 52.8385 39.0078ZM5.6354 12.7148C4.65268 12.7148 3.69202 12.4234 2.87491 11.8775C2.05781 11.3315 1.42095 10.5555 1.04488 9.64755C0.668805 8.73963 0.570407 7.74058 0.762128 6.77674C0.953848 5.8129 1.42708 4.92755 2.12197 4.23266C2.81686 3.53777 3.70221 3.06454 4.66605 2.87282C5.62989 2.6811 6.62894 2.7795 7.53686 3.15557C8.44478 3.53164 9.22079 4.1685 9.76677 4.98561C10.3127 5.80271 10.6042 6.76337 10.6042 7.7461C10.6042 9.06389 10.0807 10.3277 9.14884 11.2595C8.21702 12.1914 6.9532 12.7148 5.6354 12.7148ZM5.6354 4.4336C4.98025 4.4336 4.33982 4.62787 3.79508 4.99185C3.25034 5.35583 2.82577 5.87318 2.57505 6.47846C2.32434 7.08374 2.25874 7.74977 2.38655 8.39233C2.51437 9.03489 2.82985 9.62513 3.29311 10.0884C3.75637 10.5516 4.34661 10.8671 4.98917 10.9949C5.63173 11.1228 6.29776 11.0572 6.90304 10.8064C7.50832 10.5557 8.02566 10.1312 8.38965 9.58642C8.75363 9.04168 8.9479 8.40125 8.9479 7.7461C8.9479 6.86757 8.59891 6.02502 7.9777 5.4038C7.35648 4.78259 6.51393 4.4336 5.6354 4.4336ZM44.6152 30.7266C42.8242 30.7266 41.0734 30.1952 39.5844 29.1997C38.0955 28.2042 36.9353 26.7893 36.2509 25.1342C35.5664 23.479 35.3884 21.6581 35.7393 19.9017C36.0902 18.1453 36.9544 16.5326 38.2223 15.2675C39.4902 14.0025 41.105 13.1421 42.8621 12.7952C44.6193 12.4482 46.4399 12.6305 48.0934 13.3187C49.747 14.007 51.1592 15.1703 52.1513 16.6615C53.1434 18.1528 53.6707 19.9048 53.6667 21.6959C53.6601 24.0925 52.7037 26.3888 51.007 28.0816C49.3104 29.7743 47.0119 30.7255 44.6152 30.7266ZM44.6152 14.2841C43.1533 14.2841 41.7242 14.7174 40.5084 15.5293C39.2927 16.3412 38.3448 17.4952 37.7846 18.8455C37.2244 20.1958 37.077 21.6819 37.361 23.1159C37.645 24.55 38.3477 25.8677 39.3803 26.9026C40.4128 27.9375 41.729 28.6431 43.1624 28.9303C44.5958 29.2175 46.0822 29.0735 47.4338 28.5163C48.7854 27.9591 49.9415 27.0138 50.7561 25.7999C51.5706 24.5859 52.0071 23.1578 52.0104 21.6959C52.0082 19.7352 51.2284 17.8555 49.842 16.4691C48.4556 15.0827 46.5759 14.3029 44.6152 14.3007V14.2841Z" fill="white"/>
</g>
<defs>
<clipPath id="clip0_4046_188">
<rect width="53" height="53" fill="white" transform="translate(0.666016 0.5)"/>
</clipPath>
</defs>
</svg>
