<svg width="56" height="56" viewBox="0 0 56 56" fill="none" xmlns="http://www.w3.org/2000/svg">
<path fill-rule="evenodd" clip-rule="evenodd" d="M43.5049 7.16741C43.9903 7.65382 43.6377 8.47803 42.9609 8.47803C42.7656 8.47803 42.5689 8.40299 42.4188 8.25224L39.4488 5.28301L39.4491 16.1302C39.4494 31.2992 27.0606 43.6896 11.8919 43.69L8.40377 43.6902C8.20016 43.69 8.00491 43.6091 7.86093 43.4651C7.71696 43.3211 7.63602 43.1259 7.6359 42.9223C7.63586 42.8214 7.65569 42.7216 7.69426 42.6284C7.73283 42.5352 7.78939 42.4505 7.8607 42.3792C7.93202 42.3079 8.01668 42.2514 8.10987 42.2128C8.20305 42.1742 8.30292 42.1544 8.40377 42.1544L11.8919 42.1543C26.2407 42.154 37.9138 30.4798 37.9133 16.1303L37.9131 5.28312L34.9445 8.25246C34.8732 8.32383 34.7886 8.38044 34.6954 8.41907C34.6022 8.4577 34.5023 8.47758 34.4014 8.47758C34.3006 8.47758 34.2007 8.4577 34.1075 8.41907C34.0143 8.38044 33.9296 8.32383 33.8584 8.25246C33.5582 7.95365 33.5582 7.46779 33.8584 7.16763L38.1382 2.88957C38.4366 2.58661 38.9266 2.58728 39.2244 2.88957L43.5049 7.16741ZM49.2511 51.8012L45.4098 51.8013L45.4088 11.86L49.2501 11.8599L49.2511 51.8012ZM50.0179 10.3248L44.6409 10.3249C44.4375 10.3249 44.2423 10.4057 44.0984 10.5496C43.9546 10.6935 43.8737 10.8886 43.8737 11.0921L43.8747 52.5685C43.8747 52.9922 44.2182 53.3364 44.6419 53.3364L50.0189 53.3363C50.2226 53.3362 50.4178 53.2552 50.5618 53.1112C50.7058 52.9673 50.7867 52.772 50.7868 52.5684L50.7858 11.0919C50.7858 10.6682 50.4416 10.3248 50.0179 10.3248ZM37.4381 51.8015L37.4378 38.9276L33.5965 38.9277L33.5968 51.8016L37.4381 51.8015ZM38.2056 37.3918L32.8293 37.392C32.6256 37.392 32.4304 37.4729 32.2864 37.6169C32.1424 37.7609 32.0615 37.9562 32.0614 38.1598L32.0618 52.5688C32.0618 52.7725 32.1427 52.9678 32.2867 53.1118C32.4307 53.2558 32.626 53.3367 32.8296 53.3367L38.206 53.3366C38.4096 53.3365 38.6048 53.2556 38.7488 53.1116C38.8928 52.9676 38.9737 52.7724 38.9738 52.5687L38.9735 38.1597C38.9734 37.9561 38.8924 37.7609 38.7485 37.6169C38.6045 37.4729 38.4092 37.392 38.2056 37.3918ZM25.6251 51.8019L21.7845 51.802L21.7844 46.4741L25.625 46.474L25.6251 51.8019ZM26.3929 44.9382L21.0165 44.9383C20.8129 44.9384 20.6177 45.0193 20.4737 45.1633C20.3297 45.3073 20.2488 45.5025 20.2487 45.7062L20.2488 52.5691C20.2489 52.7727 20.3298 52.9679 20.4738 53.1119C20.6178 53.2559 20.813 53.3368 21.0167 53.3369L26.393 53.3368C26.5966 53.3368 26.7919 53.2559 26.9359 53.1119C27.0799 52.9679 27.1608 52.7726 27.1609 52.569L27.1606 45.706C27.1607 45.6052 27.1408 45.5054 27.1022 45.4122C27.0636 45.319 27.0071 45.2344 26.9358 45.1631C26.8645 45.0918 26.7799 45.0352 26.6867 44.9966C26.5936 44.958 26.4937 44.9382 26.3929 44.9382ZM13.8128 51.8021L9.97155 51.8022L9.97144 47.9609L13.8127 47.9608L13.8128 51.8021ZM14.5806 46.4251L9.20356 46.4252C8.99995 46.4253 8.8047 46.5063 8.66073 46.6502C8.51675 46.7942 8.43581 46.9895 8.43569 47.1931L8.4358 52.5694C8.43592 52.773 8.51686 52.9683 8.66084 53.1122C8.80482 53.2562 9.00006 53.3372 9.20368 53.3373L14.5807 53.3372C15.0044 53.3372 15.3479 52.993 15.3479 52.5693L15.3478 47.193C15.3478 46.9894 15.267 46.7942 15.1231 46.6502C14.9793 46.5062 14.7841 46.4252 14.5806 46.4251ZM6.74807 25.3138C6.74807 26.7563 7.92161 27.9285 9.36283 27.9285C9.68024 27.9285 9.99641 27.8294 10.2963 28.1718C10.6485 28.5737 10.3908 28.9105 10.3908 29.4772C10.3908 31.5513 12.6963 32.7849 14.4172 31.6773C14.909 31.3606 15.5705 31.6926 15.5997 32.2867C15.742 35.1879 18.7089 37.0191 21.3436 35.9473L21.3432 23.2201L16.8926 23.2203C16.6054 24.7178 15.4992 25.9825 14.0056 26.4289C13.9339 26.4502 13.8596 26.461 13.7849 26.4613C12.9129 26.4613 12.7195 25.2115 13.5662 24.9579C14.6633 24.6292 15.4299 23.5994 15.4299 22.4524C15.4299 21.3061 14.6632 20.275 13.5661 19.9476C13.1599 19.826 12.9282 19.3978 13.0499 18.9916C13.1715 18.586 13.5991 18.3544 14.0053 18.4766C15.499 18.9223 16.6053 20.187 16.8925 21.6845L21.3431 21.6844L21.3428 8.95739C18.7098 7.88645 15.7415 9.71664 15.5991 12.619C15.5703 13.2068 14.9113 13.5449 14.4166 13.2265C13.9955 12.9561 13.5055 12.8126 13.0051 12.8131C11.3101 12.8131 10.066 14.407 10.4641 16.0463C10.5887 16.5588 10.1645 17.048 9.63801 16.9908C8.1072 16.8242 6.74774 18.0352 6.74774 19.5901C6.74774 20.4932 7.20447 21.3205 7.9691 21.8038C8.4479 22.1057 8.44465 22.8025 7.9691 23.1021C7.2047 23.5846 6.74796 24.412 6.74807 25.3138ZM22.8791 26.7825C24.9401 26.4183 26.5101 24.6153 26.51 22.452C26.51 20.2889 24.9399 18.4866 22.8789 18.1218L22.8791 26.7825ZM23.701 11.9459H22.8788L22.8789 16.5692C25.7893 16.9476 28.0458 19.44 28.0458 22.4519C28.0459 25.4638 25.7895 27.9565 22.8791 28.3343L22.8792 32.9583H23.7014L24.4945 30.5188C24.5302 30.4091 24.5902 30.3089 24.6699 30.2255C24.7496 30.1421 24.8471 30.0776 24.955 30.0369C25.7901 29.7234 26.5675 29.274 27.2559 28.7068C27.3448 28.6331 27.4493 28.5805 27.5615 28.553C27.6737 28.5256 27.7906 28.524 27.9035 28.5483L30.4161 29.0826L32.0054 26.3274L30.2879 24.4197C30.2107 24.334 30.1538 24.2321 30.1213 24.1214C30.0888 24.0108 30.0817 23.8943 30.1003 23.7805C30.2472 22.9005 30.2471 22.0023 30.1002 21.1224C30.0815 21.0086 30.0886 20.8921 30.1211 20.7814C30.1535 20.6708 30.2105 20.5689 30.2878 20.4833L32.0052 18.5749L30.4157 15.8211L27.9025 16.3555C27.7895 16.3795 27.6726 16.3777 27.5604 16.3502C27.4482 16.3228 27.3436 16.2704 27.2544 16.1971C26.5664 15.6299 25.7894 15.1806 24.9547 14.8672C24.8465 14.8269 24.7488 14.7625 24.669 14.6791C24.5893 14.5956 24.5294 14.4952 24.494 14.3852L23.701 11.9459ZM8.85502 29.4771C8.85513 32.2798 11.5817 34.2583 14.2224 33.4451C15.1113 37.0791 19.2102 38.8671 22.4756 37.1089C22.5977 37.0431 22.6997 36.9455 22.7708 36.8263C22.8419 36.7072 22.8794 36.571 22.8792 36.4322V34.4941H24.0779C24.293 34.4946 24.5026 34.4268 24.6766 34.3004C24.8506 34.1739 24.9798 33.9955 25.0457 33.7908L25.8433 31.3359C26.5896 31.0227 27.2931 30.6162 27.9372 30.1262L30.4641 30.6624C30.6743 30.7075 30.8935 30.6846 31.0899 30.5972C31.2864 30.5098 31.45 30.3623 31.5573 30.1759L33.5238 26.77C33.6316 26.584 33.6776 26.3686 33.6552 26.1548C33.6328 25.941 33.543 25.7398 33.3989 25.5803L31.6698 23.6604C31.7706 22.8583 31.7707 22.0444 31.6696 21.2429L33.3988 19.3236C33.5429 19.164 33.6326 18.9628 33.655 18.749C33.6775 18.5352 33.6314 18.3199 33.5236 18.1339L31.557 14.728C31.45 14.5413 31.2864 14.3935 31.0899 14.3059C30.8934 14.2184 30.6741 14.1956 30.4637 14.2409L27.9363 14.7785C27.2927 14.2883 26.5895 13.8816 25.8436 13.5682L25.0453 11.1133C24.9793 10.9087 24.85 10.7303 24.676 10.6039C24.5021 10.4776 24.2925 10.4097 24.0775 10.4101H22.8788V8.47142C22.8788 8.18873 22.7242 7.92934 22.4751 7.79539C19.207 6.0371 15.1103 7.82653 14.2221 11.4596C11.5856 10.6522 8.85479 12.594 8.85479 15.4718C6.80542 15.7229 5.21278 17.474 5.21289 19.59C5.21289 20.6755 5.62819 21.6911 6.3554 22.4525C5.6283 23.2139 5.213 24.2296 5.21311 25.3138C5.21311 27.431 6.80587 29.1828 8.85524 29.4331C8.85502 29.4475 8.85502 29.4624 8.85502 29.4771Z" fill="#21409C"/>
</svg>
