<svg width="54" height="54" viewBox="0 0 54 54" fill="none" xmlns="http://www.w3.org/2000/svg">
<g clip-path="url(#clip0_4046_153)">
<path d="M26.8348 9.14118C27.4685 9.14118 27.987 8.6227 27.987 7.989V7.41292C27.987 6.77922 27.4685 6.26074 26.8348 6.26074C26.2011 6.26074 25.6827 6.77922 25.6827 7.41292V7.989C25.6827 8.6227 26.2011 9.14118 26.8348 9.14118ZM26.8348 44.8586C26.2011 44.8586 25.6827 45.377 25.6827 46.0107V46.5868C25.6827 47.2205 26.2011 47.739 26.8348 47.739C27.4685 47.739 27.987 47.2205 27.987 46.5868V46.0107C27.987 45.377 27.4685 44.8586 26.8348 44.8586ZM7.82396 25.8477H7.24788C6.61418 25.8477 6.0957 26.3662 6.0957 26.9999C6.0957 27.6336 6.61418 28.152 7.24788 28.152H7.82396C8.45766 28.152 8.97614 27.6336 8.97614 26.9999C8.97614 26.3662 8.45766 25.8477 7.82396 25.8477ZM46.4218 25.8477H45.8457C45.212 25.8477 44.6935 26.3662 44.6935 26.9999C44.6935 27.6336 45.212 28.152 45.8457 28.152H46.4218C47.0555 28.152 47.574 27.6336 47.574 26.9999C47.574 26.3662 47.0555 25.8477 46.4218 25.8477ZM13.8153 12.3673C13.3544 11.9064 12.6631 11.9064 12.2022 12.3673C11.7414 12.8281 11.7414 13.5194 12.2022 13.9803L12.6055 14.3836C12.8359 14.614 13.124 14.7292 13.412 14.7292C13.7001 14.7292 13.9881 14.614 14.2185 14.3836C14.6794 13.9227 14.6794 13.2314 14.2185 12.7705L13.8153 12.3673ZM12.6055 39.6162L12.2022 40.0194C11.7414 40.4803 11.7414 41.1716 12.2022 41.6325C12.4327 41.8629 12.7207 41.9781 13.0087 41.9781C13.2968 41.9781 13.5848 41.8629 13.8153 41.6325L14.2185 41.2292C14.6794 40.7683 14.6794 40.077 14.2185 39.6162C13.7577 39.1553 13.0664 39.1553 12.6055 39.6162ZM39.8544 12.3673L39.4511 12.7705C38.9903 13.2314 38.9903 13.9227 39.4511 14.3836C39.6816 14.614 39.9696 14.7292 40.2577 14.7292C40.5457 14.7292 40.8337 14.614 41.0642 14.3836L41.4674 13.9803C41.9283 13.5194 41.9283 12.8281 41.4674 12.3673C41.0066 11.9064 40.3153 11.9064 39.8544 12.3673ZM27.987 26.539V16.0542C27.987 15.4205 27.4685 14.902 26.8348 14.902C26.2011 14.902 25.6827 15.4205 25.6827 16.0542V26.9999C25.6827 27.2879 25.7979 27.576 26.0283 27.8064L38.6446 40.4227C38.875 40.6531 39.1631 40.7684 39.4511 40.7684C39.7392 40.7684 40.0272 40.6531 40.2577 40.4227C40.7185 39.9618 40.7185 39.2705 40.2577 38.8097L27.987 26.539Z" fill="white"/>
<path d="M26.834 0.5C12.2014 0.5 0.333984 12.3674 0.333984 27C0.333984 41.6326 12.2014 53.5 26.834 53.5C41.4666 53.5 53.334 41.6326 53.334 27C53.334 12.3674 41.4666 0.5 26.834 0.5ZM26.834 51.1957C13.4688 51.1957 2.63833 40.3652 2.63833 27C2.63833 13.6348 13.4688 2.80435 26.834 2.80435C40.1992 2.80435 51.0296 13.6348 51.0296 27C51.0296 40.3652 40.1992 51.1957 26.834 51.1957Z" fill="white"/>
</g>
<defs>
<clipPath id="clip0_4046_153">
<rect width="53" height="53" fill="white" transform="translate(0.333984 0.5)"/>
</clipPath>
</defs>
</svg>
