<svg width="54" height="54" viewBox="0 0 54 54" fill="none" xmlns="http://www.w3.org/2000/svg">
<path d="M27.2074 34.4117C23.0668 34.4117 19.7129 31.0992 19.7129 27.0828C19.7129 23.0664 23.0668 19.7539 27.2074 19.7539C27.7871 19.7539 28.491 19.8781 28.4496 20.6648C28.4082 21.3688 27.7457 21.4102 27.2074 21.4102C23.9777 21.4102 21.3691 23.9773 21.3691 27.0828C21.3691 30.2297 23.9777 32.7555 27.2074 32.7555C30.4371 32.7555 33.0457 30.1883 33.0457 27.0828C33.0457 26.1719 32.8387 25.3023 32.3832 24.4742C32.1762 24.0602 32.3418 23.5633 32.7145 23.3563C33.1285 23.1492 33.6254 23.3148 33.8324 23.6875C34.3707 24.7227 34.6605 25.882 34.6605 27.0414C34.702 31.0992 31.348 34.4117 27.2074 34.4117Z" fill="white"/>
<path d="M31.1415 22.6523C30.9758 22.6523 30.8102 22.6109 30.6446 22.4867C30.4376 22.3211 30.1891 22.1969 29.9407 22.0727C29.5266 21.8656 29.4024 21.3688 29.6094 20.9547C29.8165 20.5406 30.3133 20.375 30.7274 20.6234C31.0173 20.7891 31.3485 20.9547 31.5969 21.1617C32.2594 21.6172 31.9282 22.6523 31.1415 22.6523ZM49.7329 13.9984L49.6915 10.3961C49.6915 9.94063 49.3188 9.56797 48.8633 9.56797C48.4079 9.56797 48.0352 9.94063 48.0352 10.3961V11.4727C43.0665 5.59297 35.1165 1.74219 27.4563 1.74219C19.5891 1.74219 12.2602 5.30312 7.41569 11.4312C7.12585 11.8039 7.20866 12.3008 7.53991 12.5906C7.91257 12.8805 8.40944 12.7977 8.69929 12.4664C13.254 6.71094 20.086 3.39844 27.4563 3.39844C34.868 3.39844 42.6524 7.29063 47.2485 13.1703H44.9712C44.5157 13.1703 44.143 13.543 44.143 13.9984C44.143 14.4539 44.5157 14.8266 44.9712 14.8266H48.8633C49.1532 14.8266 49.7329 14.5367 49.7329 13.9984ZM51.1407 17.8078C50.9751 17.3937 50.4782 17.1867 50.0641 17.3523C49.6501 17.518 49.443 18.0148 49.6087 18.4289C50.6438 21.1203 51.1821 23.9359 51.1821 26.793C51.1821 35.8609 44.8469 44.5977 35.8618 48.3656L36.4829 47.4133C36.7313 47.0406 36.6071 46.5023 36.2344 46.2539C35.8618 46.0055 35.3235 46.1297 35.0751 46.5023L33.0876 49.525C32.7977 49.9391 33.0048 50.5188 33.4602 50.7258L36.7727 52.175C37.7665 52.5891 38.429 51.0984 37.4352 50.643L36.0274 50.0219C40.3751 48.2828 44.3087 45.4258 47.2899 41.782C50.9337 37.3516 52.8383 32.1758 52.8383 26.793C52.8383 23.6875 52.2587 20.6648 51.1407 17.8078C52.2587 20.6648 50.9751 17.3523 51.1407 17.8078ZM28.4501 50.1461H27.4563C14.3719 50.1461 3.73054 39.6703 3.73054 26.7516C3.73054 24.4742 4.68288 21.6172 5.59382 19.2156L6.33913 20.8305C6.7946 21.8242 8.28522 21.1203 7.82975 20.168L6.29772 16.7313C6.09069 16.3172 5.59382 16.1102 5.17975 16.3172L1.95007 17.932C1.536 18.1391 1.37038 18.6359 1.57741 19.05C1.78444 19.4641 2.28132 19.6297 2.69538 19.4227L4.02038 18.7602C3.06804 21.2445 2.11569 24.2258 2.11569 26.7516C2.11569 40.5398 13.5024 51.8023 27.4977 51.8023C27.829 51.8023 28.2016 51.8023 28.5329 51.7609C28.9883 51.7609 29.361 51.3469 29.3196 50.8914C29.2782 50.4773 28.9055 50.1047 28.4501 50.1461C28.9055 50.1047 28.1188 50.1461 28.4501 50.1461Z" fill="white"/>
<path d="M28.4914 43.5623C27.6633 43.5623 25.2618 43.5623 24.8891 43.3967C24.2266 43.1069 23.7297 42.403 23.7297 41.6991V40.0428C22.4875 39.7116 21.2868 39.2147 20.1688 38.5522L19.0094 39.7116C18.2641 40.4155 17.0219 40.2913 16.3594 39.6288C16.0282 39.2975 14.7032 37.9311 14.3719 37.5998C13.7094 36.8545 13.7508 35.6538 14.4547 34.9498L15.6141 33.7905C14.9516 32.6311 14.4547 31.3889 14.1649 30.1881H12.55C11.5149 30.1881 10.6868 29.36 10.6454 28.3248C10.6039 27.8694 10.6454 25.9647 10.6454 25.4678C10.6868 24.4741 11.4735 23.5631 12.5086 23.5631H14.1649C14.4961 22.3209 14.993 21.1202 15.6555 20.0436L14.4961 18.8842C13.7922 18.1803 13.9164 16.8967 14.5789 16.2342C14.9102 15.903 16.2766 14.578 16.6079 14.2467C17.3532 13.5842 18.5539 13.6256 19.2579 14.3295L20.4172 15.4889C21.5766 14.8264 22.8188 14.3295 24.0196 14.0397V12.342C24.0196 11.3069 24.8477 10.4788 25.8829 10.4373C26.3383 10.3959 28.243 10.4373 28.7399 10.4373C29.775 10.4788 30.6032 11.3069 30.6032 12.342V13.9983C31.8454 14.3295 33.0461 14.8264 34.1641 15.4889L35.3235 14.3295C36.0688 13.6256 37.311 13.7498 37.9735 14.4123C38.3047 14.7436 39.6297 16.11 39.961 16.4413C40.6235 17.1866 40.5821 18.3873 39.8782 19.0913L38.7188 20.2506C39.3813 21.41 39.8782 22.6522 40.168 23.853H41.7829C42.7766 23.853 43.6461 24.5983 43.7704 25.592C43.8118 26.0889 43.7704 28.035 43.7704 28.5319C43.7289 29.5256 42.9422 30.4366 41.9071 30.4366H40.2508C39.9196 31.6788 39.4227 32.8795 38.7602 33.9561L39.9196 35.1155C40.6649 35.8194 40.4993 37.103 39.8368 37.7655C39.5055 38.0967 38.1391 39.4217 37.8079 39.753C37.0625 40.4155 35.8618 40.3741 35.1579 39.6702L33.9985 38.5108C32.8391 39.1733 31.5969 39.6702 30.3961 39.96V41.5748C30.3547 42.61 29.4852 43.5623 28.4914 43.5623ZM25.386 41.6577C25.386 41.7405 25.4688 41.9061 25.6344 41.9061H28.4086C28.4914 41.9061 28.6571 41.8233 28.6571 41.6577V39.3389C28.6571 38.9248 28.9469 38.5936 29.361 38.5108C30.7688 38.2623 32.218 37.6827 33.5844 36.8131C33.9157 36.6061 34.3297 36.6475 34.6196 36.9373L36.2344 38.5522C36.3586 38.6764 36.5243 38.5936 36.6071 38.5522L38.5946 36.6475C38.7188 36.5233 38.636 36.3577 38.5946 36.2748L37.0211 34.7014C36.7313 34.4116 36.6899 33.9561 36.9383 33.6663C37.7664 32.4241 38.3875 30.9748 38.7188 29.4842C38.8016 29.1116 39.1329 28.8217 39.5469 28.8217H41.7829C41.8657 28.8217 42.0313 28.7389 42.0313 28.5733V25.7577C41.9899 25.592 41.9071 25.5092 41.7 25.5092H39.3813C38.9672 25.5092 38.636 25.2194 38.5532 24.8053C38.3047 23.3975 37.725 21.9483 36.8555 20.5819C36.6485 20.2506 36.6899 19.8366 36.9797 19.5467L38.5946 17.9319C38.7188 17.8077 38.636 17.642 38.5946 17.5592L36.6899 15.5717C36.5657 15.4475 36.4 15.5303 36.3172 15.5717L34.7438 17.1452C34.4539 17.435 34.0399 17.4764 33.7086 17.228C32.4664 16.3998 31.0172 15.7788 29.5266 15.4475C29.1539 15.3647 28.8641 15.0334 28.8641 14.6194V12.3006C28.8641 12.135 28.7399 12.0522 28.6571 12.0522H25.9243C25.8414 12.0522 25.6758 12.135 25.6758 12.3006V14.6608C25.6758 15.0748 25.386 15.4061 24.9719 15.4889C23.5641 15.7373 22.1149 16.317 20.7485 17.1866C20.4172 17.3936 20.0032 17.3522 19.7133 17.0623L18.0571 15.5303C17.9329 15.4061 17.7672 15.4889 17.6844 15.5303L15.6969 17.435C15.5727 17.5592 15.6555 17.7248 15.6969 17.8077L17.2704 19.3811C17.5602 19.6709 17.6016 20.1264 17.3532 20.4163C16.525 21.617 15.9039 23.1077 15.5727 24.5983C15.4899 24.9709 15.1586 25.2608 14.7446 25.2608H12.5086C12.4258 25.2608 12.2602 25.3436 12.2602 25.5092V28.2834C12.2602 28.3663 12.343 28.5319 12.5086 28.5319H14.8274C15.2414 28.5319 15.5727 28.8217 15.6555 29.2358C15.9039 30.6436 16.4836 32.0928 17.3532 33.4592C17.5602 33.7905 17.5188 34.2045 17.2289 34.4944L15.6141 36.1092C15.4899 36.2334 15.5727 36.3991 15.6141 36.4819L17.5188 38.4694C17.643 38.5936 17.8086 38.5108 17.8914 38.4694L19.4649 36.8959C19.7547 36.6061 20.1688 36.5647 20.5 36.8131C21.7422 37.6413 23.1914 38.2623 24.6821 38.5936C25.0547 38.6764 25.3446 39.0077 25.3446 39.4217V41.6577H25.386Z" fill="white"/>
</svg>
