<svg width="57" height="56" viewBox="0 0 57 56" fill="none" xmlns="http://www.w3.org/2000/svg">
<g clip-path="url(#clip0_3741_448)">
<path d="M28.5346 36.0762C24.0311 36.0762 20.3672 32.4854 20.3672 28.0709C20.3672 23.6564 24.0311 20.0652 28.5346 20.0652C29.1732 20.0652 29.9513 20.2223 29.8998 21.0398C29.8506 21.8202 29.1434 21.8716 28.5346 21.8716C25.0269 21.8716 22.1736 24.6527 22.1736 28.0709C22.1736 31.4892 25.0269 34.2698 28.5346 34.2698C32.0423 34.2698 34.8956 31.4887 34.8956 28.0709C34.8984 27.0833 34.6577 26.1103 34.1947 25.238C34.1371 25.1329 34.101 25.0174 34.0885 24.8983C34.0759 24.7791 34.0872 24.6587 34.1217 24.5439C34.1562 24.4292 34.2131 24.3225 34.2893 24.23C34.3654 24.1374 34.4591 24.061 34.5651 24.0051C34.6711 23.9491 34.7871 23.9148 34.9064 23.9042C35.0257 23.8935 35.146 23.9067 35.2602 23.943C35.3744 23.9793 35.4802 24.0379 35.5715 24.1155C35.6628 24.193 35.7378 24.288 35.792 24.3948C36.3888 25.5283 36.7011 26.7899 36.702 28.0709C36.702 32.4854 33.0385 36.0762 28.5346 36.0762Z" fill="#21409C"/>
<path d="M32.8427 23.2554C32.6598 23.2554 32.4751 23.1999 32.3152 23.0847C32.0747 22.9116 31.8227 22.7552 31.561 22.6164C31.4536 22.5624 31.3581 22.4875 31.28 22.3961C31.2019 22.3048 31.1429 22.1987 31.1063 22.0842C31.0697 21.9697 31.0564 21.8491 31.067 21.7294C31.0777 21.6097 31.1121 21.4933 31.1683 21.387C31.2245 21.2808 31.3014 21.1868 31.3943 21.1107C31.4873 21.0345 31.5945 20.9777 31.7098 20.9435C31.825 20.9093 31.9459 20.8984 32.0654 20.9116C32.1848 20.9247 32.3005 20.9615 32.4055 21.0199C32.7406 21.1974 33.0658 21.3988 33.372 21.6197C34.0657 22.1196 33.6989 23.2554 32.8427 23.2554ZM53.0993 13.8217L53.0673 9.90031C53.0652 9.66209 52.9692 9.43432 52.8 9.26658C52.6308 9.09885 52.4023 9.00475 52.164 9.00476H52.1564C52.0377 9.0057 51.9205 9.03 51.8113 9.07627C51.702 9.12254 51.603 9.18986 51.5198 9.27441C51.4366 9.35895 51.3709 9.45906 51.3263 9.569C51.2818 9.67895 51.2594 9.79659 51.2604 9.91521L51.2698 11.1052C45.8473 4.64805 37.1615 0.45166 28.8301 0.45166C20.2151 0.45166 12.2406 4.31024 6.95443 11.037C6.8797 11.1302 6.82418 11.2372 6.79108 11.3519C6.75798 11.4667 6.74797 11.5868 6.76161 11.7055C6.77526 11.8241 6.81229 11.9388 6.87057 12.0431C6.92885 12.1473 7.00722 12.2389 7.10115 12.3127C7.19508 12.3864 7.30269 12.4408 7.41777 12.4727C7.53286 12.5046 7.65312 12.5133 7.7716 12.4984C7.89008 12.4835 8.00444 12.4453 8.10804 12.3859C8.21165 12.3265 8.30245 12.2472 8.3752 12.1525C13.3167 5.86424 20.7724 2.25811 28.8301 2.25811C36.9293 2.25811 45.3876 6.48792 50.4231 12.9266H47.9442C47.7046 12.9266 47.4749 13.0217 47.3055 13.1911C47.1361 13.3605 47.0409 13.5902 47.0409 13.8298C47.0409 14.0693 47.1361 14.2991 47.3055 14.4685C47.4749 14.6379 47.7046 14.733 47.9442 14.733H52.1961C52.4874 14.7326 53.0993 14.4079 53.0993 13.8217ZM54.6633 17.9589C54.5762 17.7357 54.4041 17.5562 54.1848 17.4599C53.9654 17.3636 53.7168 17.3584 53.4936 17.4454C53.2704 17.5324 53.0909 17.7045 52.9946 17.9239C52.8983 18.1433 52.8931 18.3919 52.9801 18.6151C54.1158 21.5291 54.6964 24.63 54.6917 27.7575C54.6917 37.6619 47.7924 47.1724 37.9617 51.2671L38.6346 50.2375C38.7007 50.1382 38.7465 50.0268 38.7693 49.9097C38.7921 49.7926 38.7915 49.6722 38.7675 49.5553C38.7435 49.4385 38.6966 49.3276 38.6295 49.2289C38.5624 49.1303 38.4765 49.046 38.3766 48.9807C38.2767 48.9155 38.1649 48.8707 38.0476 48.849C37.9304 48.8272 37.8099 48.8288 37.6933 48.8539C37.5767 48.8789 37.4662 48.9267 37.3681 48.9947C37.2701 49.0626 37.1865 49.1493 37.1222 49.2498L34.968 52.5457C34.6681 53.0031 34.8609 53.6458 35.3595 53.8662L38.9887 55.4667C40.054 55.9341 40.7834 54.2844 39.7176 53.8138L38.1735 53.1332C42.9132 51.2513 47.2098 48.1217 50.4434 44.1569C54.4049 39.2994 56.4982 33.629 56.4982 27.7575C56.5029 24.4055 55.8806 21.0821 54.6633 17.9589C55.8808 21.0836 54.4822 17.4942 54.6633 17.9589ZM29.9018 53.2353C29.5464 53.2493 29.1891 53.2565 28.8301 53.2565C14.57 53.2565 2.96849 41.818 2.96849 27.7575C2.96849 25.27 4.01397 22.1589 5.01023 19.5328L5.80688 21.2954C6.28785 22.3585 7.93217 21.6111 7.45346 20.552L5.76939 16.8262C5.5621 16.3683 4.99172 16.1655 4.54191 16.3904L0.997201 18.1657C0.887892 18.2168 0.789933 18.2893 0.709109 18.3789C0.628285 18.4685 0.566234 18.5734 0.52662 18.6874C0.487007 18.8014 0.470634 18.9221 0.478468 19.0426C0.486303 19.163 0.518186 19.2806 0.572235 19.3885C0.626284 19.4964 0.701403 19.5923 0.793157 19.6707C0.88491 19.7491 0.991437 19.8083 1.10645 19.8448C1.22146 19.8813 1.34262 19.8944 1.46278 19.8833C1.58293 19.8722 1.69965 19.8372 1.80604 19.7802L3.26068 19.0518C2.2301 21.784 1.16249 25.023 1.16249 27.7571C1.16249 42.813 13.5742 55.062 28.8306 55.062C29.2135 55.062 29.5947 55.0539 29.9736 55.039C30.0937 55.0367 30.2121 55.0104 30.3219 54.9618C30.4317 54.9131 30.5307 54.843 30.6131 54.7556C30.6955 54.6682 30.7596 54.5653 30.8017 54.4528C30.8438 54.3403 30.863 54.2205 30.8582 54.1005C30.8534 53.9805 30.8247 53.8626 30.7738 53.7538C30.7229 53.6451 30.6508 53.5475 30.5618 53.4669C30.4727 53.3864 30.3685 53.3244 30.2551 53.2846C30.1418 53.2448 30.0217 53.228 29.9018 53.2353C30.399 53.2163 29.5468 53.2493 29.9018 53.2353Z" fill="#21409C"/>
<path d="M29.9447 46.06C29.0582 46.06 26.4303 46.0704 26.0211 45.8961C25.3166 45.5962 24.7422 44.8316 24.7422 44.0476V42.2484C23.3818 41.8919 22.0797 41.3418 20.8759 40.6149L19.6114 41.8767C18.8174 42.6607 17.464 42.5293 16.7021 41.8004C16.33 41.4441 14.8812 39.9646 14.5461 39.5753C13.8316 38.7448 13.8474 37.4577 14.6283 36.6782L15.9009 35.4087C15.1567 34.1406 14.6138 32.8079 14.3049 31.4896H12.5238C11.4133 31.4896 10.4956 30.5774 10.4346 29.4768C10.4062 28.9624 10.4197 26.8872 10.4346 26.3706C10.4653 25.3061 11.3265 24.2837 12.4497 24.2837H14.2553C14.6122 22.9268 15.1631 21.6286 15.891 20.4292L14.6287 19.1696C13.8389 18.3797 13.9757 17.0204 14.7051 16.2617C15.0623 15.8905 16.5454 14.4444 16.9351 14.1106C17.7661 13.3994 19.0532 13.4152 19.8336 14.1928L21.108 15.4646C22.3793 14.7212 23.7161 14.1793 25.0384 13.8704V12.0219C25.0384 10.911 25.9543 9.99646 27.0535 9.93504C27.5688 9.90658 29.6489 9.91878 30.1669 9.93504C30.7085 9.95186 31.2221 10.1794 31.5984 10.5691C31.9748 10.9589 32.1842 11.4801 32.182 12.0219V13.8212C33.5424 14.1774 34.8445 14.7276 36.0483 15.4546L37.3128 14.1928C38.1049 13.4061 39.462 13.5421 40.2221 14.2696C40.5942 14.6259 42.043 16.105 42.3776 16.4943C43.0921 17.3252 43.0763 18.6119 42.295 19.3914L41.0228 20.6608C41.7671 21.9285 42.3094 23.2608 42.6188 24.5795H44.4C45.4847 24.5795 46.4453 25.382 46.5564 26.4803C46.6102 27.0119 46.579 29.1674 46.5636 29.699C46.5329 30.7639 45.6726 31.7854 44.5485 31.7854H42.743C42.3859 33.1424 41.835 34.4407 41.1073 35.6404L42.3695 36.8995C43.1598 37.6898 43.0225 39.0492 42.2932 39.8079C41.936 40.1791 40.4533 41.6247 40.0631 41.9585C39.2317 42.6702 37.9455 42.6553 37.1647 41.8767L35.8902 40.605C34.6189 41.3479 33.2826 41.8903 31.9598 42.1992V43.9736C31.9598 45.0385 31.0449 46.06 29.9447 46.06ZM26.5482 43.9758C26.5676 44.0675 26.6322 44.2535 26.8309 44.2535H29.8734C29.966 44.2341 30.1534 44.17 30.1534 43.9731V41.4585C30.1535 41.2447 30.2294 41.0379 30.3677 40.8748C30.5059 40.7117 30.6976 40.603 30.9085 40.5679C32.448 40.3119 34.0467 39.667 35.5321 38.7037C35.7055 38.5914 35.9122 38.5418 36.1177 38.5634C36.3232 38.5849 36.5152 38.6762 36.6616 38.822L38.4405 40.5973C38.5836 40.7405 38.7756 40.656 38.8659 40.6027L41.03 38.5154C41.1592 38.3866 41.0811 38.2037 41.0278 38.1125L39.3143 36.4027C39.1649 36.2537 39.0724 36.057 39.0529 35.8469C39.0333 35.6368 39.088 35.4265 39.2073 35.2525C40.1209 33.9197 40.8087 32.3021 41.1438 30.6966C41.1863 30.4935 41.2973 30.3112 41.4584 30.1803C41.6194 30.0495 41.8206 29.978 42.0281 29.9781H44.4776C44.5698 29.9591 44.7572 29.8954 44.7572 29.6985V26.661C44.7202 26.4781 44.6 26.3855 44.4 26.3855H41.8795C41.6657 26.3855 41.4588 26.3097 41.2957 26.1715C41.1325 26.0333 41.0236 25.8417 40.9885 25.6308C40.7324 24.0958 40.0862 22.5016 39.1211 21.0199C39.0078 20.8461 38.9578 20.6387 38.9794 20.4325C39.0011 20.2262 39.093 20.0337 39.2398 19.8872L41.0187 18.1119C41.1592 17.9719 41.0765 17.7827 41.0242 17.6928L38.9323 15.5337C38.8013 15.4036 38.6152 15.4822 38.5227 15.5355L36.8088 17.2457C36.66 17.3944 36.4639 17.4864 36.2544 17.5058C36.0449 17.5252 35.8353 17.4707 35.6617 17.3519C34.3263 16.441 32.7041 15.7541 31.0941 15.4194C30.8908 15.3772 30.7083 15.2662 30.5773 15.1051C30.4462 14.9441 30.3747 14.7428 30.3747 14.5352V12.0206C30.3747 11.8467 30.2532 11.7401 30.166 11.7401H27.1235C27.0309 11.7596 26.8435 11.8237 26.8435 12.0206V14.6092C26.8434 14.823 26.7675 15.0299 26.6292 15.1929C26.4909 15.356 26.2993 15.4647 26.0884 15.4998C24.5493 15.7559 22.9506 16.4003 21.4648 17.3636C21.2916 17.4763 21.0849 17.526 20.8793 17.5045C20.6738 17.483 20.4819 17.3915 20.3358 17.2453L18.5569 15.4705C18.4142 15.3277 18.2218 15.4117 18.1314 15.4646L15.9673 17.5519C15.8382 17.6806 15.9163 17.8636 15.9696 17.9548L17.683 19.665C17.8324 19.8141 17.9249 20.0107 17.9444 20.2208C17.964 20.4309 17.9094 20.6413 17.79 20.8153C16.8769 22.1471 16.1891 23.7652 15.8535 25.3707C15.8111 25.5738 15.7 25.7561 15.539 25.887C15.3779 26.0178 15.1767 26.0893 14.9693 26.0892H12.5211C12.4285 26.1091 12.2411 26.1728 12.2411 26.3701V29.405C12.2605 29.4966 12.3251 29.6827 12.5238 29.6827H15.0442C15.258 29.6827 15.4649 29.7585 15.6281 29.8967C15.7912 30.0349 15.9001 30.2265 15.9353 30.4374C16.1913 31.9719 16.8371 33.5666 17.8027 35.0488C17.9159 35.2225 17.9659 35.4299 17.9443 35.6362C17.9227 35.8424 17.8307 36.035 17.6839 36.1814L15.905 37.9563C15.7645 38.0967 15.8472 38.2859 15.8996 38.3758L17.9914 40.535C18.1224 40.6655 18.3085 40.5869 18.4011 40.5327L20.1149 38.8225C20.2639 38.6738 20.46 38.5818 20.6696 38.5625C20.8791 38.5431 21.0888 38.5975 21.2625 38.7163C22.5974 39.6277 24.2192 40.3146 25.8296 40.6492C26.0329 40.6915 26.2154 40.8025 26.3465 40.9635C26.4775 41.1246 26.549 41.3259 26.5491 41.5335V43.9758H26.5482Z" fill="#21409C"/>
</g>
<defs>
<clipPath id="clip0_3741_448">
<rect width="56" height="56" fill="white" transform="translate(0.5)"/>
</clipPath>
</defs>
</svg>
