<svg width="53" height="54" viewBox="0 0 53 54" fill="none" xmlns="http://www.w3.org/2000/svg">
<path d="M17.6836 41.613C17.606 41.5353 17.5007 41.4917 17.3909 41.4917C17.2811 41.4917 17.1758 41.5353 17.0981 41.613L10.4731 48.238C10.3954 48.3156 10.3516 48.4209 10.3516 48.5308C10.3515 48.6407 10.3951 48.7461 10.4727 48.8239C10.5503 48.9016 10.6557 48.9453 10.7656 48.9454C10.8754 48.9455 10.9808 48.9019 11.0586 48.8243L17.6836 42.1993C17.7611 42.1214 17.8046 42.016 17.8046 41.9061C17.8046 41.7963 17.7611 41.6909 17.6836 41.613ZM4.96857 43.1483C5.07842 43.1483 5.18382 43.1049 5.26172 43.0274L11.8867 36.4024C11.9621 36.3243 12.0039 36.2197 12.0029 36.1111C12.002 36.0026 11.9584 35.8987 11.8817 35.822C11.8049 35.7452 11.7011 35.7016 11.5925 35.7007C11.4839 35.6998 11.3793 35.7415 11.3012 35.8169L4.67624 42.4419C4.61851 42.4998 4.57923 42.5735 4.56333 42.6537C4.54742 42.7339 4.55562 42.817 4.58689 42.8926C4.61815 42.9681 4.67108 43.0327 4.739 43.0782C4.80693 43.1237 4.88681 43.1481 4.96857 43.1483ZM12.7148 40.7848C12.6372 40.7072 12.5319 40.6636 12.4221 40.6636C12.3123 40.6636 12.207 40.7072 12.1294 40.7848L4.67624 48.238C4.63774 48.2764 4.60719 48.3221 4.58634 48.3723C4.56548 48.4226 4.55473 48.4764 4.55469 48.5308C4.55461 48.6407 4.59818 48.7461 4.67582 48.8239C4.75346 48.9016 4.85881 48.9453 4.96869 48.9454C5.07857 48.9455 5.18397 48.9019 5.26172 48.8243L12.7148 41.3711C12.7923 41.2933 12.8358 41.1879 12.8358 41.078C12.8358 40.9681 12.7923 40.8627 12.7148 40.7848Z" fill="white" fill-opacity="0.9"/>
<path d="M48.7931 4.64062H48.5256C46.7609 4.64062 38.3 5.0787 33.125 7.94981C30.7433 9.2715 25.7688 14.8108 21.2927 20.1431C19.9959 19.8798 17.7567 19.4839 15.982 19.4839C15.5953 19.4839 15.2317 19.503 14.9062 19.5469C12.349 19.8881 4.96875 27.8281 4.96875 27.8281L12.6181 30.888L12.4219 31.1406C12.4219 31.1406 12.2645 34.2958 15.7344 37.7656C18.9152 40.9465 21.8319 41.079 22.2956 41.079L22.3594 41.0781L22.6111 40.8802L25.6719 48.5312C25.6719 48.5312 33.5523 41.0442 33.9531 38.5938C34.2148 36.9905 33.7825 33.9604 33.4505 32.0441C38.7604 27.5582 44.2475 22.6275 45.5469 20.375C46.0127 19.5529 46.4086 18.693 46.7303 17.8045L46.7344 17.7954C48.5745 12.8117 48.8594 6.50308 48.8594 4.98595V4.64062H48.7931ZM6.40803 27.5118C9.39673 24.4038 13.5928 20.558 15.0164 20.3675C15.337 20.3285 15.6598 20.3102 15.9828 20.3129C17.4908 20.3129 19.3922 20.6201 20.6866 20.8694C19.1009 22.7727 17.534 24.6916 15.9861 26.6257L13.0032 30.1502L6.40803 27.5118ZM33.1358 38.4596C32.9122 39.826 29.0755 44.0478 25.9832 47.0795L23.3399 40.4719L24.6549 39.2579C27.3671 37.0923 30.0534 34.8945 32.7134 32.6652C33.0372 34.6386 33.3486 37.1644 33.1358 38.4596ZM44.8297 19.9609C42.4091 24.1562 24.3576 38.4497 22.0828 40.2417C21.3358 40.1871 18.94 39.8003 16.3199 37.1801C13.6748 34.5351 13.3047 32.1592 13.2558 31.4172C15.0098 29.1614 29.1144 11.1248 33.5275 8.67773C34.2612 8.27113 35.0719 7.92 35.9191 7.60945C36.3547 9.01975 37.384 11.3832 39.75 13.75C42.1325 16.1325 44.5125 17.1594 45.9195 17.5908C45.604 18.4339 45.2471 19.2388 44.8297 19.9609ZM46.1953 16.8091C44.8802 16.4116 42.617 15.446 40.3355 13.1645C38.0722 10.9004 37.1033 8.65123 36.7008 7.33783C36.8135 7.30139 36.9261 7.26495 37.0395 7.23017C37.1845 7.18545 37.3286 7.13908 37.4743 7.09602C41.5768 5.89606 46.1473 5.57889 48.0089 5.49691C47.9352 7.48441 47.6056 12.5542 46.1953 16.8091Z" fill="white" fill-opacity="0.9"/>
<path d="M33.1243 14.578C32.3572 14.5691 31.596 14.7125 30.8848 14.9999C30.1736 15.2872 29.5265 15.7129 28.981 16.2522C28.4355 16.7916 28.0025 17.4338 27.707 18.1417C27.4116 18.8496 27.2595 19.6091 27.2598 20.3762C27.26 21.1433 27.4124 21.9027 27.7083 22.6104C28.0042 23.3181 28.4376 23.9601 28.9834 24.4991C29.5292 25.0381 30.1765 25.4634 30.8879 25.7504C31.5993 26.0374 32.3605 26.1803 33.1276 26.171C34.6529 26.1523 36.1094 25.5332 37.1812 24.4478C38.2531 23.3624 38.854 21.8983 38.8535 20.3729C38.8531 18.8474 38.2514 17.3836 37.1789 16.2989C36.1064 15.2141 34.6496 14.5958 33.1243 14.578ZM36.6388 23.8886C36.1786 24.3514 35.6311 24.7183 35.0281 24.9681C34.4251 25.2178 33.7786 25.3455 33.1259 25.3437C32.473 25.3455 31.8262 25.2178 31.2229 24.9681C30.6197 24.7183 30.0719 24.3514 29.6113 23.8886C29.1485 23.4283 28.7816 22.8807 28.5318 22.2775C28.2821 21.6744 28.1544 21.0277 28.1563 20.3749C28.1563 19.0466 28.6731 17.7994 29.6113 16.8612C30.5496 15.9229 31.7968 15.4062 33.1251 15.4062C34.4526 15.4062 35.6997 15.9229 36.6388 16.8612C37.5771 17.7994 38.0938 19.0466 38.0938 20.3749C38.0938 21.7032 37.5771 22.9495 36.6388 23.8886Z" fill="white" fill-opacity="0.9"/>
</svg>
