<svg width="57" height="56" viewBox="0 0 57 56" fill="none" xmlns="http://www.w3.org/2000/svg">
<path d="M53.0597 22.8861V21.6385C53.0597 21.4355 52.9791 21.2407 52.8355 21.0972C52.6919 20.9536 52.4971 20.8729 52.2941 20.8729H51.5067C51.0088 20.8729 50.6038 20.4625 50.6038 19.958C50.6038 19.4534 51.0088 19.0432 51.5067 19.0432H52.2941C52.4971 19.0432 52.6919 18.9625 52.8355 18.8189C52.9791 18.6753 53.0597 18.4806 53.0597 18.2775V10.2655H53.0815C54.4236 10.2655 55.5156 9.16814 55.5156 7.81933C55.5156 6.47052 54.4237 5.37327 53.0815 5.37327H53.0597V1.75C53.0597 1.54694 52.9791 1.3522 52.8355 1.20862C52.6919 1.06504 52.4971 0.984375 52.2941 0.984375H47.9052C47.7021 0.984375 47.5074 1.06504 47.3638 1.20862C47.2202 1.3522 47.1396 1.54694 47.1396 1.75V2.53739C47.1396 3.03516 46.7346 3.44017 46.2368 3.44017C45.7324 3.44017 45.322 3.03516 45.322 2.53739V1.75C45.322 1.54694 45.2413 1.3522 45.0977 1.20862C44.9542 1.06504 44.7594 0.984375 44.5564 0.984375H40.1674C39.9643 0.984375 39.7696 1.06504 39.626 1.20862C39.4824 1.3522 39.4017 1.54694 39.4017 1.75V5.37327H39.38C38.0378 5.37327 36.9459 6.47062 36.9459 7.81933C36.9459 7.95637 36.9578 8.09069 36.9795 8.22172C35.147 7.56536 33.6148 5.87912 33.6148 3.4743C33.6148 2.10142 32.4979 0.984375 31.1249 0.984375H25.8751C24.5021 0.984375 23.3852 2.10131 23.3852 3.4743C23.3852 5.55012 22.1915 7.33403 20.2699 8.13006C18.3478 8.92598 16.2425 8.50861 14.7745 7.04091C14.3043 6.5707 13.6789 6.3117 13.0138 6.3117C12.3487 6.3117 11.7234 6.5707 11.2531 7.04091L7.5408 10.7532C6.57009 11.724 6.57009 13.3037 7.5408 14.2745C9.00872 15.7423 9.42598 17.848 8.63006 19.7697C7.83403 21.6914 6.05002 22.8852 3.9743 22.8852C2.60131 22.8853 1.48438 24.0022 1.48438 25.3751V30.6249C1.48438 31.9978 2.60131 33.1148 3.9743 33.1148C6.05012 33.1148 7.83403 34.3086 8.63006 36.2302C9.42598 38.152 9.00872 40.2577 7.5408 41.7255C6.57009 42.6963 6.57009 44.276 7.5408 45.2468L11.2531 48.9591C11.7234 49.4293 12.3487 49.6883 13.0138 49.6883C13.6789 49.6883 14.3043 49.4293 14.7745 48.9591C16.2444 47.4893 18.3505 47.0703 20.2716 47.8658C22.1922 48.6614 23.3853 50.4469 23.3853 52.5256C23.3853 53.8986 24.5022 55.0155 25.8752 55.0155H31.125C32.498 55.0155 33.6149 53.8986 33.6149 52.5256C33.6149 50.4498 34.8086 48.6659 36.7302 47.8699C38.652 47.0738 40.7575 47.4912 42.2255 48.9591C42.6958 49.4293 43.3211 49.6883 43.9862 49.6883C44.6513 49.6883 45.2767 49.4293 45.747 48.9591L49.4593 45.2468C50.43 44.276 50.43 42.6963 49.4593 41.7255C47.9914 40.2577 47.5741 38.152 48.37 36.2301C49.166 34.3085 50.9501 33.1148 53.0258 33.1148C54.3988 33.1148 55.5157 31.9979 55.5157 30.6249V25.3751C55.5156 24.0136 54.4171 22.9044 53.0597 22.8861ZM51.5285 17.512H51.5067C50.1646 17.512 49.0726 18.6094 49.0726 19.9581C49.0726 21.3069 50.1645 22.4043 51.5067 22.4043H51.5285V25.2619H47.9052C47.7021 25.2619 47.5074 25.3426 47.3638 25.4862C47.2202 25.6297 47.1396 25.8245 47.1396 26.0275V26.8149C47.1396 27.3127 46.7346 27.7177 46.2368 27.7177C45.7324 27.7177 45.322 27.3127 45.322 26.8149V26.0275C45.322 25.8245 45.2413 25.6297 45.0977 25.4862C44.9542 25.3426 44.7594 25.2619 44.5564 25.2619H40.933V21.6265C40.933 21.4234 40.8523 21.2287 40.7087 21.0851C40.5652 20.9415 40.3704 20.8609 40.1674 20.8609H39.38C38.8822 20.8609 38.4772 20.4505 38.4772 19.9461C38.4772 19.4483 38.8822 19.0433 39.38 19.0433H40.1674C40.3704 19.0433 40.5652 18.9626 40.7087 18.819C40.8523 18.6755 40.933 18.4807 40.933 18.2777V14.6544H44.5564C44.7594 14.6544 44.9542 14.5737 45.0977 14.4301C45.2413 14.2866 45.322 14.0918 45.322 13.8888V13.1014C45.322 12.6035 45.7324 12.1986 46.2368 12.1986C46.7346 12.1986 47.1396 12.6036 47.1396 13.1014V13.8888C47.1396 14.0918 47.2202 14.2866 47.3638 14.4301C47.5074 14.5737 47.7021 14.6544 47.9052 14.6544H51.5285V17.512ZM40.5623 28C40.5623 34.6512 35.1511 40.0623 28.5 40.0623C21.8489 40.0623 16.4377 34.6512 16.4377 28C16.4377 21.7369 21.1371 16.6108 27.275 15.9994V17.5119H27.2532C25.9111 17.5119 24.8192 18.6093 24.8192 19.9581C24.8192 21.3069 25.9111 22.4042 27.2532 22.4042H27.275V26.0274C27.275 26.2305 27.3557 26.4252 27.4992 26.5688C27.6428 26.7124 27.8376 26.793 28.0406 26.793H40.5011C40.5408 27.1936 40.5623 27.5974 40.5623 28ZM34.1101 17.1102C35.4522 17.1102 36.5441 16.0183 36.5441 14.6762V14.6543H39.4017V17.5119H39.38C38.0378 17.5119 36.9459 18.6038 36.9459 19.946C36.9459 21.2948 38.0378 22.392 39.38 22.392H39.4017V25.2618H28.8062V21.6385C28.8062 21.4355 28.7256 21.2407 28.582 21.0972C28.4384 20.9536 28.2437 20.8729 28.0406 20.8729H27.2532C26.7555 20.8729 26.3505 20.4625 26.3505 19.9581C26.3505 19.4537 26.7555 19.0432 27.2532 19.0432H28.0406C28.2437 19.0432 28.4384 18.9625 28.582 18.8189C28.7256 18.6753 28.8062 18.4806 28.8062 18.2775V14.6543H31.664V14.6762C31.664 16.0183 32.7612 17.1102 34.1101 17.1102ZM39.38 6.90452H40.1674C40.3704 6.90452 40.5652 6.82385 40.7087 6.68027C40.8523 6.53669 40.933 6.34195 40.933 6.13889V2.51562H43.7907V2.53739C43.7907 3.87953 44.888 4.97142 46.2368 4.97142C47.5789 4.97142 48.6708 3.87953 48.6708 2.53739V2.51562H51.5285V6.13889C51.5285 6.34195 51.6091 6.53669 51.7527 6.68027C51.8963 6.82385 52.091 6.90452 52.2941 6.90452H53.0815C53.5794 6.90452 53.9844 7.31489 53.9844 7.81933C53.9844 8.32377 53.5794 8.73425 53.0815 8.73425H52.2941C52.091 8.73425 51.8963 8.81491 51.7527 8.9585C51.6091 9.10208 51.5285 9.29682 51.5285 9.49988V13.1231H48.6708V13.1014C48.6708 11.7592 47.5789 10.6673 46.2368 10.6673C44.888 10.6673 43.7907 11.7592 43.7907 13.1014V13.1231H40.933V9.49988C40.933 9.29682 40.8523 9.10208 40.7087 8.9585C40.5652 8.81491 40.3704 8.73425 40.1674 8.73425H39.38C38.8822 8.73425 38.4772 8.32387 38.4772 7.81933C38.4772 7.31489 38.8822 6.90452 39.38 6.90452ZM53.9844 30.6249C53.9844 31.1535 53.5543 31.5836 53.0257 31.5836C50.3188 31.5836 47.9927 33.1395 46.9552 35.6442C45.9178 38.149 46.4622 40.8941 48.3763 42.8083C48.7501 43.182 48.7501 43.7904 48.3764 44.1641L44.6641 47.8763C44.4831 48.0573 44.2422 48.157 43.9861 48.157C43.7299 48.157 43.4892 48.0574 43.3083 47.8764C41.394 45.9622 38.649 45.4179 36.1442 46.4553C33.6395 47.4928 32.0836 49.8188 32.0836 52.5257C32.0836 53.0543 31.6535 53.4844 31.1249 53.4844H25.8751C25.3465 53.4844 24.9164 53.0543 24.9164 52.5257C24.9164 49.8158 23.3611 47.4882 20.8575 46.4511C18.3536 45.4141 15.608 45.9603 13.6918 47.8763C13.5108 48.0573 13.27 48.157 13.0138 48.157C12.7577 48.157 12.5169 48.0574 12.336 47.8764L8.62372 44.1641C8.24988 43.7904 8.24988 43.182 8.62372 42.8083C10.5378 40.8942 11.0824 38.1491 10.0447 35.6443C9.0073 33.1396 6.68122 31.5837 3.9743 31.5837C3.44569 31.5837 3.01562 31.1536 3.01562 30.625V25.3752C3.01562 24.8466 3.44569 24.4165 3.9743 24.4165C6.68122 24.4165 9.0073 22.8606 10.0447 20.3559C11.0822 17.8511 10.5378 15.106 8.62372 13.1919C8.24988 12.8182 8.24988 12.2099 8.62372 11.8361L12.336 8.12383C12.5169 7.94281 12.7577 7.84317 13.0138 7.84317C13.27 7.84317 13.5108 7.94292 13.6917 8.12383C15.6059 10.0379 18.351 10.5826 20.8558 9.54494C23.3605 8.50752 24.9164 6.18144 24.9164 3.47452C24.9164 2.94591 25.3465 2.51584 25.8751 2.51584H31.1249C31.6535 2.51584 32.0836 2.94591 32.0836 3.47452C32.0836 7.42656 35.2526 9.88848 38.3778 10.0478C38.6923 10.1915 39.0341 10.2659 39.38 10.2657H39.4017V13.1234H35.7785C35.5754 13.1234 35.3807 13.204 35.2371 13.3476C35.0935 13.4912 35.0128 13.6859 35.0128 13.889V14.6765C35.0128 15.1742 34.6078 15.5793 34.1101 15.5793C33.6056 15.5793 33.1953 15.1742 33.1953 14.6765V13.889C33.1953 13.6859 33.1146 13.4912 32.971 13.3476C32.8274 13.204 32.6327 13.1234 32.4296 13.1234H28.0406C27.8376 13.1234 27.6428 13.204 27.4992 13.3476C27.3557 13.4912 27.275 13.6859 27.275 13.889V14.4619C24.0272 14.7514 21.0157 16.1861 18.7291 18.5497C16.264 21.0978 14.9064 24.4542 14.9064 28.0003C14.9064 35.4959 21.0045 41.5939 28.5 41.5939C35.9955 41.5939 42.0936 35.4956 42.0936 28C42.0936 27.5977 42.0735 27.1942 42.0383 26.7932H43.7907V26.8149C43.7907 28.1571 44.888 29.249 46.2368 29.249C47.5789 29.249 48.6708 28.1571 48.6708 26.8149V26.7932H52.2941C52.4971 26.7932 52.6919 26.7125 52.8355 26.5689C52.9791 26.4253 53.0597 26.2306 53.0597 26.0275V24.4182C53.5725 24.4362 53.9844 24.858 53.9844 25.3751V30.6249Z" fill="#21409C"/>
</svg>
