<svg width="54" height="54" viewBox="0 0 54 54" fill="none" xmlns="http://www.w3.org/2000/svg">
<g clip-path="url(#clip0_4046_192)">
<path d="M51.6778 21.9275H48.4979C48.4463 21.9275 48.4009 21.8941 48.3899 21.8479C47.8483 19.5741 46.9502 17.4075 45.7205 15.4084C45.6932 15.3641 45.6986 15.3088 45.7334 15.2742L47.988 13.0195C48.1423 12.8661 48.2646 12.6835 48.3478 12.4825C48.4311 12.2815 48.4737 12.066 48.4731 11.8484C48.4731 11.406 48.3008 10.9901 47.988 10.6773L43.1565 5.84596C43.0031 5.69164 42.8206 5.5693 42.6196 5.48602C42.4186 5.40273 42.203 5.36017 41.9855 5.36078C41.5431 5.36078 41.1273 5.53303 40.8144 5.84586L38.5597 8.10053C38.5249 8.13531 38.4696 8.1407 38.4255 8.11337C36.4264 6.8837 34.2598 5.9856 31.986 5.44401C31.9399 5.43304 31.9064 5.38759 31.9064 5.33604V2.15615C31.9065 1.24293 31.1635 0.5 30.2503 0.5H23.4176C22.5044 0.5 21.7614 1.24293 21.7614 2.15615V5.33604C21.7614 5.3877 21.728 5.43304 21.6818 5.44401C19.408 5.98571 17.2414 6.8837 15.2423 8.11337C15.1981 8.1408 15.1426 8.13542 15.108 8.10053L12.8534 5.84586C12.6999 5.6916 12.5174 5.56929 12.3164 5.48603C12.1154 5.40277 11.8999 5.3602 11.6823 5.36078C11.4647 5.36017 11.2492 5.40273 11.0482 5.48599C10.8471 5.56926 10.6646 5.69157 10.5112 5.84586L5.68005 10.6774C5.52573 10.8308 5.40339 11.0133 5.3201 11.2144C5.23682 11.4154 5.19425 11.6309 5.19487 11.8485C5.19487 12.2908 5.36712 12.7067 5.67995 13.0196L7.93462 15.2743C7.9694 15.3089 7.97478 15.3642 7.94746 15.4085C6.71779 17.4076 5.81969 19.5742 5.2781 21.848C5.26713 21.8941 5.22168 21.9276 5.17003 21.9276H1.99013C1.07692 21.9275 0.333984 22.6705 0.333984 23.5837V30.4164C0.333984 31.3295 1.07692 32.0726 1.99013 32.0726H5.17003C5.22168 32.0726 5.26702 32.106 5.2781 32.1522C5.81969 34.426 6.71779 36.5926 7.94746 38.5917C7.97478 38.636 7.9694 38.6913 7.93462 38.7259L5.67995 40.9807C5.52568 41.1341 5.40338 41.3167 5.32011 41.5177C5.23685 41.7187 5.19428 41.9342 5.19487 42.1518C5.19487 42.5942 5.36712 43.0101 5.67995 43.3229L10.5114 48.1542C10.6648 48.3085 10.8473 48.4309 11.0484 48.5142C11.2494 48.5974 11.4649 48.64 11.6825 48.6394C12.1248 48.6394 12.5407 48.4672 12.8536 48.1544L15.1083 45.8997C15.1428 45.8647 15.1983 45.8593 15.2425 45.8868C17.2415 47.1164 19.4081 48.0146 21.6822 48.5563C21.7282 48.5673 21.7616 48.6127 21.7616 48.6643V51.8442C21.7616 52.7573 22.5045 53.5003 23.4178 53.5003H30.2505C31.1636 53.5003 31.9067 52.7574 31.9067 51.8442V48.6643C31.9067 48.6127 31.9401 48.5674 31.9863 48.5563C34.2602 48.0146 36.4267 47.1164 38.4258 45.8868C38.4699 45.8594 38.5254 45.8648 38.56 45.8997L40.8147 48.1544C40.9682 48.3086 41.1507 48.4309 41.3517 48.5141C41.5527 48.5974 41.7682 48.64 41.9858 48.6394C42.4282 48.6394 42.8441 48.4672 43.1567 48.1544L44.2964 47.0146C44.4417 46.8694 44.5234 46.6724 44.5234 46.4669C44.5234 46.2615 44.4418 46.0644 44.2966 45.9191C44.1513 45.7738 43.9543 45.6922 43.7488 45.6922C43.5434 45.6922 43.3463 45.7738 43.201 45.919L42.0611 47.0588C42.0354 47.0846 42.0059 47.0901 41.9857 47.0901C41.9655 47.0901 41.9361 47.0846 41.9102 47.0587L39.6555 44.8041C39.1112 44.2599 38.2716 44.1625 37.6139 44.5671C35.7552 45.7106 33.7409 46.5456 31.6273 47.0492C30.8796 47.2272 30.3572 47.8913 30.3572 48.6643V51.8442C30.3572 51.9031 30.3093 51.951 30.2504 51.951H23.4177C23.3893 51.951 23.3622 51.9397 23.3421 51.9197C23.3221 51.8996 23.3109 51.8725 23.3108 51.8442V48.6643C23.3108 47.8913 22.7886 47.2272 22.041 47.0492C19.9272 46.5456 17.9129 45.7106 16.0542 44.5671C15.3962 44.1627 14.5568 44.2599 14.0125 44.8041L11.7579 47.0587C11.7321 47.0846 11.7026 47.0901 11.6824 47.0901C11.6622 47.0901 11.6328 47.0846 11.6069 47.0587L6.77535 42.2273C6.74957 42.2015 6.74409 42.172 6.74409 42.1518C6.74409 42.1316 6.74957 42.1022 6.77545 42.0763L9.03013 39.8217C9.5742 39.2775 9.67161 38.438 9.26707 37.78C8.12353 35.9212 7.28858 33.9069 6.78508 31.7932C6.60693 31.0456 5.94277 30.5234 5.16992 30.5234H1.99013C1.96181 30.5233 1.93465 30.5121 1.91462 30.492C1.89459 30.472 1.88333 30.4449 1.8833 30.4165V23.5838C1.8833 23.5249 1.93123 23.4769 1.99013 23.4769H5.17003C5.94287 23.4769 6.60703 22.9548 6.78518 22.2071C7.28868 20.0934 8.12364 18.0791 9.26718 16.2203C9.67171 15.5624 9.57431 14.7228 9.03023 14.1787L6.77555 11.924C6.74968 11.8982 6.74419 11.8687 6.74419 11.8485C6.74419 11.8283 6.74968 11.7989 6.77555 11.7731L11.607 6.94147C11.6328 6.91569 11.6623 6.9102 11.6825 6.9102C11.7027 6.9102 11.7321 6.91569 11.758 6.94157L14.0126 9.19624C14.5569 9.74022 15.3963 9.83773 16.0543 9.43319C17.9131 8.28965 19.9274 7.4547 22.0411 6.9512C22.7887 6.77305 23.3109 6.10889 23.3109 5.33604V2.15615C23.3109 2.09725 23.3589 2.04932 23.4178 2.04932H30.2505C30.3094 2.04932 30.3573 2.09725 30.3573 2.15615V5.33604C30.3573 6.10889 30.8795 6.77305 31.6272 6.9512C33.7409 7.4547 35.7552 8.28965 37.614 9.43319C38.2719 9.83763 39.1114 9.74043 39.6556 9.19624L41.9103 6.94157C41.9361 6.91569 41.9656 6.9102 41.9858 6.9102C42.006 6.9102 42.0354 6.91569 42.0612 6.94157L46.8928 11.7731C46.9186 11.7988 46.9241 11.8283 46.9241 11.8485C46.9241 11.8687 46.9186 11.8981 46.8927 11.924L44.6381 14.1787C44.094 14.7228 43.9966 15.5624 44.4011 16.2203C45.5446 18.0791 46.3796 20.0934 46.8831 22.2071C47.0612 22.9547 47.7254 23.4769 48.4983 23.4769H51.6781C51.737 23.4769 51.785 23.5249 51.785 23.5838V30.4165C51.785 30.4754 51.737 30.5234 51.6781 30.5234H48.4983C47.7254 30.5234 47.0612 31.0455 46.8831 31.7932C46.3796 33.9069 45.5446 35.9212 44.4011 37.78C43.9966 38.438 44.094 39.2775 44.6381 39.8217L46.8927 42.0763C46.9186 42.1021 46.9241 42.1316 46.9241 42.1518C46.9241 42.172 46.9186 42.2014 46.8927 42.2273L45.74 43.38C45.5947 43.5253 45.5131 43.7223 45.5131 43.9278C45.5131 44.1333 45.5947 44.3303 45.74 44.4756C45.8853 44.6208 46.0823 44.7024 46.2878 44.7024C46.4932 44.7024 46.6903 44.6208 46.8356 44.4756L47.9882 43.3229C48.1425 43.1695 48.2649 42.987 48.3482 42.7859C48.4315 42.5849 48.474 42.3694 48.4734 42.1518C48.4734 41.7095 48.3012 41.2936 47.9883 40.9807L45.7337 38.7259C45.6989 38.6913 45.6935 38.636 45.7208 38.5917C46.9505 36.5926 47.8486 34.426 48.3902 32.1522C48.4012 32.1061 48.4466 32.0726 48.4983 32.0726H51.6781C52.5913 32.0726 53.3343 31.3296 53.3343 30.4164V23.5837C53.334 22.6705 52.5911 21.9275 51.6778 21.9275Z" fill="white"/>
<path d="M11.2816 23.8977C10.8584 23.8341 10.4647 24.1275 10.402 24.5507C10.2826 25.3616 10.2226 26.1802 10.2227 27C10.2227 36.1597 17.6746 43.6117 26.8344 43.6117C35.9942 43.6117 43.4462 36.1597 43.4462 27C43.4462 17.8402 35.9942 10.3882 26.8344 10.3882C23.4435 10.3882 20.1819 11.4034 17.4022 13.324C14.6874 15.1998 12.6099 17.8058 11.3935 20.8625L11.3622 20.942C11.3248 21.0366 11.3065 21.1377 11.3082 21.2394C11.3099 21.3411 11.3316 21.4415 11.3721 21.5348C11.4126 21.6281 11.4711 21.7126 11.5443 21.7833C11.6174 21.854 11.7037 21.9096 11.7984 21.9469C11.893 21.9843 11.9941 22.0026 12.0958 22.0009C12.1975 21.9992 12.2979 21.9775 12.3912 21.937C12.4845 21.8965 12.5689 21.838 12.6396 21.7648C12.7103 21.6917 12.766 21.6054 12.8033 21.5107L12.8338 21.4334C13.9361 18.6635 15.8204 16.3002 18.2828 14.5987C20.8025 12.8577 23.7595 11.9375 26.8344 11.9375C35.1399 11.9375 41.8969 18.6945 41.8969 27C41.8969 35.3054 35.1399 42.0624 26.8344 42.0624C18.529 42.0624 11.772 35.3054 11.772 27C11.772 26.2557 11.8267 25.5079 11.9347 24.7772C11.9496 24.6765 11.9445 24.574 11.9197 24.4753C11.8949 24.3766 11.851 24.2838 11.7903 24.2022C11.7297 24.1205 11.6535 24.0516 11.5663 23.9993C11.479 23.9471 11.3823 23.9126 11.2816 23.8977Z" fill="white"/>
<path d="M24.6331 35.042C24.6649 35.042 24.6968 35.0416 24.7285 35.0407C25.6226 35.015 26.4829 34.6236 27.0891 33.9669L35.7668 24.5679C36.3725 23.9119 36.6865 23.0594 36.651 22.1673C36.6154 21.2752 36.2347 20.4503 35.5786 19.8446C34.2245 18.5943 32.1054 18.6789 30.8552 20.033L24.497 26.9193L22.6796 25.1626C21.3542 23.8818 19.2339 23.9181 17.9531 25.2433C16.6723 26.5685 16.7084 28.6887 18.0336 29.9697L22.3102 34.1029C22.9325 34.7068 23.766 35.0437 24.6331 35.042ZM19.067 26.3199C19.2342 26.1468 19.4346 26.0092 19.6562 25.9153C19.8779 25.8215 20.1162 25.7733 20.3568 25.7738C20.8058 25.7738 21.2554 25.9409 21.603 26.2766L23.9903 28.584C24.0647 28.6555 24.1525 28.7115 24.2487 28.7488C24.3449 28.7861 24.4475 28.804 24.5507 28.8014C24.6539 28.7984 24.7554 28.7749 24.8494 28.7322C24.9433 28.6895 25.0278 28.6284 25.0979 28.5525L31.9935 21.0839C32.6644 20.3573 33.8012 20.3123 34.5276 20.9827C34.7011 21.1421 34.8413 21.3343 34.9401 21.5482C35.0388 21.7621 35.0941 21.9935 35.1028 22.229C35.1129 22.4643 35.0761 22.6994 34.9947 22.9205C34.9132 23.1415 34.7888 23.3443 34.6284 23.5169L25.9504 32.9161C25.7879 33.0912 25.5923 33.2323 25.3749 33.3312C25.1574 33.43 24.9225 33.4847 24.6838 33.4921C24.4449 33.4993 24.207 33.4585 23.9842 33.3721C23.7614 33.2857 23.5582 33.1554 23.3866 32.989L19.1102 28.8557C18.3994 28.1684 18.38 27.0308 19.067 26.3199Z" fill="white"/>
</g>
<defs>
<clipPath id="clip0_4046_192">
<rect width="53" height="53" fill="white" transform="translate(0.333984 0.5)"/>
</clipPath>
</defs>
</svg>
