<svg width="74" height="73" viewBox="0 0 74 73" fill="none" xmlns="http://www.w3.org/2000/svg">
<g clip-path="url(#clip0_4073_12938)">
<path d="M36.75 69.0078C36.4475 69.0078 36.1574 68.8876 35.9435 68.6737C35.7295 68.4598 35.6094 68.1697 35.6094 67.8672V35.9034C35.6113 35.8371 35.619 35.7711 35.6322 35.7061C35.6759 35.4838 35.7851 35.2796 35.9459 35.1198C35.9858 35.0804 36.0285 35.0438 36.0736 35.0103C36.1581 34.9481 36.2511 34.8982 36.3496 34.8621L64.8425 23.4638C65.0636 23.3757 65.3068 23.359 65.538 23.4161C65.7691 23.4731 65.9766 23.6011 66.1314 23.782L72.9751 31.7664C73.0901 31.9004 73.1724 32.0594 73.2155 32.2306C73.2586 32.4019 73.2614 32.5808 73.2235 32.7533C73.1857 32.9258 73.1084 33.0872 72.9976 33.2247C72.8868 33.3622 72.7455 33.4721 72.585 33.5458L66.4062 36.3768V54.1797C66.4062 54.3945 66.3454 54.6049 66.231 54.7867C66.1166 54.9686 65.9532 55.1144 65.7595 55.2074L37.2439 68.8949C37.0899 68.9695 36.9211 69.0081 36.75 69.0078ZM37.8906 38.9637V66.0536L64.125 53.4611V37.4239L45.218 46.0927C44.9945 46.195 44.7439 46.2225 44.5035 46.1711C44.2631 46.1197 44.0457 45.9922 43.8835 45.8075L37.8906 38.9637ZM38.6697 36.3894L45.0401 43.6631L64.7786 34.6145L64.8014 34.6031L70.2593 32.1017L64.9314 25.8853L38.6697 36.3894Z" fill="#21409C"/>
<path d="M36.7489 69.0075C36.5782 69.0076 36.4097 68.969 36.2561 68.8946L7.74048 55.2071C7.54685 55.1141 7.38341 54.9683 7.269 54.7864C7.15458 54.6046 7.09383 54.3942 7.09375 54.1794V35.6328C7.09375 35.3303 7.21392 35.0402 7.42783 34.8263C7.64174 34.6124 7.93186 34.4922 8.23438 34.4922C8.53689 34.4922 8.82701 34.6124 9.04092 34.8263C9.25483 35.0402 9.375 35.3303 9.375 35.6328V53.4619L37.2439 66.8403C37.4767 66.9524 37.6646 67.1403 37.7767 67.3731C37.8889 67.6059 37.9186 67.8699 37.8611 68.1219C37.8036 68.3738 37.6622 68.5988 37.4601 68.7599C37.2581 68.921 37.0073 69.0075 36.7489 69.0075Z" fill="#21409C"/>
<path d="M28.7659 46.1949C28.6018 46.1954 28.4396 46.1604 28.2903 46.0923L0.915296 33.5294C0.754936 33.4554 0.61393 33.3452 0.503366 33.2075C0.392803 33.0698 0.315696 32.9083 0.278109 32.7357C0.240523 32.5631 0.243481 32.3842 0.286752 32.213C0.330024 32.0417 0.412427 31.8829 0.527484 31.7489L7.38948 23.7794C7.54452 23.5988 7.75213 23.4713 7.98326 23.4146C8.21438 23.358 8.45744 23.375 8.67839 23.4634L37.1746 34.8696C37.3438 34.9375 37.4943 35.0449 37.6134 35.1829C37.7325 35.3209 37.8168 35.4854 37.8593 35.6627C37.9017 35.84 37.9011 36.0248 37.8574 36.2018C37.8137 36.3788 37.7282 36.5427 37.6081 36.6798L29.6237 45.8048C29.5168 45.9272 29.3849 46.0253 29.237 46.0926C29.089 46.1599 28.9284 46.1947 28.7659 46.1949ZM3.24445 32.0888L28.4682 43.6627L34.8306 36.389L8.58828 25.8849L3.24445 32.0888Z" fill="#21409C"/>
<path d="M8.2573 25.6638C7.99566 25.6636 7.74202 25.5736 7.5389 25.4087C7.33577 25.2438 7.19552 25.0141 7.14164 24.758C7.08776 24.502 7.12353 24.2352 7.24297 24.0025C7.3624 23.7697 7.55823 23.585 7.79762 23.4795L14.63 20.4682C14.9051 20.3562 15.213 20.3559 15.4883 20.4674C15.7636 20.5789 15.9846 20.7935 16.1042 21.0653C16.2238 21.3372 16.2326 21.6451 16.1288 21.9234C16.0249 22.2017 15.8166 22.4285 15.5482 22.5556L8.71583 25.5668C8.57175 25.6305 8.41484 25.6635 8.2573 25.6638ZM65.2646 25.6638C65.1063 25.6636 64.9498 25.6306 64.8049 25.5668C63.4772 24.979 62.1473 24.3935 60.815 23.8103C59.4828 23.2263 58.1513 22.6407 56.8205 22.0537C56.6835 21.9932 56.5597 21.9063 56.4562 21.7979C56.3528 21.6895 56.2717 21.5619 56.2175 21.4222C56.1082 21.14 56.1155 20.826 56.2377 20.5492C56.3599 20.2724 56.5871 20.0555 56.8692 19.9462C57.0089 19.8921 57.1579 19.866 57.3077 19.8694C57.4575 19.8729 57.6051 19.9058 57.7422 19.9663C59.0699 20.5541 60.3998 21.1393 61.7321 21.7218C63.0643 22.3065 64.3958 22.892 65.7265 23.4783C65.9667 23.5835 66.1633 23.7682 66.2833 24.0014C66.4032 24.2346 66.4391 24.5019 66.385 24.7585C66.331 25.015 66.1901 25.2451 65.9862 25.41C65.7824 25.5749 65.5268 25.6645 65.2646 25.6638Z" fill="#21409C"/>
<path d="M33.3281 35.7073C33.0256 35.7073 32.7355 35.5872 32.5216 35.3732C32.3077 35.1593 32.1875 34.8692 32.1875 34.5667V21.1016C32.1875 20.8623 32.2629 20.629 32.4029 20.4349C32.543 20.2409 32.7406 20.0958 32.9677 20.0203L56.9208 12.0359C57.0922 11.9786 57.2748 11.9628 57.4534 11.99C57.6321 12.0171 57.8018 12.0863 57.9484 12.192C58.0951 12.2976 58.2145 12.4366 58.2968 12.5975C58.3791 12.7584 58.422 12.9365 58.4219 13.1173V27.7173C58.4219 28.0198 58.3017 28.3099 58.0878 28.5238C57.8739 28.7377 57.5838 28.8579 57.2812 28.8579C56.9787 28.8579 56.6886 28.7377 56.4747 28.5238C56.2608 28.3099 56.1406 28.0198 56.1406 27.7173V14.7004L34.4688 21.9229V34.5656C34.4688 34.8681 34.3486 35.1582 34.1347 35.3721C33.9208 35.586 33.6306 35.7073 33.3281 35.7073Z" fill="#21409C"/>
<path d="M15.0941 28.4083C14.7918 28.4083 14.5018 28.2883 14.288 28.0746C14.0741 27.861 13.9538 27.5711 13.9535 27.2688L13.9375 13.1182C13.9374 12.9288 13.9845 12.7423 14.0745 12.5756C14.1646 12.4089 14.2947 12.2673 14.4531 12.1635C14.6116 12.0597 14.7934 11.997 14.9822 11.9811C15.171 11.9652 15.3608 11.9965 15.5344 12.0723L33.7844 20.0567C34.0523 20.1836 34.2602 20.4098 34.3642 20.6874C34.4682 20.965 34.4599 21.2722 34.3413 21.5439C34.2227 21.8156 34.0029 22.0304 33.7286 22.1428C33.4544 22.2553 33.1471 22.2565 32.8719 22.1463L16.221 14.8611L16.2347 27.2665C16.2349 27.4164 16.2055 27.5649 16.1482 27.7034C16.091 27.8419 16.007 27.9678 15.901 28.0738C15.7951 28.1799 15.6693 28.264 15.5309 28.3214C15.3924 28.3788 15.244 28.4083 15.0941 28.4083Z" fill="#21409C"/>
<path d="M57.2813 14.2576C57.1531 14.2576 57.0259 14.236 56.9049 14.1938L34.503 6.35311L15.5116 14.1732C15.373 14.2302 15.2246 14.2592 15.0748 14.2588C14.925 14.2584 14.7768 14.2284 14.6386 14.1707C14.5004 14.113 14.3749 14.0286 14.2692 13.9224C14.1636 13.8161 14.08 13.6901 14.0231 13.5516C13.9081 13.2718 13.909 12.9577 14.0256 12.6786C14.1422 12.3994 14.3649 12.178 14.6447 12.0631L34.0353 4.0787C34.2934 3.97246 34.5815 3.96435 34.8452 4.05589L57.6577 12.0403C57.912 12.1292 58.1267 12.3052 58.2636 12.5372C58.4006 12.7693 58.451 13.0423 58.4059 13.3079C58.3608 13.5735 58.2231 13.8146 58.0173 13.9885C57.8114 14.1623 57.5507 14.2577 57.2813 14.2576ZM40.1719 62.1639C39.9093 62.1638 39.6547 62.0731 39.4512 61.9071C39.2477 61.7411 39.1077 61.5099 39.0549 61.2527C39.002 60.9954 39.0396 60.7278 39.1613 60.495C39.2829 60.2622 39.4811 60.0786 39.7225 59.975L47.7069 56.5532C47.984 56.439 48.2949 56.4385 48.5723 56.5517C48.8498 56.665 49.0716 56.8829 49.1897 57.1583C49.3078 57.4338 49.3127 57.7447 49.2034 58.0237C49.0941 58.3028 48.8794 58.5276 48.6057 58.6496L40.6213 62.0715C40.4795 62.1329 40.3265 62.1644 40.1719 62.1639ZM40.1719 57.6014C39.9093 57.6013 39.6547 57.5106 39.4512 57.3446C39.2477 57.1786 39.1077 56.9474 39.0549 56.6902C39.002 56.4329 39.0396 56.1653 39.1613 55.9325C39.2829 55.6997 39.4811 55.5161 39.7225 55.4125L47.7069 51.9907C47.984 51.8765 48.2949 51.876 48.5723 51.9892C48.8498 52.1025 49.0716 52.3204 49.1897 52.5958C49.3078 52.8713 49.3127 53.1822 49.2034 53.4612C49.0941 53.7403 48.8794 53.9651 48.6057 54.0871L40.6213 57.509C40.4795 57.5704 40.3265 57.6019 40.1719 57.6014ZM32.1875 59.8826C32.0426 59.8829 31.8989 59.8554 31.7643 59.8017L26.0612 57.5204C25.8494 57.4358 25.6678 57.2896 25.5399 57.1007C25.412 56.9118 25.3437 56.6889 25.3438 56.4608V50.7576C25.3437 50.5712 25.3893 50.3877 25.4766 50.223C25.5639 50.0583 25.6902 49.9175 25.8445 49.813C25.9989 49.7084 26.1764 49.6432 26.3618 49.6232C26.5471 49.6032 26.7345 49.6288 26.9076 49.698L32.6107 51.9792C32.8225 52.0639 33.0041 52.2101 33.132 52.399C33.2599 52.5879 33.3282 52.8108 33.3281 53.0389V58.742C33.3281 59.0445 33.208 59.3347 32.9941 59.5486C32.7802 59.7625 32.49 59.8826 32.1875 59.8826ZM27.625 55.6886L31.0469 57.0573V53.8111L27.625 52.4423V55.6886Z" fill="#21409C"/>
<path d="M43.5941 34.3461C43.2916 34.3461 43.0014 34.226 42.7875 34.0121C42.5736 33.7982 42.4535 33.508 42.4535 33.2055V18.4253L23.9445 10.3223C23.8073 10.2622 23.6833 10.1756 23.5796 10.0675C23.4758 9.95945 23.3944 9.832 23.3399 9.69246C23.2854 9.55291 23.2589 9.404 23.262 9.25422C23.265 9.10445 23.2975 8.95674 23.3577 8.81953C23.4178 8.68232 23.5044 8.55831 23.6125 8.45456C23.7205 8.35081 23.848 8.26936 23.9875 8.21487C24.1271 8.16038 24.276 8.1339 24.4258 8.13696C24.5755 8.14001 24.7232 8.17254 24.8605 8.23268L44.0515 16.6345C44.2546 16.7234 44.4274 16.8696 44.5487 17.0552C44.6701 17.2407 44.7347 17.4576 44.7347 17.6793V33.2055C44.7347 33.508 44.6145 33.7982 44.4006 34.0121C44.1867 34.226 43.8966 34.3461 43.5941 34.3461Z" fill="#21409C"/>
</g>
<defs>
<clipPath id="clip0_4073_12938">
<rect width="73" height="73" fill="white" transform="translate(0.25)"/>
</clipPath>
</defs>
</svg>
