<svg width="57" height="56" viewBox="0 0 57 56" fill="none" xmlns="http://www.w3.org/2000/svg">
<path d="M53.8691 38.3753C55.5402 36.7041 56.2454 34.4378 55.8547 31.9939L54.0907 20.9168C53.8594 19.4546 52.5605 18.8053 51.3951 18.9194C50.2463 19.0322 49.1131 19.9104 49.1697 21.3703L49.4451 28.5439C49.2522 28.4185 49.0466 28.314 48.8317 28.2319C47.6488 27.7792 46.361 28.0511 45.4707 28.9415L40.0767 34.3385L39.0418 34.6152C37.8244 34.9391 36.8417 35.5056 35.9496 36.3978L33.4563 38.8911C32.1414 40.2093 31.4625 41.8461 31.4382 43.7563L31.3705 49.5558C30.5728 49.7981 29.9904 50.5398 29.9904 51.4157V53.617C29.9904 54.6906 30.8624 55.5641 31.9343 55.5641H44.0909C45.1645 55.5641 46.038 54.6906 46.038 53.617V51.4157C46.038 50.518 45.4244 49.7625 44.5946 49.5402L44.5637 49.0912C44.5026 48.2165 44.7867 47.4579 45.4084 46.8363L53.8694 38.3754L53.8691 38.3753ZM44.7233 53.6171C44.7231 53.7848 44.6564 53.9456 44.5378 54.0641C44.4193 54.1827 44.2585 54.2494 44.0908 54.2496H31.9342C31.5872 54.2496 31.3049 53.9659 31.3049 53.6171V51.4158C31.3049 51.0747 31.5931 50.7865 31.9342 50.7865H44.0909C44.4397 50.7865 44.7234 51.0689 44.7234 51.4158V53.6171H44.7233ZM44.4786 45.9067C43.5887 46.7968 43.1645 47.9297 43.2522 49.1822L43.2721 49.4719H32.686L32.7527 43.7724C32.7727 42.195 33.3072 40.9019 34.3864 39.8201L36.8792 37.3274C37.6107 36.5957 38.382 36.1511 39.3807 35.8853L40.5867 35.5629C40.6984 35.5331 40.8003 35.4743 40.882 35.3925L46.4006 29.8708C47.02 29.2512 47.82 29.2523 48.3621 29.4596C49.0608 29.7269 49.502 30.3299 49.5426 31.0726L49.5427 31.0741V31.0754C49.5579 31.3342 49.5182 31.5934 49.4261 31.8358C49.3341 32.0782 49.1917 32.2983 49.0085 32.4818L43.837 37.6533C43.7138 37.7766 43.6445 37.9438 43.6445 38.1181C43.6446 38.2925 43.7138 38.4596 43.8371 38.5829C43.9604 38.7062 44.1276 38.7754 44.3019 38.7754C44.4763 38.7754 44.6435 38.7061 44.7667 38.5829L49.9382 33.4114C50.2504 33.0987 50.4933 32.724 50.6514 32.3114C50.8094 31.8988 50.879 31.4576 50.8556 31.0164V31.0115L50.4835 21.3194C50.4553 20.5917 51.0263 20.2764 51.5237 20.2276C52.0363 20.178 52.6754 20.3814 52.7928 21.1228L54.5569 32.2008C54.8839 34.247 54.3248 36.0607 52.9398 37.4456L44.4789 45.9065L44.4786 45.9067ZM25.6334 49.5565L25.5628 43.7559C25.5386 41.8428 24.8595 40.2059 23.5442 38.8906L21.0514 36.3979C20.1597 35.5061 19.1782 34.9397 17.9629 34.6155L16.9272 34.3387L11.5301 28.9415C10.6398 28.0513 9.35187 27.7793 8.1692 28.2321C7.95426 28.3141 7.74861 28.4186 7.55571 28.544L7.83112 21.3707C7.88778 19.9116 6.75596 19.0332 5.60884 18.9199C4.44454 18.8045 3.14374 19.4535 2.91023 20.9163L1.14623 31.9936C0.755541 34.4378 1.46068 36.7041 3.13193 38.3754L11.5949 46.8353C12.2151 47.458 12.4986 48.2171 12.4373 49.0919L12.4065 49.5404C11.5784 49.7631 10.9662 50.5183 10.9662 51.4157V53.617C10.9662 54.6906 11.8383 55.5641 12.9102 55.5641H25.0668C26.1404 55.5641 27.0137 54.6906 27.0137 53.617V51.4157C27.0137 50.5406 26.4313 49.7992 25.6333 49.5563L25.6334 49.5565ZM4.0614 37.4457C2.67639 36.0608 2.11726 34.2472 2.4444 32.2006L4.2084 21.1231C4.32685 20.3812 4.96746 20.1776 5.47956 20.2278C5.97612 20.2769 6.54585 20.5923 6.51764 21.3198L6.14554 31.0116V31.0164C6.10146 31.9077 6.43462 32.7792 7.06167 33.41L7.06396 33.4124L12.2376 38.583C12.3659 38.7113 12.534 38.7754 12.7022 38.7754C12.8705 38.7754 13.0388 38.7112 13.1671 38.5828C13.2903 38.4595 13.3595 38.2922 13.3595 38.1179C13.3594 37.9436 13.2902 37.7764 13.1669 37.6532L7.9931 32.4824C7.62495 32.1116 7.43015 31.5977 7.45848 31.0725C7.49906 30.3298 7.94028 29.7268 8.63896 29.4595C9.18103 29.2521 9.981 29.2511 10.6005 29.8707L16.1223 35.3925C16.204 35.4742 16.3058 35.5329 16.4174 35.5627L17.6237 35.8851C18.62 36.151 19.3904 36.5957 20.1218 37.3271L22.6146 39.8199C23.694 40.8992 24.2283 42.192 24.2483 43.7718L24.3178 49.4717H13.7288L13.7487 49.1827C13.8364 47.9309 13.4136 46.7983 12.5253 45.9064L4.06129 37.4455L4.0614 37.4457ZM25.6994 53.6171C25.6992 53.7848 25.6325 53.9456 25.5139 54.0641C25.3953 54.1827 25.2346 54.2494 25.0669 54.2496H12.9102C12.5631 54.2496 12.2808 53.9659 12.2808 53.6171V51.4158C12.2808 51.0747 12.569 50.7865 12.9102 50.7865H25.0669C25.4156 50.7865 25.6994 51.0689 25.6994 51.4158V53.6171ZM32.4851 32.2972C32.5925 32.2191 32.6737 32.1104 32.7181 31.9852C32.7624 31.8601 32.7678 31.7245 32.7336 31.5962L31.7395 27.8684L34.7329 25.4363C34.8359 25.3526 34.9111 25.2397 34.9487 25.1124C34.9863 24.9851 34.9845 24.8494 34.9435 24.7231C34.9025 24.5969 34.8242 24.486 34.719 24.4051C34.6138 24.3242 34.4865 24.277 34.354 24.2698L30.5031 24.0604L29.1152 20.4607C29.0674 20.3369 28.9833 20.2304 28.8739 20.1553C28.7644 20.0802 28.6348 20.04 28.5021 20.04H28.5019C28.3692 20.04 28.2396 20.0801 28.1302 20.1552C28.0208 20.2302 27.9366 20.3366 27.8889 20.4604L26.4979 24.0605L22.6468 24.2699C22.5144 24.2773 22.3872 24.3245 22.2821 24.4054C22.1769 24.4863 22.0987 24.5972 22.0577 24.7234C22.0167 24.8496 22.0149 24.9852 22.0524 25.1125C22.0899 25.2397 22.1651 25.3527 22.268 25.4364L25.2616 27.8687L24.2702 31.5969C24.2361 31.7251 24.2417 31.8607 24.2861 31.9857C24.3305 32.1107 24.4117 32.2194 24.5191 32.2974C24.6264 32.3754 24.7548 32.4191 24.8875 32.4227C25.0201 32.4264 25.1508 32.3898 25.2622 32.3178L28.5018 30.2232L31.7414 32.3178C31.8528 32.3899 31.9835 32.4265 32.1162 32.4229C32.2489 32.4193 32.3774 32.3755 32.4848 32.2974L32.4851 32.2972ZM28.859 28.8883C28.7527 28.8195 28.6288 28.783 28.5022 28.783C28.3756 28.783 28.2517 28.8195 28.1453 28.8883L25.9784 30.2893L26.6415 27.7954C26.6741 27.673 26.6706 27.5438 26.6314 27.4233C26.5923 27.3029 26.5191 27.1963 26.4208 27.1164L24.419 25.4899L26.9938 25.3499C27.1203 25.343 27.242 25.2998 27.3444 25.2254C27.4469 25.151 27.5256 25.0486 27.5712 24.9305L28.5015 22.5226L29.4297 24.93C29.4753 25.0482 29.5541 25.1507 29.6565 25.2252C29.759 25.2997 29.8808 25.343 30.0073 25.3498L32.5822 25.4898L30.5804 27.1163C30.482 27.1962 30.4088 27.3029 30.3697 27.4235C30.3306 27.544 30.3271 27.6733 30.3597 27.7958L31.0244 30.2883L28.859 28.8883ZM45.7206 22.2921C45.6795 22.1659 45.6012 22.055 45.496 21.9741C45.3907 21.8933 45.2634 21.8461 45.1308 21.839L42.2725 21.6852L41.2443 19.0161C41.1966 18.8922 41.1125 18.7857 41.003 18.7106C40.8936 18.6354 40.764 18.5952 40.6313 18.5951H40.631C40.4983 18.5951 40.3688 18.6353 40.2593 18.7103C40.1499 18.7854 40.0657 18.8918 40.0179 19.0156L38.9867 21.6852L36.128 21.8391C35.9954 21.8462 35.8681 21.8934 35.7629 21.9742C35.6576 22.0551 35.5793 22.1659 35.5383 22.2922C35.4972 22.4184 35.4954 22.5541 35.5329 22.6814C35.5705 22.8087 35.6457 22.9217 35.7487 23.0055L37.9702 24.8113L37.2334 27.5751C37.1993 27.7034 37.2047 27.839 37.2491 27.9641C37.2935 28.0892 37.3747 28.1979 37.482 28.276C37.5894 28.354 37.7178 28.3978 37.8505 28.4014C37.9832 28.4051 38.1139 28.3685 38.2253 28.2965L40.6307 26.7415L43.0331 28.2963C43.1446 28.3685 43.2753 28.4052 43.408 28.4016C43.5408 28.3981 43.6693 28.3544 43.7768 28.2763C43.8842 28.1982 43.9654 28.0894 44.0098 27.9643C44.0542 27.8391 44.0596 27.7034 44.0253 27.5751L43.2885 24.8113L45.51 23.0055C45.613 22.9217 45.6883 22.8088 45.7258 22.6815C45.7634 22.5542 45.7615 22.4185 45.7205 22.2922L45.7206 22.2921ZM42.1294 24.0595C42.0311 24.1394 41.9579 24.2461 41.9188 24.3666C41.8797 24.4871 41.8762 24.6164 41.9089 24.7388L42.3161 26.266L40.9882 25.4067C40.8818 25.3378 40.7579 25.3012 40.6312 25.3011C40.5046 25.3011 40.3806 25.3377 40.2743 25.4065L38.9426 26.2673L39.3502 24.7388C39.3828 24.6164 39.3793 24.4871 39.3402 24.3666C39.3011 24.2461 39.228 24.1394 39.1297 24.0595L37.9003 23.0601L39.4821 22.9751C39.6086 22.9682 39.7304 22.925 39.8329 22.8506C39.9354 22.7762 40.0142 22.6738 40.0599 22.5556L40.6303 21.0788L41.1989 22.555C41.2445 22.6733 41.3233 22.7759 41.4259 22.8505C41.5285 22.925 41.6504 22.9683 41.777 22.9752L43.3587 23.0603L42.1294 24.0596V24.0595ZM21.4632 22.2921C21.4221 22.1659 21.3438 22.055 21.2385 21.9741C21.1333 21.8933 21.006 21.8461 20.8734 21.839L18.0151 21.6852L16.9869 19.0161C16.9392 18.8922 16.8551 18.7857 16.7456 18.7106C16.6362 18.6354 16.5066 18.5952 16.3739 18.5951H16.3735C16.2408 18.5951 16.1112 18.6353 16.0018 18.7103C15.8924 18.7854 15.8082 18.8918 15.7604 19.0156L14.7292 21.6853L11.8735 21.8391C11.741 21.8462 11.6137 21.8933 11.5084 21.9741C11.4031 22.0549 11.3248 22.1658 11.2837 22.292C11.2427 22.4182 11.2408 22.5539 11.2783 22.6812C11.3158 22.8085 11.391 22.9215 11.494 23.0052L13.7132 24.8113L12.9789 27.5756C12.9448 27.7038 12.9504 27.8394 12.9949 27.9645C13.0393 28.0895 13.1206 28.1981 13.228 28.2761C13.3354 28.3541 13.4638 28.3977 13.5965 28.4013C13.7292 28.4049 13.8598 28.3682 13.9712 28.2961L16.3734 26.7415L18.7756 28.2961C18.8871 28.3683 19.0178 28.4051 19.1505 28.4015C19.2833 28.398 19.4118 28.3543 19.5192 28.2762C19.6267 28.1981 19.7079 28.0893 19.7523 27.9642C19.7966 27.839 19.802 27.7033 19.7678 27.575L19.031 24.8112L21.2525 23.0053C21.3555 22.9216 21.4308 22.8087 21.4684 22.6814C21.5059 22.5541 21.504 22.4183 21.463 22.2921H21.4632ZM17.872 24.0595C17.7736 24.1394 17.7005 24.2461 17.6614 24.3666C17.6223 24.4871 17.6188 24.6164 17.6515 24.7388L18.0587 26.266L16.7307 25.4067C16.6244 25.3378 16.5004 25.3012 16.3736 25.3012C16.2469 25.3012 16.1229 25.3378 16.0165 25.4067L14.6866 26.2673L15.0929 24.7383C15.1253 24.616 15.1218 24.4869 15.0827 24.3665C15.0436 24.2462 14.9706 24.1396 14.8725 24.0597L13.6442 23.0601L15.2245 22.9751C15.351 22.9682 15.4728 22.925 15.5753 22.8506C15.6779 22.7762 15.7567 22.6737 15.8024 22.5556L16.3728 21.0788L16.9414 22.555C16.987 22.6733 17.0658 22.7759 17.1684 22.8505C17.2709 22.925 17.3929 22.9683 17.5194 22.9752L19.1012 23.0603L17.8719 24.0596L17.872 24.0595ZM11.1525 15.2064H19.5949V18.4463C19.5949 18.5326 19.6119 18.618 19.645 18.6978C19.678 18.7775 19.7264 18.85 19.7874 18.911C19.8485 18.972 19.9209 19.0204 20.0007 19.0535C20.0804 19.0865 20.1659 19.1035 20.2522 19.1035H36.7494C36.8357 19.1035 36.9212 19.0865 37.0009 19.0535C37.0807 19.0204 37.1531 18.972 37.2142 18.911C37.2752 18.85 37.3236 18.7775 37.3566 18.6978C37.3897 18.618 37.4067 18.5326 37.4067 18.4463V15.2064H45.8522C46.0265 15.2064 46.1936 15.1371 46.3169 15.0139C46.4402 14.8906 46.5094 14.7234 46.5094 14.5491V11.923C46.5094 11.9151 46.5094 11.9071 46.509 11.8991C46.4435 10.1027 45.1416 8.68936 43.0241 8.02032C43.5468 7.39218 43.8615 6.58564 43.8615 5.70682C43.8615 3.70657 42.2344 2.07929 40.2341 2.07929C38.2339 2.07929 36.6098 3.70657 36.6098 5.70682C36.6098 6.58521 36.924 7.39141 37.4458 8.01933C36.1285 8.43375 35.1217 9.13616 34.5359 10.0536C33.818 9.61839 32.9802 9.26643 32.0383 9.01235C32.952 8.10268 33.5187 6.84421 33.5187 5.45558C33.5187 2.68785 31.2683 0.436035 28.5023 0.436035C25.7364 0.436035 23.4828 2.68774 23.4828 5.45558C23.4828 6.8441 24.0497 8.10246 24.9639 9.01213C24.0218 9.26621 23.1839 9.61829 22.4657 10.0536C21.8799 9.13583 20.873 8.43343 19.5559 8.01922C20.0775 7.3913 20.3917 6.5851 20.3917 5.70682C20.3917 3.70657 18.7659 2.07929 16.7674 2.07929C14.7689 2.07929 13.14 3.70657 13.14 5.70682C13.14 6.58597 13.4551 7.39272 13.978 8.02097C11.8621 8.69013 10.5611 10.103 10.4957 11.8992C10.4954 11.9072 10.4953 11.9152 10.4953 11.9231V14.5492C10.4953 14.7235 10.5645 14.8907 10.6878 15.014C10.811 15.1372 10.9782 15.2065 11.1525 15.2065V15.2064ZM40.2339 3.39375C41.5092 3.39375 42.5467 4.43139 42.5467 5.70671C42.5467 6.98202 41.5092 8.01649 40.2339 8.01649C38.9586 8.01649 37.924 6.98027 37.924 5.70671C37.924 4.43314 38.9602 3.39375 40.2339 3.39375ZM38.8167 9.04221C39.2523 9.22793 39.7313 9.33096 40.2339 9.33096C40.7365 9.33096 41.2184 9.22738 41.6551 9.04089C43.3559 9.33402 45.1249 10.2349 45.1946 11.9355V13.8917H37.3363C37.1387 12.7161 36.5366 11.6784 35.5986 10.8373C36.1253 9.9545 37.2859 9.30318 38.8167 9.04221ZM24.797 5.45547C24.797 3.41257 26.4591 1.7505 28.502 1.7505C30.5449 1.7505 32.2039 3.41257 32.2039 5.45547C32.2039 7.49838 30.5433 9.16055 28.502 9.16055C26.4607 9.16055 24.797 7.49849 24.797 5.45547ZM28.502 10.475C29.2076 10.4754 29.9052 10.3259 30.5486 10.0364C33.1963 10.4708 35.9861 11.8828 36.0918 14.5983V17.7888H20.9092V14.5983C21.015 11.8823 23.8056 10.4703 26.4536 10.0362C27.0977 10.3258 27.7959 10.4753 28.502 10.4749V10.475ZM16.7671 3.39375C18.0407 3.39375 19.0769 4.43139 19.0769 5.70671C19.0769 6.98202 18.0407 8.01649 16.7671 8.01649C15.4934 8.01649 14.4542 6.98027 14.4542 5.70671C14.4542 4.43314 15.4917 3.39375 16.7671 3.39375ZM11.8095 11.9357C11.8792 10.2354 13.6466 9.33468 15.3467 9.04133C15.7832 9.2276 16.2633 9.33107 16.7672 9.33107C17.2711 9.33107 17.7489 9.22803 18.1845 9.04221C19.7152 9.30285 20.8757 9.95418 21.4025 10.8374C20.4645 11.6786 19.8624 12.7162 19.6647 13.8918H11.8094L11.8095 11.9357Z" fill="#21409C"/>
</svg>
