<svg width="57" height="56" viewBox="0 0 57 56" fill="none" xmlns="http://www.w3.org/2000/svg">
<path d="M16.4162 22.021C16.4162 21.802 16.3292 21.592 16.1743 21.4372C16.0195 21.2823 15.8095 21.1953 15.5905 21.1953H9.65189C9.4329 21.1953 9.22287 21.2823 9.06802 21.4372C8.91317 21.592 8.82617 21.802 8.82617 22.021V27.9595C8.82617 28.1785 8.91317 28.3885 9.06802 28.5434C9.22287 28.6982 9.4329 28.7852 9.65189 28.7852H15.5905C15.8095 28.7852 16.0195 28.6982 16.1743 28.5434C16.3292 28.3885 16.4162 28.1785 16.4162 27.9595V22.021ZM14.7647 27.1338H10.4776V22.8467H14.7647V27.1338ZM27.0024 22.021C27.0024 21.9126 26.9811 21.8052 26.9396 21.705C26.8981 21.6049 26.8373 21.5138 26.7606 21.4372C26.6839 21.3605 26.5929 21.2997 26.4927 21.2582C26.3925 21.2167 26.2852 21.1953 26.1767 21.1953H20.2382C20.0192 21.1953 19.8091 21.2823 19.6543 21.4372C19.4994 21.592 19.4124 21.802 19.4124 22.021V27.9595C19.4124 28.1785 19.4994 28.3885 19.6543 28.5434C19.8091 28.6982 20.0192 28.7852 20.2382 28.7852H26.1767C26.2852 28.7852 26.3925 28.7638 26.4927 28.7223C26.5929 28.6809 26.6839 28.62 26.7606 28.5434C26.8373 28.4667 26.8981 28.3757 26.9396 28.2755C26.9811 28.1753 27.0024 28.0679 27.0024 27.9595V22.021ZM25.351 27.1338H21.0639V22.8467H25.351V27.1338ZM37.5886 22.021C37.5886 21.802 37.5016 21.592 37.3467 21.4372C37.1919 21.2823 36.9819 21.1953 36.7629 21.1953H30.8243C30.7159 21.1953 30.6085 21.2166 30.5083 21.2581C30.4081 21.2996 30.3171 21.3604 30.2404 21.4371C30.1637 21.5138 30.1029 21.6048 30.0614 21.705C30.0199 21.8052 29.9986 21.9126 29.9986 22.021V27.9595C29.9986 28.4156 30.3682 28.7852 30.8243 28.7852H36.7629C36.9819 28.7852 37.1919 28.6982 37.3467 28.5434C37.5016 28.3885 37.5886 28.1785 37.5886 27.9595V22.021ZM35.9371 27.1338H31.65V22.8467H35.9371V27.1338ZM41.4106 28.7852H47.3491C47.8053 28.7852 48.1748 28.4156 48.1748 27.9595V22.021C48.1748 21.5649 47.8053 21.1953 47.3491 21.1953H41.4106C41.3021 21.1953 41.1947 21.2166 41.0946 21.2581C40.9944 21.2996 40.9033 21.3604 40.8267 21.4371C40.75 21.5138 40.6892 21.6048 40.6477 21.705C40.6062 21.8052 40.5848 21.9126 40.5848 22.021V27.9595C40.5848 28.4156 40.9544 28.7852 41.4106 28.7852ZM42.2363 22.8467H46.5234V27.1338H42.2363V22.8467ZM16.4162 32.7681C16.4162 32.5491 16.3292 32.3391 16.1743 32.1843C16.0195 32.0294 15.8095 31.9424 15.5905 31.9424H9.65189C9.4329 31.9424 9.22287 32.0294 9.06802 32.1843C8.91317 32.3391 8.82617 32.5491 8.82617 32.7681V38.7066C8.82617 38.9256 8.91317 39.1356 9.06802 39.2905C9.22287 39.4453 9.4329 39.5323 9.65189 39.5323H15.5905C15.8095 39.5323 16.0195 39.4453 16.1743 39.2905C16.3292 39.1356 16.4162 38.9256 16.4162 38.7066V32.7681ZM14.7647 37.8809H10.4776V33.5939H14.7647V37.8809ZM27.0024 32.7681C27.0024 32.6597 26.9811 32.5523 26.9396 32.4521C26.8981 32.352 26.8373 32.2609 26.7606 32.1843C26.6839 32.1076 26.5929 32.0468 26.4927 32.0053C26.3925 31.9638 26.2852 31.9424 26.1767 31.9424H20.2382C20.0192 31.9424 19.8091 32.0294 19.6543 32.1843C19.4994 32.3391 19.4124 32.5491 19.4124 32.7681V38.7066C19.4124 38.9256 19.4994 39.1356 19.6543 39.2905C19.8091 39.4453 20.0192 39.5323 20.2382 39.5323H26.1767C26.2852 39.5323 26.3925 39.511 26.4927 39.4695C26.5929 39.428 26.6839 39.3671 26.7606 39.2905C26.8373 39.2138 26.8981 39.1228 26.9396 39.0226C26.9811 38.9224 27.0024 38.815 27.0024 38.7066V32.7681ZM25.351 37.8809H21.0639V33.5939H25.351V37.8809ZM37.5886 32.7681C37.5886 32.5491 37.5016 32.3391 37.3467 32.1843C37.1919 32.0294 36.9819 31.9424 36.7629 31.9424H30.8243C30.7159 31.9424 30.6085 31.9638 30.5083 32.0052C30.4081 32.0467 30.3171 32.1076 30.2404 32.1842C30.1637 32.2609 30.1029 32.3519 30.0614 32.4521C30.0199 32.5523 29.9986 32.6597 29.9986 32.7681V38.7066C29.9986 39.1627 30.3682 39.5323 30.8243 39.5323H36.7629C36.9819 39.5323 37.1919 39.4453 37.3467 39.2905C37.5016 39.1356 37.5886 38.9256 37.5886 38.7066V32.7681ZM35.9371 37.8809H31.65V33.5939H35.9371V37.8809ZM40.5848 38.7066C40.5848 39.1627 40.9544 39.5323 41.4106 39.5323H47.3491C47.8053 39.5323 48.1748 39.1627 48.1748 38.7066V32.7681C48.1748 32.312 47.8053 31.9424 47.3491 31.9424H41.4106C41.3021 31.9424 41.1947 31.9638 41.0946 32.0052C40.9944 32.0467 40.9033 32.1076 40.8267 32.1842C40.75 32.2609 40.6892 32.3519 40.6477 32.4521C40.6062 32.5523 40.5848 32.6597 40.5848 32.7681V38.7066ZM42.2363 33.5939H46.5234V37.8809H42.2363V33.5939ZM15.5905 42.6895H9.65189C9.4329 42.6895 9.22287 42.7765 9.06802 42.9314C8.91317 43.0862 8.82617 43.2963 8.82617 43.5152V49.4537C8.82617 49.6727 8.91317 49.8827 9.06802 50.0376C9.22287 50.1924 9.4329 50.2794 9.65189 50.2794H15.5905C15.8095 50.2794 16.0195 50.1924 16.1743 50.0376C16.3292 49.8827 16.4162 49.6727 16.4162 49.4537V43.5152C16.4162 43.2963 16.3292 43.0862 16.1743 42.9314C16.0195 42.7765 15.8095 42.6895 15.5905 42.6895ZM14.7647 48.628H10.4776V44.341H14.7647V48.628ZM26.1767 42.6895H20.2382C20.0192 42.6895 19.8091 42.7765 19.6543 42.9314C19.4994 43.0862 19.4124 43.2963 19.4124 43.5152V49.4537C19.4124 49.6727 19.4994 49.8827 19.6543 50.0376C19.8091 50.1924 20.0192 50.2794 20.2382 50.2794H26.1767C26.2852 50.2794 26.3925 50.2581 26.4927 50.2166C26.5929 50.1751 26.6839 50.1143 26.7606 50.0376C26.8373 49.9609 26.8981 49.8699 26.9396 49.7697C26.9811 49.6695 27.0024 49.5621 27.0024 49.4537V43.5152C27.0024 43.4068 26.9811 43.2994 26.9396 43.1993C26.8981 43.0991 26.8373 43.0081 26.7606 42.9314C26.6839 42.8547 26.5929 42.7939 26.4927 42.7524C26.3925 42.7109 26.2852 42.6895 26.1767 42.6895ZM25.351 48.628H21.0639V44.341H25.351V48.628ZM36.7629 42.6895H30.8243C30.7159 42.6895 30.6085 42.7109 30.5083 42.7524C30.4081 42.7938 30.3171 42.8547 30.2404 42.9313C30.1637 43.008 30.1029 43.0991 30.0614 43.1992C30.0199 43.2994 29.9986 43.4068 29.9986 43.5152V49.4537C29.9986 49.9098 30.3682 50.2794 30.8243 50.2794H36.7629C36.9819 50.2794 37.1919 50.1924 37.3467 50.0376C37.5016 49.8827 37.5886 49.6727 37.5886 49.4537V43.5152C37.5886 43.0591 37.219 42.6895 36.7629 42.6895ZM35.9371 48.628H31.65V44.341H35.9371V48.628ZM40.5848 49.4537C40.5848 49.9098 40.9544 50.2794 41.4106 50.2794H47.3491C47.8053 50.2794 48.1748 49.9098 48.1748 49.4537V43.5152C48.1748 43.0591 47.8053 42.6895 47.3491 42.6895H41.4106C41.3021 42.6895 41.1947 42.7109 41.0946 42.7524C40.9944 42.7938 40.9033 42.8547 40.8267 42.9313C40.75 43.008 40.6892 43.0991 40.6477 43.1992C40.6062 43.2994 40.5848 43.4068 40.5848 43.5152V49.4537ZM42.2363 44.341H46.5234V48.628H42.2363V44.341Z" fill="#21409C"/>
<path d="M51.6889 6.12903H50.6704V2.97005C50.6704 1.33238 49.338 0 47.7003 0C46.0626 0 44.7303 1.33238 44.7303 2.97005V6.12903H41.0695V2.97005C41.0696 1.33238 39.7372 0 38.0995 0C36.4618 0 35.1295 1.33238 35.1295 2.97005V6.12903H31.4688V2.97005C31.4689 1.33238 30.1365 0 28.4988 0C26.8612 0 25.5288 1.33238 25.5288 2.97005V6.12903H21.868V2.97005C21.8681 1.33238 20.5357 0 18.898 0C17.2604 0 15.928 1.33238 15.928 2.97005V6.12903H12.2672V2.97005C12.2673 1.33238 10.935 0 9.29736 0C7.65969 0 6.32731 1.33238 6.32731 2.97005V6.12903H5.30881C3.43487 6.12903 1.91016 7.65375 1.91016 9.52769V52.6013C1.91016 54.4754 3.43476 56 5.30881 56H36.941C37.16 56 37.37 55.913 37.5249 55.7582C37.6797 55.6033 37.7667 55.3933 37.7667 55.1743C37.7667 54.7182 37.3971 54.3486 36.941 54.3486H5.30881C4.34547 54.3486 3.56159 53.5648 3.56159 52.6013V17.2799H14.1024C14.5584 17.2799 14.9281 16.9103 14.9281 16.4541C14.9281 15.998 14.5584 15.6284 14.1024 15.6284H3.56159V9.52769C3.56159 8.56424 4.34536 7.78047 5.30881 7.78047H6.32731V8.99813C6.32731 10.6358 7.65969 11.9682 9.29736 11.9682C10.935 11.9682 12.2674 10.6358 12.2674 8.99813V7.78047H15.9282V8.99813C15.9282 10.6358 17.2606 11.9682 18.8983 11.9682C20.5359 11.9682 21.8683 10.6358 21.8683 8.99813V7.78047H25.5291V8.99813C25.5291 10.6358 26.8615 11.9682 28.4992 11.9682C30.1368 11.9682 31.4692 10.6358 31.4692 8.99813V7.78047H35.1299V8.99813C35.1299 10.6358 36.4623 11.9682 38.1 11.9682C39.7376 11.9682 41.07 10.6358 41.07 8.99813V7.78047H44.7308V8.99813C44.7308 10.6358 46.0632 11.9682 47.7009 11.9682C49.3385 11.9682 50.6709 10.6358 50.6709 8.99813V7.78047H51.6894C52.6529 7.78047 53.4366 8.56424 53.4366 9.52769V15.6284H17.4054C16.9494 15.6284 16.5796 15.998 16.5796 16.4541C16.5796 16.9103 16.9494 17.2799 17.4054 17.2799H53.4362V52.6013C53.4362 53.5648 52.6524 54.3486 51.689 54.3486H40.2439C40.1354 54.3485 40.028 54.3699 39.9279 54.4114C39.8277 54.4529 39.7366 54.5137 39.66 54.5904C39.5833 54.6671 39.5225 54.7581 39.481 54.8583C39.4395 54.9585 39.4181 55.0658 39.4181 55.1743C39.4181 55.3933 39.5051 55.6033 39.66 55.7582C39.8148 55.913 40.0249 56 40.2439 56H51.6889C53.5628 56 55.0875 54.4753 55.0875 52.6013V9.52769C55.0875 7.65375 53.5628 6.12903 51.6889 6.12903ZM10.6159 8.99813C10.6159 9.7252 10.0244 10.3167 9.29725 10.3167C8.57018 10.3167 7.97864 9.7252 7.97864 8.99813V2.97005C7.97875 2.24298 8.57029 1.65144 9.29736 1.65144C10.0244 1.65144 10.616 2.24298 10.616 2.97005L10.6159 8.99813ZM20.2167 8.99813C20.2167 9.7252 19.6251 10.3167 18.898 10.3167C18.171 10.3167 17.5794 9.7252 17.5794 8.99813V2.97005C17.5794 2.24298 18.171 1.65144 18.898 1.65144C19.6251 1.65144 20.2167 2.24298 20.2167 2.97005V8.99813ZM29.8175 8.99813C29.8175 9.7252 29.2259 10.3167 28.4988 10.3167C27.7718 10.3167 27.1802 9.7252 27.1802 8.99813V2.97005C27.1802 2.24298 27.7718 1.65144 28.4988 1.65144C29.2259 1.65144 29.8175 2.24298 29.8175 2.97005V8.99813ZM39.4181 8.99813C39.4181 9.7252 38.8266 10.3167 38.0995 10.3167C37.3726 10.3167 36.7809 9.7252 36.7809 8.99813V2.97005C36.7809 2.24298 37.3725 1.65144 38.0995 1.65144C38.8266 1.65144 39.4181 2.24298 39.4181 2.97005V8.99813ZM49.0189 8.99813C49.0189 9.7252 48.4274 10.3167 47.7003 10.3167C46.9734 10.3167 46.3817 9.7252 46.3817 8.99813V2.97005C46.3817 2.24298 46.9732 1.65144 47.7003 1.65144C48.4274 1.65144 49.0189 2.24298 49.0189 2.97005V8.99813Z" fill="#21409C"/>
</svg>
