<svg width="200" height="200" viewBox="0 0 200 200" fill="none" xmlns="http://www.w3.org/2000/svg">
<path d="M167.928 18.2602V22.877C167.928 23.9297 168.78 24.7816 169.833 24.7816C170.886 24.7816 171.738 23.9297 171.738 22.877V18.2602C171.738 17.2074 170.886 16.3555 169.833 16.3555C168.78 16.3555 167.928 17.2074 167.928 18.2602ZM191.003 17.868C190.826 17.6911 190.616 17.5507 190.385 17.455C190.154 17.3592 189.906 17.3099 189.656 17.3099C189.406 17.3099 189.158 17.3592 188.927 17.455C188.696 17.5507 188.486 17.6911 188.309 17.868L179.915 26.2645C179.171 27.0086 179.171 28.2137 179.915 28.9578C180.659 29.702 181.864 29.702 182.608 28.9578L191.003 20.5613C191.36 20.2041 191.561 19.7197 191.561 19.2146C191.561 18.7096 191.36 18.2252 191.003 17.868ZM185.995 40.9441H190.612C191.665 40.9441 192.517 40.0922 192.517 39.0395C192.517 37.9867 191.665 37.1348 190.612 37.1348H185.995C184.943 37.1348 184.091 37.9867 184.091 39.0395C184.091 40.0922 184.943 40.9441 185.995 40.9441ZM191.39 131.302L159.581 121.968L178.533 60.1785C180.59 53.4356 179.39 46.3117 175.181 40.6359C170.99 34.9598 164.533 31.6836 157.467 31.6836H24.9153C17.8297 31.6836 11.3723 34.9406 7.18205 40.6359C2.99182 46.3121 1.77268 53.4359 3.84885 60.1785L25.3535 130.311C28.2106 139.625 36.6676 145.892 46.4199 145.892H75.0481L83.5242 161.625C85.0672 164.502 87.9242 166.197 91.1813 166.197C94.4383 166.197 97.3145 164.502 98.8383 161.625L107.314 145.892H135.391L144.781 177.911C145.809 181.377 148.8 183.625 152.419 183.644H152.476C156.057 183.644 159.047 181.435 160.114 178.006L167.485 154.006L191.504 146.616C194.952 145.55 197.161 142.521 197.142 138.921C197.123 135.302 194.857 132.311 191.39 131.302ZM155.924 120.883L139.486 116.064C136.648 115.226 133.677 115.988 131.581 118.083C129.486 120.197 128.724 123.15 129.562 125.988L134.286 142.082H106.172C105.467 142.082 104.839 142.463 104.496 143.073L95.4864 159.816C94.6293 161.435 93.0102 162.387 91.1817 162.387C89.3531 162.387 87.7532 161.435 86.877 159.816L77.8676 143.073C77.5438 142.463 76.8961 142.082 76.1914 142.082H46.4203C38.3633 142.082 31.3535 136.902 28.9918 129.206L7.48713 59.0551C5.77268 53.4742 6.78244 47.5883 10.2489 42.9027C13.7156 38.198 19.068 35.4934 24.9153 35.4934H157.466C163.314 35.4934 168.647 38.198 172.133 42.9027C175.6 47.5887 176.59 53.4742 174.876 59.0551L155.924 120.883ZM179.047 139.587C178.819 140.407 178.057 140.959 177.219 140.959C177.047 140.959 176.876 140.921 176.686 140.883L164.209 137.226C163.2 136.921 162.629 135.873 162.933 134.864C163.219 133.854 164.286 133.264 165.295 133.569L177.752 137.226C178.762 137.511 179.352 138.578 179.047 139.587Z" fill="white"/>
<path d="M64.8953 122.33C64.1906 122.921 63.1238 122.94 62.4 122.292C62.0604 121.989 61.8408 121.575 61.7814 121.124C61.7219 120.673 61.8265 120.215 62.0762 119.835C67.1621 112.063 70.857 105.13 73.2762 98.7682C71.8146 99.1488 70.3103 99.3409 68.8 99.3396C58.857 99.3396 50.7812 91.2635 50.7812 81.3205C50.7812 71.3967 58.8574 63.3018 68.8 63.3018C78.1715 63.3018 85.5809 70.635 86.8 81.1111C87.9996 91.34 86.3234 104.235 64.8953 122.33ZM109.409 122.33C108.704 122.921 107.637 122.94 106.914 122.292C106.574 121.989 106.354 121.575 106.295 121.124C106.236 120.673 106.34 120.215 106.59 119.835C111.676 112.063 115.371 105.13 117.79 98.7682C116.328 99.1477 114.824 99.3397 113.314 99.3396C103.371 99.3396 95.2949 91.2635 95.2949 81.3205C95.2949 71.3967 103.371 63.3018 113.314 63.3018C122.685 63.3018 130.095 70.635 131.314 81.1111C132.495 91.34 130.837 104.235 109.409 122.33Z" fill="white"/>
</svg>
