<svg width="57" height="56" viewBox="0 0 57 56" fill="none" xmlns="http://www.w3.org/2000/svg">
<path fill-rule="evenodd" clip-rule="evenodd" d="M18.448 43.1962C18.448 36.598 11.3072 35.7328 11.3072 24.3359C11.3072 20.0817 12.9971 16.0017 16.0052 12.9935C19.0133 9.98522 23.0932 8.29509 27.3474 8.29489C27.5795 8.29489 27.8021 8.38708 27.9662 8.55117C28.1303 8.71527 28.2224 8.93783 28.2224 9.16989C28.2224 9.40195 28.1303 9.62452 27.9662 9.78861C27.8021 9.9527 27.5795 10.0449 27.3474 10.0449C25.4708 10.0449 23.6125 10.4146 21.8787 11.1328C20.1449 11.8511 18.5695 12.9037 17.2425 14.2308C15.9155 15.5578 14.8629 17.1333 14.1448 18.8671C13.4267 20.6009 13.0571 22.4593 13.0572 24.3359C13.0572 34.7406 19.6298 35.6118 20.1643 42.3216H35.3717C35.6038 42.3216 35.8264 42.4137 35.9905 42.5778C36.1546 42.7419 36.2467 42.9645 36.2467 43.1966V46.8914C36.2445 47.8824 35.8498 48.8322 35.149 49.533C34.4483 50.2338 33.4985 50.6285 32.5074 50.6308H31.5047V51.985C31.5036 52.5274 31.2876 53.0473 30.904 53.4308C30.5204 53.8144 30.0005 54.0303 29.458 54.0312H25.2367C24.6942 54.0302 24.1743 53.8143 23.7907 53.4307C23.4071 53.0471 23.1912 52.5271 23.1902 51.9846V50.6305H22.1875C21.1964 50.6282 20.2466 50.2335 19.5458 49.5327C18.845 48.8319 18.4503 47.8821 18.448 46.891V43.1962ZM28.951 29.4875C29.2398 28.5652 29.7234 27.7157 30.3692 26.9965C31.0149 26.2774 31.8076 25.7055 32.6937 25.3194C30.6173 23.01 32.2628 19.3129 35.3717 19.3129C38.4807 19.3129 40.1263 23.0098 38.0498 25.3194C38.9358 25.7055 39.7286 26.2775 40.3743 26.9966C41.0201 27.7157 41.5037 28.5652 41.7926 29.4875C42.6253 28.3103 43.1183 26.9268 43.2178 25.4883C43.3172 24.0497 43.0193 22.6115 42.3565 21.3309C41.6938 20.0503 40.6917 18.9765 39.4598 18.227C38.228 17.4775 36.8138 17.0811 35.3718 17.0811C33.9298 17.0811 32.5156 17.4775 31.2838 18.227C30.0519 18.9765 29.0498 20.0503 28.3871 21.3309C27.7243 22.6115 27.4263 24.0497 27.5258 25.4883C27.6253 26.9268 28.1183 28.3103 28.951 29.4875ZM40.3335 31.047C40.2214 29.8085 39.6502 28.6567 38.7321 27.8179C37.814 26.9792 36.6154 26.5141 35.3718 26.5141C34.1282 26.5141 32.9296 26.9792 32.0115 27.8179C31.0934 28.6567 30.5222 29.8085 30.41 31.047C31.8125 32.1867 33.5646 32.8089 35.3718 32.8089C37.179 32.8089 38.9311 32.1867 40.3335 31.047ZM36.6804 21.6047C35.518 20.4422 33.5212 21.2691 33.5212 22.913C33.5212 24.5569 35.5179 25.3838 36.6801 24.2214C37.0271 23.8744 37.222 23.4037 37.222 22.9129C37.222 22.4221 37.0271 21.9515 36.6801 21.6044L36.6804 21.6047ZM50.9087 28.5615C51.1145 28.5614 51.3136 28.4887 51.4712 28.3563C51.6287 28.2239 51.7345 28.0402 51.77 27.8375C52.1032 25.9358 52.1053 23.9909 51.7761 22.0885C51.7483 21.8781 51.645 21.6849 51.4854 21.5451C51.3257 21.4052 51.1207 21.3281 50.9085 21.3281H48.7339C48.4229 20.1837 47.9662 19.0839 47.375 18.0558L48.9139 16.5168L48.9116 16.5144C49.0564 16.3696 49.1456 16.1785 49.1636 15.9745C49.1816 15.7705 49.1273 15.5667 49.01 15.3988C47.9073 13.8199 46.5378 12.4452 44.9632 11.3365C44.795 11.2025 44.5834 11.1352 44.3687 11.1473C44.154 11.1594 43.9513 11.2501 43.7993 11.4021L42.2619 12.9402C41.2323 12.3522 40.1323 11.897 38.9883 11.5853V9.40789C38.9882 9.2021 38.9155 9.00293 38.7831 8.8454C38.6507 8.68787 38.467 8.58206 38.2643 8.54656C36.3627 8.21303 34.4178 8.211 32.5155 8.54055C32.3053 8.56851 32.1124 8.67188 31.9727 8.83142C31.8329 8.99096 31.7559 9.19582 31.7559 9.40789V11.5828C30.6115 11.8939 29.5117 12.3507 28.4836 12.9418L26.9446 11.4028L26.9422 11.4052C26.7974 11.2604 26.6063 11.1711 26.4023 11.1531C26.1983 11.1351 25.9945 11.1895 25.8266 11.3068C24.2477 12.4093 22.8731 13.7784 21.7643 15.3529C21.6303 15.521 21.5629 15.7327 21.575 15.9474C21.5871 16.1621 21.6779 16.3648 21.8299 16.5168L23.3676 18.0545C22.7796 19.0842 22.3244 20.1841 22.0127 21.3281H19.8352C19.6294 21.3283 19.4303 21.4009 19.2727 21.5333C19.1152 21.6658 19.0094 21.8495 18.9739 22.0522C18.8897 22.5323 18.8268 23.012 18.7852 23.4915C18.6481 25.0729 18.7305 26.2443 18.9678 27.8008C18.9958 28.011 19.0992 28.2039 19.2588 28.3436C19.4183 28.4833 19.6232 28.5602 19.8352 28.5602H22.0127C22.3243 29.7042 22.7795 30.8041 23.3675 31.8337L21.8298 33.3714L21.8308 33.3725C21.6854 33.5179 21.596 33.71 21.5783 33.9149C21.5606 34.1198 21.6158 34.3243 21.7341 34.4925C22.832 36.0623 24.1939 37.4298 25.7591 38.5341C25.9266 38.6763 26.1414 38.7502 26.361 38.7413C26.5805 38.7323 26.7886 38.6411 26.944 38.4858L28.483 36.9468C29.5111 37.538 30.6108 37.9947 31.7553 38.3059V40.4803C31.7554 40.6861 31.828 40.8853 31.9605 41.0428C32.0929 41.2004 32.2766 41.3062 32.4793 41.3417C34.3809 41.6752 36.3258 41.6772 38.2281 41.3478C38.4383 41.3198 38.6312 41.2164 38.771 41.0569C38.9107 40.8973 38.9877 40.6924 38.9877 40.4803V38.3039C40.1317 37.9924 41.2317 37.5371 42.2613 36.9491L43.7989 38.4868L43.7998 38.4858C43.9453 38.6311 44.1374 38.7205 44.3423 38.7382C44.5472 38.7559 44.7517 38.7008 44.92 38.5825C46.4897 37.4846 47.8572 36.1227 48.9616 34.5575C49.1038 34.39 49.1777 34.1751 49.1688 33.9555C49.1598 33.736 49.0686 33.5279 48.9132 33.3725L47.3743 31.8336C47.9655 30.8055 48.4222 29.7057 48.7332 28.5613L50.9087 28.5615ZM48.0479 26.8115H50.1558C50.3101 25.572 50.3101 24.318 50.1558 23.0785H48.0476V23.0778C47.8479 23.0777 47.6541 23.0091 47.4987 22.8836C47.3432 22.7582 47.2354 22.5832 47.1931 22.388C47.0405 21.6816 46.8245 20.9904 46.5478 20.3228C46.2758 19.668 45.9474 19.0381 45.5663 18.4403C45.4425 18.2717 45.3831 18.0644 45.399 17.8559C45.4149 17.6474 45.5049 17.4514 45.6528 17.3036L47.1462 15.8102C46.3771 14.8258 45.4901 13.9397 44.5051 13.1716L43.015 14.6616L43.0139 14.6605C42.8729 14.8014 42.6881 14.8898 42.49 14.9111C42.2919 14.9324 42.0924 14.8854 41.9247 14.7778C40.7139 13.9973 39.3729 13.4405 37.9653 13.1337C37.762 13.0988 37.5775 12.9931 37.4445 12.8353C37.3115 12.6774 37.2385 12.4777 37.2385 12.2713V10.1609C35.999 10.0067 34.7451 10.0067 33.5056 10.1609V12.2686H33.5048C33.5047 12.4684 33.4362 12.6621 33.3107 12.8175C33.1852 12.973 33.0103 13.0808 32.8151 13.1231C32.1088 13.2758 31.4178 13.4918 30.7503 13.7685C30.0954 14.0405 29.4653 14.3689 28.8673 14.7501C28.6988 14.8739 28.4915 14.9332 28.283 14.9173C28.0745 14.9014 27.8785 14.8113 27.7307 14.6635L26.2368 13.1701C25.2526 13.9391 24.3665 14.8261 23.5984 15.811L25.0887 17.3014L25.0875 17.3025C25.2284 17.4434 25.3168 17.6283 25.3382 17.8264C25.3595 18.0245 25.3125 18.2239 25.2049 18.3916C24.4245 19.6025 23.8676 20.9435 23.5609 22.351C23.526 22.5544 23.4203 22.739 23.2626 22.872C23.1048 23.0051 22.9051 23.0781 22.6987 23.0781H20.5877C20.4332 24.3177 20.4332 25.5716 20.5877 26.8112H22.6987V26.8119C22.8984 26.812 23.0921 26.8805 23.2476 27.006C23.403 27.1315 23.5108 27.3064 23.5531 27.5016C23.8544 28.9043 24.404 30.2419 25.1759 31.4512C25.2997 31.6198 25.3591 31.8271 25.3432 32.0356C25.3273 32.2441 25.2373 32.4401 25.0894 32.588L23.599 34.0782C24.3669 35.0631 25.2528 35.9501 26.2368 36.7192L27.7302 35.2259L27.7313 35.227C27.8723 35.086 28.0572 34.9975 28.2554 34.9762C28.4535 34.9548 28.6531 35.0018 28.8208 35.1094C29.9593 35.8409 31.461 36.501 32.7786 36.758C32.982 36.7929 33.1665 36.8987 33.2994 37.0565C33.4324 37.2143 33.5054 37.414 33.5054 37.6204V39.7284C34.7449 39.8827 35.9988 39.8827 37.2383 39.7284V37.6175H37.239C37.2391 37.4177 37.3076 37.224 37.4331 37.0685C37.5586 36.9131 37.7335 36.8052 37.9287 36.7629C39.3314 36.4617 40.669 35.9123 41.8785 35.1405C42.047 35.0168 42.2543 34.9575 42.4628 34.9734C42.6713 34.9893 42.8672 35.0793 43.0151 35.2272L44.5053 36.7174C45.4904 35.9493 46.3774 35.0632 47.1464 34.0788L45.653 32.5861L45.6541 32.5849C45.5132 32.444 45.4248 32.2591 45.4034 32.061C45.3821 31.8629 45.4291 31.6634 45.5367 31.4957C46.2686 30.3568 46.9282 28.8561 47.1852 27.538C47.2202 27.3346 47.3259 27.1501 47.4837 27.0171C47.6415 26.8841 47.8413 26.8112 48.0476 26.8112L48.0479 26.8115ZM35.3717 15.3307C33.4703 15.3307 31.6115 15.8945 30.0304 16.9509C28.4494 18.0073 27.2172 19.5088 26.4895 21.2656C25.7618 23.0223 25.5714 24.9554 25.9424 26.8203C26.3134 28.6853 27.229 30.3983 28.5736 31.7429C29.9181 33.0874 31.6312 34.0031 33.4961 34.3741C35.3611 34.745 37.2941 34.5546 39.0509 33.827C40.8076 33.0993 42.3091 31.867 43.3655 30.286C44.4219 28.705 44.9858 26.8462 44.9858 24.9447C44.9858 22.3949 43.9729 19.9495 42.1699 18.1465C40.3669 16.3436 37.9215 15.3307 35.3717 15.3307ZM13.2411 40.6235L15.1312 38.7334C15.2144 38.6526 15.2807 38.5561 15.3263 38.4494C15.3718 38.3427 15.3957 38.2281 15.3966 38.1121C15.3974 37.9961 15.3752 37.8811 15.3312 37.7738C15.2872 37.6665 15.2223 37.569 15.1403 37.487C15.0583 37.405 14.9608 37.3401 14.8535 37.2961C14.7461 37.2521 14.6311 37.2299 14.5152 37.2308C14.3992 37.2316 14.2845 37.2555 14.1779 37.3011C14.0712 37.3466 13.9747 37.4129 13.8939 37.4962L12.0038 39.3859C11.921 39.4669 11.8551 39.5634 11.81 39.6699C11.7648 39.7765 11.7412 39.8909 11.7405 40.0066C11.7399 40.1224 11.7622 40.2371 11.8062 40.3441C11.8502 40.4512 11.915 40.5484 11.9968 40.6303C12.0786 40.7121 12.1759 40.7769 12.2829 40.8209C12.39 40.8649 12.5047 40.8872 12.6204 40.8865C12.7361 40.8859 12.8506 40.8623 12.9571 40.8171C13.0637 40.7719 13.1602 40.706 13.2411 40.6233V40.6235ZM5.85547 25.8781C5.6234 25.8781 5.40084 25.7859 5.23675 25.6218C5.07266 25.4577 4.98047 25.2352 4.98047 25.0031C4.98047 24.7711 5.07266 24.5485 5.23675 24.3844C5.40084 24.2203 5.6234 24.1281 5.85547 24.1281H8.52903C8.7611 24.1281 8.98366 24.2203 9.14775 24.3844C9.31184 24.5485 9.40403 24.7711 9.40403 25.0031C9.40403 25.2352 9.31184 25.4577 9.14775 25.6218C8.98366 25.7859 8.7611 25.8781 8.52903 25.8781H5.85547ZM11.0596 10.2294L12.9496 12.1194C13.0304 12.2026 13.127 12.2689 13.2336 12.3145C13.3403 12.36 13.455 12.3839 13.5709 12.3848C13.6869 12.3857 13.8019 12.3634 13.9092 12.3195C14.0165 12.2755 14.114 12.2106 14.1961 12.1286C14.2781 12.0466 14.343 11.9491 14.387 11.8418C14.431 11.7344 14.4532 11.6194 14.4523 11.5035C14.4515 11.3875 14.4276 11.2728 14.3821 11.1662C14.3365 11.0595 14.2702 10.963 14.187 10.8822L12.2969 8.99205C12.132 8.83192 11.9107 8.7431 11.6809 8.74479C11.451 8.74648 11.2311 8.83854 11.0686 9.00108C10.906 9.16361 10.814 9.38357 10.8123 9.61341C10.8107 9.84326 10.8995 10.0645 11.0596 10.2294ZM25.8047 2.84375C25.8047 2.61169 25.8969 2.38913 26.061 2.22503C26.2251 2.06094 26.4476 1.96875 26.6797 1.96875C26.9118 1.96875 27.1343 2.06094 27.2984 2.22503C27.4625 2.38913 27.5547 2.61169 27.5547 2.84375V5.51677C27.5547 5.74883 27.4625 5.97139 27.2984 6.13548C27.1343 6.29958 26.9118 6.39177 26.6797 6.39177C26.4476 6.39177 26.2251 6.29958 26.061 6.13548C25.8969 5.97139 25.8047 5.74883 25.8047 5.51677V2.84375ZM29.7547 50.6305H24.9402V51.9846C24.941 52.063 24.9725 52.138 25.028 52.1934C25.0834 52.2489 25.1583 52.2804 25.2367 52.2812H29.458C29.5365 52.2804 29.6114 52.2489 29.6668 52.1934C29.7223 52.138 29.7538 52.063 29.7547 51.9846V50.6305ZM34.4967 46.891V44.0712H20.198V46.891C20.2002 47.418 20.4104 47.9228 20.7831 48.2954C21.1557 48.668 21.6605 48.8783 22.1875 48.8805H32.5074C33.0344 48.8783 33.5391 48.668 33.9117 48.2954C34.2843 47.9227 34.4946 47.418 34.4967 46.891Z" fill="#21409C"/>
</svg>
