<svg width="53" height="57" viewBox="0 0 53 57" fill="none" xmlns="http://www.w3.org/2000/svg">
<path fill-rule="evenodd" clip-rule="evenodd" d="M48.0007 27.2541C47.7588 27.2949 47.5429 27.4301 47.4006 27.63C47.2583 27.8299 47.2012 28.0782 47.242 28.3201C47.4418 29.5046 47.5436 30.6983 47.5436 31.8679C47.5436 38.3898 44.638 44.2768 39.9521 48.1966C39.5615 45.6306 38.4533 43.2274 36.7554 41.2642C35.0575 39.3011 32.8391 37.8581 30.3562 37.1017C31.3725 36.4273 32.2063 35.512 32.7833 34.4375C33.3603 33.3629 33.6627 32.1623 33.6634 30.9426C33.6634 26.8599 30.3433 23.5398 26.2606 23.5398C22.178 23.5398 18.8579 26.8599 18.8579 30.9426C18.8579 33.5113 20.1737 35.7729 22.165 37.1017C19.6822 37.8581 17.4638 39.3011 15.7659 41.2642C14.068 43.2274 12.9598 45.6306 12.5692 48.1966C10.184 46.1979 8.26759 43.6992 6.95568 40.8774C5.64376 38.0555 4.96847 34.9798 4.97765 31.8679C4.97765 30.6983 5.07944 29.5064 5.27931 28.3201C5.30159 28.1994 5.29964 28.0755 5.27356 27.9556C5.24748 27.8356 5.1978 27.7221 5.12741 27.6215C5.05702 27.5209 4.96733 27.4354 4.86356 27.3698C4.75978 27.3043 4.64401 27.26 4.52296 27.2396C4.40192 27.2193 4.27804 27.2232 4.15852 27.2511C4.039 27.2791 3.92624 27.3306 3.82681 27.4025C3.72737 27.4745 3.64325 27.5655 3.57934 27.6703C3.51542 27.7751 3.473 27.8916 3.45453 28.0129C3.23839 29.2866 3.12882 30.576 3.12695 31.8679C3.12695 43.2312 11.2441 52.8233 22.426 54.674C22.6638 54.7048 22.9043 54.642 23.0967 54.499C23.2892 54.356 23.4186 54.1438 23.4577 53.9072C23.4968 53.6707 23.4426 53.4282 23.3064 53.2308C23.1702 53.0334 22.9627 52.8966 22.7277 52.8492C19.7042 52.3498 16.825 51.2006 14.2885 49.481C14.7308 43.2016 19.8942 38.3453 26.2606 38.3453C32.627 38.3453 37.7886 43.2016 38.2346 49.481C35.6976 51.2009 32.8177 52.35 29.7936 52.8492C29.6704 52.8652 29.5516 52.9058 29.4444 52.9686C29.3372 53.0314 29.2438 53.1152 29.1697 53.215C29.0955 53.3147 29.0423 53.4283 29.013 53.5491C28.9838 53.6698 28.9791 53.7953 28.9994 53.9179C29.0197 54.0404 29.0644 54.1577 29.131 54.2626C29.1975 54.3675 29.2845 54.458 29.3868 54.5286C29.4891 54.5991 29.6045 54.6484 29.7262 54.6734C29.848 54.6984 29.9735 54.6986 30.0953 54.674C41.2772 52.8233 49.3943 43.233 49.3943 31.8679C49.3943 30.5946 49.2833 29.2973 49.0667 28.0129C49.047 27.8929 49.0037 27.778 48.9394 27.6747C48.875 27.5715 48.7909 27.4821 48.6918 27.4115C48.5927 27.341 48.4806 27.2908 48.362 27.2638C48.2434 27.2367 48.1206 27.2335 48.0007 27.2541ZM20.7085 30.9426C20.7085 27.8815 23.1996 25.3905 26.2606 25.3905C29.3217 25.3905 31.8127 27.8815 31.8127 30.9426C31.8127 34.0036 29.3217 36.4946 26.2606 36.4946C23.1996 36.4946 20.7085 34.0036 20.7085 30.9426ZM36.395 8.69537C36.3418 8.53082 36.2436 8.38447 36.1114 8.27293C35.9793 8.16138 35.8185 8.0891 35.6474 8.06428L29.7344 7.20556L27.0897 1.84595C26.7788 1.21671 25.7424 1.21671 25.4315 1.84595L22.7869 7.20556L16.8739 8.06428C16.703 8.0891 16.5424 8.16126 16.4104 8.27258C16.2784 8.38391 16.1801 8.52996 16.1268 8.69422C16.0734 8.85848 16.0671 9.03439 16.1086 9.20205C16.15 9.36971 16.2375 9.52243 16.3613 9.64293L20.6401 13.8125L19.6296 19.7014C19.6003 19.8717 19.6193 20.0468 19.6844 20.2069C19.7495 20.367 19.8581 20.5056 19.998 20.6071C20.1378 20.7086 20.3033 20.7689 20.4756 20.7813C20.648 20.7936 20.8204 20.7574 20.9732 20.6768L26.2606 17.8952L31.5481 20.6768C31.7006 20.7586 31.8733 20.7954 32.0459 20.783C32.2186 20.7705 32.3841 20.7093 32.5234 20.6064C32.6634 20.5048 32.7721 20.366 32.8372 20.2057C32.9023 20.0454 32.9212 19.8701 32.8917 19.6996L31.8812 13.8144L36.1618 9.64107C36.2855 9.52074 36.373 9.36825 36.4145 9.20081C36.456 9.03338 36.4499 8.85767 36.3969 8.69352L36.395 8.69537ZM30.2396 12.8243C30.1321 12.9291 30.0517 13.0585 30.0053 13.2013C29.9589 13.3442 29.9478 13.4961 29.9731 13.6441L30.7504 18.1654L26.69 16.0297C26.5569 15.9603 26.4089 15.924 26.2588 15.924C26.1086 15.924 25.9607 15.9603 25.8276 16.0297L21.769 18.1654L22.5444 13.6441C22.5697 13.4961 22.5587 13.3442 22.5123 13.2013C22.4658 13.0585 22.3854 12.9291 22.2779 12.8243L18.9948 9.62442L23.5327 8.96557C23.6809 8.94381 23.8216 8.88649 23.9428 8.7985C24.0639 8.71051 24.162 8.59448 24.2286 8.46033L26.2606 4.34809L28.2908 8.46218C28.3574 8.59633 28.4555 8.71237 28.5767 8.80035C28.6978 8.88834 28.8385 8.94566 28.9867 8.96742L33.5246 9.62627L30.2415 12.8261L30.2396 12.8243Z" fill="#21409C"/>
<path fill-rule="evenodd" clip-rule="evenodd" d="M4.11618 23.5824C4.08648 23.7528 4.10516 23.9282 4.17009 24.0886C4.23503 24.2489 4.34361 24.3879 4.48353 24.4896C4.62345 24.5914 4.78909 24.6519 4.96165 24.6642C5.13421 24.6766 5.30679 24.6403 5.45978 24.5596L9.60349 22.3795L13.749 24.5596C13.9014 24.641 14.0737 24.6776 14.2459 24.6652C14.4182 24.6527 14.5835 24.5917 14.7225 24.4893C14.8625 24.3876 14.9713 24.2488 15.0364 24.0885C15.1015 23.9282 15.1203 23.7529 15.0908 23.5824L14.2987 18.9686L17.6522 15.7022C17.7764 15.5817 17.8644 15.4289 17.9062 15.2609C17.948 15.093 17.9418 14.9167 17.8884 14.7521C17.835 14.5875 17.7365 14.4412 17.6042 14.3298C17.4718 14.2183 17.3108 14.1462 17.1395 14.1217L12.5054 13.4499L10.4326 9.24878C10.1217 8.61955 9.08529 8.61955 8.77438 9.24878L6.7016 13.4499L2.06746 14.1217C1.89617 14.1462 1.7352 14.2183 1.60282 14.3298C1.47044 14.4412 1.37197 14.5875 1.31858 14.7521C1.26519 14.9167 1.25903 15.093 1.30079 15.2609C1.34254 15.4289 1.43055 15.5817 1.55482 15.7022L4.90828 18.9686L4.11618 23.5824ZM4.19021 15.6855L7.44743 15.2117C7.59593 15.1902 7.737 15.133 7.85852 15.045C7.98005 14.957 8.0784 14.8409 8.14514 14.7065L9.60349 11.7509L11.0618 14.7065C11.1284 14.8406 11.2265 14.9567 11.3477 15.0447C11.4688 15.1326 11.6095 15.19 11.7577 15.2117L15.0168 15.6855L12.659 17.9822C12.5515 18.0871 12.4711 18.2165 12.4247 18.3593C12.3782 18.5021 12.3672 18.654 12.3925 18.8021L12.9495 22.0482L10.0347 20.5158C9.90156 20.4464 9.75364 20.4102 9.60349 20.4102C9.45334 20.4102 9.30542 20.4464 9.17228 20.5158L6.25743 22.0482L6.81264 18.8021C6.83817 18.6542 6.82742 18.5023 6.78132 18.3595C6.73522 18.2167 6.65516 18.0873 6.54799 17.9822L4.19021 15.6855ZM50.452 14.1217L45.8179 13.4499L43.7451 9.24878C43.4342 8.61955 42.3978 8.61955 42.0869 9.24878L40.0141 13.4499L35.38 14.1217C35.2087 14.1462 35.0477 14.2183 34.9153 14.3298C34.7829 14.4412 34.6845 14.5875 34.6311 14.7521C34.5777 14.9167 34.5715 15.093 34.6133 15.2609C34.655 15.4289 34.7431 15.5817 34.8673 15.7022L38.2208 18.9686L37.4287 23.5824C37.399 23.7528 37.4177 23.9282 37.4826 24.0886C37.5475 24.2489 37.6561 24.3879 37.796 24.4896C37.9359 24.5914 38.1016 24.6519 38.2741 24.6642C38.4467 24.6766 38.6193 24.6403 38.7723 24.5596L42.916 22.3795L47.0615 24.5596C47.2139 24.641 47.3862 24.6776 47.5584 24.6652C47.7307 24.6527 47.896 24.5917 48.035 24.4893C48.175 24.3876 48.2838 24.2488 48.3489 24.0885C48.414 23.9282 48.4328 23.7529 48.4033 23.5824L47.6112 18.9686L50.9647 15.7022C51.0889 15.5817 51.1769 15.4289 51.2187 15.2609C51.2604 15.093 51.2543 14.9167 51.2009 14.7521C51.1475 14.5875 51.049 14.4412 50.9167 14.3298C50.7843 14.2183 50.6233 14.1462 50.452 14.1217ZM45.9715 17.9822C45.864 18.0871 45.7836 18.2165 45.7372 18.3593C45.6907 18.5021 45.6797 18.654 45.705 18.8021L46.262 22.0482L43.3472 20.5158C43.2141 20.4464 43.0661 20.4102 42.916 20.4102C42.7658 20.4102 42.6179 20.4464 42.4848 20.5158L39.5699 22.0482L40.1251 18.8021C40.1507 18.6542 40.1399 18.5023 40.0938 18.3595C40.0477 18.2167 39.9677 18.0873 39.8605 17.9822L37.5027 15.6855L40.7599 15.2117C40.9084 15.1902 41.0495 15.133 41.171 15.045C41.2925 14.957 41.3909 14.8409 41.4576 14.7065L42.916 11.7509L44.3743 14.7065C44.4409 14.8406 44.539 14.9567 44.6602 15.0447C44.7813 15.1326 44.922 15.19 45.0702 15.2117L48.3293 15.6855L45.9715 17.9822Z" fill="#21409C"/>
<path d="M26.2593 55.0016C26.7704 55.0016 27.1847 54.5873 27.1847 54.0762C27.1847 53.5652 26.7704 53.1509 26.2593 53.1509C25.7483 53.1509 25.334 53.5652 25.334 54.0762C25.334 54.5873 25.7483 55.0016 26.2593 55.0016Z" fill="#21409C"/>
</svg>
