<svg width="57" height="56" viewBox="0 0 57 56" fill="none" xmlns="http://www.w3.org/2000/svg">
<g clip-path="url(#clip0_3884_2105)">
<path d="M42.102 54.1048V37.9733L44.4803 29.5879C44.6713 28.9136 44.8228 28.2288 44.9338 27.5368C44.9644 27.3438 44.9172 27.1466 44.8025 26.9884C44.6879 26.8302 44.5151 26.7239 44.3221 26.693C44.1291 26.6623 43.9318 26.7095 43.7735 26.8242C43.6153 26.9389 43.509 27.1117 43.4781 27.3047C43.3763 27.9395 43.2374 28.5678 43.0622 29.1864L40.6281 37.7685V54.105C40.6281 54.5119 40.9578 54.8419 41.3651 54.8419C41.772 54.8419 42.102 54.5119 42.102 54.105V54.1048ZM35.5912 39.2384C35.4425 39.1116 35.2494 39.0491 35.0546 39.0646C34.8597 39.08 34.679 39.1723 34.5521 39.321L30.0861 44.5588H24.7763C24.7723 44.5588 24.7689 44.5585 24.7657 44.5585C24.7618 44.5585 24.7585 44.5588 24.7547 44.5588H15.1841C13.9812 44.5588 13.0024 43.5797 13.0024 42.3762V34.0898L9.96823 33.3696C9.81125 33.3331 9.66536 33.2594 9.54287 33.1547C9.42037 33.05 9.32487 32.9173 9.26443 32.7679C9.20228 32.6195 9.1768 32.4583 9.19015 32.2979C9.20349 32.1376 9.25526 31.9828 9.34107 31.8467L11.848 27.8097C11.9511 27.6437 11.984 27.4435 11.9394 27.2532C11.8949 27.0629 11.7766 26.898 11.6106 26.7949C11.4445 26.6918 11.2442 26.6588 11.0538 26.7033C10.8634 26.7477 10.6985 26.866 10.5953 27.032L8.08885 31.069C7.66141 31.7566 7.59324 32.5803 7.90129 33.3289C8.20934 34.0777 8.83785 34.6151 9.62665 34.8038L11.5285 35.2552V42.3763C11.5285 44.3924 13.1685 46.0329 15.1841 46.0329H24.0286V54.1053C24.0286 54.5123 24.3582 54.8423 24.7656 54.8423C25.1724 54.8423 25.5026 54.5123 25.5026 54.1053V46.0328H30.7658L35.6736 40.2777C35.8004 40.1289 35.8629 39.9358 35.8474 39.741C35.8319 39.5461 35.7397 39.3654 35.5911 39.2384H35.5912ZM9.39119 16.5456C9.25209 17.4737 9.18009 18.4106 9.17575 19.349C9.17479 19.4572 9.19538 19.5644 9.23632 19.6645C9.27725 19.7646 9.3377 19.8555 9.41415 19.932C9.4903 20.0089 9.58098 20.0699 9.6809 20.1114C9.78083 20.1529 9.88802 20.1742 9.99623 20.1739H22.1187C22.5255 20.1739 22.8556 19.8443 22.8556 19.437C22.8556 16.3249 25.3875 13.7926 28.4999 13.7926C31.6119 13.7926 34.1442 16.3249 34.1442 19.4369C34.1442 19.8443 34.4743 20.1738 34.8811 20.1738H47.0031C47.2233 20.1738 47.4302 20.0878 47.5852 19.932C47.6617 19.8557 47.7223 19.7648 47.7633 19.6648C47.8043 19.5648 47.825 19.4576 47.8241 19.3495C47.8202 18.4113 47.7487 17.4746 47.6101 16.5466C47.5886 16.3992 47.5272 16.2605 47.4326 16.1454C47.3379 16.0303 47.2137 15.9433 47.0732 15.8937L43.7267 14.7037C43.4384 13.7771 43.066 12.8789 42.614 12.0202L44.1378 8.8128C44.2018 8.67861 44.2281 8.52955 44.2139 8.38156C44.1997 8.23358 44.1455 8.09224 44.0572 7.97266C42.9052 6.41128 41.5251 5.03185 39.9631 3.88055C39.8437 3.79248 39.7026 3.7385 39.5549 3.72438C39.4072 3.71025 39.2584 3.73651 39.1245 3.80034L35.9174 5.32426C35.0591 4.87203 34.1612 4.49941 33.2349 4.21107L32.0442 0.863541C31.9945 0.723767 31.9078 0.600118 31.7933 0.505798C31.6788 0.411479 31.5408 0.35003 31.3941 0.328014C29.4975 0.0417037 27.5064 0.0417037 25.6078 0.328014C25.4609 0.350204 25.3227 0.411878 25.208 0.506453C25.0934 0.601028 25.0066 0.724957 24.9568 0.865014L23.7669 4.21107C22.8401 4.49963 21.9417 4.87241 21.0829 5.32475L17.8765 3.80083C17.7423 3.73661 17.5932 3.71018 17.4452 3.7244C17.2971 3.73862 17.1558 3.79295 17.0363 3.88153C15.4756 5.03219 14.0966 6.41084 12.9456 7.97131C12.8567 8.09087 12.8021 8.23239 12.7876 8.38065C12.7732 8.52892 12.7994 8.67832 12.8635 8.8128L14.3878 12.0202C13.936 12.8791 13.5631 13.7773 13.2738 14.7037L9.92819 15.8937C9.78784 15.9432 9.66368 16.0301 9.56907 16.145C9.47446 16.2599 9.41288 16.3984 9.39119 16.5456ZM28.4998 12.3187C24.8236 12.3187 21.7894 15.1197 21.4194 18.6999H20.0089C20.4363 14.3962 24.0978 11.0093 28.4993 11.0093C32.9019 11.0093 36.5641 14.3962 36.9916 18.6999H35.58C35.2102 15.1197 32.176 12.3187 28.4998 12.3187ZM10.7955 17.1492L14.0791 15.9814C14.2018 15.9376 14.3124 15.8653 14.4017 15.7705C14.491 15.6756 14.5565 15.561 14.5929 15.4359C14.8945 14.392 15.3122 13.3853 15.8384 12.4347C15.9012 12.3208 15.936 12.1937 15.9399 12.0637C15.9439 11.9337 15.9168 11.8047 15.8611 11.6872L14.3646 8.53742C15.3001 7.3245 16.3878 6.23699 17.6008 5.30166L20.7501 6.79818C20.8679 6.85402 20.9972 6.88101 21.1275 6.87691C21.2577 6.87281 21.3851 6.83774 21.4991 6.7746C22.4493 6.2483 23.4557 5.83072 24.4993 5.52975C24.6243 5.49364 24.7388 5.42835 24.8336 5.33925C24.9283 5.25016 25.0006 5.13981 25.0443 5.01731L26.2131 1.73168C27.7323 1.53881 29.2697 1.53881 30.7889 1.73168L31.9582 5.01915C32.0023 5.14119 32.0745 5.25108 32.1692 5.33982C32.2638 5.42857 32.3781 5.49365 32.5027 5.52975C33.5468 5.83104 34.5552 6.24988 35.5 6.77423C35.6141 6.83746 35.7416 6.87261 35.872 6.8768C36.0024 6.88099 36.132 6.85408 36.2499 6.79831L39.3997 5.30129C40.6129 6.23703 41.7008 7.32467 42.637 8.53754L41.1399 11.6877C41.0843 11.8052 41.0575 11.9343 41.0615 12.0643C41.0656 12.1943 41.1005 12.3214 41.1634 12.4352C41.6892 13.3851 42.1064 14.3912 42.407 15.4344C42.4429 15.5598 42.5081 15.6747 42.5973 15.7698C42.6865 15.8649 42.7971 15.9373 42.9199 15.981L46.2061 17.1492C46.2716 17.664 46.315 18.1814 46.3361 18.6999H38.4718C38.2746 16.3264 37.2507 14.1213 35.5402 12.429C33.6542 10.5632 31.1541 9.5349 28.4998 9.5349C25.8465 9.5349 23.3468 10.5631 21.4607 12.429C19.7503 14.1218 18.7269 16.3263 18.5292 18.6999H10.665C10.6857 18.1832 10.7298 17.6645 10.7955 17.1492Z" fill="#21409C"/>
<path d="M5.57436 28.0615C5.69014 28.1511 5.82883 28.2063 5.97454 28.2207C6.12024 28.2351 6.26706 28.2082 6.39816 28.143C6.52974 28.0788 6.64054 27.9788 6.71784 27.8545C6.79514 27.7301 6.83581 27.5865 6.83518 27.4401V25.9379H26.6521C26.8599 25.9376 27.059 25.855 27.2059 25.7081C27.3528 25.5612 27.4354 25.362 27.4356 25.1543V19.4367C27.4356 19.0299 27.1055 18.6997 26.6987 18.6997C26.2919 18.6997 25.9617 19.0299 25.9617 19.4367V24.464H6.14477C5.93701 24.4641 5.73779 24.5467 5.59089 24.6936C5.44398 24.8405 5.36139 25.0397 5.36126 25.2475V26.0401L2.4177 23.7807L5.36126 21.5219V22.338C5.36126 22.7703 5.71254 23.1216 6.14477 23.1216H22.9438C23.3507 23.1216 23.6808 22.7914 23.6808 22.3846C23.6808 21.9778 23.3507 21.6477 22.9438 21.6477H6.83518V20.1218C6.83518 19.821 6.66777 19.5519 6.39816 19.419C6.26717 19.3537 6.12043 19.3267 5.97478 19.341C5.82913 19.3554 5.69048 19.4105 5.57473 19.5L0.807068 23.1589C0.614721 23.3063 0.5 23.5385 0.5 23.7807C0.5 24.0229 0.614721 24.2558 0.806577 24.4026L5.57436 28.0615ZM56.1935 23.1594L51.4258 19.5004C51.31 19.4108 51.1713 19.3556 51.0256 19.3411C50.8799 19.3266 50.7331 19.3534 50.602 19.4185C50.4704 19.4827 50.3597 19.5828 50.2824 19.7071C50.2051 19.8314 50.1644 19.9749 50.1649 20.1213V21.6476H34.0563C33.649 21.6476 33.3193 21.9772 33.3193 22.3845C33.3193 22.7915 33.649 23.1215 34.0563 23.1215H50.8554C51.0631 23.1212 51.2622 23.0386 51.4091 22.8917C51.5559 22.7448 51.6386 22.5457 51.6389 22.338V21.5219L54.5823 23.7807L51.6389 26.0396V25.2474C51.6386 25.0396 51.556 24.8405 51.409 24.6936C51.2621 24.5468 51.063 24.4642 50.8552 24.464H31.0383V19.4367C31.0383 19.0294 30.7083 18.6997 30.3013 18.6997C29.8944 18.6997 29.5644 19.0294 29.5644 19.4367V25.1543C29.5646 25.3621 29.6472 25.5613 29.7941 25.7082C29.941 25.8551 30.1402 25.9377 30.348 25.9379H50.1649V27.4401C50.1644 27.5864 50.2051 27.73 50.2824 27.8543C50.3597 27.9785 50.4704 28.0785 50.602 28.1427C50.7099 28.1962 50.8288 28.224 50.9493 28.2241C51.1182 28.2241 51.2852 28.1688 51.4253 28.0615L56.1945 24.4016C56.3854 24.2542 56.5001 24.0221 56.5001 23.7807C56.5001 23.5393 56.3854 23.3072 56.1935 23.1594Z" fill="#21409C"/>
</g>
<defs>
<clipPath id="clip0_3884_2105">
<rect width="56" height="56" fill="white" transform="translate(0.5)"/>
</clipPath>
</defs>
</svg>
