<svg width="57" height="56" viewBox="0 0 57 56" fill="none" xmlns="http://www.w3.org/2000/svg">
<g clip-path="url(#clip0_3884_2117)">
<path d="M28.4992 6.99512C23.8604 6.99512 20.0996 10.7556 20.0996 15.3949C20.0996 20.0337 23.8604 23.7942 28.4992 23.7942C33.1381 23.7942 36.8989 20.0337 36.8989 15.3949C36.8939 10.7578 33.136 7.00015 28.4992 6.99512ZM28.4992 21.9277C24.8913 21.9277 21.9661 19.0028 21.9661 15.395C21.9661 11.7865 24.8913 8.86174 28.4992 8.86174C32.1072 8.86174 35.0324 11.7865 35.0324 15.3949C35.0281 19.0011 32.1055 21.9237 28.4992 21.9276V21.9277Z" fill="#21409C"/>
<path d="M28.4986 10.728C25.9216 10.728 23.832 12.8172 23.832 15.3946C23.832 17.9717 25.9217 20.0608 28.4986 20.0608C31.0756 20.0608 33.1653 17.9717 33.1653 15.3946C33.1623 12.8184 31.0744 10.7311 28.4986 10.728ZM28.4986 18.1943C26.9525 18.1943 25.6985 16.9408 25.6985 15.3946C25.6985 13.8481 26.9525 12.5946 28.4986 12.5946C30.0448 12.5946 31.2987 13.848 31.2987 15.3946C31.297 16.9404 30.0443 18.1925 28.4986 18.1943Z" fill="#21409C"/>
<path d="M42.4981 20.0609C43.5286 20.0601 44.3634 19.2249 44.3646 18.1944V12.5947C44.3634 11.5643 43.5286 10.7295 42.4981 10.7281H39.6971C39.2993 9.76265 38.7752 8.85415 38.1386 8.02637L39.5331 5.60819C39.6575 5.39615 39.7387 5.1616 39.7721 4.91803C39.8055 4.67446 39.7903 4.42669 39.7276 4.189C39.6646 3.95137 39.5554 3.7285 39.4062 3.53319C39.2569 3.33788 39.0705 3.17398 38.8577 3.0509L34.0053 0.250688L33.9959 0.245985C33.1042 -0.260727 31.9708 0.0486811 31.4603 0.93808L30.0624 3.3614C29.0238 3.22938 27.9727 3.22938 26.9342 3.3614L25.5419 0.947049C25.0295 0.0517435 23.889 -0.259743 22.9921 0.250797L18.1372 3.05254C17.9252 3.17558 17.7395 3.3392 17.5907 3.53406C17.442 3.72891 17.3331 3.95117 17.2703 4.18813C17.2076 4.42506 17.1922 4.67204 17.225 4.91493C17.2579 5.15782 17.3383 5.39184 17.4617 5.6036L18.8587 8.02637C18.2221 8.85415 17.6981 9.76265 17.3002 10.7281H14.4993C13.4688 10.7295 12.634 11.5643 12.6328 12.5948V18.1944C12.634 19.2249 13.4688 20.0601 14.4993 20.0609H17.3003C17.6982 21.0266 18.2222 21.9352 18.8588 22.7631L17.4644 25.1809C17.34 25.3929 17.2587 25.6275 17.2253 25.871C17.192 26.1146 17.2071 26.3624 17.2699 26.6001C17.3326 26.8378 17.4418 27.0607 17.5911 27.256C17.7404 27.4513 17.9268 27.6152 18.1397 27.7382L23.0012 30.543C23.2821 30.7016 23.5992 30.7847 23.9218 30.7844C24.2496 30.7862 24.5719 30.7007 24.8557 30.5366C25.1394 30.3725 25.3744 30.1359 25.5363 29.8509L26.9342 27.4272C27.9727 27.5597 29.0239 27.5597 30.0624 27.4272L31.4551 29.8424C31.9678 30.7378 33.1085 31.0488 34.0053 30.5379L38.8602 27.7365C39.0723 27.6135 39.258 27.4499 39.4067 27.255C39.5555 27.0602 39.6643 26.8379 39.7271 26.6009C39.7898 26.3639 39.8052 26.1169 39.7724 25.874C39.7395 25.631 39.6591 25.397 39.5357 25.1851L38.1387 22.7631C38.7753 21.9352 39.2994 21.0266 39.6973 20.0609H42.4981ZM38.1725 18.822C37.7581 20.0115 37.1234 21.1125 36.3016 22.0672C36.176 22.2138 36.0989 22.3957 36.0811 22.588C36.0633 22.7802 36.1056 22.9732 36.2021 23.1404L37.9251 26.1216L33.0782 28.9186L31.3607 25.9413C31.2645 25.7743 31.1189 25.6411 30.9439 25.5602C30.769 25.4793 30.5732 25.4547 30.3836 25.4896C29.1374 25.7169 27.8604 25.7169 26.6143 25.4896C26.4247 25.4544 26.2288 25.4789 26.0538 25.5598C25.8787 25.6407 25.7331 25.7741 25.6372 25.9413L23.9256 28.9217L19.0783 26.1182L20.7954 23.1408C20.8919 22.9736 20.9342 22.7807 20.9165 22.5885C20.8987 22.3963 20.8218 22.2143 20.6962 22.0677C19.8741 21.1131 19.2393 20.0121 18.8249 18.8224C18.7614 18.6391 18.6424 18.4801 18.4844 18.3675C18.3264 18.255 18.1372 18.1945 17.9432 18.1944H14.4993V12.5947H17.9432C18.1371 12.5946 18.3262 12.5341 18.4841 12.4216C18.6421 12.3092 18.7611 12.1503 18.8246 11.9671C19.2394 10.7776 19.8743 9.67687 20.6962 8.72229C20.8218 8.57559 20.8988 8.39358 20.9166 8.20132C20.9344 8.00905 20.8922 7.81599 20.7958 7.64871L19.0724 4.6675L23.9193 1.87046L25.6367 4.84785C25.7325 5.01532 25.878 5.14879 26.0531 5.2297C26.2283 5.31062 26.4242 5.33496 26.6138 5.29933C27.86 5.07248 29.137 5.07248 30.3832 5.29933C30.5728 5.33455 30.7686 5.31007 30.9437 5.22926C31.1188 5.14846 31.2645 5.0153 31.3607 4.84818L33.0717 1.87134H33.0735L33.0789 1.87254L37.9186 4.6722L36.2017 7.64959C36.1051 7.81674 36.0628 8.00971 36.0806 8.20192C36.0983 8.39412 36.1753 8.57608 36.3008 8.72273C37.1227 9.67743 37.7575 10.7784 38.1721 11.968C38.2358 12.1511 38.355 12.3099 38.5131 12.4222C38.6712 12.5345 38.8603 12.5948 39.0543 12.5947H42.4981V18.1944H39.0543C38.8603 18.1944 38.6711 18.2549 38.5131 18.3673C38.355 18.4798 38.236 18.6387 38.1724 18.822H38.1725Z" fill="#21409C"/>
<path d="M3.3001 53.6596H7.96627C8.35788 53.6585 8.74485 53.5748 9.10189 53.4139C9.45893 53.2531 9.77802 53.0187 10.0383 52.7261H33.4453C34.8146 52.7265 36.1576 52.3498 37.3271 51.6375L54.8216 40.9885C55.2371 40.7354 55.5952 40.3982 55.8729 39.9987C56.1505 39.5991 56.3416 39.1459 56.4339 38.6682C56.5261 38.2053 56.5219 37.7283 56.4214 37.2671C56.3209 36.8059 56.1263 36.3704 55.8499 35.9878C55.8334 35.9602 55.8154 35.9336 55.7961 35.9079C55.3571 35.3212 54.7443 34.8877 54.0448 34.6692C53.3453 34.4507 52.5947 34.4582 51.8998 34.6906L34.6244 40.4493C34.3385 40.5443 34.0392 40.5928 33.7379 40.5929H33.2017C33.4208 39.993 33.5033 39.3519 33.4432 38.7161C33.3831 38.0804 33.1819 37.466 32.8544 36.9178L32.7707 36.7786C32.2708 35.9514 31.5664 35.2668 30.7253 34.7907C29.8842 34.3146 28.9347 34.063 27.9682 34.0601H23.087C21.3654 34.058 19.6952 33.4722 18.3496 32.3982C16.6721 31.0601 14.5907 30.3299 12.4449 30.327H10.5941C10.4024 29.7826 10.0468 29.311 9.57632 28.9768C9.10581 28.6426 8.54339 28.4622 7.96627 28.4604H3.3001C1.75437 28.4622 0.50175 29.7148 0.5 31.2605V50.8596C0.50175 52.4053 1.75437 53.6579 3.3001 53.6596ZM17.1828 33.8559C18.8599 35.1941 20.9411 35.9241 23.0866 35.9267H27.9678C28.6121 35.9285 29.245 36.0961 29.8057 36.4134C30.3664 36.7308 30.8359 37.1871 31.1691 37.7386L31.2532 37.8778C31.5022 38.2931 31.622 38.7731 31.5973 39.2567C31.5725 39.7403 31.4044 40.2056 31.1143 40.5933H25.442C23.5991 40.5919 21.7973 41.1376 20.2649 42.1612L19.5813 42.617C19.3753 42.7543 19.2324 42.9679 19.1839 43.2106C19.1353 43.4533 19.1852 43.7054 19.3226 43.9114C19.4599 44.1173 19.6734 44.2603 19.9162 44.3088C20.1589 44.3573 20.411 44.3074 20.6169 44.1701L21.3005 43.7142C22.5263 42.8951 23.9677 42.4585 25.442 42.4597H33.7374C34.2394 42.4597 34.738 42.3791 35.2139 42.2205L52.4902 36.4624C52.799 36.356 53.1329 36.346 53.4476 36.4338C53.7623 36.5215 54.0429 36.7028 54.2521 36.9537C54.2683 36.9811 54.2867 37.0071 54.3055 37.0332C54.4413 37.2144 54.5377 37.422 54.5886 37.6426C54.6396 37.8633 54.6438 38.0921 54.6011 38.3145C54.5584 38.5368 54.4697 38.7477 54.3406 38.9337C54.2116 39.1197 54.0451 39.2767 53.8518 39.3945L36.3573 50.0435C35.4797 50.5771 34.4724 50.8593 33.4453 50.8594H10.7663V32.1937H12.4449C14.1668 32.1959 15.837 32.7819 17.1828 33.856V33.8559ZM2.36651 31.2605C2.36675 31.013 2.46518 30.7757 2.64021 30.6007C2.81524 30.4256 3.05257 30.3272 3.3001 30.327H7.96627C8.21377 30.3272 8.45105 30.4257 8.62605 30.6007C8.80106 30.7757 8.89949 31.0129 8.89975 31.2604V50.8596C8.89931 51.3747 8.48152 51.7922 7.96627 51.7926H3.3001C2.78485 51.7922 2.36695 51.3748 2.36651 50.8596V31.2605Z" fill="#21409C"/>
</g>
<defs>
<clipPath id="clip0_3884_2117">
<rect width="56" height="56" fill="white" transform="translate(0.5)"/>
</clipPath>
</defs>
</svg>
