<svg width="57" height="56" viewBox="0 0 57 56" fill="none" xmlns="http://www.w3.org/2000/svg">
<g clip-path="url(#clip0_3884_2110)">
<path d="M0.56652 52.2786L1.2924 53.9126L27.3416 43.1115L31.8797 43.6561L33.5132 48.6481L31.335 50.7359C30.5181 51.4619 30.2461 52.6415 30.6999 53.7309L31.6075 56L46.6738 50.1004L45.8571 47.9221C45.494 46.8328 44.4956 46.1977 43.3159 46.1977H40.3204L38.6869 42.2947L42.6805 40.2981C43.9509 39.6627 44.4957 38.2104 44.0419 36.9398L38.8686 23.0532C38.324 21.601 36.7808 20.9654 35.3285 21.4192C35.3285 21.4192 35.238 21.4192 35.238 21.51L31.4259 23.1437L30.8813 21.7823L32.969 19.3319C34.4208 17.6978 35.3285 15.7014 35.6011 13.5231L38.2331 10.3464C39.9576 8.3495 39.5945 5.35444 37.5975 3.62961C37.2346 3.35754 36.8717 3.08537 36.5087 2.90373C35.5102 2.44991 34.5117 2.35904 33.4228 2.63155L33.1503 1.81435C32.6965 0.362483 31.063 -0.363847 29.7015 0.180843L10.5504 7.07882C9.09823 7.62351 8.37213 9.16625 8.91682 10.5277V10.6185L9.37063 11.7984C7.0108 12.8875 5.92141 15.6104 6.73817 17.9705C7.37373 19.7857 9.00724 21.0563 10.9134 21.3284L15.1795 21.7822C16.9038 23.0532 18.9912 23.8701 21.079 24.0512L24.074 24.3239L24.6186 25.6853C23.9832 26.0483 23.5294 26.6837 23.3481 27.5006L22.7125 30.5864L0.566406 39.5718L1.20197 41.2963L13.9088 36.2138L16.9947 45.4714L0.56652 52.2786ZM44.0419 48.4668L44.2235 49.011L32.6056 53.6401L32.3335 53.0955C32.2428 52.7324 32.3335 52.3694 32.5152 52.0973L35.6011 49.1928L39.5037 47.9221H43.1342C43.588 47.9221 43.8605 48.1034 44.0418 48.4668H44.0419ZM38.3239 46.2881L35.0564 47.3775L33.8766 43.9287C34.4208 44.0191 34.8747 43.9287 35.3285 43.6561L36.8717 42.9303L38.3239 46.2881ZM35.8733 22.8716C36.3271 22.6898 36.8717 22.8716 37.0533 23.3254L37.7793 25.2314L33.3319 26.6837L33.8766 28.4082L38.324 26.9559L39.4128 29.8604L35.1473 31.3123L35.6919 33.0371L40.0484 31.5849L41.1376 34.489L36.9625 35.8504L37.5071 37.5753L41.7727 36.123L42.2266 37.3027C42.4083 37.7566 42.2266 38.2104 41.7727 38.3921L34.6025 41.9318C34.421 42.0225 34.2397 42.0225 34.0579 42.0225L27.8863 41.2962L24.5278 31.2219L25.1634 27.8635C25.2541 27.5913 25.4354 27.3188 25.7079 27.2279L35.8733 22.8716ZM35.7823 4.53723C37.2346 5.1728 37.9609 6.89718 37.3255 8.44038C37.2347 8.71244 37.0533 8.89419 36.8717 9.16625L35.7823 10.5277C35.6919 9.62007 35.5102 8.8032 35.238 7.89557L34.0579 4.35605C34.6935 4.26517 35.238 4.35605 35.7824 4.53723H35.7823ZM8.55342 17.5167C8.00919 15.9735 8.6443 14.34 10.0966 13.6135L11.3673 16.6998C11.8211 17.7887 12.4565 18.8781 13.1826 19.7857L11.2763 19.604C10.0057 19.5132 8.91682 18.6964 8.55342 17.5167ZM21.442 22.3269C17.7207 21.9638 14.453 19.604 13.0916 16.0642L10.7321 10.0739C10.5504 9.62007 10.7321 9.07549 11.1859 8.89419L30.3365 1.9961C30.6091 1.90522 30.7903 1.90522 31.063 1.9961C31.2441 2.08686 31.4259 2.26816 31.5168 2.54068L33.5132 8.53114C34.6026 11.8891 33.8766 15.5197 31.6075 18.1517L28.7939 21.4192L29.6106 23.5975L26.3432 24.959L25.4355 22.6899L21.442 22.3269ZM15.6332 35.4875L17.7207 34.6706L19.9898 41.5688L21.714 41.0241L19.3545 33.9447L22.9851 32.4925L26.071 41.6596L18.7191 44.7455L15.6332 35.4875ZM45.4033 15.8826V16.7902H47.2185V15.8826C47.2185 13.3415 49.2155 11.3444 51.7567 11.3444V9.52919C49.2155 9.52919 47.2185 7.53275 47.2185 4.99105V4.08342H45.4033V4.99105C45.4033 7.53275 43.4067 9.52919 40.8651 9.52919V11.3444C43.4067 11.3444 45.4033 13.3415 45.4033 15.8826ZM46.3109 8.25862C46.8555 9.16625 47.5816 9.89258 48.4892 10.4369C47.5816 10.9815 46.8555 11.7078 46.3109 12.6155C45.7663 11.7078 45.0402 10.9815 44.1326 10.4368C45.0402 9.89258 45.7663 9.16625 46.3109 8.25862Z" fill="#21409C"/>
<path d="M5.46783 34.035V34.9427H7.28309V34.035C7.28309 31.4939 9.2801 29.4969 11.8212 29.4969V27.6816C9.2801 27.6816 7.28309 25.6852 7.28309 23.1435V22.2359H5.46783V23.1435C5.46783 25.6852 3.47127 27.6816 0.929688 27.6816V29.4969C3.47127 29.4969 5.46783 31.4939 5.46783 34.035ZM6.37546 26.4111C6.92004 27.3187 7.64614 28.045 8.55377 28.5894C7.64614 29.134 6.92004 29.8603 6.37546 30.7679C5.83088 29.8603 5.10478 29.134 4.19715 28.5893C5.10478 28.045 5.83088 27.3187 6.37546 26.4111ZM50.8493 23.1435V22.2359H49.034V23.1435C49.034 25.6852 47.0374 27.6816 44.4959 27.6816V29.4969C47.0374 29.4969 49.034 31.4939 49.034 34.035V34.9427H50.8493V34.035C50.8493 31.4939 52.8463 29.4969 55.3874 29.4969V27.6816C52.8463 27.6816 50.8493 25.6852 50.8493 23.1435ZM49.9416 30.7679C49.397 29.8603 48.6709 29.134 47.7633 28.5893C48.6709 28.045 49.397 27.3187 49.9416 26.4111C50.4862 27.3187 51.2123 28.045 52.1199 28.5894C51.2123 29.134 50.4862 29.8603 49.9416 30.7679ZM27.5234 16.1551L28.7941 17.4257C33.7861 12.4337 29.157 4.80962 28.8849 4.53711L27.3418 5.53561C27.4326 5.53561 31.5169 12.1615 27.5234 16.1551Z" fill="#21409C"/>
</g>
<defs>
<clipPath id="clip0_3884_2110">
<rect width="56" height="56" fill="white" transform="translate(0.5)"/>
</clipPath>
</defs>
</svg>
