<svg width="40" height="40" viewBox="0 0 40 40" fill="none" xmlns="http://www.w3.org/2000/svg">
<path d="M20 40C31.0457 40 40 31.0457 40 20C40 8.95431 31.0457 0 20 0C8.95431 0 0 8.95431 0 20C0 31.0457 8.95431 40 20 40Z" fill="#F7931E"/>
<path d="M40 20C40 31.0667 31.0667 40 20 40C8.93333 40 0 31.0667 0 20H40Z" fill="#009245"/>
<path d="M40 19.9999C40 17.7333 39.6 15.4666 38.8 13.3333H1.2C-0.4 17.5999 -0.4 22.3999 1.2 26.6666H38.9333C39.6 24.5333 40 22.2666 40 19.9999Z" fill="#F0F0F0"/>
<path d="M19.9993 14.6667C17.066 14.6667 14.666 17.0667 14.666 20.0001C14.666 22.9334 17.066 25.3334 19.9993 25.3334C22.9327 25.3334 25.3327 22.9334 25.3327 20.0001C25.3327 17.0667 22.9327 14.6667 19.9993 14.6667ZM19.9993 24.0001C17.7327 24.0001 15.9993 22.2667 15.9993 20.0001C15.9993 17.7334 17.7327 16.0001 19.9993 16.0001C22.266 16.0001 23.9993 17.7334 23.9993 20.0001C23.9993 22.2667 22.266 24.0001 19.9993 24.0001Z" fill="black"/>
<path d="M20.0007 22.6666C21.4734 22.6666 22.6673 21.4727 22.6673 19.9999C22.6673 18.5272 21.4734 17.3333 20.0007 17.3333C18.5279 17.3333 17.334 18.5272 17.334 19.9999C17.334 21.4727 18.5279 22.6666 20.0007 22.6666Z" fill="black"/>
</svg>
