<svg width="40" height="40" viewBox="0 0 40 40" fill="none" xmlns="http://www.w3.org/2000/svg">
<g clip-path="url(#clip0_2928_281)">
<path d="M20 40C31.0457 40 40 31.0457 40 20C40 8.9543 31.0457 0 20 0C8.9543 0 0 8.9543 0 20C0 31.0457 8.9543 40 20 40Z" fill="#FFDA44"/>
<path d="M15.6529 17.3913H39.8313C38.553 7.57828 30.1621 7.23008e-07 20.0006 7.23008e-07C18.5384 -0.000391769 17.0804 0.159018 15.6528 0.475391L15.6529 17.3913ZM10.4354 17.3913V2.4318C4.94367 5.4282 1.01234 10.9244 0.169922 17.3913L10.4354 17.3913ZM10.4353 22.6087H0.169922C1.01234 29.0756 4.94367 34.5718 10.4354 37.5681L10.4353 22.6087ZM15.6528 22.6087V39.5246C17.0804 39.841 18.5384 40.0004 20.0006 40C30.1621 40 38.553 32.4217 39.8313 22.6087H15.6528V22.6087Z" fill="#0052B4"/>
</g>
<defs>
<clipPath id="clip0_2928_281">
<rect width="40" height="40" fill="white"/>
</clipPath>
</defs>
</svg>
