<svg width="80" height="80" viewBox="0 0 80 80" fill="none" xmlns="http://www.w3.org/2000/svg">
<g clip-path="url(#clip0_3907_3035)">
<path d="M33.3507 5.34912C17.8926 5.34912 5.36133 17.8804 5.36133 33.3385C5.36133 48.7966 17.8926 61.3279 33.3507 61.3279C48.8089 61.3279 61.3401 48.7966 61.3401 33.3385C61.3233 17.8874 48.8019 5.36595 33.3507 5.34912ZM33.3507 8.01478C37.4076 8.01797 41.4043 8.99685 45.0035 10.8688C48.6027 12.7408 51.6989 15.451 54.0309 18.7707L50.6988 22.1028C49.8879 21.6121 48.9596 21.3496 48.0118 21.3431C45.0674 21.3431 42.6805 23.73 42.6805 26.6744C42.6851 27.6231 42.9462 28.5529 43.4362 29.3653L34.7089 38.0927C33.8983 37.5984 32.9673 37.337 32.0179 37.337C31.0685 37.337 30.1375 37.5984 29.3269 38.0927L23.2652 32.031C23.7552 31.2186 24.0163 30.2888 24.0209 29.34C24.0246 26.4015 21.6455 24.0164 18.7069 24.0127C16.2767 24.0097 14.1533 25.6536 13.5476 28.0072H8.60277C11.1263 16.3538 21.4272 8.03227 33.3507 8.01478ZM50.6775 26.6744C50.6775 28.1466 49.4841 29.34 48.0118 29.34C46.5395 29.34 45.3462 28.1466 45.3462 26.6744C45.3462 25.2021 46.5395 24.0087 48.0118 24.0087C49.4841 24.0087 50.6775 25.2021 50.6775 26.6744ZM34.6835 42.6683C34.6835 44.1406 33.4902 45.334 32.0179 45.334C30.5456 45.334 29.3522 44.1406 29.3522 42.6683C29.3522 41.196 30.5456 40.0026 32.0179 40.0026C33.4902 40.0026 34.6835 41.196 34.6835 42.6683ZM21.3553 29.34C21.3553 30.8123 20.1619 32.0057 18.6896 32.0057C17.2173 32.0057 16.024 30.8123 16.024 29.34C16.024 27.8677 17.2173 26.6744 18.6896 26.6744C20.1619 26.6744 21.3553 27.8677 21.3553 29.34ZM45.655 55.4811C41.891 57.571 37.656 58.6659 33.3507 58.6621C19.3743 58.6716 8.03648 47.3494 8.02698 33.373C8.02632 32.471 8.07397 31.5695 8.1696 30.6727H13.5476C14.1535 33.0193 16.266 34.662 18.6896 34.6712C19.6383 34.6665 20.5682 34.4054 21.3806 33.9155L27.4423 39.9772C26.9523 40.7896 26.6912 41.7194 26.6866 42.6681C26.6866 45.6125 29.0735 47.9995 32.0179 47.9995C34.9623 47.9995 37.3492 45.6125 37.3492 42.6681C37.3446 41.7194 37.0835 40.7896 36.5935 39.9772L45.3208 31.2498C46.1333 31.7398 47.0631 32.0009 48.0118 32.0055C50.9562 32.0055 53.3431 29.6186 53.3431 26.6742C53.3385 25.7255 53.0774 24.7957 52.5874 23.9832L55.493 21.079C62.2762 33.2957 57.8716 48.698 45.655 55.4811Z" fill="white"/>
<path d="M66.6717 13.346C69.0953 13.3368 71.2078 11.6943 71.8137 9.3475H79.9999V6.68185H71.8137C71.2078 4.33507 69.0953 2.69253 66.6717 2.68336C63.7273 2.68336 61.3404 5.07029 61.3404 8.01468C61.345 8.96341 61.6061 9.89323 62.0961 10.7057L59.7543 13.0474C48.5494 -1.55053 27.632 -4.30115 13.034 6.90376C-1.56396 18.1087 -4.31458 39.0263 6.89034 53.6242C17.467 67.4035 36.8548 70.7461 51.4348 61.3038L55.4573 65.3263L57.3419 67.2109L68.0711 77.9402C70.7999 80.669 75.2239 80.669 77.9527 77.9402C80.6815 75.2114 80.6815 70.7874 77.9527 68.0586L67.2235 57.3293L65.3388 55.4447L61.3164 51.4222C68.4568 40.4237 68.4568 26.2533 61.3164 15.2546L63.982 12.5889C64.794 13.0791 65.7233 13.3407 66.6717 13.346ZM66.6717 5.34902C68.1439 5.34902 69.3373 6.5424 69.3373 8.01468C69.3373 9.48695 68.1439 10.6803 66.6717 10.6803C65.1994 10.6803 64.006 9.48695 64.006 8.01468C64.006 6.5424 65.1996 5.34902 66.6717 5.34902ZM76.0681 69.9432C77.7751 71.6119 77.8063 74.3485 76.1376 76.0555C74.4689 77.7626 71.7322 77.7937 70.0252 76.125C70.0018 76.1022 69.9786 76.079 69.9558 76.0555L59.2265 65.3263L65.3388 59.2139L76.0681 69.9432ZM63.4542 57.3293L57.3419 63.4417L53.6526 59.7524C53.8405 59.6085 54.0165 59.4498 54.2017 59.3019C54.387 59.154 54.6016 58.9767 54.8002 58.8101C55.0921 58.5648 55.3799 58.3169 55.6625 58.0624C55.8078 57.9291 55.9464 57.7958 56.089 57.6625C56.6353 57.1509 57.1647 56.6214 57.6764 56.0751C57.8097 55.9325 57.943 55.7939 58.0763 55.6486C58.3305 55.3655 58.5797 55.078 58.824 54.7863C58.9909 54.5893 59.1549 54.3898 59.3158 54.1878C59.4624 54.0039 59.621 53.828 59.765 53.64L63.4542 57.3293ZM58.2855 51.1383C57.8657 51.7248 57.4325 52.2992 56.9753 52.8523C56.8421 53.0136 56.6995 53.1696 56.5622 53.3282C56.1554 53.8015 55.7341 54.2619 55.2986 54.709C55.1094 54.9044 54.917 55.0968 54.7215 55.2861C54.2753 55.7224 53.8148 56.1438 53.3407 56.5496C53.1821 56.6829 53.0262 56.8282 52.8649 56.9628C52.3118 57.4199 51.7373 57.8531 51.1509 58.273C37.3535 68.1301 18.1776 64.9358 8.32046 51.1383C-1.53663 37.3409 1.65765 18.165 15.4551 8.3079C29.2525 -1.5492 48.4284 1.64492 58.2855 15.4425C65.9128 26.1188 65.9128 40.462 58.2855 51.1383Z" fill="white"/>
</g>
<defs>
<clipPath id="clip0_3907_3035">
<rect width="80" height="80" fill="white"/>
</clipPath>
</defs>
</svg>
