<svg width="80" height="80" viewBox="0 0 80 80" fill="none" xmlns="http://www.w3.org/2000/svg">
<path d="M22.7335 31.4589C22.7335 31.146 22.6092 30.846 22.388 30.6248C22.1668 30.4036 21.8667 30.2793 21.5539 30.2793H13.0702C12.7574 30.2793 12.4573 30.4036 12.2361 30.6248C12.0149 30.846 11.8906 31.146 11.8906 31.4589V39.9424C11.8906 40.2553 12.0149 40.5553 12.2361 40.7765C12.4573 40.9977 12.7574 41.122 13.0702 41.122H21.5539C21.8667 41.122 22.1668 40.9977 22.388 40.7765C22.6092 40.5553 22.7335 40.2553 22.7335 39.9424V31.4589ZM20.3743 38.7628H14.2498V32.6385H20.3743V38.7628ZM37.8567 31.4589C37.8567 31.304 37.8262 31.1506 37.7669 31.0075C37.7076 30.8644 37.6208 30.7343 37.5112 30.6248C37.4017 30.5153 37.2716 30.4284 37.1285 30.3691C36.9854 30.3098 36.832 30.2793 36.6771 30.2793H28.1935C27.8806 30.2793 27.5806 30.4036 27.3593 30.6248C27.1381 30.846 27.0139 31.146 27.0139 31.4589V39.9424C27.0139 40.2553 27.1381 40.5553 27.3593 40.7765C27.5806 40.9977 27.8806 41.122 28.1935 41.122H36.6771C36.832 41.122 36.9854 41.0915 37.1285 41.0322C37.2716 40.9729 37.4017 40.886 37.5112 40.7765C37.6208 40.667 37.7076 40.5369 37.7669 40.3938C37.8262 40.2507 37.8567 40.0973 37.8567 39.9424V31.4589ZM35.4975 38.7628H29.373V32.6385H35.4975V38.7628ZM52.9798 31.4589C52.9798 31.146 52.8555 30.846 52.6343 30.6248C52.4131 30.4036 52.113 30.2793 51.8002 30.2793H43.3165C43.1616 30.2793 43.0082 30.3098 42.8651 30.369C42.722 30.4283 42.5919 30.5152 42.4824 30.6247C42.3728 30.7343 42.2859 30.8643 42.2267 31.0075C42.1674 31.1506 42.1369 31.304 42.1369 31.4589V39.9424C42.1369 40.594 42.6649 41.122 43.3165 41.122H51.8002C52.113 41.122 52.4131 40.9977 52.6343 40.7765C52.8555 40.5553 52.9798 40.2553 52.9798 39.9424V31.4589ZM50.6206 38.7628H44.4961V32.6385H50.6206V38.7628ZM58.4398 41.122H66.9234C67.575 41.122 68.103 40.594 68.103 39.9424V31.4589C68.103 30.8073 67.575 30.2793 66.9234 30.2793H58.4398C58.2848 30.2793 58.1314 30.3098 57.9883 30.369C57.8452 30.4283 57.7151 30.5152 57.6056 30.6247C57.4961 30.7343 57.4092 30.8643 57.3499 31.0075C57.2906 31.1506 57.2601 31.304 57.2602 31.4589V39.9424C57.2602 40.594 57.7881 41.122 58.4398 41.122ZM59.6194 32.6385H65.7438V38.7628H59.6194V32.6385ZM22.7335 46.8119C22.7335 46.4991 22.6092 46.199 22.388 45.9778C22.1668 45.7566 21.8667 45.6323 21.5539 45.6323H13.0702C12.7574 45.6323 12.4573 45.7566 12.2361 45.9778C12.0149 46.199 11.8906 46.4991 11.8906 46.8119V55.2954C11.8906 55.6083 12.0149 55.9083 12.2361 56.1295C12.4573 56.3507 12.7574 56.475 13.0702 56.475H21.5539C21.8667 56.475 22.1668 56.3507 22.388 56.1295C22.6092 55.9083 22.7335 55.6083 22.7335 55.2954V46.8119ZM20.3743 54.1158H14.2498V47.9915H20.3743V54.1158ZM37.8567 46.8119C37.8567 46.657 37.8262 46.5036 37.7669 46.3605C37.7076 46.2174 37.6208 46.0873 37.5112 45.9778C37.4017 45.8683 37.2716 45.7814 37.1285 45.7221C36.9854 45.6628 36.832 45.6323 36.6771 45.6323H28.1935C27.8806 45.6323 27.5806 45.7566 27.3593 45.9778C27.1381 46.199 27.0139 46.4991 27.0139 46.8119V55.2954C27.0139 55.6083 27.1381 55.9083 27.3593 56.1295C27.5806 56.3507 27.8806 56.475 28.1935 56.475H36.6771C36.832 56.475 36.9854 56.4445 37.1285 56.3852C37.2716 56.3259 37.4017 56.239 37.5112 56.1295C37.6208 56.02 37.7076 55.8899 37.7669 55.7468C37.8262 55.6037 37.8567 55.4503 37.8567 55.2954V46.8119ZM35.4975 54.1158H29.373V47.9915H35.4975V54.1158ZM52.9798 46.8119C52.9798 46.4991 52.8555 46.199 52.6343 45.9778C52.4131 45.7566 52.113 45.6323 51.8002 45.6323H43.3165C43.1616 45.6323 43.0082 45.6628 42.8651 45.7221C42.722 45.7813 42.5919 45.8682 42.4824 45.9778C42.3728 46.0873 42.2859 46.2173 42.2267 46.3605C42.1674 46.5036 42.1369 46.657 42.1369 46.8119V55.2954C42.1369 55.947 42.6649 56.475 43.3165 56.475H51.8002C52.113 56.475 52.4131 56.3507 52.6343 56.1295C52.8555 55.9083 52.9798 55.6083 52.9798 55.2954V46.8119ZM50.6206 54.1158H44.4961V47.9915H50.6206V54.1158ZM57.2602 55.2954C57.2602 55.947 57.7881 56.475 58.4398 56.475H66.9234C67.575 56.475 68.103 55.947 68.103 55.2954V46.8119C68.103 46.1603 67.575 45.6323 66.9234 45.6323H58.4398C58.2848 45.6323 58.1314 45.6628 57.9883 45.7221C57.8452 45.7813 57.7151 45.8682 57.6056 45.9778C57.4961 46.0873 57.4092 46.2173 57.3499 46.3605C57.2906 46.5036 57.2601 46.657 57.2602 46.8119V55.2954ZM59.6194 47.9915H65.7438V54.1158H59.6194V47.9915ZM21.5539 60.9853H13.0702C12.7574 60.9853 12.4573 61.1096 12.2361 61.3308C12.0149 61.552 11.8906 61.8521 11.8906 62.1649V70.6484C11.8906 70.9613 12.0149 71.2613 12.2361 71.4825C12.4573 71.7037 12.7574 71.828 13.0702 71.828H21.5539C21.8667 71.828 22.1668 71.7037 22.388 71.4825C22.6092 71.2613 22.7335 70.9613 22.7335 70.6484V62.1649C22.7335 61.8521 22.6092 61.552 22.388 61.3308C22.1668 61.1096 21.8667 60.9853 21.5539 60.9853ZM20.3743 69.4688H14.2498V63.3445H20.3743V69.4688ZM36.6771 60.9853H28.1935C27.8806 60.9853 27.5806 61.1096 27.3593 61.3308C27.1381 61.552 27.0139 61.8521 27.0139 62.1649V70.6484C27.0139 70.9613 27.1381 71.2613 27.3593 71.4825C27.5806 71.7037 27.8806 71.828 28.1935 71.828H36.6771C36.832 71.828 36.9854 71.7975 37.1285 71.7382C37.2716 71.679 37.4017 71.5921 37.5112 71.4825C37.6208 71.373 37.7076 71.243 37.7669 71.0998C37.8262 70.9567 37.8567 70.8033 37.8567 70.6484V62.1649C37.8567 62.01 37.8262 61.8566 37.7669 61.7135C37.7076 61.5704 37.6208 61.4404 37.5112 61.3308C37.4017 61.2213 37.2716 61.1344 37.1285 61.0751C36.9854 61.0158 36.832 60.9853 36.6771 60.9853ZM35.4975 69.4688H29.373V63.3445H35.4975V69.4688ZM51.8002 60.9853H43.3165C43.1616 60.9853 43.0082 61.0158 42.8651 61.0751C42.722 61.1343 42.5919 61.2212 42.4824 61.3308C42.3728 61.4403 42.2859 61.5704 42.2267 61.7135C42.1674 61.8566 42.1369 62.01 42.1369 62.1649V70.6484C42.1369 71.3 42.6649 71.828 43.3165 71.828H51.8002C52.113 71.828 52.4131 71.7037 52.6343 71.4825C52.8555 71.2613 52.9798 70.9613 52.9798 70.6484V62.1649C52.9798 61.5133 52.4518 60.9853 51.8002 60.9853ZM50.6206 69.4688H44.4961V63.3445H50.6206V69.4688ZM57.2602 70.6484C57.2602 71.3 57.7881 71.828 58.4398 71.828H66.9234C67.575 71.828 68.103 71.3 68.103 70.6484V62.1649C68.103 61.5133 67.575 60.9853 66.9234 60.9853H58.4398C58.2848 60.9853 58.1314 61.0158 57.9883 61.0751C57.8452 61.1343 57.7151 61.2212 57.6056 61.3308C57.4961 61.4403 57.4092 61.5704 57.3499 61.7135C57.2906 61.8566 57.2601 62.01 57.2602 62.1649V70.6484ZM59.6194 63.3445H65.7438V69.4688H59.6194V63.3445Z" fill="white"/>
<path d="M73.1261 8.75576H71.6711V4.24293C71.6711 1.9034 69.7677 0 67.4282 0C65.0886 0 63.1853 1.9034 63.1853 4.24293V8.75576H57.9555V4.24293C57.9557 1.9034 56.0523 0 53.7128 0C51.3732 0 49.4698 1.9034 49.4698 4.24293V8.75576H44.2403V4.24293C44.2404 1.9034 42.337 0 39.9975 0C37.658 0 35.7546 1.9034 35.7546 4.24293V8.75576H30.5249V4.24293C30.525 1.9034 28.6216 0 26.2821 0C23.9426 0 22.0392 1.9034 22.0392 4.24293V8.75576H16.8094V4.24293C16.8096 1.9034 14.9064 0 12.5668 0C10.2273 0 8.32389 1.9034 8.32389 4.24293V8.75576H6.8689C4.19184 8.75576 2.01367 10.9339 2.01367 13.611V75.1448C2.01367 77.822 4.19168 80 6.8689 80H52.0577C52.3706 80 52.6706 79.8757 52.8918 79.6545C53.113 79.4333 53.2373 79.1332 53.2373 78.8204C53.2373 78.1688 52.7093 77.6408 52.0577 77.6408H6.8689C5.4927 77.6408 4.37287 76.5211 4.37287 75.1448V24.6855H19.4311C20.0826 24.6855 20.6107 24.1575 20.6107 23.5059C20.6107 22.8543 20.0826 22.3263 19.4311 22.3263H4.37287V13.611C4.37287 12.2346 5.49254 11.115 6.8689 11.115H8.32389V12.8545C8.32389 15.194 10.2273 17.0974 12.5668 17.0974C14.9064 17.0974 16.8098 15.194 16.8098 12.8545V11.115H22.0395V12.8545C22.0395 15.194 23.9429 17.0974 26.2824 17.0974C28.6219 17.0974 30.5253 15.194 30.5253 12.8545V11.115H35.755V12.8545C35.755 15.194 37.6584 17.0974 39.998 17.0974C42.3375 17.0974 44.2409 15.194 44.2409 12.8545V11.115H49.4705V12.8545C49.4705 15.194 51.3739 17.0974 53.7134 17.0974C56.0529 17.0974 57.9563 15.194 57.9563 12.8545V11.115H63.186V12.8545C63.186 15.194 65.0894 17.0974 67.429 17.0974C69.7685 17.0974 71.6719 15.194 71.6719 12.8545V11.115H73.1269C74.5033 11.115 75.6229 12.2346 75.6229 13.611V22.3263H24.1497C23.4982 22.3263 22.9701 22.8543 22.9701 23.5059C22.9701 24.1575 23.4982 24.6855 24.1497 24.6855H75.6223V75.1448C75.6223 76.5211 74.5026 77.6408 73.1263 77.6408H56.7761C56.6212 77.6408 56.4678 77.6713 56.3247 77.7306C56.1815 77.7898 56.0515 77.8767 55.942 77.9863C55.8324 78.0958 55.7455 78.2258 55.6863 78.369C55.627 78.5121 55.5965 78.6655 55.5965 78.8204C55.5965 79.1332 55.7208 79.4333 55.942 79.6545C56.1632 79.8757 56.4633 80 56.7761 80H73.1261C75.8032 80 77.9813 77.8218 77.9813 75.1448V13.611C77.9813 10.9339 75.8032 8.75576 73.1261 8.75576ZM14.4504 12.8545C14.4504 13.8931 13.6055 14.7382 12.5667 14.7382C11.528 14.7382 10.6829 13.8931 10.6829 12.8545V4.24293C10.6831 3.20426 11.5281 2.3592 12.5668 2.3592C13.6055 2.3592 14.4506 3.20426 14.4506 4.24293L14.4504 12.8545ZM28.1658 12.8545C28.1658 13.8931 27.3208 14.7382 26.2821 14.7382C25.2434 14.7382 24.3983 13.8931 24.3983 12.8545V4.24293C24.3983 3.20426 25.2434 2.3592 26.2821 2.3592C27.3208 2.3592 28.1658 3.20426 28.1658 4.24293V12.8545ZM41.8812 12.8545C41.8812 13.8931 41.0362 14.7382 39.9975 14.7382C38.9588 14.7382 38.1138 13.8931 38.1138 12.8545V4.24293C38.1138 3.20426 38.9588 2.3592 39.9975 2.3592C41.0362 2.3592 41.8812 3.20426 41.8812 4.24293V12.8545ZM55.5965 12.8545C55.5965 13.8931 54.7514 14.7382 53.7128 14.7382C52.6743 14.7382 51.829 13.8931 51.829 12.8545V4.24293C51.829 3.20426 52.6741 2.3592 53.7128 2.3592C54.7514 2.3592 55.5965 3.20426 55.5965 4.24293V12.8545ZM69.3119 12.8545C69.3119 13.8931 68.4669 14.7382 67.4282 14.7382C66.3897 14.7382 65.5444 13.8931 65.5444 12.8545V4.24293C65.5444 3.20426 66.3895 2.3592 67.4282 2.3592C68.4669 2.3592 69.3119 3.20426 69.3119 4.24293V12.8545Z" fill="white"/>
</svg>
