<svg width="80" height="80" viewBox="0 0 80 80" fill="none" xmlns="http://www.w3.org/2000/svg">
<path fill-rule="evenodd" clip-rule="evenodd" d="M28.9054 12.1729C30.2061 10.1203 32.0845 8.49802 34.3045 7.5099C36.5245 6.52178 38.9871 6.21196 41.3827 6.61938C43.7783 7.0268 46 8.13328 47.7686 9.79974C49.5371 11.4662 50.7736 13.6183 51.3226 15.9854C51.3427 16.0464 51.3569 16.1092 51.3649 16.1729C52.0496 19.3357 51.4622 22.6409 49.7295 25.3739C47.9969 28.107 45.2583 30.0485 42.1057 30.7786C42.0447 30.7987 41.9819 30.8129 41.9182 30.8209C39.5434 31.3329 37.0702 31.1318 34.8092 30.2429C32.5483 29.354 30.6004 27.8168 29.2101 25.8245C27.8199 23.8322 27.0493 21.4736 26.995 19.0448C26.9408 16.616 27.6054 14.2253 28.9054 12.1729ZM37.0552 8.68856C34.7214 9.21076 32.6409 10.526 31.1681 12.4102C29.6953 14.2943 28.9214 16.6309 28.9781 19.0217C29.0349 21.4125 29.9189 23.7097 31.4795 25.5219C33.04 27.334 35.1806 28.549 37.5366 28.9598C39.8925 29.3707 42.3181 28.9519 44.3999 27.7749C46.4817 26.5979 48.091 24.7355 48.9537 22.505C49.8163 20.2745 49.8789 17.8139 49.1307 15.5425C48.3826 13.271 46.87 11.3292 44.8507 10.0479C43.7051 9.31865 42.4266 8.8231 41.0887 8.58981C39.7509 8.35651 38.3801 8.39007 37.0552 8.68856ZM56.5965 31.0401C56.3043 31.4186 54.939 33.1387 54.7949 33.4186C54.6155 33.7687 54.5638 34.1705 54.6488 34.5546C54.7338 34.9387 54.9501 35.2812 55.2606 35.5229L63.6931 42.0365C64.0469 42.3079 64.4937 42.4284 64.936 42.3717C65.3783 42.3149 65.7802 42.0855 66.054 41.7336L67.6932 39.6115C67.9649 39.2578 68.0856 38.8109 68.0289 38.3685C67.9723 37.926 67.743 37.5239 67.391 37.25L58.9584 30.7364C58.6043 30.4656 58.1576 30.3455 57.7155 30.4023C57.2733 30.459 56.8715 30.688 56.5973 31.0395L56.5965 31.0401ZM28.0173 10.0468C25.7224 13.0403 24.7053 16.8202 25.1879 20.561C25.6706 24.3019 27.6138 27.6998 30.5933 30.0128C33.5727 32.3257 37.3464 33.3658 41.0901 32.9059C44.8338 32.4459 48.2435 30.5233 50.5745 27.5579L50.6682 27.4373C52.9678 24.4331 53.981 20.6391 53.4855 16.8884C52.99 13.1377 51.0261 9.73705 48.0253 7.43313C45.0245 5.1292 41.2319 4.11041 37.4805 4.60047C33.7291 5.09052 30.3256 7.04937 28.0173 10.0468ZM50.9432 30.1562L53.4001 31.9228L54.9802 29.8768L52.6677 28.0704C52.5281 28.2706 52.3834 28.4686 52.2338 28.6642C51.8329 29.1861 51.402 29.6843 50.9432 30.1562ZM55.0024 37.8378L62.4768 43.6111C63.0255 44.033 63.682 44.2917 64.3711 44.3576C65.0601 44.4234 65.7538 44.2937 66.3724 43.9833L73.214 52.5056C73.347 52.6742 73.4084 52.8883 73.3848 53.1017C73.3612 53.3151 73.2546 53.5107 73.0881 53.6462L69.7582 56.3192C69.5897 56.4522 69.3755 56.5136 69.1621 56.4901C68.9486 56.4665 68.7531 56.3599 68.6176 56.1933L54.8285 39.0167C54.5415 38.659 54.5998 38.1608 55.0023 37.8376L55.0024 37.8378ZM34.5823 68.2326L32.8973 71.1503L32.8957 71.1493C32.743 71.4183 32.7032 71.7369 32.7851 72.0351C32.9171 72.5281 33.2021 72.6734 33.561 72.8806L33.5599 72.8823C33.8292 73.0335 34.1469 73.0734 34.4452 72.9935C34.7436 72.9137 34.9989 72.7204 35.1566 72.455L37.4013 68.567C37.554 68.2975 37.5945 67.9788 37.5142 67.6796C37.4339 67.3805 37.2392 67.1249 36.9721 66.9681L36.9732 66.9664C36.6071 66.7551 36.3312 66.5923 35.8531 66.7204C35.5548 66.7991 35.3 66.9929 35.1445 67.2593C34.9604 67.5803 34.7565 67.9082 34.5829 68.2326H34.5823ZM24.8302 62.5059C25.274 61.7493 25.4913 60.5967 24.7793 60.1858C24.4123 59.9739 24.136 59.8097 23.6563 59.9383C23.5081 59.9773 23.3691 60.0453 23.2472 60.1382C23.1253 60.2311 23.0229 60.3472 22.946 60.4798L20.7012 64.3679L20.6996 64.367C20.5469 64.636 20.5071 64.9545 20.589 65.2528C20.721 65.7458 21.006 65.8911 21.3649 66.0984C21.6355 66.2546 21.9561 66.2996 22.2593 66.224C22.5624 66.1485 22.8243 65.9582 22.9899 65.6933L24.8301 62.5058L24.8302 62.5059ZM30.6081 65.8447C30.7647 65.5782 31.0196 65.3838 31.318 65.3032C31.6164 65.2226 31.9345 65.2623 32.204 65.4137L32.2031 65.4153L32.4374 65.5506L32.4384 65.549C32.9829 65.839 33.1984 66.6484 32.9215 67.1254L31.1741 70.1562C30.8962 70.6378 30.4454 71.2656 29.9102 71.5211C29.4727 71.7295 29.1804 71.554 28.7916 71.3297L28.7926 71.3279C28.526 71.1713 28.3316 70.9164 28.251 70.618C28.1704 70.3195 28.21 70.0014 28.3615 69.7318L28.3632 69.7329L30.6081 65.8447ZM28.8491 64.9086L26.6401 68.7387C26.5619 68.8671 26.4586 68.9783 26.3364 69.0658C26.2142 69.1533 26.0755 69.2152 25.9288 69.2478C25.4165 69.3745 25.1243 69.2122 24.737 68.9887L24.7381 68.987C24.6054 68.9101 24.4893 68.8078 24.3964 68.686C24.3034 68.5641 24.2354 68.4251 24.1963 68.2768C24.0331 67.6675 24.3881 67.2545 24.7132 66.6912H24.712L26.5529 63.5037C26.6298 63.3711 26.7322 63.255 26.854 63.162C26.9759 63.0691 27.115 63.0011 27.2632 62.962C27.7438 62.8333 28.0248 63.0009 28.3862 63.2095C28.6692 63.3778 28.8773 63.6476 28.9682 63.964C29.0921 64.3829 28.9995 64.5978 28.8487 64.9084L28.8491 64.9086ZM25.2035 42.0239C27.4691 42.9058 30.5515 44.3114 32.3857 44.755C32.0391 45.1309 31.7138 45.5561 31.3581 46.0222C30.6251 46.9811 29.6657 48.2178 28.8859 49.0751C28.2038 49.8251 27.6724 50.1993 27.452 51.1845C27.2229 52.209 27.4382 53.5293 28.1806 54.3853C29.2941 55.6692 31.4579 55.9053 32.9807 55.3697C34.6974 54.765 36.4807 53.1236 38.5615 52.5508C42.7646 51.3936 48.7356 56.229 53.1137 59.7747C54.1876 60.6442 55.169 61.439 56.0626 62.0917C57.5851 63.2297 56.9845 65.6073 55.1377 65.8956C54.8625 65.9394 54.5813 65.9284 54.3103 65.8634C54.0394 65.7983 53.7839 65.6804 53.5585 65.5164L48.3106 61.6831C48.0976 61.528 47.8317 61.4639 47.5714 61.5048C47.3111 61.5458 47.0778 61.6885 46.9227 61.9015C46.7676 62.1145 46.7035 62.3803 46.7444 62.6406C46.7854 62.9009 46.928 63.1343 47.141 63.2893L52.4148 67.1406C52.7617 69.7697 49.946 70.1826 48.8546 69.385L44.366 66.1061C44.2607 66.0279 44.1408 65.9713 44.0135 65.9396C43.8861 65.908 43.7538 65.9019 43.624 65.9217C43.4943 65.9415 43.3698 65.9868 43.2577 66.055C43.1456 66.1232 43.0481 66.2129 42.9708 66.319C42.8936 66.425 42.8381 66.5454 42.8076 66.673C42.7771 66.8007 42.7723 66.9331 42.7932 67.0626C42.8142 67.1921 42.8607 67.3162 42.9299 67.4277C42.9991 67.5392 43.0897 67.6359 43.1965 67.7122L47.6851 70.9906C47.7673 71.0506 47.8523 71.1071 47.9401 71.1601C47.8413 72.1839 47.2315 73.0976 46.1588 73.1036C45.5807 73.1065 45.1348 72.892 44.5367 72.4828L41.5181 70.2779C41.4126 70.2011 41.293 70.1459 41.1662 70.1153C41.0394 70.0847 40.9078 70.0794 40.7789 70.0997C40.65 70.12 40.5264 70.1654 40.4151 70.2335C40.3038 70.3015 40.207 70.3908 40.1302 70.4963C40.0534 70.6018 39.9981 70.7213 39.9675 70.8482C39.9369 70.975 39.9316 71.1066 39.9519 71.2355C39.9722 71.3643 40.0176 71.488 40.0857 71.5993C40.1537 71.7106 40.2431 71.8074 40.3485 71.8842L42.9535 73.787C42.8662 74.3339 42.6226 75.1353 42.1021 75.3992C41.3696 75.7708 40.0777 75.1126 38.9223 74.2562L37.1637 72.9531L39.124 69.5576C39.5421 68.8325 39.6553 67.9711 39.4388 67.1625C39.2224 66.354 38.6939 65.6644 37.9695 65.2451C37.8109 65.1389 37.6427 65.0479 37.4671 64.9733C36.7999 64.6672 36.0466 64.6041 35.3377 64.7948C35.0943 64.86 34.8594 64.9539 34.6381 65.0745C34.37 64.5747 33.973 64.1559 33.4884 63.8614L33.4899 63.8587L33.1971 63.6923C32.4923 63.2845 31.6567 63.1658 30.8662 63.3614C30.6385 62.6266 30.1617 61.9942 29.5179 61.5731L29.1456 61.3531L29.1465 61.3515C28.5668 61.016 27.8952 60.8741 27.2293 60.9467C27.1727 59.8753 26.6532 58.9728 25.7695 58.4623L25.5351 58.327C24.8099 57.9091 23.9486 57.796 23.1401 58.0124C22.3316 58.2289 21.642 58.7572 21.2226 59.4815L20.8185 60.1814C19.994 59.347 19.7873 59.2584 18.4038 58.3548C18.0551 58.1268 17.8224 57.9173 17.4445 57.8861C16.4513 57.7977 15.4756 57.57 14.5459 57.2098L14.5473 57.2065C14.172 57.054 13.8178 56.8541 13.4932 56.6117L25.2035 42.0239ZM25.0457 37.7426L21.7157 35.0693C21.5472 34.9363 21.333 34.8749 21.1196 34.8985C20.9061 34.9221 20.7105 35.0287 20.5751 35.1953L6.7868 52.3723C6.65375 52.5409 6.59237 52.755 6.61594 52.9684C6.63951 53.1819 6.74612 53.3775 6.91274 53.5129L10.2426 56.1861C10.4112 56.3191 10.6253 56.3804 10.8387 56.3569C11.0521 56.3333 11.2477 56.2267 11.3832 56.0601L25.1723 38.8834C25.3054 38.715 25.367 38.5009 25.3436 38.2875C25.3202 38.074 25.2138 37.8784 25.0473 37.7428L25.0457 37.7426ZM67.3157 57.7131C67.8077 58.1811 68.4527 58.455 69.1311 58.484C69.8096 58.513 70.4756 58.2951 71.0057 57.8708L74.3357 55.1976C74.9141 54.7315 75.2841 54.0551 75.3646 53.3166C75.4452 52.5781 75.2298 51.8379 74.7656 51.2579L67.8579 42.6531L69.2682 40.8272C69.8612 40.0552 70.1244 39.0799 70.0004 38.1145C69.8764 37.149 69.3753 36.2719 68.6065 35.6748L60.1738 29.1614C59.6763 28.778 59.0889 28.5285 58.4675 28.4369C57.8461 28.3452 57.2116 28.4144 56.6246 28.6378L53.711 26.3612C55.1558 23.6204 55.788 20.524 55.5331 17.4362C55.2783 14.3484 54.1471 11.3976 52.2725 8.9307C50.3979 6.46384 47.8578 4.58355 44.9511 3.51094C42.0444 2.43833 38.8918 2.218 35.8642 2.87587C32.8365 3.53375 30.0597 5.04246 27.8601 7.22459C25.6606 9.40672 24.13 12.1715 23.4481 15.1939C22.7662 18.2162 22.9615 21.3704 24.0111 24.2856C25.0606 27.2007 26.9207 29.7556 29.3726 31.6497L29.4273 31.6926C32.3051 33.8952 35.8356 35.0744 39.4595 35.0432C43.0833 35.0121 46.5931 33.7725 49.4326 31.5208L52.6357 33.8237C52.5888 34.3093 52.6381 34.7993 52.7807 35.2658C52.9233 35.7323 53.1564 36.1661 53.4668 36.5425C53.0188 36.9982 52.7396 37.593 52.6752 38.2288C52.6108 38.8646 52.7651 39.5034 53.1126 40.0397C51.5132 40.607 50.1917 41.0233 48.7976 41.2404C47.0466 41.5134 45.1037 41.4878 42.2254 41.0792C40.9943 40.9044 39.3891 41.2925 37.8271 41.8604C36.8468 42.2165 35.8879 42.6373 35.0604 43.0262C33.137 43.1298 31.5427 42.4692 28.8557 41.3554C28.149 41.0626 27.3713 40.7403 26.5107 40.3984L26.7234 40.1336C27.1876 39.5536 27.403 38.8133 27.3224 38.0749C27.2418 37.3364 26.8717 36.66 26.2934 36.1939L22.9635 33.5208C22.3836 33.0565 21.6433 32.8411 20.9048 32.9217C20.1664 33.0023 19.49 33.3723 19.0238 33.9508L5.23477 51.125C4.77056 51.7049 4.55514 52.4451 4.63571 53.1836C4.71628 53.922 5.08627 54.5984 5.66462 55.0645L8.99462 57.7378C9.42334 58.0813 9.94348 58.2914 10.4905 58.3421C11.0376 58.3928 11.5874 58.2817 12.072 58.0228C12.5834 58.45 13.1579 58.7953 13.7751 59.0465L13.7763 59.0433C14.8214 59.4588 15.9188 59.7281 17.0374 59.8437L17.3126 60.0237C19.1332 61.2137 18.6176 60.8192 19.7895 61.9648L18.9781 63.3739C18.5599 64.0989 18.4468 64.9602 18.6636 65.7686C18.8804 66.577 19.4094 67.2661 20.1343 67.6845L20.1334 67.6862C20.8229 68.0843 21.3618 68.2956 22.1751 68.2445C22.2182 68.7512 22.3831 69.24 22.6556 69.6693C22.9282 70.0985 23.3004 70.4557 23.7406 70.7103L23.981 70.8467C24.697 71.2549 25.5401 71.3795 26.3435 71.1961C26.5691 71.979 27.0895 72.6439 27.7952 73.0511C28.0149 73.11 29.3296 74.2353 31.087 73.1478C31.3633 73.6998 31.7957 74.1584 32.3304 74.4669L32.3295 74.4686L32.5674 74.6037C33.078 74.8982 33.6609 75.0438 34.25 75.0242C34.8391 75.0046 35.411 74.8205 35.9009 74.4928C37.6757 75.8083 39.5415 77.3942 41.4501 77.4895C43.2015 77.5769 44.2929 76.4028 44.7501 74.842C47.1923 75.7142 49.4334 74.2418 49.8682 71.7347C52.177 71.867 54.2717 70.3395 54.4307 67.892C55.1432 67.9579 55.8605 67.8366 56.5117 67.5401C57.1629 67.2436 57.7254 66.7822 58.1434 66.2014C58.5615 65.6208 58.8206 64.9409 58.8951 64.2293C58.9697 63.5177 58.8571 62.7989 58.5685 62.1442C59.1057 61.9713 59.6223 61.74 60.109 61.4545C61.2457 60.7767 62.4129 59.5097 62.4899 59.4608L67.3171 57.7131H67.3157ZM61.6206 57.6583C61.478 57.707 61.3485 57.7876 61.2418 57.894C59.7456 59.3808 59.2084 59.9253 57.2184 60.469C56.5076 59.9734 55.3434 59.0192 54.3698 58.2301C49.6548 54.4118 43.2246 49.2047 38.0398 50.632C36.5832 51.0329 35.2562 51.8431 34.1795 52.5006C33.2585 53.0631 32.3706 53.6506 31.4006 53.6525C30.8737 53.6534 30.0487 53.5015 29.686 53.0834C29.3774 52.7275 29.3023 52.0242 29.3941 51.6134C29.4468 51.3775 29.6357 51.1801 29.9491 50.8528C30.967 49.7472 31.9266 48.5894 32.8242 47.384C33.4815 46.5247 34.0452 45.7434 34.7731 45.3804C36.6032 44.4679 40.1574 42.7956 41.9524 43.0506C45.0306 43.4881 47.1471 43.5087 49.1016 43.2042C50.8616 42.9298 52.4273 42.4039 54.4168 41.6854L65.9743 56.0822L61.6206 57.6583Z" fill="white"/>
</svg>
