<svg width="80" height="80" viewBox="0 0 80 80" fill="none" xmlns="http://www.w3.org/2000/svg">
<g clip-path="url(#clip0_3907_3013)">
<path d="M39.9538 0.00366211C38.5198 0.00366211 37.0868 0.0807509 35.661 0.234428C34.3541 0.367915 33.0633 0.586834 31.7899 0.852473C31.5428 0.90421 31.2963 0.958498 31.0503 1.01533C23.5472 2.72364 16.696 6.55988 11.3183 12.0641C10.8156 12.5794 10.326 13.1073 9.84991 13.6472C-4.67683 30.3244 -2.93349 55.6202 13.7439 70.147C29.7103 84.0545 53.7438 83.1291 68.5936 68.0352C69.0967 67.5203 69.5863 66.9924 70.062 66.452C76.4729 59.1513 80.0057 49.7657 80.0001 40.0496C80.0001 17.9326 62.0707 0.00349525 39.9538 0.00366211ZM13.0976 14.0664C13.3086 13.8474 13.5275 13.6379 13.7424 13.4256C13.9907 13.1813 14.2376 12.9357 14.4913 12.6995C14.7142 12.4912 14.9438 12.291 15.172 12.0881C15.4297 11.8598 15.686 11.6316 15.9503 11.4113C16.1825 11.2151 16.4215 11.0269 16.6591 10.8373C16.9261 10.6237 17.193 10.4102 17.468 10.2046C17.7109 10.0223 17.957 9.84427 18.2062 9.67063C18.4825 9.47307 18.7602 9.27017 19.0418 9.08596C19.2942 8.91585 19.5487 8.74898 19.8054 8.58538C20.0896 8.40218 20.377 8.22416 20.6677 8.05143C21.2199 7.7218 21.7794 7.40447 22.3456 7.09967C22.6126 6.95734 22.8796 6.81801 23.1466 6.68186C23.4512 6.52878 23.7578 6.3797 24.0663 6.23467C24.3333 6.10786 24.6109 5.98105 24.8859 5.86091C25.1996 5.72742 25.5173 5.59394 25.835 5.46045C26.1113 5.34698 26.3863 5.23619 26.6653 5.1294C26.9883 5.00659 27.3154 4.89179 27.6424 4.77699C27.9217 4.67833 28.202 4.58266 28.4834 4.49C28.8158 4.38321 29.1508 4.28443 29.4872 4.18698C29.7689 4.10555 30.0478 4.02146 30.3308 3.94537C30.439 3.91734 30.5471 3.89464 30.6552 3.86661C26.7039 7.70327 23.7718 12.4647 22.124 17.7199C18.9557 16.8843 15.8886 15.7039 12.9775 14.1998C13.0216 14.1531 13.0589 14.1064 13.0976 14.0664ZM11.1781 16.2155C14.3846 17.9529 17.7849 19.306 21.3084 20.2468C19.5811 26.253 18.6745 32.4654 18.6133 38.7148H2.60823C2.89902 30.4738 5.91274 22.5616 11.1781 16.2155ZM11.1781 63.8838C5.91306 57.5374 2.89938 49.6254 2.60823 41.3845H18.6133C18.6744 47.6339 19.581 53.8462 21.3084 59.8524C17.785 60.7935 14.3848 62.1466 11.1781 63.8838ZM30.3228 76.1592C30.0532 76.0911 29.7742 76.0031 29.4965 75.9216C29.1588 75.8228 28.8198 75.7241 28.486 75.6159C28.2044 75.5252 27.9267 75.4277 27.6491 75.3303C27.3201 75.2177 26.993 75.0998 26.6679 74.9765C26.3912 74.8704 26.1158 74.7609 25.8417 74.6482C25.5226 74.5147 25.2036 74.3812 24.8872 74.2477C24.6147 74.1275 24.3437 74.0038 24.0743 73.8766C23.7633 73.7298 23.4536 73.5803 23.1399 73.4254C22.8729 73.2919 22.6059 73.1584 22.339 73.0129C22.0373 72.8514 21.7383 72.6859 21.4393 72.515C21.1723 72.3669 20.9187 72.2147 20.661 72.0598C20.3681 71.8833 20.0779 71.7022 19.7907 71.5165C19.5371 71.355 19.2834 71.1908 19.0338 71.0226C18.7494 70.829 18.4677 70.6315 18.1888 70.43C17.9446 70.2551 17.7003 70.0802 17.46 69.896C17.1845 69.687 16.9122 69.4738 16.6431 69.2566C16.4068 69.0684 16.1719 68.8815 15.9409 68.688C15.674 68.4664 15.4163 68.2354 15.1574 68.0058C14.9304 67.8043 14.7022 67.6054 14.4806 67.3998C14.2256 67.1622 13.9787 66.9152 13.7304 66.671C13.5155 66.4587 13.2965 66.2491 13.0856 66.0316C13.0469 65.9902 13.0095 65.9475 12.9708 65.9074C15.8817 64.4027 18.9489 63.2218 22.1174 62.386C23.7654 67.6411 26.6975 72.4024 30.6485 76.2393C30.5404 76.2113 30.431 76.1886 30.3228 76.1592ZM38.6191 77.3206C32.9071 76.509 27.9 70.5474 24.7497 61.744C29.3044 60.7241 33.9521 60.177 38.6191 60.1114V77.3206ZM38.6191 57.4417C33.6684 57.5068 28.7385 58.0947 23.9114 59.1957C22.2353 53.4045 21.3512 47.413 21.2831 41.3845H38.6191V57.4417ZM38.6191 38.7148H21.2831C21.351 32.6863 22.2352 26.6947 23.9114 20.9036C28.7386 22.0044 33.6684 22.5923 38.6191 22.6576V38.7148ZM38.6191 19.9879C33.9521 19.9228 29.3043 19.3757 24.7497 18.3553C27.9 9.55183 32.9071 3.59029 38.6191 2.77869V19.9879ZM68.7298 16.2155C73.9948 22.5618 77.0085 30.4739 77.2996 38.7148H61.2945C61.2335 32.4654 60.3269 26.253 58.5994 20.2468C62.1228 19.3056 65.523 17.9525 68.7298 16.2155ZM49.5743 3.9387C49.8547 4.00811 50.1337 4.09621 50.4113 4.17764C50.749 4.27642 51.0881 4.3752 51.4218 4.48332C51.7035 4.57409 51.9811 4.67154 52.2588 4.76899C52.5872 4.88245 52.9155 4.99858 53.2399 5.12273C53.5176 5.22818 53.7912 5.33898 54.0662 5.4511C54.3852 5.58459 54.7043 5.71808 55.0206 5.85157C55.2929 5.9717 55.5639 6.09535 55.8336 6.22266C56.1446 6.3695 56.4543 6.519 56.768 6.67385C57.0349 6.80733 57.3019 6.94082 57.5689 7.08632C57.8706 7.24784 58.1696 7.41336 58.4686 7.58423C58.7356 7.7324 58.9892 7.88457 59.2468 8.03942C59.5398 8.21595 59.8299 8.39707 60.1172 8.58271C60.3708 8.74423 60.6244 8.90842 60.874 9.07661C61.158 9.26978 61.4392 9.46692 61.7177 9.66796C61.9641 9.84237 62.208 10.0204 62.4492 10.2019C62.7242 10.4088 62.9938 10.6237 63.2648 10.84C63.4997 11.0269 63.736 11.2137 63.9669 11.4086C64.2339 11.6302 64.4915 11.8612 64.7505 12.0908C64.9774 12.2923 65.2057 12.4912 65.4273 12.6968C65.6822 12.9344 65.9292 13.1813 66.1775 13.4256C66.3924 13.6379 66.6113 13.8474 66.8222 14.065C66.8609 14.1064 66.8983 14.1491 66.937 14.1892C64.0261 15.6939 60.9589 16.8748 57.7905 17.7106C56.1392 12.4548 53.2034 7.69387 49.2486 3.8586C49.3568 3.88664 49.4662 3.90933 49.5743 3.9387ZM41.2888 2.77869C47.0007 3.59029 52.0078 9.55183 55.1581 18.3553C50.6035 19.3752 45.9558 19.9222 41.2888 19.9879V2.77869ZM41.2888 22.6576C46.2394 22.5925 51.1693 22.0046 55.9964 20.9036C57.6725 26.6948 58.5567 32.6863 58.6248 38.7148H41.2888V22.6576ZM41.2888 41.3845H58.6248C58.5568 47.413 57.6727 53.4045 55.9964 59.1957C51.1693 58.0949 46.2394 57.5069 41.2888 57.4417V41.3845ZM41.2888 77.3206V60.1114C45.9558 60.1765 50.6035 60.7236 55.1581 61.744C52.0078 70.5474 47.0007 76.509 41.2888 77.3206ZM66.8102 66.0329C66.5993 66.2505 66.3817 66.4601 66.1668 66.6723C65.9185 66.9166 65.6702 67.1635 65.4153 67.4011C65.1937 67.608 64.9654 67.8016 64.7385 68.0085C64.4795 68.2381 64.2219 68.4677 63.9576 68.6893C63.724 68.8842 63.4864 69.0724 63.2488 69.2619C62.9818 69.4755 62.7148 69.6891 62.4398 69.8947C62.1969 70.077 61.9508 70.255 61.7016 70.4286C61.4253 70.6262 61.1477 70.8291 60.866 71.0133C60.614 71.1834 60.3594 71.3499 60.1025 71.5125C59.818 71.696 59.5301 71.8741 59.2388 72.0465C58.9718 72.2027 58.7169 72.3548 58.4539 72.5057C57.8971 72.8227 57.3328 73.1263 56.7613 73.4161C56.4567 73.5692 56.1501 73.7182 55.8416 73.8633C55.5746 73.9901 55.2969 74.1169 55.022 74.237C54.7083 74.3705 54.3906 74.504 54.0729 74.6375C53.7965 74.7496 53.5216 74.8617 53.2439 74.9672C52.9182 75.0913 52.5912 75.2075 52.2628 75.3209C51.985 75.4197 51.706 75.515 51.4258 75.6066C51.0921 75.7147 50.7584 75.8135 50.418 75.9109C50.139 75.9937 49.8587 76.0765 49.577 76.1526C49.4689 76.1806 49.3608 76.2033 49.2526 76.2313C53.2039 72.3946 56.1361 67.6332 57.7838 62.378C60.9521 63.2136 64.0193 64.394 66.9303 65.8981C66.8863 65.9461 66.8489 65.9929 66.8102 66.0329ZM68.7298 63.8838C65.5232 62.1464 62.1229 60.7932 58.5994 59.8524C60.3268 53.8462 61.2334 47.6339 61.2945 41.3845H77.2996C77.0089 49.6254 73.9952 57.5377 68.7298 63.8838Z" fill="white"/>
</g>
<defs>
<clipPath id="clip0_3907_3013">
<rect width="80" height="80" fill="white"/>
</clipPath>
</defs>
</svg>
