<svg width="80" height="80" viewBox="0 0 80 80" fill="none" xmlns="http://www.w3.org/2000/svg">
<g clip-path="url(#clip0_3907_3044)">
<path d="M45.2087 74.375V74.9225C45.2087 75.6975 44.9806 77.5 42.8687 77.5H37.1263C35.0175 77.5 34.79 75.6975 34.79 74.9225V74.375H34.2837C33.5982 74.3744 32.9199 74.2345 32.29 73.9638V74.9225C32.29 77.96 34.2337 80 37.1263 80H42.8687C45.7637 80 47.7081 77.9594 47.7081 74.9225V74.0431C47.1349 74.2625 46.5263 74.375 45.9125 74.375H45.2087ZM74.9188 32.2913H70.4275C69.6853 29.3529 68.5177 26.5388 66.9619 23.9381L70.1444 20.7569C70.6315 20.2654 71.0074 19.675 71.2466 19.0257C71.4858 18.3763 71.5826 17.6832 71.5306 16.9931C71.4346 15.573 70.8213 14.2372 69.8069 13.2387L66.7625 10.1888C64.5875 8.02625 61.2137 7.87625 59.245 9.85375L56.0612 13.0381C53.4608 11.4827 50.6468 10.3157 47.7087 9.57438V5.07688C47.7087 2.27688 45.2137 0 42.1475 0H37.8475C34.7831 0 32.29 2.2775 32.29 5.07688V9.57438C29.3519 10.3158 26.538 11.4827 23.9375 13.0381L20.7562 9.855C18.7831 7.87625 15.41 8.02625 13.2344 10.1925L10.195 13.2369C9.1777 14.2346 8.56266 15.5715 8.46688 16.9931C8.41521 17.683 8.51218 18.3759 8.75121 19.0251C8.99025 19.6743 9.3658 20.2646 9.8525 20.7562L13.0375 23.9375C11.481 26.5381 10.3137 29.3525 9.5725 32.2913H5.07688C2.27688 32.2913 0 34.7837 0 37.8487V42.1513C0 45.2169 2.2775 47.71 5.07688 47.71H9.5725C10.3147 50.6474 11.482 53.4607 13.0375 56.0606L9.85 59.2444C9.36417 59.7367 8.98937 60.3273 8.7508 60.9764C8.51223 61.6256 8.41541 62.3184 8.46688 63.0081C8.56181 64.4289 9.17654 65.7649 10.1937 66.7613L13.2369 69.8063C15.4063 71.97 18.7794 72.1231 20.7556 70.1456L23.9369 66.9606C25.5952 67.9531 27.3429 68.7882 29.1569 69.455C29.0889 69.0985 29.0167 68.7429 28.94 68.3881C28.7669 67.699 28.5327 67.0268 28.24 66.3794C26.9198 65.7915 25.6459 65.1045 24.4294 64.3244C24.1892 64.1698 23.9033 64.1022 23.6194 64.1328C23.3354 64.1634 23.0705 64.2903 22.8687 64.4925L18.9875 68.3787C17.9837 69.3812 16.1969 69.2281 15.0031 68.0375L11.9594 64.9919C11.3767 64.4279 11.0219 63.6693 10.9625 62.8606C10.934 62.5233 10.9777 62.1838 11.0909 61.8648C11.2041 61.5457 11.384 61.2545 11.6187 61.0106L15.5056 57.1294C15.7076 56.9278 15.8345 56.6632 15.8652 56.3795C15.8959 56.0958 15.8286 55.8101 15.6744 55.57C13.8295 52.7009 12.5117 49.5254 11.7831 46.1931C11.7222 45.9145 11.5679 45.6651 11.3458 45.4863C11.1237 45.3075 10.847 45.21 10.5619 45.21H5.07688C3.65625 45.21 2.5 43.8375 2.5 42.1513V37.8487C2.5 36.1625 3.65625 34.7913 5.07688 34.7913H10.5619C10.8472 34.7914 11.1241 34.6939 11.3463 34.5149C11.5686 34.3359 11.723 34.0863 11.7838 33.8075C12.5107 30.4744 13.8284 27.2983 15.6744 24.4294C15.8286 24.1892 15.896 23.9034 15.8653 23.6196C15.8346 23.3358 15.7077 23.071 15.5056 22.8694L11.62 18.9881C11.3849 18.745 11.2046 18.4545 11.0912 18.1359C10.9778 17.8173 10.9339 17.4782 10.9625 17.1413C11.0226 16.3306 11.3785 15.5704 11.9625 15.005L15.0013 11.9613C16.1975 10.7694 17.985 10.6156 18.9869 11.6206L22.8694 15.5056C23.071 15.7073 23.3355 15.8341 23.619 15.8648C23.9025 15.8955 24.188 15.8283 24.4281 15.6744C27.2975 13.8298 30.4735 12.5128 33.8063 11.7856C34.085 11.7249 34.3345 11.5706 34.5135 11.3485C34.6924 11.1263 34.79 10.8496 34.79 10.5644V5.07688C34.79 3.65625 36.1625 2.5 37.8481 2.5H42.1475C43.835 2.5 45.2081 3.65625 45.2081 5.07688V10.5644C45.2081 10.8496 45.3057 11.1263 45.4847 11.3485C45.6636 11.5706 45.9132 11.7249 46.1919 11.7856C49.5248 12.5129 52.701 13.8298 55.5706 15.6744C55.8107 15.8283 56.0962 15.8955 56.3797 15.8648C56.6633 15.8341 56.9278 15.7073 57.1294 15.5056L61.0144 11.6194C62.0131 10.6163 63.8006 10.7688 64.9956 11.9588L68.0375 15.005C68.62 15.5712 68.9749 16.3312 69.035 17.1413C69.0639 17.4782 69.0201 17.8174 68.9067 18.136C68.7933 18.4546 68.6128 18.7452 68.3775 18.9881L64.4938 22.8694C64.2919 23.071 64.1651 23.3356 64.1344 23.6193C64.1037 23.903 64.1709 24.1886 64.325 24.4287C66.1701 27.2984 67.4879 30.4745 68.2163 33.8075C68.277 34.0862 68.4313 34.3358 68.6534 34.5147C68.8756 34.6937 69.1522 34.7912 69.4375 34.7913H74.9188C76.3419 34.7913 77.5 36.1625 77.5 37.8487V42.1513C77.5 43.8381 76.3419 45.21 74.9188 45.21H69.4375C69.1523 45.21 68.8757 45.3075 68.6536 45.4863C68.4314 45.6651 68.2771 45.9145 68.2163 46.1931C67.4869 49.5254 66.1692 52.7009 64.325 55.5706C64.1712 55.8108 64.1041 56.0962 64.1348 56.3797C64.1655 56.6632 64.2921 56.9277 64.4938 57.1294L68.3763 61.0094C69.3819 62.0169 69.2306 63.8037 68.0381 64.9938L64.9987 68.0356C63.8019 69.2288 62.015 69.3819 61.0131 68.3794L57.1294 64.4919C56.9275 64.2899 56.6626 64.1631 56.3786 64.1326C56.0947 64.1022 55.8089 64.1698 55.5688 64.3244C54.4398 65.0495 53.2612 65.6944 52.0419 66.2544C51.559 67.2478 51.215 68.3029 51.0194 69.39C52.77 68.7339 54.4577 67.9208 56.0619 66.9606L59.2444 70.1456C61.2181 72.1225 64.5912 71.9713 66.765 69.8056L69.805 66.7619C71.9719 64.5994 72.1244 61.2256 70.145 59.2419L66.9613 56.0606C68.5165 53.4604 69.6842 50.6473 70.4275 47.71H74.9188C77.72 47.71 80 45.2163 80 42.1513V37.8487C80 34.7837 77.7206 32.2913 74.9188 32.2913Z" fill="white"/>
<path d="M55.4101 57.5594C56.4064 56.5469 57.3476 55.5906 57.8076 55.0325C60.6069 51.6315 62.3863 47.5075 62.9399 43.1376C63.4935 38.7676 62.7987 34.3302 60.9359 30.3386C59.0731 26.347 56.1183 22.9643 52.4134 20.5817C48.7085 18.1991 44.4048 16.914 40.0001 16.875C35.3211 16.9171 30.7629 18.3649 26.9171 21.0304C23.0714 23.6959 20.1158 27.456 18.4341 31.8225C16.7525 36.1891 16.4224 40.9603 17.4867 45.5168C18.551 50.0733 20.9606 54.2047 24.4026 57.3744C26.5945 59.3005 28.4547 61.574 29.9089 64.1038C30.557 65.274 31.0499 66.5236 31.3751 67.8213C31.4032 67.94 31.6107 68.9225 31.7457 69.7188C31.8448 70.3206 32.1543 70.8677 32.6191 71.2626C33.084 71.6575 33.6739 71.8745 34.2839 71.875H45.9126C46.5507 71.8702 47.1646 71.6301 47.6366 71.2007C48.1086 70.7713 48.4056 70.1829 48.4707 69.5481C48.9189 65.5288 51.7551 61.6256 53.4057 59.6556C53.7445 59.2519 54.5907 58.3913 55.4101 57.5594ZM45.9851 69.2712C45.9788 69.3288 45.9464 69.375 45.912 69.375H34.2839C34.2648 69.373 34.2469 69.3645 34.2335 69.3508C34.22 69.3371 34.2117 69.3191 34.2101 69.3C34.0907 68.6078 33.9554 67.9185 33.8045 67.2325C33.4285 65.7234 32.857 64.2698 32.1045 62.9087C30.5207 60.1375 28.4908 57.6463 26.0964 55.5356C23.0247 52.7067 20.874 49.0201 19.9231 44.9539C18.9723 40.8877 19.2652 36.6296 20.7638 32.732C22.2625 28.8343 24.8977 25.4768 28.3278 23.0951C31.7579 20.7134 35.8244 19.4173 40.0001 19.375C43.9309 19.414 47.7704 20.5644 51.0749 22.6932C54.3795 24.8221 57.0143 27.8425 58.6749 31.4055C60.3354 34.9685 60.9539 38.9287 60.4589 42.8283C59.9639 46.728 58.3756 50.408 55.8776 53.4431C55.4889 53.9156 54.5001 54.9194 53.6282 55.8056C52.7351 56.7125 51.892 57.5687 51.4889 58.0494C49.2514 60.7188 46.4807 64.8319 45.9851 69.2712Z" fill="white"/>
<path d="M28.75 41.25C29.4404 41.25 30 40.6904 30 40C30 39.3096 29.4404 38.75 28.75 38.75C28.0596 38.75 27.5 39.3096 27.5 40C27.5 40.6904 28.0596 41.25 28.75 41.25Z" fill="white"/>
<path d="M42.4996 64.375H37.4996C37.1681 64.375 36.8501 64.5067 36.6157 64.7411C36.3813 64.9755 36.2496 65.2935 36.2496 65.625C36.2496 65.9565 36.3813 66.2745 36.6157 66.5089C36.8501 66.7433 37.1681 66.875 37.4996 66.875H42.4996C42.8311 66.875 43.149 66.7433 43.3835 66.5089C43.6179 66.2745 43.7496 65.9565 43.7496 65.625C43.7496 65.2935 43.6179 64.9755 43.3835 64.7411C43.149 64.5067 42.8311 64.375 42.4996 64.375ZM42.4996 27.5C42.4996 27.1685 42.3679 26.8505 42.1335 26.6161C41.899 26.3817 41.5811 26.25 41.2496 26.25C35.9558 26.25 31.2102 29.4019 28.8652 34.4756C28.7921 34.6251 28.7497 34.7877 28.7403 34.9539C28.7309 35.1201 28.7548 35.2864 28.8105 35.4432C28.8663 35.6 28.9528 35.7441 29.065 35.867C29.1771 35.9899 29.3127 36.0892 29.4638 36.1591C29.6148 36.2289 29.7783 36.2679 29.9446 36.2737C30.111 36.2795 30.2768 36.252 30.4323 36.1929C30.5879 36.1338 30.7301 36.0442 30.8506 35.9294C30.971 35.8146 31.0674 35.6769 31.1339 35.5244C33.0652 31.3456 36.9414 28.75 41.2496 28.75C41.5811 28.75 41.899 28.6183 42.1335 28.3839C42.3679 28.1495 42.4996 27.8315 42.4996 27.5Z" fill="white"/>
</g>
<defs>
<clipPath id="clip0_3907_3044">
<rect width="80" height="80" fill="white"/>
</clipPath>
</defs>
</svg>
