<svg width="80" height="80" viewBox="0 0 80 80" fill="none" xmlns="http://www.w3.org/2000/svg">
<path d="M39.9515 12.7934C39.62 12.7935 39.3021 12.9252 39.0677 13.1596C38.8333 13.394 38.7016 13.7119 38.7015 14.0434L38.7016 22.5236C38.7017 22.7748 38.7774 23.0202 38.9189 23.2277C39.0604 23.4353 39.2612 23.5954 39.4951 23.6871C39.7289 23.7789 39.985 23.798 40.2299 23.7421C40.4748 23.6862 40.6972 23.5578 40.868 23.3736C41.6421 22.5391 42.6946 22.0795 43.8318 22.0795C46.0604 22.0795 47.8735 23.8927 47.8735 26.1213C47.8735 28.3498 46.0604 30.163 43.8318 30.163C42.6948 30.163 41.6423 29.7034 40.868 28.8687C40.6972 28.6846 40.4748 28.5562 40.2299 28.5002C39.985 28.4443 39.7289 28.4635 39.4951 28.5552C39.2612 28.647 39.0604 28.8071 38.9189 29.0146C38.7774 29.2222 38.7017 29.4675 38.7016 29.7188V36.9492H33.861C34.2259 36.1203 34.4146 35.2247 34.4154 34.3191C34.4154 30.7119 31.4807 27.7773 27.8737 27.7773C24.2666 27.7773 21.332 30.7119 21.332 34.3191C21.3327 35.2247 21.5215 36.1203 21.8863 36.9492H15.7954C15.4639 36.9492 15.1459 37.0809 14.9115 37.3153C14.6771 37.5498 14.5454 37.8677 14.5454 38.1992C14.5454 42.6017 15.6932 46.9463 17.8646 50.7636C20.0346 54.5781 23.181 57.7856 26.9638 60.0397C28.1126 60.7241 28.7452 61.8372 28.7452 63.1739V69.0639C28.7452 71.1508 30.1515 72.9141 32.0659 73.4594V73.6945C32.0659 77.085 34.8241 79.8436 38.2146 79.8436H41.6888C45.0793 79.8436 47.8376 77.0852 47.8376 73.6945V73.4594C49.752 72.9142 51.1582 71.1508 51.1582 69.0639V63.1739C51.1582 61.8372 51.7909 60.7241 52.9395 60.0395C56.6541 57.8264 59.7652 54.6802 61.9365 50.9414C64.1749 47.087 65.358 42.6809 65.358 38.1991C65.3577 24.1905 53.9605 12.7934 39.9515 12.7934ZM43.8318 32.6631C47.4388 32.6631 50.3735 29.7286 50.3735 26.1214C50.3735 22.5142 47.439 19.5797 43.8318 19.5797C42.9262 19.5803 42.0305 19.7691 41.2016 20.1341V15.3272C52.8393 15.9561 62.1941 25.3122 62.8232 36.9495H55.6276C55.3764 36.9496 55.131 37.0253 54.9234 37.1668C54.7159 37.3083 54.5558 37.5091 54.4641 37.743C54.3723 37.9768 54.3531 38.2329 54.4091 38.4778C54.465 38.7227 54.5934 38.9451 54.7776 39.1159C55.6121 39.89 56.0718 40.9425 56.0718 42.0797C56.0718 44.3084 54.2587 46.1214 52.0301 46.1214C49.8015 46.1214 47.9884 44.3083 47.9884 42.0797C47.9884 40.9427 48.4479 39.89 49.2824 39.1159C49.4668 38.9452 49.5953 38.7228 49.6513 38.4778C49.7074 38.2329 49.6882 37.9767 49.5965 37.7428C49.5047 37.5089 49.3445 37.308 49.1368 37.1665C48.9292 37.025 48.6837 36.9494 48.4324 36.9495H41.202V32.1089C42.0307 32.4738 42.9263 32.6625 43.8318 32.6631ZM28.2432 57.8923C21.6955 53.9909 17.499 47.0072 17.0798 39.4495H24.2757C24.5269 39.4495 24.7723 39.3738 24.9798 39.2323C25.1874 39.0907 25.3475 38.8899 25.4392 38.6561C25.531 38.4222 25.5501 38.1662 25.4942 37.9213C25.4383 37.6763 25.3099 37.454 25.1257 37.2831C24.2912 36.5091 23.8316 35.4566 23.8316 34.3194C23.8316 32.0906 25.6448 30.2777 27.8734 30.2777C30.102 30.2777 31.9151 32.0908 31.9151 34.3194C31.9151 35.4564 31.4555 36.5091 30.621 37.2831C30.4367 37.4539 30.3081 37.6763 30.2521 37.9212C30.1961 38.1662 30.2152 38.4224 30.307 38.6563C30.3988 38.8902 30.5589 39.091 30.7666 39.2325C30.9742 39.374 31.2197 39.4497 31.471 39.4495H38.7015V44.2902C37.8726 43.9253 36.977 43.7365 36.0713 43.7358C32.4643 43.7358 29.5296 46.6703 29.5296 50.2775C29.5296 53.8847 32.4641 56.8192 36.0713 56.8192C36.977 56.8185 37.8726 56.6297 38.7015 56.2648V65.388H31.2449V63.1741C31.2449 60.9539 30.1509 59.0287 28.2432 57.8923ZM41.6885 77.3438H38.2143C36.2024 77.3438 34.5655 75.7067 34.5655 73.6947V73.6347H45.3373V73.6947C45.3373 75.7067 43.7005 77.3438 41.6885 77.3438ZM46.5873 71.1348H33.3155C32.1738 71.1348 31.2449 70.2061 31.2449 69.0642V67.8881H48.6579V69.0642C48.6579 70.2059 47.729 71.1348 46.5873 71.1348ZM51.6596 57.8923C49.7521 59.0289 48.658 60.9541 48.658 63.1742V65.3881H41.2016V53.8753C41.2016 53.6241 41.1259 53.3787 40.9844 53.1712C40.8428 52.9636 40.6421 52.8035 40.4082 52.7118C40.1743 52.62 39.9183 52.6009 39.6734 52.6568C39.4285 52.7127 39.2061 52.8411 39.0352 53.0253C38.2612 53.8598 37.2087 54.3194 36.0715 54.3194C33.8429 54.3194 32.0298 52.5063 32.0298 50.2777C32.0298 48.0491 33.8429 46.2359 36.0715 46.2359C37.2085 46.2359 38.261 46.6955 39.0352 47.5302C39.206 47.7144 39.4284 47.8429 39.6734 47.8989C39.9183 47.9548 40.1744 47.9357 40.4083 47.8439C40.6422 47.7522 40.843 47.592 40.9845 47.3844C41.126 47.1768 41.2017 46.9314 41.2016 46.6802V39.4497H46.0424C45.6776 40.2786 45.4888 41.1742 45.488 42.0798C45.488 45.687 48.4226 48.6216 52.0298 48.6216C55.637 48.6216 58.5715 45.687 58.5715 42.0798C58.5707 41.1742 58.382 40.2786 58.0171 39.4497H62.8204C62.401 47.0072 58.2071 53.9909 51.6596 57.8923ZM65.1416 23.4645C64.9759 23.1774 64.931 22.8363 65.0168 22.516C65.1026 22.1958 65.312 21.9228 65.5991 21.757L71.0245 18.6247C71.3114 18.4615 71.6512 18.4185 71.9698 18.505C72.2883 18.5915 72.5598 18.8005 72.7248 19.0863C72.8898 19.3722 72.9351 19.7117 72.8508 20.0308C72.7664 20.35 72.5592 20.6227 72.2745 20.7897L66.8491 23.922C66.707 24.0041 66.5501 24.0574 66.3873 24.0789C66.2246 24.1003 66.0592 24.0895 65.9006 24.047C65.742 24.0045 65.5934 23.9312 65.4632 23.8313C65.333 23.7313 65.2237 23.6067 65.1416 23.4645ZM77.899 38.0337C77.899 38.3653 77.7673 38.6832 77.5329 38.9176C77.2984 39.1521 76.9805 39.2837 76.649 39.2837L70.3845 39.2839C70.0529 39.2839 69.735 39.1522 69.5006 38.9178C69.2662 38.6834 69.1345 38.3654 69.1345 38.0339C69.1345 37.7024 69.2662 37.3844 69.5006 37.15C69.735 36.9156 70.0529 36.7839 70.3845 36.7839L76.649 36.7837C76.9805 36.7838 77.2984 36.9155 77.5328 37.1499C77.7672 37.3843 77.8989 37.7022 77.899 38.0337ZM72.7321 56.9341C72.6501 57.0762 72.5408 57.2009 72.4106 57.3008C72.2803 57.4008 72.1317 57.4741 71.9731 57.5166C71.8146 57.559 71.6492 57.5699 71.4864 57.5484C71.3237 57.527 71.1668 57.4737 71.0246 57.3916L65.5993 54.2592C65.3145 54.0923 65.1074 53.8195 65.023 53.5004C64.9386 53.1812 64.9839 52.8417 65.149 52.5559C65.314 52.27 65.5854 52.061 65.904 51.9745C66.2225 51.8881 66.5623 51.9311 66.8493 52.0942L72.2746 55.2266C72.5617 55.3924 72.7711 55.6654 72.8569 55.9856C72.9427 56.3058 72.8978 56.647 72.7321 56.9341ZM38.7015 7.67094V1.40641C38.7015 1.07489 38.8332 0.756943 39.0676 0.522523C39.302 0.288102 39.62 0.156406 39.9515 0.156406C40.283 0.156406 40.6009 0.288102 40.8354 0.522523C41.0698 0.756943 41.2015 1.07489 41.2015 1.40641V7.67094C41.2015 8.00246 41.0698 8.3204 40.8354 8.55482C40.6009 8.78924 40.283 8.92094 39.9515 8.92094C39.62 8.92094 39.302 8.78924 39.0676 8.55482C38.8332 8.3204 38.7015 8.00246 38.7015 7.67094ZM9.6143 39.2581H3.34961C3.01809 39.2581 2.70015 39.1264 2.46573 38.892C2.23131 38.6576 2.09961 38.3396 2.09961 38.0081C2.09961 37.6766 2.23131 37.3587 2.46573 37.1242C2.70015 36.8898 3.01809 36.7581 3.34961 36.7581H9.6143C9.94582 36.7581 10.2638 36.8898 10.4982 37.1242C10.7326 37.3587 10.8643 37.6766 10.8643 38.0081C10.8643 38.3396 10.7326 38.6576 10.4982 38.892C10.2638 39.1264 9.94582 39.2581 9.6143 39.2581ZM14.7613 52.5517C14.9271 52.8388 14.972 53.18 14.8862 53.5002C14.8004 53.8204 14.5909 54.0935 14.3038 54.2592L8.87852 57.3916C8.73637 57.4737 8.57944 57.527 8.41669 57.5484C8.25393 57.5699 8.08855 57.559 7.92998 57.5166C7.77142 57.4741 7.62278 57.4008 7.49255 57.3008C7.36232 57.2009 7.25306 57.0762 7.17102 56.9341C7.00526 56.647 6.96034 56.3058 7.04614 55.9856C7.13194 55.6653 7.34142 55.3923 7.62852 55.2266L13.0538 52.0942C13.196 52.0121 13.3529 51.9588 13.5157 51.9374C13.6784 51.916 13.8438 51.9268 14.0023 51.9693C14.1609 52.0118 14.3095 52.0851 14.4398 52.185C14.57 52.2849 14.6793 52.4095 14.7613 52.5517ZM54.0374 11.1103L57.1698 5.685C57.3367 5.40024 57.6095 5.19307 57.9286 5.1087C58.2477 5.02433 58.5873 5.06961 58.8731 5.23466C59.159 5.3997 59.368 5.67112 59.4545 5.98967C59.5409 6.30822 59.4979 6.64805 59.3348 6.935L56.2024 12.3603C56.1204 12.5025 56.0111 12.6271 55.8809 12.7271C55.7507 12.827 55.602 12.9003 55.4435 12.9428C55.2849 12.9853 55.1195 12.9961 54.9568 12.9747C54.794 12.9532 54.6371 12.8999 54.4949 12.8178C54.2078 12.652 53.9983 12.379 53.9125 12.0588C53.8268 11.7386 53.8717 11.3974 54.0374 11.1103ZM3.34961 26.8125H11.8302C12.0814 26.8125 12.3268 26.7368 12.5344 26.5952C12.7419 26.4537 12.902 26.2529 12.9938 26.0191C13.0855 25.7852 13.1047 25.5291 13.0487 25.2842C12.9928 25.0393 12.8644 24.8169 12.6802 24.6461C11.8457 23.872 11.3862 22.8195 11.3862 21.6823C11.3862 19.4536 13.1993 17.6406 15.4279 17.6406C17.6565 17.6406 19.4696 19.4538 19.4696 21.6823C19.4696 22.8194 19.0101 23.872 18.1755 24.6461C17.9912 24.8169 17.8626 25.0393 17.8066 25.2842C17.7506 25.5292 17.7697 25.7853 17.8615 26.0193C17.9533 26.2532 18.1135 26.454 18.3211 26.5955C18.5288 26.737 18.7743 26.8126 19.0255 26.8125H27.506C27.8375 26.8125 28.1555 26.6808 28.3899 26.4464C28.6243 26.212 28.756 25.894 28.756 25.5625V19.4719C29.5849 19.8367 30.4805 20.0255 31.3862 20.0262C34.9932 20.0262 37.9279 17.0917 37.9279 13.4845C37.9279 9.87734 34.9934 6.94281 31.3862 6.94281C30.4805 6.94346 29.5849 7.13224 28.756 7.49719V1.40625C28.756 1.07473 28.6243 0.756787 28.3899 0.522367C28.1555 0.287946 27.8375 0.15625 27.506 0.15625C13.497 0.15625 2.09977 11.5533 2.09977 25.5625C2.09975 25.7266 2.13206 25.8892 2.19486 26.0408C2.25766 26.1925 2.34972 26.3303 2.46578 26.4464C2.58184 26.5624 2.71963 26.6545 2.87128 26.7173C3.02293 26.7802 3.18546 26.8125 3.34961 26.8125ZM26.256 2.69L26.2562 9.88672C26.2562 10.1379 26.3319 10.3833 26.4734 10.5909C26.615 10.7984 26.8158 10.9585 27.0496 11.0502C27.2835 11.142 27.5395 11.1612 27.7845 11.1052C28.0294 11.0493 28.2517 10.9209 28.4226 10.7367C29.1966 9.90219 30.2491 9.44266 31.3863 9.44266C33.6149 9.44266 35.428 11.2558 35.428 13.4844C35.428 15.713 33.6149 17.5261 31.3863 17.5261C30.2493 17.5261 29.1968 17.0666 28.4226 16.2319C28.2517 16.0477 28.0294 15.9193 27.7845 15.8634C27.5395 15.8074 27.2835 15.8266 27.0496 15.9184C26.8158 16.0101 26.615 16.1702 26.4734 16.3777C26.3319 16.5853 26.2562 16.8307 26.2562 17.0819V24.3125H21.4154C21.7802 23.4836 21.969 22.588 21.9698 21.6823C21.9698 18.0752 19.0352 15.1406 15.428 15.1406C11.821 15.1406 8.88633 18.0752 8.88633 21.6823C8.88707 22.588 9.07585 23.4836 9.4407 24.3125H4.63336C5.26227 12.6748 14.6184 3.31875 26.256 2.69Z" fill="white"/>
</svg>
