<svg width="80" height="80" viewBox="0 0 80 80" fill="none" xmlns="http://www.w3.org/2000/svg">
<g clip-path="url(#clip0_3907_3021)">
<path d="M53.2904 33.4077C54.6234 32.0883 55.4507 30.2593 55.4507 28.24C55.4507 24.2294 52.1871 20.9666 48.1757 20.9666C45.0846 20.9666 42.3449 22.9261 41.3219 25.7975C40.8932 25.7185 40.4521 25.675 40.0007 25.675C39.5492 25.675 39.1083 25.7185 38.6794 25.7975C37.6564 22.9259 34.9166 20.9666 31.8256 20.9666C27.8142 20.9666 24.5506 24.2294 24.5506 28.24C24.5506 30.2593 25.3781 32.0883 26.711 33.4077C23.5135 35.2291 21.4551 38.6782 21.4551 42.4293C21.4551 43.0767 21.9798 43.6012 22.627 43.6012C23.2742 43.6012 23.7988 43.0767 23.7988 42.4293C23.7988 39.1163 25.8731 36.1079 28.9647 34.928C30.2827 35.4941 31.7392 35.6556 33.1492 35.3919C33.5169 36.4181 34.1099 37.3488 34.8847 38.1156C33.2879 39.019 31.96 40.3306 31.0367 41.916C30.1135 43.5014 29.6282 45.3036 29.6304 47.1383C29.6304 47.7856 30.1551 48.3102 30.8023 48.3102C31.4495 48.3102 31.9742 47.7856 31.9742 47.1383C31.9723 45.5597 32.4366 44.0157 33.3087 42.6999C34.1809 41.3841 35.4221 40.3551 36.8767 39.742C36.9564 39.7082 37.03 39.6662 37.0978 39.6182C38.0132 40.0186 39.0016 40.225 40.0007 40.2243C41.0163 40.2243 41.9835 40.0145 42.8622 39.637C45.9524 40.8168 48.0271 43.8284 48.0271 47.1383C48.0271 47.7856 48.5518 48.3102 49.199 48.3102C49.8462 48.3102 50.3709 47.7856 50.3709 47.1383C50.3709 43.3906 48.312 39.9387 45.1154 38.1167C45.8908 37.3497 46.4843 36.4186 46.8521 35.3919C48.262 35.6557 49.7186 35.4942 51.0365 34.928C54.1281 36.1079 56.2023 39.116 56.2023 42.4293C56.2023 43.0767 56.727 43.6012 57.3742 43.6012C58.0214 43.6012 58.5461 43.0767 58.5461 42.4293C58.5464 38.6781 56.4879 35.2291 53.2904 33.4077ZM32.7262 32.9497C32.7262 32.9958 32.7289 33.0412 32.7297 33.0869C32.4345 33.1419 32.1322 33.1713 31.8258 33.1713C29.1067 33.1713 26.8945 30.9593 26.8945 28.24C26.8945 25.5219 29.1067 23.3103 31.8258 23.3103C33.9236 23.3103 35.7819 24.6414 36.4734 26.5905C34.2406 27.8339 32.7262 30.2179 32.7262 32.9497ZM35.07 32.9497C35.07 30.231 37.2819 28.0189 40.0008 28.0189C42.7197 28.0189 44.9316 30.2308 44.9316 32.9497C44.9316 35.6687 42.7197 37.8806 40.0008 37.8806C37.2819 37.8806 35.07 35.6685 35.07 32.9497ZM47.2718 33.0869C47.2726 33.0412 47.2752 32.9957 47.2752 32.9497C47.2752 30.2179 45.7608 27.8341 43.528 26.5906C44.2196 24.6416 46.0779 23.3105 48.1757 23.3105C50.8948 23.3105 53.107 25.5219 53.107 28.2402C53.107 30.9593 50.8948 33.1715 48.1757 33.1715C47.8724 33.1711 47.5699 33.1428 47.2718 33.0869Z" fill="white"/>
<path d="M70.3491 50.6467V29.3455C73.2702 28.7942 75.4871 26.2248 75.4871 23.1459C75.4871 19.6662 72.6563 16.8354 69.1766 16.8354C67.2642 16.8354 65.549 17.6917 64.3909 19.0395L45.9553 8.39489C46.1908 7.72508 46.311 7.02019 46.3108 6.31019C46.3108 2.8308 43.48 0 40.0004 0C36.5209 0 33.6899 2.8308 33.6899 6.31035C33.6899 7.04082 33.816 7.74192 34.0454 8.39505L15.6098 19.0395C14.4517 17.6917 12.7365 16.8354 10.8242 16.8354C7.34447 16.8354 4.51367 19.6662 4.51367 23.1459C4.51367 26.2248 6.73056 28.7941 9.65167 29.3455V50.6467C6.73056 51.198 4.51367 53.7673 4.51367 56.8463C4.51367 60.326 7.34447 63.1568 10.8242 63.1568C12.7336 63.1568 14.4462 62.3032 15.6044 60.9591L34.0453 71.6056C33.8099 72.2752 33.6897 72.9799 33.6899 73.6896C33.6899 77.1694 36.5207 80.0002 40.0004 80.0002C43.4802 80.0002 46.3109 77.1694 46.3109 73.6896C46.3109 72.9595 46.1849 72.2584 45.9556 71.6056L64.3965 60.9591C65.5547 62.3033 67.2673 63.1568 69.1767 63.1568C72.6564 63.1568 75.4872 60.326 75.4872 56.8463C75.4871 53.7672 73.27 51.198 70.3491 50.6467ZM69.1766 19.1792C71.3638 19.1792 73.1433 20.9587 73.1433 23.1459C73.1433 25.3331 71.3638 27.1127 69.1766 27.1127C66.9894 27.1127 65.2098 25.3331 65.2098 23.1459C65.2098 20.9587 66.9894 19.1792 69.1766 19.1792ZM40.0004 2.34376C42.1876 2.34376 43.9672 4.12315 43.9672 6.31035C43.9672 8.49552 42.1909 10.2737 40.0065 10.2769L40.0004 10.2766L39.9944 10.2769C37.81 10.2737 36.0337 8.49552 36.0337 6.31035C36.0337 4.12315 37.8131 2.34376 40.0004 2.34376ZM6.85744 23.1459C6.85744 20.9587 8.63698 19.1792 10.8242 19.1792C13.0114 19.1792 14.7909 20.9587 14.7909 23.1459C14.7909 25.3331 13.0114 27.1127 10.8242 27.1127C8.63698 27.1127 6.85744 25.3331 6.85744 23.1459ZM10.8242 60.8129C8.63698 60.8129 6.85744 59.0333 6.85744 56.8461C6.85744 54.6589 8.63698 52.8794 10.8242 52.8794C13.0114 52.8794 14.7909 54.6589 14.7909 56.8461C14.7909 59.0333 13.0114 60.8129 10.8242 60.8129ZM40.0004 77.6562C37.8132 77.6562 36.0337 75.8767 36.0337 73.6895C36.0337 71.5023 37.8132 69.7227 40.0004 69.7227C42.1876 69.7227 43.9672 71.5023 43.9672 73.6895C43.9672 75.8767 42.1876 77.6562 40.0004 77.6562ZM44.7809 69.5773C43.8658 68.5148 42.6041 67.7599 41.1722 67.4899V62.9752C41.1722 62.3279 40.6475 61.8033 40.0003 61.8033C39.3531 61.8033 38.8284 62.3279 38.8284 62.9752V67.4899C37.3967 67.7601 36.135 68.5148 35.2196 69.5773L16.7791 58.931C17.0146 58.2612 17.1348 57.5563 17.1345 56.8463C17.1345 56.1152 17.0081 55.4133 16.7784 54.7597L20.6894 52.5011C20.9542 52.3434 21.1462 52.0879 21.2239 51.7897C21.3016 51.4915 21.2588 51.1747 21.1047 50.9079C20.9506 50.6411 20.6976 50.4456 20.4005 50.3639C20.1034 50.2822 19.7861 50.3209 19.5172 50.4714L15.6028 52.732C14.6876 51.6705 13.4264 50.9164 11.9953 50.6465V29.3456C13.4268 29.0758 14.6884 28.3213 15.6036 27.2592L19.5233 29.5228C19.6565 29.5998 19.8037 29.6498 19.9562 29.67C20.1088 29.6901 20.2639 29.68 20.4125 29.6402C20.5612 29.6003 20.7006 29.5316 20.8226 29.4379C20.9447 29.3442 21.0472 29.2274 21.1241 29.0941C21.2011 28.9608 21.251 28.8137 21.2711 28.6611C21.2912 28.5085 21.2811 28.3535 21.2413 28.2048C21.2015 28.0561 21.1328 27.9168 21.0391 27.7947C20.9454 27.6726 20.8286 27.5701 20.6953 27.4931L16.7786 25.2312C17.0142 24.5612 17.1344 23.8561 17.1342 23.1459C17.1344 22.4387 17.0152 21.7366 16.7814 21.0692L35.2196 10.423C36.1348 11.4852 37.3964 12.2399 38.8279 12.5099V17.0251C38.8279 17.6724 39.3526 18.197 39.9998 18.197C40.647 18.197 41.1717 17.6724 41.1717 17.0251V12.5099C42.6033 12.2399 43.8648 11.4852 44.78 10.423L63.2182 21.0692C62.9846 21.7366 62.8653 22.4387 62.8654 23.1459C62.8654 23.8765 62.9917 24.578 63.221 25.2312L59.3043 27.4931C59.0352 27.6486 58.8388 27.9045 58.7583 28.2047C58.6779 28.505 58.7201 28.8248 58.8755 29.094C59.0309 29.3632 59.2869 29.5595 59.5871 29.64C59.8873 29.7204 60.2072 29.6783 60.4763 29.5228L64.3961 27.2592C65.3114 28.3213 66.5729 29.0758 68.0044 29.3456V50.6465C66.5733 50.9164 65.3122 51.6705 64.3968 52.732L60.4824 50.4714C60.3492 50.3944 60.202 50.3445 60.0495 50.3243C59.8969 50.3042 59.7418 50.3144 59.5932 50.3542C59.4445 50.394 59.3051 50.4627 59.183 50.5564C59.0609 50.6501 58.9585 50.7669 58.8815 50.9001C58.8045 51.0334 58.7546 51.1805 58.7345 51.3331C58.7143 51.4857 58.7245 51.6407 58.7643 51.7894C58.8041 51.9381 58.8728 52.0774 58.9665 52.1995C59.0602 52.3217 59.177 52.4241 59.3102 52.5011L63.2212 54.7597C62.9853 55.4301 62.8649 56.1356 62.8651 56.8463C62.8651 57.5767 62.9912 58.278 63.2206 58.931L44.7809 69.5773ZM69.1766 60.8129C66.9894 60.8129 65.2098 59.0333 65.2098 56.8461C65.2098 54.6589 66.9894 52.8794 69.1766 52.8794C71.3638 52.8794 73.1433 54.6589 73.1433 56.8461C73.1433 59.0333 71.3638 60.8129 69.1766 60.8129Z" fill="white"/>
<path d="M49.8163 52.1082H46.3288C45.6816 52.1082 45.157 52.6327 45.157 53.28C45.157 53.9274 45.6816 54.4519 46.3288 54.4519H49.8163C50.4635 54.4519 50.9882 53.9274 50.9882 53.28C50.9882 52.6327 50.4635 52.1082 49.8163 52.1082ZM49.8163 56.698H30.1855C29.5384 56.698 29.0137 57.2225 29.0137 57.8699C29.0137 58.5172 29.5384 59.0417 30.1855 59.0417H49.8165C49.9704 59.0417 50.1228 59.0114 50.2649 58.9525C50.4071 58.8936 50.5363 58.8073 50.6451 58.6985C50.7539 58.5896 50.8402 58.4604 50.8991 58.3183C50.958 58.1761 50.9883 58.0237 50.9883 57.8698C50.9883 57.7159 50.9579 57.5635 50.899 57.4213C50.8401 57.2792 50.7538 57.15 50.645 57.0412C50.5362 56.9324 50.407 56.8461 50.2648 56.7872C50.1226 56.7283 49.9702 56.698 49.8163 56.698ZM30.1855 54.4519H30.2018C30.849 54.4519 31.3737 53.9274 31.3737 53.28C31.3737 52.6327 30.849 52.1082 30.2018 52.1082H30.1855C29.5384 52.1082 29.0137 52.6327 29.0137 53.28C29.0137 53.9274 29.5384 54.4519 30.1855 54.4519ZM34.2609 54.4519C34.908 54.4519 35.4327 53.9274 35.4327 53.28C35.4327 52.6327 34.908 52.1082 34.2609 52.1082H34.2446C33.5974 52.1082 33.0727 52.6327 33.0727 53.28C33.0727 53.9274 33.5974 54.4519 34.2446 54.4519H34.2609ZM38.3199 54.4519C38.9671 54.4519 39.4918 53.9274 39.4918 53.28C39.4918 52.6327 38.9671 52.1082 38.3199 52.1082H38.3037C37.6565 52.1082 37.1318 52.6327 37.1318 53.28C37.1318 53.9274 37.6565 54.4519 38.3037 54.4519H38.3199Z" fill="white"/>
</g>
<defs>
<clipPath id="clip0_3907_3021">
<rect width="80" height="80" fill="white"/>
</clipPath>
</defs>
</svg>
