<svg width="80" height="80" viewBox="0 0 80 80" fill="none" xmlns="http://www.w3.org/2000/svg">
<path d="M10.8808 39.3812C14.2492 39.3812 16.9897 36.6407 16.9897 33.2721C16.9906 32.3406 16.777 31.4213 16.3656 30.5856L27.9666 21.5524C29.032 22.4567 30.4097 23.0039 31.9133 23.0039C34.41 23.0039 36.5605 21.4976 37.5069 19.3465L46.8372 21.3054L46.837 21.3109C46.837 24.6793 49.5775 27.4198 52.9459 27.4198C56.3144 27.4198 59.0548 24.6793 59.0548 21.3109C59.0557 20.2387 58.7725 19.1854 58.2341 18.2582L71.2441 6.62213L70.8205 7.85854C70.713 8.17216 70.7346 8.51562 70.8803 8.81336C71.0261 9.1111 71.2842 9.33874 71.5978 9.4462C71.7531 9.49944 71.9174 9.52157 72.0812 9.51132C72.245 9.50107 72.4053 9.45864 72.5527 9.38645C72.7001 9.31426 72.8319 9.21373 72.9405 9.0906C73.049 8.96748 73.1323 8.82416 73.1855 8.66885L75.1606 2.90495C75.2318 2.69738 75.247 2.47474 75.2048 2.25942C75.1626 2.0441 75.0645 1.84367 74.9203 1.67829C74.7761 1.5129 74.5909 1.38839 74.3833 1.31726C74.1758 1.24613 73.9531 1.23089 73.7378 1.27307L67.7586 2.44448C67.5975 2.47603 67.4442 2.53901 67.3074 2.62981C67.1707 2.72062 67.0532 2.83747 66.9616 2.97371C66.87 3.10994 66.8062 3.26287 66.7737 3.42378C66.7412 3.58469 66.7408 3.75042 66.7723 3.91151C66.8361 4.23683 67.0265 4.5235 67.3016 4.70846C67.5767 4.89341 67.914 4.96151 68.2394 4.89776L69.7538 4.60104L56.5677 16.3946C55.5198 15.6187 54.2501 15.2005 52.9462 15.2017C50.4495 15.2017 48.2991 16.7079 47.3527 18.859L38.0223 16.9001L38.0225 16.8948C38.0225 13.5264 35.282 10.7859 31.9136 10.7859C28.5452 10.7859 25.8047 13.5264 25.8047 16.8948C25.8047 17.8584 26.0297 18.7701 26.4287 19.5814L14.8278 28.6145C13.7623 27.7101 12.3847 27.1629 10.8809 27.1629C7.5125 27.1629 4.77203 29.9034 4.77203 33.2718C4.77188 36.6406 7.51234 39.3812 10.8808 39.3812ZM52.9459 17.702C54.9359 17.702 56.5548 19.3209 56.5548 21.311C56.5548 23.301 54.9359 24.9199 52.9459 24.9199C50.9559 24.9199 49.337 23.301 49.337 21.311C49.337 19.3209 50.9561 17.702 52.9459 17.702ZM31.9134 13.286C33.9033 13.286 35.5223 14.9049 35.5223 16.8949C35.5223 18.8849 33.9034 20.5039 31.9134 20.5039C29.9234 20.5039 28.3045 18.8849 28.3045 16.8949C28.3045 14.9049 29.9234 13.286 31.9134 13.286ZM10.8808 29.6632C12.8708 29.6632 14.4897 31.2821 14.4897 33.2721C14.4897 35.2621 12.8708 36.8812 10.8808 36.8812C8.89078 36.8812 7.27188 35.2621 7.27188 33.2721C7.27188 31.2821 8.89078 29.6632 10.8808 29.6632ZM67.4003 44.7381C60.0814 37.419 50.3505 33.3884 40 33.3884C29.6495 33.3884 19.9186 37.419 12.5997 44.7381C5.28078 52.057 1.25 61.7879 1.25 72.1384C1.25 72.4699 1.3817 72.7878 1.61612 73.0223C1.85054 73.2567 2.16848 73.3884 2.5 73.3884H16.4794C16.8109 73.3884 17.1288 73.2567 17.3633 73.0223C17.5977 72.7878 17.7294 72.4699 17.7294 72.1384C17.7294 59.8582 27.7198 49.8678 40 49.8678C52.28 49.8678 62.2706 59.8582 62.2706 72.1384C62.2706 72.4699 62.4023 72.7878 62.6367 73.0223C62.8712 73.2567 63.1891 73.3884 63.5206 73.3884H77.5C77.8315 73.3884 78.1495 73.2567 78.3839 73.0223C78.6183 72.7878 78.75 72.4699 78.75 72.1384C78.75 61.7879 74.7194 52.057 67.4003 44.7381ZM38.75 47.399C35.2515 47.5719 31.8302 48.4902 28.7153 50.0924L22.9714 40.1439C27.7056 37.6138 33.0639 36.1059 38.75 35.9121V47.399ZM41.25 35.9123C46.9361 36.106 52.2944 37.614 57.0286 40.144L51.2848 50.0926C48.1699 48.4903 44.7486 47.572 41.25 47.399V35.9123ZM15.2605 70.8884H3.77125C3.965 65.202 5.47641 59.8446 8.00641 55.1103L17.9544 60.8537C16.3519 63.9685 15.4335 67.3898 15.2605 70.8884ZM19.2069 58.6901L9.26031 52.9474C12.1848 48.2799 16.1405 44.3215 20.808 41.397L26.5516 51.3451C23.6156 53.2516 21.1133 55.7541 19.2069 58.6901ZM53.4484 51.3451L59.192 41.397C63.8636 44.3264 67.8115 48.2752 70.7398 52.9474L60.7931 58.6901C58.8867 55.7541 56.3844 53.2516 53.4484 51.3451ZM64.7395 70.8884C64.5665 67.3898 63.6481 63.9686 62.0458 60.8537L71.9938 55.1103C74.5238 59.8448 76.0352 65.202 76.2289 70.8884H64.7395ZM50.7948 59.5759L43.7052 66.6656C42.6126 65.9223 41.3214 65.5255 40 65.527C36.3544 65.527 33.3884 68.4929 33.3884 72.1385C33.3884 75.7842 36.3544 78.7499 40 78.7499C43.6456 78.7499 46.6116 75.784 46.6116 72.1384C46.6116 70.7663 46.1912 69.4907 45.473 68.4331L52.5627 61.3435C52.6799 61.2277 52.773 61.0899 52.8368 60.9379C52.9005 60.7859 52.9336 60.6229 52.9341 60.4581C52.9346 60.2933 52.9025 60.13 52.8397 59.9777C52.7768 59.8254 52.6845 59.6869 52.568 59.5704C52.4514 59.4539 52.313 59.3616 52.1607 59.2988C52.0083 59.2359 51.8451 59.2038 51.6803 59.2044C51.5155 59.2049 51.3524 59.2379 51.2005 59.3017C51.0485 59.3655 50.9107 59.4587 50.7948 59.5759ZM40 76.2499C37.7328 76.2499 35.8884 74.4056 35.8884 72.1384C35.8884 69.8712 37.7328 68.0268 40 68.0268C42.2672 68.0268 44.1116 69.8712 44.1116 72.1384C44.1116 74.4056 42.2672 76.2499 40 76.2499Z" fill="white"/>
</svg>
