<svg width="80" height="80" viewBox="0 0 80 80" fill="none" xmlns="http://www.w3.org/2000/svg">
<path fill-rule="evenodd" clip-rule="evenodd" d="M40.3905 65.3198L39.4151 67.8541C39.324 68.0907 39.1634 68.2942 38.9543 68.4378C38.7453 68.5813 38.4976 68.6581 38.244 68.6581H29.6911C29.4375 68.6581 29.1898 68.5813 28.9808 68.4378C28.7717 68.2942 28.611 68.0907 28.5199 67.8541L26.7388 63.2258C24.261 62.5756 21.8923 61.5888 19.6831 60.3038L15.1433 62.3146C14.9116 62.4172 14.6543 62.4473 14.4052 62.4009C14.1561 62.3545 13.9269 62.2337 13.7477 62.0545L7.70126 56.0081C7.52189 55.8287 7.40109 55.5992 7.3548 55.3498C7.30851 55.1003 7.3389 54.8427 7.44197 54.6109L9.45907 50.0743C8.16903 47.8712 7.1877 45.4978 6.53232 43.0266L1.90189 41.2445C1.6652 41.1534 1.46165 40.9928 1.31809 40.7837C1.17452 40.5746 1.09767 40.327 1.09766 40.0734V31.5204C1.09764 31.2668 1.17449 31.0191 1.31806 30.8101C1.46163 30.601 1.66518 30.4403 1.90189 30.3493L6.53185 28.5673C7.18486 26.0941 8.16965 23.7207 9.45938 21.5116L7.44197 16.9742C7.3389 16.7424 7.30851 16.4848 7.3548 16.2354C7.40109 15.986 7.52189 15.7564 7.70126 15.577L13.7477 9.53045C13.9271 9.35108 14.1566 9.23028 14.406 9.18399C14.6555 9.1377 14.9131 9.16809 15.1449 9.27116L19.6823 11.2887C21.8883 9.99975 24.2595 9.01718 26.7306 8.3681L28.5202 3.73014C28.6115 3.4937 28.7722 3.29043 28.9812 3.14707C29.1901 3.00371 29.4376 2.92699 29.6911 2.927H38.244C38.4977 2.92699 38.7455 3.00388 38.9546 3.14754C39.1638 3.2912 39.3244 3.49488 39.4155 3.73171L41.197 8.36841C43.6677 9.01743 46.0386 9.9999 48.2442 11.2887L52.7816 9.27116C53.0134 9.16809 53.271 9.1377 53.5204 9.18399C53.7698 9.23028 53.9994 9.35108 54.1788 9.53045L60.2253 15.577C60.4045 15.7562 60.5252 15.9855 60.5716 16.2346C60.618 16.4837 60.5879 16.741 60.4853 16.9726L58.4751 21.5107C59.7657 23.7192 60.7487 26.0936 61.3966 28.5681L66.0247 30.3493C66.2614 30.4403 66.4649 30.601 66.6085 30.8101C66.752 31.0191 66.8288 31.2668 66.8288 31.5204V38.4175C73.9261 41.5493 78.9016 48.6592 78.9016 56.8961C78.9016 68.0079 69.8365 77.0729 58.7248 77.0729C50.612 77.0729 43.5926 72.2462 40.3905 65.3198ZM64.319 37.5046V32.3821L59.8864 30.676C59.6959 30.6027 59.5263 30.4841 59.392 30.3304C59.2578 30.1768 59.163 29.9927 59.116 29.7941C58.4856 27.1308 57.4321 24.5859 55.9957 22.2563C55.8888 22.0828 55.8258 21.886 55.812 21.6827C55.7982 21.4795 55.8341 21.2759 55.9166 21.0897L57.842 16.7432L53.0136 11.9148L48.6677 13.847C48.4813 13.9299 48.2775 13.9661 48.0739 13.9524C47.8704 13.9388 47.6732 13.8757 47.4995 13.7687C45.1719 12.3337 42.6297 11.2803 39.9693 10.6483C39.7709 10.6011 39.5869 10.5062 39.4333 10.3719C39.2798 10.2376 39.1613 10.0679 39.0881 9.87743L37.3819 5.43681H30.5519L28.8377 9.87916C28.7644 10.0692 28.6459 10.2385 28.4924 10.3725C28.339 10.5065 28.1553 10.6011 27.9571 10.6483C25.2967 11.2803 22.7546 12.3338 20.4269 13.7687C20.2532 13.8757 20.0561 13.9388 19.8525 13.9524C19.649 13.9661 19.4452 13.9299 19.2588 13.847L14.9129 11.9148L10.0854 16.7422L12.0178 21.0881C12.1007 21.2745 12.1368 21.4783 12.1232 21.6819C12.1095 21.8854 12.0464 22.0826 11.9394 22.2563C10.5017 24.5893 9.45044 27.1278 8.80966 29.7977C8.76219 29.9955 8.66736 30.1788 8.53332 30.3318C8.39929 30.4848 8.23007 30.6029 8.04024 30.676L3.60746 32.3821V39.2117L8.04024 40.9178C8.22994 40.9907 8.39907 41.1087 8.53307 41.2615C8.66707 41.4144 8.76194 41.5975 8.8095 41.7951C9.45013 44.4564 10.501 47.0028 11.9384 49.3272C12.0459 49.501 12.1093 49.6984 12.1231 49.9023C12.137 50.1061 12.1008 50.3103 12.0178 50.497L10.0854 54.8429L14.9138 59.6713L19.2603 57.746C19.4461 57.6637 19.6491 57.6277 19.8518 57.6412C20.0546 57.6547 20.251 57.7172 20.4242 57.8233C22.7571 59.2527 25.2951 60.3127 27.965 60.9454C28.1635 60.9924 28.3476 61.0871 28.5012 61.2213C28.6549 61.3556 28.7734 61.5253 28.8467 61.7157L30.5527 66.1483H37.3824L39.0884 61.7157C39.0958 61.6966 39.1035 61.6777 39.1116 61.6592C38.7323 60.1 38.541 58.5009 38.5419 56.8961C38.5419 55.9253 38.6111 54.97 38.7447 54.0349C37.1848 54.4442 35.5786 54.6509 33.9659 54.6498C23.5792 54.6498 15.106 46.1817 15.106 35.7952C15.106 25.4087 23.5794 16.9352 33.9659 16.9352C44.3524 16.9352 52.8206 25.4086 52.8206 35.7952C52.8206 36.4119 52.7907 37.0217 52.7323 37.6236C54.6722 37.0187 56.6927 36.7117 58.7248 36.7134C60.6644 36.7134 62.5416 36.9894 64.319 37.5046ZM39.3548 51.2254C40.9814 45.6897 44.9253 41.1297 50.0561 38.6754C50.2259 37.7248 50.3112 36.7609 50.3108 35.7952C50.3108 26.791 42.9701 19.445 33.9659 19.445C24.9617 19.445 17.6158 26.7908 17.6158 35.7952C17.6158 44.7993 24.9617 52.14 33.9659 52.14C35.8526 52.14 37.6664 51.8178 39.3548 51.2254ZM31.6503 35.5653L39.3187 27.8169L39.321 27.8145C40.8225 26.3052 43.2733 26.2978 44.7827 27.7995C46.2914 29.3003 46.301 31.7424 44.8001 33.2588L44.7995 33.2594C41.3265 36.7639 37.8798 40.2894 34.391 43.7781C32.8824 45.2868 30.4327 45.2868 28.9242 43.7781L23.1416 37.9904C21.6335 36.4823 21.6313 34.0415 23.1392 32.5256L23.1416 32.5234C24.6501 31.0147 27.0999 31.0147 28.6084 32.5234L31.6503 35.5653ZM30.7676 38.2319L26.8338 34.2981C26.305 33.7694 25.4467 33.7689 24.9174 34.2969C24.3888 34.8296 24.3868 35.6862 24.9162 36.2156L30.6989 42.0034C31.228 42.5326 32.0871 42.5326 32.6164 42.0034C36.1022 38.5176 39.5461 34.9949 43.0162 31.4933C43.5425 30.9614 43.5416 30.105 43.0126 29.5788C42.4843 29.0531 41.6266 29.0561 41.1008 29.5841L32.5469 38.2272C32.4306 38.3447 32.2922 38.438 32.1397 38.5018C31.9872 38.5657 31.8236 38.5988 31.6582 38.5992C31.4929 38.5996 31.3291 38.5674 31.1763 38.5044C31.0235 38.4414 30.8846 38.3488 30.7676 38.2319ZM70.2879 43.5523C67.1853 40.8574 63.1395 39.2232 58.7248 39.2232C48.9894 39.2232 41.0517 47.1607 41.0517 56.8961C41.0517 61.3108 42.6861 65.3566 45.3808 68.4594L55.396 58.4442L54.9033 44.8771L54.9031 44.8741C54.874 43.9504 55.1839 43.1427 55.8289 42.4683L55.8322 42.465C56.4763 41.8014 57.277 41.4605 58.204 41.4605H59.2395C60.1623 41.4605 60.9599 41.7977 61.6173 42.4649L61.6238 42.4716C62.2679 43.1449 62.5778 43.9557 62.54 44.8823L62.3011 51.5391L70.2879 43.5523ZM47.1557 70.2338C50.2594 72.9286 54.3071 74.5631 58.7248 74.5631C68.4544 74.5631 76.3918 66.6257 76.3918 56.8961C76.3918 52.4784 74.7573 48.4307 72.0625 45.3272L62.169 55.2207L62.0255 59.2196L62.0253 59.2213C61.9571 60.988 60.5013 62.4017 58.7248 62.4017C57.7061 62.4017 56.7907 61.9363 56.1835 61.2061L47.1557 70.2338ZM59.6962 54.1439L60.0321 44.7857L60.0322 44.7817C60.0415 44.5634 59.9664 44.3733 59.8137 44.2105C59.6548 44.0536 59.4627 43.9703 59.2395 43.9703H58.204C57.9824 43.9703 57.791 44.052 57.634 44.2122C57.4807 44.3752 57.4051 44.57 57.4117 44.7932L57.8195 56.0208L59.6962 54.1439ZM57.9897 59.3998C58.0498 59.5454 58.1517 59.6698 58.2825 59.7575C58.4134 59.8451 58.5673 59.8918 58.7248 59.8919C59.1521 59.8919 59.5005 59.5501 59.5174 59.1251L59.564 57.8255L57.9897 59.3998ZM58.7248 64.5723C60.8646 64.5723 62.6015 66.3093 62.6015 68.449C62.6015 70.589 60.8646 72.3257 58.7248 72.3257C56.5769 72.3257 54.842 70.5882 54.842 68.449C54.842 66.3101 56.5769 64.5723 58.7248 64.5723ZM58.7248 67.0821C57.9664 67.0821 57.3518 67.6937 57.3518 68.449C57.3518 69.2043 57.9664 69.8159 58.7248 69.8159C59.4793 69.8159 60.0917 69.2036 60.0917 68.449C60.0917 67.6947 59.4793 67.0821 58.7248 67.0821Z" fill="white"/>
</svg>
