<svg width="56" height="56" viewBox="0 0 56 56" fill="none" xmlns="http://www.w3.org/2000/svg">
<path d="M15.9181 22.0213C15.9181 21.8023 15.8311 21.5923 15.6763 21.4374C15.5214 21.2826 15.3114 21.1956 15.0924 21.1956H9.15384C8.93485 21.1956 8.72482 21.2826 8.56997 21.4374C8.41512 21.5923 8.32812 21.8023 8.32812 22.0213V27.9597C8.32812 28.1787 8.41512 28.3887 8.56997 28.5436C8.72482 28.6985 8.93485 28.7854 9.15384 28.7854H15.0924C15.3114 28.7854 15.5214 28.6985 15.6763 28.5436C15.8311 28.3887 15.9181 28.1787 15.9181 27.9597V22.0213ZM14.2667 27.134H9.97956V22.847H14.2667V27.134ZM26.5044 22.0213C26.5044 21.9128 26.483 21.8055 26.4415 21.7053C26.4 21.6051 26.3392 21.5141 26.2625 21.4374C26.1859 21.3607 26.0948 21.2999 25.9947 21.2584C25.8945 21.2169 25.7871 21.1956 25.6787 21.1956H19.7401C19.5211 21.1956 19.3111 21.2826 19.1562 21.4374C19.0014 21.5923 18.9144 21.8023 18.9144 22.0213V27.9597C18.9144 28.1787 19.0014 28.3887 19.1562 28.5436C19.3111 28.6985 19.5211 28.7854 19.7401 28.7854H25.6787C25.7871 28.7854 25.8945 28.7641 25.9947 28.7226C26.0948 28.6811 26.1859 28.6203 26.2625 28.5436C26.3392 28.4669 26.4 28.3759 26.4415 28.2757C26.483 28.1755 26.5044 28.0682 26.5044 27.9597V22.0213ZM24.853 27.134H20.5658V22.847H24.853V27.134ZM37.0905 22.0213C37.0905 21.8023 37.0035 21.5923 36.8487 21.4374C36.6938 21.2826 36.4838 21.1956 36.2648 21.1956H30.3263C30.2178 21.1955 30.1104 21.2169 30.0103 21.2584C29.9101 21.2999 29.819 21.3607 29.7424 21.4374C29.6657 21.514 29.6049 21.6051 29.5634 21.7053C29.5219 21.8055 29.5005 21.9128 29.5005 22.0213V27.9597C29.5005 28.4159 29.8701 28.7854 30.3263 28.7854H36.2648C36.4838 28.7854 36.6938 28.6985 36.8487 28.5436C37.0035 28.3887 37.0905 28.1787 37.0905 27.9597V22.0213ZM35.4391 27.134H31.152V22.847H35.4391V27.134ZM40.9125 28.7854H46.8511C47.3072 28.7854 47.6768 28.4159 47.6768 27.9597V22.0213C47.6768 21.5651 47.3072 21.1956 46.8511 21.1956H40.9125C40.8041 21.1955 40.6967 21.2169 40.5965 21.2584C40.4963 21.2999 40.4053 21.3607 40.3286 21.4374C40.2519 21.514 40.1911 21.6051 40.1496 21.7053C40.1081 21.8055 40.0868 21.9128 40.0868 22.0213V27.9597C40.0868 28.4159 40.4564 28.7854 40.9125 28.7854ZM41.7382 22.847H46.0254V27.134H41.7382V22.847ZM15.9181 32.7684C15.9181 32.5494 15.8311 32.3394 15.6763 32.1845C15.5214 32.0297 15.3114 31.9427 15.0924 31.9427H9.15384C8.93485 31.9427 8.72482 32.0297 8.56997 32.1845C8.41512 32.3394 8.32812 32.5494 8.32812 32.7684V38.7068C8.32812 38.9258 8.41512 39.1359 8.56997 39.2907C8.72482 39.4456 8.93485 39.5326 9.15384 39.5326H15.0924C15.3114 39.5326 15.5214 39.4456 15.6763 39.2907C15.8311 39.1359 15.9181 38.9258 15.9181 38.7068V32.7684ZM14.2667 37.8811H9.97956V33.5941H14.2667V37.8811ZM26.5044 32.7684C26.5044 32.6599 26.483 32.5526 26.4415 32.4524C26.4 32.3522 26.3392 32.2612 26.2625 32.1845C26.1859 32.1078 26.0948 32.047 25.9947 32.0055C25.8945 31.964 25.7871 31.9427 25.6787 31.9427H19.7401C19.5211 31.9427 19.3111 32.0297 19.1562 32.1845C19.0014 32.3394 18.9144 32.5494 18.9144 32.7684V38.7068C18.9144 38.9258 19.0014 39.1359 19.1562 39.2907C19.3111 39.4456 19.5211 39.5326 19.7401 39.5326H25.6787C25.7871 39.5326 25.8945 39.5112 25.9947 39.4697C26.0948 39.4282 26.1859 39.3674 26.2625 39.2907C26.3392 39.214 26.4 39.123 26.4415 39.0228C26.483 38.9226 26.5044 38.8153 26.5044 38.7068V32.7684ZM24.853 37.8811H20.5658V33.5941H24.853V37.8811ZM37.0905 32.7684C37.0905 32.5494 37.0035 32.3394 36.8487 32.1845C36.6938 32.0297 36.4838 31.9427 36.2648 31.9427H30.3263C30.2178 31.9426 30.1104 31.964 30.0103 32.0055C29.9101 32.047 29.819 32.1078 29.7424 32.1845C29.6657 32.2612 29.6049 32.3522 29.5634 32.4524C29.5219 32.5526 29.5005 32.6599 29.5005 32.7684V38.7068C29.5005 39.163 29.8701 39.5326 30.3263 39.5326H36.2648C36.4838 39.5326 36.6938 39.4456 36.8487 39.2907C37.0035 39.1359 37.0905 38.9258 37.0905 38.7068V32.7684ZM35.4391 37.8811H31.152V33.5941H35.4391V37.8811ZM40.0868 38.7068C40.0868 39.163 40.4564 39.5326 40.9125 39.5326H46.8511C47.3072 39.5326 47.6768 39.163 47.6768 38.7068V32.7684C47.6768 32.3123 47.3072 31.9427 46.8511 31.9427H40.9125C40.8041 31.9426 40.6967 31.964 40.5965 32.0055C40.4963 32.047 40.4053 32.1078 40.3286 32.1845C40.2519 32.2612 40.1911 32.3522 40.1496 32.4524C40.1081 32.5526 40.0868 32.6599 40.0868 32.7684V38.7068ZM41.7382 33.5941H46.0254V37.8811H41.7382V33.5941ZM15.0924 42.6898H9.15384C8.93485 42.6898 8.72482 42.7768 8.56997 42.9316C8.41512 43.0865 8.32812 43.2965 8.32812 43.5155V49.454C8.32812 49.6729 8.41512 49.883 8.56997 50.0378C8.72482 50.1927 8.93485 50.2797 9.15384 50.2797H15.0924C15.3114 50.2797 15.5214 50.1927 15.6763 50.0378C15.8311 49.883 15.9181 49.6729 15.9181 49.454V43.5155C15.9181 43.2965 15.8311 43.0865 15.6763 42.9316C15.5214 42.7768 15.3114 42.6898 15.0924 42.6898ZM14.2667 48.6282H9.97956V44.3412H14.2667V48.6282ZM25.6787 42.6898H19.7401C19.5211 42.6898 19.3111 42.7768 19.1562 42.9316C19.0014 43.0865 18.9144 43.2965 18.9144 43.5155V49.454C18.9144 49.6729 19.0014 49.883 19.1562 50.0378C19.3111 50.1927 19.5211 50.2797 19.7401 50.2797H25.6787C25.7871 50.2797 25.8945 50.2583 25.9947 50.2168C26.0948 50.1753 26.1859 50.1145 26.2625 50.0378C26.3392 49.9611 26.4 49.8701 26.4415 49.7699C26.483 49.6698 26.5044 49.5624 26.5044 49.454V43.5155C26.5044 43.4071 26.483 43.2997 26.4415 43.1995C26.4 43.0993 26.3392 43.0083 26.2625 42.9316C26.1859 42.8549 26.0948 42.7941 25.9947 42.7526C25.8945 42.7111 25.7871 42.6898 25.6787 42.6898ZM24.853 48.6282H20.5658V44.3412H24.853V48.6282ZM36.2648 42.6898H30.3263C30.2178 42.6898 30.1104 42.7111 30.0103 42.7526C29.9101 42.7941 29.819 42.8549 29.7424 42.9316C29.6657 43.0083 29.6049 43.0993 29.5634 43.1995C29.5219 43.2997 29.5005 43.4071 29.5005 43.5155V49.454C29.5005 49.9101 29.8701 50.2797 30.3263 50.2797H36.2648C36.4838 50.2797 36.6938 50.1927 36.8487 50.0378C37.0035 49.883 37.0905 49.6729 37.0905 49.454V43.5155C37.0905 43.0594 36.7209 42.6898 36.2648 42.6898ZM35.4391 48.6282H31.152V44.3412H35.4391V48.6282ZM40.0868 49.454C40.0868 49.9101 40.4564 50.2797 40.9125 50.2797H46.8511C47.3072 50.2797 47.6768 49.9101 47.6768 49.454V43.5155C47.6768 43.0594 47.3072 42.6898 46.8511 42.6898H40.9125C40.8041 42.6898 40.6967 42.7111 40.5965 42.7526C40.4963 42.7941 40.4053 42.8549 40.3286 42.9316C40.2519 43.0083 40.1911 43.0993 40.1496 43.1995C40.1081 43.2997 40.0868 43.4071 40.0868 43.5155V49.454ZM41.7382 44.3412H46.0254V48.6282H41.7382V44.3412Z" fill="#21409C"/>
<path d="M51.1889 6.12903H50.1704V2.97005C50.1704 1.33238 48.838 0 47.2003 0C45.5626 0 44.2303 1.33238 44.2303 2.97005V6.12903H40.5695V2.97005C40.5696 1.33238 39.2372 0 37.5995 0C35.9618 0 34.6295 1.33238 34.6295 2.97005V6.12903H30.9688V2.97005C30.9689 1.33238 29.6365 0 27.9988 0C26.3612 0 25.0288 1.33238 25.0288 2.97005V6.12903H21.368V2.97005C21.3681 1.33238 20.0357 0 18.398 0C16.7604 0 15.428 1.33238 15.428 2.97005V6.12903H11.7672V2.97005C11.7673 1.33238 10.435 0 8.79736 0C7.15969 0 5.82731 1.33238 5.82731 2.97005V6.12903H4.80881C2.93487 6.12903 1.41016 7.65375 1.41016 9.52769V52.6013C1.41016 54.4754 2.93476 56 4.80881 56H36.441C36.66 56 36.87 55.913 37.0249 55.7582C37.1797 55.6033 37.2667 55.3933 37.2667 55.1743C37.2667 54.7182 36.8971 54.3486 36.441 54.3486H4.80881C3.84547 54.3486 3.06159 53.5648 3.06159 52.6013V17.2799H13.6024C14.0584 17.2799 14.4281 16.9103 14.4281 16.4541C14.4281 15.998 14.0584 15.6284 13.6024 15.6284H3.06159V9.52769C3.06159 8.56424 3.84536 7.78047 4.80881 7.78047H5.82731V8.99813C5.82731 10.6358 7.15969 11.9682 8.79736 11.9682C10.435 11.9682 11.7674 10.6358 11.7674 8.99813V7.78047H15.4282V8.99813C15.4282 10.6358 16.7606 11.9682 18.3983 11.9682C20.0359 11.9682 21.3683 10.6358 21.3683 8.99813V7.78047H25.0291V8.99813C25.0291 10.6358 26.3615 11.9682 27.9992 11.9682C29.6368 11.9682 30.9692 10.6358 30.9692 8.99813V7.78047H34.6299V8.99813C34.6299 10.6358 35.9623 11.9682 37.6 11.9682C39.2376 11.9682 40.57 10.6358 40.57 8.99813V7.78047H44.2308V8.99813C44.2308 10.6358 45.5632 11.9682 47.2009 11.9682C48.8385 11.9682 50.1709 10.6358 50.1709 8.99813V7.78047H51.1894C52.1529 7.78047 52.9366 8.56424 52.9366 9.52769V15.6284H16.9054C16.4494 15.6284 16.0796 15.998 16.0796 16.4541C16.0796 16.9103 16.4494 17.2799 16.9054 17.2799H52.9362V52.6013C52.9362 53.5648 52.1524 54.3486 51.189 54.3486H39.7439C39.6354 54.3485 39.528 54.3699 39.4279 54.4114C39.3277 54.4529 39.2366 54.5137 39.16 54.5904C39.0833 54.6671 39.0225 54.7581 38.981 54.8583C38.9395 54.9585 38.9181 55.0658 38.9181 55.1743C38.9181 55.3933 39.0051 55.6033 39.16 55.7582C39.3148 55.913 39.5249 56 39.7439 56H51.1889C53.0628 56 54.5875 54.4753 54.5875 52.6013V9.52769C54.5875 7.65375 53.0628 6.12903 51.1889 6.12903ZM10.1159 8.99813C10.1159 9.7252 9.52444 10.3167 8.79725 10.3167C8.07018 10.3167 7.47864 9.7252 7.47864 8.99813V2.97005C7.47875 2.24298 8.07029 1.65144 8.79736 1.65144C9.52444 1.65144 10.116 2.24298 10.116 2.97005L10.1159 8.99813ZM19.7167 8.99813C19.7167 9.7252 19.1251 10.3167 18.398 10.3167C17.671 10.3167 17.0794 9.7252 17.0794 8.99813V2.97005C17.0794 2.24298 17.671 1.65144 18.398 1.65144C19.1251 1.65144 19.7167 2.24298 19.7167 2.97005V8.99813ZM29.3175 8.99813C29.3175 9.7252 28.7259 10.3167 27.9988 10.3167C27.2718 10.3167 26.6802 9.7252 26.6802 8.99813V2.97005C26.6802 2.24298 27.2718 1.65144 27.9988 1.65144C28.7259 1.65144 29.3175 2.24298 29.3175 2.97005V8.99813ZM38.9181 8.99813C38.9181 9.7252 38.3266 10.3167 37.5995 10.3167C36.8726 10.3167 36.2809 9.7252 36.2809 8.99813V2.97005C36.2809 2.24298 36.8725 1.65144 37.5995 1.65144C38.3266 1.65144 38.9181 2.24298 38.9181 2.97005V8.99813ZM48.5189 8.99813C48.5189 9.7252 47.9274 10.3167 47.2003 10.3167C46.4734 10.3167 45.8817 9.7252 45.8817 8.99813V2.97005C45.8817 2.24298 46.4732 1.65144 47.2003 1.65144C47.9274 1.65144 48.5189 2.24298 48.5189 2.97005V8.99813Z" fill="#21409C"/>
</svg>
