<svg width="56" height="56" viewBox="0 0 56 56" fill="none" xmlns="http://www.w3.org/2000/svg">
<path fill-rule="evenodd" clip-rule="evenodd" d="M48.5572 27.1373C48.3284 27.1758 48.1243 27.3037 47.9898 27.4927C47.8552 27.6817 47.8013 27.9165 47.8397 28.1453C48.0287 29.2653 48.125 30.394 48.125 31.5C48.125 37.667 45.3775 43.2338 40.9465 46.9403C40.5772 44.5139 39.5293 42.2415 37.9237 40.3851C36.3182 38.5288 34.2205 37.1643 31.8727 36.449C32.8338 35.8113 33.6222 34.9459 34.1678 33.9298C34.7134 32.9136 34.9993 31.7784 35 30.625C35 26.7645 31.8605 23.625 28 23.625C24.1395 23.625 21 26.7645 21 30.625C21 33.054 22.2442 35.1925 24.1272 36.449C21.7795 37.1643 19.6818 38.5288 18.0763 40.3851C16.4707 42.2415 15.4228 44.5139 15.0535 46.9403C12.7981 45.0504 10.9859 42.6876 9.74541 40.0193C8.50487 37.351 7.86632 34.4426 7.875 31.5C7.875 30.394 7.97125 29.267 8.16025 28.1453C8.18132 28.0311 8.17947 27.914 8.15481 27.8005C8.13015 27.6871 8.08317 27.5797 8.01661 27.4847C7.95005 27.3896 7.86524 27.3087 7.76712 27.2467C7.66899 27.1847 7.55951 27.1429 7.44506 27.1236C7.3306 27.1043 7.21345 27.108 7.10044 27.1345C6.98743 27.1609 6.8808 27.2096 6.78678 27.2776C6.69275 27.3457 6.61321 27.4317 6.55277 27.5308C6.49233 27.6299 6.45221 27.74 6.43475 27.8548C6.23038 29.0591 6.12677 30.2785 6.125 31.5C6.125 42.245 13.8005 51.3153 24.374 53.0653C24.5989 53.0944 24.8262 53.0351 25.0082 52.8998C25.1902 52.7645 25.3126 52.5639 25.3496 52.3402C25.3866 52.1165 25.3353 51.8872 25.2065 51.7006C25.0777 51.514 24.8815 51.3846 24.6592 51.3398C21.8003 50.8675 19.0777 49.7809 16.6793 48.1548C17.0975 42.217 21.98 37.625 28 37.625C34.02 37.625 38.9007 42.217 39.3225 48.1548C36.9235 49.7811 34.2003 50.8678 31.3408 51.3398C31.2242 51.3549 31.1119 51.3933 31.0106 51.4527C30.9092 51.5121 30.8208 51.5913 30.7508 51.6856C30.6807 51.7799 30.6303 51.8874 30.6026 52.0016C30.575 52.1157 30.5706 52.2343 30.5898 52.3503C30.6089 52.4662 30.6512 52.5771 30.7142 52.6763C30.7771 52.7755 30.8594 52.861 30.9561 52.9277C31.0528 52.9945 31.162 53.041 31.2771 53.0647C31.3921 53.0883 31.5108 53.0885 31.626 53.0653C42.1995 51.3153 49.875 42.2468 49.875 31.5C49.875 30.296 49.77 29.0693 49.5652 27.8548C49.5466 27.7413 49.5057 27.6326 49.4448 27.535C49.3839 27.4374 49.3044 27.3528 49.2107 27.2861C49.117 27.2194 49.011 27.1719 48.8988 27.1464C48.7867 27.1208 48.6706 27.1177 48.5572 27.1373ZM22.75 30.625C22.75 27.7305 25.1055 25.375 28 25.375C30.8945 25.375 33.25 27.7305 33.25 30.625C33.25 33.5195 30.8945 35.875 28 35.875C25.1055 35.875 22.75 33.5195 22.75 30.625ZM37.583 9.58828C37.5327 9.43269 37.4398 9.2943 37.3148 9.18882C37.1899 9.08335 37.0378 9.015 36.876 8.99153L31.2848 8.17953L28.784 3.11153C28.49 2.51653 27.51 2.51653 27.216 3.11153L24.7153 8.17953L19.124 8.99153C18.9624 9.015 18.8106 9.08323 18.6857 9.1885C18.5609 9.29377 18.468 9.43188 18.4175 9.5872C18.3671 9.74252 18.3611 9.90886 18.4003 10.0674C18.4395 10.2259 18.5223 10.3703 18.6393 10.4843L22.6853 14.427L21.7297 19.9955C21.7021 20.1566 21.72 20.3221 21.7816 20.4735C21.8431 20.6248 21.9459 20.7559 22.0781 20.8519C22.2103 20.9479 22.3668 21.0049 22.5298 21.0166C22.6927 21.0282 22.8557 20.994 23.0002 20.9178L28 18.2875L32.9998 20.9178C33.144 20.9951 33.3072 21.03 33.4705 21.0182C33.6338 21.0064 33.7903 20.9485 33.922 20.8513C34.0544 20.7552 34.1572 20.6239 34.2188 20.4723C34.2803 20.3208 34.2982 20.155 34.2703 19.9938L33.3148 14.4288L37.3625 10.4825C37.4794 10.3687 37.5621 10.2246 37.6014 10.0662C37.6407 9.9079 37.6349 9.74175 37.5847 9.58653L37.583 9.58828ZM31.7625 13.4925C31.6609 13.5917 31.5848 13.714 31.5409 13.8491C31.497 13.9841 31.4866 14.1278 31.5105 14.2678L32.2455 18.543L28.406 16.5235C28.2801 16.4579 28.1402 16.4236 27.9982 16.4236C27.8563 16.4236 27.7164 16.4579 27.5905 16.5235L23.7527 18.543L24.486 14.2678C24.5099 14.1278 24.4995 13.9841 24.4556 13.8491C24.4117 13.714 24.3356 13.5917 24.234 13.4925L21.1295 10.4668L25.4205 9.84378C25.5606 9.82321 25.6936 9.769 25.8082 9.6858C25.9228 9.6026 26.0156 9.49289 26.0785 9.36603L28 5.47753L29.9198 9.36778C29.9827 9.49464 30.0754 9.60435 30.19 9.68755C30.3046 9.77075 30.4376 9.82496 30.5777 9.84553L34.8687 10.4685L31.7642 13.4943L31.7625 13.4925Z" fill="#21409C"/>
<path fill-rule="evenodd" clip-rule="evenodd" d="M7.06307 23.6653C7.03499 23.8264 7.05265 23.9923 7.11405 24.1439C7.17545 24.2955 7.27813 24.4269 7.41043 24.5231C7.54274 24.6194 7.69937 24.6766 7.86254 24.6882C8.02572 24.6999 8.1889 24.6657 8.33357 24.5893L12.2518 22.5278L16.1718 24.5893C16.3159 24.6663 16.4788 24.7009 16.6417 24.6891C16.8046 24.6774 16.9608 24.6197 17.0923 24.5228C17.2247 24.4267 17.3275 24.2954 17.3891 24.1438C17.4507 23.9923 17.4685 23.8265 17.4406 23.6653L16.6916 19.3025L19.8626 16.2138C19.9801 16.0999 20.0633 15.9554 20.1028 15.7966C20.1423 15.6378 20.1364 15.4711 20.086 15.3155C20.0355 15.1598 19.9424 15.0214 19.8172 14.9161C19.692 14.8107 19.5398 14.7425 19.3778 14.7193L14.9958 14.084L13.0358 10.1115C12.7418 9.51653 11.7618 9.51653 11.4678 10.1115L9.50782 14.084L5.12582 14.7193C4.96385 14.7425 4.81164 14.8107 4.68646 14.9161C4.56129 15.0214 4.46817 15.1598 4.41769 15.3155C4.3672 15.4711 4.36137 15.6378 4.40086 15.7966C4.44035 15.9554 4.52357 16.0999 4.64107 16.2138L7.81207 19.3025L7.06307 23.6653ZM7.13307 16.198L10.2131 15.75C10.3535 15.7297 10.4869 15.6756 10.6018 15.5924C10.7167 15.5092 10.8097 15.3994 10.8728 15.2723L12.2518 12.4775L13.6308 15.2723C13.6938 15.3991 13.7865 15.5089 13.9011 15.5921C14.0157 15.6753 14.1487 15.7295 14.2888 15.75L17.3706 16.198L15.1411 18.3698C15.0394 18.4689 14.9634 18.5913 14.9195 18.7263C14.8756 18.8614 14.8652 19.0051 14.8891 19.145L15.4158 22.2145L12.6596 20.7655C12.5337 20.6999 12.3938 20.6656 12.2518 20.6656C12.1098 20.6656 11.97 20.6999 11.8441 20.7655L9.08782 22.2145L9.61282 19.145C9.63696 19.0052 9.62679 18.8616 9.5832 18.7266C9.53962 18.5915 9.46391 18.4691 9.36257 18.3698L7.13307 16.198ZM50.8778 14.7193L46.4958 14.084L44.5358 10.1115C44.2418 9.51653 43.2618 9.51653 42.9678 10.1115L41.0078 14.084L36.6258 14.7193C36.4639 14.7425 36.3116 14.8107 36.1865 14.9161C36.0613 15.0214 35.9682 15.1598 35.9177 15.3155C35.8672 15.4711 35.8614 15.6378 35.9009 15.7966C35.9404 15.9554 36.0236 16.0999 36.1411 16.2138L39.3121 19.3025L38.5631 23.6653C38.535 23.8264 38.5527 23.9923 38.6141 24.1439C38.6755 24.2955 38.7781 24.4269 38.9104 24.5231C39.0427 24.6194 39.1994 24.6766 39.3625 24.6882C39.5257 24.6999 39.6889 24.6657 39.8336 24.5893L43.7518 22.5278L47.6718 24.5893C47.8159 24.6663 47.9788 24.7009 48.1417 24.6891C48.3046 24.6774 48.4608 24.6197 48.5923 24.5228C48.7247 24.4267 48.8275 24.2954 48.8891 24.1438C48.9507 23.9923 48.9685 23.8265 48.9406 23.6653L48.1916 19.3025L51.3626 16.2138C51.4801 16.0999 51.5633 15.9554 51.6028 15.7966C51.6423 15.6378 51.6364 15.4711 51.586 15.3155C51.5355 15.1598 51.4424 15.0214 51.3172 14.9161C51.192 14.8107 51.0398 14.7425 50.8778 14.7193ZM46.6411 18.3698C46.5394 18.4689 46.4634 18.5913 46.4195 18.7263C46.3756 18.8614 46.3652 19.0051 46.3891 19.145L46.9158 22.2145L44.1596 20.7655C44.0337 20.6999 43.8938 20.6656 43.7518 20.6656C43.6098 20.6656 43.47 20.6999 43.3441 20.7655L40.5878 22.2145L41.1128 19.145C41.137 19.0052 41.1268 18.8616 41.0832 18.7266C41.0396 18.5915 40.9639 18.4691 40.8626 18.3698L38.6331 16.198L41.7131 15.75C41.8535 15.7297 41.9869 15.6756 42.1018 15.5924C42.2167 15.5092 42.3097 15.3994 42.3728 15.2723L43.7518 12.4775L45.1308 15.2723C45.1938 15.3991 45.2865 15.5089 45.4011 15.5921C45.5157 15.6753 45.6487 15.7295 45.7888 15.75L48.8706 16.198L46.6411 18.3698Z" fill="#21409C"/>
<path d="M28 53.375C28.4832 53.375 28.875 52.9832 28.875 52.5C28.875 52.0168 28.4832 51.625 28 51.625C27.5168 51.625 27.125 52.0168 27.125 52.5C27.125 52.9832 27.5168 53.375 28 53.375Z" fill="#21409C"/>
</svg>
