<svg width="81" height="80" viewBox="0 0 81 80" fill="none" xmlns="http://www.w3.org/2000/svg">
<path d="M74.6255 43.0629H55.2114V38.7338C55.363 38.4214 55.4702 38.0894 55.5302 37.7474L56.1644 34.126C56.3024 33.3385 56.0952 32.5676 55.5808 31.9552C55.0664 31.343 54.343 31.006 53.5436 31.006H47.0589V30.0174C47.0589 28.6112 45.9149 27.4671 44.5086 27.4671H36.4931C35.0869 27.4671 33.9428 28.6112 33.9428 30.0174V31.006H27.4581C26.6589 31.006 25.9353 31.343 25.4206 31.9555C24.9066 32.5677 24.6994 33.3385 24.8372 34.126L25.4714 37.7473C25.5314 38.0893 25.6387 38.4214 25.7903 38.7338V43.0629H6.37627C6.08619 43.0629 5.80799 43.1781 5.60288 43.3832C5.39776 43.5884 5.28252 43.8666 5.28252 44.1566C5.28252 53.5638 8.9458 62.4079 15.5977 69.0598C22.2496 75.7116 31.0936 79.3751 40.5008 79.3751C49.908 79.3751 58.7521 75.7118 65.4039 69.0598C72.0558 62.4079 75.7192 53.5638 75.7192 44.1566C75.7192 43.8666 75.604 43.5884 75.3989 43.3832C75.1938 43.1781 74.9156 43.0629 74.6255 43.0629ZM57.327 45.2504C57.2208 51.4301 56.2166 57.3073 54.4303 62.3476C50.4013 60.6124 46.0544 59.6365 41.5947 59.4991V53.4282H51.7661C53.666 53.4282 55.2114 51.8826 55.2114 49.9827V45.2504H57.327ZM27.9777 40.6762C28.41 40.8294 28.8654 40.9075 29.3241 40.9071H36.3542C36.4261 41.7948 37.1702 42.4957 38.0763 42.4957H42.9253C43.8314 42.4957 44.5755 41.7948 44.6474 40.9071H51.6774C52.1491 40.9071 52.6027 40.8255 53.0238 40.6762V49.9827C53.0238 50.6763 52.4595 51.2407 51.766 51.2407H29.2355C28.5419 51.2407 27.9777 50.6765 27.9777 49.9827V40.6762ZM38.5346 40.3082V39.3185H42.4671V40.3082H38.5346ZM39.4071 76.6191C35.4438 76.1171 31.7072 72.8966 28.7871 67.4201C28.2742 66.4582 27.7972 65.4463 27.3571 64.3905C31.1375 62.7505 35.2186 61.8252 39.4069 61.6876V76.619L39.4071 76.6191ZM26.8569 68.4493C28.7288 71.9599 30.9446 74.6451 33.376 76.4119C28.0785 75.2427 23.2538 72.7996 19.2428 69.4191C21.1291 67.8305 23.1875 66.4582 25.3796 65.3282C25.835 66.414 26.3275 67.4566 26.8569 68.4493ZM55.6221 65.3283C57.8141 66.4584 59.8725 67.8306 61.7588 69.4193C57.7478 72.7998 52.9231 75.2429 47.6256 76.4121C50.0572 74.6452 52.2728 71.9601 54.1447 68.4494C54.6741 67.4568 55.1666 66.4141 55.6221 65.3285V65.3283ZM52.2144 67.4202C49.2942 72.8968 45.5578 76.1171 41.5946 76.6193V61.6879C45.7828 61.8255 49.8639 62.7509 53.6444 64.3909C53.2042 65.4466 52.7274 66.4585 52.2144 67.4204V67.4202ZM36.1302 30.0176C36.1302 29.8209 36.2963 29.6548 36.493 29.6548H44.5085C44.705 29.6548 44.8713 29.8209 44.8713 30.0176V31.0062H36.1303V30.0176H36.1302ZM27.0953 33.3627C27.1963 33.2426 27.3013 33.1937 27.4578 33.1937H53.5433C53.6999 33.1937 53.8049 33.2426 53.9055 33.3624C54.0064 33.4826 54.0364 33.5943 54.0094 33.7487L53.3752 37.3702C53.2405 38.1396 52.5105 38.7198 51.6772 38.7198H44.6472C44.5753 37.8321 43.8313 37.1312 42.9252 37.1312H38.0761C37.17 37.1312 36.426 37.8321 36.3541 38.7198H29.3239C28.4907 38.7198 27.7606 38.1396 27.626 37.3701L26.9917 33.7488C26.9647 33.5944 26.9947 33.4826 27.0953 33.3627ZM29.2353 53.4282H39.4069V59.4991C34.9471 59.6365 30.6002 60.6124 26.5711 62.3476C24.7849 57.3073 23.7806 51.4301 23.6744 45.2504H25.7899V49.9827C25.7899 51.8826 27.3355 53.4282 29.2352 53.4282H29.2353ZM7.48768 45.2504H21.4866C21.595 51.7555 22.6694 57.9577 24.5825 63.279C22.0786 64.549 19.7356 66.1141 17.6036 67.9408C11.605 62.164 7.77846 54.1469 7.48768 45.2504ZM63.3977 67.9408C61.2657 66.114 58.9227 64.549 56.4188 63.279C58.3321 57.9577 59.4063 51.7555 59.5147 45.2504H73.5138C73.2231 54.1469 69.3963 62.164 63.3977 67.9408ZM28.3933 25.4852H52.6083C52.7602 25.4853 52.9105 25.4536 53.0495 25.3924C53.1885 25.3311 53.3132 25.2416 53.4157 25.1294C53.5182 25.0173 53.5962 24.885 53.6448 24.7411C53.6933 24.5971 53.7113 24.4447 53.6977 24.2934C53.4021 21.0119 51.8983 17.9729 49.4636 15.7355C48.0994 14.4804 46.4866 13.5262 44.7297 12.9348C46.3439 11.6738 47.3847 9.71116 47.3847 7.50882C47.3847 3.71304 44.2966 0.624756 40.5008 0.624756C36.705 0.624756 33.6169 3.71304 33.6169 7.50882C33.6169 9.71116 34.6577 11.6738 36.2719 12.9348C34.515 13.5262 32.9022 14.4804 31.538 15.7355C29.1031 17.9727 27.5996 21.0121 27.3039 24.2934C27.2764 24.5993 27.3788 24.9026 27.586 25.1294C27.7931 25.3563 28.0861 25.4852 28.3933 25.4852ZM40.5008 2.81241C43.0905 2.81241 45.1972 4.91913 45.1972 7.50897C45.1972 10.0988 43.0905 12.2055 40.5008 12.2055C37.9111 12.2055 35.8044 10.0988 35.8044 7.50897C35.8044 4.91913 37.9111 2.81241 40.5008 2.81241ZM40.5008 14.4319C45.8589 14.4319 50.3288 18.1668 51.3477 23.2977H29.6539C30.6728 18.1668 35.1427 14.4319 40.5008 14.4319ZM79.1027 36.8432C78.8561 34.1069 77.6024 31.5727 75.5721 29.7071C74.5208 28.7411 73.2921 27.9883 71.9539 27.4907C73.1667 26.4205 73.9338 24.8565 73.9338 23.1159C73.9338 19.898 71.316 17.2802 68.0983 17.2802C64.8806 17.2802 62.2628 19.898 62.2628 23.1159C62.2628 24.8565 63.0299 26.4205 64.2427 27.4907C62.9045 27.9883 61.6756 28.741 60.6244 29.7071C58.5941 31.5726 57.3403 34.1069 57.0938 36.8432C57.0663 37.1491 57.1686 37.4524 57.3758 37.6793C57.583 37.9062 57.876 38.0351 58.1831 38.0351H78.0133C78.1652 38.0351 78.3155 38.0035 78.4545 37.9422C78.5935 37.881 78.7182 37.7914 78.8207 37.6793C78.9232 37.5671 79.0012 37.4349 79.0498 37.2909C79.0983 37.147 79.1163 36.9945 79.1027 36.8432ZM68.0983 19.4679C70.1099 19.4679 71.7463 21.1044 71.7463 23.116C71.7463 25.1276 70.1099 26.764 68.0983 26.764C66.0867 26.764 64.4503 25.1274 64.4503 23.116C64.4503 21.1046 66.0869 19.4679 68.0983 19.4679ZM59.4602 35.8476C60.3647 31.8605 63.8894 28.9834 68.0983 28.9834C72.3072 28.9834 75.8317 31.8605 76.7363 35.8476H59.4602ZM23.6256 37.6793C23.7281 37.5671 23.8061 37.4349 23.8547 37.2909C23.9032 37.147 23.9213 36.9945 23.9077 36.8432C23.6611 34.1068 22.4072 31.5727 20.3771 29.7071C19.3258 28.7411 18.097 27.9884 16.7589 27.4907C17.9717 26.4205 18.7388 24.8565 18.7388 23.1159C18.7388 19.898 16.1211 17.2802 12.9033 17.2802C9.68549 17.2802 7.06784 19.898 7.06784 23.1159C7.06784 24.8565 7.83487 26.4205 9.04768 27.4907C7.7095 27.9883 6.48071 28.741 5.42955 29.7071C3.39924 31.5726 2.14549 34.1069 1.89893 36.8432C1.87143 37.1491 1.97377 37.4524 2.18096 37.6793C2.38815 37.9062 2.68112 38.0351 2.9883 38.0351H22.8185C22.9704 38.0351 23.1206 38.0035 23.2596 37.9422C23.3986 37.881 23.5233 37.7914 23.6258 37.6793H23.6256ZM12.9033 19.4679C14.9149 19.4679 16.5513 21.1044 16.5513 23.116C16.5513 25.1276 14.9149 26.764 12.9033 26.764C10.8917 26.764 9.25534 25.1274 9.25534 23.116C9.25534 21.1046 10.8917 19.4679 12.9033 19.4679ZM4.26534 35.8476C5.16987 31.8605 8.69455 28.9834 12.9033 28.9834C17.1121 28.9834 20.6367 31.8605 21.5414 35.8476H4.26534Z" fill="white"/>
</svg>
