<svg width="56" height="56" viewBox="0 0 56 56" fill="none" xmlns="http://www.w3.org/2000/svg">
<path d="M54.7004 30.4564L52.7984 29.8407C52.7535 29.8264 52.7349 29.8111 52.7141 29.7575C52.6113 29.4819 52.4965 29.2063 52.3729 28.9339C52.3532 28.8902 52.3532 28.8694 52.3773 28.8224L53.2851 27.0385C53.6548 26.3155 53.518 25.4416 52.9416 24.8597L50.8799 22.798C50.3013 22.2249 49.4263 22.0882 48.7045 22.4579L46.9249 23.3657C46.8735 23.3919 46.8516 23.3897 46.8046 23.3679C46.5355 23.2454 46.2599 23.1305 45.9854 23.0277C45.9307 23.0069 45.9154 22.9872 45.9023 22.9479L45.2854 21.0414C45.0349 20.266 44.3174 19.7454 43.5015 19.7454H40.5899C39.7609 19.7454 39.0609 20.2539 38.8071 21.0404L38.188 22.9435C38.1738 22.9872 38.1585 23.008 38.1115 23.0266C37.837 23.1283 37.5591 23.2421 37.2813 23.3689C37.2387 23.3886 37.2168 23.3908 37.172 23.3679L35.387 22.4568C34.664 22.0871 33.7901 22.2238 33.2082 22.8002L31.1465 24.8619C30.5734 25.4405 30.4366 26.3155 30.8063 27.0374L31.7163 28.8202C31.7393 28.865 31.7393 28.888 31.7163 28.9372C31.5938 29.2063 31.479 29.4819 31.374 29.7641C31.3598 29.8035 31.3445 29.8232 31.2974 29.8396L29.3888 30.4575C29.0213 30.5779 28.7118 30.8032 28.4865 31.093C28.4624 31.07 28.4384 31.0471 28.4143 31.0219L26.7255 29.2599V28.1093C27.2866 27.7461 27.816 27.325 28.3049 26.8471C30.0188 25.1736 31.0656 22.996 31.2985 20.6499C32.8866 20.2485 34.0395 18.8233 34.0395 17.1116C34.0395 16.206 33.707 15.378 33.159 14.7404V11.0139C33.159 5.51457 28.6845 1.04004 23.1851 1.04004H17.4768C15.3068 1.04004 13.5054 2.64348 13.1959 4.72707C11.0587 4.98738 9.39727 6.81395 9.39727 9.02004V14.7393C8.8493 15.378 8.5168 16.2071 8.5168 17.1127C8.5168 18.8244 9.66961 20.2496 11.2577 20.651C11.4907 22.996 12.5374 25.1747 14.2513 26.8482C14.7402 27.3261 15.2696 27.7472 15.8307 28.1104V29.2599L14.1409 31.023C13.7952 31.385 13.4245 31.6027 12.9388 31.7296L5.75508 33.6207C4.11664 34.0516 2.94086 35.3018 2.61164 36.9664L0.0828941 49.7961C-0.168668 51.0769 0.158363 52.385 0.981957 53.3858C1.80446 54.3855 3.02508 54.9597 4.32993 54.9597H38.2296C39.5345 54.9597 40.7551 54.3866 41.5776 53.3858C42.4001 52.385 42.7282 51.0769 42.4766 49.795L42.0534 47.648H43.5037C44.3174 47.648 45.0349 47.1274 45.2876 46.3519L45.9034 44.4499C45.9209 44.3974 45.9405 44.3821 45.9865 44.3657C46.2621 44.2629 46.5377 44.148 46.8101 44.0244C46.8549 44.0036 46.8779 44.0036 46.9195 44.0255L48.7045 44.9366C49.4274 45.3063 50.3013 45.1696 50.8832 44.5932L52.9449 42.5314C53.518 41.9529 53.6548 41.0779 53.2851 40.356L52.3773 38.5764C52.351 38.525 52.3532 38.5032 52.3751 38.4561C52.5009 38.1816 52.6146 37.9038 52.7141 37.6369C52.7349 37.5822 52.7568 37.5669 52.7962 37.5538L54.7015 36.9336C55.489 36.6788 55.9976 35.9788 55.9976 35.1497V32.2382C55.9976 31.4233 55.4759 30.7069 54.7004 30.4564ZM13.7241 6.44426H14.0249C14.5073 6.44426 14.8988 6.0527 14.8988 5.57035V5.36582C14.8988 3.94504 16.056 2.78895 17.4779 2.78895H23.1862C27.722 2.78895 31.4112 6.47926 31.4112 11.0139V13.6105C31.0721 13.511 30.7134 13.4596 30.3415 13.4639V13.0418C30.3415 12.03 29.9631 11.1211 29.2477 10.4146C28.527 9.70145 27.6159 9.32957 26.6096 9.34379C22.6601 9.3777 19.357 9.02223 16.5121 8.25441C16.4596 8.2402 16.406 8.23145 16.3513 8.22707C15.4545 8.15707 14.212 8.47316 13.3807 10.3686C12.9629 11.3202 12.7266 12.4774 12.5429 13.4836C12.0735 13.4344 11.599 13.4775 11.1462 13.6105V9.02113C11.1473 7.60035 12.3034 6.44426 13.7241 6.44426ZM12.9607 19.8657C12.9487 19.4019 12.5757 19.0279 12.112 19.0136C11.0773 18.9841 10.2668 18.1485 10.2668 17.1127C10.2668 16.0649 11.1188 15.2118 12.1677 15.2118C12.4193 15.2118 12.6687 15.2621 12.9082 15.3594C13.1521 15.46 13.4277 15.4447 13.6596 15.3189C13.8915 15.1932 14.0534 14.9689 14.1004 14.7097C14.1299 14.5511 14.1595 14.386 14.189 14.2154C14.5718 12.0629 15.0388 9.96613 16.1479 9.96613H16.1501C19.1295 10.7591 22.5584 11.1277 26.6293 11.0905C27.1718 11.0839 27.6279 11.2688 28.0195 11.656C28.4056 12.0377 28.5937 12.4905 28.5937 13.0407V14.4943C28.5937 14.7786 28.7315 15.0444 28.9634 15.2085C29.1952 15.3725 29.4927 15.413 29.7596 15.3179C29.9609 15.2468 30.1741 15.2096 30.3907 15.2096C31.4385 15.2096 32.2916 16.0616 32.2916 17.1105C32.2916 18.1463 31.4812 18.9808 30.4465 19.0114C29.9827 19.0246 29.6098 19.3986 29.5977 19.8635C29.4829 24.3325 25.751 27.9682 21.2787 27.9682C16.8063 27.9682 13.0756 24.3347 12.9607 19.8657ZM21.2798 29.7193C22.5638 29.7193 23.814 29.4754 24.9788 29.0127V30.0168C24.9788 32.0566 23.3196 33.7158 21.2798 33.7158C19.2399 33.7158 17.5807 32.0566 17.5807 30.0168V29.0127C18.7579 29.4803 20.0131 29.72 21.2798 29.7193ZM10.6212 53.2108L8.83836 38.3489C8.82961 38.28 8.84492 38.2494 8.87993 38.2111C8.92258 38.163 8.95321 38.1499 9.01555 38.1499H33.544C33.6063 38.1499 33.637 38.1641 33.6796 38.2111C33.7146 38.2494 33.7288 38.28 33.7212 38.3489L31.9384 53.2108H10.6212ZM40.2268 52.2746C39.7379 52.8696 39.0095 53.2108 38.2296 53.2108H33.6993L35.458 38.5568C35.5248 37.9989 35.3563 37.4619 34.9845 37.0452C34.6071 36.623 34.1095 36.3999 33.5451 36.3999H9.01446C8.45008 36.3999 7.95243 36.623 7.57508 37.0452C7.20321 37.4619 7.03477 37.9989 7.10149 38.5568L8.85914 53.2108H4.32993C3.55008 53.2108 2.82164 52.8696 2.33274 52.2746C1.84274 51.6796 1.64914 50.8986 1.79899 50.133L4.32883 37.3044C4.52789 36.2982 5.21039 35.5708 6.20243 35.3105L13.384 33.4194C14.1781 33.2116 14.8409 32.8222 15.4063 32.2294L16.0549 31.5524C16.7199 33.8099 18.8101 35.4625 21.2798 35.4625C23.7495 35.4625 25.8396 33.8099 26.5046 31.5524L27.1521 32.2272C27.7198 32.8211 28.3815 33.2105 29.1745 33.4172L36.3582 35.3083C37.3491 35.5686 38.0316 36.296 38.2307 37.3011L38.3335 37.8228L38.3401 37.8578L40.1306 46.9382L40.1338 46.9546L40.7605 50.1308C40.9104 50.8986 40.7157 51.6796 40.2268 52.2746ZM38.0152 33.6972C38.0152 31.4736 39.8232 29.6635 42.0457 29.6635C44.2693 29.6635 46.0795 31.4725 46.0795 33.6972C46.0795 35.9197 44.2704 37.7277 42.0457 37.7277C41.3085 37.7277 40.6031 37.533 39.984 37.1622L39.9457 36.9654C39.7073 35.76 39.0226 34.7735 38.0404 34.1566C38.0238 34.004 38.0154 33.8507 38.0152 33.6972ZM54.2487 35.1508C54.2487 35.2154 54.2224 35.2514 54.1612 35.2711L52.2515 35.8924C51.7013 36.0739 51.2846 36.4732 51.0757 37.0244C50.9882 37.2607 50.8931 37.4914 50.7859 37.7255C50.542 38.2538 50.5507 38.8335 50.8165 39.3639L51.7287 41.15C51.7462 41.185 51.7637 41.2386 51.7057 41.2966L49.6506 43.3518C49.5893 43.4119 49.5357 43.3955 49.5007 43.3769L47.7113 42.4636C47.1885 42.1989 46.6077 42.1891 46.0795 42.433C45.8501 42.5381 45.617 42.6347 45.3806 42.7228C44.8304 42.923 44.4268 43.3408 44.2409 43.9041L43.624 45.8094C43.6043 45.8685 43.5649 45.8969 43.5037 45.8969H41.7077L40.3941 39.2338C40.9246 39.3913 41.4791 39.4733 42.0468 39.4733C45.2351 39.4733 47.8295 36.8811 47.8295 33.6939C47.8295 30.5057 45.2351 27.9113 42.0468 27.9113C38.9329 27.9113 36.3877 30.3886 36.2729 33.4774L30.4563 31.9461L31.841 31.4977C32.3999 31.3139 32.8177 30.9093 33.0157 30.3657C33.1043 30.1294 33.2027 29.8921 33.3066 29.6635C33.5527 29.1319 33.5418 28.5511 33.276 28.025L32.3638 26.2389C32.3463 26.2039 32.3288 26.1504 32.3868 26.0924L34.442 24.0372C34.5032 23.9771 34.5568 23.9935 34.5918 24.0121L36.3845 24.9264C36.9084 25.1879 37.488 25.1977 38.0131 24.9549C38.2467 24.8482 38.4842 24.7501 38.7251 24.6607C39.2687 24.4539 39.669 24.0383 39.8516 23.4838L40.4718 21.5763C40.4915 21.5161 40.5276 21.4899 40.5921 21.4899H43.5037C43.566 21.4899 43.6043 21.5172 43.624 21.5763L44.243 23.4882C44.4246 24.0405 44.8271 24.4572 45.3751 24.6629C45.6113 24.7514 45.8487 24.8499 46.0773 24.9538C46.6056 25.1988 47.1852 25.1889 47.7157 24.9232L49.5018 24.011C49.5368 23.9935 49.5904 23.976 49.6484 24.0339L51.7035 26.0891C51.7637 26.1504 51.7473 26.2039 51.7287 26.24L50.823 28.0207C50.5529 28.5446 50.5398 29.1275 50.7859 29.6591C50.8924 29.8909 50.9901 30.1266 51.079 30.3657C51.2846 30.9125 51.7013 31.315 52.258 31.4977L54.1645 32.1146C54.2235 32.1332 54.2509 32.1714 54.2509 32.2349V35.1508H54.2487ZM21.2798 42.8618C19.7277 42.8618 18.4645 44.1261 18.4645 45.6804C18.4645 47.2324 19.7277 48.4957 21.2798 48.4957C22.8318 48.4957 24.0951 47.2324 24.0951 45.6804C24.094 44.1261 22.8318 42.8618 21.2798 42.8618ZM21.2798 46.7468C20.6913 46.7468 20.2134 46.2688 20.2134 45.6804C20.2134 45.0908 20.6913 44.6107 21.2798 44.6107C21.8682 44.6107 22.3462 45.0908 22.3462 45.6804C22.3462 46.2677 21.8671 46.7468 21.2798 46.7468Z" fill="#21409C"/>
</svg>
