<svg width="80" height="80" viewBox="0 0 80 80" fill="none" xmlns="http://www.w3.org/2000/svg">
<path d="M3.28125 32.525C2.76406 32.525 2.34375 32.1047 2.34375 31.5875C2.34375 31.0704 2.76406 30.65 3.28125 30.65H17.4422C17.9594 30.65 18.3797 31.0704 18.3797 31.5875C18.3797 32.1047 17.9594 32.525 17.4422 32.525H3.28125ZM14.4703 44.7876C14.4703 44.2704 14.05 43.8501 13.5328 43.8501H3.59688C3.07969 43.8501 2.65938 44.2704 2.65938 44.7876C2.65938 45.3047 3.07969 45.7251 3.59688 45.7251H13.5328C14.0516 45.7251 14.4703 45.3063 14.4703 44.7876ZM18.1469 59.8047C18.1469 59.2875 17.7266 58.8672 17.2094 58.8672H9.525C9.00781 58.8672 8.5875 59.2875 8.5875 59.8047C8.5875 60.3219 9.00781 60.7422 9.525 60.7422H17.2094C17.7266 60.7422 18.1469 60.3219 18.1469 59.8047ZM77.6562 46.3438C77.6562 62.225 64.7359 75.1438 48.8562 75.1438C41.7172 75.1438 35.1781 72.5313 30.1406 68.2157C30.0578 68.2391 29.9719 68.2532 29.8828 68.2532H18.5828C18.0656 68.2532 17.6453 67.8329 17.6453 67.3157C17.6453 66.7985 18.0656 66.3782 18.5828 66.3782H28.1875C24.6891 62.7704 22.1266 58.2532 20.8875 53.2204H9.17031C8.65312 53.2204 8.23281 52.8 8.23281 52.2829C8.23281 51.7657 8.65312 51.3454 9.17031 51.3454H20.4906C20.2047 49.7204 20.0547 48.05 20.0547 46.3438C20.0547 43.5391 20.4594 40.8266 21.2109 38.261H14.4859C13.9688 38.261 13.5484 37.8407 13.5484 37.3235C13.5484 36.8063 13.9688 36.386 14.4859 36.386H21.8297C22.7388 33.9292 23.9795 31.6083 25.5172 29.4875L23.0312 27.0016L22.5875 27.4454C22.0641 27.9704 21.3641 28.2579 20.6188 28.2579C19.8734 28.2579 19.175 27.9688 18.65 27.4454L15.8313 24.6266C14.7453 23.5407 14.7453 21.775 15.8313 20.6907L23.1672 13.3547C23.6922 12.8297 24.3906 12.5422 25.1359 12.5422C25.8812 12.5422 26.5797 12.8313 27.1047 13.3547L29.9219 16.1719C30.4469 16.6969 30.7344 17.3954 30.7344 18.1407C30.7344 18.886 30.4453 19.5844 29.9219 20.1094L29.5125 20.5188L31.9984 23.0047C35.5641 20.4219 39.7422 18.636 44.2703 17.9079V14.4079H43.6422C42.1078 14.4079 40.8578 13.1594 40.8578 11.6235V7.63911C40.8578 6.10474 42.1063 4.85474 43.6422 4.85474H54.0172C55.5516 4.85474 56.8016 6.10317 56.8016 7.63911V11.625C56.8016 13.1594 55.5531 14.4094 54.0172 14.4094H53.4375V17.911C67.1484 20.1125 77.6562 32.0235 77.6562 46.3438ZM54.0187 12.5329C54.5203 12.5329 54.9281 12.125 54.9281 11.6235V7.63911C54.9281 7.13755 54.5203 6.72974 54.0187 6.72974H43.6438C43.1422 6.72974 42.7344 7.13755 42.7344 7.63911V11.625C42.7344 12.1266 43.1422 12.5344 43.6438 12.5344H54.0187V12.5329ZM46.1469 14.4079V17.6719C47.0391 17.5875 47.9422 17.5438 48.8547 17.5438C49.7672 17.5438 50.6719 17.5891 51.5625 17.6719V14.4079H46.1469ZM28.5984 18.7844C28.7687 18.6141 28.8625 18.386 28.8625 18.1422C28.8625 17.8985 28.7687 17.6704 28.5984 17.5L25.7812 14.6813C25.6109 14.511 25.3828 14.4172 25.1391 14.4172C24.8953 14.4172 24.6672 14.511 24.4969 14.6813L17.1609 22.0172C16.9906 22.1879 16.8949 22.4191 16.8949 22.6602C16.8949 22.9013 16.9906 23.1326 17.1609 23.3032L19.9781 26.1204C20.1484 26.2907 20.3766 26.3844 20.6203 26.3844C20.8641 26.3844 21.0922 26.2907 21.2625 26.1204L28.5984 18.7844ZM26.675 27.9938C27.8298 26.6 29.1124 25.3173 30.5063 24.1625L28.1891 21.8454L24.3578 25.6766L26.675 27.9938ZM75.7812 46.3438C75.7812 31.4969 63.7031 19.4188 48.8562 19.4188C34.0094 19.4188 21.9297 31.4969 21.9297 46.3438C21.9297 61.1907 34.0078 73.2688 48.8562 73.2688C63.7031 73.2704 75.7812 61.1907 75.7812 46.3438ZM71.1 46.3438C71.1 58.6094 61.1219 68.5875 48.8562 68.5875C36.5906 68.5875 26.6109 58.6094 26.6109 46.3438C26.6109 34.0782 36.5891 24.1 48.8547 24.1C61.1203 24.1 71.1 34.0782 71.1 46.3438ZM69.2016 47.2813H65.2844C64.7672 47.2813 64.3469 46.861 64.3469 46.3438C64.3469 45.8266 64.7672 45.4063 65.2844 45.4063H69.2016C68.9781 40.4954 67.0078 36.0329 63.8984 32.6266L61.1344 35.3907C61.0474 35.4778 60.9442 35.5469 60.8305 35.594C60.7168 35.6412 60.5949 35.6654 60.4719 35.6654C60.3488 35.6654 60.2269 35.6412 60.1133 35.594C59.9996 35.5469 59.8963 35.4778 59.8094 35.3907C59.4437 35.025 59.4437 34.4313 59.8094 34.0641L62.5734 31.3C59.1672 28.1907 54.7031 26.2204 49.7937 25.9969V29.9141C49.7937 30.4313 49.3734 30.8516 48.8562 30.8516C48.3391 30.8516 47.9187 30.4313 47.9187 29.9141V25.9969C43.0078 26.2204 38.5453 28.1907 35.1391 31.3L37.9031 34.0641C38.2687 34.4297 38.2687 35.0235 37.9031 35.3907C37.8162 35.4778 37.7129 35.5469 37.5992 35.594C37.4856 35.6412 37.3637 35.6654 37.2406 35.6654C37.1176 35.6654 36.9957 35.6412 36.882 35.594C36.7683 35.5469 36.6651 35.4778 36.5781 35.3907L33.8141 32.6266C30.7047 36.0329 28.7344 40.4969 28.5109 45.4063H32.4281C32.9453 45.4063 33.3656 45.8266 33.3656 46.3438C33.3656 46.861 32.9453 47.2813 32.4281 47.2813H28.5109C28.7344 52.1922 30.7047 56.6547 33.8141 60.061L36.5781 57.2969C36.9438 56.9313 37.5375 56.9313 37.9031 57.2969C38.2687 57.6625 38.2687 58.2563 37.9031 58.6235L35.1391 61.3876C38.5453 64.4969 43.0094 66.4672 47.9187 66.6907V62.7735C47.9187 62.2563 48.3391 61.836 48.8562 61.836C49.3734 61.836 49.7937 62.2563 49.7937 62.7735V66.6907C54.7047 66.4672 59.1672 64.4969 62.5734 61.3876L59.8094 58.625C59.4437 58.2594 59.4437 57.6657 59.8094 57.2985C59.9852 57.1229 60.2234 57.0243 60.4719 57.0243C60.7203 57.0243 60.9586 57.1229 61.1344 57.2985L63.8984 60.0625C67.0078 56.6547 68.9781 52.1922 69.2016 47.2813ZM55.8484 42.5266C56.0016 42.8594 55.9469 43.25 55.7094 43.5282L43.5484 57.7594C43.4039 57.9289 43.2036 58.0412 42.9836 58.0761C42.7636 58.1111 42.5384 58.0664 42.3484 57.9501C42.1585 57.8339 42.016 57.654 41.9465 57.4425C41.8769 57.2309 41.8848 57.0016 41.9688 56.7954L45.6812 47.725H42.7141C42.3891 47.725 42.0875 47.5563 41.9172 47.2813C41.8335 47.1455 41.7857 46.9906 41.7784 46.8313C41.771 46.6719 41.8042 46.5133 41.875 46.3704L47.4828 35.1235C47.5607 34.9676 47.6804 34.8365 47.8286 34.7449C47.9768 34.6532 48.1476 34.6047 48.3219 34.6047H48.3313L54.5047 34.6688C54.6715 34.6706 54.8348 34.7168 54.9779 34.8027C55.1209 34.8887 55.2384 35.0112 55.3183 35.1576C55.3982 35.3041 55.4376 35.4692 55.4325 35.6359C55.4273 35.8027 55.3778 35.965 55.2891 36.1063L51.5875 41.9844H54.9984C55.1773 41.9831 55.3528 42.0336 55.5036 42.1298C55.6544 42.226 55.7742 42.3638 55.8484 42.5266ZM52.9625 43.8563H49.8875C49.7199 43.8561 49.5554 43.8111 49.4112 43.7258C49.2669 43.6405 49.1482 43.5181 49.0673 43.3713C48.9864 43.2245 48.9463 43.0587 48.9513 42.8912C48.9562 42.7237 49.0059 42.5606 49.0953 42.4188L52.8094 36.5235L48.9 36.4829L44.2297 45.8485H47.0781C47.3906 45.8485 47.6828 46.0047 47.8563 46.2641C48.0297 46.5235 48.0641 46.8532 47.9453 47.1422L45.9141 52.1063L52.9625 43.8563Z" fill="white"/>
</svg>
