<svg width="40" height="40" viewBox="0 0 40 40" fill="none" xmlns="http://www.w3.org/2000/svg">
<g clip-path="url(#clip0_3884_617)">
<path d="M17.8744 40H17.5619L16.1244 39.75C15.1869 39.625 14.4994 38.8125 14.4994 37.875V33.9375C14.4994 33.8125 14.4369 33.6875 14.3744 33.5625C14.1869 33.3125 14.2494 32.875 14.4994 32.6875C14.7494 32.5 15.1869 32.5625 15.3744 32.8125C15.6244 33.125 15.7494 33.5 15.7494 33.9375V37.875C15.7494 38.1875 15.9994 38.5 16.3119 38.5625L17.7494 38.8125C18.0619 38.875 18.4369 38.6875 18.4994 38.375L19.7494 34.625C19.9994 33.875 20.6244 33.375 21.3744 33.3125C21.8744 33.25 22.3119 33.1875 22.7494 33.0625C23.4994 32.875 24.2494 33.1875 24.6869 33.8125L26.9994 37C27.1869 37.25 27.5619 37.375 27.8744 37.1875L29.1869 36.5C29.4994 36.375 29.6244 36 29.5619 35.6875L28.3744 31.9375C28.1244 31.1875 28.3744 30.4375 28.8744 29.9375C29.0619 29.8125 29.2494 29.625 29.3744 29.4375C29.4994 29.3125 29.6869 29.125 29.8119 28.9375C30.3119 28.375 31.1244 28.125 31.8119 28.375L35.5619 29.5625C35.8744 29.6875 36.2494 29.5 36.3744 29.1875L37.0619 27.875C37.1869 27.5625 37.1244 27.1875 36.8744 27L33.7494 24.6875C33.1244 24.25 32.8119 23.5 32.9994 22.75C33.1244 22.25 33.1869 21.8125 33.2494 21.375C33.3119 20.625 33.8119 20 34.5619 19.75L38.3119 18.5C38.6244 18.375 38.8119 18.0625 38.7494 17.75L38.4994 16.3125C38.4369 16 38.1244 15.75 37.8119 15.75H33.8744C33.1244 15.75 32.4369 15.3125 32.1244 14.625C31.9369 14.1875 31.7494 13.8125 31.4994 13.375C31.1244 12.75 31.1869 11.9375 31.6244 11.3125L33.9369 8.125C34.1244 7.875 34.1244 7.5 33.8744 7.25L32.8119 6.1875C32.5619 5.9375 32.1869 5.9375 31.9369 6.125L28.7494 8.375C28.1244 8.8125 27.3119 8.875 26.6869 8.5C26.2494 8.25 25.8744 8.0625 25.4369 7.875C24.7494 7.5625 24.3119 6.875 24.3119 6.125L24.2494 2.1875C24.2494 1.875 23.9994 1.5625 23.6869 1.5L22.2494 1.25C21.8744 1.1875 21.5619 1.375 21.4994 1.6875L20.2494 5.4375C19.9994 6.1875 19.3744 6.6875 18.6244 6.75C18.1869 6.8125 17.7494 6.875 17.2494 7C16.4994 7.125 15.7494 6.875 15.3119 6.25L12.9994 3.0625C12.8119 2.8125 12.4369 2.6875 12.1244 2.875L10.8119 3.5625C10.4994 3.6875 10.3744 4.0625 10.4994 4.375L11.6869 8.125C11.9369 8.875 11.6869 9.625 11.1244 10.125C10.9369 10.25 10.8119 10.4375 10.6244 10.5625L10.1244 11.0625C9.62441 11.625 8.87441 11.8125 8.12441 11.5625L4.37441 10.375C4.06191 10.25 3.68691 10.4375 3.56191 10.75L2.87441 12.0625C2.74941 12.375 2.81191 12.75 3.06191 12.9375L6.24941 15.25C6.87441 15.6875 7.18691 16.4375 6.99941 17.1875C6.87441 17.625 6.81191 18.0625 6.74941 18.5625C6.68691 19.375 6.18691 20 5.43691 20.25L1.68691 21.5C1.37441 21.5625 1.18691 21.875 1.24941 22.25L1.49941 23.6875C1.56191 24 1.87441 24.25 2.18691 24.25L6.12441 24.3125C6.49941 24.3125 6.87441 24.4375 7.24941 24.625C7.56191 24.8125 7.62441 25.1875 7.43691 25.5C7.24941 25.8125 6.87441 25.875 6.56191 25.6875C6.43691 25.625 6.31191 25.5625 6.18691 25.5625L2.24941 25.5C1.31191 25.5 0.499411 24.8125 0.374411 23.875L-0.000589399 22.4375C-0.125589 21.5 0.374411 20.5625 1.31191 20.3125L5.06191 19.0625C5.31191 19 5.49941 18.75 5.49941 18.5C5.56191 17.9375 5.62441 17.4375 5.74941 17C5.81191 16.75 5.68691 16.5 5.49941 16.3125L2.31191 14C1.56191 13.4375 1.31191 12.4375 1.74941 11.5625L2.43691 10.25C2.87441 9.4375 3.87441 9 4.74941 9.25L8.49941 10.4375C8.74941 10.5 8.99941 10.4375 9.18691 10.25L9.74941 9.6875C9.93691 9.5 10.1244 9.3125 10.3119 9.1875C10.4994 9 10.5619 8.75 10.4994 8.4375L9.31191 4.6875C8.99941 3.75 9.43691 2.8125 10.2494 2.375L11.5619 1.6875C12.4369 1.25 13.4369 1.5 13.9994 2.25L16.3119 5.375C16.4994 5.5625 16.7494 5.6875 16.9994 5.625C17.4994 5.625 17.9994 5.5625 18.4994 5.5C18.7494 5.5 18.9369 5.3125 19.0619 5.0625L20.3119 1.3125C20.6244 0.437504 21.4994 -0.124996 22.4369 4.24497e-06L23.8744 0.250004C24.8119 0.375004 25.4994 1.1875 25.4994 2.125L25.5619 6.0625C25.5619 6.3125 25.6869 6.5625 25.9369 6.6875C26.3744 6.875 26.8744 7.125 27.3119 7.375C27.4994 7.5 27.8119 7.5 28.0619 7.3125L31.2494 5C31.9994 4.4375 33.0619 4.5625 33.7494 5.1875L34.8119 6.25C35.4994 6.9375 35.5619 8 34.9994 8.75L32.6869 11.9375C32.4994 12.1875 32.4994 12.5 32.6244 12.6875C32.8744 13.125 33.1244 13.625 33.3119 14.0625C33.4369 14.3125 33.6244 14.4375 33.9369 14.4375H37.8744C38.8119 14.4375 39.6244 15.125 39.8119 16.0625L40.0619 17.5C40.1869 18.4375 39.6869 19.375 38.7494 19.625L34.9994 20.875C34.7494 20.9375 34.5619 21.1875 34.5619 21.4375C34.4994 21.9375 34.4369 22.4375 34.3119 22.9375C34.2494 23.1875 34.3744 23.4375 34.5619 23.625L37.6869 25.9375C38.4369 26.5 38.6869 27.5 38.2494 28.375L37.5619 29.6875C37.1244 30.5625 36.1244 30.9375 35.2494 30.6875L31.4994 29.5C31.2494 29.4375 30.9369 29.5 30.7494 29.6875C30.5619 29.875 30.4369 30.0625 30.2494 30.25L29.6869 30.8125C29.4994 31 29.4369 31.25 29.4994 31.5L30.6869 35.25C30.9994 36.125 30.5619 37.125 29.6869 37.5625L28.3744 38.25C27.4994 38.6875 26.4994 38.4375 25.9369 37.6875L23.6244 34.5C23.4369 34.3125 23.1869 34.1875 22.9369 34.25C22.4369 34.375 21.9369 34.4375 21.4369 34.5C21.1869 34.5 20.9369 34.6875 20.8744 34.9375L19.6244 38.6875C19.4369 39.5 18.6869 40 17.8744 40Z" fill="white"/>
<path d="M19.9985 31.125C19.311 31.125 18.561 31.0625 17.8735 30.9375C17.561 30.875 17.311 30.5625 17.3735 30.1875C17.436 29.875 17.7485 29.625 18.1235 29.6875C21.3735 30.3125 24.686 29.3125 26.9986 27C30.8111 23.125 30.8111 16.875 26.9986 13.0625C23.1235 9.25 16.8735 9.25 13.061 13.0625C10.7485 15.375 9.74855 18.6875 10.3735 21.9375C10.436 22.25 10.2485 22.625 9.87355 22.6875C9.56105 22.75 9.18605 22.5625 9.12355 22.1875C8.43605 18.5625 9.56105 14.8125 12.186 12.1875C16.4985 7.875 23.561 7.875 27.9361 12.1875C32.2486 16.5 32.2486 23.5625 27.9361 27.9375C25.7486 30 22.936 31.125 19.9985 31.125Z" fill="white"/>
<path d="M6.25 38.875C6.0625 38.875 5.9375 38.8125 5.8125 38.6875C5.5625 38.4375 5.5625 38.0625 5.8125 37.8125L15 28.625C16.125 27.5 17.6875 26.875 19.4375 26.875H19.5C21.1875 26.875 22.8125 26.1875 24 25C25.375 23.625 26 21.75 25.8125 19.875L23.25 22.4375C21.9375 23.75 19.75 23.75 18.375 22.4375L17.5625 21.625C16.25 20.3125 16.25 18.125 17.5625 16.75L20.125 14.1875C18.1875 14 16.3125 14.6875 15 16C13.8125 17.1875 13.125 18.8125 13.125 20.5C13.125 22.25 12.5 23.8125 11.375 25L2.1875 34.1875C1.9375 34.4375 1.5625 34.4375 1.3125 34.1875C1.0625 33.9375 1.0625 33.5625 1.3125 33.3125L10.5 24.125C11.375 23.25 11.875 21.9375 11.875 20.5625C11.875 18.5 12.6875 16.625 14.125 15.125C15.75 13.5 18 12.6875 20.25 12.9375C20.75 13 21.125 13.3125 21.3125 13.75C21.5 14.1875 21.375 14.6875 21 15.0625L18.4375 17.625C17.5625 18.5 17.5625 19.875 18.4375 20.6875L19.25 21.5C20.125 22.375 21.5 22.375 22.3125 21.5L24.875 18.9375C25.25 18.5625 25.75 18.5 26.1875 18.625C26.625 18.8125 26.9375 19.1875 27 19.6875C27.25 22 26.4375 24.1875 24.8125 25.8125C23.375 27.25 21.4375 28.0625 19.375 28.0625C17.9375 28.0625 16.6875 28.5625 15.8125 29.4375L6.6875 38.6875C6.5625 38.8125 6.375 38.875 6.25 38.875Z" fill="white"/>
<path d="M6.25 38.875C6.0625 38.875 5.9375 38.8125 5.8125 38.6875C5.5625 38.4375 5.5625 38.0625 5.8125 37.8125L15 28.625C16.125 27.5 17.6875 26.875 19.4375 26.875H19.5C21.1875 26.875 22.8125 26.1875 24 25C25.375 23.625 26 21.75 25.8125 19.875L23.25 22.4375C21.9375 23.75 19.75 23.75 18.375 22.4375L17.5625 21.625C16.25 20.3125 16.25 18.125 17.5625 16.75L20.125 14.1875C18.1875 14 16.3125 14.6875 15 16C13.8125 17.1875 13.125 18.8125 13.125 20.5C13.125 22.25 12.5 23.8125 11.375 25L2.1875 34.1875C1.9375 34.4375 1.5625 34.4375 1.3125 34.1875C1.0625 33.9375 1.0625 33.5625 1.3125 33.3125L10.5 24.125C11.375 23.25 11.875 21.9375 11.875 20.5625C11.875 18.5 12.6875 16.625 14.125 15.125C15.75 13.5 18 12.6875 20.25 12.9375C20.75 13 21.125 13.3125 21.3125 13.75C21.5 14.1875 21.375 14.6875 21 15.0625L18.4375 17.625C17.5625 18.5 17.5625 19.875 18.4375 20.6875L19.25 21.5C20.125 22.375 21.5 22.375 22.3125 21.5L24.875 18.9375C25.25 18.5625 25.75 18.5 26.1875 18.625C26.625 18.8125 26.9375 19.1875 27 19.6875C27.25 22 26.4375 24.1875 24.8125 25.8125C23.375 27.25 21.4375 28.0625 19.375 28.0625C17.9375 28.0625 16.6875 28.5625 15.8125 29.4375L6.6875 38.6875C6.5625 38.8125 6.375 38.875 6.25 38.875Z" fill="white"/>
</g>
<defs>
<clipPath id="clip0_3884_617">
<rect width="40" height="40" fill="white"/>
</clipPath>
</defs>
</svg>
