<svg width="56" height="56" viewBox="0 0 56 56" fill="none" xmlns="http://www.w3.org/2000/svg">
<g clip-path="url(#clip0_3837_243)">
<path d="M27.9676 0.00256348C26.9638 0.00256348 25.9608 0.0565256 24.9627 0.1641C24.0479 0.257541 23.1443 0.410784 22.2529 0.596731C22.08 0.632947 21.9074 0.670949 21.7352 0.710729C16.483 1.90655 11.6872 4.59192 7.92279 8.44484C7.57093 8.80557 7.22821 9.17509 6.89493 9.55305C-3.27378 21.2271 -2.05344 38.9342 9.62072 49.1029C20.7972 58.8381 37.6207 58.1904 48.0155 47.6246C48.3677 47.2642 48.7104 46.8947 49.0434 46.5164C53.531 41.4059 56.004 34.836 56 28.0347C56 12.5529 43.4495 0.00244668 27.9676 0.00256348ZM9.16835 9.84645C9.31599 9.69321 9.46923 9.54651 9.61967 9.39794C9.79347 9.22694 9.96634 9.05501 10.1439 8.88962C10.2999 8.74385 10.4606 8.60369 10.6204 8.46166C10.8008 8.30187 10.9802 8.14209 11.1652 7.98791C11.3278 7.85055 11.495 7.7188 11.6614 7.58612C11.8482 7.43661 12.0351 7.28711 12.2276 7.14321C12.3976 7.01559 12.5699 6.89099 12.7443 6.76944C12.9378 6.63115 13.1321 6.48912 13.3293 6.36017C13.5059 6.2411 13.6841 6.12429 13.8638 6.00977C14.0627 5.88152 14.2639 5.75691 14.4674 5.636C14.8539 5.40526 15.2455 5.18313 15.6419 4.96977C15.8288 4.87014 16.0157 4.77261 16.2026 4.6773C16.4158 4.57014 16.6304 4.46579 16.8464 4.36427C17.0333 4.2755 17.2276 4.18673 17.4201 4.10264C17.6397 4.0092 17.8621 3.91575 18.0845 3.82231C18.2779 3.74289 18.4704 3.66533 18.6657 3.59058C18.8918 3.50461 19.1208 3.42426 19.3497 3.3439C19.5452 3.27483 19.7414 3.20786 19.9384 3.143C20.171 3.06825 20.4056 2.9991 20.641 2.93089C20.8382 2.87389 21.0335 2.81502 21.2316 2.76176C21.3073 2.74214 21.383 2.72625 21.4586 2.70663C18.6928 5.39229 16.6402 8.72527 15.4868 12.4039C13.269 11.819 11.122 10.9927 9.08426 9.93989C9.11509 9.90719 9.14126 9.87449 9.16835 9.84645ZM7.82467 11.3509C10.0692 12.567 12.4494 13.5142 14.9159 14.1728C13.7067 18.3771 13.0721 22.7258 13.0293 27.1003H1.82576C2.02931 21.3317 4.13892 15.7931 7.82467 11.3509ZM7.82467 44.7186C4.13914 40.2762 2.02956 34.7377 1.82576 28.9691H13.0293C13.0721 33.3437 13.7067 37.6924 14.9159 41.8967C12.4495 42.5555 10.0693 43.5026 7.82467 44.7186ZM21.226 53.3115C21.0372 53.2638 20.8419 53.2021 20.6476 53.1451C20.4112 53.076 20.1738 53.0068 19.9402 52.9312C19.7431 52.8676 19.5487 52.7994 19.3544 52.7312C19.1241 52.6524 18.8951 52.5699 18.6676 52.4836C18.4738 52.4093 18.281 52.3327 18.0892 52.2537C17.8658 52.1603 17.6425 52.0668 17.4211 51.9734C17.2303 51.8892 17.0406 51.8026 16.852 51.7136C16.6343 51.6108 16.4175 51.5062 16.1979 51.3978C16.011 51.3043 15.8242 51.2109 15.6373 51.1091C15.4261 50.996 15.2168 50.8801 15.0075 50.7605C14.8206 50.6568 14.6431 50.5503 14.4627 50.4419C14.2577 50.3183 14.0546 50.1915 13.8535 50.0616C13.6759 49.9485 13.4984 49.8336 13.3237 49.7159C13.1246 49.5803 12.9274 49.442 12.7322 49.301C12.5612 49.1786 12.3902 49.0562 12.222 48.9272C12.0291 48.7809 11.8385 48.6317 11.6501 48.4796C11.4848 48.3479 11.3203 48.2171 11.1586 48.0816C10.9718 47.9265 10.7914 47.7648 10.6101 47.6041C10.4513 47.463 10.2915 47.3238 10.1364 47.1799C9.95793 47.0135 9.78506 46.8407 9.61127 46.6697C9.46082 46.5211 9.30758 46.3744 9.15994 46.2221C9.13285 46.1931 9.10668 46.1632 9.07959 46.1352C11.1172 45.0819 13.2642 44.2553 15.4822 43.6702C16.6358 47.3488 18.6883 50.6817 21.454 53.3675C21.3783 53.3479 21.3017 53.332 21.226 53.3115ZM27.0333 54.1244C23.035 53.5563 19.53 49.3832 17.3248 43.2208C20.5131 42.5069 23.7665 42.1239 27.0333 42.078V54.1244ZM27.0333 40.2092C23.5679 40.2547 20.117 40.6663 16.738 41.437C15.5647 37.3831 14.9458 33.1891 14.8982 28.9691H27.0333V40.2092ZM27.0333 27.1003H14.8982C14.9457 22.8804 15.5646 18.6863 16.738 14.6325C20.117 15.4031 23.5679 15.8146 27.0333 15.8603V27.1003ZM27.0333 13.9915C23.7664 13.9459 20.513 13.563 17.3248 12.8487C19.53 6.68628 23.035 2.51321 27.0333 1.94508V13.9915ZM48.1108 11.3509C51.7964 15.7933 53.9059 21.3317 54.1097 27.1003H42.9062C42.8634 22.7258 42.2288 18.3771 41.0196 14.1728C43.486 13.5139 45.8661 12.5667 48.1108 11.3509ZM34.702 2.75709C34.8983 2.80568 35.0936 2.86735 35.2879 2.92435C35.5243 2.99349 35.7617 3.06264 35.9953 3.13833C36.1924 3.20187 36.3868 3.27008 36.5811 3.33829C36.811 3.41771 37.0409 3.49901 37.2679 3.58591C37.4623 3.65973 37.6538 3.73728 37.8463 3.81577C38.0697 3.90921 38.293 4.00266 38.5144 4.0961C38.7051 4.18019 38.8947 4.26674 39.0835 4.35586C39.3012 4.45865 39.518 4.5633 39.7376 4.67169C39.9245 4.76513 40.1113 4.85857 40.2982 4.96043C40.5094 5.07349 40.7187 5.18936 40.928 5.30896C41.1149 5.41268 41.2924 5.5192 41.4728 5.62759C41.6778 5.75116 41.8809 5.87795 42.082 6.0079C42.2595 6.12096 42.4371 6.23589 42.6118 6.35363C42.8106 6.48885 43.0075 6.62684 43.2024 6.76757C43.3749 6.88966 43.5456 7.01426 43.7144 7.14134C43.9069 7.28617 44.0957 7.43661 44.2854 7.58798C44.4498 7.7188 44.6152 7.84962 44.7769 7.98604C44.9637 8.14116 45.1441 8.30281 45.3253 8.46353C45.4842 8.60462 45.644 8.74385 45.7991 8.88775C45.9776 9.05407 46.1504 9.22694 46.3242 9.39794C46.4747 9.54651 46.6279 9.69321 46.7756 9.84552C46.8027 9.87449 46.8288 9.90439 46.8559 9.93242C44.8183 10.9857 42.6712 11.8123 40.4533 12.3974C39.2975 8.71839 37.2424 5.38571 34.474 2.70102C34.5497 2.72064 34.6264 2.73653 34.702 2.75709ZM28.9022 1.94508C32.9005 2.51321 36.4055 6.68628 38.6107 12.8487C35.4224 13.5626 32.169 13.9456 28.9022 13.9915V1.94508ZM28.9022 15.8603C32.3676 15.8147 35.8185 15.4032 39.1975 14.6325C40.3708 18.6863 40.9897 22.8804 41.0373 27.1003H28.9022V15.8603ZM28.9022 28.9691H41.0373C40.9898 33.1891 40.3709 37.3832 39.1975 41.437C35.8185 40.6664 32.3676 40.2549 28.9022 40.2092V28.9691ZM28.9022 54.1244V42.078C32.1691 42.1235 35.4225 42.5065 38.6107 43.2208C36.4055 49.3832 32.9005 53.5563 28.9022 54.1244ZM46.7671 46.223C46.6195 46.3753 46.4672 46.522 46.3168 46.6706C46.143 46.8416 45.9692 47.0145 45.7907 47.1808C45.6356 47.3256 45.4758 47.4611 45.3169 47.606C45.1357 47.7667 44.9553 47.9274 44.7703 48.0825C44.6068 48.2189 44.4405 48.3507 44.2741 48.4834C44.0873 48.6329 43.9004 48.7824 43.7079 48.9263C43.5378 49.0539 43.3656 49.1785 43.1912 49.3C42.9977 49.4383 42.8034 49.5804 42.6062 49.7093C42.4298 49.8284 42.2516 49.9449 42.0717 50.0588C41.8726 50.1872 41.6711 50.3118 41.4672 50.4325C41.2803 50.5419 41.1018 50.6484 40.9177 50.754C40.528 50.9759 40.1329 51.1884 39.7329 51.3913C39.5197 51.4984 39.3051 51.6028 39.0891 51.7043C38.9022 51.793 38.7079 51.8818 38.5154 51.9659C38.2958 52.0593 38.0734 52.1528 37.851 52.2462C37.6576 52.3247 37.4651 52.4032 37.2707 52.477C37.0427 52.5639 36.8138 52.6452 36.5839 52.7247C36.3895 52.7938 36.1942 52.8605 35.9981 52.9246C35.7645 53.0003 35.5309 53.0695 35.2926 53.1377C35.0973 53.1956 34.9011 53.2535 34.7039 53.3068C34.6282 53.3264 34.5525 53.3423 34.4768 53.3619C37.2427 50.6763 39.2953 47.3433 40.4487 43.6646C42.6665 44.2495 44.8135 45.0758 46.8512 46.1287C46.8204 46.1623 46.7942 46.195 46.7671 46.223ZM48.1108 44.7186C45.8663 43.5024 43.4861 42.5553 41.0196 41.8967C42.2288 37.6924 42.8634 33.3437 42.9062 28.9691H54.1097C53.9062 34.7378 51.7966 40.2764 48.1108 44.7186Z" fill="#21409C"/>
</g>
<defs>
<clipPath id="clip0_3837_243">
<rect width="56" height="56" fill="white"/>
</clipPath>
</defs>
</svg>
