<svg width="81" height="80" viewBox="0 0 81 80" fill="none" xmlns="http://www.w3.org/2000/svg">
<g clip-path="url(#clip0_3907_4147)">
<path d="M34.08 1.34488V11.7257H32.1459C28.9298 11.7257 26.3228 14.3329 26.3227 17.5489C26.3227 20.765 28.9298 23.3722 32.1459 23.3722H34.08V33.753M34.08 1.34488H5.28094C3.28766 1.34488 1.67188 2.96066 1.67188 4.95379V33.753H12.0527V35.5721C12.0527 38.8372 14.7248 41.5716 17.9894 41.5093C21.153 41.4488 23.6991 38.8652 23.6991 35.6871V33.753H34.08M34.08 1.34488L62.8791 1.34473C64.8723 1.34473 66.4881 2.96051 66.4881 4.95379V14.8146M34.08 33.753H44.4609V31.9371C44.4609 28.7561 46.9628 26.0736 50.143 25.9979C50.9313 25.9773 51.7154 26.1178 52.4475 26.4109C53.1796 26.704 53.8441 27.1434 54.4005 27.7022C54.9424 28.2423 55.3721 28.8841 55.6649 29.5909C55.9576 30.2977 56.1077 31.0555 56.1064 31.8205V33.7532H66.4881V20.2835M79.3281 46.2468H68.9473V44.3127C68.9473 41.0966 66.3402 38.4894 63.1241 38.4894C59.908 38.4894 57.3008 41.0966 57.3008 44.3127V46.2468H46.92V56.628H48.7359C51.9169 56.628 54.5994 59.1299 54.6752 62.31C54.6957 63.0983 54.5552 63.8825 54.2621 64.6145C53.9691 65.3466 53.5297 66.0112 52.9709 66.5675C52.4309 67.1094 51.789 67.5392 51.0822 67.8319C50.3754 68.1247 49.6177 68.2748 48.8527 68.2735H46.92V78.6547H75.7191C77.7123 78.6547 79.3281 77.0389 79.3281 75.0457V46.2468Z" stroke="white" stroke-width="2.34375" stroke-miterlimit="10" stroke-linecap="round" stroke-linejoin="round"/>
<path d="M20.6103 66.1611H34.08V55.7804H36.0464C39.2625 55.7804 41.8697 53.1732 41.8697 49.9571C41.8697 46.741 39.2625 44.1338 36.0464 44.1338H34.08V33.7532M1.67188 33.7532V62.5522C1.67188 64.5455 3.28766 66.1613 5.28094 66.1613H15.1416" stroke="white" stroke-width="2.34375" stroke-miterlimit="10" stroke-linecap="round" stroke-linejoin="round"/>
</g>
<defs>
<clipPath id="clip0_3907_4147">
<rect width="80" height="80" fill="white" transform="translate(0.5)"/>
</clipPath>
</defs>
</svg>
