<svg width="56" height="56" viewBox="0 0 56 56" fill="none" xmlns="http://www.w3.org/2000/svg">
<g clip-path="url(#clip0_3837_144)">
<path d="M52.5597 22.8861V21.6385C52.5597 21.4355 52.4791 21.2407 52.3355 21.0972C52.1919 20.9536 51.9972 20.8729 51.7941 20.8729H51.0067C50.5088 20.8729 50.1038 20.4625 50.1038 19.958C50.1038 19.4534 50.5088 19.0432 51.0067 19.0432H51.7941C51.9972 19.0432 52.1919 18.9625 52.3355 18.8189C52.4791 18.6753 52.5597 18.4806 52.5597 18.2775V10.2655H52.5815C53.9236 10.2655 55.0156 9.16814 55.0156 7.81933C55.0156 6.47052 53.9237 5.37327 52.5815 5.37327H52.5597V1.75C52.5597 1.54694 52.4791 1.3522 52.3355 1.20862C52.1919 1.06504 51.9972 0.984375 51.7941 0.984375H47.4052C47.2021 0.984375 47.0074 1.06504 46.8638 1.20862C46.7202 1.3522 46.6396 1.54694 46.6396 1.75V2.53739C46.6396 3.03516 46.2346 3.44017 45.7368 3.44017C45.2324 3.44017 44.822 3.03516 44.822 2.53739V1.75C44.822 1.54694 44.7413 1.3522 44.5977 1.20862C44.4542 1.06504 44.2594 0.984375 44.0564 0.984375H39.6674C39.4643 0.984375 39.2696 1.06504 39.126 1.20862C38.9824 1.3522 38.9017 1.54694 38.9017 1.75V5.37327H38.88C37.5378 5.37327 36.4459 6.47062 36.4459 7.81933C36.4459 7.95637 36.4578 8.09069 36.4795 8.22172C34.647 7.56536 33.1148 5.87912 33.1148 3.4743C33.1148 2.10142 31.9979 0.984375 30.6249 0.984375H25.3751C24.0021 0.984375 22.8852 2.10131 22.8852 3.4743C22.8852 5.55013 21.6915 7.33403 19.7699 8.13006C17.8478 8.92598 15.7425 8.50861 14.2745 7.04091C13.8043 6.5707 13.1789 6.3117 12.5138 6.3117C11.8487 6.3117 11.2234 6.5707 10.7531 7.04091L7.0408 10.7532C6.07009 11.724 6.07009 13.3037 7.0408 14.2745C8.50872 15.7423 8.92598 17.848 8.13006 19.7698C7.33403 21.6914 5.55002 22.8852 3.4743 22.8852C2.10131 22.8853 0.984375 24.0022 0.984375 25.3751V30.6249C0.984375 31.9978 2.10131 33.1148 3.4743 33.1148C5.55013 33.1148 7.33403 34.3086 8.13006 36.2302C8.92598 38.152 8.50872 40.2577 7.0408 41.7255C6.07009 42.6963 6.07009 44.276 7.0408 45.2468L10.7531 48.9591C11.2234 49.4293 11.8487 49.6883 12.5138 49.6883C13.1789 49.6883 13.8043 49.4293 14.2745 48.9591C15.7444 47.4893 17.8505 47.0703 19.7716 47.8658C21.6922 48.6614 22.8853 50.4469 22.8853 52.5256C22.8853 53.8986 24.0022 55.0155 25.3752 55.0155H30.625C31.998 55.0155 33.1149 53.8986 33.1149 52.5256C33.1149 50.4498 34.3086 48.6659 36.2302 47.8699C38.152 47.0738 40.2575 47.4912 41.7255 48.9591C42.1958 49.4293 42.8211 49.6883 43.4862 49.6883C44.1513 49.6883 44.7767 49.4293 45.247 48.9591L48.9593 45.2468C49.93 44.276 49.93 42.6963 48.9593 41.7255C47.4914 40.2577 47.0741 38.152 47.87 36.2301C48.666 34.3085 50.4501 33.1148 52.5258 33.1148C53.8988 33.1148 55.0157 31.9979 55.0157 30.6249V25.3751C55.0156 24.0136 53.9171 22.9044 52.5597 22.8861ZM51.0285 17.512H51.0067C49.6646 17.512 48.5726 18.6094 48.5726 19.9581C48.5726 21.3069 49.6645 22.4043 51.0067 22.4043H51.0285V25.2619H47.4052C47.2021 25.2619 47.0074 25.3426 46.8638 25.4862C46.7202 25.6297 46.6396 25.8245 46.6396 26.0275V26.8149C46.6396 27.3127 46.2346 27.7177 45.7368 27.7177C45.2324 27.7177 44.822 27.3127 44.822 26.8149V26.0275C44.822 25.8245 44.7413 25.6297 44.5977 25.4862C44.4542 25.3426 44.2594 25.2619 44.0564 25.2619H40.433V21.6265C40.433 21.4234 40.3523 21.2287 40.2087 21.0851C40.0652 20.9415 39.8704 20.8609 39.6674 20.8609H38.88C38.3822 20.8609 37.9772 20.4505 37.9772 19.9461C37.9772 19.4483 38.3822 19.0433 38.88 19.0433H39.6674C39.8704 19.0433 40.0652 18.9626 40.2087 18.819C40.3523 18.6755 40.433 18.4807 40.433 18.2777V14.6544H44.0564C44.2594 14.6544 44.4542 14.5737 44.5977 14.4301C44.7413 14.2866 44.822 14.0918 44.822 13.8888V13.1014C44.822 12.6035 45.2324 12.1986 45.7368 12.1986C46.2346 12.1986 46.6396 12.6036 46.6396 13.1014V13.8888C46.6396 14.0918 46.7202 14.2866 46.8638 14.4301C47.0074 14.5737 47.2021 14.6544 47.4052 14.6544H51.0285V17.512ZM40.0623 28C40.0623 34.6512 34.6511 40.0623 28 40.0623C21.3489 40.0623 15.9377 34.6512 15.9377 28C15.9377 21.7369 20.6371 16.6108 26.775 15.9994V17.5119H26.7532C25.4111 17.5119 24.3192 18.6093 24.3192 19.9581C24.3192 21.3069 25.4111 22.4042 26.7532 22.4042H26.775V26.0274C26.775 26.2305 26.8557 26.4252 26.9992 26.5688C27.1428 26.7124 27.3376 26.793 27.5406 26.793H40.0011C40.0408 27.1936 40.0623 27.5974 40.0623 28ZM33.6101 17.1102C34.9522 17.1102 36.0441 16.0183 36.0441 14.6762V14.6543H38.9017V17.5119H38.88C37.5378 17.5119 36.4459 18.6038 36.4459 19.946C36.4459 21.2948 37.5378 22.392 38.88 22.392H38.9017V25.2618H28.3062V21.6385C28.3062 21.4355 28.2256 21.2407 28.082 21.0972C27.9384 20.9536 27.7437 20.8729 27.5406 20.8729H26.7532C26.2555 20.8729 25.8505 20.4625 25.8505 19.9581C25.8505 19.4537 26.2555 19.0432 26.7532 19.0432H27.5406C27.7437 19.0432 27.9384 18.9625 28.082 18.8189C28.2256 18.6753 28.3062 18.4806 28.3062 18.2775V14.6543H31.164V14.6762C31.164 16.0183 32.2612 17.1102 33.6101 17.1102ZM38.88 6.90452H39.6674C39.8704 6.90452 40.0652 6.82385 40.2087 6.68027C40.3523 6.53669 40.433 6.34195 40.433 6.13889V2.51562H43.2907V2.53739C43.2907 3.87953 44.388 4.97142 45.7368 4.97142C47.0789 4.97142 48.1708 3.87953 48.1708 2.53739V2.51562H51.0285V6.13889C51.0285 6.34195 51.1091 6.53669 51.2527 6.68027C51.3963 6.82385 51.591 6.90452 51.7941 6.90452H52.5815C53.0794 6.90452 53.4844 7.31489 53.4844 7.81933C53.4844 8.32377 53.0794 8.73425 52.5815 8.73425H51.7941C51.591 8.73425 51.3963 8.81491 51.2527 8.9585C51.1091 9.10208 51.0285 9.29682 51.0285 9.49988V13.1231H48.1708V13.1014C48.1708 11.7592 47.0789 10.6673 45.7368 10.6673C44.388 10.6673 43.2907 11.7592 43.2907 13.1014V13.1231H40.433V9.49988C40.433 9.29682 40.3523 9.10208 40.2087 8.9585C40.0652 8.81491 39.8704 8.73425 39.6674 8.73425H38.88C38.3822 8.73425 37.9772 8.32387 37.9772 7.81933C37.9772 7.31489 38.3822 6.90452 38.88 6.90452ZM53.4844 30.6249C53.4844 31.1535 53.0543 31.5836 52.5257 31.5836C49.8188 31.5836 47.4927 33.1395 46.4552 35.6442C45.4178 38.149 45.9622 40.8941 47.8763 42.8083C48.2501 43.182 48.2501 43.7904 47.8764 44.1641L44.1641 47.8763C43.9831 48.0573 43.7422 48.157 43.4861 48.157C43.2299 48.157 42.9892 48.0574 42.8083 47.8764C40.894 45.9622 38.149 45.4179 35.6442 46.4553C33.1395 47.4928 31.5836 49.8188 31.5836 52.5257C31.5836 53.0543 31.1535 53.4844 30.6249 53.4844H25.3751C24.8465 53.4844 24.4164 53.0543 24.4164 52.5257C24.4164 49.8158 22.8611 47.4882 20.3575 46.4511C17.8536 45.4141 15.108 45.9603 13.1918 47.8763C13.0108 48.0573 12.77 48.157 12.5138 48.157C12.2577 48.157 12.0169 48.0574 11.836 47.8764L8.12372 44.1641C7.74988 43.7904 7.74988 43.182 8.12372 42.8083C10.0378 40.8942 10.5824 38.1491 9.54472 35.6443C8.5073 33.1396 6.18122 31.5837 3.4743 31.5837C2.94569 31.5837 2.51562 31.1536 2.51562 30.625V25.3752C2.51562 24.8466 2.94569 24.4165 3.4743 24.4165C6.18122 24.4165 8.5073 22.8606 9.54472 20.3559C10.5822 17.8511 10.0378 15.106 8.12372 13.1919C7.74988 12.8182 7.74988 12.2099 8.12372 11.8361L11.836 8.12383C12.0169 7.94281 12.2577 7.84317 12.5138 7.84317C12.77 7.84317 13.0108 7.94292 13.1917 8.12383C15.1059 10.0379 17.851 10.5826 20.3558 9.54494C22.8605 8.50752 24.4164 6.18144 24.4164 3.47452C24.4164 2.94591 24.8465 2.51584 25.3751 2.51584H30.6249C31.1535 2.51584 31.5836 2.94591 31.5836 3.47452C31.5836 7.42656 34.7526 9.88848 37.8778 10.0478C38.1923 10.1915 38.5341 10.2659 38.88 10.2657H38.9017V13.1234H35.2785C35.0754 13.1234 34.8807 13.204 34.7371 13.3476C34.5935 13.4912 34.5128 13.6859 34.5128 13.889V14.6765C34.5128 15.1742 34.1078 15.5793 33.6101 15.5793C33.1056 15.5793 32.6953 15.1742 32.6953 14.6765V13.889C32.6953 13.6859 32.6146 13.4912 32.471 13.3476C32.3274 13.204 32.1327 13.1234 31.9296 13.1234H27.5406C27.3376 13.1234 27.1428 13.204 26.9992 13.3476C26.8557 13.4912 26.775 13.6859 26.775 13.889V14.4619C23.5272 14.7514 20.5157 16.1861 18.2291 18.5497C15.764 21.0978 14.4064 24.4542 14.4064 28.0003C14.4064 35.4959 20.5045 41.5939 28 41.5939C35.4955 41.5939 41.5936 35.4956 41.5936 28C41.5936 27.5977 41.5735 27.1942 41.5383 26.7932H43.2907V26.8149C43.2907 28.1571 44.388 29.249 45.7368 29.249C47.0789 29.249 48.1708 28.1571 48.1708 26.8149V26.7932H51.7941C51.9972 26.7932 52.1919 26.7125 52.3355 26.5689C52.4791 26.4253 52.5597 26.2306 52.5597 26.0275V24.4182C53.0725 24.4362 53.4844 24.858 53.4844 25.3751V30.6249Z" fill="#21409C"/>
</g>
<defs>
<clipPath id="clip0_3837_144">
<rect width="56" height="56" fill="white"/>
</clipPath>
</defs>
</svg>
