<svg width="81" height="80" viewBox="0 0 81 80" fill="none" xmlns="http://www.w3.org/2000/svg">
<path d="M79.0406 58.9063C78.1953 55.7485 74.9125 53.8297 71.5672 54.5313L48.2516 59.4813C48.7103 58.2201 48.7112 56.8379 48.2543 55.5761C47.7973 54.3143 46.9115 53.2532 45.7516 52.5782L32.2359 44.7735C31.6936 44.4348 31.1841 44.0461 30.7141 43.6126C29.5266 42.586 28.0484 41.3094 25.2937 41.0157C22.6766 40.7376 19.2703 41.3516 14.6687 42.9438C14.5151 41.968 14.0185 41.079 13.2681 40.4366C12.5177 39.7942 11.5628 39.4405 10.575 39.4391H5.89375C4.79514 39.4404 3.74188 39.8773 2.96505 40.6542C2.18821 41.431 1.75124 42.4843 1.75 43.5829V66.6157C1.75124 67.7143 2.18821 68.7676 2.96505 69.5444C3.74188 70.3212 4.79514 70.7582 5.89375 70.7594H10.5609C11.648 70.7579 12.6911 70.3298 13.4657 69.5672C14.2404 68.8045 14.6847 67.7682 14.7031 66.6813C18.4312 66.1579 23.1672 68.861 27.7578 71.4829C31.7141 73.7422 35.4859 75.8969 38.6375 75.8969C39.2304 75.9018 39.8206 75.8159 40.3875 75.6422L74.6875 66.4516C76.2649 66.0276 77.6095 64.9947 78.4257 63.5799C79.242 62.1651 79.4631 60.4841 79.0406 58.9063ZM10.5609 68.2594H5.89375C5.45793 68.259 5.04007 68.0857 4.7319 67.7775C4.42373 67.4694 4.25041 67.0515 4.25 66.6157V43.5829C4.25041 43.147 4.42373 42.7292 4.7319 42.421C5.04007 42.1129 5.45793 41.9395 5.89375 41.9391H10.5609C10.9968 41.9395 11.4146 42.1129 11.7228 42.421C12.031 42.7292 12.2043 43.147 12.2047 43.5829V66.6157C12.2043 67.0515 12.031 67.4694 11.7228 67.7775C11.4146 68.0857 10.9968 68.259 10.5609 68.2594ZM74.0406 64.0407L39.7188 73.2344L39.6609 73.2516C37.25 74.0219 33.0563 71.6282 29.0016 69.3126C24.1688 66.5501 19.1875 63.7094 14.7094 64.1563V45.5766C24.9203 41.9141 27.0328 43.7376 29.0844 45.5032C29.6719 46.0424 30.3103 46.5233 30.9906 46.9391L44.5063 54.7422C44.8712 54.954 45.1908 55.2356 45.4469 55.5709C45.7031 55.9061 45.8906 56.2886 45.9989 56.6964C46.1073 57.1042 46.1342 57.5293 46.0782 57.9475C46.0222 58.3657 45.8844 58.7687 45.6727 59.1337C45.4609 59.4986 45.1793 59.8182 44.844 60.0744C44.5088 60.3305 44.1263 60.518 43.7185 60.6263C43.3107 60.7347 42.8856 60.7616 42.4674 60.7056C42.0492 60.6496 41.6462 60.5118 41.2812 60.3001L29.9969 53.786C29.7105 53.6305 29.3748 53.593 29.0612 53.6814C28.7476 53.7698 28.4809 53.9771 28.318 54.2593C28.155 54.5414 28.1086 54.876 28.1888 55.1918C28.2689 55.5077 28.4691 55.7797 28.7469 55.9501L40.0312 62.4657C40.896 62.9662 41.8774 63.2298 42.8766 63.2297C43.7732 63.2284 44.6571 63.0176 45.4578 62.6141C45.5166 62.6102 45.5751 62.6023 45.6328 62.5907L72.0797 56.9907C74.1594 56.5501 76.1109 57.6547 76.6219 59.5594C76.8713 60.4953 76.7397 61.4918 76.2559 62.3309C75.7721 63.1699 74.9755 63.783 74.0406 64.036V64.0407ZM10.3109 46.4532C10.3122 46.8658 10.1909 47.2694 9.96259 47.6131C9.73424 47.9567 9.40905 48.2248 9.0282 48.3835C8.64735 48.5422 8.22797 48.5842 7.82319 48.5044C7.41841 48.4246 7.04643 48.2264 6.75436 47.935C6.46229 47.6436 6.26327 47.272 6.18252 46.8674C6.10176 46.4628 6.14289 46.0434 6.30071 45.6621C6.45852 45.2809 6.72592 44.9551 7.06904 44.726C7.41215 44.4969 7.81554 44.3748 8.22812 44.3751C8.77933 44.3763 9.30768 44.5955 9.69788 44.9848C10.0881 45.3741 10.3085 45.902 10.3109 46.4532ZM34.9891 32.7204H37.1047C37.5239 34.2273 38.1252 35.6776 38.8953 37.0391L37.4 38.536C37.0077 38.9232 36.7698 39.4401 36.731 39.99C36.6922 40.5398 36.855 41.085 37.1891 41.5235C38.5115 43.2782 40.073 44.8392 41.8281 46.161C42.2662 46.4959 42.8114 46.6594 43.3614 46.6208C43.9115 46.5823 44.4286 46.3443 44.8156 45.9516L46.3125 44.4563C47.6738 45.2266 49.1234 45.8289 50.6297 46.2501V48.3657C50.6264 48.917 50.8241 49.4505 51.186 49.8664C51.5478 50.2824 52.0489 50.5521 52.5953 50.6251C54.7721 50.9316 56.9811 50.9316 59.1578 50.6251C59.7051 50.5524 60.2069 50.2823 60.5692 49.8657C60.9314 49.4491 61.129 48.9146 61.125 48.3626V46.2501C62.6318 45.8303 64.082 45.229 65.4438 44.4594L66.9391 45.9547C67.3261 46.3475 67.8432 46.5854 68.3932 46.624C68.9433 46.6625 69.4885 46.499 69.9266 46.1641C71.6812 44.8415 73.2417 43.2795 74.5625 41.5235C74.8967 41.0852 75.0598 40.5401 75.0213 39.9903C74.9828 39.4404 74.7452 38.9234 74.3531 38.536L72.8562 37.0391C73.6264 35.6782 74.2278 34.2284 74.6469 32.7219H76.7641C77.3154 32.7256 77.8492 32.5279 78.2652 32.166C78.6812 31.8041 78.9508 31.3029 79.0234 30.7563C79.33 28.5795 79.33 26.3706 79.0234 24.1938C78.9504 23.6475 78.6806 23.1466 78.2647 22.7851C77.8487 22.4235 77.3152 22.226 76.7641 22.2297H74.6453C74.2253 20.7228 73.6234 19.2726 72.8531 17.911L74.35 16.4157C74.7401 16.0292 74.9766 15.5143 75.0157 14.9665C75.0548 14.4188 74.8937 13.8755 74.5625 13.4376C73.241 11.6816 71.6794 10.12 69.9234 8.7985C69.4854 8.46362 68.9402 8.30012 68.3901 8.33866C67.8401 8.37721 67.323 8.61517 66.9359 9.00787L65.4406 10.5047C64.0802 9.73278 62.631 9.12888 61.125 8.70631V6.59069C61.1288 6.03938 60.9314 5.50562 60.5698 5.08942C60.2083 4.67321 59.7073 4.40312 59.1609 4.32975C56.9839 4.02648 54.7754 4.02648 52.5984 4.32975C52.0522 4.40344 51.5514 4.67362 51.1899 5.08976C50.8285 5.50589 50.6309 6.03947 50.6344 6.59069V8.70631C49.1264 9.12631 47.6752 9.72812 46.3125 10.4985L44.8156 9.00163C44.4282 8.60952 43.9112 8.37199 43.3614 8.33345C42.8115 8.29491 42.2664 8.45802 41.8281 8.79225C40.0718 10.1157 38.5101 11.6794 37.1891 13.4376C36.8547 13.8759 36.6917 14.4212 36.7305 14.9711C36.7693 15.5211 37.0074 16.038 37.4 16.4251L38.8953 17.9204C38.1249 19.2817 37.5236 20.732 37.1047 22.2391H34.9891C34.4378 22.2354 33.904 22.4327 33.4878 22.7943C33.0716 23.1559 32.8015 23.6568 32.7281 24.2032C32.4216 26.3799 32.4216 28.5889 32.7281 30.7657C32.8033 31.3105 33.0742 31.8094 33.4902 32.1691C33.9063 32.5288 34.4391 32.7248 34.9891 32.7204ZM35.1781 24.7329H38.0781C38.3624 24.7329 38.6383 24.6361 38.8601 24.4582C39.082 24.2804 39.2366 24.0323 39.2984 23.7547C39.7244 21.851 40.4772 20.0356 41.5234 18.3891C41.6755 18.1492 41.7413 17.8647 41.7101 17.5824C41.6789 17.3001 41.5524 17.0368 41.3516 16.836L39.3016 14.7844C40.4194 13.326 41.7244 12.021 43.1828 10.9032L45.2328 12.9548C45.4338 13.156 45.6973 13.2827 45.9799 13.3139C46.2626 13.3452 46.5475 13.2791 46.7875 13.1266C48.434 12.0804 50.2494 11.3276 52.1531 10.9016C52.4293 10.8397 52.6763 10.6859 52.8537 10.4654C53.0311 10.2448 53.1284 9.9706 53.1297 9.68756V6.77975C54.9517 6.54225 56.7968 6.54225 58.6187 6.77975V9.68756C58.6187 9.97188 58.7156 10.2477 58.8934 10.4696C59.0712 10.6914 59.3194 10.846 59.5969 10.9079C61.4996 11.3313 63.3145 12.0815 64.9609 13.1251C65.201 13.2775 65.4858 13.3436 65.7685 13.3123C66.0511 13.2811 66.3147 13.1544 66.5156 12.9532L68.5672 10.9016C70.0248 12.0199 71.3292 13.3248 72.4469 14.7829L70.3969 16.8344C70.196 17.0353 70.0696 17.2985 70.0383 17.5808C70.0071 17.8631 70.0729 18.1477 70.225 18.3876C71.2713 20.0329 72.0242 21.8473 72.45 23.7501C72.5122 24.0273 72.6669 24.2751 72.8887 24.4526C73.1105 24.6301 73.3862 24.7268 73.6703 24.7266H76.5703C76.8099 26.5485 76.8099 28.3938 76.5703 30.2157H73.6687C73.3849 30.2159 73.1096 30.3127 72.8881 30.4902C72.6666 30.6677 72.5121 30.9153 72.45 31.1922C72.0246 33.0976 71.2717 34.9146 70.225 36.5626C70.0729 36.8025 70.0071 37.087 70.0383 37.3693C70.0696 37.6516 70.196 37.9148 70.3969 38.1157L72.4484 40.1672C71.3298 41.625 70.0249 42.9298 68.5672 44.0485L66.5156 41.9985C66.3146 41.7979 66.0513 41.6717 65.769 41.6408C65.4866 41.6098 65.2022 41.6759 64.9625 41.8282C63.3156 42.8748 61.4996 43.6276 59.5953 44.0532C59.3183 44.1153 59.0708 44.2698 58.8933 44.4913C58.7158 44.7128 58.619 44.9881 58.6187 45.2719V48.1735C56.7968 48.411 54.9517 48.411 53.1297 48.1735V45.2719C53.1298 44.9878 53.0332 44.7122 52.8557 44.4903C52.6781 44.2685 52.4304 44.1138 52.1531 44.0516C50.2489 43.6274 48.4332 42.8745 46.7875 41.8266C46.5475 41.6742 46.2626 41.6081 45.9799 41.6393C45.6973 41.6706 45.4338 41.7973 45.2328 41.9985L43.1828 44.0501C41.7244 42.9322 40.4194 41.6273 39.3016 40.1688L41.3516 38.1251C41.5524 37.9242 41.6789 37.661 41.7101 37.3787C41.7413 37.0964 41.6755 36.8118 41.5234 36.5719C40.4769 34.9256 39.724 33.1101 39.2984 31.2063C39.2366 30.9288 39.082 30.6807 38.8601 30.5028C38.6383 30.325 38.3624 30.2281 38.0781 30.2282H35.1781C34.9385 28.4069 34.9385 26.562 35.1781 24.7407V24.7329ZM55.875 40.0001C58.3507 40.0001 60.7707 39.2659 62.8292 37.8905C64.8876 36.5151 66.492 34.5602 67.4394 32.273C68.3868 29.9858 68.6347 27.469 68.1517 25.0409C67.6687 22.6128 66.4765 20.3824 64.726 18.6319C62.9754 16.8813 60.7451 15.6892 58.317 15.2062C55.8889 14.7232 53.3721 14.9711 51.0849 15.9185C48.7977 16.8659 46.8427 18.4703 45.4673 20.5287C44.0919 22.5871 43.3578 25.0072 43.3578 27.4829C43.3615 30.8015 44.6815 33.9831 47.0281 36.3298C49.3747 38.6764 52.5564 39.9963 55.875 40.0001ZM55.875 17.4657C57.8562 17.4657 59.7929 18.0532 61.4403 19.1539C63.0876 20.2546 64.3715 21.8191 65.1297 23.6495C65.8878 25.4799 66.0862 27.494 65.6997 29.4371C65.3132 31.3803 64.3591 33.1652 62.9582 34.5661C61.5573 35.967 59.7724 36.9211 57.8293 37.3076C55.8861 37.6941 53.872 37.4957 52.0416 36.7375C50.2112 35.9794 48.6467 34.6954 47.546 33.0481C46.4453 31.4008 45.8578 29.4641 45.8578 27.4829C45.8591 24.826 46.9146 22.2781 48.7928 20.3988C50.6709 18.5195 53.2181 17.4623 55.875 17.4594V17.4657ZM50.6766 28.6657C50.5605 28.5495 50.4685 28.4117 50.4057 28.26C50.343 28.1083 50.3107 27.9457 50.3108 27.7815C50.3109 27.6174 50.3433 27.4548 50.4062 27.3032C50.4691 27.1515 50.5612 27.0138 50.6773 26.8977C50.7935 26.7817 50.9313 26.6897 51.083 26.6269C51.2347 26.5641 51.3973 26.5319 51.5615 26.5319C51.7257 26.532 51.8882 26.5644 52.0399 26.6273C52.1915 26.6902 52.3293 26.7824 52.4453 26.8985L54.4531 28.9063L59.25 23.4016C59.4748 23.1797 59.7754 23.0511 60.0912 23.0418C60.407 23.0324 60.7146 23.143 60.9521 23.3513C61.1897 23.5596 61.3396 23.85 61.3717 24.1643C61.4037 24.4786 61.3156 24.7934 61.125 25.0454L55.4531 31.5516C55.3405 31.6809 55.2025 31.7856 55.0476 31.8593C54.8928 31.9329 54.7245 31.9739 54.5531 31.9797H54.5109C54.3467 31.9799 54.1841 31.9477 54.0324 31.8849C53.8806 31.8222 53.7427 31.7302 53.6266 31.6141L50.6766 28.6657Z" fill="white"/>
</svg>
