<svg width="60" height="56" viewBox="0 0 60 56" fill="none" xmlns="http://www.w3.org/2000/svg">
<g clip-path="url(#clip0_3347_2999)">
<path fill-rule="evenodd" clip-rule="evenodd" d="M36.6863 40.3294C36.6862 40.5552 36.5964 40.7718 36.4368 40.9314C36.2771 41.0911 36.0606 41.1809 35.8347 41.181L24.5066 41.1813C24.2808 41.1811 24.0643 41.0914 23.9046 40.9317C23.7449 40.772 23.6552 40.5555 23.655 40.3297C23.6552 40.1039 23.7449 39.8873 23.9046 39.7276C24.0643 39.568 24.2808 39.4782 24.5066 39.4781L35.8347 39.4778C36.0606 39.478 36.2771 39.5677 36.4368 39.7274C36.5964 39.8871 36.6862 40.1036 36.6863 40.3294ZM57.5348 41.6118C57.9775 41.4532 58.2078 40.9646 58.0492 40.5234C57.973 40.3107 57.8155 40.1369 57.6113 40.0402C57.4072 39.9435 57.1729 39.9318 56.9601 40.0076L53.8946 41.1067C56.112 37.0912 57.2734 32.588 57.2734 27.947C57.2729 12.8747 45.0698 0.672967 29.9983 0.67334C24.5316 0.673464 19.2571 2.28423 14.7453 5.33335C14.6526 5.39602 14.5732 5.47635 14.5116 5.56973C14.4499 5.66311 14.4073 5.76772 14.3861 5.87758C14.3649 5.98744 14.3656 6.1004 14.3881 6.21C14.4106 6.3196 14.4545 6.42369 14.5172 6.51633C14.7791 6.90523 15.3093 7.0077 15.6988 6.7445C19.928 3.88691 24.8724 2.37664 29.9985 2.37651C44.098 2.37614 55.5698 13.8467 55.5702 27.947C55.5703 32.494 54.3816 36.8983 52.1182 40.7875L50.7966 37.0963C50.6374 36.6537 50.1495 36.4234 49.7076 36.5827C49.6023 36.6203 49.5054 36.6783 49.4225 36.7534C49.3397 36.8284 49.2724 36.9191 49.2246 37.0202C49.1768 37.1213 49.1495 37.2308 49.1441 37.3425C49.1387 37.4542 49.1554 37.5658 49.1932 37.6711L51.1031 43.0014C51.2627 43.4556 51.7505 43.6857 52.2043 43.5215L57.5348 41.6118ZM45.4808 49.3788C45.4182 49.2862 45.338 49.2069 45.2447 49.1453C45.1515 49.0837 45.047 49.0411 44.9373 49.0199C44.8275 48.9987 44.7147 48.9994 44.6052 49.0218C44.4957 49.0442 44.3918 49.088 44.2992 49.1506C40.0701 52.0082 35.1241 53.5185 29.9996 53.5186C15.8987 53.5191 4.42674 42.0477 4.42637 27.9482C4.42624 23.4013 5.61494 18.9969 7.87905 15.1077L9.20139 18.7981C9.36063 19.2414 9.84778 19.4717 10.2905 19.3125C10.3957 19.2748 10.4925 19.2168 10.5754 19.1417C10.6582 19.0667 10.7254 18.976 10.7732 18.8749C10.8209 18.7738 10.8483 18.6644 10.8538 18.5527C10.8592 18.441 10.8426 18.3294 10.8048 18.2242L8.89348 12.8938C8.73796 12.4407 8.23963 12.2075 7.79223 12.3737L2.46322 14.2836C2.02053 14.4422 1.7895 14.9292 1.94886 15.3719C1.98652 15.4773 2.04458 15.5741 2.11972 15.657C2.19486 15.7399 2.2856 15.8071 2.38675 15.8549C2.48791 15.9027 2.59749 15.93 2.70923 15.9354C2.82096 15.9408 2.93267 15.9241 3.03794 15.8863L6.10197 14.7885C3.88456 18.804 2.72307 23.3066 2.72319 27.9482C2.72357 43.0192 14.9285 55.2223 29.9996 55.2219C35.4663 55.2218 40.7401 53.6103 45.2519 50.5611C45.3446 50.4986 45.4241 50.4184 45.4858 50.3251C45.5475 50.2318 45.5902 50.1272 45.6114 50.0174C45.6327 49.9076 45.6321 49.7947 45.6097 49.6851C45.5873 49.5755 45.5435 49.4714 45.4808 49.3788ZM37.5979 27.7896C37.598 32.1357 34.0613 35.6728 29.7144 35.6729C25.3683 35.673 21.8312 32.1361 21.8311 27.79C21.831 23.4424 25.3678 19.9061 29.714 19.906C32.1195 19.906 34.2754 20.9898 35.7232 22.6944L29.8684 29.0568L26.6406 25.662C26.317 25.3213 25.7775 25.3084 25.4367 25.6312C25.2734 25.787 25.1785 26.0012 25.1727 26.2268C25.1669 26.4524 25.2508 26.6711 25.4059 26.8351L29.2606 30.8905C29.5994 31.2479 30.1715 31.2423 30.504 30.8797L36.7017 24.1465C37.2915 25.2702 37.5991 26.5205 37.5979 27.7896ZM40.4473 17.5626C40.5228 17.4802 40.6139 17.4135 40.7153 17.3663C40.8167 17.3191 40.9263 17.2925 41.0381 17.2878C41.1498 17.2831 41.2613 17.3006 41.3663 17.3391C41.4712 17.3777 41.5675 17.4366 41.6497 17.5124C41.732 17.588 41.7987 17.6791 41.8458 17.7805C41.8929 17.8819 41.9195 17.9916 41.9241 18.1033C41.9287 18.215 41.9112 18.3265 41.8726 18.4315C41.834 18.5364 41.7751 18.6327 41.6992 18.7148L37.9142 22.8279C38.8227 24.3233 39.3026 26.0398 39.3011 27.7896C39.3012 33.0749 35.0004 37.3752 29.7144 37.3753C24.4291 37.3754 20.1281 33.0753 20.1279 27.79C20.1278 22.5041 24.4286 18.2029 29.7139 18.2028C32.5635 18.2027 35.1254 19.4538 36.8825 21.4339L40.4473 17.5626ZM43.3849 35.0204C45.2852 28.9983 45.1602 21.8183 44.985 15.3896C39.7223 14.5182 34.3494 12.687 29.9986 10.132C25.645 12.6877 20.2748 14.5186 15.011 15.3903C14.8361 21.8192 14.7129 28.9992 16.6135 35.0219C18.7071 41.6559 23.0879 46.0098 29.9996 48.3262C36.911 46.0093 41.2902 41.6551 43.3849 35.0204ZM45.9419 13.8154C40.5111 13.0077 34.869 11.1054 30.4411 8.41153C30.3078 8.33025 30.1546 8.28726 29.9985 8.28726C29.8423 8.28726 29.6891 8.33025 29.5558 8.41153C25.1554 11.0955 19.4624 13.0139 14.0538 13.8163C13.856 13.8458 13.6749 13.944 13.5422 14.0937C13.4096 14.2434 13.3339 14.435 13.3285 14.635C13.1422 21.3759 12.9322 29.0164 14.9899 35.5343C17.2879 42.8154 22.1113 47.5574 29.7361 50.0324C29.9069 50.0886 30.0912 50.0886 30.262 50.0324C37.8867 47.5571 42.7105 42.8147 45.0083 35.5336C47.065 29.0158 46.8538 21.3753 46.6671 14.6344C46.6622 14.4343 46.5867 14.2423 46.454 14.0925C46.3213 13.9426 46.1399 13.8445 45.9419 13.8154Z" fill="#21409C"/>
</g>
<defs>
<clipPath id="clip0_3347_2999">
<rect width="59" height="55.8947" fill="white" transform="translate(0.5)"/>
</clipPath>
</defs>
</svg>
