<svg width="56" height="56" viewBox="0 0 56 56" fill="none" xmlns="http://www.w3.org/2000/svg">
<path d="M42.8051 3.9138C42.5225 3.61634 42.1836 3.37806 41.808 3.21282C41.4325 3.04757 41.0278 2.95868 40.6176 2.9513C39.7927 2.94069 38.9957 3.25025 38.3942 3.81493L36.4001 5.72768C33.7803 4.58979 30.9594 3.98749 28.1034 3.95623C25.2473 3.92498 22.4139 4.4654 19.7699 5.54568L17.8151 3.58743C17.2305 3.00352 16.4381 2.67554 15.6119 2.67554C14.7856 2.67554 13.9932 3.00352 13.4086 3.58743L6.03761 10.9602C5.45328 11.5445 5.125 12.337 5.125 13.1634C5.125 13.9898 5.45328 14.7823 6.03761 15.3667L7.99411 17.3249C6.30749 21.4529 5.95167 26.0043 6.97629 30.3442C8.00091 34.6841 10.3548 38.5959 13.7096 41.5335L7.30549 47.935C6.61138 48.6305 6.22199 49.5733 6.22298 50.5559C6.22396 51.5385 6.61524 52.4804 7.31074 53.1745C8.00623 53.8687 8.94898 54.258 9.93157 54.2571C10.9142 54.2561 11.8561 53.8648 12.5502 53.1693L20.2502 45.4815C25.223 47.3761 30.7233 47.3493 35.6774 45.4063L43.4509 53.1684C43.7933 53.5182 44.2016 53.7967 44.6523 53.9878C45.103 54.1789 45.5871 54.2787 46.0766 54.2816C46.5661 54.2845 47.0513 54.1904 47.5042 54.0046C47.9571 53.8189 48.3687 53.5452 48.7152 53.1994C49.0617 52.8537 49.3363 52.4427 49.523 51.9902C49.7097 51.5377 49.8049 51.0527 49.8031 50.5632C49.8013 50.0737 49.7025 49.5894 49.5124 49.1383C49.3223 48.6872 49.0447 48.2782 48.6956 47.935L42.169 41.4084C45.4132 38.5158 47.7006 34.7046 48.7272 30.481C49.7539 26.2575 49.4713 21.8215 47.9169 17.7624L49.9136 15.8505C50.2094 15.5679 50.4466 15.2296 50.6116 14.8552C50.7767 14.4808 50.8663 14.0775 50.8754 13.6685C50.8845 13.2594 50.8129 12.8526 50.6647 12.4712C50.5165 12.0898 50.2946 11.7414 50.0116 11.4458L42.8051 3.9138ZM7.27574 14.1294C7.01969 13.8731 6.87586 13.5257 6.87586 13.1634C6.87586 12.8012 7.01969 12.4537 7.27574 12.1974L14.6459 4.82818C14.9024 4.57256 15.2497 4.42902 15.6119 4.42902C15.974 4.42902 16.3214 4.57256 16.5779 4.82818L18.0767 6.32705C14.0848 8.38554 10.8336 11.637 8.77549 15.6292L7.27574 14.1294ZM11.313 51.9294C10.9454 52.2963 10.4472 52.5023 9.92786 52.5023C9.4085 52.5023 8.91036 52.2963 8.54274 51.9294C8.17785 51.5631 7.97298 51.0671 7.97298 50.55C7.97298 50.0329 8.17785 49.5369 8.54274 49.1705L15.0737 42.6395C16.1534 43.4445 17.3065 44.1458 18.5177 44.7343L11.313 51.9294ZM47.4575 49.1749C47.8232 49.5424 48.028 50.0401 48.0268 50.5586C48.0255 51.077 47.8184 51.5738 47.4509 51.9395C47.0835 52.3052 46.5857 52.51 46.0673 52.5088C45.5488 52.5075 45.0521 52.3004 44.6864 51.9329L37.3932 44.6494C38.5969 44.05 39.7415 43.3387 40.8119 42.5249L47.4575 49.1749ZM27.868 45.1333C24.5871 45.1346 21.3578 44.3166 18.4732 42.7535C15.5886 41.1904 13.14 38.9318 11.3495 36.1825C9.55909 33.4332 8.48353 30.2803 8.22044 27.01C7.95735 23.7397 8.51507 20.4554 9.84299 17.4553V17.4483C11.4008 13.9224 13.9584 10.9307 17.1991 8.84355C20.4399 6.7564 24.2216 5.66542 28.0761 5.70565C31.9306 5.74587 35.6887 6.91555 38.8852 9.06989C42.0817 11.2242 44.5762 14.2686 46.0601 17.8263C46.0663 17.8447 46.0734 17.8628 46.0811 17.8805C47.3223 20.8754 47.8054 24.1302 47.4879 27.3564C47.1702 30.5827 46.0617 33.6807 44.2604 36.3761C42.4591 39.0714 40.0207 41.2808 37.1613 42.8083C34.3019 44.3359 31.1098 45.1345 27.868 45.1333ZM48.7044 14.5879L47.1766 16.05C45.2057 12.0119 42.0248 8.68868 38.0766 6.54318L39.6061 5.0793C39.7357 4.95519 39.8886 4.85784 40.0558 4.79282C40.2231 4.7278 40.4016 4.69638 40.581 4.70036C40.7604 4.70434 40.9373 4.74365 41.1015 4.81602C41.2658 4.8884 41.4141 4.99243 41.5381 5.12218L48.7437 12.6577C48.8677 12.7872 48.965 12.9398 49.03 13.1069C49.095 13.274 49.1265 13.4523 49.1226 13.6315C49.1187 13.8107 49.0795 13.9875 49.0073 14.1516C48.9351 14.3157 48.8313 14.464 48.7017 14.5879H48.7044Z" fill="#21409C"/>
<path d="M31.4371 27.7514C31.819 27.1706 32.053 26.5051 32.1187 25.8131C32.1843 25.1211 32.0797 24.4235 31.8138 23.7812C31.5479 23.1389 31.1289 22.5714 30.5934 22.1283C30.0578 21.6851 29.4219 21.3797 28.7412 21.2388V11.4624C28.7412 11.2303 28.649 11.0078 28.4849 10.8437C28.3208 10.6796 28.0983 10.5874 27.8662 10.5874C27.6342 10.5874 27.4116 10.6796 27.2475 10.8437C27.0834 11.0078 26.9912 11.2303 26.9912 11.4624V21.2388C26.3754 21.3658 25.7953 21.6273 25.2923 22.0045C24.7893 22.3818 24.3758 22.8654 24.0813 23.421C23.7869 23.9765 23.6187 24.5902 23.5889 25.2182C23.5591 25.8463 23.6684 26.4732 23.9089 27.0541C24.1494 27.635 24.5152 28.1557 24.9803 28.5788C25.4453 29.002 25.998 29.3173 26.599 29.5021C27.2 29.6869 27.8344 29.7367 28.4568 29.6479C29.0793 29.5592 29.6745 29.3341 30.1998 28.9887L34.1373 32.9262C34.3024 33.0855 34.5234 33.1737 34.7528 33.1717C34.9822 33.1698 35.2017 33.0777 35.3639 32.9155C35.5262 32.7533 35.6182 32.5338 35.6202 32.3044C35.6222 32.075 35.534 31.8539 35.3746 31.6889L31.4371 27.7514ZM25.3445 25.4187C25.3442 25.0046 25.446 24.5968 25.6407 24.2314C25.8354 23.8659 26.1171 23.5541 26.4609 23.3233C26.8047 23.0925 27.2001 22.95 27.6121 22.9083C28.024 22.8665 28.4399 22.9269 28.823 23.084C29.2062 23.2411 29.5447 23.4902 29.8087 23.8091C30.0728 24.1281 30.2542 24.5072 30.337 24.9129C30.4198 25.3186 30.4015 25.7385 30.2835 26.1354C30.1656 26.5323 29.9517 26.8941 29.6608 27.1888C29.6565 27.1888 29.6503 27.1888 29.6468 27.1975C29.6433 27.2063 29.6416 27.2072 29.6372 27.2115C29.2838 27.5616 28.8346 27.7992 28.3463 27.8944C27.858 27.9895 27.3525 27.938 26.8935 27.7462C26.4344 27.5544 26.0424 27.2311 25.7669 26.8169C25.4914 26.4026 25.3447 25.9161 25.3453 25.4187H25.3445ZM23.542 40.9027C19.7419 40.0012 16.4069 37.7321 14.1733 34.5283C12.9418 32.6962 12.1298 30.615 11.7951 28.433C11.755 28.2073 11.6279 28.0064 11.4412 27.8734C11.2545 27.7405 11.023 27.6861 10.7966 27.722C10.5702 27.7578 10.367 27.8811 10.2305 28.0653C10.0941 28.2495 10.0353 28.4799 10.067 28.7069C10.441 31.1412 11.3472 33.4632 12.7208 35.5074C15.1973 39.0714 18.9008 41.5973 23.1228 42.6019C23.1916 42.6185 23.2621 42.627 23.3328 42.6273C23.5467 42.6273 23.7531 42.549 23.9131 42.4072C24.0731 42.2654 24.1757 42.0699 24.2014 41.8576C24.2271 41.6453 24.1743 41.431 24.0528 41.2551C23.9313 41.0791 23.7496 40.9538 23.542 40.9027ZM26.5896 41.9212C26.5082 42.0009 26.4438 42.0962 26.4002 42.2015C26.3566 42.3067 26.3347 42.4197 26.3358 42.5337C26.3347 42.6489 26.3565 42.7632 26.4001 42.8699C26.4436 42.9766 26.508 43.0735 26.5895 43.155C26.671 43.2365 26.7679 43.3009 26.8746 43.3444C26.9813 43.388 27.0956 43.4098 27.2108 43.4087C27.3248 43.41 27.4378 43.3882 27.5431 43.3446C27.6484 43.3009 27.7437 43.2364 27.8233 43.1549C27.906 43.0739 27.9718 42.9772 28.0169 42.8706C28.0619 42.7639 28.0854 42.6494 28.0858 42.5337C28.0854 42.4192 28.0619 42.306 28.0168 42.2007C27.9717 42.0955 27.9059 42.0004 27.8233 41.9212C27.6579 41.7611 27.4367 41.6716 27.2065 41.6716C26.9763 41.6716 26.7551 41.7611 26.5896 41.9212Z" fill="#21409C"/>
</svg>
