<svg width="56" height="56" viewBox="0 0 56 56" fill="none" xmlns="http://www.w3.org/2000/svg">
<path d="M54.7004 30.4569L52.7984 29.8412C52.7535 29.8269 52.7349 29.8116 52.7141 29.758C52.6113 29.4824 52.4965 29.2068 52.3729 28.9344C52.3532 28.8907 52.3532 28.8699 52.3773 28.8229L53.2851 27.039C53.6548 26.316 53.518 25.4421 52.9416 24.8602L50.8799 22.7985C50.3013 22.2254 49.4263 22.0887 48.7045 22.4583L46.9249 23.3662C46.8735 23.3924 46.8516 23.3902 46.8046 23.3683C46.5355 23.2458 46.2599 23.131 45.9854 23.0282C45.9307 23.0074 45.9154 22.9877 45.9023 22.9483L45.2854 21.0419C45.0349 20.2665 44.3174 19.7458 43.5015 19.7458H40.5899C39.7609 19.7458 39.0609 20.2544 38.8071 21.0408L38.188 22.944C38.1738 22.9877 38.1585 23.0085 38.1115 23.0271C37.837 23.1288 37.5591 23.2426 37.2813 23.3694C37.2387 23.3891 37.2168 23.3913 37.172 23.3683L35.387 22.4572C34.664 22.0876 33.7901 22.2243 33.2082 22.8007L31.1465 24.8624C30.5734 25.441 30.4366 26.316 30.8063 27.0379L31.7163 28.8207C31.7393 28.8655 31.7393 28.8885 31.7163 28.9377C31.5938 29.2068 31.479 29.4824 31.374 29.7646C31.3598 29.804 31.3445 29.8237 31.2974 29.8401L29.3888 30.458C29.0213 30.5783 28.7118 30.8037 28.4865 31.0935C28.4624 31.0705 28.4384 31.0476 28.4143 31.0224L26.7255 29.2604V28.1097C27.2866 27.7466 27.816 27.3255 28.3049 26.8476C30.0188 25.1741 31.0656 22.9965 31.2985 20.6504C32.8866 20.249 34.0395 18.8238 34.0395 17.1121C34.0395 16.2065 33.707 15.3785 33.159 14.7408V11.0144C33.159 5.51506 28.6845 1.04053 23.1851 1.04053H17.4768C15.3068 1.04053 13.5054 2.64396 13.1959 4.72756C11.0587 4.98787 9.39727 6.81443 9.39727 9.02053V14.7397C8.8493 15.3785 8.5168 16.2076 8.5168 17.1132C8.5168 18.8249 9.66961 20.2501 11.2577 20.6515C11.4907 22.9965 12.5374 25.1752 14.2513 26.8487C14.7402 27.3266 15.2696 27.7477 15.8307 28.1108V29.2604L14.1409 31.0235C13.7952 31.3855 13.4245 31.6032 12.9388 31.7301L5.75508 33.6212C4.11664 34.0521 2.94086 35.3022 2.61164 36.9669L0.0828941 49.7966C-0.168668 51.0774 0.158363 52.3855 0.981957 53.3863C1.80446 54.386 3.02508 54.9602 4.32993 54.9602H38.2296C39.5345 54.9602 40.7551 54.3871 41.5776 53.3863C42.4001 52.3855 42.7282 51.0774 42.4766 49.7955L42.0534 47.6485H43.5037C44.3174 47.6485 45.0349 47.1279 45.2876 46.3524L45.9034 44.4504C45.9209 44.3979 45.9405 44.3826 45.9865 44.3661C46.2621 44.2633 46.5377 44.1485 46.8101 44.0249C46.8549 44.0041 46.8779 44.0041 46.9195 44.026L48.7045 44.9371C49.4274 45.3068 50.3013 45.1701 50.8832 44.5937L52.9449 42.5319C53.518 41.9533 53.6548 41.0783 53.2851 40.3565L52.3773 38.5769C52.351 38.5255 52.3532 38.5037 52.3751 38.4566C52.5009 38.1821 52.6146 37.9043 52.7141 37.6374C52.7349 37.5827 52.7568 37.5674 52.7962 37.5543L54.7015 36.9341C55.489 36.6793 55.9976 35.9793 55.9976 35.1502V32.2387C55.9976 31.4238 55.4759 30.7074 54.7004 30.4569ZM13.7241 6.44475H14.0249C14.5073 6.44475 14.8988 6.05318 14.8988 5.57084V5.36631C14.8988 3.94553 16.056 2.78943 17.4779 2.78943H23.1862C27.722 2.78943 31.4112 6.47975 31.4112 11.0144V13.611C31.0721 13.5115 30.7134 13.4601 30.3415 13.4644V13.0422C30.3415 12.0305 29.9631 11.1216 29.2477 10.4151C28.527 9.70193 27.6159 9.33006 26.6096 9.34428C22.6601 9.37818 19.357 9.02271 16.5121 8.2549C16.4596 8.24068 16.406 8.23193 16.3513 8.22756C15.4545 8.15756 14.212 8.47365 13.3807 10.3691C12.9629 11.3207 12.7266 12.4779 12.5429 13.4841C12.0735 13.4349 11.599 13.478 11.1462 13.611V9.02162C11.1473 7.60084 12.3034 6.44475 13.7241 6.44475ZM12.9607 19.8662C12.9487 19.4024 12.5757 19.0283 12.112 19.0141C11.0773 18.9846 10.2668 18.149 10.2668 17.1132C10.2668 16.0654 11.1188 15.2122 12.1677 15.2122C12.4193 15.2122 12.6687 15.2626 12.9082 15.3599C13.1521 15.4605 13.4277 15.4452 13.6596 15.3194C13.8915 15.1937 14.0534 14.9694 14.1004 14.7102C14.1299 14.5516 14.1595 14.3865 14.189 14.2158C14.5718 12.0633 15.0388 9.96662 16.1479 9.96662H16.1501C19.1295 10.7596 22.5584 11.1282 26.6293 11.091C27.1718 11.0844 27.6279 11.2693 28.0195 11.6565C28.4056 12.0382 28.5937 12.491 28.5937 13.0412V14.4947C28.5937 14.7791 28.7315 15.0449 28.9634 15.209C29.1952 15.373 29.4927 15.4135 29.7596 15.3183C29.9609 15.2472 30.1741 15.2101 30.3907 15.2101C31.4385 15.2101 32.2916 16.0621 32.2916 17.111C32.2916 18.1468 31.4812 18.9813 30.4465 19.0119C29.9827 19.0251 29.6098 19.3991 29.5977 19.864C29.4829 24.333 25.751 27.9687 21.2787 27.9687C16.8063 27.9687 13.0756 24.3352 12.9607 19.8662ZM21.2798 29.7197C22.5638 29.7197 23.814 29.4758 24.9788 29.0132V30.0172C24.9788 32.0571 23.3196 33.7163 21.2798 33.7163C19.2399 33.7163 17.5807 32.0571 17.5807 30.0172V29.0132C18.7579 29.4808 20.0131 29.7205 21.2798 29.7197ZM10.6212 53.2113L8.83836 38.3494C8.82961 38.2805 8.84492 38.2499 8.87993 38.2116C8.92258 38.1635 8.95321 38.1504 9.01555 38.1504H33.544C33.6063 38.1504 33.637 38.1646 33.6796 38.2116C33.7146 38.2499 33.7288 38.2805 33.7212 38.3494L31.9384 53.2113H10.6212ZM40.2268 52.2751C39.7379 52.8701 39.0095 53.2113 38.2296 53.2113H33.6993L35.458 38.5572C35.5248 37.9994 35.3563 37.4624 34.9845 37.0457C34.6071 36.6235 34.1095 36.4004 33.5451 36.4004H9.01446C8.45008 36.4004 7.95243 36.6235 7.57508 37.0457C7.20321 37.4624 7.03477 37.9994 7.10149 38.5572L8.85914 53.2113H4.32993C3.55008 53.2113 2.82164 52.8701 2.33274 52.2751C1.84274 51.6801 1.64914 50.8991 1.79899 50.1335L4.32883 37.3049C4.52789 36.2987 5.21039 35.5713 6.20243 35.311L13.384 33.4199C14.1781 33.2121 14.8409 32.8227 15.4063 32.2299L16.0549 31.5529C16.7199 33.8104 18.8101 35.463 21.2798 35.463C23.7495 35.463 25.8396 33.8104 26.5046 31.5529L27.1521 32.2277C27.7198 32.8216 28.3815 33.211 29.1745 33.4177L36.3582 35.3088C37.3491 35.5691 38.0316 36.2965 38.2307 37.3016L38.3335 37.8233L38.3401 37.8583L40.1306 46.9387L40.1338 46.9551L40.7605 50.1313C40.9104 50.8991 40.7157 51.6801 40.2268 52.2751ZM38.0152 33.6977C38.0152 31.4741 39.8232 29.664 42.0457 29.664C44.2693 29.664 46.0795 31.473 46.0795 33.6977C46.0795 35.9202 44.2704 37.7282 42.0457 37.7282C41.3085 37.7282 40.6031 37.5335 39.984 37.1627L39.9457 36.9658C39.7073 35.7605 39.0226 34.774 38.0404 34.1571C38.0238 34.0045 38.0154 33.8512 38.0152 33.6977ZM54.2487 35.1513C54.2487 35.2158 54.2224 35.2519 54.1612 35.2716L52.2515 35.8929C51.7013 36.0744 51.2846 36.4737 51.0757 37.0249C50.9882 37.2612 50.8931 37.4919 50.7859 37.726C50.542 38.2543 50.5507 38.834 50.8165 39.3644L51.7287 41.1505C51.7462 41.1855 51.7637 41.2391 51.7057 41.2971L49.6506 43.3522C49.5893 43.4124 49.5357 43.396 49.5007 43.3774L47.7113 42.4641C47.1885 42.1994 46.6077 42.1896 46.0795 42.4335C45.8501 42.5386 45.617 42.6352 45.3806 42.7233C44.8304 42.9235 44.4268 43.3413 44.2409 43.9046L43.624 45.8099C43.6043 45.869 43.5649 45.8974 43.5037 45.8974H41.7077L40.3941 39.2343C40.9246 39.3918 41.4791 39.4738 42.0468 39.4738C45.2351 39.4738 47.8295 36.8816 47.8295 33.6944C47.8295 30.5062 45.2351 27.9118 42.0468 27.9118C38.9329 27.9118 36.3877 30.3891 36.2729 33.4779L30.4563 31.9466L31.841 31.4982C32.3999 31.3144 32.8177 30.9097 33.0157 30.3662C33.1043 30.1299 33.2027 29.8926 33.3066 29.664C33.5527 29.1324 33.5418 28.5516 33.276 28.0255L32.3638 26.2394C32.3463 26.2044 32.3288 26.1508 32.3868 26.0929L34.442 24.0377C34.5032 23.9776 34.5568 23.994 34.5918 24.0126L36.3845 24.9269C36.9084 25.1883 37.488 25.1982 38.0131 24.9554C38.2467 24.8487 38.4842 24.7506 38.7251 24.6612C39.2687 24.4544 39.669 24.0388 39.8516 23.4843L40.4718 21.5768C40.4915 21.5166 40.5276 21.4904 40.5921 21.4904H43.5037C43.566 21.4904 43.6043 21.5177 43.624 21.5768L44.243 23.4887C44.4246 24.041 44.8271 24.4577 45.3751 24.6633C45.6113 24.7519 45.8487 24.8504 46.0773 24.9543C46.6056 25.1993 47.1852 25.1894 47.7157 24.9237L49.5018 24.0115C49.5368 23.994 49.5904 23.9765 49.6484 24.0344L51.7035 26.0896C51.7637 26.1508 51.7473 26.2044 51.7287 26.2405L50.823 28.0212C50.5529 28.5451 50.5398 29.128 50.7859 29.6596C50.8924 29.8914 50.9901 30.1271 51.079 30.3662C51.2846 30.913 51.7013 31.3155 52.258 31.4982L54.1645 32.1151C54.2235 32.1336 54.2509 32.1719 54.2509 32.2354V35.1513H54.2487ZM21.2798 42.8622C19.7277 42.8622 18.4645 44.1266 18.4645 45.6808C18.4645 47.2329 19.7277 48.4962 21.2798 48.4962C22.8318 48.4962 24.0951 47.2329 24.0951 45.6808C24.094 44.1266 22.8318 42.8622 21.2798 42.8622ZM21.2798 46.7472C20.6913 46.7472 20.2134 46.2693 20.2134 45.6808C20.2134 45.0913 20.6913 44.6112 21.2798 44.6112C21.8682 44.6112 22.3462 45.0913 22.3462 45.6808C22.3462 46.2682 21.8671 46.7472 21.2798 46.7472Z" fill="#21409C"/>
</svg>
