<svg width="56" height="56" viewBox="0 0 56 56" fill="none" xmlns="http://www.w3.org/2000/svg">
<g clip-path="url(#clip0_3347_2932)">
<path d="M27.9676 0.00244141C26.9638 0.00244141 25.9608 0.0564036 24.9627 0.163978C24.0479 0.257418 23.1443 0.410662 22.2529 0.596609C22.08 0.632825 21.9074 0.670827 21.7352 0.710607C16.483 1.90643 11.6872 4.59179 7.92279 8.44472C7.57093 8.80545 7.22821 9.17497 6.89493 9.55293C-3.27378 21.227 -2.05344 38.934 9.62072 49.1028C20.7972 58.838 37.6207 58.1902 48.0155 47.6245C48.3677 47.2641 48.7104 46.8946 49.0434 46.5163C53.531 41.4058 56.004 34.8358 56 28.0346C56 12.5527 43.4495 0.00232461 27.9676 0.00244141ZM9.16835 9.84633C9.31599 9.69309 9.46923 9.54639 9.61967 9.39781C9.79347 9.22682 9.96634 9.05489 10.1439 8.8895C10.2999 8.74373 10.4606 8.60357 10.6204 8.46154C10.8008 8.30175 10.9802 8.14197 11.1652 7.98779C11.3278 7.85043 11.495 7.71868 11.6614 7.58599C11.8482 7.43649 12.0351 7.28698 12.2276 7.14308C12.3976 7.01547 12.5699 6.89086 12.7443 6.76932C12.9378 6.63103 13.1321 6.489 13.3293 6.36005C13.5059 6.24098 13.6841 6.12417 13.8638 6.00964C14.0627 5.8814 14.2639 5.75679 14.4674 5.63588C14.8539 5.40514 15.2455 5.183 15.6419 4.96965C15.8288 4.87002 16.0157 4.77249 16.2026 4.67718C16.4158 4.57002 16.6304 4.46567 16.8464 4.36415C17.0333 4.27538 17.2276 4.18661 17.4201 4.10251C17.6397 4.00907 17.8621 3.91563 18.0845 3.82219C18.2779 3.74277 18.4704 3.66521 18.6657 3.59046C18.8918 3.50449 19.1208 3.42413 19.3497 3.34377C19.5452 3.27471 19.7414 3.20774 19.9384 3.14288C20.171 3.06812 20.4056 2.99898 20.641 2.93076C20.8382 2.87377 21.0335 2.8149 21.2316 2.76164C21.3073 2.74201 21.383 2.72613 21.4586 2.70651C18.6928 5.39217 16.6402 8.72515 15.4868 12.4038C13.269 11.8189 11.122 10.9926 9.08426 9.93977C9.11509 9.90707 9.14126 9.87436 9.16835 9.84633ZM7.82467 11.3507C10.0692 12.5669 12.4494 13.5141 14.9159 14.1726C13.7067 18.377 13.0721 22.7256 13.0293 27.1002H1.82576C2.02931 21.3316 4.13892 15.793 7.82467 11.3507ZM7.82467 44.7185C4.13914 40.2761 2.02956 34.7376 1.82576 28.969H13.0293C13.0721 33.3436 13.7067 37.6922 14.9159 41.8966C12.4495 42.5553 10.0693 43.5025 7.82467 44.7185ZM21.226 53.3113C21.0372 53.2637 20.8419 53.202 20.6476 53.145C20.4112 53.0759 20.1738 53.0067 19.9402 52.931C19.7431 52.8675 19.5487 52.7993 19.3544 52.7311C19.1241 52.6523 18.8951 52.5697 18.6676 52.4835C18.4738 52.4092 18.281 52.3325 18.0892 52.2536C17.8658 52.1601 17.6425 52.0667 17.4211 51.9733C17.2303 51.8891 17.0406 51.8025 16.852 51.7135C16.6343 51.6107 16.4175 51.5061 16.1979 51.3977C16.011 51.3042 15.8242 51.2108 15.6373 51.1089C15.4261 50.9959 15.2168 50.88 15.0075 50.7604C14.8206 50.6567 14.6431 50.5502 14.4627 50.4418C14.2577 50.3182 14.0546 50.1914 13.8535 50.0615C13.6759 49.9484 13.4984 49.8335 13.3237 49.7157C13.1246 49.5802 12.9274 49.4419 12.7322 49.3008C12.5612 49.1784 12.3902 49.056 12.222 48.9271C12.0291 48.7808 11.8385 48.6316 11.6501 48.4795C11.4848 48.3478 11.3203 48.2169 11.1586 48.0814C10.9718 47.9263 10.7914 47.7647 10.6101 47.604C10.4513 47.4629 10.2915 47.3236 10.1364 47.1797C9.95793 47.0134 9.78506 46.8405 9.61127 46.6696C9.46082 46.521 9.30758 46.3743 9.15994 46.222C9.13285 46.193 9.10668 46.1631 9.07959 46.1351C11.1172 45.0817 13.2642 44.2551 15.4822 43.6701C16.6358 47.3487 18.6883 50.6816 21.454 53.3674C21.3783 53.3478 21.3017 53.3319 21.226 53.3113ZM27.0333 54.1243C23.035 53.5562 19.53 49.3831 17.3248 43.2206C20.5131 42.5067 23.7665 42.1238 27.0333 42.0779V54.1243ZM27.0333 40.209C23.5679 40.2546 20.117 40.6662 16.738 41.4369C15.5647 37.383 14.9458 33.189 14.8982 28.969H27.0333V40.209ZM27.0333 27.1002H14.8982C14.9457 22.8803 15.5646 18.6862 16.738 14.6324C20.117 15.4029 23.5679 15.8145 27.0333 15.8602V27.1002ZM27.0333 13.9914C23.7664 13.9458 20.513 13.5628 17.3248 12.8486C19.53 6.68616 23.035 2.51308 27.0333 1.94496V13.9914ZM48.1108 11.3507C51.7964 15.7931 53.9059 21.3316 54.1097 27.1002H42.9062C42.8634 22.7256 42.2288 18.377 41.0196 14.1726C43.486 13.5138 45.8661 12.5666 48.1108 11.3507ZM34.702 2.75696C34.8983 2.80555 35.0936 2.86723 35.2879 2.92422C35.5243 2.99337 35.7617 3.06252 35.9953 3.1382C36.1924 3.20174 36.3868 3.26996 36.5811 3.33817C36.811 3.41759 37.0409 3.49889 37.2679 3.58579C37.4623 3.6596 37.6538 3.73716 37.8463 3.81565C38.0697 3.90909 38.293 4.00253 38.5144 4.09597C38.7051 4.18007 38.8947 4.26662 39.0835 4.35574C39.3012 4.45852 39.518 4.56318 39.7376 4.67157C39.9245 4.76501 40.1113 4.85845 40.2982 4.9603C40.5094 5.07337 40.7187 5.18923 40.928 5.30884C41.1149 5.41256 41.2924 5.51908 41.4728 5.62747C41.6778 5.75104 41.8809 5.87782 42.082 6.00778C42.2595 6.12084 42.4371 6.23577 42.6118 6.35351C42.8106 6.48872 43.0075 6.62672 43.2024 6.76745C43.3749 6.88954 43.5456 7.01414 43.7144 7.14122C43.9069 7.28605 44.0957 7.43649 44.2854 7.58786C44.4498 7.71868 44.6152 7.8495 44.7769 7.98592C44.9637 8.14103 45.1441 8.30269 45.3253 8.4634C45.4842 8.6045 45.644 8.74373 45.7991 8.88763C45.9776 9.05395 46.1504 9.22682 46.3242 9.39781C46.4747 9.54639 46.6279 9.69309 46.7756 9.8454C46.8027 9.87436 46.8288 9.90427 46.8559 9.9323C44.8183 10.9856 42.6712 11.8122 40.4533 12.3973C39.2975 8.71826 37.2424 5.38559 34.474 2.7009C34.5497 2.72052 34.6264 2.73641 34.702 2.75696ZM28.9022 1.94496C32.9005 2.51308 36.4055 6.68616 38.6107 12.8486C35.4224 13.5625 32.169 13.9455 28.9022 13.9914V1.94496ZM28.9022 15.8602C32.3676 15.8146 35.8185 15.4031 39.1975 14.6324C40.3708 18.6862 40.9897 22.8803 41.0373 27.1002H28.9022V15.8602ZM28.9022 28.969H41.0373C40.9898 33.189 40.3709 37.383 39.1975 41.4369C35.8185 40.6663 32.3676 40.2547 28.9022 40.209V28.969ZM28.9022 54.1243V42.0779C32.1691 42.1234 35.4225 42.5064 38.6107 43.2206C36.4055 49.3831 32.9005 53.5562 28.9022 54.1243ZM46.7671 46.2229C46.6195 46.3752 46.4672 46.5219 46.3168 46.6705C46.143 46.8415 45.9692 47.0144 45.7907 47.1807C45.6356 47.3255 45.4758 47.461 45.3169 47.6058C45.1357 47.7665 44.9553 47.9273 44.7703 48.0824C44.6068 48.2188 44.4405 48.3506 44.2741 48.4832C44.0873 48.6327 43.9004 48.7823 43.7079 48.9262C43.5378 49.0538 43.3656 49.1784 43.1912 49.2999C42.9977 49.4382 42.8034 49.5802 42.6062 49.7092C42.4298 49.8283 42.2516 49.9448 42.0717 50.0587C41.8726 50.1871 41.6711 50.3117 41.4672 50.4324C41.2803 50.5417 41.1018 50.6483 40.9177 50.7539C40.528 50.9758 40.1329 51.1883 39.7329 51.3911C39.5197 51.4983 39.3051 51.6026 39.0891 51.7042C38.9022 51.7929 38.7079 51.8817 38.5154 51.9658C38.2958 52.0592 38.0734 52.1527 37.851 52.2461C37.6576 52.3246 37.4651 52.4031 37.2707 52.4769C37.0427 52.5638 36.8138 52.6451 36.5839 52.7245C36.3895 52.7937 36.1942 52.8604 35.9981 52.9245C35.7645 53.0002 35.5309 53.0693 35.2926 53.1375C35.0973 53.1955 34.9011 53.2534 34.7039 53.3067C34.6282 53.3263 34.5525 53.3422 34.4768 53.3618C37.2427 50.6761 39.2953 47.3432 40.4487 43.6645C42.6665 44.2494 44.8135 45.0757 46.8512 46.1285C46.8204 46.1622 46.7942 46.1949 46.7671 46.2229ZM48.1108 44.7185C45.8663 43.5023 43.4861 42.5551 41.0196 41.8966C42.2288 37.6922 42.8634 33.3436 42.9062 28.969H54.1097C53.9062 34.7377 51.7966 40.2762 48.1108 44.7185Z" fill="#21409C"/>
</g>
<defs>
<clipPath id="clip0_3347_2932">
<rect width="56" height="56" fill="white"/>
</clipPath>
</defs>
</svg>
