<svg width="56" height="56" viewBox="0 0 56 56" fill="none" xmlns="http://www.w3.org/2000/svg">
<g clip-path="url(#clip0_3347_2990)">
<path d="M52.7065 17.1623C52.7974 16.8853 52.8437 16.5956 52.8437 16.3041V2.772C52.8437 1.24348 51.5956 0 50.0616 0H33.0597C31.5257 0 30.2776 1.24348 30.2776 2.772V3.74566C26.61 3.67216 22.7978 4.4333 19.4274 5.91139C16.3417 7.25813 13.5826 9.16322 11.2192 11.5732H8.3125C8.09494 11.5732 7.88629 11.6596 7.73245 11.8135C7.57861 11.9673 7.49219 12.1759 7.49219 12.3935C7.49219 12.6111 7.57861 12.8197 7.73245 12.9735C7.88629 13.1274 8.09494 13.2138 8.3125 13.2138H19.784C20.4133 13.2138 20.9254 13.7214 20.9254 14.3452V27.8772C20.9254 28.501 20.4133 29.0087 19.784 29.0087H18.2145C17.0411 29.0087 16.0863 29.9603 16.0863 31.1301V33.0409L11.0492 29.4109C10.6865 29.1486 10.25 29.0078 9.80241 29.0088H2.78206C2.15272 29.0088 1.64062 28.5012 1.64062 27.8773V14.3453C1.64062 13.7214 2.15272 13.2139 2.78206 13.2139H4.48438C4.70194 13.2139 4.91059 13.1275 5.06442 12.9737C5.21826 12.8198 5.30469 12.6112 5.30469 12.3936C5.30469 12.176 5.21826 11.9674 5.06442 11.8136C4.91059 11.6597 4.70194 11.5733 4.48438 11.5733H2.78206C1.24808 11.5733 0 12.8168 0 14.3453V27.8773C0 29.4058 1.24808 30.6494 2.78206 30.6494H3.75342C3.94789 37.3369 6.64289 43.5958 11.394 48.3469C16.3293 53.282 22.891 56 29.8704 56C33.4992 56 37.0118 55.27 40.3111 53.8304C43.4977 52.4401 46.3373 50.456 48.7512 47.9335C48.9016 47.7763 48.9834 47.5658 48.9786 47.3483C48.9739 47.1308 48.8829 46.9241 48.7257 46.7737C48.5685 46.6232 48.358 46.5414 48.1405 46.5462C47.923 46.551 47.7163 46.642 47.5659 46.7992C45.7635 48.6826 43.7186 50.2376 41.4997 51.4387C40.4572 50.0512 38.9273 48.3817 37.9046 46.7815L38.1001 46.6406C38.1838 46.5801 38.2844 46.5477 38.3876 46.548H45.4079C46.9419 46.548 48.19 45.3045 48.19 43.776V30.244C48.19 30.0608 48.1716 29.882 48.1374 29.7087C49.5472 28.0211 50.3195 25.8699 50.3195 23.5998C50.3097 22.0005 49.8583 20.435 49.015 19.0761H50.0615C50.6158 19.0768 51.1577 18.9114 51.6171 18.6012C53.4138 22.0654 54.3594 25.938 54.3594 29.8704C54.3594 34.9342 52.8275 39.7933 49.9292 43.9225C49.8673 44.0106 49.8234 44.1101 49.8 44.2153C49.7765 44.3204 49.774 44.4292 49.7926 44.5353C49.8112 44.6414 49.8505 44.7428 49.9083 44.8337C49.9661 44.9246 50.0412 45.0033 50.1294 45.0651C50.3742 45.241 50.9005 45.3114 51.272 44.865C54.3651 40.4582 56 35.2732 56 29.8704C56 25.4147 54.8623 21.03 52.7065 17.1623ZM19.784 11.5733H13.592C15.5185 9.85228 17.6712 8.46836 19.9824 7.44844L20.5308 8.08117C21.4514 9.28977 22.026 11.0248 21.8376 12.4774C21.3286 11.9222 20.5964 11.5733 19.784 11.5733ZM38.8892 50.7968C39.2814 51.2746 39.6585 51.7345 40.0048 52.1835C36.8691 53.6094 33.4343 54.3594 29.8704 54.3594C20.6917 54.3594 12.6778 49.2825 8.48509 41.7903C9.64163 40.8365 11.1314 39.6772 12.3216 39.8152C12.8074 39.8717 13.2374 40.1555 13.6363 40.6833C14.6345 42.0028 16.3189 42.26 17.4989 42.3386C19.2609 42.2297 20.8311 41.3296 21.8115 39.8785C21.8734 39.7897 21.9171 39.6895 21.9401 39.5837C21.9631 39.4779 21.9649 39.3687 21.9455 39.2622C21.9261 39.1557 21.8858 39.0541 21.8269 38.9633C21.7681 38.8724 21.6918 38.7941 21.6025 38.7329C21.5133 38.6717 21.4128 38.6287 21.3068 38.6065C21.2009 38.5843 21.0916 38.5833 20.9853 38.6035C20.8789 38.6237 20.7777 38.6648 20.6873 38.7243C20.5969 38.7838 20.5192 38.8607 20.4586 38.9504C19.7537 39.9781 18.8227 40.5342 17.5333 40.6964C16.1941 40.598 15.394 40.2875 14.9449 39.6937C14.271 38.8023 13.4521 38.2948 12.5109 38.1854C10.7734 37.9841 9.06467 39.2048 7.71641 40.2992C6.32472 37.3547 5.5032 34.0905 5.39503 30.6493H9.8023C9.90642 30.6493 10.0058 30.6812 10.0898 30.7418L15.3894 34.561C15.6402 34.7425 15.9419 34.8404 16.2516 34.8406C16.4813 34.8406 16.7121 34.7866 16.9257 34.6773C17.1672 34.5547 17.37 34.3674 17.5114 34.1364C17.6528 33.9053 17.7274 33.6396 17.7268 33.3687V31.1301C17.7268 30.865 17.9456 30.6493 18.2144 30.6493H19.7839C21.3178 30.6493 22.5659 29.4057 22.5659 27.8772V24.3764C23.5423 24.9785 25.0888 25.513 26.3477 25.4788C27.734 25.4786 29.0877 25.0578 30.2298 24.272C31.7517 23.2268 32.7995 21.5953 33.1048 19.796C33.1443 19.5624 33.179 19.3217 33.2088 19.076H34.629C34.8978 19.076 35.1165 19.2917 35.1165 19.5568V21.7954C35.1165 22.3496 35.4235 22.8511 35.9177 23.104C36.3346 23.2992 36.8426 23.3653 37.4538 22.9878L40.8307 20.5543C40.7002 21.8247 40.3585 23.1614 38.8025 24.7142C38.0718 25.458 37.6523 26.4517 37.63 27.4718H28.4059C26.8719 27.4718 25.6238 28.7154 25.6238 30.2439V30.5985C24.1009 31.1791 22.8816 32.4605 22.3351 34.0747C22.216 34.4267 22.0295 35.0261 21.8563 35.5987C21.7927 35.8068 21.8143 36.0316 21.9165 36.2236C22.0186 36.4157 22.1928 36.5594 22.4009 36.623C22.7312 36.7158 23.1989 36.6014 23.4252 36.0784C23.5414 35.698 23.7009 35.1676 23.8892 34.6007C24.2051 33.6675 24.8299 32.8933 25.6239 32.4159V43.7758C25.6239 45.3043 26.872 46.5478 28.406 46.5478H29.9754C30.2443 46.5478 30.4629 46.7635 30.4629 47.0286V49.2671C30.4629 49.8213 30.7699 50.3227 31.2641 50.5758C31.4777 50.6851 31.7085 50.7391 31.9383 50.7391C32.2418 50.7391 32.5433 50.6448 32.8005 50.4595L36.5726 47.7412C37.2643 48.815 38.0873 49.8204 38.8892 50.7968ZM46.5496 43.7759C46.5496 44.3998 46.0375 44.9073 45.4081 44.9073H38.3878C37.9372 44.9073 37.506 45.0464 37.141 45.3096L32.1037 48.9396V47.0287C32.1037 45.859 31.149 44.9073 29.9756 44.9073H28.4062C27.7769 44.9073 27.2648 44.3997 27.2648 43.7759V30.244C27.2648 29.6202 27.7769 29.1126 28.4062 29.1126H38.5382L38.5407 29.1128L38.5443 29.1126H45.4082C46.0376 29.1126 46.5497 29.6202 46.5497 30.244L46.5496 43.7759ZM48.6791 23.6054C48.6791 25.2719 48.1763 26.8601 47.2511 28.1699C46.7428 27.7197 46.0871 27.4713 45.4081 27.4719H39.2715C39.2934 26.8795 39.5428 26.302 39.9674 25.8698C42.2777 23.5643 42.4181 21.5212 42.5309 19.8796C42.5447 19.6779 42.5586 19.4842 42.5756 19.2969L42.7535 19.1687C42.8372 19.1083 42.9379 19.0758 43.0411 19.0761H46.9887C48.0691 20.3409 48.6677 21.9396 48.6791 23.6054ZM50.0616 17.4355H43.0412C42.5936 17.4345 42.1572 17.5753 41.7945 17.8376L41.3044 18.1908L41.2988 18.1947L36.7572 21.4677V19.5568C36.7572 18.387 35.8025 17.4354 34.6291 17.4354H33.0597C32.4303 17.4354 31.9183 16.9277 31.9183 16.304V13.2344C31.9183 13.0168 31.8318 12.8082 31.678 12.6543C31.5241 12.5005 31.3155 12.4141 31.0979 12.4141C30.8804 12.4141 30.6717 12.5005 30.5179 12.6543C30.364 12.8082 30.2776 13.0168 30.2776 13.2344V16.304C30.2776 17.3009 30.8087 18.1763 31.6036 18.6647C31.5737 18.9516 31.5349 19.2374 31.4873 19.5218C31.256 20.8859 30.4591 22.1244 29.3011 22.9196C27.2583 24.3575 24.5059 23.9945 22.566 22.389V14.9717C24.3261 12.6504 23.4455 8.95814 21.5957 6.80466C24.2364 5.85747 27.304 5.32361 30.2775 5.38617V9.40625C30.2775 9.62381 30.3639 9.83246 30.5178 9.9863C30.6716 10.1401 30.8803 10.2266 31.0978 10.2266C31.3154 10.2266 31.524 10.1401 31.6779 9.9863C31.8317 9.83246 31.9181 9.62381 31.9181 9.40625V2.772C31.9181 2.14812 32.4302 1.64062 33.0596 1.64062H50.0615C50.6908 1.64062 51.2029 2.14823 51.2029 2.772V16.304C51.203 16.9279 50.6909 17.4355 50.0616 17.4355Z" fill="#21409C"/>
<path d="M46.6287 5.44173H42.3822V4.04688C42.3822 3.82931 42.2958 3.62066 42.142 3.46683C41.9881 3.31299 41.7795 3.22656 41.5619 3.22656C41.3444 3.22656 41.1357 3.31299 40.9819 3.46683C40.828 3.62066 40.7416 3.82931 40.7416 4.04688V5.44173H36.4951C36.2776 5.44173 36.0689 5.52816 35.9151 5.682C35.7612 5.83584 35.6748 6.04449 35.6748 6.26205C35.6748 6.47961 35.7612 6.68826 35.9151 6.8421C36.0689 6.99593 36.2776 7.08236 36.4951 7.08236H38.196C38.5839 8.80454 39.3557 10.4169 40.454 11.7989C39.6103 12.6038 38.6345 13.2575 37.5692 13.7315L36.439 14.2352C36.2672 14.3116 36.1269 14.4447 36.0416 14.6123C35.9563 14.7798 35.9311 14.9716 35.9703 15.1555C36.0094 15.3394 36.1106 15.5042 36.2568 15.6225C36.403 15.7407 36.5854 15.8051 36.7734 15.8049C36.8849 15.8049 36.9984 15.782 37.1068 15.7337L38.2369 15.23C39.4633 14.6845 40.5878 13.9339 41.5619 13.0105C42.5361 13.9339 43.6605 14.6845 44.8869 15.23L46.0171 15.7337C46.3054 15.8531 46.8462 15.8197 47.1002 15.3183C47.1888 15.1196 47.1948 14.8938 47.1169 14.6907C47.039 14.4876 46.8835 14.3237 46.6848 14.2352L45.5547 13.7315C44.4893 13.2575 43.5135 12.6038 42.6699 11.7989C43.7681 10.4169 44.5399 8.80453 44.9277 7.08236H46.6286C46.8462 7.08237 47.0548 6.99596 47.2087 6.84213C47.3625 6.68831 47.449 6.47966 47.449 6.2621C47.449 6.04454 47.3626 5.83589 47.2088 5.68204C47.0549 5.52819 46.8463 5.44175 46.6287 5.44173ZM41.5619 10.5488C40.7853 9.51181 40.2158 8.33487 39.8847 7.08236H43.2391C42.908 8.33486 42.3385 9.5118 41.5619 10.5488ZM7.10881 26.7987C7.20959 26.8368 7.31688 26.8546 7.42456 26.8511C7.53223 26.8477 7.63817 26.8231 7.73633 26.7787C7.83449 26.7344 7.92295 26.6711 7.99666 26.5925C8.07037 26.514 8.12788 26.4217 8.16591 26.3209L8.87784 24.4345H13.6843L14.4037 26.3233C14.4629 26.4787 14.5679 26.6125 14.7048 26.7069C14.8417 26.8013 15.0041 26.8519 15.1704 26.8519C15.3033 26.8519 15.4342 26.8196 15.5519 26.7577C15.6695 26.6959 15.7704 26.6064 15.8458 26.497C15.9212 26.3875 15.9689 26.2614 15.9847 26.1294C16.0006 25.9975 15.9841 25.8636 15.9368 25.7394L12.2406 16.0344L12.2332 16.0157C12.1553 15.8238 12.0218 15.6597 11.8499 15.5442C11.6781 15.4287 11.4756 15.3671 11.2686 15.3674H11.2675C11.0564 15.367 10.8503 15.4307 10.6763 15.5502C10.5024 15.6697 10.3689 15.8392 10.2936 16.0363L6.63095 25.7418C6.59292 25.8426 6.57511 25.9499 6.57854 26.0575C6.58198 26.1652 6.60658 26.2711 6.65096 26.3693C6.69533 26.4674 6.7586 26.5559 6.83716 26.6295C6.91572 26.7032 7.00803 26.7607 7.10881 26.7987ZM11.27 18.0954L13.0595 22.7939H9.4969L11.27 18.0954ZM43.1919 32.0469H39.3757C39.1582 32.0469 38.9495 32.1333 38.7957 32.2871C38.6419 32.441 38.5554 32.6496 38.5554 32.8672C38.5554 33.0847 38.6419 33.2934 38.7957 33.4472C38.9495 33.6011 39.1582 33.6875 39.3757 33.6875H40.4635V36.2578H37.2005C37.397 35.8579 37.4989 35.4182 37.4984 34.9727C37.4984 33.3594 36.1859 32.0469 34.5726 32.0469H32.204C31.9865 32.0469 31.7778 32.1333 31.624 32.2871C31.4701 32.441 31.3837 32.6496 31.3837 32.8672C31.3837 33.0847 31.4701 33.2934 31.624 33.4472C31.7778 33.6011 31.9865 33.6875 32.204 33.6875H34.5726C35.2813 33.6875 35.8578 34.264 35.8578 34.9727C35.8578 35.6813 35.2813 36.2578 34.5726 36.2578H31.9408C31.7232 36.2578 31.5145 36.3442 31.3607 36.4981C31.2069 36.6519 31.1204 36.8606 31.1204 37.0781C31.1204 37.2957 31.2069 37.5043 31.3607 37.6582C31.5145 37.812 31.7232 37.8984 31.9408 37.8984H34.5726C35.2813 37.8984 35.8578 38.475 35.8578 39.1836C35.8578 39.9043 35.2933 40.4688 34.5726 40.4688C33.4393 40.4688 32.1527 40.341 31.2049 39.3932C31.051 39.2393 30.8424 39.1529 30.6249 39.1529C30.4073 39.1529 30.1987 39.2393 30.0448 39.3932C29.891 39.547 29.8046 39.7556 29.8046 39.9732C29.8046 40.1907 29.891 40.3994 30.0448 40.5532C31.4242 41.9325 33.1892 42.1094 34.5726 42.1094C36.1859 42.1094 37.4984 40.7969 37.4984 39.1836C37.4984 38.7228 37.3911 38.2866 37.2005 37.8984H40.4635V41.2891C40.4635 41.5066 40.5499 41.7153 40.7037 41.8691C40.8576 42.0229 41.0662 42.1094 41.2838 42.1094C41.5013 42.1094 41.71 42.0229 41.8638 41.8691C42.0177 41.7153 42.1041 41.5066 42.1041 41.2891V33.6875H43.1918C43.4094 33.6875 43.618 33.6011 43.7719 33.4473C43.9257 33.2934 44.0122 33.0848 44.0122 32.8672C44.0122 32.6497 43.9258 32.441 43.772 32.2872C43.6181 32.1333 43.4095 32.0469 43.1919 32.0469Z" fill="#21409C"/>
</g>
<defs>
<clipPath id="clip0_3347_2990">
<rect width="56" height="56" fill="white"/>
</clipPath>
</defs>
</svg>
