<svg width="57" height="56" viewBox="0 0 57 56" fill="none" xmlns="http://www.w3.org/2000/svg">
<path fill-rule="evenodd" clip-rule="evenodd" d="M43.8458 25.4173C43.5255 25.7763 43.548 26.3323 43.903 26.6626L46.7937 29.3516C47.1522 29.6851 47.719 29.6648 48.0527 29.306L52.9919 23.9962L52.9915 23.9958C53.2866 23.7083 53.3079 23.1033 52.9319 22.7532L52.9161 22.7385L52.9155 22.7392L52.9036 22.7269L50.0412 20.0642C49.6874 19.735 49.131 19.7499 48.7943 20.0966C48.6851 20.2089 48.5362 20.274 48.3796 20.2779C48.223 20.2818 48.071 20.2242 47.9563 20.1174L47.9561 20.1177L44.4832 16.8869C44.3911 16.8012 44.3283 16.6887 44.3037 16.5653C44.279 16.4419 44.2938 16.3139 44.3458 16.1993C44.6052 15.6044 44.4541 14.8665 43.9627 14.4095C43.115 13.6209 42.2489 12.7539 41.3685 11.8726C36.3994 6.89838 30.9545 1.44943 24.4663 6.64605C29.136 7.19676 34.6358 9.73983 34.4315 15.1738C34.4154 15.5873 34.3686 15.9991 34.2915 16.4057C34.1565 17.1266 34.3784 17.8021 34.9155 18.3018L37.8245 21.0079C38.3215 21.4702 39.0553 21.561 39.6497 21.2543C39.7598 21.1975 39.8848 21.1763 40.0075 21.1934C40.1301 21.2105 40.2445 21.2652 40.3349 21.3499L43.806 24.579C43.9207 24.6858 43.9891 24.8332 43.9965 24.9898C44.0038 25.1464 43.9496 25.2997 43.8453 25.4168L43.8458 25.4173ZM47.3165 42.9337C47.5678 43.8789 47.6154 44.8667 47.456 45.8317L45.1743 43.7332C43.8576 42.5223 42.3471 42.4681 41.1238 43.0516C38.9077 44.1086 37.8223 47.1754 40.09 49.261L42.3733 51.3607C41.4243 51.5993 40.4356 51.6337 39.4723 51.4617C35.6865 50.7862 33.2078 47.1254 33.9609 43.3541C33.9823 43.2468 33.974 43.1358 33.937 43.033C33.8999 42.9301 33.8355 42.8393 33.7507 42.7703L12.4635 23.1932C12.3835 23.1196 12.2851 23.0691 12.1787 23.0471C12.0723 23.0251 11.962 23.0323 11.8594 23.0682C10.732 23.3873 9.54195 23.414 8.40139 23.1458C4.8863 22.3197 2.62256 18.9036 3.21056 15.3441L5.49234 17.4427C6.80889 18.6536 8.31936 18.7077 9.54283 18.1243C11.7588 17.0674 12.8443 14.0006 10.5766 11.915L8.29344 9.81519C9.24239 9.57667 10.2312 9.54226 11.1944 9.71424C14.9806 10.3897 17.4588 14.051 16.7058 17.8219C16.6844 17.9291 16.6927 18.0401 16.7297 18.143C16.7668 18.2458 16.8312 18.3367 16.916 18.4056L38.2032 37.9828C38.2832 38.0563 38.3816 38.1068 38.488 38.1289C38.5944 38.1509 38.7047 38.1436 38.8073 38.1078C39.9347 37.7887 41.1248 37.7619 42.2653 38.0301C44.7208 38.6072 46.6692 40.5025 47.3165 42.9338V42.9337ZM27.3299 26.3528L34.0475 19.1318C34.0643 19.1479 34.0811 19.164 34.0983 19.18L36.7444 21.6416L30.0417 28.8468L27.33 26.3529L27.3299 26.3528ZM25.6962 36.9929L19.5 31.2945L7.08211 44.6431C6.51238 45.2555 6.54727 46.2234 7.15988 46.7934L11.0954 50.4546C11.7078 51.0243 12.6757 50.9894 13.2456 50.3768L25.6961 36.993L25.6962 36.9929ZM46.1445 38.7751C48.4667 40.9107 49.3105 44.1807 48.3741 47.1449C48.2448 47.5541 47.7206 47.7242 47.3701 47.3826L44.3618 44.616C41.877 42.3309 38.4138 46.0892 40.9025 48.378L43.9358 51.1675C44.2518 51.4582 44.1816 52.0053 43.725 52.1762C42.3125 52.7495 40.7667 52.912 39.2658 52.6451C34.9479 51.8747 32.045 47.784 32.7226 43.4547L26.5793 37.8049L14.124 51.1938C13.1046 52.2896 11.3744 52.3522 10.2785 51.3326L6.34295 47.6714C5.24724 46.652 5.18467 44.9219 6.20416 43.8259L18.6172 30.4824L11.8926 24.298C7.63019 25.3361 3.31841 22.7839 2.19042 18.5473C1.797 17.0696 1.82839 15.4986 2.2928 14.0308C2.42208 13.6217 2.94631 13.4515 3.29686 13.7932L6.30511 16.5597C8.78989 18.8449 12.2531 15.0865 9.76442 12.7977L6.73124 10.0082C6.41525 9.71752 6.48547 9.17043 6.942 8.99948C8.35452 8.42624 9.90025 8.2637 11.4011 8.53059C15.7191 9.30102 18.6218 13.3918 17.9445 17.721L26.4472 25.5407L33.3366 18.1348C33.0614 17.5331 32.9855 16.864 33.1129 16.1848C34.0317 11.2846 29.6656 8.7979 25.4601 8.00952C24.649 7.85734 23.8279 7.76456 23.0034 7.73193C22.4505 7.71924 22.2146 7.06376 22.592 6.70041C31.6154 -1.9867 38.4749 7.66543 44.78 13.5309C45.5364 14.2346 45.8313 15.2907 45.5828 16.2709L48.4058 18.8971C49.1866 18.4577 50.1846 18.5586 50.8585 19.1856L53.7202 21.8476C53.7358 21.8604 53.751 21.8741 53.7656 21.8887L53.7649 21.8894C54.6152 22.6969 54.6136 24.0735 53.8417 24.8454L53.841 24.8449L48.931 30.123C48.1478 30.9648 46.8187 31.0129 45.9765 30.2296L43.0858 27.5405C42.4132 26.9148 42.2383 25.9251 42.6206 25.1145L39.7981 22.4889C39.1147 22.7155 38.3626 22.6715 37.7112 22.3632L30.9247 29.6584L38.7744 36.8775C41.3777 36.2435 44.1366 36.9281 46.1446 38.7749L46.1445 38.7751ZM30.5611 38.2177L17.9131 26.5858C16.6073 25.3848 17.3849 23.1592 19.1977 23.0834C19.714 23.0618 20.2389 23.2364 20.6479 23.6125L33.2959 35.2444C34.6017 36.4454 33.8241 38.6711 32.0113 38.7468C31.4949 38.7684 30.97 38.5938 30.5611 38.2177ZM18.7255 25.7028C18.6464 25.6301 18.5824 25.5425 18.5373 25.4451C18.4921 25.3476 18.4666 25.2422 18.4623 25.1349C18.4314 24.3958 19.3067 24.0091 19.8355 24.4954L32.4835 36.1274C32.5626 36.2001 32.6265 36.2877 32.6717 36.3851C32.7169 36.4826 32.7424 36.588 32.7467 36.6953C32.7776 37.4346 31.9021 37.821 31.3735 37.3348L18.7255 25.7028Z" fill="#21409C"/>
</svg>
