<svg width="57" height="56" viewBox="0 0 57 56" fill="none" xmlns="http://www.w3.org/2000/svg">
<path d="M16.4142 22.0213C16.4142 21.8023 16.3272 21.5923 16.1724 21.4374C16.0175 21.2826 15.8075 21.1956 15.5885 21.1956H9.64994C9.43094 21.1956 9.22092 21.2826 9.06607 21.4374C8.91121 21.5923 8.82422 21.8023 8.82422 22.0213V27.9597C8.82422 28.1787 8.91121 28.3887 9.06607 28.5436C9.22092 28.6985 9.43094 28.7854 9.64994 28.7854H15.5885C15.8075 28.7854 16.0175 28.6985 16.1724 28.5436C16.3272 28.3887 16.4142 28.1787 16.4142 27.9597V22.0213ZM14.7628 27.134H10.4757V22.847H14.7628V27.134ZM27.0005 22.0213C27.0005 21.9128 26.9791 21.8055 26.9376 21.7053C26.8961 21.6051 26.8353 21.5141 26.7586 21.4374C26.682 21.3607 26.5909 21.2999 26.4908 21.2584C26.3906 21.2169 26.2832 21.1956 26.1748 21.1956H20.2362C20.0172 21.1956 19.8072 21.2826 19.6523 21.4374C19.4975 21.5923 19.4105 21.8023 19.4105 22.0213V27.9597C19.4105 28.1787 19.4975 28.3887 19.6523 28.5436C19.8072 28.6985 20.0172 28.7854 20.2362 28.7854H26.1748C26.2832 28.7854 26.3906 28.7641 26.4908 28.7226C26.5909 28.6811 26.682 28.6203 26.7586 28.5436C26.8353 28.4669 26.8961 28.3759 26.9376 28.2757C26.9791 28.1755 27.0005 28.0682 27.0005 27.9597V22.0213ZM25.349 27.134H21.0619V22.847H25.349V27.134ZM37.5866 22.0213C37.5866 21.8023 37.4996 21.5923 37.3448 21.4374C37.1899 21.2826 36.9799 21.1956 36.7609 21.1956H30.8223C30.7139 21.1955 30.6065 21.2169 30.5063 21.2584C30.4062 21.2999 30.3151 21.3607 30.2384 21.4374C30.1618 21.514 30.1009 21.6051 30.0595 21.7053C30.018 21.8055 29.9966 21.9128 29.9966 22.0213V27.9597C29.9966 28.4159 30.3662 28.7854 30.8223 28.7854H36.7609C36.9799 28.7854 37.1899 28.6985 37.3448 28.5436C37.4996 28.3887 37.5866 28.1787 37.5866 27.9597V22.0213ZM35.9352 27.134H31.6481V22.847H35.9352V27.134ZM41.4086 28.7854H47.3472C47.8033 28.7854 48.1729 28.4159 48.1729 27.9597V22.0213C48.1729 21.5651 47.8033 21.1956 47.3472 21.1956H41.4086C41.3002 21.1955 41.1928 21.2169 41.0926 21.2584C40.9924 21.2999 40.9014 21.3607 40.8247 21.4374C40.748 21.514 40.6872 21.6051 40.6457 21.7053C40.6042 21.8055 40.5829 21.9128 40.5829 22.0213V27.9597C40.5829 28.4159 40.9525 28.7854 41.4086 28.7854ZM42.2343 22.847H46.5215V27.134H42.2343V22.847ZM16.4142 32.7684C16.4142 32.5494 16.3272 32.3394 16.1724 32.1845C16.0175 32.0297 15.8075 31.9427 15.5885 31.9427H9.64994C9.43094 31.9427 9.22092 32.0297 9.06607 32.1845C8.91121 32.3394 8.82422 32.5494 8.82422 32.7684V38.7068C8.82422 38.9258 8.91121 39.1359 9.06607 39.2907C9.22092 39.4456 9.43094 39.5326 9.64994 39.5326H15.5885C15.8075 39.5326 16.0175 39.4456 16.1724 39.2907C16.3272 39.1359 16.4142 38.9258 16.4142 38.7068V32.7684ZM14.7628 37.8811H10.4757V33.5941H14.7628V37.8811ZM27.0005 32.7684C27.0005 32.6599 26.9791 32.5526 26.9376 32.4524C26.8961 32.3522 26.8353 32.2612 26.7586 32.1845C26.682 32.1078 26.5909 32.047 26.4908 32.0055C26.3906 31.964 26.2832 31.9427 26.1748 31.9427H20.2362C20.0172 31.9427 19.8072 32.0297 19.6523 32.1845C19.4975 32.3394 19.4105 32.5494 19.4105 32.7684V38.7068C19.4105 38.9258 19.4975 39.1359 19.6523 39.2907C19.8072 39.4456 20.0172 39.5326 20.2362 39.5326H26.1748C26.2832 39.5326 26.3906 39.5112 26.4908 39.4697C26.5909 39.4282 26.682 39.3674 26.7586 39.2907C26.8353 39.214 26.8961 39.123 26.9376 39.0228C26.9791 38.9226 27.0005 38.8153 27.0005 38.7068V32.7684ZM25.349 37.8811H21.0619V33.5941H25.349V37.8811ZM37.5866 32.7684C37.5866 32.5494 37.4996 32.3394 37.3448 32.1845C37.1899 32.0297 36.9799 31.9427 36.7609 31.9427H30.8223C30.7139 31.9426 30.6065 31.964 30.5063 32.0055C30.4062 32.047 30.3151 32.1078 30.2384 32.1845C30.1618 32.2612 30.1009 32.3522 30.0595 32.4524C30.018 32.5526 29.9966 32.6599 29.9966 32.7684V38.7068C29.9966 39.163 30.3662 39.5326 30.8223 39.5326H36.7609C36.9799 39.5326 37.1899 39.4456 37.3448 39.2907C37.4996 39.1359 37.5866 38.9258 37.5866 38.7068V32.7684ZM35.9352 37.8811H31.6481V33.5941H35.9352V37.8811ZM40.5829 38.7068C40.5829 39.163 40.9525 39.5326 41.4086 39.5326H47.3472C47.8033 39.5326 48.1729 39.163 48.1729 38.7068V32.7684C48.1729 32.3123 47.8033 31.9427 47.3472 31.9427H41.4086C41.3002 31.9426 41.1928 31.964 41.0926 32.0055C40.9924 32.047 40.9014 32.1078 40.8247 32.1845C40.748 32.2612 40.6872 32.3522 40.6457 32.4524C40.6042 32.5526 40.5829 32.6599 40.5829 32.7684V38.7068ZM42.2343 33.5941H46.5215V37.8811H42.2343V33.5941ZM15.5885 42.6898H9.64994C9.43094 42.6898 9.22092 42.7768 9.06607 42.9316C8.91121 43.0865 8.82422 43.2965 8.82422 43.5155V49.454C8.82422 49.6729 8.91121 49.883 9.06607 50.0378C9.22092 50.1927 9.43094 50.2797 9.64994 50.2797H15.5885C15.8075 50.2797 16.0175 50.1927 16.1724 50.0378C16.3272 49.883 16.4142 49.6729 16.4142 49.454V43.5155C16.4142 43.2965 16.3272 43.0865 16.1724 42.9316C16.0175 42.7768 15.8075 42.6898 15.5885 42.6898ZM14.7628 48.6282H10.4757V44.3412H14.7628V48.6282ZM26.1748 42.6898H20.2362C20.0172 42.6898 19.8072 42.7768 19.6523 42.9316C19.4975 43.0865 19.4105 43.2965 19.4105 43.5155V49.454C19.4105 49.6729 19.4975 49.883 19.6523 50.0378C19.8072 50.1927 20.0172 50.2797 20.2362 50.2797H26.1748C26.2832 50.2797 26.3906 50.2583 26.4908 50.2168C26.5909 50.1753 26.682 50.1145 26.7586 50.0378C26.8353 49.9611 26.8961 49.8701 26.9376 49.7699C26.9791 49.6698 27.0005 49.5624 27.0005 49.454V43.5155C27.0005 43.4071 26.9791 43.2997 26.9376 43.1995C26.8961 43.0993 26.8353 43.0083 26.7586 42.9316C26.682 42.8549 26.5909 42.7941 26.4908 42.7526C26.3906 42.7111 26.2832 42.6898 26.1748 42.6898ZM25.349 48.6282H21.0619V44.3412H25.349V48.6282ZM36.7609 42.6898H30.8223C30.7139 42.6898 30.6065 42.7111 30.5063 42.7526C30.4062 42.7941 30.3151 42.8549 30.2384 42.9316C30.1618 43.0083 30.1009 43.0993 30.0595 43.1995C30.018 43.2997 29.9966 43.4071 29.9966 43.5155V49.454C29.9966 49.9101 30.3662 50.2797 30.8223 50.2797H36.7609C36.9799 50.2797 37.1899 50.1927 37.3448 50.0378C37.4996 49.883 37.5866 49.6729 37.5866 49.454V43.5155C37.5866 43.0594 37.217 42.6898 36.7609 42.6898ZM35.9352 48.6282H31.6481V44.3412H35.9352V48.6282ZM40.5829 49.454C40.5829 49.9101 40.9525 50.2797 41.4086 50.2797H47.3472C47.8033 50.2797 48.1729 49.9101 48.1729 49.454V43.5155C48.1729 43.0594 47.8033 42.6898 47.3472 42.6898H41.4086C41.3002 42.6898 41.1928 42.7111 41.0926 42.7526C40.9924 42.7941 40.9014 42.8549 40.8247 42.9316C40.748 43.0083 40.6872 43.0993 40.6457 43.1995C40.6042 43.2997 40.5829 43.4071 40.5829 43.5155V49.454ZM42.2343 44.3412H46.5215V48.6282H42.2343V44.3412Z" fill="#21409C"/>
<path d="M51.6889 6.12903H50.6704V2.97005C50.6704 1.33238 49.338 0 47.7003 0C46.0626 0 44.7303 1.33238 44.7303 2.97005V6.12903H41.0695V2.97005C41.0696 1.33238 39.7372 0 38.0995 0C36.4618 0 35.1295 1.33238 35.1295 2.97005V6.12903H31.4688V2.97005C31.4689 1.33238 30.1365 0 28.4988 0C26.8612 0 25.5288 1.33238 25.5288 2.97005V6.12903H21.868V2.97005C21.8681 1.33238 20.5357 0 18.898 0C17.2604 0 15.928 1.33238 15.928 2.97005V6.12903H12.2672V2.97005C12.2673 1.33238 10.935 0 9.29736 0C7.65969 0 6.32731 1.33238 6.32731 2.97005V6.12903H5.30881C3.43487 6.12903 1.91016 7.65375 1.91016 9.52769V52.6013C1.91016 54.4754 3.43476 56 5.30881 56H36.941C37.16 56 37.37 55.913 37.5249 55.7582C37.6797 55.6033 37.7667 55.3933 37.7667 55.1743C37.7667 54.7182 37.3971 54.3486 36.941 54.3486H5.30881C4.34547 54.3486 3.56159 53.5648 3.56159 52.6013V17.2799H14.1024C14.5584 17.2799 14.9281 16.9103 14.9281 16.4541C14.9281 15.998 14.5584 15.6284 14.1024 15.6284H3.56159V9.52769C3.56159 8.56424 4.34536 7.78047 5.30881 7.78047H6.32731V8.99813C6.32731 10.6358 7.65969 11.9682 9.29736 11.9682C10.935 11.9682 12.2674 10.6358 12.2674 8.99813V7.78047H15.9282V8.99813C15.9282 10.6358 17.2606 11.9682 18.8983 11.9682C20.5359 11.9682 21.8683 10.6358 21.8683 8.99813V7.78047H25.5291V8.99813C25.5291 10.6358 26.8615 11.9682 28.4992 11.9682C30.1368 11.9682 31.4692 10.6358 31.4692 8.99813V7.78047H35.1299V8.99813C35.1299 10.6358 36.4623 11.9682 38.1 11.9682C39.7376 11.9682 41.07 10.6358 41.07 8.99813V7.78047H44.7308V8.99813C44.7308 10.6358 46.0632 11.9682 47.7009 11.9682C49.3385 11.9682 50.6709 10.6358 50.6709 8.99813V7.78047H51.6894C52.6529 7.78047 53.4366 8.56424 53.4366 9.52769V15.6284H17.4054C16.9494 15.6284 16.5796 15.998 16.5796 16.4541C16.5796 16.9103 16.9494 17.2799 17.4054 17.2799H53.4362V52.6013C53.4362 53.5648 52.6524 54.3486 51.689 54.3486H40.2439C40.1354 54.3485 40.028 54.3699 39.9279 54.4114C39.8277 54.4529 39.7366 54.5137 39.66 54.5904C39.5833 54.6671 39.5225 54.7581 39.481 54.8583C39.4395 54.9585 39.4181 55.0658 39.4181 55.1743C39.4181 55.3933 39.5051 55.6033 39.66 55.7582C39.8148 55.913 40.0249 56 40.2439 56H51.6889C53.5628 56 55.0875 54.4753 55.0875 52.6013V9.52769C55.0875 7.65375 53.5628 6.12903 51.6889 6.12903ZM10.6159 8.99813C10.6159 9.7252 10.0244 10.3167 9.29725 10.3167C8.57018 10.3167 7.97864 9.7252 7.97864 8.99813V2.97005C7.97875 2.24298 8.57029 1.65144 9.29736 1.65144C10.0244 1.65144 10.616 2.24298 10.616 2.97005L10.6159 8.99813ZM20.2167 8.99813C20.2167 9.7252 19.6251 10.3167 18.898 10.3167C18.171 10.3167 17.5794 9.7252 17.5794 8.99813V2.97005C17.5794 2.24298 18.171 1.65144 18.898 1.65144C19.6251 1.65144 20.2167 2.24298 20.2167 2.97005V8.99813ZM29.8175 8.99813C29.8175 9.7252 29.2259 10.3167 28.4988 10.3167C27.7718 10.3167 27.1802 9.7252 27.1802 8.99813V2.97005C27.1802 2.24298 27.7718 1.65144 28.4988 1.65144C29.2259 1.65144 29.8175 2.24298 29.8175 2.97005V8.99813ZM39.4181 8.99813C39.4181 9.7252 38.8266 10.3167 38.0995 10.3167C37.3726 10.3167 36.7809 9.7252 36.7809 8.99813V2.97005C36.7809 2.24298 37.3725 1.65144 38.0995 1.65144C38.8266 1.65144 39.4181 2.24298 39.4181 2.97005V8.99813ZM49.0189 8.99813C49.0189 9.7252 48.4274 10.3167 47.7003 10.3167C46.9734 10.3167 46.3817 9.7252 46.3817 8.99813V2.97005C46.3817 2.24298 46.9732 1.65144 47.7003 1.65144C48.4274 1.65144 49.0189 2.24298 49.0189 2.97005V8.99813Z" fill="#21409C"/>
</svg>
