<svg width="57" height="56" viewBox="0 0 57 56" fill="none" xmlns="http://www.w3.org/2000/svg">
<path d="M43.6371 3.9138C43.3546 3.61634 43.0156 3.37806 42.6401 3.21282C42.2645 3.04757 41.8599 2.95868 41.4496 2.9513C40.6247 2.94069 39.8278 3.25025 39.2263 3.81493L37.2321 5.72768C34.6124 4.58979 31.7915 3.98749 28.9354 3.95623C26.0794 3.92498 23.2459 4.4654 20.6019 5.54568L18.6471 3.58743C18.0626 3.00352 17.2701 2.67554 16.4439 2.67554C15.6177 2.67554 14.8252 3.00352 14.2406 3.58743L6.86964 10.9602C6.28531 11.5445 5.95703 12.337 5.95703 13.1634C5.95703 13.9898 6.28531 14.7823 6.86964 15.3667L8.82614 17.3249C7.13953 21.4529 6.7837 26.0043 7.80832 30.3442C8.83294 34.6841 11.1869 38.5959 14.5416 41.5335L8.13752 47.935C7.44341 48.6305 7.05402 49.5733 7.05501 50.5559C7.05599 51.5385 7.44727 52.4804 8.14277 53.1745C8.83827 53.8687 9.78101 54.258 10.7636 54.2571C11.7462 54.2561 12.6882 53.8648 13.3823 53.1693L21.0823 45.4815C26.055 47.3761 31.5554 47.3493 36.5094 45.4063L44.2829 53.1684C44.6253 53.5182 45.0337 53.7967 45.4843 53.9878C45.935 54.1789 46.4191 54.2787 46.9086 54.2816C47.3981 54.2845 47.8833 54.1904 48.3362 54.0046C48.7891 53.8189 49.2007 53.5452 49.5472 53.1994C49.8937 52.8537 50.1683 52.4427 50.355 51.9902C50.5418 51.5377 50.637 51.0527 50.6352 50.5632C50.6333 50.0737 50.5345 49.5894 50.3444 49.1383C50.1543 48.6872 49.8767 48.2782 49.5276 47.935L43.001 41.4084C46.2452 38.5158 48.5326 34.7046 49.5593 30.481C50.5859 26.2575 50.3033 21.8215 48.7489 17.7624L50.7456 15.8505C51.0414 15.5679 51.2786 15.2296 51.4437 14.8552C51.6087 14.4808 51.6983 14.0775 51.7074 13.6685C51.7165 13.2594 51.6449 12.8526 51.4967 12.4712C51.3485 12.0898 51.1266 11.7414 50.8436 11.4458L43.6371 3.9138ZM8.10777 14.1294C7.85172 13.8731 7.70789 13.5257 7.70789 13.1634C7.70789 12.8012 7.85172 12.4537 8.10777 12.1974L15.4779 4.82818C15.7344 4.57256 16.0818 4.42902 16.4439 4.42902C16.806 4.42902 17.1534 4.57256 17.4099 4.82818L18.9088 6.32705C14.9168 8.38554 11.6656 11.637 9.60752 15.6292L8.10777 14.1294ZM12.145 51.9294C11.7774 52.2963 11.2793 52.5023 10.7599 52.5023C10.2405 52.5023 9.74239 52.2963 9.37477 51.9294C9.00988 51.5631 8.80501 51.0671 8.80501 50.55C8.80501 50.0329 9.00988 49.5369 9.37477 49.1705L15.9058 42.6395C16.9854 43.4445 18.1385 44.1458 19.3498 44.7343L12.145 51.9294ZM48.2895 49.1749C48.6553 49.5424 48.86 50.0401 48.8588 50.5586C48.8576 51.077 48.6504 51.5738 48.283 51.9395C47.9155 52.3052 47.4178 52.51 46.8993 52.5088C46.3809 52.5075 45.8841 52.3004 45.5184 51.9329L38.2253 44.6494C39.4289 44.05 40.5735 43.3387 41.6439 42.5249L48.2895 49.1749ZM28.7 45.1333C25.4191 45.1346 22.1899 44.3166 19.3052 42.7535C16.4206 41.1904 13.972 38.9318 12.1816 36.1825C10.3911 33.4332 9.31556 30.2803 9.05247 27.01C8.78938 23.7397 9.3471 20.4554 10.675 17.4553V17.4483C12.2328 13.9224 14.7904 10.9307 18.0312 8.84355C21.2719 6.7564 25.0536 5.66542 28.9081 5.70565C32.7626 5.74587 36.5207 6.91555 39.7172 9.06989C42.9137 11.2242 45.4083 14.2686 46.8921 17.8263C46.8984 17.8447 46.9054 17.8628 46.9131 17.8805C48.1543 20.8754 48.6375 24.1302 48.3199 27.3564C48.0023 30.5827 46.8937 33.6807 45.0924 36.3761C43.2911 39.0714 40.8527 41.2808 37.9933 42.8083C35.1339 44.3359 31.9419 45.1345 28.7 45.1333ZM49.5364 14.5879L48.0086 16.05C46.0378 12.0119 42.8568 8.68868 38.9086 6.54318L40.4381 5.0793C40.5678 4.95519 40.7206 4.85784 40.8879 4.79282C41.0552 4.7278 41.2336 4.69638 41.413 4.70036C41.5925 4.70434 41.7693 4.74365 41.9336 4.81602C42.0978 4.8884 42.2461 4.99243 42.3701 5.12218L49.5758 12.6577C49.6998 12.7872 49.7971 12.9398 49.8621 13.1069C49.9271 13.274 49.9585 13.4523 49.9546 13.6315C49.9507 13.8107 49.9116 13.9875 49.8393 14.1516C49.7671 14.3157 49.6633 14.464 49.5338 14.5879H49.5364Z" fill="#21409C"/>
<path d="M32.2691 27.7514C32.6511 27.1706 32.8851 26.5051 32.9507 25.8131C33.0164 25.1211 32.9117 24.4235 32.6458 23.7812C32.38 23.1389 31.961 22.5714 31.4254 22.1283C30.8898 21.6851 30.254 21.3797 29.5732 21.2388V11.4624C29.5732 11.2303 29.4811 11.0078 29.317 10.8437C29.1529 10.6796 28.9303 10.5874 28.6982 10.5874C28.4662 10.5874 28.2436 10.6796 28.0795 10.8437C27.9154 11.0078 27.8232 11.2303 27.8232 11.4624V21.2388C27.2075 21.3658 26.6273 21.6273 26.1243 22.0045C25.6213 22.3818 25.2078 22.8654 24.9133 23.421C24.6189 23.9765 24.4507 24.5902 24.4209 25.2182C24.3911 25.8463 24.5004 26.4732 24.7409 27.0541C24.9814 27.635 25.3473 28.1557 25.8123 28.5788C26.2773 29.002 26.8301 29.3173 27.4311 29.5021C28.032 29.6869 28.6664 29.7367 29.2889 29.6479C29.9113 29.5592 30.5065 29.3341 31.0319 28.9887L34.9694 32.9262C35.1344 33.0855 35.3554 33.1737 35.5849 33.1717C35.8143 33.1698 36.0337 33.0777 36.196 32.9155C36.3582 32.7533 36.4502 32.5338 36.4522 32.3044C36.4542 32.075 36.366 31.8539 36.2066 31.6889L32.2691 27.7514ZM26.1765 25.4187C26.1763 25.0046 26.278 24.5968 26.4727 24.2314C26.6674 23.8659 26.9491 23.5541 27.2929 23.3233C27.6368 23.0925 28.0321 22.95 28.4441 22.9083C28.8561 22.8665 29.272 22.9269 29.6551 23.084C30.0382 23.2411 30.3767 23.4902 30.6408 23.8091C30.9048 24.1281 31.0863 24.5072 31.1691 24.9129C31.2519 25.3186 31.2335 25.7385 31.1156 26.1354C30.9976 26.5323 30.7838 26.8941 30.4929 27.1888C30.4885 27.1888 30.4824 27.1888 30.4789 27.1975C30.4754 27.2063 30.4736 27.2072 30.4692 27.2115C30.1158 27.5616 29.6666 27.7992 29.1783 27.8944C28.69 27.9895 28.1845 27.938 27.7255 27.7462C27.2665 27.5544 26.8745 27.2311 26.599 26.8169C26.3235 26.4026 26.1768 25.9161 26.1774 25.4187H26.1765ZM24.374 40.9027C20.5739 40.0012 17.2389 37.7321 15.0054 34.5283C13.7739 32.6962 12.9618 30.615 12.6271 28.433C12.587 28.2073 12.4599 28.0064 12.2732 27.8734C12.0865 27.7405 11.8551 27.6861 11.6287 27.722C11.4023 27.7578 11.199 27.8811 11.0625 28.0653C10.9261 28.2495 10.8674 28.4799 10.899 28.7069C11.2731 31.1412 12.1792 33.4632 13.5529 35.5074C16.0293 39.0714 19.7328 41.5973 23.9549 42.6019C24.0237 42.6185 24.0941 42.627 24.1649 42.6273C24.3787 42.6273 24.5851 42.549 24.7451 42.4072C24.9051 42.2654 25.0077 42.0699 25.0334 41.8576C25.0592 41.6453 25.0063 41.431 24.8848 41.2551C24.7633 41.0791 24.5816 40.9538 24.374 40.9027ZM27.4216 41.9212C27.3402 42.0009 27.2758 42.0962 27.2322 42.2015C27.1886 42.3067 27.1667 42.4197 27.1679 42.5337C27.1667 42.6489 27.1885 42.7632 27.2321 42.8699C27.2757 42.9766 27.3401 43.0735 27.4215 43.155C27.503 43.2365 27.6 43.3009 27.7066 43.3444C27.8133 43.388 27.9276 43.4098 28.0429 43.4087C28.1568 43.41 28.2698 43.3882 28.3751 43.3446C28.4804 43.3009 28.5757 43.2364 28.6554 43.1549C28.7381 43.0739 28.8038 42.9772 28.8489 42.8706C28.8939 42.7639 28.9174 42.6494 28.9179 42.5337C28.9174 42.4192 28.8939 42.306 28.8488 42.2007C28.8037 42.0955 28.7379 42.0004 28.6554 41.9212C28.4899 41.7611 28.2687 41.6716 28.0385 41.6716C27.8083 41.6716 27.5871 41.7611 27.4216 41.9212Z" fill="#21409C"/>
</svg>
