<svg width="57" height="56" viewBox="0 0 57 56" fill="none" xmlns="http://www.w3.org/2000/svg">
<g clip-path="url(#clip0_3381_4360)">
<path d="M56.3554 32.8528C56.0994 32.5969 55.7523 32.4531 55.3904 32.4531C55.0285 32.4531 54.6814 32.5969 54.4255 32.8528L42.282 44.9962C42.2307 45.0476 42.1698 45.0883 42.1027 45.116C42.0357 45.1438 41.9638 45.1581 41.8912 45.1581C41.8187 45.1581 41.7468 45.1438 41.6798 45.116C41.6127 45.0883 41.5518 45.0476 41.5005 44.9962L37.5643 41.0601C37.3077 40.8075 36.9616 40.6665 36.6015 40.668C36.2415 40.6694 35.8965 40.8131 35.6419 41.0677C35.3873 41.3223 35.2436 41.6672 35.2422 42.0273C35.2408 42.3874 35.3817 42.7335 35.6343 42.9901L41.5005 48.8563C41.5518 48.9076 41.6127 48.9483 41.6798 48.9761C41.7468 49.0039 41.8187 49.0182 41.8912 49.0182C41.9638 49.0182 42.0357 49.0039 42.1027 48.9761C42.1698 48.9483 42.2307 48.9076 42.282 48.8563L56.3554 34.7828C56.4821 34.6561 56.5827 34.5056 56.6512 34.3401C56.7198 34.1745 56.7551 33.997 56.7551 33.8178C56.7551 33.6386 56.7198 33.4611 56.6512 33.2955C56.5827 33.1299 56.4821 32.9795 56.3554 32.8528Z" fill="#21409C"/>
<path d="M54.0431 41.7711C53.6811 41.7711 53.334 41.9149 53.0781 42.1709C52.8222 42.4268 52.6784 42.7739 52.6784 43.1359C52.6784 45.1403 52.084 47.0997 50.9704 48.7664C49.8568 50.433 48.274 51.732 46.4222 52.499C44.5703 53.2661 42.5326 53.4668 40.5667 53.0757C38.6008 52.6847 36.795 51.7195 35.3776 50.3021C33.9603 48.8848 32.995 47.079 32.604 45.1131C32.2129 43.1471 32.4136 41.1094 33.1807 39.2576C33.9478 37.4057 35.2467 35.8229 36.9134 34.7093C38.58 33.5957 40.5394 33.0013 42.5438 33.0013C44.1212 32.9964 45.6776 33.3636 47.0864 34.0732C47.4098 34.2356 47.7846 34.2629 48.1281 34.1491C48.4717 34.0353 48.756 33.7896 48.9184 33.4662C49.0809 33.1427 49.1082 32.768 48.9943 32.4244C48.8805 32.0809 48.6348 31.7966 48.3114 31.6341C46.5228 30.7326 44.5467 30.2658 42.5437 30.2715C39.9995 30.2715 37.5124 31.026 35.3969 32.4395C33.2814 33.853 31.6326 35.8621 30.6589 38.2126C29.6853 40.5632 29.4305 43.1497 29.9268 45.6451C30.4232 48.1405 31.6483 50.4326 33.4474 52.2317C35.2464 54.0308 37.5385 55.256 40.0339 55.7524C42.5292 56.2488 45.1158 55.9941 47.4664 55.0205C49.817 54.0469 51.8261 52.3981 53.2396 50.2827C54.6532 48.1672 55.4077 45.6801 55.4078 43.1359C55.4078 42.7739 55.264 42.4268 55.0081 42.1709C54.7521 41.9149 54.405 41.7711 54.0431 41.7711Z" fill="#21409C"/>
<path d="M45.3715 22.0781H43.0747C42.6955 22.0781 42.332 22.2287 42.0639 22.4968C41.7958 22.7648 41.6452 23.1284 41.6452 23.5075C41.6452 23.8866 41.7958 24.2502 42.0639 24.5183C42.332 24.7864 42.6955 24.937 43.0747 24.937H46.8078C47.202 24.9221 47.5755 24.7569 47.8516 24.4752C48.1277 24.1936 48.2855 23.8169 48.2925 23.4225C48.2215 17.1862 45.6944 11.2293 41.2593 6.84437C36.8243 2.45943 30.8391 0.000114422 24.6023 0C11.5385 0 0.910156 10.6282 0.910156 23.692C0.910156 36.7559 11.5385 47.384 24.6023 47.384C24.9087 47.3838 25.207 47.2852 25.4532 47.1027C25.6993 46.9202 25.8803 46.6635 25.9695 46.3703C26.0123 46.2481 26.0332 46.1193 26.0314 45.9899V41.9801C26.0281 41.6031 25.876 41.2427 25.6083 40.9774C25.3406 40.712 24.9789 40.5631 24.6019 40.5631C24.225 40.5631 23.8632 40.712 23.5955 40.9774C23.3278 41.2427 23.1757 41.6031 23.1725 41.9801V44.4752C12.7607 43.7661 4.42558 35.3733 3.80706 24.9375H6.12953C6.50864 24.9375 6.87222 24.7869 7.14028 24.5188C7.40835 24.2508 7.55895 23.8872 7.55895 23.5081C7.55895 23.129 7.40835 22.7654 7.14028 22.4973C6.87222 22.2293 6.50864 22.0787 6.12953 22.0787H3.83112C4.62136 11.8133 12.8835 3.60938 23.1728 2.90937V5.03486C23.1761 5.41181 23.3281 5.77221 23.5959 6.0376C23.8636 6.30299 24.2253 6.45189 24.6023 6.45189C24.9792 6.45189 25.3409 6.30299 25.6087 6.0376C25.8764 5.77221 26.0284 5.41181 26.0317 5.03486V2.90937C36.2805 3.61408 44.5777 11.8335 45.3715 22.0781Z" fill="#21409C"/>
<path d="M24.6012 13.9932C24.2221 13.9932 23.8585 14.1438 23.5904 14.4119C23.3223 14.68 23.1717 15.0436 23.1717 15.4227V22.8661L13.5054 28.4377C13.3414 28.5307 13.1975 28.6553 13.0818 28.8042C12.9661 28.9531 12.8811 29.1234 12.8315 29.3053C12.782 29.4873 12.7689 29.6772 12.793 29.8642C12.8172 30.0512 12.8781 30.2316 12.9722 30.3949C13.0664 30.5583 13.1919 30.7014 13.3416 30.816C13.4914 30.9307 13.6623 31.0146 13.8445 31.0629C14.0268 31.1112 14.2168 31.123 14.4036 31.0975C14.5905 31.0721 14.7704 31.01 14.9331 30.9147L25.315 24.9312C25.3412 24.9161 25.3642 24.9015 25.3856 24.8875C25.5839 24.7576 25.7467 24.5804 25.8593 24.3719C25.972 24.1634 26.031 23.9302 26.031 23.6932V15.4227C26.031 15.2349 25.994 15.049 25.9221 14.8756C25.8503 14.7021 25.745 14.5445 25.6122 14.4118C25.4794 14.279 25.3218 14.1737 25.1483 14.1019C24.9749 14.0301 24.789 13.9931 24.6012 13.9932Z" fill="#21409C"/>
</g>
<defs>
<clipPath id="clip0_3381_4360">
<rect width="56" height="56" fill="white" transform="translate(0.832031)"/>
</clipPath>
</defs>
</svg>
