<svg width="57" height="56" viewBox="0 0 57 56" fill="none" xmlns="http://www.w3.org/2000/svg">
<g clip-path="url(#clip0_3381_4317)">
<path d="M25.5655 30.5622C25.4621 30.5396 25.3554 30.5359 25.2507 30.5514C24.1989 30.429 23.4055 29.5392 23.4037 28.4807C23.4037 28.237 23.3069 28.0034 23.1347 27.8311C22.9624 27.6589 22.7287 27.5621 22.4851 27.5621C22.2415 27.5621 22.0079 27.6589 21.8356 27.8311C21.6633 28.0034 21.5666 28.237 21.5666 28.4807C21.5693 30.2482 22.7515 31.7965 24.4559 32.2643V33.1829C24.4559 33.4265 24.5527 33.6601 24.7249 33.8324C24.8972 34.0047 25.1308 34.1014 25.3745 34.1014C25.6181 34.1014 25.8517 34.0047 26.024 33.8324C26.1962 33.6601 26.293 33.4265 26.293 33.1829V32.3199C28.2602 31.9082 29.5972 30.076 29.3905 28.0769C29.1833 26.0779 27.4991 24.5589 25.4893 24.5584C24.3375 24.5584 23.4037 23.6246 23.4037 22.4728C23.4037 21.321 24.3375 20.3872 25.4893 20.3872C26.641 20.3872 27.5749 21.3209 27.5749 22.4728C27.5749 22.7164 27.6717 22.9501 27.8439 23.1223C28.0162 23.2946 28.2498 23.3914 28.4934 23.3914C28.7371 23.3914 28.9707 23.2946 29.143 23.1223C29.3152 22.9501 29.412 22.7164 29.412 22.4728C29.4094 20.6169 28.1091 19.016 26.293 18.633V17.797C26.293 17.5534 26.1962 17.3197 26.024 17.1475C25.8517 16.9752 25.6181 16.8784 25.3745 16.8784C25.1308 16.8784 24.8972 16.9752 24.7249 17.1475C24.5527 17.3197 24.4559 17.5534 24.4559 17.797V18.6891C22.5605 19.2066 21.3405 21.047 21.6015 22.9944C21.8625 24.9419 23.5244 26.3954 25.4893 26.3951C26.6259 26.3951 27.5529 27.3051 27.5735 28.4412C27.5946 29.5773 26.7012 30.5209 25.5655 30.5622Z" fill="#21409C"/>
<path d="M12.168 25.5476C12.168 32.9041 18.1315 38.8677 25.488 38.8677C32.8446 38.8677 38.8081 32.9041 38.8081 25.5476C38.8081 18.1911 32.8446 12.2275 25.488 12.2275C18.1351 12.2356 12.1766 18.1946 12.168 25.5476ZM25.488 14.0647C31.83 14.0647 36.971 19.2056 36.971 25.5476C36.971 31.8896 31.83 37.0305 25.488 37.0305C19.1461 37.0305 14.0051 31.8896 14.0051 25.5476C14.0123 19.2087 19.1492 14.0719 25.488 14.0647Z" fill="#21409C"/>
<path d="M43.3368 41.132L36.1412 44.5319C35.6531 43.624 34.9341 42.8609 34.0569 42.3195C33.1797 41.7782 32.1752 41.4778 31.1448 41.4487L24.5022 41.2662C23.4502 41.2361 22.4184 40.9696 21.4833 40.4866L20.8074 40.1364C19.1023 39.2477 17.2074 38.7846 15.2845 38.7866C13.3616 38.7886 11.4678 39.2557 9.76447 40.148L9.80661 38.6168C9.80996 38.4962 9.78952 38.3761 9.74645 38.2634C9.70339 38.1507 9.63854 38.0476 9.55562 37.96C9.4727 37.8723 9.37332 37.8019 9.26317 37.7527C9.15302 37.7034 9.03426 37.6764 8.91365 37.6731L1.62969 37.4727C1.50911 37.4694 1.38905 37.4898 1.27637 37.5329C1.1637 37.576 1.06062 37.6409 0.973023 37.7238C0.885427 37.8068 0.815031 37.9061 0.765858 38.0163C0.716685 38.1264 0.689699 38.2452 0.686442 38.3658L0.246451 54.3498C0.243087 54.4704 0.263522 54.5905 0.306589 54.7032C0.349655 54.816 0.414508 54.9191 0.497444 55.0067C0.580379 55.0944 0.679771 55.1648 0.789941 55.2141C0.900111 55.2633 1.0189 55.2903 1.13952 55.2936L8.42337 55.4941H8.44852C8.68786 55.4942 8.91778 55.4009 9.08935 55.234C9.26091 55.0671 9.36056 54.8398 9.36708 54.6006L9.38809 53.8359L11.2803 52.8227C12.0228 52.423 12.8916 52.3279 13.7029 52.5576L25.0028 55.729C25.0226 55.7349 25.0422 55.7394 25.0625 55.7439C25.8793 55.9147 26.7115 56.0005 27.5459 56C29.3131 56.0011 31.0596 55.62 32.6657 54.8828C32.7052 54.8648 32.7433 54.8437 32.7796 54.8199L49.1635 44.2224C49.3601 44.0952 49.5008 43.8977 49.5567 43.6703C49.6126 43.4429 49.5796 43.2027 49.4644 42.9988C48.2481 40.8405 45.5501 40.0184 43.3368 41.132ZM2.10826 53.4824L2.4975 39.3344L7.9448 39.4843L7.55556 53.6327L2.10826 53.4824ZM31.8382 53.242C29.8427 54.1425 27.6142 54.3913 25.4692 53.953L14.1999 50.7896C12.9318 50.4311 11.5741 50.5796 10.4134 51.2035L9.44642 51.7216L9.70522 42.3148C11.2096 41.3142 12.955 40.7356 14.7592 40.6394C16.5635 40.5431 18.3605 40.9328 19.9628 41.7677L20.6388 42.1179C21.82 42.7278 23.1231 43.0644 24.4519 43.1029L31.095 43.2855C32.9608 43.3392 34.5454 44.6677 34.924 46.4959L25.0292 46.2227C24.522 46.2089 24.0999 46.609 24.0855 47.1158C24.0789 47.3593 24.1692 47.5956 24.3367 47.7725C24.5042 47.9495 24.7351 48.0527 24.9786 48.0595L35.8981 48.36H35.9237C36.1629 48.3598 36.3926 48.2664 36.564 48.0995C36.7353 47.9327 36.8349 47.7055 36.8414 47.4664C36.8527 47.0672 36.8229 46.6679 36.7526 46.2748L44.1329 42.7875C44.1402 42.7844 44.1473 42.7809 44.1545 42.7772C44.6656 42.5185 45.2437 42.4225 45.811 42.502C46.3783 42.5815 46.9077 42.8326 47.3281 43.2218L31.8382 53.242ZM26.4071 9.6449V0.918562C26.4071 0.674944 26.3103 0.441304 26.138 0.26904C25.9658 0.0967768 25.7321 0 25.4885 0C25.2449 0 25.0113 0.0967768 24.839 0.26904C24.6667 0.441304 24.57 0.674944 24.57 0.918562V9.6449C24.57 9.88851 24.6667 10.1222 24.839 10.2944C25.0113 10.4667 25.2449 10.5635 25.4885 10.5635C25.7321 10.5635 25.9658 10.4667 26.138 10.2944C26.3103 10.1222 26.4071 9.88851 26.4071 9.6449ZM33.2963 9.6449V5.51137C33.2963 5.26775 33.1995 5.03411 33.0273 4.86185C32.855 4.68959 32.6214 4.59281 32.3777 4.59281C32.1341 4.59281 31.9005 4.68959 31.7282 4.86185C31.556 5.03411 31.4592 5.26775 31.4592 5.51137V9.6449C31.4592 9.88851 31.556 10.1222 31.7282 10.2944C31.9005 10.4667 32.1341 10.5635 32.3777 10.5635C32.6214 10.5635 32.855 10.4667 33.0273 10.2944C33.1995 10.1222 33.2963 9.88851 33.2963 9.6449ZM19.5179 9.6449V5.51137C19.5179 5.26775 19.4211 5.03411 19.2488 4.86185C19.0766 4.68959 18.8429 4.59281 18.5993 4.59281C18.3557 4.59281 18.1221 4.68959 17.9498 4.86185C17.7775 5.03411 17.6808 5.26775 17.6808 5.51137V9.6449C17.6808 9.88851 17.7775 10.1222 17.9498 10.2944C18.1221 10.4667 18.3557 10.5635 18.5993 10.5635C18.8429 10.5635 19.0766 10.4667 19.2488 10.2944C19.4211 10.1222 19.5179 9.88851 19.5179 9.6449Z" fill="#21409C"/>
</g>
<defs>
<clipPath id="clip0_3381_4317">
<rect width="56" height="56" fill="white" transform="translate(0.164062)"/>
</clipPath>
</defs>
</svg>
