<svg width="81" height="80" viewBox="0 0 81 80" fill="none" xmlns="http://www.w3.org/2000/svg">
<path d="M64.5698 49.3897C56.4752 49.3897 49.8897 55.9752 49.8897 64.0698C49.8897 72.1645 56.4752 78.75 64.5698 78.75C72.6645 78.75 79.25 72.1645 79.25 64.0698C79.25 55.9752 72.6645 49.3897 64.5698 49.3897ZM64.5698 76.25C57.8537 76.25 52.3897 70.7859 52.3897 64.0698C52.3897 57.3537 57.8536 51.8897 64.5698 51.8897C71.2861 51.8897 76.75 57.3536 76.75 64.0698C76.75 70.7861 71.2859 76.25 64.5698 76.25ZM69.045 66.6534C68.963 66.7957 68.8537 66.9203 68.7235 67.0203C68.5933 67.1203 68.4446 67.1937 68.286 67.2362C68.1274 67.2787 67.962 67.2895 67.7992 67.268C67.6365 67.2466 67.4795 67.1932 67.3373 67.1111L63.9448 65.1525C63.7548 65.0428 63.597 64.8849 63.4873 64.6949C63.3776 64.5048 63.3199 64.2893 63.3198 64.0698V58.9886C63.3198 58.6571 63.4515 58.3391 63.686 58.1047C63.9204 57.8703 64.2383 57.7386 64.5698 57.7386C64.9014 57.7386 65.2193 57.8703 65.4537 58.1047C65.6881 58.3391 65.8198 58.6571 65.8198 58.9886V63.348L68.5873 64.9458C68.8744 65.1116 69.0839 65.3846 69.1697 65.7049C69.2555 66.0251 69.2107 66.3663 69.045 66.6534ZM63.3198 54.5359V53.3769C63.3198 53.0454 63.4515 52.7274 63.686 52.493C63.9204 52.2586 64.2383 52.1269 64.5698 52.1269C64.9014 52.1269 65.2193 52.2586 65.4537 52.493C65.6881 52.7274 65.8198 53.0454 65.8198 53.3769V54.5359C65.8198 54.8675 65.6881 55.1854 65.4537 55.4198C65.2193 55.6542 64.9014 55.7859 64.5698 55.7859C64.2383 55.7859 63.9204 55.6542 63.686 55.4198C63.4515 55.1854 63.3198 54.8675 63.3198 54.5359ZM70.4275 58.2123C70.3114 58.0963 70.2193 57.9585 70.1565 57.8068C70.0937 57.6551 70.0614 57.4926 70.0614 57.3284C70.0614 57.1643 70.0937 57.0017 70.1565 56.8501C70.2193 56.6984 70.3114 56.5606 70.4275 56.4445L71.247 55.625C71.4819 55.3929 71.7991 55.2633 72.1293 55.2643C72.4595 55.2653 72.7759 55.3969 73.0094 55.6304C73.2429 55.8639 73.3745 56.1803 73.3755 56.5105C73.3765 56.8407 73.2468 57.1579 73.0147 57.3928L72.1952 58.2123C71.9511 58.4564 71.6312 58.5784 71.3112 58.5784C70.9912 58.5784 70.6716 58.4562 70.4275 58.2123ZM73.0147 70.7469C73.1308 70.8629 73.2228 71.0007 73.2857 71.1524C73.3485 71.304 73.3808 71.4666 73.3808 71.6307C73.3808 71.7948 73.3485 71.9574 73.2857 72.109C73.2228 72.2607 73.1308 72.3985 73.0147 72.5145C72.7706 72.7586 72.4506 72.8808 72.1308 72.8808C71.8109 72.8808 71.4911 72.7588 71.2469 72.5147L70.4272 71.6952C70.1928 71.4607 70.0611 71.1428 70.0611 70.8112C70.0611 70.4797 70.1928 70.1618 70.4272 69.9273C70.6616 69.6929 70.9796 69.5612 71.3111 69.5612C71.6426 69.5612 71.9606 69.6929 72.195 69.9273L73.0147 70.7469ZM58.7123 69.9275C58.9467 70.1619 59.0784 70.4798 59.0784 70.8113C59.0784 71.1428 58.9467 71.4607 58.7123 71.6952L57.8927 72.5147C57.6486 72.7588 57.3288 72.8808 57.0088 72.8808C56.6888 72.8808 56.3689 72.7588 56.1248 72.5145C55.8905 72.2801 55.7588 71.9622 55.7588 71.6307C55.7588 71.2992 55.8905 70.9813 56.1248 70.7469L56.9445 69.9273C57.179 69.693 57.497 69.5614 57.8285 69.5615C58.16 69.5615 58.4779 69.6932 58.7123 69.9275ZM58.7123 56.4444C58.8284 56.5604 58.9205 56.6982 58.9833 56.8499C59.0461 57.0015 59.0785 57.1641 59.0785 57.3282C59.0785 57.4924 59.0461 57.6549 58.9833 57.8065C58.9205 57.9582 58.8284 58.096 58.7123 58.212C58.4683 58.4561 58.1483 58.5783 57.8284 58.5783C57.5086 58.5783 57.1887 58.4563 56.9445 58.2122L56.125 57.3927C55.8906 57.1582 55.7589 56.8403 55.7589 56.5088C55.7589 56.1772 55.8906 55.8593 56.125 55.6248C56.3594 55.3904 56.6774 55.2587 57.0089 55.2587C57.3404 55.2587 57.6584 55.3904 57.8928 55.6248L58.7123 56.4444ZM76.5127 64.0698C76.5127 64.4014 76.381 64.7193 76.1465 64.9537C75.9121 65.1881 75.5942 65.3198 75.2627 65.3198H74.1036C73.7721 65.3198 73.4541 65.1881 73.2197 64.9537C72.9853 64.7193 72.8536 64.4014 72.8536 64.0698C72.8536 63.7383 72.9853 63.4204 73.2197 63.186C73.4541 62.9515 73.7721 62.8198 74.1036 62.8198H75.2627C75.5942 62.8198 75.9121 62.9515 76.1465 63.186C76.381 63.4204 76.5127 63.7383 76.5127 64.0698ZM65.8198 73.6036V74.7627C65.8198 75.0942 65.6881 75.4121 65.4537 75.6465C65.2193 75.881 64.9014 76.0127 64.5698 76.0127C64.2383 76.0127 63.9204 75.881 63.686 75.6465C63.4515 75.4121 63.3198 75.0942 63.3198 74.7627V73.6036C63.3198 73.2721 63.4515 72.9541 63.686 72.7197C63.9204 72.4853 64.2383 72.3536 64.5698 72.3536C64.9014 72.3536 65.2193 72.4853 65.4537 72.7197C65.6881 72.9541 65.8198 73.2721 65.8198 73.6036ZM55.0359 65.3198H53.8769C53.5454 65.3198 53.2274 65.1881 52.993 64.9537C52.7586 64.7193 52.6269 64.4014 52.6269 64.0698C52.6269 63.7383 52.7586 63.4204 52.993 63.186C53.2274 62.9515 53.5454 62.8198 53.8769 62.8198H55.0359C55.3675 62.8198 55.6854 62.9515 55.9198 63.186C56.1542 63.4204 56.2859 63.7383 56.2859 64.0698C56.2859 64.4014 56.1542 64.7193 55.9198 64.9537C55.6854 65.1881 55.3675 65.3198 55.0359 65.3198ZM10.9092 19.8456C10.8324 19.5251 10.8852 19.1873 11.0562 18.9055C11.2272 18.6238 11.5025 18.421 11.8223 18.3413C12.1421 18.2615 12.4804 18.3113 12.7637 18.4798C13.047 18.6482 13.2522 18.9217 13.3348 19.2408C13.722 20.7936 15.3245 21.3128 16.5763 21.28C17.6714 21.2541 18.69 20.8777 19.1714 20.3211C19.4323 20.0192 19.5288 19.6711 19.4747 19.225C19.3836 18.4752 18.9338 17.5577 16.2403 17.1156C12.3153 16.4711 11.3991 14.4303 11.3214 12.832C11.2139 10.6206 12.747 8.77078 15.1361 8.22891C15.1509 8.22563 15.1656 8.22219 15.1806 8.21906V7.43172C15.1806 7.1002 15.3123 6.78226 15.5467 6.54784C15.7812 6.31342 16.0991 6.18172 16.4306 6.18172C16.7621 6.18172 17.0801 6.31342 17.3145 6.54784C17.5489 6.78226 17.6806 7.1002 17.6806 7.43172V8.20813C19.2516 8.5325 20.7577 9.51031 21.5372 11.3669C21.6628 11.672 21.6626 12.0145 21.5367 12.3195C21.4108 12.6245 21.1694 12.8674 20.8652 12.9951C20.5609 13.1229 20.2185 13.1251 19.9126 13.0014C19.6067 12.8777 19.3621 12.638 19.2322 12.3347C18.5778 10.7761 16.9811 10.3742 15.6891 10.6672C14.7472 10.8808 13.7612 11.5298 13.8186 12.7109C13.8383 13.1173 13.8906 14.1966 16.6455 14.6488C19.8898 15.1814 21.6767 16.6197 21.9564 18.9239C22.0956 20.0706 21.7864 21.1194 21.0623 21.9566C20.2981 22.84 19.0775 23.4537 17.6806 23.6825V24.4292C17.6806 24.7607 17.5489 25.0787 17.3145 25.3131C17.0801 25.5475 16.7621 25.6792 16.4306 25.6792C16.0991 25.6792 15.7812 25.5475 15.5467 25.3131C15.3123 25.0787 15.1806 24.7607 15.1806 24.4292V23.6623C13.0459 23.2553 11.4048 21.8336 10.9092 19.8456ZM16.4305 30.6109C24.5253 30.6109 31.1109 24.0253 31.1109 15.9305C31.1109 7.83563 24.5253 1.25 16.4305 1.25C8.33563 1.25 1.75 7.83563 1.75 15.9305C1.75 24.0253 8.33563 30.6109 16.4305 30.6109ZM16.4305 3.75C23.1467 3.75 28.6109 9.21422 28.6109 15.9305C28.6109 22.6467 23.1467 28.1109 16.4305 28.1109C9.71422 28.1109 4.25 22.6467 4.25 15.9305C4.25 9.21422 9.71422 3.75 16.4305 3.75ZM53.3005 49.9594C53.4791 49.7808 53.5994 49.5523 53.6455 49.3039C53.6917 49.0556 53.6615 48.7991 53.5591 48.5683L52.748 46.742C53.2464 45.8391 53.6426 44.8834 53.9294 43.8927L55.793 43.1753C56.0287 43.0846 56.2315 42.9246 56.3745 42.7163C56.5174 42.5081 56.594 42.2614 56.5939 42.0087V37.9909C56.5939 37.7383 56.5174 37.4917 56.3744 37.2834C56.2314 37.0752 56.0287 36.9151 55.793 36.8244L53.9302 36.1073C53.6434 35.1163 53.2471 34.1603 52.7486 33.257L53.5592 31.4314C53.6617 31.2005 53.6919 30.944 53.6457 30.6957C53.5996 30.4473 53.4793 30.2188 53.3006 30.0402L50.4597 27.1992C50.281 27.0206 50.0525 26.9004 49.8041 26.8542C49.5558 26.8081 49.2993 26.8383 49.0684 26.9408L47.2422 27.7519C46.3392 27.2535 45.3835 26.8572 44.3928 26.5705L43.6755 24.7069C43.5847 24.4711 43.4247 24.2684 43.2164 24.1254C43.0082 23.9825 42.7615 23.9059 42.5089 23.9059H38.4912C38.2386 23.9059 37.992 23.9825 37.7837 24.1254C37.5755 24.2684 37.4154 24.4711 37.3247 24.7069L36.6073 26.5705C35.6166 26.8572 34.6609 27.2534 33.758 27.7519L31.9317 26.9408C31.7009 26.8381 31.4443 26.8079 31.1959 26.8541C30.9476 26.9002 30.719 27.0206 30.5405 27.1994L27.6995 30.0405C27.5209 30.2191 27.4006 30.4476 27.3545 30.6959C27.3083 30.9442 27.3384 31.2007 27.4409 31.4316L28.2519 33.2577C27.7534 34.1607 27.3571 35.1164 27.0703 36.1072L25.207 36.8245C24.9713 36.9153 24.7686 37.0753 24.6256 37.2836C24.4826 37.4918 24.4061 37.7385 24.4061 37.9911V42.0087C24.4061 42.2614 24.4826 42.508 24.6256 42.7163C24.7686 42.9245 24.9713 43.0846 25.207 43.1753L27.07 43.8925C27.3568 44.8835 27.7531 45.8395 28.2516 46.7428L27.4409 48.5683C27.3384 48.7991 27.3082 49.0556 27.3543 49.304C27.4005 49.5523 27.5208 49.7809 27.6994 49.9595L30.5405 52.8006C30.7191 52.9792 30.9477 53.0994 31.196 53.1455C31.4444 53.1917 31.7008 53.1615 31.9317 53.0591L33.758 52.248C34.6609 52.7463 35.6165 53.1426 36.6072 53.4294L37.3245 55.293C37.4153 55.5287 37.5753 55.7314 37.7836 55.8744C37.9918 56.0174 38.2385 56.0939 38.4911 56.0939H42.5087C42.7614 56.0939 43.008 56.0174 43.2163 55.8744C43.4245 55.7314 43.5846 55.5287 43.6753 55.293L44.3923 53.43C45.3834 53.1433 46.3394 52.747 47.2427 52.2484L49.0683 53.0592C49.2991 53.1618 49.5557 53.192 49.804 53.1459C50.0524 53.0997 50.281 52.9793 50.4595 52.8006L53.3005 49.9594ZM49.2988 50.4259L47.6734 49.7041C47.4879 49.6216 47.285 49.5856 47.0824 49.5992C46.8798 49.6128 46.6835 49.6755 46.5106 49.782C45.4768 50.4194 44.3478 50.8875 43.1662 51.1686C42.9687 51.2155 42.7856 51.3099 42.6328 51.4435C42.4799 51.5771 42.362 51.746 42.2891 51.9355L41.6506 53.5938H39.3494L38.7109 51.9348C38.6381 51.7454 38.5201 51.5765 38.3672 51.4429C38.2144 51.3092 38.0313 51.2149 37.8338 51.168C36.6526 50.8869 35.5239 50.4189 34.4903 49.7817C34.3174 49.6752 34.1212 49.6124 33.9186 49.5988C33.716 49.5853 33.5132 49.6213 33.3277 49.7038L31.7016 50.4259L30.0742 48.7988L30.7961 47.1734C30.8785 46.9879 30.9145 46.785 30.9009 46.5824C30.8873 46.3798 30.8245 46.1835 30.718 46.0106C30.0807 44.9768 29.6127 43.8479 29.3316 42.6664C29.2846 42.4689 29.1902 42.2858 29.0565 42.133C28.9229 41.9801 28.754 41.8621 28.5645 41.7892L26.9062 41.1505V38.8494L28.565 38.2108C28.7545 38.1378 28.9233 38.0198 29.0569 37.867C29.1906 37.7142 29.285 37.5311 29.332 37.3336C29.6131 36.1523 30.081 35.0236 30.7183 33.99C30.8247 33.8171 30.8875 33.6209 30.9011 33.4183C30.9147 33.2158 30.8788 33.0129 30.7964 32.8273L30.0742 31.2014L31.7014 29.5742L33.3275 30.2964C33.513 30.3789 33.7159 30.4149 33.9185 30.4013C34.1211 30.3877 34.3173 30.3249 34.4902 30.2184C35.5238 29.5813 36.6525 29.1133 37.8338 28.8322C38.0313 28.7852 38.2144 28.6909 38.3672 28.5573C38.5201 28.4236 38.638 28.2548 38.7109 28.0653L39.3494 26.4062H41.6506L42.2892 28.0652C42.3621 28.2546 42.4801 28.4235 42.6329 28.5571C42.7858 28.6907 42.9689 28.7851 43.1664 28.832C44.3476 29.1131 45.4763 29.5811 46.5098 30.2183C46.6827 30.3247 46.879 30.3874 47.0815 30.401C47.2841 30.4146 47.4869 30.3786 47.6725 30.2962L49.2986 29.5741L50.9259 31.2013L50.2041 32.8266C50.1216 33.0121 50.0857 33.215 50.0993 33.4176C50.1129 33.6202 50.1757 33.8165 50.2822 33.9894C50.9195 35.0232 51.3876 36.1522 51.6688 37.3338C51.7158 37.5312 51.8102 37.7143 51.9438 37.8671C52.0775 38.0199 52.2463 38.1379 52.4358 38.2108L54.0938 38.8494V41.1506L52.4348 41.7892C52.2454 41.8621 52.0765 41.9801 51.9429 42.1329C51.8092 42.2857 51.7148 42.4688 51.6678 42.6662C51.3867 43.8475 50.9187 44.9762 50.2816 46.0098C50.1751 46.1827 50.1124 46.3789 50.0988 46.5815C50.0852 46.7841 50.1211 46.9869 50.2034 47.1725L50.9256 48.7986L49.2988 50.4259ZM40.5 31.1306C35.6095 31.1306 31.6306 35.1094 31.6306 40C31.6306 44.8906 35.6094 48.8694 40.5 48.8694C45.3906 48.8694 49.3694 44.8906 49.3694 40C49.3694 35.1094 45.3905 31.1306 40.5 31.1306ZM40.5 46.3694C36.988 46.3694 34.1306 43.5122 34.1306 40C34.1306 36.4878 36.988 33.6306 40.5 33.6306C44.012 33.6306 46.8694 36.4878 46.8694 40C46.8694 43.5122 44.012 46.3694 40.5 46.3694ZM32.4861 10.7331C32.4491 10.5732 32.444 10.4075 32.471 10.2456C32.4981 10.0837 32.5567 9.92865 32.6437 9.7894C32.7307 9.65016 32.8442 9.5294 32.9778 9.43403C33.1114 9.33867 33.2625 9.27056 33.4225 9.23359C48.1005 5.84203 63.2056 13.3822 69.3395 27.1653C71.5309 32.0894 72.4187 37.4128 71.9533 42.7191L73.127 41.5069C73.2412 41.3889 73.3775 41.2946 73.5281 41.2293C73.6787 41.164 73.8407 41.1291 74.0049 41.1264C74.169 41.1237 74.3321 41.1535 74.4847 41.2138C74.6374 41.2742 74.7766 41.3641 74.8945 41.4783C75.1327 41.7089 75.2695 42.0246 75.2749 42.3561C75.2802 42.6876 75.1537 43.0076 74.9231 43.2458L71.0327 47.2639C70.9007 47.4001 70.7395 47.5046 70.5613 47.5693C70.383 47.6341 70.1924 47.6575 70.0038 47.6377C69.8151 47.6178 69.6335 47.5552 69.4727 47.4548C69.3118 47.3544 69.1759 47.2187 69.0752 47.058L66.1066 42.3178C65.9333 42.0369 65.8783 41.6989 65.9533 41.3775C66.0283 41.0562 66.2274 40.7775 66.5071 40.6023C66.7868 40.4272 67.1244 40.3697 67.4463 40.4425C67.7682 40.5153 68.0482 40.7125 68.2253 40.9909L69.4238 42.9047C69.9342 37.8867 69.1287 32.8405 67.0555 28.182C61.4072 15.4903 47.4988 8.54531 33.9855 11.6697C33.3128 11.8244 32.6416 11.4056 32.4861 10.7331ZM48.5145 69.2667C48.5892 69.5897 48.5325 69.9292 48.3569 70.2103C48.1812 70.4915 47.9011 70.6914 47.5781 70.7661C45.2596 71.3028 42.8876 71.5739 40.5078 71.5744C28.2761 71.5744 16.8092 64.4038 11.6606 52.8347C9.47031 47.9128 8.58266 42.5859 9.04797 37.2797L7.87328 38.493C7.75912 38.6109 7.62284 38.7053 7.47222 38.7705C7.3216 38.8358 7.15959 38.8708 6.99545 38.8734C6.83132 38.8761 6.66826 38.8464 6.51561 38.786C6.36296 38.7256 6.2237 38.6358 6.10578 38.5216C5.86761 38.291 5.7308 37.9752 5.72543 37.6437C5.72007 37.3123 5.8466 36.9922 6.07719 36.7541L9.96766 32.7359C10.0995 32.5996 10.2607 32.4951 10.439 32.4303C10.6173 32.3655 10.8079 32.3422 10.9966 32.362C11.1852 32.3819 11.3669 32.4444 11.5277 32.5449C11.6886 32.6453 11.8245 32.7811 11.9252 32.9419L14.8938 37.682C15.067 37.9629 15.1221 38.3009 15.047 38.6223C14.972 38.9437 14.7729 39.2224 14.4932 39.3975C14.2135 39.5727 13.8759 39.6301 13.554 39.5573C13.2321 39.4845 12.9521 39.2874 12.775 39.0089L11.5761 37.0944C11.0656 42.1119 11.8725 47.1616 13.9448 51.818C19.5931 64.5098 33.5014 71.4541 47.0153 68.3303C47.1752 68.2933 47.3409 68.2882 47.5028 68.3153C47.6647 68.3423 47.8197 68.401 47.9589 68.4879C48.0981 68.5749 48.2189 68.6884 48.3142 68.8221C48.4095 68.9557 48.4776 69.1068 48.5145 69.2667Z" fill="white"/>
</svg>
