<svg width="57" height="56" viewBox="0 0 57 56" fill="none" xmlns="http://www.w3.org/2000/svg">
<path d="M56.346 40.7444L50.606 37.8744L46.9528 28.3719C46.9098 28.2596 46.8441 28.1573 46.7598 28.0715C46.6755 27.9857 46.5744 27.9182 46.4629 27.8732L23.796 18.8125C23.6375 18.7494 23.464 18.7341 23.2969 18.7683C23.1298 18.8025 22.9763 18.8848 22.8554 19.005L19.8322 22.0282C19.7135 22.1492 19.6326 22.3022 19.5992 22.4684C19.5658 22.6346 19.5814 22.8069 19.6441 22.9644L28.7047 45.6313C28.7497 45.7429 28.8172 45.844 28.903 45.9283C28.9888 46.0126 29.0911 46.0783 29.2035 46.1213L38.706 49.7744L41.576 55.5144C41.6364 55.641 41.7264 55.7512 41.8383 55.8357C41.9502 55.9202 42.0808 55.9766 42.2191 56C42.2657 56.0044 42.3125 56.0044 42.3591 56C42.5908 55.9991 42.8126 55.9062 42.976 55.7419L56.5735 42.1444C56.6736 42.0479 56.7492 41.9288 56.7941 41.7972C56.8389 41.6656 56.8518 41.5251 56.8316 41.3875C56.8081 41.2493 56.7517 41.1187 56.6672 41.0067C56.5827 40.8948 56.4725 40.8048 56.346 40.7444ZM21.4772 22.8507L21.9629 22.3694L33.246 33.6525C32.5024 34.7062 32.1812 36.0006 32.346 37.2796C32.5108 38.5587 33.1496 39.7294 34.136 40.5602C35.1224 41.391 36.3846 41.8214 37.6731 41.7663C38.9615 41.7112 40.1824 41.1747 41.0943 40.2628C42.0063 39.3509 42.5428 38.13 42.5979 36.8415C42.6529 35.553 42.2225 34.2908 41.3917 33.3044C40.5609 32.318 39.3903 31.6793 38.1112 31.5145C36.8321 31.3497 35.5378 31.6708 34.4841 32.4144L23.201 21.1313L23.6822 20.6457L45.4566 29.3563L48.891 38.29L39.1216 48.0594L30.1878 44.625L21.4772 22.8507ZM37.4503 33.2194C38.2367 33.2206 38.9984 33.4944 39.6056 33.9941C40.2128 34.4939 40.6279 35.1887 40.7803 35.9602C40.9326 36.7317 40.8128 37.5322 40.4412 38.2252C40.0695 38.9183 39.4691 39.461 38.7422 39.7611C38.0153 40.0611 37.2068 40.0998 36.4546 39.8706C35.7023 39.6414 35.0528 39.1585 34.6166 38.5041C34.1805 37.8497 33.9847 37.0644 34.0627 36.2819C34.1406 35.4993 34.4874 34.768 35.0441 34.2125C35.6829 33.5758 36.5484 33.2186 37.4503 33.2194ZM42.5997 53.6463L40.4122 49.2713L50.0941 39.5894L54.4691 41.7769L42.5997 53.6463Z" fill="#21409C"/>
<path d="M17.5676 46.8124C17.4003 46.6543 17.1788 46.5661 16.9486 46.5661C16.7183 46.5661 16.4968 46.6543 16.3295 46.8124L15.2183 47.9237C12.2528 43.8989 10.6168 39.0492 10.5384 34.0505C10.46 29.0518 11.943 24.1532 14.7808 20.0374C15.6309 20.5052 16.6099 20.6849 17.5708 20.5496C18.5317 20.4143 19.4229 19.9712 20.1108 19.2867C20.7987 18.6023 21.2462 17.7133 21.3864 16.7531C21.5266 15.7929 21.3518 14.8131 20.8883 13.9605C25.0041 11.1228 29.9027 9.63977 34.9014 9.7182C39.9 9.79662 44.7497 11.4326 48.7745 14.398L47.6458 15.4962C47.483 15.6602 47.3918 15.882 47.392 16.113C47.3913 16.2282 47.4134 16.3423 47.457 16.4489C47.5005 16.5556 47.5647 16.6525 47.6458 16.7343L51.5045 20.5624C51.6685 20.7254 51.8902 20.8168 52.1214 20.8168C52.3526 20.8168 52.5743 20.7254 52.7383 20.5624L56.5751 16.7255C56.6565 16.6443 56.721 16.5478 56.7651 16.4415C56.8091 16.3353 56.8318 16.2215 56.8318 16.1065C56.8318 15.9915 56.8091 15.8776 56.7651 15.7714C56.721 15.6652 56.6565 15.5687 56.5751 15.4874L52.7383 11.6505C52.5743 11.4876 52.3526 11.3961 52.1214 11.3961C51.8902 11.3961 51.6685 11.4876 51.5045 11.6505L50.0214 13.1249C46.3661 10.3743 42.0446 8.6462 37.5006 8.11799C32.9566 7.58978 28.3539 8.28052 24.1651 10.1193L29.2095 5.08803C29.7815 5.36133 30.4318 5.42319 31.045 5.26264C31.6582 5.1021 32.1948 4.72952 32.5594 4.21102C32.9241 3.69251 33.0933 3.06159 33.037 2.43019C32.9808 1.79879 32.7027 1.20773 32.2521 0.761863C31.8015 0.315996 31.2076 0.0441509 30.5756 -0.00544667C29.9436 -0.0550442 29.3145 0.120813 28.7999 0.490926C28.2853 0.861039 27.9184 1.40148 27.7643 2.01637C27.6102 2.63127 27.6789 3.28086 27.9583 3.84991L19.4445 12.3768C18.5801 11.7969 17.5411 11.5352 16.5052 11.6363C15.4692 11.7374 14.5004 12.195 13.7644 12.931C13.0284 13.6671 12.5707 14.6358 12.4696 15.6718C12.3685 16.7078 12.6303 17.7467 13.2101 18.6112L4.68326 27.1249C4.11198 26.8465 3.46052 26.7797 2.84462 26.9363C2.22873 27.0929 1.6883 27.4628 1.31936 27.9802C0.950428 28.4976 0.776881 29.1291 0.829563 29.7624C0.882244 30.3957 1.15774 30.9898 1.6071 31.4392C2.05646 31.8885 2.65058 32.164 3.28388 32.2167C3.91718 32.2694 4.54865 32.0959 5.06608 31.7269C5.58351 31.358 5.95338 30.8176 6.10998 30.2017C6.26658 29.5858 6.19975 28.9343 5.92138 28.363L10.9658 23.3318C9.12516 27.5194 8.43224 32.1215 8.95814 36.6654C9.48404 41.2094 11.2098 45.5315 13.9583 49.188L12.4795 50.6712C12.3165 50.8351 12.2251 51.0569 12.2251 51.288C12.2251 51.5192 12.3165 51.741 12.4795 51.9049L16.3164 55.7418C16.4797 55.9061 16.7016 55.9989 16.9333 55.9999C17.0487 56 17.1631 55.9772 17.2697 55.9329C17.3763 55.8886 17.4731 55.8237 17.5545 55.7418L21.3958 51.9049C21.5587 51.741 21.6502 51.5192 21.6502 51.288C21.6502 51.0569 21.5587 50.8351 21.3958 50.6712L17.5676 46.8124ZM52.1301 13.4968L54.7289 16.0955L52.1301 18.6943L49.5314 16.0955L52.1301 13.4968ZM29.7083 2.02553C29.8383 1.89445 30.0043 1.80494 30.1853 1.76837C30.3663 1.7318 30.554 1.74981 30.7247 1.82012C30.8955 1.89042 31.0414 2.00986 31.1442 2.16327C31.2469 2.31668 31.3017 2.49715 31.3017 2.68178C31.3017 2.86641 31.2469 3.04688 31.1442 3.20029C31.0414 3.3537 30.8955 3.47314 30.7247 3.54344C30.554 3.61375 30.3663 3.63176 30.1853 3.59519C30.0043 3.55862 29.8383 3.46911 29.7083 3.33803C29.622 3.25189 29.5536 3.14959 29.5069 3.03699C29.4602 2.92438 29.4362 2.80368 29.4362 2.68178C29.4362 2.55988 29.4602 2.43918 29.5069 2.32657C29.5536 2.21397 29.622 2.11167 29.7083 2.02553ZM15.0083 14.1749C15.2623 13.9196 15.5644 13.717 15.897 13.5788C16.2296 13.4405 16.5862 13.3694 16.9464 13.3694C17.3066 13.3694 17.6632 13.4405 17.9958 13.5788C18.3284 13.717 18.6304 13.9196 18.8845 14.1749C19.2686 14.5584 19.5303 15.0471 19.6365 15.5794C19.7427 16.1116 19.6886 16.6634 19.4811 17.1649C19.2736 17.6664 18.922 18.095 18.4708 18.3967C18.0196 18.6983 17.4891 18.8593 16.9464 18.8593C16.4037 18.8593 15.8731 18.6983 15.4219 18.3967C14.9707 18.095 14.6191 17.6664 14.4116 17.1649C14.2042 16.6634 14.1501 16.1116 14.2563 15.5794C14.3625 15.0471 14.6242 14.5584 15.0083 14.1749ZM4.17576 30.1874C3.99712 30.3364 3.76923 30.4132 3.53687 30.4027C3.30451 30.3922 3.08447 30.2951 2.92 30.1307C2.75553 29.9662 2.65851 29.7462 2.64801 29.5138C2.63751 29.2814 2.71429 29.0535 2.86326 28.8749C3.03835 28.7028 3.27402 28.6064 3.51951 28.6064C3.765 28.6064 4.00067 28.7028 4.17576 28.8749C4.26201 28.961 4.33043 29.0633 4.37711 29.176C4.4238 29.2886 4.44782 29.4093 4.44782 29.5312C4.44782 29.6531 4.4238 29.7738 4.37711 29.8864C4.33043 29.999 4.26201 30.1013 4.17576 30.1874ZM16.9464 53.8693L14.3476 51.2705L16.9464 48.6718L19.5451 51.2705L16.9464 53.8693Z" fill="#21409C"/>
</svg>
