<svg width="57" height="56" viewBox="0 0 57 56" fill="none" xmlns="http://www.w3.org/2000/svg">
<path fill-rule="evenodd" clip-rule="evenodd" d="M22.8054 14.435C22.5356 14.1313 22.5607 13.6675 22.8681 13.3984C23.1694 13.1298 23.6337 13.158 23.9035 13.4611L26.4262 16.312L33.1597 10.3868C33.4672 10.1195 33.9316 10.149 34.1951 10.4533C34.465 10.7576 34.4336 11.2214 34.1324 11.4888L26.8467 17.8965C26.5427 18.1662 26.0816 18.1328 25.8112 17.8326L22.8054 14.435ZM45.0264 37.7944L29.2314 45.6467V29.4928L45.6602 21.3247V36.7728C45.6602 37.2214 45.428 37.5936 45.0264 37.7944ZM11.3403 36.7728V21.3247L27.7628 29.4928V45.6467L11.9741 37.7944C11.5724 37.5936 11.3403 37.2214 11.3403 36.7728ZM28.4971 23.8218C24.0479 23.8218 20.289 20.802 19.1657 16.7043L12.2565 20.1407L28.4972 28.2171L44.7442 20.1407L37.835 16.7043C36.7053 20.802 32.9526 23.8218 28.4971 23.8218ZM28.4971 5.93065C23.9725 5.93065 20.289 9.61366 20.289 14.1426C20.289 18.6696 23.9725 22.3539 28.4971 22.3539C33.028 22.3539 36.7115 18.6696 36.7115 14.1426C36.7115 9.61366 33.028 5.93065 28.4971 5.93065ZM50.2663 15.2019C50.3628 15.2021 50.4583 15.1833 50.5474 15.1465C50.6365 15.1097 50.7175 15.0557 50.7858 14.9876C50.854 14.9194 50.908 14.8384 50.9449 14.7493C50.9817 14.6602 51.0006 14.5647 51.0005 14.4683V7.27107C51.0006 7.17461 50.9817 7.07908 50.9449 6.98994C50.9081 6.9008 50.854 6.81981 50.7858 6.75161C50.7176 6.68341 50.6366 6.62933 50.5475 6.59249C50.4583 6.55565 50.3628 6.53676 50.2663 6.53691H43.0685C42.9721 6.53677 42.8766 6.55567 42.7874 6.59252C42.6983 6.62937 42.6173 6.68344 42.5491 6.75164C42.4809 6.81984 42.4268 6.90083 42.39 6.98996C42.3531 7.07909 42.3342 7.17462 42.3344 7.27107C42.3344 7.67651 42.6607 8.00467 43.0685 8.00467H48.4967L40.2384 16.2605L38.1174 15.2082C38.1613 14.8574 38.1801 14.5022 38.1801 14.1426C38.1801 8.80412 33.8375 4.46289 28.4972 4.46289C22.7512 4.46289 18.2595 9.45641 18.8771 15.2082L16.7623 16.2605L8.50387 8.00467H13.9321C14.3337 8.00467 14.6662 7.67651 14.6662 7.27107C14.6662 6.8663 14.3336 6.53691 13.9321 6.53691H6.73416C6.63771 6.53677 6.54219 6.55567 6.45305 6.59252C6.36392 6.62937 6.28293 6.68344 6.21474 6.75164C6.14654 6.81984 6.09246 6.90083 6.05561 6.98996C6.01877 7.07909 5.99987 7.17462 6 7.27107V14.4683C5.99987 14.5647 6.01877 14.6602 6.05563 14.7493C6.09248 14.8384 6.14656 14.9194 6.21477 14.9875C6.28298 15.0557 6.36397 15.1097 6.4531 15.1465C6.54222 15.1833 6.63774 15.2021 6.73416 15.2019C6.83059 15.2021 6.92611 15.1833 7.01524 15.1465C7.10438 15.1097 7.18538 15.0557 7.25359 14.9876C7.3218 14.9194 7.37588 14.8384 7.41273 14.7493C7.44958 14.6602 7.46847 14.5647 7.46832 14.4683V9.04324L15.3753 16.9495L10.2797 19.4829C10.1571 19.5435 10.054 19.6372 9.98188 19.7535C9.90979 19.8697 9.87168 20.0038 9.87184 20.1405V36.7728C9.87184 37.7843 10.4116 38.6578 11.3215 39.1084L15.3753 41.1241L7.46832 49.0316V43.6066C7.46832 43.2006 7.14206 42.8723 6.73416 42.8723C6.32626 42.8723 6 43.2004 6 43.6066V50.8038C5.99987 50.9002 6.01877 50.9957 6.05563 51.0848C6.09248 51.1739 6.14656 51.2549 6.21477 51.323C6.28298 51.3912 6.36397 51.4452 6.4531 51.482C6.54222 51.5188 6.63774 51.5376 6.73416 51.5374H13.932C14.3336 51.5374 14.6661 51.2086 14.6661 50.8038C14.6661 50.3971 14.3335 50.0696 13.932 50.0696H8.50387L16.7622 41.8138L28.1707 47.4886C28.3779 47.5894 28.6217 47.5898 28.8234 47.4886L40.2383 41.8138L48.4966 50.0696H43.0684C42.9719 50.0693 42.8763 50.0881 42.7871 50.1249C42.6979 50.1617 42.6169 50.2158 42.5486 50.284C42.4804 50.3522 42.4263 50.4333 42.3895 50.5225C42.3528 50.6117 42.334 50.7073 42.3343 50.8038C42.3341 50.9002 42.353 50.9957 42.3899 51.0848C42.4267 51.1739 42.4808 51.2549 42.549 51.323C42.6172 51.3912 42.6982 51.4452 42.7874 51.482C42.8765 51.5188 42.972 51.5376 43.0684 51.5374H50.2662C50.3626 51.5376 50.4582 51.5188 50.5473 51.482C50.6364 51.4452 50.7174 51.3912 50.7856 51.323C50.8538 51.2549 50.9079 51.1739 50.9448 51.0848C50.9816 50.9957 51.0005 50.9002 51.0004 50.8038V43.6066C51.0004 43.2006 50.6741 42.8723 50.2662 42.8723C49.8583 42.8723 49.5319 43.2004 49.5319 43.6066V49.0316L41.625 41.1241L45.6788 39.1084C46.5887 38.6578 47.1284 37.7843 47.1284 36.7728V20.1405C47.1286 20.0038 47.0905 19.8697 47.0184 19.7535C46.9463 19.6372 46.8431 19.5435 46.7205 19.4829L41.6249 16.9495L49.5318 9.04324V14.4683C49.5318 14.5647 49.5507 14.6602 49.5876 14.7493C49.6245 14.8384 49.6786 14.9194 49.7468 14.9875C49.8151 15.0557 49.8961 15.1097 49.9852 15.1465C50.0744 15.1833 50.1699 15.2021 50.2663 15.2019Z" fill="#21409C"/>
</svg>
