<svg width="57" height="56" viewBox="0 0 57 56" fill="none" xmlns="http://www.w3.org/2000/svg">
<g clip-path="url(#clip0_3379_3984)">
<path d="M54.8645 30.4568L52.9624 29.841C52.9176 29.8268 52.899 29.8115 52.8782 29.7579C52.7754 29.4823 52.6605 29.2067 52.537 28.9343C52.5173 28.8906 52.5173 28.8698 52.5413 28.8227L53.4491 27.0388C53.8188 26.3159 53.6821 25.442 53.1057 24.8601L51.044 22.7984C50.4654 22.2253 49.5904 22.0885 48.8685 22.4582L47.089 23.366C47.0376 23.3923 47.0157 23.3901 46.9687 23.3682C46.6996 23.2457 46.424 23.1309 46.1495 23.0281C46.0948 23.0073 46.0795 22.9876 46.0663 22.9482L45.4495 21.0418C45.199 20.2663 44.4815 19.7457 43.6656 19.7457H40.754C39.9249 19.7457 39.2249 20.2543 38.9712 21.0407L38.3521 22.9438C38.3379 22.9876 38.3226 23.0084 38.2756 23.027C38.001 23.1287 37.7232 23.2424 37.4454 23.3693C37.4027 23.389 37.3809 23.3912 37.336 23.3682L35.551 22.4571C34.828 22.0874 33.9541 22.2242 33.3723 22.8006L31.3106 24.8623C30.7374 25.4409 30.6007 26.3159 30.9704 27.0378L31.8804 28.8206C31.9034 28.8654 31.9034 28.8884 31.8804 28.9376C31.7579 29.2067 31.643 29.4823 31.538 29.7645C31.5238 29.8038 31.5085 29.8235 31.4615 29.8399L29.5529 30.4579C29.1854 30.5782 28.8759 30.8035 28.6505 31.0934C28.6265 31.0704 28.6024 31.0474 28.5784 31.0223L26.8896 29.2602V28.1096C27.4507 27.7465 27.9801 27.3254 28.469 26.8474C30.1829 25.174 31.2296 22.9963 31.4626 20.6502C33.0507 20.2488 34.2035 18.8237 34.2035 17.112C34.2035 16.2063 33.871 15.3784 33.323 14.7407V11.0143C33.323 5.51494 28.8485 1.04041 23.3491 1.04041H17.6409C15.4709 1.04041 13.6695 2.64384 13.3599 4.72744C11.2227 4.98775 9.56133 6.81431 9.56133 9.02041V14.7396C9.01336 15.3784 8.68086 16.2074 8.68086 17.1131C8.68086 18.8248 9.83368 20.2499 11.4218 20.6513C11.6548 22.9963 12.7015 25.1751 14.4154 26.8485C14.9043 27.3265 15.4337 27.7476 15.9948 28.1107V29.2602L14.3049 31.0234C13.9593 31.3854 13.5885 31.6031 13.1029 31.7299L5.91914 33.621C4.28071 34.052 3.10493 35.3021 2.77571 36.9668L0.246957 49.7965C-0.00460587 51.0773 0.322425 52.3854 1.14602 53.3862C1.96852 54.3859 3.18914 54.9601 4.49399 54.9601H38.3937C39.6985 54.9601 40.9191 54.387 41.7416 53.3862C42.5641 52.3854 42.8923 51.0773 42.6407 49.7954L42.2174 47.6484H43.6677C44.4815 47.6484 45.199 47.1278 45.4516 46.3523L46.0674 44.4502C46.0849 44.3977 46.1046 44.3824 46.1506 44.366C46.4262 44.2632 46.7018 44.1484 46.9741 44.0248C47.019 44.004 47.042 44.004 47.0835 44.0259L48.8685 44.937C49.5915 45.3067 50.4654 45.1699 51.0473 44.5935L53.109 42.5318C53.6821 41.9532 53.8188 41.0782 53.4491 40.3563L52.5413 38.5768C52.5151 38.5254 52.5173 38.5035 52.5391 38.4565C52.6649 38.182 52.7787 37.9042 52.8782 37.6373C52.899 37.5826 52.9209 37.5673 52.9602 37.5542L54.8656 36.934C55.6531 36.6792 56.1616 35.9792 56.1616 35.1501V32.2385C56.1616 31.4237 55.6399 30.7073 54.8645 30.4568ZM13.8882 6.44462H14.189C14.6713 6.44462 15.0629 6.05306 15.0629 5.57072V5.36619C15.0629 3.94541 16.2201 2.78931 17.642 2.78931H23.3502C27.886 2.78931 31.5752 6.47962 31.5752 11.0143V13.6109C31.2362 13.5113 30.8774 13.4599 30.5056 13.4643V13.0421C30.5056 12.0304 30.1271 11.1215 29.4118 10.4149C28.691 9.70181 27.7799 9.32994 26.7737 9.34416C22.8241 9.37806 19.521 9.02259 16.6762 8.25478C16.6237 8.24056 16.5701 8.23181 16.5154 8.22744C15.6185 8.15744 14.376 8.47353 13.5448 10.369C13.127 11.3206 12.8907 12.4777 12.707 13.484C12.2376 13.4348 11.7631 13.4779 11.3102 13.6109V9.0215C11.3113 7.60072 12.4674 6.44462 13.8882 6.44462ZM13.1248 19.866C13.1127 19.4023 12.7398 19.0282 12.276 19.014C11.2413 18.9845 10.4309 18.1488 10.4309 17.1131C10.4309 16.0653 11.2829 15.2121 12.3318 15.2121C12.5834 15.2121 12.8327 15.2624 13.0723 15.3598C13.3162 15.4604 13.5918 15.4451 13.8237 15.3193C14.0556 15.1935 14.2174 14.9693 14.2645 14.7101C14.294 14.5515 14.3235 14.3863 14.3531 14.2157C14.7359 12.0632 15.2029 9.9665 16.312 9.9665H16.3141C19.2935 10.7595 22.7224 11.1281 26.7934 11.0909C27.3359 11.0843 27.792 11.2692 28.1835 11.6563C28.5696 12.0381 28.7577 12.4909 28.7577 13.041V14.4946C28.7577 14.779 28.8955 15.0448 29.1274 15.2088C29.3593 15.3729 29.6568 15.4134 29.9237 15.3182C30.1249 15.2471 30.3382 15.2099 30.5548 15.2099C31.6026 15.2099 32.4557 16.062 32.4557 17.1109C32.4557 18.1467 31.6452 18.9812 30.6105 19.0118C30.1468 19.0249 29.7738 19.399 29.7618 19.8638C29.647 24.3329 25.9151 27.9685 21.4427 27.9685C16.9704 27.9685 13.2396 24.3351 13.1248 19.866ZM21.4438 29.7196C22.7279 29.7196 23.9781 29.4757 25.1429 29.0131V30.0171C25.1429 32.057 23.4837 33.7162 21.4438 33.7162C19.404 33.7162 17.7448 32.057 17.7448 30.0171V29.0131C18.9219 29.4806 20.1772 29.7204 21.4438 29.7196ZM10.7852 53.2112L9.00243 38.3493C8.99368 38.2804 9.00899 38.2498 9.04399 38.2115C9.08664 38.1634 9.11727 38.1502 9.17961 38.1502H33.708C33.7704 38.1502 33.801 38.1645 33.8437 38.2115C33.8787 38.2498 33.8929 38.2804 33.8852 38.3493L32.1024 53.2112H10.7852ZM40.3909 52.2749C39.902 52.8699 39.1735 53.2112 38.3937 53.2112H33.8634L35.6221 38.5571C35.6888 37.9993 35.5204 37.4623 35.1485 37.0456C34.7712 36.6234 34.2735 36.4002 33.7091 36.4002H9.17852C8.61414 36.4002 8.11649 36.6234 7.73914 37.0456C7.36727 37.4623 7.19883 37.9993 7.26555 38.5571L9.02321 53.2112H4.49399C3.71414 53.2112 2.98571 52.8699 2.4968 52.2749C2.0068 51.6799 1.81321 50.899 1.96305 50.1334L4.49289 37.3048C4.69196 36.2985 5.37446 35.5712 6.36649 35.3109L13.548 33.4198C14.3421 33.212 15.0049 32.8226 15.5704 32.2298L16.219 31.5527C16.884 33.8102 18.9741 35.4629 21.4438 35.4629C23.9135 35.4629 26.0037 33.8102 26.6687 31.5527L27.3162 32.2276C27.8838 32.8215 28.5455 33.2109 29.3385 33.4176L36.5223 35.3087C37.5132 35.569 38.1957 36.2963 38.3948 37.3015L38.4976 37.8232L38.5041 37.8582L40.2946 46.9385L40.2979 46.9549L40.9246 50.1312C41.0745 50.899 40.8798 51.6799 40.3909 52.2749ZM38.1793 33.6976C38.1793 31.474 39.9873 29.6638 42.2098 29.6638C44.4334 29.6638 46.2435 31.4729 46.2435 33.6976C46.2435 35.9201 44.4345 37.7281 42.2098 37.7281C41.4726 37.7281 40.7671 37.5334 40.148 37.1626L40.1098 36.9657C39.8713 35.7604 39.1866 34.7738 38.2045 34.157C38.1878 34.0044 38.1794 33.8511 38.1793 33.6976ZM54.4127 35.1512C54.4127 35.2157 54.3865 35.2518 54.3252 35.2715L52.4156 35.8927C51.8654 36.0743 51.4487 36.4735 51.2398 37.0248C51.1523 37.261 51.0571 37.4918 50.9499 37.7259C50.706 38.2542 50.7148 38.8338 50.9805 39.3643L51.8927 41.1504C51.9102 41.1854 51.9277 41.239 51.8698 41.297L49.8146 43.3521C49.7534 43.4123 49.6998 43.3959 49.6648 43.3773L47.8754 42.464C47.3526 42.1993 46.7718 42.1895 46.2435 42.4334C46.0141 42.5384 45.781 42.6351 45.5446 42.7232C44.9945 42.9234 44.5909 43.3412 44.4049 43.9045L43.788 45.8098C43.7684 45.8688 43.729 45.8973 43.6677 45.8973H41.8718L40.5582 39.2342C41.0887 39.3917 41.6432 39.4737 42.2109 39.4737C45.3991 39.4737 47.9935 36.8815 47.9935 33.6943C47.9935 30.506 45.3991 27.9117 42.2109 27.9117C39.097 27.9117 36.5518 30.389 36.437 33.4777L30.6204 31.9465L32.0051 31.4981C32.564 31.3143 32.9818 30.9096 33.1798 30.366C33.2684 30.1298 33.3668 29.8924 33.4707 29.6638C33.7168 29.1323 33.7059 28.5515 33.4401 28.0254L32.5279 26.2393C32.5104 26.2043 32.4929 26.1507 32.5509 26.0927L34.606 24.0376C34.6673 23.9774 34.7209 23.9938 34.7559 24.0124L36.5485 24.9268C37.0724 25.1882 37.6521 25.1981 38.1771 24.9552C38.4108 24.8486 38.6483 24.7504 38.8891 24.661C39.4327 24.4543 39.833 24.0387 40.0157 23.4842L40.6359 21.5767C40.6556 21.5165 40.6916 21.4902 40.7562 21.4902H43.6677C43.7301 21.4902 43.7684 21.5176 43.788 21.5767L44.4071 23.4885C44.5887 24.0409 44.9912 24.4576 45.5391 24.6632C45.7754 24.7518 46.0127 24.8502 46.2413 24.9542C46.7696 25.1992 47.3493 25.1893 47.8798 24.9235L49.6659 24.0113C49.7009 23.9938 49.7545 23.9763 49.8124 24.0343L51.8676 26.0895C51.9277 26.1507 51.9113 26.2043 51.8927 26.2404L50.9871 28.021C50.717 28.5449 50.7038 29.1279 50.9499 29.6595C51.0564 29.8912 51.1542 30.1269 51.243 30.366C51.4487 30.9129 51.8654 31.3154 52.4221 31.4981L54.3285 32.1149C54.3876 32.1335 54.4149 32.1718 54.4149 32.2352V35.1512H54.4127ZM21.4438 42.8621C19.8918 42.8621 18.6285 44.1265 18.6285 45.6807C18.6285 47.2327 19.8918 48.496 21.4438 48.496C22.9959 48.496 24.2591 47.2327 24.2591 45.6807C24.258 44.1265 22.9959 42.8621 21.4438 42.8621ZM21.4438 46.7471C20.8554 46.7471 20.3774 46.2692 20.3774 45.6807C20.3774 45.0912 20.8554 44.611 21.4438 44.611C22.0323 44.611 22.5102 45.0912 22.5102 45.6807C22.5102 46.2681 22.0312 46.7471 21.4438 46.7471Z" fill="#21409C"/>
</g>
<defs>
<clipPath id="clip0_3379_3984">
<rect width="56" height="56" fill="white" transform="translate(0.164062)"/>
</clipPath>
</defs>
</svg>
