<svg width="81" height="80" viewBox="0 0 81 80" fill="none" xmlns="http://www.w3.org/2000/svg">
<path fill-rule="evenodd" clip-rule="evenodd" d="M69.8675 38.7676C69.5406 38.8227 69.249 39.0053 69.0568 39.2754C68.8646 39.5454 68.7875 39.8807 68.8425 40.2076C69.1125 41.8076 69.25 43.4201 69.25 45.0001C69.25 53.8101 65.325 61.7626 58.995 67.0576C58.4674 63.5914 56.9704 60.345 54.6768 57.6931C52.3832 55.0412 49.3865 53.0919 46.0325 52.0701C47.4054 51.1591 48.5317 49.9228 49.3111 48.4712C50.0906 47.0196 50.499 45.3978 50.5 43.7501C50.5 38.2351 46.015 33.7501 40.5 33.7501C34.985 33.7501 30.5 38.2351 30.5 43.7501C30.5 47.2201 32.2775 50.2751 34.9675 52.0701C31.6135 53.0919 28.6168 55.0412 26.3232 57.6931C24.0296 60.345 22.5326 63.5914 22.005 67.0576C18.783 64.3577 16.1942 60.9823 14.422 57.1705C12.6498 53.3587 11.7376 49.2037 11.75 45.0001C11.75 43.4201 11.8875 41.8101 12.1575 40.2076C12.1876 40.0446 12.185 39.8772 12.1497 39.7151C12.1145 39.5531 12.0474 39.3997 11.9523 39.2639C11.8572 39.128 11.7361 39.0125 11.5959 38.9239C11.4557 38.8354 11.2993 38.7756 11.1358 38.7481C10.9723 38.7205 10.8049 38.7258 10.6435 38.7636C10.482 38.8014 10.3297 38.8709 10.1954 38.9681C10.0611 39.0653 9.94744 39.1883 9.8611 39.3298C9.77476 39.4714 9.71745 39.6287 9.6925 39.7926C9.40054 41.5131 9.25252 43.255 9.25 45.0001C9.25 60.3501 20.215 73.3076 35.32 75.8076C35.6412 75.8492 35.9661 75.7644 36.226 75.5712C36.486 75.378 36.6608 75.0914 36.7137 74.7718C36.7665 74.4522 36.6932 74.1246 36.5093 73.858C36.3253 73.5914 36.045 73.4066 35.7275 73.3426C31.6432 72.6679 27.7539 71.1156 24.3275 68.7926C24.925 60.3101 31.9 53.7501 40.5 53.7501C49.1 53.7501 56.0725 60.3101 56.675 68.7926C53.2479 71.1159 49.3576 72.6683 45.2725 73.3426C45.106 73.3642 44.9456 73.419 44.8008 73.5039C44.656 73.5888 44.5298 73.7019 44.4296 73.8366C44.3295 73.9714 44.2576 74.1249 44.218 74.288C44.1785 74.4511 44.1723 74.6206 44.1996 74.7862C44.227 74.9518 44.2875 75.1102 44.3774 75.2519C44.4673 75.3936 44.5848 75.5158 44.723 75.6111C44.8611 75.7065 45.0171 75.773 45.1815 75.8067C45.3459 75.8405 45.5155 75.8408 45.68 75.8076C60.785 73.3076 71.75 60.3526 71.75 45.0001C71.75 43.2801 71.6 41.5276 71.3075 39.7926C71.2809 39.6305 71.2224 39.4752 71.1354 39.3358C71.0485 39.1964 70.9348 39.0755 70.801 38.9802C70.6671 38.885 70.5157 38.8171 70.3555 38.7806C70.1953 38.7441 70.0294 38.7397 69.8675 38.7676ZM33 43.7501C33 39.6151 36.365 36.2501 40.5 36.2501C44.635 36.2501 48 39.6151 48 43.7501C48 47.8851 44.635 51.2501 40.5 51.2501C36.365 51.2501 33 47.8851 33 43.7501ZM54.19 13.6976C54.1181 13.4753 53.9854 13.2776 53.8069 13.127C53.6284 12.9763 53.4112 12.8786 53.18 12.8451L45.1925 11.6851L41.62 4.44512C41.2 3.59512 39.8 3.59512 39.38 4.44512L35.8075 11.6851L27.82 12.8451C27.5891 12.8786 27.3722 12.9761 27.1939 13.1265C27.0155 13.2769 26.8828 13.4742 26.8108 13.6961C26.7387 13.918 26.7302 14.1556 26.7862 14.3821C26.8421 14.6085 26.9604 14.8148 27.1275 14.9776L32.9075 20.6101L31.5425 28.5651C31.5029 28.7952 31.5286 29.0317 31.6165 29.2479C31.7045 29.4641 31.8512 29.6514 32.0401 29.7885C32.229 29.9256 32.4525 30.0071 32.6854 30.0238C32.9182 30.0404 33.151 29.9915 33.3575 29.8826L40.5 26.1251L47.6425 29.8826C47.8486 29.9931 48.0818 30.0429 48.315 30.0261C48.5482 30.0092 48.7719 29.9266 48.96 29.7876C49.1492 29.6504 49.296 29.4628 49.384 29.2463C49.4719 29.0297 49.4974 28.7929 49.4575 28.5626L48.0925 20.6126L53.875 14.9751C54.042 14.8126 54.1602 14.6066 54.2163 14.3804C54.2724 14.1542 54.2641 13.9169 54.1925 13.6951L54.19 13.6976ZM45.875 19.2751C45.7298 19.4168 45.6212 19.5916 45.5585 19.7845C45.4958 19.9774 45.4808 20.1827 45.515 20.3826L46.565 26.4901L41.08 23.6051C40.9002 23.5114 40.7003 23.4624 40.4975 23.4624C40.2947 23.4624 40.0948 23.5114 39.915 23.6051L34.4325 26.4901L35.48 20.3826C35.5142 20.1827 35.4993 19.9774 35.4365 19.7845C35.3738 19.5916 35.2652 19.4168 35.12 19.2751L30.685 14.9526L36.815 14.0626C37.0152 14.0332 37.2052 13.9558 37.3689 13.8369C37.5326 13.7181 37.6651 13.5613 37.755 13.3801L40.5 7.82512L43.2425 13.3826C43.3324 13.5638 43.4649 13.7206 43.6286 13.8394C43.7923 13.9583 43.9823 14.0357 44.1825 14.0651L50.3125 14.9551L45.8775 19.2776L45.875 19.2751Z" fill="white"/>
<path fill-rule="evenodd" clip-rule="evenodd" d="M10.5862 33.8076C10.5461 34.0379 10.5713 34.2747 10.659 34.4913C10.7467 34.708 10.8934 34.8957 11.0824 35.0331C11.2714 35.1706 11.4952 35.2523 11.7283 35.269C11.9614 35.2857 12.1945 35.2367 12.4012 35.1276L17.9987 32.1826L23.5987 35.1276C23.8045 35.2376 24.0372 35.2871 24.2699 35.2703C24.5027 35.2535 24.7259 35.1711 24.9137 35.0326C25.1028 34.8954 25.2497 34.7078 25.3377 34.4913C25.4256 34.2747 25.4511 34.0379 25.4112 33.8076L24.3412 27.5751L28.8712 23.1626C29.0391 22.9999 29.1579 22.7935 29.2144 22.5666C29.2708 22.3398 29.2624 22.1017 29.1903 21.8793C29.1182 21.657 28.9852 21.4593 28.8064 21.3087C28.6275 21.1582 28.4101 21.0608 28.1787 21.0276L21.9187 20.1201L19.1187 14.4451C18.6987 13.5951 17.2987 13.5951 16.8787 14.4451L14.0787 20.1201L7.8187 21.0276C7.58731 21.0608 7.36986 21.1582 7.19104 21.3087C7.01222 21.4593 6.8792 21.657 6.80708 21.8793C6.73496 22.1017 6.72663 22.3398 6.78304 22.5666C6.83945 22.7935 6.95833 22.9999 7.1262 23.1626L11.6562 27.5751L10.5862 33.8076ZM10.6862 23.1401L15.0862 22.5001C15.2868 22.4711 15.4774 22.3938 15.6415 22.275C15.8057 22.1561 15.9385 21.9992 16.0287 21.8176L17.9987 17.8251L19.9687 21.8176C20.0586 21.9988 20.1911 22.1556 20.3548 22.2744C20.5185 22.3933 20.7085 22.4707 20.9087 22.5001L25.3112 23.1401L22.1262 26.2426C21.981 26.3843 21.8724 26.5591 21.8097 26.752C21.7469 26.9449 21.732 27.1502 21.7662 27.3501L22.5187 31.7351L18.5812 29.6651C18.4013 29.5714 18.2015 29.5224 17.9987 29.5224C17.7959 29.5224 17.596 29.5714 17.4162 29.6651L13.4787 31.7351L14.2287 27.3501C14.2632 27.1504 14.2487 26.9452 14.1864 26.7523C14.1241 26.5594 14.016 26.3845 13.8712 26.2426L10.6862 23.1401ZM73.1787 21.0276L66.9187 20.1201L64.1187 14.4451C63.6987 13.5951 62.2987 13.5951 61.8787 14.4451L59.0787 20.1201L52.8187 21.0276C52.5873 21.0608 52.3699 21.1582 52.191 21.3087C52.0122 21.4593 51.8792 21.657 51.8071 21.8793C51.735 22.1017 51.7266 22.3398 51.783 22.5666C51.8394 22.7935 51.9583 22.9999 52.1262 23.1626L56.6562 27.5751L55.5862 33.8076C55.5461 34.0379 55.5713 34.2747 55.659 34.4913C55.7467 34.708 55.8934 34.8957 56.0824 35.0331C56.2714 35.1706 56.4952 35.2523 56.7283 35.269C56.9614 35.2857 57.1945 35.2367 57.4012 35.1276L62.9987 32.1826L68.5987 35.1276C68.8045 35.2376 69.0372 35.2871 69.2699 35.2703C69.5027 35.2535 69.7259 35.1711 69.9137 35.0326C70.1028 34.8954 70.2497 34.7078 70.3377 34.4913C70.4256 34.2747 70.4511 34.0379 70.4112 33.8076L69.3412 27.5751L73.8712 23.1626C74.0391 22.9999 74.1579 22.7935 74.2143 22.5666C74.2708 22.3398 74.2624 22.1017 74.1903 21.8793C74.1182 21.657 73.9852 21.4593 73.8064 21.3087C73.6275 21.1582 73.4101 21.0608 73.1787 21.0276ZM67.1262 26.2426C66.981 26.3843 66.8724 26.5591 66.8097 26.752C66.7469 26.9449 66.732 27.1502 66.7662 27.3501L67.5187 31.7351L63.5812 29.6651C63.4013 29.5714 63.2015 29.5224 62.9987 29.5224C62.7959 29.5224 62.596 29.5714 62.4162 29.6651L58.4787 31.7351L59.2287 27.3501C59.2632 27.1504 59.2487 26.9452 59.1864 26.7523C59.1241 26.5594 59.016 26.3845 58.8712 26.2426L55.6862 23.1401L60.0862 22.5001C60.2868 22.4711 60.4774 22.3938 60.6415 22.275C60.8057 22.1561 60.9385 21.9992 61.0287 21.8176L62.9987 17.8251L64.9687 21.8176C65.0586 21.9988 65.1911 22.1556 65.3548 22.2744C65.5185 22.3933 65.7085 22.4707 65.9087 22.5001L70.3112 23.1401L67.1262 26.2426Z" fill="white"/>
<path d="M40.5 76.25C41.1904 76.25 41.75 75.6904 41.75 75C41.75 74.3096 41.1904 73.75 40.5 73.75C39.8096 73.75 39.25 74.3096 39.25 75C39.25 75.6904 39.8096 76.25 40.5 76.25Z" fill="white"/>
</svg>
