<svg width="57" height="56" viewBox="0 0 57 56" fill="none" xmlns="http://www.w3.org/2000/svg">
<g clip-path="url(#clip0_3381_4367)">
<path d="M28.1987 36.0762C23.6952 36.0762 20.0312 32.4854 20.0312 28.0709C20.0312 23.6564 23.6952 20.0652 28.1987 20.0652C28.8372 20.0652 29.6154 20.2223 29.5639 21.0398C29.5147 21.8202 28.8074 21.8716 28.1987 21.8716C24.691 21.8716 21.8377 24.6527 21.8377 28.0709C21.8377 31.4892 24.691 34.2698 28.1987 34.2698C31.7063 34.2698 34.5596 31.4887 34.5596 28.0709C34.5625 27.0833 34.3217 26.1103 33.8587 25.238C33.8012 25.1329 33.765 25.0174 33.7525 24.8983C33.74 24.7791 33.7513 24.6587 33.7858 24.5439C33.8202 24.4292 33.8772 24.3225 33.9533 24.23C34.0294 24.1374 34.1232 24.061 34.2292 24.0051C34.3351 23.9491 34.4511 23.9148 34.5705 23.9042C34.6898 23.8935 34.8101 23.9067 34.9242 23.943C35.0384 23.9793 35.1442 24.0379 35.2356 24.1155C35.3269 24.193 35.4018 24.288 35.4561 24.3948C36.0529 25.5283 36.3652 26.7899 36.3661 28.0709C36.3661 32.4854 32.7026 36.0762 28.1987 36.0762Z" fill="#21409C"/>
<path d="M32.5067 23.2554C32.3238 23.2554 32.1391 23.1999 31.9793 23.0847C31.7388 22.9116 31.4868 22.7552 31.2251 22.6164C31.1177 22.5624 31.0222 22.4875 30.9441 22.3961C30.866 22.3048 30.807 22.1987 30.7704 22.0842C30.7338 21.9697 30.7205 21.8491 30.7311 21.7294C30.7417 21.6097 30.7762 21.4933 30.8324 21.387C30.8886 21.2808 30.9654 21.1868 31.0584 21.1107C31.1514 21.0345 31.2586 20.9777 31.3738 20.9435C31.4891 20.9093 31.6099 20.8984 31.7294 20.9116C31.8489 20.9247 31.9645 20.9615 32.0696 21.0199C32.4047 21.1974 32.7298 21.3988 33.036 21.6197C33.7297 22.1196 33.363 23.2554 32.5067 23.2554ZM52.7634 13.8217L52.7313 9.90031C52.7293 9.66209 52.6332 9.43432 52.4641 9.26659C52.2949 9.09885 52.0663 9.00475 51.8281 9.00476H51.8204C51.7018 9.0057 51.5845 9.03 51.4753 9.07627C51.3661 9.12253 51.2671 9.18986 51.1839 9.27441C51.1007 9.35895 51.0349 9.45905 50.9904 9.569C50.9459 9.67895 50.9235 9.79659 50.9244 9.91521L50.9339 11.1052C45.5114 4.64805 36.8255 0.45166 28.4942 0.45166C19.8792 0.45166 11.9046 4.31024 6.61849 11.037C6.54376 11.1302 6.48824 11.2372 6.45514 11.3519C6.42205 11.4667 6.41203 11.5868 6.42568 11.7055C6.43932 11.8241 6.47636 11.9388 6.53464 12.0431C6.59292 12.1473 6.67129 12.2389 6.76521 12.3127C6.85914 12.3864 6.96676 12.4408 7.08184 12.4727C7.19692 12.5046 7.31718 12.5133 7.43566 12.4984C7.55414 12.4835 7.6685 12.4453 7.7721 12.3859C7.87571 12.3265 7.96652 12.2472 8.03926 12.1525C12.9808 5.86424 20.4365 2.25811 28.4942 2.25811C36.5934 2.25811 45.0516 6.48792 50.0871 12.9266H47.6082C47.3687 12.9266 47.1389 13.0217 46.9696 13.1911C46.8002 13.3605 46.705 13.5902 46.705 13.8298C46.705 14.0693 46.8002 14.2991 46.9696 14.4685C47.1389 14.6379 47.3687 14.733 47.6082 14.733H51.8602C52.1515 14.7326 52.7634 14.4079 52.7634 13.8217ZM54.3273 17.9589C54.2403 17.7357 54.0682 17.5562 53.8488 17.4599C53.6295 17.3636 53.3809 17.3584 53.1576 17.4454C52.9344 17.5324 52.755 17.7045 52.6587 17.9239C52.5624 18.1433 52.5571 18.3919 52.6442 18.6151C53.7799 21.5291 54.3604 24.63 54.3558 27.7575C54.3558 37.6619 47.4565 47.1724 37.6258 51.2671L38.2987 50.2375C38.3648 50.1382 38.4105 50.0268 38.4333 49.9097C38.4562 49.7926 38.4555 49.6722 38.4316 49.5553C38.4076 49.4385 38.3607 49.3276 38.2936 49.2289C38.2265 49.1303 38.1405 49.046 38.0406 48.9807C37.9408 48.9155 37.829 48.8707 37.7117 48.849C37.5944 48.8272 37.474 48.8288 37.3574 48.8539C37.2407 48.8789 37.1302 48.9267 37.0322 48.9947C36.9342 49.0626 36.8506 49.1493 36.7862 49.2498L34.632 52.5457C34.3322 53.0031 34.525 53.6458 35.0236 53.8662L38.6527 55.4667C39.7181 55.9341 40.4475 54.2844 39.3817 53.8138L37.8376 53.1332C42.5773 51.2513 46.8739 48.1217 50.1075 44.1569C54.069 39.2994 56.1622 33.629 56.1622 27.7575C56.167 24.4055 55.5446 21.0821 54.3273 17.9589C55.5449 21.0836 54.1462 17.4942 54.3273 17.9589ZM29.5658 53.2353C29.2104 53.2493 28.8532 53.2565 28.4942 53.2565C14.234 53.2565 2.63255 41.818 2.63255 27.7575C2.63255 25.27 3.67804 22.1589 4.6743 19.5328L5.47094 21.2954C5.95191 22.3585 7.59623 21.6111 7.11752 20.552L5.43346 16.8262C5.22617 16.3683 4.65578 16.1655 4.20597 16.3904L0.661263 18.1657C0.551955 18.2168 0.453996 18.2893 0.373172 18.3789C0.292347 18.4685 0.230296 18.5734 0.190683 18.6874C0.151069 18.8014 0.134696 18.9221 0.142531 19.0426C0.150365 19.163 0.182249 19.2806 0.236298 19.3885C0.290347 19.4964 0.365466 19.5923 0.457219 19.6707C0.548972 19.7491 0.655499 19.8083 0.77051 19.8448C0.88552 19.8813 1.00668 19.8944 1.12684 19.8833C1.247 19.8722 1.36372 19.8372 1.4701 19.7802L2.92475 19.0518C1.89417 21.784 0.826554 25.023 0.826554 27.7571C0.826554 42.813 13.2382 55.062 28.4946 55.062C28.8776 55.062 29.2587 55.0539 29.6376 55.039C29.7577 55.0367 29.8762 55.0104 29.986 54.9618C30.0958 54.9131 30.1948 54.843 30.2771 54.7556C30.3595 54.6682 30.4236 54.5653 30.4657 54.4528C30.5078 54.3403 30.527 54.2205 30.5223 54.1005C30.5175 53.9805 30.4888 53.8626 30.4379 53.7538C30.387 53.6451 30.3149 53.5475 30.2258 53.4669C30.1368 53.3864 30.0325 53.3244 29.9192 53.2846C29.8059 53.2448 29.6857 53.228 29.5658 53.2353C30.0631 53.2163 29.2109 53.2493 29.5658 53.2353Z" fill="#21409C"/>
<path d="M29.6088 46.06C28.7223 46.06 26.0943 46.0704 25.6852 45.8961C24.9807 45.5962 24.4062 44.8316 24.4062 44.0476V42.2484C23.0459 41.8919 21.7438 41.3418 20.54 40.6149L19.2754 41.8767C18.4815 42.6607 17.128 42.5293 16.3662 41.8004C15.994 41.4441 14.5452 39.9646 14.2102 39.5753C13.4957 38.7448 13.5115 37.4577 14.2923 36.6782L15.565 35.4087C14.8207 34.1406 14.2779 32.8079 13.969 31.4896H12.1878C11.0773 31.4896 10.1596 30.5774 10.0987 29.4768C10.0702 28.9624 10.0838 26.8872 10.0987 26.3706C10.1294 25.3061 10.9906 24.2837 12.1138 24.2837H13.9193C14.2762 22.9268 14.8272 21.6286 15.5551 20.4292L14.2928 19.1696C13.5029 18.3797 13.6398 17.0204 14.3691 16.2617C14.7263 15.8905 16.2094 14.4444 16.5992 14.1106C17.4302 13.3994 18.7172 13.4152 19.4976 14.1928L20.7721 15.4646C22.0434 14.7212 23.3802 14.1793 24.7025 13.8704V12.0219C24.7025 10.911 25.6183 9.99646 26.7176 9.93504C27.2329 9.90658 29.313 9.91878 29.831 9.93504C30.3725 9.95186 30.8861 10.1794 31.2625 10.5691C31.6388 10.9589 31.8482 11.4801 31.8461 12.0219V13.8212C33.2065 14.1774 34.5086 14.7276 35.7123 15.4546L36.9769 14.1928C37.769 13.4061 39.1261 13.5421 39.8862 14.2696C40.2583 14.6259 41.7071 16.105 42.0417 16.4943C42.7562 17.3252 42.7403 18.6119 41.9591 19.3914L40.6869 20.6608C41.4311 21.9285 41.9735 23.2608 42.2829 24.5795H44.064C45.1488 24.5795 46.1094 25.382 46.2205 26.4803C46.2742 27.0119 46.2431 29.1674 46.2277 29.699C46.197 30.7639 45.3367 31.7854 44.2126 31.7854H42.4071C42.05 33.1424 41.4991 34.4407 40.7713 35.6404L42.0336 36.8995C42.8239 37.6898 42.6866 39.0492 41.9572 39.8079C41.6 40.1791 40.1174 41.6247 39.7272 41.9585C38.8958 42.6702 37.6096 42.6553 36.8287 41.8767L35.5543 40.605C34.283 41.3479 32.9467 41.8903 31.6239 42.1992V43.9735C31.6239 45.0385 30.7089 46.06 29.6088 46.06ZM26.2122 43.9758C26.2316 44.0675 26.2962 44.2535 26.4949 44.2535H29.5374C29.63 44.2341 29.8174 44.17 29.8174 43.9731V41.4585C29.8175 41.2447 29.8935 41.0379 30.0317 40.8748C30.17 40.7117 30.3616 40.603 30.5725 40.5679C32.1121 40.3119 33.7108 39.667 35.1961 38.7037C35.3696 38.5914 35.5763 38.5418 35.7818 38.5634C35.9873 38.5849 36.1792 38.6762 36.3256 38.822L38.1045 40.5973C38.2477 40.7405 38.4396 40.656 38.53 40.6027L40.6941 38.5154C40.8232 38.3866 40.7451 38.2037 40.6918 38.1125L38.9784 36.4027C38.829 36.2537 38.7365 36.057 38.717 35.8469C38.6974 35.6368 38.752 35.4265 38.8714 35.2525C39.785 33.9197 40.4728 32.3021 40.8079 30.6966C40.8503 30.4935 40.9614 30.3112 41.1224 30.1803C41.2835 30.0495 41.4847 29.978 41.6922 29.9781H44.1417C44.2338 29.9591 44.4212 29.8954 44.4212 29.6985V26.661C44.3842 26.4781 44.2641 26.3855 44.064 26.3855H41.5436C41.3298 26.3855 41.1229 26.3097 40.9597 26.1715C40.7966 26.0333 40.6877 25.8417 40.6525 25.6308C40.3965 24.0958 39.7502 22.5016 38.7851 21.0199C38.6719 20.8461 38.6219 20.6387 38.6435 20.4325C38.6651 20.2262 38.7571 20.0337 38.9039 19.8872L40.6828 18.1119C40.8232 17.9719 40.7406 17.7827 40.6882 17.6928L38.5963 15.5337C38.4654 15.4036 38.2793 15.4822 38.1867 15.5355L36.4729 17.2457C36.3241 17.3944 36.1279 17.4864 35.9185 17.5058C35.709 17.5252 35.4993 17.4707 35.3258 17.3519C33.9903 16.441 32.3682 15.7541 30.7582 15.4194C30.5549 15.3772 30.3724 15.2662 30.2413 15.1051C30.1103 14.9441 30.0387 14.7428 30.0387 14.5352V12.0206C30.0387 11.8467 29.9172 11.7401 29.8301 11.7401H26.7876C26.695 11.7596 26.5076 11.8237 26.5076 12.0206V14.6092C26.5075 14.823 26.4315 15.0299 26.2933 15.1929C26.155 15.356 25.9634 15.4647 25.7525 15.4998C24.2134 15.7559 22.6147 16.4003 21.1289 17.3636C20.9556 17.4763 20.7489 17.526 20.5434 17.5045C20.3378 17.483 20.1459 17.3915 19.9998 17.2453L18.2209 15.4705C18.0782 15.3277 17.8858 15.4117 17.7955 15.4646L15.6314 17.5519C15.5022 17.6806 15.5803 17.8636 15.6336 17.9548L17.3471 19.665C17.4965 19.8141 17.589 20.0107 17.6085 20.2208C17.6281 20.4309 17.5734 20.6413 17.4541 20.8153C16.5409 22.1471 15.8531 23.7652 15.5176 25.3707C15.4751 25.5738 15.3641 25.7561 15.203 25.887C15.042 26.0178 14.8408 26.0893 14.6333 26.0892H12.1851C12.0925 26.1091 11.9051 26.1728 11.9051 26.3701V29.405C11.9245 29.4966 11.9891 29.6827 12.1878 29.6827H14.7083C14.9221 29.6827 15.129 29.7585 15.2921 29.8967C15.4553 30.0349 15.5641 30.2265 15.5993 30.4374C15.8554 31.9719 16.5012 33.5666 17.4667 35.0488C17.58 35.2225 17.63 35.4299 17.6084 35.6362C17.5867 35.8424 17.4948 36.035 17.348 36.1814L15.5691 37.9563C15.4286 38.0967 15.5113 38.2859 15.5636 38.3758L17.6555 40.535C17.7865 40.6655 17.9725 40.5869 18.0651 40.5327L19.779 38.8225C19.9279 38.6738 20.1241 38.5818 20.3336 38.5625C20.5432 38.5431 20.7529 38.5975 20.9265 38.7163C22.2615 39.6277 23.8832 40.3146 25.4937 40.6492C25.697 40.6915 25.8795 40.8025 26.0105 40.9635C26.1416 41.1246 26.2131 41.3259 26.2131 41.5335V43.9758H26.2122Z" fill="#21409C"/>
</g>
<defs>
<clipPath id="clip0_3381_4367">
<rect width="56" height="56" fill="white" transform="translate(0.164062)"/>
</clipPath>
</defs>
</svg>
