<svg width="57" height="56" viewBox="0 0 57 56" fill="none" xmlns="http://www.w3.org/2000/svg">
<path d="M28.4702 8.15331e-10C27.4663 8.15331e-10 26.4631 0.0539671 25.4649 0.161551C24.5501 0.255 23.6464 0.408257 22.7549 0.594222C22.582 0.630441 22.4094 0.668446 22.2372 0.70823C16.9845 1.90416 12.1882 4.58977 8.4235 8.44304C8.07162 8.8038 7.72886 9.17336 7.39556 9.55135C-2.77408 21.2265 -1.55363 38.9351 10.1216 49.1048C21.2991 58.8409 38.1241 58.1931 48.5199 47.6264C48.8721 47.2659 49.2148 46.8964 49.5478 46.5181C54.0359 41.4071 56.5091 34.8366 56.5051 28.0347C56.5051 12.5514 43.9534 -0.000116811 28.4702 8.15331e-10ZM9.66918 9.84478C9.81683 9.69152 9.97009 9.54481 10.1205 9.39622C10.2944 9.22521 10.4672 9.05326 10.6448 8.88786C10.8009 8.74208 10.9616 8.6019 11.1214 8.45986C11.3017 8.30006 11.4812 8.14026 11.6662 7.98607C11.8288 7.8487 11.9961 7.71694 12.1624 7.58424C12.3493 7.43472 12.5362 7.2852 12.7287 7.14129C12.8988 7.01367 13.0711 6.88905 13.2455 6.76749C13.4389 6.62919 13.6333 6.48714 13.8305 6.35818C14.0072 6.2391 14.1854 6.12228 14.365 6.00775C14.564 5.87949 14.7652 5.75487 14.9687 5.63395C15.3553 5.40318 15.7469 5.18103 16.1434 4.96766C16.3303 4.86801 16.5172 4.77048 16.7041 4.67516C16.9173 4.56799 17.1319 4.46363 17.3479 4.3621C17.5348 4.27333 17.7292 4.18455 17.9217 4.10044C18.1413 4.007 18.3637 3.91355 18.5861 3.8201C18.7796 3.74066 18.9721 3.6631 19.1674 3.58834C19.3935 3.50237 19.6225 3.422 19.8514 3.34164C20.047 3.27256 20.2432 3.20559 20.4402 3.14072C20.6729 3.06596 20.9074 2.99681 21.1429 2.92859C21.3401 2.87158 21.5354 2.81271 21.7335 2.75945C21.8092 2.73982 21.8849 2.72393 21.9606 2.70431C19.1945 5.39022 17.1417 8.7235 15.9882 12.4025C13.7702 11.8175 11.623 10.9912 9.58508 9.93823C9.61592 9.90552 9.64208 9.87282 9.66918 9.84478ZM8.32538 11.3493C10.5702 12.5656 12.9506 13.5129 15.4173 14.1715C14.208 18.3762 13.5733 22.7253 13.5305 27.1002H2.32593C2.52949 21.3311 4.63929 15.792 8.32538 11.3493ZM8.32538 44.7201C4.63952 40.2773 2.52975 34.7383 2.32593 28.9692H13.5305C13.5733 33.3442 14.2079 37.6932 15.4173 41.8979C12.9506 42.5568 10.5702 43.504 8.32538 44.7201ZM21.7279 53.3137C21.5391 53.2661 21.3438 53.2044 21.1494 53.1474C20.913 53.0782 20.6757 53.0091 20.442 52.9334C20.2449 52.8698 20.0505 52.8016 19.8561 52.7334C19.6258 52.6546 19.3968 52.5721 19.1693 52.4858C18.9755 52.4115 18.7827 52.3348 18.5908 52.2559C18.3675 52.1624 18.1441 52.069 17.9226 51.9755C17.7318 51.8914 17.5421 51.8048 17.3535 51.7157C17.1358 51.6129 16.919 51.5083 16.6994 51.3999C16.5125 51.3064 16.3256 51.213 16.1387 51.1111C15.9275 50.998 15.7182 50.8822 15.5088 50.7626C15.3219 50.6588 15.1444 50.5523 14.964 50.4439C14.759 50.3203 14.5558 50.1935 14.3547 50.0636C14.1772 49.9505 13.9996 49.8355 13.8249 49.7178C13.6258 49.5822 13.4286 49.4439 13.2333 49.3029C13.0623 49.1805 12.8913 49.058 12.7231 48.9291C12.5302 48.7827 12.3396 48.6335 12.1512 48.4815C11.9858 48.3497 11.8213 48.2189 11.6597 48.0834C11.4728 47.9282 11.2924 47.7666 11.1111 47.6058C10.9522 47.4647 10.7924 47.3255 10.6373 47.1816C10.4588 47.0152 10.286 46.8424 10.1121 46.6713C9.96168 46.5228 9.80842 46.376 9.66077 46.2237C9.63367 46.1947 9.60751 46.1648 9.58041 46.1368C11.6182 45.0834 13.7654 44.2567 15.9836 43.6716C17.1373 47.3505 19.19 50.6837 21.9559 53.3698C21.8802 53.3502 21.8036 53.3343 21.7279 53.3137ZM27.5358 54.1267C23.5371 53.5586 20.0318 49.3851 17.8264 43.2221C21.0149 42.5081 24.2686 42.1252 27.5358 42.0792V54.1267ZM27.5358 40.2102C24.07 40.2558 20.6188 40.6674 17.2395 41.4382C16.0661 37.384 15.4472 33.1895 15.3995 28.9692H27.5358V40.2102ZM27.5358 27.1002H15.3995C15.4471 22.8799 16.066 18.6854 17.2395 14.6313C20.6188 15.4019 24.07 15.8135 27.5358 15.8592V27.1002ZM27.5358 13.9902C24.2686 13.9446 21.0149 13.5616 17.8264 12.8473C20.0318 6.68432 23.5371 2.51087 27.5358 1.9427V13.9902ZM48.6152 11.3493C52.301 15.7921 54.4108 21.3311 54.6146 27.1002H43.41C43.3673 22.7253 42.7326 18.3762 41.5233 14.1715C43.9899 13.5126 46.3703 12.5653 48.6152 11.3493ZM35.2052 2.75477C35.4014 2.80337 35.5967 2.86504 35.7911 2.92205C36.0275 2.9912 36.2649 3.06035 36.4985 3.13605C36.6957 3.19959 36.8901 3.26781 37.0844 3.33603C37.3143 3.41546 37.5442 3.49676 37.7713 3.58367C37.9657 3.65749 38.1572 3.73506 38.3498 3.81355C38.5731 3.907 38.7964 4.00045 39.0179 4.0939C39.2086 4.17801 39.3983 4.26456 39.587 4.35369C39.8048 4.45649 40.0216 4.56115 40.2412 4.66955C40.4281 4.763 40.615 4.85645 40.8019 4.95831C41.0131 5.07138 41.2224 5.18726 41.4317 5.30688C41.6186 5.41061 41.7962 5.51714 41.9765 5.62554C42.1816 5.74912 42.3847 5.87591 42.5858 6.00588C42.7634 6.11895 42.9409 6.2339 43.1157 6.35164C43.3145 6.48687 43.5114 6.62488 43.7063 6.76562C43.8788 6.88772 44.0495 7.01233 44.2184 7.13942C44.4109 7.28427 44.5997 7.43472 44.7894 7.58611C44.9538 7.71694 45.1192 7.84777 45.2809 7.9842C45.4678 8.13933 45.6482 8.301 45.8294 8.46173C45.9883 8.60284 46.1481 8.74208 46.3032 8.88599C46.4817 9.05233 46.6546 9.22521 46.8284 9.39622C46.9789 9.54481 47.1321 9.69152 47.2798 9.84385C47.3069 9.87282 47.333 9.90272 47.3601 9.93075C45.3223 10.9842 43.1751 11.8109 40.957 12.396C39.801 8.71661 37.7457 5.38363 34.9772 2.6987C35.0529 2.71833 35.1295 2.73421 35.2052 2.75477ZM29.4048 1.9427C33.4035 2.51087 36.9088 6.68432 39.1142 12.8473C35.9256 13.5613 32.6719 13.9443 29.4048 13.9902V1.9427ZM29.4048 15.8592C32.8705 15.8136 36.3218 15.402 39.701 14.6313C40.8744 18.6855 41.4934 22.8799 41.541 27.1002H29.4048V15.8592ZM29.4048 28.9692H41.541C41.4935 33.1895 40.8745 37.384 39.701 41.4382C36.3217 40.6675 32.8705 40.2559 29.4048 40.2102V28.9692ZM29.4048 54.1267V42.0792C32.672 42.1248 35.9257 42.5078 39.1142 43.2221C36.9088 49.3851 33.4035 53.5586 29.4048 54.1267ZM47.2714 46.2246C47.1237 46.377 46.9714 46.5237 46.8209 46.6723C46.6471 46.8433 46.4733 47.0162 46.2948 47.1825C46.1397 47.3274 45.9799 47.4629 45.821 47.6077C45.6397 47.7684 45.4594 47.9292 45.2744 48.0843C45.1108 48.2207 44.9445 48.3525 44.7781 48.4852C44.5912 48.6347 44.4043 48.7842 44.2118 48.9281C44.0418 49.0558 43.8695 49.1804 43.6951 49.3019C43.5016 49.4402 43.3072 49.5823 43.1101 49.7112C42.9336 49.8303 42.7554 49.9469 42.5755 50.0607C42.3764 50.1892 42.1748 50.3138 41.9709 50.4345C41.784 50.5439 41.6055 50.6504 41.4214 50.756C41.0317 50.978 40.6366 51.1905 40.2365 51.3933C40.0233 51.5005 39.8086 51.6049 39.5926 51.7064C39.4057 51.7952 39.2114 51.8839 39.0189 51.968C38.7992 52.0615 38.5768 52.1549 38.3544 52.2484C38.161 52.3269 37.9685 52.4054 37.7741 52.4792C37.5461 52.5661 37.3171 52.6474 37.0873 52.7269C36.8928 52.796 36.6975 52.8627 36.5013 52.9268C36.2677 53.0025 36.0341 53.0717 35.7958 53.1399C35.6005 53.1978 35.4042 53.2558 35.207 53.3091C35.1314 53.3287 35.0557 53.3446 34.98 53.3642C37.7461 50.6783 39.7988 47.345 40.9523 43.666C43.1703 44.251 45.3176 45.0773 47.3555 46.1303C47.3246 46.1639 47.2985 46.1966 47.2714 46.2246ZM48.6152 44.7201C46.3704 43.5038 43.99 42.5566 41.5233 41.8979C42.7326 37.6932 43.3672 33.3442 43.41 28.9692H54.6146C54.4111 34.7384 52.3013 40.2774 48.6152 44.7201Z" fill="#21409C"/>
</svg>
