<svg width="57" height="56" viewBox="0 0 57 56" fill="none" xmlns="http://www.w3.org/2000/svg">
<g clip-path="url(#clip0_3381_4297)">
<path d="M37.7066 31.3492V29.705H30.3078V41.2144H37.7066V39.5702H31.952V36.2818H37.7066V34.6376H31.952V31.3492H37.7066ZM48.0102 31.3492V29.705H40.6114V41.2144H48.0102V39.5702H42.2556V36.2818H48.0102V34.6376H42.2556V31.3492H48.0102ZM44.5574 26.5263H49.764V24.8821H46.2016V23.2379H49.764V21.5937H46.2016V19.9495H49.764V18.3053H44.5574V26.5263ZM16.4417 31.3492V29.705H9.04287V41.2692H10.6871V36.2818H14.7975V34.6376H10.6871V31.3492H16.4417ZM26.1973 21.5937H25.1011C24.6478 21.5937 24.2791 21.2249 24.2791 20.7716C24.2791 20.3182 24.6478 19.9495 25.1011 19.9495H28.2799V18.3053H25.1011C23.7413 18.3053 22.6349 19.4117 22.6349 20.7716C22.6349 22.1314 23.7413 23.2379 25.1011 23.2379H26.1973C26.6506 23.2379 27.0194 23.6066 27.0194 24.06C27.0194 24.5133 26.6506 24.8821 26.1973 24.8821H23.0185V26.5263H26.1973C27.5571 26.5263 28.6636 25.4198 28.6636 24.06C28.6636 22.7001 27.5572 21.5937 26.1973 21.5937ZM29.8693 20.7716C29.8693 22.1314 30.9757 23.2379 32.3356 23.2379H33.4317C33.8851 23.2379 34.2538 23.6066 34.2538 24.06C34.2538 24.5133 33.8851 24.8821 33.4317 24.8821H30.253V26.5263H33.4317C34.7916 26.5263 35.898 25.4198 35.898 24.06C35.898 22.7001 34.7916 21.5937 33.4317 21.5937H32.3356C31.8822 21.5937 31.5135 21.2249 31.5135 20.7716C31.5135 20.3182 31.8822 19.9495 32.3356 19.9495H35.5144V18.3053H32.3356C30.9757 18.3053 29.8693 19.4117 29.8693 20.7716ZM42.7488 24.8821H39.1864V18.2505H37.5422V26.5263H42.7488V24.8821ZM20.9907 26.5811V21.3196C20.9907 19.6576 19.6384 18.3053 17.9763 18.3053C16.3143 18.3053 14.962 19.6576 14.962 21.3196V26.5811H16.6062V24.9917H19.3465V26.5811H20.9907ZM16.6062 23.3475V21.3196C16.6062 20.5641 17.2208 19.9495 17.9763 19.9495C18.7319 19.9495 19.3465 20.5641 19.3465 21.3196V23.3475H16.6062ZM8.93326 23.2379H11.6736V26.5811H13.3178V18.2505H11.6736V21.5937H8.93326V18.2505H7.28906V26.5811H8.93326V23.2379ZM27.5674 33.3223C27.5674 31.3277 25.9447 29.705 23.9502 29.705H19.3465V41.2692H20.9907V36.9395H23.8303L24.5261 37.4862C25.2051 38.0196 25.5944 38.8207 25.5944 39.6841V41.2692H27.2386V39.6841C27.2386 38.4314 26.7212 37.2623 25.8098 36.4234C26.862 35.7902 27.5674 34.6372 27.5674 33.3223ZM23.9502 35.2953H20.9907V31.3492H23.9502C25.0381 31.3492 25.9232 32.2343 25.9232 33.3223C25.9232 34.4102 25.0381 35.2953 23.9502 35.2953Z" fill="#21409C"/>
<path d="M54.7503 43.4615C54.7503 45.4259 53.1523 47.0239 51.1879 47.0239H32.0921L28.0074 48.3783L28.5249 49.939L32.3576 48.6681H51.1879C54.0588 48.6681 56.3945 46.3324 56.3945 43.4615V25.2555H54.7503V43.4615ZM51.1879 7.56329H50.6194V9.20748H51.1879C53.1523 9.20748 54.7503 10.8055 54.7503 12.7699V23.6113H56.3945V12.7699C56.3945 9.89903 54.0589 7.56329 51.1879 7.56329ZM2.24576 12.7699C2.24576 10.8055 3.8438 9.20748 5.80817 9.20748H30.6903V7.56329H5.80817C2.9373 7.56329 0.601562 9.89903 0.601562 12.7699V29.2275H2.24576V12.7699ZM11.8917 53.7225V47.0239H5.80817C3.8438 47.0239 2.24576 45.4259 2.24576 43.4615V30.8717H0.601562V43.4615C0.601562 46.3324 2.9373 48.6681 5.80817 48.6681H10.2475V56L26.9643 50.4567L26.4468 48.896L11.8917 53.7225ZM40.655 15.8939C45.037 15.8939 48.6019 12.3289 48.6019 7.94693C48.6019 3.56494 45.0369 0 40.6549 0C38.9377 0.000109613 37.3028 0.539186 35.9269 1.55902L36.906 2.87997C37.9965 2.07168 39.2929 1.64441 40.655 1.6443C44.1304 1.6443 46.9577 4.47166 46.9577 7.94704C46.9577 11.4224 44.1304 14.2498 40.655 14.2498C37.1796 14.2498 34.3522 11.4224 34.3522 7.94704C34.3524 6.45481 34.8818 5.011 35.8464 3.8724L34.5925 2.80883C33.376 4.24452 32.7083 6.06518 32.708 7.94693C32.708 12.3289 36.273 15.8939 40.655 15.8939Z" fill="#21409C"/>
<path d="M43.6912 4.73486L39.2304 9.19589L37.4002 7.36557L36.2376 8.52835L39.2304 11.521L44.8539 5.89764L43.6912 4.73486ZM46.0913 43.7356H47.7355V45.3797H46.0913V43.7356ZM49.3797 43.7356H51.0239V45.3797H49.3797V43.7356ZM5.80859 10.8517H7.45279V12.4959H5.80859V10.8517ZM9.09698 10.8517H10.7412V12.4959H9.09698V10.8517Z" fill="#21409C"/>
</g>
<defs>
<clipPath id="clip0_3381_4297">
<rect width="56" height="56" fill="white" transform="translate(0.5)"/>
</clipPath>
</defs>
</svg>
