<svg width="80" height="80" viewBox="0 0 80 80" fill="none" xmlns="http://www.w3.org/2000/svg">
<path d="M25.6484 26.5576L27.515 28.9576C26.7635 30.1455 26.1817 31.4303 25.7938 32.7879L22.9211 33.1515C22.4605 33.2121 22.1211 33.6 22.1211 34.0485V38.6788C22.1211 39.1394 22.4605 39.5273 22.9211 39.5758L25.5393 39.903C25.8544 41.4182 26.3999 42.8727 27.1756 44.2061L25.6605 46.1576C25.3817 46.5212 25.4059 47.0303 25.7332 47.3576L29.0059 50.6303C29.3332 50.9576 29.8423 50.9818 30.2059 50.7031L32.012 49.297C33.4059 50.194 34.9211 50.8485 36.5211 51.2364L36.7999 53.4303C36.8605 53.8909 37.2484 54.2303 37.6969 54.2303H42.3272C42.7878 54.2303 43.1756 53.8909 43.2241 53.4303L43.5029 51.2364C45.1029 50.8485 46.6181 50.194 48.012 49.297L49.8181 50.7031C50.1817 50.9818 50.6908 50.9576 51.0181 50.6303L54.2908 47.3576C54.6181 47.0303 54.6423 46.5212 54.3635 46.1576L52.8484 44.2061C53.612 42.8606 54.1696 41.4182 54.4847 39.903L57.1029 39.5758C57.5635 39.5152 57.9029 39.1273 57.9029 38.6788V34.0485C57.9029 33.5879 57.5635 33.2 57.1029 33.1515L54.2302 32.7879C53.8423 31.4303 53.2605 30.1455 52.509 28.9576L54.3756 26.5576C54.6544 26.194 54.6302 25.6849 54.3029 25.3576L51.0302 22.0849C50.8734 21.9285 50.6649 21.8348 50.4439 21.8214C50.2229 21.808 50.0047 21.8759 49.8302 22.0121L47.2726 24C46.1211 23.3455 44.8969 22.8485 43.6484 22.5333L43.2484 19.2849C43.2211 19.0655 43.1151 18.8635 42.9501 18.7164C42.7852 18.5693 42.5724 18.487 42.3514 18.4849H37.7211C37.2605 18.4849 36.8726 18.8243 36.8241 19.2849L36.4241 22.5333C35.1635 22.8485 33.9514 23.3455 32.7999 24L30.2423 22.0121C30.0678 21.8759 29.8495 21.808 29.6285 21.8214C29.4075 21.8348 29.1991 21.9285 29.0423 22.0849L25.7696 25.3576C25.3938 25.6849 25.3696 26.194 25.6484 26.5576ZM29.709 23.9394L32.1211 25.8182C32.4241 26.0485 32.8362 26.0727 33.1635 25.8667C34.4847 25.0424 35.915 24.4727 37.3817 24.1697C37.7696 24.097 38.0484 23.7818 38.0969 23.394L38.4847 20.303H41.5029L41.8908 23.394C41.9393 23.7818 42.2302 24.097 42.6059 24.1697C44.0847 24.4727 45.5029 25.0424 46.8241 25.8667C47.1514 26.0727 47.5635 26.0485 47.8666 25.8182L50.2787 23.9394L52.412 26.0727L50.6302 28.3637C50.5115 28.5173 50.4451 28.7049 50.4407 28.8991C50.4363 29.0932 50.4942 29.2836 50.6059 29.4424C51.5393 30.7637 52.1938 32.2424 52.5817 33.8303C52.6665 34.194 52.9817 34.4727 53.3575 34.5212L56.0484 34.8606V37.8788L53.5756 38.1818C53.1756 38.2303 52.8605 38.5455 52.7878 38.9455C52.509 40.6788 51.8908 42.3152 50.9575 43.794C50.7514 44.1212 50.7756 44.5334 51.0059 44.8364L52.412 46.6546L50.2787 48.7879L48.5817 47.4667C48.4281 47.348 48.2404 47.2816 48.0463 47.2772C47.8522 47.2728 47.6617 47.3307 47.5029 47.4424C45.9878 48.5212 44.3029 49.2485 42.4847 49.6C42.0969 49.6727 41.8059 49.9879 41.7575 50.3758L41.5029 52.4121H38.4847L38.2302 50.3758C38.207 50.186 38.124 50.0086 37.9933 49.8691C37.8625 49.7296 37.6908 49.6354 37.5029 49.6C35.6969 49.2485 34.012 48.5212 32.4847 47.4424C32.3259 47.3307 32.1355 47.2728 31.9413 47.2772C31.7472 47.2816 31.5596 47.348 31.4059 47.4667L29.709 48.7879L27.5756 46.6546L28.9817 44.8364C29.212 44.5334 29.2362 44.1212 29.0302 43.794C28.0969 42.3152 27.4787 40.6788 27.1999 38.9455C27.1671 38.7508 27.0729 38.5718 26.9312 38.4344C26.7895 38.297 26.6076 38.2085 26.412 38.1818L23.9272 37.8667V34.8485L26.6181 34.5091C26.9938 34.4606 27.2969 34.194 27.3938 33.8182C27.7817 32.2303 28.4362 30.7515 29.3696 29.4303C29.4813 29.2715 29.5392 29.0811 29.5348 28.8869C29.5305 28.6928 29.4641 28.5052 29.3453 28.3515L27.5635 26.0606L29.709 23.9394Z" fill="white"/>
<path d="M39.9997 44.9817C44.4724 44.9817 48.1088 41.3454 48.1088 36.8727C48.1088 32.3999 44.4724 28.7636 39.9997 28.7636C35.527 28.7636 31.8906 32.3999 31.8906 36.8727C31.8906 41.3454 35.527 44.9817 39.9997 44.9817ZM39.9997 30.5817C43.4664 30.5817 46.2906 33.406 46.2906 36.8727C46.2906 40.3393 43.4664 43.1636 39.9997 43.1636C36.5331 43.1636 33.7088 40.3393 33.7088 36.8727C33.7088 33.406 36.5331 30.5817 39.9997 30.5817ZM53.3694 21.5151C53.8664 21.5151 54.2785 21.103 54.2785 20.606V13.0302H58.5815C59.0058 15.103 60.8361 16.6666 63.03 16.6666C65.5391 16.6666 67.5755 14.6302 67.5755 12.1211C67.5755 9.61205 65.5391 7.57568 63.03 7.57568C60.8361 7.57568 58.9937 9.13932 58.5815 11.212H53.3694C52.8724 11.212 52.4603 11.6242 52.4603 12.1211V20.606C52.4603 21.103 52.8603 21.5151 53.3694 21.5151ZM63.03 9.39387C64.5331 9.39387 65.7573 10.6181 65.7573 12.1211C65.7573 13.6242 64.5331 14.8484 63.03 14.8484C61.527 14.8484 60.3027 13.6242 60.3027 12.1211C60.3027 10.6181 61.527 9.39387 63.03 9.39387Z" fill="white"/>
<path d="M71.5133 17.2729C69.3193 17.2729 67.4769 18.8366 67.0648 20.9093H63.0284C62.5314 20.9093 62.1193 21.3214 62.1193 21.8184V28.182H55.7436C55.2466 28.182 54.8345 28.5942 54.8345 29.0911C54.8345 29.5881 55.2466 30.0002 55.7436 30.0002H62.1193V35.4548H60.6042C60.1072 35.4548 59.6951 35.8669 59.6951 36.3639C59.6951 36.8608 60.1072 37.2729 60.6042 37.2729H63.0284C63.5254 37.2729 63.9375 36.8608 63.9375 36.3639V30.0002H65.4527C67.6223 30.0002 69.392 31.7699 69.392 33.9396V62.1214H10.6042V33.9396C10.6042 31.7699 12.3739 30.0002 14.5436 30.0002H16.0587V36.3639C16.0587 36.8608 16.4708 37.2729 16.9678 37.2729H19.392C19.889 37.2729 20.3011 36.8608 20.3011 36.3639C20.3011 35.8669 19.889 35.4548 19.392 35.4548H17.8769V30.0002H24.2527C24.7496 30.0002 25.1617 29.5881 25.1617 29.0911C25.1617 28.5942 24.7496 28.182 24.2527 28.182H17.8769V21.8184C17.8769 21.3214 17.4648 20.9093 16.9678 20.9093H12.9314C12.5072 18.8366 10.6769 17.2729 8.48295 17.2729C5.97386 17.2729 3.9375 19.3093 3.9375 21.8184C3.9375 24.3275 5.97386 26.3639 8.48295 26.3639C10.6769 26.3639 12.5193 24.8002 12.9314 22.7275H16.0587V28.182H14.5436C11.3678 28.182 8.78598 30.7639 8.78598 33.9396V65.4548C8.78598 68.6305 11.3678 71.2123 14.5436 71.2123H28.1799V76.6669H24.2405C23.7436 76.6669 23.3314 77.079 23.3314 77.576C23.3314 78.073 23.7436 78.4851 24.2405 78.4851H55.7557C56.2527 78.4851 56.6648 78.073 56.6648 77.576C56.6648 77.079 56.2527 76.6669 55.7557 76.6669H51.8163V71.2123H65.4527C68.6284 71.2123 71.2102 68.6305 71.2102 65.4548V33.9396C71.2102 30.7639 68.6284 28.182 65.4527 28.182H63.9375V22.7275H67.0648C67.489 24.8002 69.3193 26.3639 71.5133 26.3639C74.0224 26.3639 76.0587 24.3275 76.0587 21.8184C76.0587 19.3093 74.0224 17.2729 71.5133 17.2729ZM8.48295 24.5457C6.97992 24.5457 5.75568 23.3214 5.75568 21.8184C5.75568 20.3154 6.97992 19.0911 8.48295 19.0911C9.98598 19.0911 11.2102 20.3154 11.2102 21.8184C11.2102 23.3214 9.98598 24.5457 8.48295 24.5457ZM49.9981 76.6669H29.9981V71.2123H49.9981V76.6669ZM69.392 65.4548C69.392 67.6245 67.6223 69.3942 65.4527 69.3942H14.5436C12.3739 69.3942 10.6042 67.6245 10.6042 65.4548V63.9396H69.392V65.4548ZM71.5133 24.5457C70.0102 24.5457 68.786 23.3214 68.786 21.8184C68.786 20.3154 70.0102 19.0911 71.5133 19.0911C73.0163 19.0911 74.2405 20.3154 74.2405 21.8184C74.2405 23.3214 73.0163 24.5457 71.5133 24.5457Z" fill="white"/>
<path d="M16.9673 16.6667C19.1613 16.6667 21.0037 15.103 21.4158 13.0303H25.7188V20.606C25.7188 21.103 26.131 21.5151 26.6279 21.5151C27.1249 21.5151 27.537 21.103 27.537 20.606V12.1212C27.537 11.6242 27.1249 11.2121 26.6279 11.2121H21.4158C20.9916 9.13938 19.1613 7.57574 16.9673 7.57574C14.4582 7.57574 12.4219 9.61211 12.4219 12.1212C12.4219 14.6303 14.4582 16.6667 16.9673 16.6667ZM16.9673 9.39392C18.4704 9.39392 19.6946 10.6182 19.6946 12.1212C19.6946 13.6242 18.4704 14.8485 16.9673 14.8485C15.4643 14.8485 14.2401 13.6242 14.2401 12.1212C14.2401 10.6182 15.4643 9.39392 16.9673 9.39392ZM39.0885 10.5091V15.7576C39.0885 16.2545 39.5007 16.6667 39.9976 16.6667C40.4946 16.6667 40.9067 16.2545 40.9067 15.7576V10.5091C42.9795 10.0848 44.5431 8.25453 44.5431 6.06059C44.5431 3.5515 42.5067 1.51514 39.9976 1.51514C37.4885 1.51514 35.4522 3.5515 35.4522 6.06059C35.4522 8.25453 37.0158 10.097 39.0885 10.5091ZM39.9976 3.33332C41.5007 3.33332 42.7249 4.55756 42.7249 6.06059C42.7249 7.56362 41.5007 8.78786 39.9976 8.78786C38.4946 8.78786 37.2704 7.56362 37.2704 6.06059C37.2704 4.55756 38.4946 3.33332 39.9976 3.33332Z" fill="white"/>
</svg>
