<svg width="78" height="80" viewBox="0 0 78 80" fill="none" xmlns="http://www.w3.org/2000/svg">
<g clip-path="url(#clip0_3379_3971)">
<path d="M71.8873 11.6283L62.5309 10.3832V6.28451C62.5309 3.01807 59.8694 0.361816 56.6002 0.361816H14.5335C11.2627 0.361816 8.60284 3.01807 8.60284 6.28451V38.3437L8.07911 38.8667C7.4615 39.4835 7.12223 40.3042 7.12223 41.1809C7.12223 42.0575 7.4615 42.8783 8.07911 43.495C8.24216 43.6579 8.41838 43.7993 8.60284 43.9194V51.4062L1.29364 58.7039C-0.00746192 60.0033 -0.101339 61.5312 1.01365 63.245C1.03177 63.273 1.04989 63.2993 1.06471 63.3223C1.11412 63.4556 1.19152 63.5773 1.29364 63.6792C1.95736 64.3421 2.84178 64.7072 3.78549 64.7072C4.72919 64.7072 5.61361 64.3421 6.27733 63.6792L8.60284 61.3569V62.995C8.60284 66.3552 10.8312 68.5427 14.4858 68.8733V71.9885C14.4858 72.5329 14.9288 72.9753 15.474 72.9753H18.4533C19.2416 73.5426 20.1582 73.9065 21.1214 74.0345L62.8191 79.5839C63.0843 79.6184 63.3461 79.6365 63.6063 79.6365C66.5313 79.6365 69.0841 77.4687 69.4811 74.495L76.983 18.2796C77.4145 15.0444 75.1285 12.0608 71.8873 11.6283ZM30.7956 49.4687L24.7447 55.5115C24.5009 55.7549 24.1748 55.8898 23.8257 55.8898C23.4765 55.8898 23.1504 55.7549 22.9067 55.5115C22.3994 55.0049 22.3994 54.1809 22.9067 53.6743L28.9576 47.6316C29.2112 47.3783 29.5439 47.2516 29.8766 47.2516C30.2093 47.2516 30.542 47.3783 30.7956 47.6316C30.9164 47.7519 31.0121 47.895 31.0771 48.0525C31.1421 48.2101 31.1752 48.3789 31.1744 48.5493C31.1728 48.898 31.0394 49.2253 30.7956 49.4687ZM26.0129 45.8816L26.0145 45.8832L26.9631 46.8306L22.103 51.6842L13.3082 42.9013L18.1684 38.0477L26.0129 45.8816ZM17.3663 36.0575L11.3154 42.1003C10.8081 42.6069 9.98299 42.6069 9.47573 42.1003C8.96847 41.5937 8.96847 40.7697 9.47573 40.2631L15.5267 34.2204C15.7704 33.9769 16.0965 33.8437 16.4457 33.8437C16.7948 33.8437 17.1209 33.9769 17.3647 34.2204C17.6084 34.4638 17.7435 34.7894 17.7435 35.1381C17.7435 35.4868 17.6101 35.8141 17.3663 36.0575ZM10.5792 44.444C10.986 44.421 11.3879 44.324 11.765 44.1513L13.8171 46.2006L10.5792 49.4342V44.444ZM4.87907 62.2862C4.5892 62.5756 4.20052 62.7352 3.78549 62.7352C3.4248 62.7352 3.08388 62.6151 2.80884 62.3914C2.76602 62.3174 2.71826 62.2434 2.67049 62.1694C2.13359 61.3454 1.9903 60.7993 2.69026 60.1003L15.2121 47.5954L17.3993 49.7796L4.87907 62.2862ZM14.4858 65.5296V66.8931C12.7153 66.6973 10.5792 65.8651 10.5792 62.9967V59.3848L18.7992 51.176L20.8513 53.2253C20.2963 54.4342 20.512 55.9128 21.5068 56.9062C22.1244 57.523 22.9462 57.8618 23.824 57.8618C24.7019 57.8618 25.5237 57.523 26.1413 56.9062L31.0031 52.051H51.4979C52.043 52.051 52.4861 51.6085 52.4861 51.0641C52.4861 50.5197 52.043 50.0773 51.4979 50.0773H32.7736C33.019 49.6118 33.1508 49.0921 33.1508 48.5493C33.1508 47.6727 32.8115 46.8519 32.1939 46.2352C32.1708 46.2121 32.1461 46.1924 32.1231 46.171H51.4995C52.0447 46.171 52.4877 45.7286 52.4877 45.1842C52.4877 44.6398 52.0447 44.1973 51.4995 44.1973H27.1213L19.4184 36.5049C19.6166 36.0758 19.7194 35.609 19.7198 35.1365C19.7198 34.2615 19.3805 33.4391 18.7629 32.8223C18.1453 32.2056 17.3235 31.8668 16.4457 31.8668C15.5678 31.8668 14.746 32.2056 14.1284 32.8223L10.5775 36.3684V6.28451C10.5792 4.10688 12.353 2.3355 14.5335 2.3355H56.6002C58.7808 2.3355 60.5545 4.10688 60.5545 6.28451V62.9967C60.5545 65.1743 58.7808 66.9457 56.6002 66.9457H47.3706V65.5296C47.3706 64.9852 46.9276 64.5427 46.3825 64.5427H43.1478V62.7483C43.1478 62.699 43.1462 62.6496 43.1445 62.6003H51.4979C52.043 62.6003 52.4861 62.1579 52.4861 61.6135C52.4861 61.0691 52.043 60.6266 51.4979 60.6266H42.4907C41.8105 59.6332 40.6675 58.9802 39.3746 58.9802H22.4834C20.4033 58.9802 18.7102 60.671 18.7102 62.7483V64.5427H15.4756C14.9288 64.5427 14.4858 64.9852 14.4858 65.5296ZM41.1715 62.7483V64.5427H20.6849V62.7483C20.6849 61.7582 21.4919 60.9539 22.4818 60.9539H39.3746C40.3645 60.9539 41.1715 61.7582 41.1715 62.7483ZM16.4621 66.5164H45.3943V71.0033H16.4621V66.5164ZM75.0231 18.0214L67.5212 74.2368C67.233 76.3947 65.2368 77.9161 63.0793 77.6299L28.1193 72.9769H46.3808C46.9259 72.9769 47.369 72.5345 47.369 71.9901V68.9194H56.5985C59.8694 68.9194 62.5292 66.2631 62.5292 62.9967V12.375L71.6237 13.5855C73.7878 13.8733 75.3113 15.8635 75.0231 18.0214ZM50.2956 9.07563C44.8277 8.898 40.0779 7.26313 36.1746 4.21379C36.0009 4.07793 35.7867 4.0041 35.566 4.0041C35.3454 4.0041 35.1312 4.07793 34.9575 4.21379C31.0542 7.26313 26.3044 8.89965 20.8365 9.07563C20.3341 9.09208 19.924 9.48188 19.8829 9.98024C19.1467 18.9095 20.2847 25.8914 23.3629 31.324C25.8778 35.7615 29.6148 39.1052 35.1255 41.8437C35.2621 41.9117 35.4126 41.9471 35.5652 41.9471C35.7178 41.9471 35.8684 41.9117 36.005 41.8437C41.5157 39.1052 45.2526 35.7615 47.7659 31.324C50.8441 25.8914 51.9821 18.9095 51.2459 9.98024C51.208 9.48188 50.7979 9.09208 50.2956 9.07563ZM35.5669 39.8552C27.9414 35.9621 20.5153 29.37 21.7884 11.0066C27.0373 10.6908 31.6652 9.0855 35.5669 6.22859C39.4685 9.0855 44.0965 10.6908 49.3453 11.0066C50.6184 29.3717 43.1923 35.9621 35.5669 39.8552ZM46.1519 12.7171C42.2321 12.5904 38.9695 11.4671 36.1746 9.28451C36.0009 9.14865 35.7867 9.07483 35.566 9.07483C35.3454 9.07483 35.1312 9.14865 34.9575 9.28451C32.1642 11.4671 28.9 12.5904 24.9802 12.7171C24.4779 12.7335 24.0678 13.1233 24.0266 13.6217C22.7881 28.6365 29.3068 33.8816 35.1238 36.773C35.2604 36.841 35.4109 36.8764 35.5636 36.8764C35.7162 36.8764 35.8667 36.841 36.0033 36.773C41.8204 33.8816 48.339 28.6365 47.1005 13.6217C47.0643 13.1233 46.6542 12.7335 46.1519 12.7171ZM35.5669 34.7845C30.2521 32.0394 25.1218 27.3832 25.9354 14.6447C29.5851 14.3848 32.8181 13.2615 35.5669 11.296C38.3156 13.2615 41.5486 14.3848 45.1983 14.6447C46.0119 27.3832 40.8816 32.0378 35.5669 34.7845ZM41.211 19.1332C41.5964 19.5181 41.5964 20.1431 41.211 20.5296L34.9114 26.8207C34.8197 26.9124 34.7109 26.9851 34.5911 27.0347C34.4712 27.0844 34.3428 27.1099 34.2131 27.1099C34.0833 27.1099 33.9549 27.0844 33.8351 27.0347C33.7152 26.9851 33.6064 26.9124 33.5148 26.8207L29.9211 23.2319C29.5357 22.847 29.5357 22.222 29.9211 21.8355C30.1064 21.6507 30.3575 21.5469 30.6194 21.5469C30.8813 21.5469 31.1324 21.6507 31.3177 21.8355L34.2114 24.7253L39.8127 19.1316C40.1998 18.7467 40.8256 18.7467 41.211 19.1332ZM39.3335 56.944C39.3335 56.3996 39.7765 55.9572 40.3216 55.9572H51.4979C52.043 55.9572 52.4861 56.3996 52.4861 56.944C52.4861 57.4885 52.043 57.9309 51.4979 57.9309H40.3216C39.7765 57.9309 39.3335 57.4885 39.3335 56.944Z" fill="white"/>
</g>
<defs>
<clipPath id="clip0_3379_3971">
<rect width="78" height="80" fill="white"/>
</clipPath>
</defs>
</svg>
