<svg width="81" height="80" viewBox="0 0 81 80" fill="none" xmlns="http://www.w3.org/2000/svg">
<path d="M51.0093 7.89067C50.8464 7.3892 50.5503 6.94139 50.1528 6.59502C49.7552 6.24865 49.2711 6.01673 48.752 5.924L44.8947 5.256L43.084 1.61867C42.584 0.621333 41.5947 0 40.5 0C39.4053 0 38.416 0.621333 37.916 1.62L36.1053 5.25733L32.2493 5.92533C31.7298 6.01729 31.2451 6.24892 30.8472 6.59538C30.4493 6.94184 30.1532 7.39007 29.9907 7.892C29.8166 8.4074 29.7859 8.96044 29.9019 9.49194C30.0179 10.0234 30.2763 10.5134 30.6493 10.9093L33.4227 13.8453L32.8333 17.9333C32.7509 18.4773 32.8208 19.0334 33.0355 19.54C33.2502 20.0465 33.6011 20.4836 34.0493 20.8027C34.4767 21.1068 34.9799 21.2869 35.5032 21.3229C36.0266 21.3589 36.5497 21.2494 37.0147 21.0067L40.4987 19.192L43.9827 21.0067C44.4476 21.2506 44.9711 21.3607 45.4949 21.3247C46.0187 21.2887 46.5222 21.1079 46.9493 20.8027C47.3977 20.4837 47.7487 20.0466 47.9634 19.5401C48.178 19.0335 48.248 18.4773 48.1653 17.9333L47.576 13.8453L50.3493 10.9093C50.7224 10.5134 50.9807 10.0234 51.0968 9.49194C51.2128 8.96044 51.1821 8.4074 51.008 7.892L51.0093 7.89067ZM48.4133 9.07733L45.1973 12.4827C45.0592 12.6284 44.9559 12.8036 44.8951 12.9951C44.8344 13.1865 44.8178 13.3892 44.8467 13.588L45.5293 18.3133C45.556 18.5027 45.4533 18.596 45.4093 18.628C45.316 18.6907 45.252 18.66 45.216 18.6427L41.116 16.5053C40.9256 16.4068 40.7144 16.3554 40.5 16.3554C40.2856 16.3554 40.0744 16.4068 39.884 16.5053L35.784 18.6427C35.748 18.6613 35.6827 18.6907 35.5907 18.628C35.5467 18.596 35.4453 18.5013 35.4707 18.3133L36.1533 13.588C36.1822 13.3892 36.1656 13.1865 36.1049 12.9951C36.0441 12.8036 35.9408 12.6284 35.8027 12.4827L32.5867 9.07733C32.5451 9.0316 32.5169 8.97533 32.5052 8.91467C32.4934 8.85401 32.4985 8.79128 32.52 8.73333C32.5547 8.628 32.616 8.568 32.704 8.552L37.2267 7.768C37.644 7.69467 38.0027 7.428 38.1933 7.048L40.3053 2.808C40.3227 2.77333 40.376 2.66667 40.5 2.66667C40.624 2.66667 40.6787 2.772 40.6947 2.80667L42.8067 7.048C42.9973 7.428 43.3547 7.69467 43.7733 7.768L48.2973 8.552C48.3827 8.568 48.444 8.628 48.48 8.73333C48.5018 8.79123 48.5071 8.85403 48.4953 8.91476C48.4835 8.97548 48.4552 9.03176 48.4133 9.07733ZM27.0093 18.5573C26.8464 18.0559 26.5503 17.6081 26.1528 17.2617C25.7552 16.9153 25.2711 16.6834 24.752 16.5907L20.8947 15.9227L19.084 12.2853C18.5867 11.288 17.5973 10.6667 16.5013 10.6667C15.4053 10.6667 14.4173 11.288 13.9173 12.2867L12.1067 15.924L8.25067 16.592C7.73114 16.684 7.24645 16.9156 6.84855 17.262C6.45064 17.6085 6.15455 18.0567 5.992 18.5587C5.81789 19.0741 5.78721 19.6271 5.90323 20.1586C6.01926 20.6901 6.27762 21.18 6.65067 21.576L9.424 24.512L8.83467 28.6C8.75219 29.1439 8.82218 29.7001 9.03685 30.2066C9.25152 30.7132 9.60246 31.1503 10.0507 31.4693C10.478 31.7735 10.9812 31.9535 11.5046 31.9896C12.0279 32.0256 12.551 31.9161 13.016 31.6733L16.5 29.8587L19.984 31.6733C20.4489 31.9173 20.9724 32.0274 21.4962 31.9913C22.02 31.9553 22.5235 31.7746 22.9507 31.4693C23.399 31.1504 23.75 30.7133 23.9647 30.2067C24.1794 29.7002 24.2493 29.144 24.1667 28.6L23.5773 24.512L26.3507 21.576C26.7237 21.18 26.9821 20.6901 27.0981 20.1586C27.2141 19.6271 27.1834 19.0727 27.0093 18.5573ZM24.4133 19.744L21.1973 23.1493C21.0592 23.2951 20.9559 23.4703 20.8951 23.6617C20.8344 23.8532 20.8178 24.0559 20.8467 24.2547L21.5293 28.98C21.556 29.1693 21.4533 29.2627 21.4093 29.2947C21.316 29.3573 21.252 29.328 21.216 29.3093L17.116 27.172C16.9256 27.0735 16.7144 27.022 16.5 27.022C16.2856 27.022 16.0744 27.0735 15.884 27.172L11.784 29.3093C11.748 29.3293 11.684 29.3573 11.5907 29.2947C11.5467 29.2627 11.4453 29.168 11.4707 28.98L12.1533 24.2547C12.1822 24.0559 12.1656 23.8532 12.1049 23.6617C12.0441 23.4703 11.9408 23.2951 11.8027 23.1493L8.58667 19.744C8.54511 19.6983 8.51692 19.642 8.50517 19.5813C8.49341 19.5207 8.49854 19.4579 8.52 19.4C8.55467 19.2947 8.616 19.2347 8.704 19.2187L13.2267 18.4347C13.644 18.3613 14.0027 18.0947 14.1933 17.7147L16.3053 13.4747C16.3227 13.44 16.376 13.3333 16.5 13.3333C16.624 13.3333 16.6787 13.4387 16.6947 13.4733L18.8067 17.7147C18.9973 18.0947 19.3547 18.3613 19.7733 18.4347L24.2973 19.2187C24.3827 19.2347 24.444 19.2947 24.48 19.4C24.5018 19.4579 24.5071 19.5207 24.4953 19.5814C24.4835 19.6421 24.4552 19.6984 24.4133 19.744ZM75.0093 18.5573C74.8464 18.0559 74.5503 17.6081 74.1528 17.2617C73.7552 16.9153 73.2711 16.6834 72.752 16.5907L68.8947 15.9227L67.084 12.2853C66.5867 11.288 65.5973 10.6667 64.5013 10.6667C63.4053 10.6667 62.4173 11.288 61.9173 12.2867L60.1067 15.924L56.2507 16.592C55.7311 16.684 55.2464 16.9156 54.8485 17.262C54.4506 17.6085 54.1545 18.0567 53.992 18.5587C53.8179 19.0741 53.7872 19.6271 53.9032 20.1586C54.0193 20.6901 54.2776 21.18 54.6507 21.576L57.424 24.512L56.8347 28.6C56.7522 29.1439 56.8222 29.7001 57.0368 30.2066C57.2515 30.7132 57.6025 31.1503 58.0507 31.4693C58.478 31.7735 58.9812 31.9535 59.5046 31.9896C60.0279 32.0256 60.551 31.9161 61.016 31.6733L64.5 29.8587L67.984 31.6733C68.4489 31.9173 68.9724 32.0274 69.4962 31.9913C70.02 31.9553 70.5235 31.7746 70.9507 31.4693C71.399 31.1504 71.75 30.7133 71.9647 30.2067C72.1794 29.7002 72.2493 29.144 72.1667 28.6L71.5773 24.512L74.3507 21.576C74.7237 21.18 74.9821 20.6901 75.0981 20.1586C75.2141 19.6271 75.1834 19.0727 75.0093 18.5573ZM72.4133 19.744L69.1973 23.1493C69.0592 23.2951 68.9559 23.4703 68.8951 23.6617C68.8344 23.8532 68.8178 24.0559 68.8467 24.2547L69.5293 28.98C69.556 29.1693 69.4533 29.2627 69.4093 29.2947C69.316 29.3573 69.252 29.328 69.216 29.3093L65.116 27.172C64.9256 27.0735 64.7144 27.022 64.5 27.022C64.2856 27.022 64.0744 27.0735 63.884 27.172L59.784 29.3093C59.7493 29.3293 59.6827 29.3573 59.5907 29.2947C59.5467 29.2627 59.4453 29.168 59.4707 28.98L60.1533 24.2547C60.1822 24.0559 60.1656 23.8532 60.1049 23.6617C60.0441 23.4703 59.9408 23.2951 59.8027 23.1493L56.5867 19.744C56.5451 19.6983 56.5169 19.642 56.5052 19.5813C56.4934 19.5207 56.4985 19.4579 56.52 19.4C56.5547 19.2947 56.616 19.2347 56.704 19.2187L61.2267 18.4347C61.644 18.3613 62.0027 18.0947 62.1933 17.7147L64.3053 13.4747C64.3227 13.44 64.376 13.3333 64.5 13.3333C64.624 13.3333 64.6787 13.4387 64.6947 13.4733L66.8067 17.7147C66.9973 18.0947 67.3547 18.3613 67.7733 18.4347L72.2973 19.2187C72.3827 19.2347 72.444 19.2947 72.48 19.4C72.5018 19.4579 72.5071 19.5207 72.4953 19.5814C72.4835 19.6421 72.4552 19.6984 72.4133 19.744ZM40.5 32C18.444 32 0.5 49.944 0.5 72C0.5 73.4707 1.696 74.6667 3.16667 74.6667H19.1667C20.6373 74.6667 21.8333 73.4707 21.8333 72C21.8333 61.7067 30.2067 53.3333 40.5 53.3333C43.5932 53.3353 46.6374 54.1065 49.3585 55.5775C52.0796 57.0485 54.3921 59.1731 56.088 61.76C50.1413 63.8627 45.5307 65.56 42.136 66.8933C41.6024 66.7492 41.0527 66.673 40.5 66.6667C36.824 66.6667 33.8333 69.6573 33.8333 73.3333C33.8333 77.0093 36.824 80 40.5 80C43.1253 80 45.38 78.4613 46.4667 76.2493C49.9507 74.352 54.4227 71.776 58.9213 69.136C59.068 70.08 59.1667 71.0347 59.1667 72C59.1667 73.4707 60.3627 74.6667 61.8333 74.6667H77.8333C79.304 74.6667 80.5 73.4707 80.5 72C80.5 49.944 62.556 32 40.5 32ZM54.6027 56.012C51.0542 52.8742 46.5608 51.0092 41.8333 50.712V34.7C51.1213 35.028 59.5547 38.7613 65.9213 44.6933L54.6027 56.012ZM19.1667 72H3.16667C3.16667 62.1853 6.97867 53.2493 13.1933 46.5787L24.524 57.9093C21.2013 61.672 19.1667 66.5973 19.1667 72ZM26.4093 56.024L15.0787 44.6933C21.4453 38.7627 29.8773 35.0293 39.1667 34.7V50.7333C34.4431 51.0245 29.9526 52.8868 26.4093 56.024ZM68.84 60.148C62.4413 63.9773 53.5773 69.2467 47.116 72.8453C47.0063 71.2334 46.3117 69.7171 45.1627 68.5813C50.5293 66.5347 58.316 63.76 68.84 60.148ZM40.4987 77.3333C38.2933 77.3333 36.4987 75.5387 36.4987 73.3333C36.4987 71.128 38.2933 69.3333 40.4987 69.3333C42.704 69.3333 44.4987 71.128 44.4987 73.3333C44.4987 75.5387 42.704 77.3333 40.4987 77.3333ZM61.832 72C61.832 70.5413 61.6773 69.096 61.3853 67.6853C64.52 65.8347 67.576 64.012 70.2147 62.4347C71.4133 61.708 71.8547 60.2667 71.2667 59.0067C70.9948 58.4049 70.5058 57.9279 69.8974 57.6711C69.2891 57.4143 68.6062 57.3965 67.9853 57.6213C64.5973 58.784 61.5013 59.8587 58.6667 60.8533C58.0245 59.809 57.2938 58.8219 56.4827 57.9027L67.804 46.5813C74.0187 53.252 77.8307 62.188 77.8307 72.0027H61.8307L61.832 72Z" fill="white"/>
</svg>
