<svg width="71" height="80" viewBox="0 0 71 80" fill="none" xmlns="http://www.w3.org/2000/svg">
<path d="M35.5 8.91914C35.1374 8.91914 34.7896 8.77677 34.5333 8.52334C34.2769 8.26991 34.1328 7.92619 34.1328 7.56779V2.16239C34.1328 1.80399 34.2769 1.46026 34.5333 1.20684C34.7896 0.953409 35.1374 0.811035 35.5 0.811035C35.8626 0.811035 36.2104 0.953409 36.4667 1.20684C36.7231 1.46026 36.8672 1.80399 36.8672 2.16239V7.56779C36.8672 7.92619 36.7231 8.26991 36.4667 8.52334C36.2104 8.77677 35.8626 8.91914 35.5 8.91914ZM21.8281 12.5408C21.5879 12.541 21.3519 12.4787 21.1438 12.36C20.9357 12.2414 20.7629 12.0707 20.6428 11.8651L17.9084 7.18401C17.8172 7.03026 17.7577 6.86021 17.7333 6.68364C17.7088 6.50706 17.72 6.32746 17.7661 6.15516C17.8122 5.98287 17.8923 5.82128 18.0018 5.67971C18.1113 5.53814 18.2481 5.41938 18.4042 5.33027C18.5604 5.24116 18.7328 5.18346 18.9116 5.16049C19.0904 5.13752 19.2721 5.14973 19.4461 5.19643C19.6201 5.24312 19.783 5.32337 19.9255 5.43257C20.068 5.54176 20.1873 5.67773 20.2764 5.83266L23.0107 10.5137C23.1307 10.7191 23.1939 10.952 23.1939 11.1891C23.194 11.4262 23.1309 11.6591 23.0111 11.8645C22.8913 12.0699 22.7189 12.2405 22.5112 12.3592C22.3036 12.4779 22.068 12.5405 21.8281 12.5408ZM11.8189 22.4327C11.5789 22.4332 11.343 22.3707 11.1354 22.2516L6.39805 19.5489C6.08659 19.3684 5.86 19.0735 5.76772 18.7285C5.67544 18.3835 5.72497 18.0164 5.90548 17.7074C6.086 17.3984 6.38286 17.1724 6.73128 17.0789C7.0797 16.9854 7.45139 17.032 7.76523 17.2083L12.5025 19.911C12.7632 20.0598 12.9669 20.2894 13.082 20.5642C13.1972 20.839 13.2174 21.1437 13.1395 21.4311C13.0616 21.7184 12.89 21.9723 12.6512 22.1534C12.4124 22.3345 12.1199 22.4326 11.8189 22.4327ZM8.15625 35.9462H2.6875C2.3249 35.9462 1.97715 35.8038 1.72075 35.5504C1.46436 35.2969 1.32031 34.9532 1.32031 34.5948C1.32031 34.2364 1.46436 33.8927 1.72075 33.6393C1.97715 33.3858 2.3249 33.2435 2.6875 33.2435H8.15625C8.51885 33.2435 8.8666 33.3858 9.123 33.6393C9.37939 33.8927 9.52344 34.2364 9.52344 34.5948C9.52344 34.9532 9.37939 35.2969 9.123 35.5504C8.8666 35.8038 8.51885 35.9462 8.15625 35.9462ZM7.08437 52.1624C6.78342 52.1624 6.49088 52.0642 6.25212 51.8831C6.01336 51.702 5.84173 51.4481 5.76383 51.1608C5.68594 50.8735 5.70614 50.5688 5.8213 50.2939C5.93647 50.0191 6.14015 49.7895 6.40078 49.6408L11.1381 46.9381C11.2936 46.8479 11.4657 46.7891 11.6443 46.765C11.823 46.7408 12.0047 46.7518 12.179 46.7974C12.3533 46.8429 12.5168 46.9221 12.66 47.0304C12.8032 47.1386 12.9234 47.2738 13.0135 47.4282C13.1037 47.5825 13.1621 47.7529 13.1853 47.9297C13.2086 48.1064 13.1962 48.2859 13.149 48.4579C13.1017 48.6299 13.0205 48.791 12.9101 48.9318C12.7996 49.0727 12.662 49.1905 12.5053 49.2786L7.76797 51.9813C7.56033 52.1004 7.32444 52.1629 7.08437 52.1624ZM63.9156 52.1624C63.6756 52.1629 63.4397 52.1004 63.232 51.9813L58.4947 49.2786C58.338 49.1905 58.2004 49.0727 58.09 48.9318C57.9795 48.791 57.8983 48.6299 57.851 48.4579C57.8038 48.2859 57.7914 48.1064 57.8147 47.9297C57.8379 47.7529 57.8963 47.5825 57.9865 47.4282C58.0766 47.2738 58.1968 47.1386 58.34 47.0304C58.4832 46.9221 58.6467 46.8429 58.821 46.7974C58.9953 46.7518 59.177 46.7408 59.3557 46.765C59.5343 46.7891 59.7064 46.8479 59.8619 46.9381L64.5992 49.6408C64.8598 49.7895 65.0635 50.0191 65.1787 50.2939C65.2939 50.5688 65.3141 50.8735 65.2362 51.1608C65.1583 51.4481 64.9866 51.702 64.7479 51.8831C64.5091 52.0642 64.2166 52.1624 63.9156 52.1624ZM68.3125 35.9462H62.8438C62.4811 35.9462 62.1334 35.8038 61.877 35.5504C61.6206 35.2969 61.4766 34.9532 61.4766 34.5948C61.4766 34.2364 61.6206 33.8927 61.877 33.6393C62.1334 33.3858 62.4811 33.2435 62.8438 33.2435H68.3125C68.6751 33.2435 69.0229 33.3858 69.2793 33.6393C69.5356 33.8927 69.6797 34.2364 69.6797 34.5948C69.6797 34.9532 69.5356 35.2969 69.2793 35.5504C69.0229 35.8038 68.6751 35.9462 68.3125 35.9462Z" fill="white"/>
<path d="M57.3736 33.2437H50.5377C50.5377 31.8101 49.9615 30.4352 48.9359 29.4215C47.9103 28.4078 46.5193 27.8383 45.0689 27.8383C43.6185 27.8383 42.2275 28.4078 41.202 29.4215C40.1764 30.4352 39.6002 31.8101 39.6002 33.2437H36.8658V28.941C36.8656 28.7249 36.813 28.5121 36.7124 28.3203C36.6118 28.1285 36.4662 27.9633 36.2877 27.8386C36.1092 27.714 35.903 27.6334 35.6865 27.6037C35.47 27.574 35.2495 27.5961 35.0434 27.668C34.6298 27.8204 34.185 27.8716 33.7471 27.8172C33.3092 27.7628 32.8911 27.6044 32.5285 27.3555C32.166 27.1067 31.8698 26.7748 31.6652 26.3882C31.4606 26.0016 31.3538 25.5719 31.3538 25.1356C31.3538 24.6993 31.4606 24.2695 31.6652 23.8829C31.8698 23.4964 32.166 23.1645 32.5285 22.9156C32.8911 22.6668 33.3092 22.5084 33.7471 22.454C34.185 22.3996 34.6298 22.4507 35.0434 22.6032C35.2495 22.6751 35.47 22.6971 35.6865 22.6675C35.903 22.6378 36.1092 22.5572 36.2877 22.4325C36.4662 22.3078 36.6118 22.1427 36.7124 21.9509C36.813 21.7591 36.8656 21.5462 36.8658 21.3302V12.9734C36.8658 12.615 36.7218 12.2713 36.4654 12.0179C36.209 11.7644 35.8612 11.6221 35.4986 11.6221C30.1884 11.6268 25.0399 13.4287 20.9099 16.728C16.7799 20.0272 13.9175 24.6249 12.7989 29.7558C11.6803 34.8867 12.373 40.2416 14.7618 44.9293C17.1506 49.6169 21.0913 53.3548 25.9283 55.5207V57.568H24.5611C23.4733 57.568 22.4301 57.9951 21.6609 58.7554C20.8917 59.5157 20.4596 60.5469 20.4596 61.6221V64.3248C20.4596 65.4 20.8917 66.4311 21.6609 67.1914C22.4301 67.9517 23.4733 68.3788 24.5611 68.3788H25.9283V72.4329C25.9305 74.2242 26.6514 75.9416 27.9329 77.2083C29.2144 78.4749 30.9519 79.1875 32.7643 79.1896H38.233C40.0453 79.1875 41.7828 78.4749 43.0643 77.2083C44.3459 75.9416 45.0668 74.2242 45.0689 72.4329V68.3788H46.4361C47.5239 68.3788 48.5672 67.9517 49.3364 67.1914C50.1056 66.4311 50.5377 65.4 50.5377 64.3248V61.6221C50.5377 60.5469 50.1056 59.5157 49.3364 58.7554C48.5672 57.9951 47.5239 57.568 46.4361 57.568H45.0689V55.5207C49.1501 53.7119 52.6135 50.7728 55.0399 47.059C57.4663 43.3452 58.7518 39.0159 58.7408 34.595C58.7408 34.2366 58.5968 33.8929 58.3404 33.6395C58.084 33.3861 57.7362 33.2437 57.3736 33.2437ZM34.1314 14.3694V19.7302C32.681 19.7302 31.29 20.2997 30.2645 21.3134C29.2389 22.3271 28.6627 23.702 28.6627 25.1356C28.6627 26.5692 29.2389 27.9441 30.2645 28.9578C31.29 29.9715 32.681 30.541 34.1314 30.541V33.2437H29.7783C29.5596 33.2438 29.3441 33.2958 29.1499 33.3953C28.9557 33.4948 28.7885 33.6389 28.6623 33.8155C28.5361 33.9922 28.4547 34.1961 28.4248 34.4103C28.3948 34.6245 28.4174 34.8426 28.4904 35.0464C28.6446 35.4552 28.6964 35.8948 28.6413 36.3276C28.5863 36.7605 28.426 37.1738 28.1743 37.5321C27.9225 37.8904 27.5867 38.1832 27.1956 38.3854C26.8045 38.5876 26.3697 38.6932 25.9283 38.6932C25.4869 38.6932 25.0521 38.5876 24.661 38.3854C24.2699 38.1832 23.9341 37.8904 23.6824 37.5321C23.4306 37.1738 23.2704 36.7605 23.2153 36.3276C23.1602 35.8948 23.212 35.4552 23.3662 35.0464C23.4393 34.8426 23.4618 34.6245 23.4319 34.4103C23.402 34.1961 23.3205 33.9922 23.1943 33.8155C23.0682 33.6389 22.901 33.4948 22.7068 33.3953C22.5126 33.2958 22.2971 33.2438 22.0783 33.2437H15.0359C15.3734 28.3478 17.4936 23.7385 21.0042 20.2685C24.5148 16.7986 29.1782 14.703 34.1314 14.3694ZM27.8082 53.3788C24.2329 51.9599 21.1367 49.5699 18.8776 46.4851C16.6184 43.4004 15.2885 39.7467 15.0414 35.9464H20.4596C20.4596 37.38 21.0357 38.7549 22.0613 39.7686C23.0869 40.7823 24.4779 41.3518 25.9283 41.3518C27.3787 41.3518 28.7697 40.7823 29.7953 39.7686C30.8209 38.7549 31.3971 37.38 31.3971 35.9464H34.1314V40.2491C34.1316 40.4651 34.1843 40.678 34.2849 40.8698C34.3854 41.0616 34.5311 41.2268 34.7096 41.3514C34.8881 41.4761 35.0943 41.5567 35.3108 41.5864C35.5273 41.6161 35.7478 41.594 35.9539 41.5221C36.3675 41.3697 36.8122 41.3185 37.2502 41.3729C37.6881 41.4273 38.1062 41.5857 38.4687 41.8346C38.8313 42.0834 39.1275 42.4153 39.3321 42.8019C39.5366 43.1884 39.6435 43.6182 39.6435 44.0545C39.6435 44.4908 39.5366 44.9206 39.3321 45.3071C39.1275 45.6937 38.8313 46.0256 38.4687 46.2744C38.1062 46.5233 37.6881 46.6817 37.2502 46.7361C36.8122 46.7905 36.3675 46.7393 35.9539 46.5869C35.7478 46.515 35.5273 46.4929 35.3108 46.5226C35.0943 46.5523 34.8881 46.6329 34.7096 46.7576C34.5311 46.8822 34.3854 47.0474 34.2849 47.2392C34.1843 47.431 34.1316 47.6439 34.1314 47.8599V57.568H28.6627V54.6302C28.6624 54.3612 28.581 54.0985 28.4287 53.8756C28.2765 53.6526 28.0604 53.4797 27.8082 53.3788ZM42.3346 72.4329C42.3346 73.5081 41.9024 74.5392 41.1332 75.2995C40.3641 76.0598 39.3208 76.4869 38.233 76.4869H32.7643C31.6765 76.4869 30.6332 76.0598 29.864 75.2995C29.0948 74.5392 28.6627 73.5081 28.6627 72.4329V68.3788H31.3971V72.4329C31.3971 72.7913 31.5411 73.135 31.7975 73.3884C32.0539 73.6419 32.4017 73.7842 32.7643 73.7842C33.1269 73.7842 33.4746 73.6419 33.731 73.3884C33.9874 73.135 34.1314 72.7913 34.1314 72.4329V68.3788H36.8658V72.4329C36.8658 72.7913 37.0099 73.135 37.2663 73.3884C37.5227 73.6419 37.8704 73.7842 38.233 73.7842C38.5956 73.7842 38.9434 73.6419 39.1998 73.3884C39.4562 73.135 39.6002 72.7913 39.6002 72.4329V68.3788H42.3346V72.4329ZM46.4361 60.2707C46.7987 60.2707 47.1465 60.4131 47.4029 60.6665C47.6593 60.9199 47.8033 61.2637 47.8033 61.6221V64.3248C47.8033 64.6832 47.6593 65.0269 47.4029 65.2803C47.1465 65.5337 46.7987 65.6761 46.4361 65.6761H24.5611C24.1985 65.6761 23.8508 65.5337 23.5944 65.2803C23.338 65.0269 23.1939 64.6832 23.1939 64.3248V61.6221C23.1939 61.2637 23.338 60.9199 23.5944 60.6665C23.8508 60.4131 24.1985 60.2707 24.5611 60.2707H46.4361ZM43.1891 53.3788C42.9366 53.4798 42.7204 53.6529 42.5682 53.8761C42.4159 54.0993 42.3346 54.3624 42.3346 54.6315V57.568H36.8658V49.4599C38.3162 49.4599 39.7072 48.8904 40.7328 47.8767C41.7584 46.863 42.3346 45.4881 42.3346 44.0545C42.3346 42.6209 41.7584 41.246 40.7328 40.2323C39.7072 39.2186 38.3162 38.6491 36.8658 38.6491V35.9464H41.2189C41.4377 35.9463 41.6532 35.8943 41.8474 35.7948C42.0416 35.6953 42.2088 35.5511 42.335 35.3745C42.4611 35.1979 42.5426 34.994 42.5725 34.7798C42.6024 34.5656 42.5799 34.3475 42.5068 34.1437C42.3526 33.7349 42.3009 33.2953 42.3559 32.8624C42.411 32.4296 42.5712 32.0163 42.823 31.658C43.0747 31.2996 43.4105 31.0069 43.8016 30.8047C44.1927 30.6025 44.6276 30.4969 45.0689 30.4969C45.5103 30.4969 45.9451 30.6025 46.3363 30.8047C46.7274 31.0069 47.0632 31.2996 47.3149 31.658C47.5667 32.0163 47.7269 32.4296 47.782 32.8624C47.837 33.2953 47.7852 33.7349 47.6311 34.1437C47.558 34.3475 47.5355 34.5656 47.5654 34.7798C47.5953 34.994 47.6767 35.1979 47.8029 35.3745C47.9291 35.5511 48.0963 35.6953 48.2905 35.7948C48.4847 35.8943 48.7002 35.9463 48.9189 35.9464H55.9613C55.7132 39.7471 54.3821 43.4009 52.122 46.4856C49.862 49.5704 46.765 51.9601 43.1891 53.3788Z" fill="white"/>
<path d="M46.4375 0.811035C46.0749 0.811035 45.7271 0.953409 45.4708 1.20684C45.2144 1.46026 45.0703 1.80399 45.0703 2.16239V8.91914C43.6199 8.91914 42.2289 9.48864 41.2033 10.5023C40.1777 11.5161 39.6016 12.8909 39.6016 14.3245C39.6016 15.7582 40.1777 17.133 41.2033 18.1467C42.2289 19.1605 43.6199 19.73 45.0703 19.73V23.784C45.0703 24.1424 45.2144 24.4861 45.4708 24.7396C45.7271 24.993 46.0749 25.1354 46.4375 25.1354H52.1578C52.3765 25.1352 52.5921 25.0832 52.7863 24.9837C52.9805 24.8842 53.1477 24.7401 53.2738 24.5635C53.4 24.3869 53.4815 24.1829 53.5114 23.9688C53.5413 23.7546 53.5188 23.5364 53.4457 23.3327C53.2915 22.9239 53.2397 22.4843 53.2948 22.0514C53.3498 21.6185 53.5101 21.2053 53.7619 20.847C54.0136 20.4886 54.3494 20.1958 54.7405 19.9936C55.1316 19.7914 55.5664 19.6858 56.0078 19.6858C56.4492 19.6858 56.884 19.7914 57.2751 19.9936C57.6662 20.1958 58.002 20.4886 58.2538 20.847C58.5055 21.2053 58.6658 21.6185 58.7208 22.0514C58.7759 22.4843 58.7241 22.9239 58.5699 23.3327C58.4969 23.5364 58.4743 23.7546 58.5042 23.9688C58.5342 24.1829 58.6156 24.3869 58.7418 24.5635C58.868 24.7401 59.0352 24.8842 59.2294 24.9837C59.4236 25.0832 59.6391 25.1352 59.8578 25.1354H68.3125C68.6751 25.1354 69.0229 24.993 69.2792 24.7396C69.5356 24.4861 69.6797 24.1424 69.6797 23.784C69.6728 17.6933 67.2219 11.854 62.8646 7.54717C58.5074 3.24037 52.5996 0.817831 46.4375 0.811035ZM61.4766 22.4327C61.4766 20.9991 60.9004 19.6242 59.8748 18.6105C58.8492 17.5967 57.4582 17.0273 56.0078 17.0273C54.5574 17.0273 53.1664 17.5967 52.1408 18.6105C51.1152 19.6242 50.5391 20.9991 50.5391 22.4327H47.8047V18.13C47.8045 17.9139 47.7519 17.7011 47.6513 17.5093C47.5507 17.3175 47.405 17.1523 47.2265 17.0276C47.048 16.9029 46.8419 16.8224 46.6254 16.7927C46.4089 16.763 46.1883 16.785 45.9822 16.857C45.5687 17.0094 45.1239 17.0606 44.686 17.0061C44.248 16.9517 43.8299 16.7933 43.4674 16.5445C43.1049 16.2957 42.8086 15.9638 42.6041 15.5772C42.3995 15.1906 42.2927 14.7608 42.2927 14.3245C42.2927 13.8883 42.3995 13.4585 42.6041 13.0719C42.8086 12.6853 43.1049 12.3534 43.4674 12.1046C43.8299 11.8558 44.248 11.6974 44.686 11.643C45.1239 11.5885 45.5687 11.6397 45.9822 11.7921C46.1883 11.8641 46.4089 11.8861 46.6254 11.8564C46.8419 11.8267 47.048 11.7462 47.2265 11.6215C47.405 11.4968 47.5507 11.3316 47.6513 11.1398C47.7519 10.948 47.8045 10.7352 47.8047 10.5191V3.55833C52.7579 3.89192 57.4213 5.98756 60.9319 9.4575C64.4425 12.9274 66.5627 17.5368 66.9002 22.4327H61.4766Z" fill="white"/>
</svg>
