<svg width="57" height="56" viewBox="0 0 57 56" fill="none" xmlns="http://www.w3.org/2000/svg">
<path fill-rule="evenodd" clip-rule="evenodd" d="M49.3893 27.1373C49.1605 27.1758 48.9564 27.3037 48.8218 27.4927C48.6873 27.6817 48.6333 27.9165 48.6718 28.1453C48.8608 29.2653 48.957 30.394 48.957 31.5C48.957 37.667 46.2095 43.2338 41.7785 46.9403C41.4092 44.5139 40.3613 42.2415 38.7558 40.3851C37.1503 38.5288 35.0526 37.1643 32.7048 36.449C33.6658 35.8113 34.4542 34.9459 34.9998 33.9298C35.5454 32.9136 35.8313 31.7784 35.832 30.625C35.832 26.7645 32.6925 23.625 28.832 23.625C24.9715 23.625 21.832 26.7645 21.832 30.625C21.832 33.054 23.0763 35.1925 24.9593 36.449C22.6115 37.1643 20.5138 38.5288 18.9083 40.3851C17.3028 42.2415 16.2549 44.5139 15.8855 46.9403C13.6301 45.0504 11.818 42.6876 10.5774 40.0193C9.3369 37.351 8.69835 34.4426 8.70703 31.5C8.70703 30.394 8.80328 29.267 8.99228 28.1453C9.01335 28.0311 9.0115 27.914 8.98684 27.8005C8.96218 27.6871 8.9152 27.5797 8.84864 27.4847C8.78208 27.3896 8.69727 27.3087 8.59915 27.2467C8.50102 27.1847 8.39154 27.1429 8.27709 27.1236C8.16263 27.1043 8.04549 27.108 7.93247 27.1345C7.81946 27.1609 7.71283 27.2096 7.61881 27.2776C7.52478 27.3457 7.44524 27.4317 7.3848 27.5308C7.32436 27.6299 7.28425 27.74 7.26678 27.8548C7.06241 29.0591 6.9588 30.2785 6.95703 31.5C6.95703 42.245 14.6325 51.3153 25.206 53.0653C25.4309 53.0944 25.6583 53.0351 25.8403 52.8998C26.0222 52.7645 26.1446 52.5639 26.1816 52.3402C26.2186 52.1165 26.1673 51.8872 26.0385 51.7006C25.9097 51.514 25.7135 51.3846 25.4913 51.3398C22.6323 50.8675 19.9097 49.7809 17.5113 48.1548C17.9295 42.217 22.812 37.625 28.832 37.625C34.852 37.625 39.7328 42.217 40.1545 48.1548C37.7556 49.7811 35.0324 50.8678 32.1728 51.3398C32.0563 51.3549 31.944 51.3932 31.8426 51.4527C31.7412 51.5121 31.6529 51.5913 31.5828 51.6856C31.5127 51.7799 31.4623 51.8874 31.4347 52.0016C31.407 52.1157 31.4026 52.2343 31.4218 52.3503C31.4409 52.4662 31.4833 52.5771 31.5462 52.6763C31.6091 52.7755 31.6914 52.861 31.7881 52.9277C31.8848 52.9945 31.994 53.041 32.1091 53.0647C32.2242 53.0883 32.3429 53.0885 32.458 53.0653C43.0315 51.3153 50.707 42.2468 50.707 31.5C50.707 30.296 50.602 29.0693 50.3973 27.8548C50.3786 27.7413 50.3377 27.6326 50.2768 27.535C50.216 27.4374 50.1364 27.3528 50.0427 27.2861C49.949 27.2194 49.843 27.1719 49.7309 27.1464C49.6187 27.1208 49.5026 27.1177 49.3893 27.1373ZM23.582 30.625C23.582 27.7305 25.9375 25.375 28.832 25.375C31.7265 25.375 34.082 27.7305 34.082 30.625C34.082 33.5195 31.7265 35.875 28.832 35.875C25.9375 35.875 23.582 33.5195 23.582 30.625ZM38.415 9.58828C38.3647 9.43269 38.2718 9.2943 38.1469 9.18882C38.0219 9.08335 37.8699 9.015 37.708 8.99153L32.1168 8.17953L29.616 3.11153C29.322 2.51653 28.342 2.51653 28.048 3.11153L25.5473 8.17953L19.956 8.99153C19.7944 9.015 19.6426 9.08323 19.5177 9.1885C19.3929 9.29377 19.3 9.43188 19.2496 9.5872C19.1991 9.74252 19.1932 9.90886 19.2323 10.0674C19.2715 10.2259 19.3543 10.3703 19.4713 10.4843L23.5173 14.427L22.5618 19.9955C22.5341 20.1566 22.552 20.3221 22.6136 20.4735C22.6752 20.6248 22.7779 20.7559 22.9101 20.8519C23.0423 20.9479 23.1988 21.0049 23.3618 21.0166C23.5248 21.0282 23.6878 20.994 23.8323 20.9178L28.832 18.2875L33.8318 20.9178C33.976 20.9951 34.1393 21.03 34.3025 21.0182C34.4658 21.0064 34.6224 20.9485 34.754 20.8513C34.8864 20.7552 34.9893 20.6239 35.0508 20.4723C35.1124 20.3208 35.1302 20.155 35.1023 19.9938L34.1468 14.4288L38.1945 10.4825C38.3114 10.3687 38.3942 10.2246 38.4334 10.0662C38.4727 9.9079 38.4669 9.74175 38.4168 9.58653L38.415 9.58828ZM32.5945 13.4925C32.4929 13.5917 32.4168 13.714 32.373 13.8491C32.3291 13.9841 32.3186 14.1278 32.3425 14.2678L33.0775 18.543L29.238 16.5235C29.1121 16.4579 28.9723 16.4236 28.8303 16.4236C28.6883 16.4236 28.5484 16.4579 28.4225 16.5235L24.5848 18.543L25.318 14.2678C25.3419 14.1278 25.3315 13.9841 25.2876 13.8491C25.2437 13.714 25.1677 13.5917 25.066 13.4925L21.9615 10.4668L26.2525 9.84378C26.3926 9.82321 26.5257 9.769 26.6403 9.6858C26.7549 9.6026 26.8476 9.49289 26.9105 9.36603L28.832 5.47753L30.7518 9.36778C30.8147 9.49464 30.9075 9.60435 31.022 9.68755C31.1366 9.77075 31.2697 9.82496 31.4098 9.84553L35.7008 10.4685L32.5963 13.4943L32.5945 13.4925Z" fill="#21409C"/>
<path fill-rule="evenodd" clip-rule="evenodd" d="M7.8951 23.6653C7.86702 23.8264 7.88468 23.9923 7.94608 24.1439C8.00748 24.2955 8.11016 24.4269 8.24247 24.5231C8.37477 24.6194 8.5314 24.6766 8.69457 24.6882C8.85775 24.6999 9.02093 24.6657 9.1656 24.5893L13.0839 22.5278L17.0039 24.5893C17.1479 24.6663 17.3108 24.7009 17.4737 24.6891C17.6366 24.6774 17.7929 24.6197 17.9244 24.5228C18.0568 24.4267 18.1596 24.2954 18.2211 24.1438C18.2827 23.9923 18.3005 23.8265 18.2726 23.6653L17.5236 19.3025L20.6946 16.2138C20.8121 16.0999 20.8953 15.9554 20.9348 15.7966C20.9743 15.6378 20.9685 15.4711 20.918 15.3155C20.8675 15.1598 20.7744 15.0214 20.6492 14.9161C20.524 14.8107 20.3718 14.7425 20.2099 14.7193L15.8279 14.084L13.8679 10.1115C13.5739 9.51653 12.5939 9.51653 12.2999 10.1115L10.3399 14.084L5.95785 14.7193C5.79588 14.7425 5.64367 14.8107 5.51849 14.9161C5.39332 15.0214 5.3002 15.1598 5.24972 15.3155C5.19923 15.4711 5.1934 15.6378 5.23289 15.7966C5.27238 15.9554 5.3556 16.0999 5.4731 16.2138L8.6441 19.3025L7.8951 23.6653ZM7.9651 16.198L11.0451 15.75C11.1855 15.7297 11.3189 15.6756 11.4338 15.5924C11.5487 15.5092 11.6417 15.3994 11.7049 15.2723L13.0839 12.4775L14.4629 15.2723C14.5258 15.3991 14.6185 15.5089 14.7331 15.5921C14.8477 15.6753 14.9807 15.7295 15.1209 15.75L18.2026 16.198L15.9731 18.3698C15.8715 18.4689 15.7954 18.5913 15.7515 18.7263C15.7076 18.8614 15.6972 19.0051 15.7211 19.145L16.2479 22.2145L13.4916 20.7655C13.3657 20.6999 13.2258 20.6656 13.0839 20.6656C12.9419 20.6656 12.802 20.6999 12.6761 20.7655L9.91985 22.2145L10.4449 19.145C10.469 19.0052 10.4588 18.8616 10.4152 18.7266C10.3716 18.5915 10.2959 18.4691 10.1946 18.3698L7.9651 16.198ZM51.7099 14.7193L47.3279 14.084L45.3679 10.1115C45.0739 9.51653 44.0939 9.51653 43.7999 10.1115L41.8399 14.084L37.4579 14.7193C37.2959 14.7425 37.1437 14.8107 37.0185 14.9161C36.8933 15.0214 36.8002 15.1598 36.7497 15.3155C36.6992 15.4711 36.6934 15.6378 36.7329 15.7966C36.7724 15.9554 36.8556 16.0999 36.9731 16.2138L40.1441 19.3025L39.3951 23.6653C39.367 23.8264 39.3847 23.9923 39.4461 24.1439C39.5075 24.2955 39.6102 24.4269 39.7425 24.5231C39.8748 24.6194 40.0314 24.6766 40.1946 24.6882C40.3577 24.6999 40.5209 24.6657 40.6656 24.5893L44.5839 22.5278L48.5039 24.5893C48.6479 24.6663 48.8108 24.7009 48.9737 24.6891C49.1366 24.6774 49.2929 24.6197 49.4244 24.5228C49.5568 24.4267 49.6596 24.2954 49.7211 24.1438C49.7827 23.9923 49.8005 23.8265 49.7726 23.6653L49.0236 19.3025L52.1946 16.2138C52.3121 16.0999 52.3953 15.9554 52.4348 15.7966C52.4743 15.6378 52.4685 15.4711 52.418 15.3155C52.3675 15.1598 52.2744 15.0214 52.1492 14.9161C52.024 14.8107 51.8718 14.7425 51.7099 14.7193ZM47.4731 18.3698C47.3715 18.4689 47.2954 18.5913 47.2515 18.7263C47.2076 18.8614 47.1972 19.0051 47.2211 19.145L47.7479 22.2145L44.9916 20.7655C44.8657 20.6999 44.7258 20.6656 44.5839 20.6656C44.4419 20.6656 44.302 20.6999 44.1761 20.7655L41.4199 22.2145L41.9449 19.145C41.969 19.0052 41.9588 18.8616 41.9152 18.7266C41.8717 18.5915 41.7959 18.4691 41.6946 18.3698L39.4651 16.198L42.5451 15.75C42.6855 15.7297 42.8189 15.6756 42.9338 15.5924C43.0487 15.5092 43.1418 15.3994 43.2049 15.2723L44.5839 12.4775L45.9629 15.2723C46.0258 15.3991 46.1185 15.5089 46.2331 15.5921C46.3477 15.6753 46.4808 15.7295 46.6209 15.75L49.7026 16.198L47.4731 18.3698Z" fill="#21409C"/>
<path d="M28.832 53.375C29.3153 53.375 29.707 52.9832 29.707 52.5C29.707 52.0168 29.3153 51.625 28.832 51.625C28.3488 51.625 27.957 52.0168 27.957 52.5C27.957 52.9832 28.3488 53.375 28.832 53.375Z" fill="#21409C"/>
</svg>
