<svg width="57" height="56" viewBox="0 0 57 56" fill="none" xmlns="http://www.w3.org/2000/svg">
<g clip-path="url(#clip0_4062_1892)">
<path d="M2.82026 23.1031C2.26295 23.1935 1.7499 23.4619 1.35789 23.8682C0.965874 24.2745 0.715977 24.7969 0.645594 25.3571C0.453366 27.0998 0.451482 28.8583 0.639973 30.6014C0.703921 31.1701 0.951576 31.7024 1.34537 32.1175C1.73917 32.5327 2.25763 32.8082 2.82211 32.9021L5.79194 33.3883C6.36211 35.8168 7.32455 38.1361 8.64134 40.2548L6.89328 42.6964C6.19671 43.6408 6.21357 44.9333 6.93437 45.8594C7.49076 46.5401 8.08268 47.1909 8.70768 47.8092C9.28079 48.3832 9.91443 48.96 10.6751 49.5992C11.1224 49.9432 11.6692 50.1327 12.2333 50.1392C12.7975 50.1458 13.3485 49.9691 13.8036 49.6356L16.2573 47.8754C18.3738 49.192 20.6909 50.1548 23.1172 50.7257L23.6045 53.7003C23.6947 54.2578 23.963 54.771 24.3694 55.1632C24.7757 55.5554 25.2981 55.8055 25.8585 55.8759C26.3957 55.9362 26.9348 55.9776 27.475 56H27.5543C28.0407 55.9996 28.5085 55.8125 28.8609 55.4773C29.0422 55.304 29.1865 55.0957 29.2848 54.865C29.3832 54.6343 29.4336 54.386 29.433 54.1352V46.6555C29.4275 45.6561 28.6386 44.8368 27.6401 44.7935C18.7069 44.3271 11.7029 36.9479 11.7029 28.0026C11.7029 19.0572 18.7069 11.678 27.6401 11.2116C28.6402 11.1677 29.4295 10.346 29.433 9.34492V1.86902C29.4337 1.61796 29.3833 1.3694 29.2848 1.13849C29.1862 0.907578 29.0417 0.699173 28.8599 0.525995C28.6785 0.348024 28.4622 0.209602 28.2246 0.119475C27.987 0.0293473 27.7333 -0.0105278 27.4795 0.00236822C26.9363 0.0238367 26.3978 0.0629958 25.8452 0.119016C25.2853 0.191168 24.764 0.443392 24.36 0.83766C23.956 1.23193 23.691 1.74687 23.6052 2.30483L23.119 5.27651C20.6926 5.84793 18.3756 6.81101 16.259 8.12785L13.8054 6.37131C13.3461 6.03548 12.7899 5.85869 12.221 5.86778C11.6522 5.87688 11.1018 6.07137 10.6536 6.42171C9.97688 6.97563 9.32923 7.56411 8.71321 8.18479C8.0783 8.80544 7.48057 9.46301 6.92313 10.1541C6.57647 10.6019 6.38466 11.1502 6.37658 11.7165C6.36851 12.2827 6.5446 12.8363 6.87835 13.2938L8.63766 15.7503C7.32199 17.8689 6.36079 20.1878 5.79194 22.6159L2.82026 23.1031ZM7.48039 23.6238C8.02302 20.9877 9.06397 18.4795 10.5473 16.2338C10.6512 16.0761 10.7047 15.8905 10.7008 15.7017C10.697 15.5129 10.636 15.3297 10.5259 15.1763L8.39699 12.2037C8.30108 12.0772 8.24801 11.9233 8.24549 11.7645C8.24297 11.6057 8.29114 11.4503 8.38298 11.3207C8.89459 10.6867 9.44342 10.0837 10.0266 9.51473C10.593 8.94252 11.188 8.39925 11.8092 7.887C11.9393 7.78784 12.0983 7.73413 12.2619 7.73413C12.4254 7.73413 12.5845 7.78784 12.7145 7.887L15.6825 10.0169C15.8361 10.1267 16.0194 10.1874 16.2082 10.1909C16.397 10.1944 16.5825 10.1406 16.74 10.0365C18.9838 8.55258 21.4906 7.51127 24.1254 6.96865C24.3105 6.9305 24.4796 6.83709 24.6104 6.70078C24.7412 6.56446 24.8276 6.39164 24.8581 6.20518L25.4451 2.61092C25.4657 2.45388 25.5361 2.30757 25.646 2.1935C25.7558 2.07943 25.8994 2.00361 26.0556 1.97719C26.558 1.92496 27.0619 1.88886 27.5666 1.86892L27.5461 9.34575C17.6095 9.85325 9.81483 18.0607 9.82036 28.0103C9.82579 37.9599 17.6295 46.1588 27.5666 46.6553L27.5536 54.135C27.0565 54.1143 26.5603 54.076 26.0659 54.0202C25.909 53.9973 25.7639 53.9241 25.6521 53.8117C25.5404 53.6993 25.4681 53.5536 25.4462 53.3967L24.8581 49.8006C24.8276 49.6141 24.7412 49.4413 24.6104 49.305C24.4796 49.1687 24.3105 49.0752 24.1254 49.0371C21.4906 48.4941 18.9838 47.4525 16.74 45.9683C16.5824 45.8644 16.3969 45.8107 16.2081 45.8143C16.0193 45.818 15.836 45.8789 15.6825 45.9889L12.7118 48.1206C12.5883 48.2166 12.4374 48.2706 12.2811 48.2748C12.1248 48.279 11.9712 48.2331 11.8428 48.1439C11.1568 47.5662 10.5623 47.024 10.0266 46.4891C9.45427 45.9236 8.91129 45.3293 8.39975 44.7083C8.30174 44.5774 8.24876 44.4183 8.24876 44.2547C8.24876 44.0912 8.30174 43.932 8.39975 43.8011L10.5268 40.8313C10.6368 40.6778 10.6976 40.4945 10.7013 40.3057C10.705 40.1169 10.6513 39.9315 10.5473 39.7738C9.06388 37.5285 8.02291 35.0205 7.48039 32.3847C7.44229 32.1998 7.34902 32.0308 7.21288 31.9C7.07674 31.7691 6.90413 31.6827 6.71784 31.652L3.12451 31.063C2.96174 31.0361 2.81225 30.9567 2.69884 30.8369C2.58543 30.7171 2.51433 30.5635 2.49639 30.3995C2.32159 28.7941 2.32347 27.1745 2.50201 25.5695C2.52463 25.4126 2.59752 25.2671 2.70975 25.1551C2.82197 25.043 2.9675 24.9703 3.12451 24.948L6.71683 24.3599C6.90381 24.3293 7.07703 24.2425 7.21343 24.111C7.34983 23.9795 7.44295 23.8096 7.48039 23.6238Z" fill="#21409C"/>
<path d="M53.6996 25.2021C53.1226 25.2045 52.5604 25.3851 52.0899 25.7192C51.6195 26.0534 51.2637 26.5247 51.0714 27.0687H29.4332V24.2687H44.3664C45.9128 24.2687 47.1663 23.0152 47.1663 21.4688V16.6305C48.452 16.1759 49.2233 14.8612 48.9926 13.5172C48.762 12.1731 47.5966 11.1907 46.233 11.1907C44.8693 11.1907 43.7039 12.1731 43.4733 13.5172C43.2427 14.8612 44.0139 16.1759 45.2996 16.6305V21.4688C45.2996 21.9842 44.8817 22.4022 44.3662 22.4022H29.4332V19.6021H39.6997C40.2152 19.6021 40.633 19.1843 40.633 18.6688C40.633 18.1533 40.2152 17.7354 39.6997 17.7354H29.4332V15.8688H35.0332C36.5795 15.8688 37.8332 14.6152 37.8332 13.0687V7.29723C39.1189 6.84271 39.8901 5.52797 39.6595 4.18394C39.4289 2.8399 38.2635 1.85742 36.8998 1.85742C35.5362 1.85742 34.3708 2.8399 34.1402 4.18394C33.9095 5.52797 34.6807 6.84271 35.9664 7.29723V13.0689C35.9664 13.5843 35.5486 14.0023 35.0331 14.0023H29.1867C29.0295 13.7101 28.7914 13.4695 28.5009 13.3093C28.2104 13.149 27.8798 13.076 27.5488 13.0989C19.6837 13.5971 13.5596 20.1213 13.5596 28.0022C13.5596 35.883 19.6837 42.4073 27.5488 42.9055H27.658C27.9708 42.9081 28.2785 42.8254 28.5479 42.6662C28.8172 42.507 29.0381 42.2774 29.1867 42.0021H35.0331C35.5485 42.0021 35.9664 42.42 35.9664 42.9355V48.7072C34.6807 49.1617 33.9095 50.4764 34.1402 51.8205C34.3708 53.1645 35.5362 54.147 36.8998 54.147C38.2635 54.147 39.4289 53.1645 39.6595 51.8205C39.8901 50.4764 39.1189 49.1617 37.8332 48.7072V42.9355C37.8332 41.3891 36.5796 40.1355 35.0332 40.1355H29.4332V38.2688H39.6997C40.2152 38.2688 40.633 37.851 40.633 37.3355C40.633 36.8201 40.2152 36.4022 39.6997 36.4022H29.4332V33.6022H44.3664C44.8818 33.6022 45.2998 34.0201 45.2998 34.5355V39.3738C44.0141 39.8284 43.2429 41.1431 43.4735 42.4871C43.7041 43.8312 44.8695 44.8136 46.2331 44.8136C47.5968 44.8136 48.7622 43.8312 48.9928 42.4871C49.2234 41.1431 48.4522 39.8284 47.1665 39.3738V34.5355C47.1665 32.9891 45.913 31.7356 44.3666 31.7356H29.4332V28.9354H51.0714C51.5483 30.2744 52.9541 31.0421 54.3384 30.7198C55.7227 30.3975 56.6449 29.0878 56.4814 27.6758C56.3179 26.2641 55.1209 25.1996 53.6996 25.2021ZM46.2331 13.0689C46.7485 13.0689 47.1663 13.4868 47.1663 14.0023C47.1663 14.5178 46.7485 14.9357 46.2331 14.9357C45.7176 14.9357 45.2998 14.5178 45.2998 14.0023C45.2998 13.4868 45.7175 13.0689 46.2331 13.0689ZM36.8998 3.73568C37.4152 3.73568 37.8332 4.15353 37.8332 4.66905C37.8332 5.18457 37.4153 5.60233 36.8998 5.60233C36.3843 5.60233 35.9665 5.18448 35.9665 4.66905C35.9665 4.15362 36.3843 3.73568 36.8998 3.73568ZM36.8998 52.2685C36.3844 52.2685 35.9665 51.8507 35.9665 51.3352C35.9665 50.8196 36.3844 50.4018 36.8998 50.4018C37.4152 50.4018 37.8332 50.8196 37.8332 51.3352C37.8332 51.8507 37.4152 52.2685 36.8998 52.2685ZM46.2331 42.9353C45.7176 42.9353 45.2998 42.5174 45.2998 42.0019C45.2998 41.4864 45.7176 41.0686 46.2331 41.0686C46.7485 41.0686 47.1663 41.4865 47.1663 42.0019C47.1663 42.5173 46.7485 42.9353 46.2331 42.9353ZM15.4333 28.0021C15.4411 21.1509 20.7334 15.4663 27.5666 14.9692V41.0351C20.7334 40.5379 15.4411 34.8532 15.4333 28.0021ZM53.6996 28.9354C53.1842 28.9354 52.7663 28.5175 52.7663 28.002C52.7663 27.4865 53.1841 27.0687 53.6996 27.0687C54.2152 27.0687 54.633 27.4866 54.633 28.002C54.633 28.5174 54.2151 28.9354 53.6996 28.9354Z" fill="#21409C"/>
</g>
<defs>
<clipPath id="clip0_4062_1892">
<rect width="56" height="56" fill="white" transform="translate(0.5)"/>
</clipPath>
</defs>
</svg>
