<svg width="57" height="56" viewBox="0 0 57 56" fill="none" xmlns="http://www.w3.org/2000/svg">
<path fill-rule="evenodd" clip-rule="evenodd" d="M44.0049 7.16741C44.4903 7.65382 44.1377 8.47803 43.4609 8.47803C43.2656 8.47803 43.0689 8.40299 42.9188 8.25224L39.9488 5.28301L39.9491 16.1302C39.9494 31.2992 27.5606 43.6896 12.3919 43.69L8.90377 43.6902C8.70016 43.69 8.50491 43.6091 8.36093 43.4651C8.21696 43.3211 8.13602 43.1259 8.1359 42.9223C8.13586 42.8214 8.15569 42.7216 8.19426 42.6284C8.23283 42.5352 8.28939 42.4505 8.3607 42.3792C8.43202 42.3079 8.51668 42.2514 8.60987 42.2128C8.70305 42.1742 8.80292 42.1544 8.90377 42.1544L12.3919 42.1543C26.7407 42.154 38.4138 30.4798 38.4133 16.1303L38.4131 5.28312L35.4445 8.25246C35.3732 8.32383 35.2886 8.38044 35.1954 8.41907C35.1022 8.4577 35.0023 8.47758 34.9014 8.47758C34.8006 8.47758 34.7007 8.4577 34.6075 8.41907C34.5143 8.38044 34.4296 8.32383 34.3584 8.25246C34.0582 7.95365 34.0582 7.46779 34.3584 7.16763L38.6382 2.88957C38.9366 2.58661 39.4266 2.58728 39.7244 2.88957L44.0049 7.16741ZM49.7511 51.8012L45.9098 51.8013L45.9088 11.86L49.7501 11.8599L49.7511 51.8012ZM50.5179 10.3248L45.1409 10.3249C44.9375 10.3249 44.7423 10.4057 44.5984 10.5496C44.4546 10.6935 44.3737 10.8886 44.3737 11.0921L44.3747 52.5685C44.3747 52.9922 44.7182 53.3364 45.1419 53.3364L50.5189 53.3363C50.7226 53.3362 50.9178 53.2552 51.0618 53.1112C51.2058 52.9673 51.2867 52.772 51.2868 52.5684L51.2858 11.0919C51.2858 10.6682 50.9416 10.3248 50.5179 10.3248ZM37.9381 51.8015L37.9378 38.9276L34.0965 38.9277L34.0968 51.8016L37.9381 51.8015ZM38.7056 37.3918L33.3293 37.392C33.1256 37.392 32.9304 37.4729 32.7864 37.6169C32.6424 37.7609 32.5615 37.9562 32.5614 38.1598L32.5618 52.5688C32.5618 52.7725 32.6427 52.9678 32.7867 53.1118C32.9307 53.2558 33.126 53.3367 33.3296 53.3367L38.706 53.3366C38.9096 53.3365 39.1048 53.2556 39.2488 53.1116C39.3928 52.9676 39.4737 52.7724 39.4738 52.5687L39.4735 38.1597C39.4734 37.9561 39.3924 37.7609 39.2485 37.6169C39.1045 37.4729 38.9092 37.392 38.7056 37.3918ZM26.1251 51.8019L22.2845 51.802L22.2844 46.4741L26.125 46.474L26.1251 51.8019ZM26.8929 44.9382L21.5165 44.9383C21.3129 44.9384 21.1177 45.0193 20.9737 45.1633C20.8297 45.3073 20.7488 45.5025 20.7487 45.7062L20.7488 52.5691C20.7489 52.7727 20.8298 52.9679 20.9738 53.1119C21.1178 53.2559 21.313 53.3368 21.5167 53.3369L26.893 53.3368C27.0966 53.3368 27.2919 53.2559 27.4359 53.1119C27.5799 52.9679 27.6608 52.7726 27.6609 52.569L27.6606 45.706C27.6607 45.6052 27.6408 45.5054 27.6022 45.4122C27.5636 45.319 27.5071 45.2344 27.4358 45.1631C27.3645 45.0918 27.2799 45.0352 27.1867 44.9966C27.0936 44.958 26.9937 44.9382 26.8929 44.9382ZM14.3128 51.8021L10.4715 51.8022L10.4714 47.9609L14.3127 47.9608L14.3128 51.8021ZM15.0806 46.4251L9.70356 46.4252C9.49995 46.4253 9.3047 46.5063 9.16073 46.6502C9.01675 46.7942 8.93581 46.9895 8.93569 47.1931L8.9358 52.5694C8.93592 52.773 9.01686 52.9683 9.16084 53.1122C9.30482 53.2562 9.50006 53.3372 9.70368 53.3373L15.0807 53.3372C15.5044 53.3372 15.8479 52.993 15.8479 52.5693L15.8478 47.193C15.8478 46.9894 15.767 46.7942 15.6231 46.6502C15.4793 46.5062 15.2841 46.4252 15.0806 46.4251ZM7.24807 25.3138C7.24807 26.7563 8.42161 27.9285 9.86283 27.9285C10.1802 27.9285 10.4964 27.8294 10.7963 28.1718C11.1485 28.5737 10.8908 28.9105 10.8908 29.4772C10.8908 31.5513 13.1963 32.7849 14.9172 31.6773C15.409 31.3606 16.0705 31.6926 16.0997 32.2867C16.242 35.1879 19.2089 37.0191 21.8436 35.9473L21.8432 23.2201L17.3926 23.2203C17.1054 24.7178 15.9992 25.9825 14.5056 26.4289C14.4339 26.4502 14.3596 26.461 14.2849 26.4613C13.4129 26.4613 13.2195 25.2115 14.0662 24.9579C15.1633 24.6292 15.9299 23.5994 15.9299 22.4524C15.9299 21.3061 15.1632 20.275 14.0661 19.9476C13.6599 19.826 13.4282 19.3978 13.5499 18.9916C13.6715 18.586 14.0991 18.3544 14.5053 18.4766C15.999 18.9223 17.1053 20.187 17.3925 21.6845L21.8431 21.6844L21.8428 8.95739C19.2098 7.88645 16.2415 9.71664 16.0991 12.619C16.0703 13.2068 15.4113 13.5449 14.9166 13.2265C14.4955 12.9561 14.0055 12.8126 13.5051 12.8131C11.8101 12.8131 10.566 14.407 10.9641 16.0463C11.0887 16.5588 10.6645 17.048 10.138 16.9908C8.6072 16.8242 7.24774 18.0352 7.24774 19.5901C7.24774 20.4932 7.70447 21.3205 8.4691 21.8038C8.9479 22.1057 8.94465 22.8025 8.4691 23.1021C7.7047 23.5846 7.24796 24.412 7.24807 25.3138ZM23.3791 26.7825C25.4401 26.4183 27.0101 24.6153 27.01 22.452C27.01 20.2889 25.4399 18.4866 23.3789 18.1218L23.3791 26.7825ZM24.201 11.9459H23.3788L23.3789 16.5692C26.2893 16.9476 28.5458 19.44 28.5458 22.4519C28.5459 25.4638 26.2895 27.9565 23.3791 28.3343L23.3792 32.9583H24.2014L24.9945 30.5188C25.0302 30.4091 25.0902 30.3089 25.1699 30.2255C25.2496 30.1421 25.3471 30.0776 25.455 30.0369C26.2901 29.7234 27.0675 29.274 27.7559 28.7068C27.8448 28.6331 27.9493 28.5805 28.0615 28.553C28.1737 28.5256 28.2906 28.524 28.4035 28.5483L30.9161 29.0826L32.5054 26.3274L30.7879 24.4197C30.7107 24.334 30.6538 24.2321 30.6213 24.1214C30.5888 24.0108 30.5817 23.8943 30.6003 23.7805C30.7472 22.9005 30.7471 22.0023 30.6002 21.1224C30.5815 21.0086 30.5886 20.8921 30.6211 20.7814C30.6535 20.6708 30.7105 20.5689 30.7878 20.4833L32.5052 18.5749L30.9157 15.8211L28.4025 16.3555C28.2895 16.3795 28.1726 16.3777 28.0604 16.3502C27.9482 16.3228 27.8436 16.2704 27.7544 16.1971C27.0664 15.6299 26.2894 15.1806 25.4547 14.8672C25.3465 14.8269 25.2488 14.7625 25.169 14.6791C25.0893 14.5956 25.0294 14.4952 24.994 14.3852L24.201 11.9459ZM9.35502 29.4771C9.35513 32.2798 12.0817 34.2583 14.7224 33.4451C15.6113 37.0791 19.7102 38.8671 22.9756 37.1089C23.0977 37.0431 23.1997 36.9455 23.2708 36.8263C23.3419 36.7072 23.3794 36.571 23.3792 36.4322V34.4941H24.5779C24.793 34.4946 25.0026 34.4268 25.1766 34.3004C25.3506 34.1739 25.4798 33.9955 25.5457 33.7908L26.3433 31.3359C27.0896 31.0227 27.7931 30.6162 28.4372 30.1262L30.9641 30.6624C31.1743 30.7075 31.3935 30.6846 31.5899 30.5972C31.7864 30.5098 31.95 30.3623 32.0573 30.1759L34.0238 26.77C34.1316 26.584 34.1776 26.3686 34.1552 26.1548C34.1328 25.941 34.043 25.7398 33.8989 25.5803L32.1698 23.6604C32.2706 22.8583 32.2707 22.0444 32.1696 21.2429L33.8988 19.3236C34.0429 19.164 34.1326 18.9628 34.155 18.749C34.1775 18.5352 34.1314 18.3199 34.0236 18.1339L32.057 14.728C31.95 14.5413 31.7864 14.3935 31.5899 14.3059C31.3934 14.2184 31.1741 14.1956 30.9637 14.2409L28.4363 14.7785C27.7927 14.2883 27.0895 13.8816 26.3436 13.5682L25.5453 11.1133C25.4793 10.9087 25.35 10.7303 25.176 10.6039C25.0021 10.4776 24.7925 10.4097 24.5775 10.4101H23.3788V8.47142C23.3788 8.18873 23.2242 7.92934 22.9751 7.79539C19.707 6.0371 15.6103 7.82653 14.7221 11.4596C12.0856 10.6522 9.35479 12.594 9.35479 15.4718C7.30542 15.7229 5.71278 17.474 5.71289 19.59C5.71289 20.6755 6.12819 21.6911 6.8554 22.4525C6.1283 23.2139 5.713 24.2296 5.71311 25.3138C5.71311 27.431 7.30587 29.1828 9.35524 29.4331C9.35502 29.4475 9.35502 29.4624 9.35502 29.4771Z" fill="#21409C"/>
</svg>
