<svg width="80" height="80" viewBox="0 0 80 80" fill="none" xmlns="http://www.w3.org/2000/svg">
<path d="M40.0004 75C46.0291 74.9999 51.9555 73.4426 57.2054 70.479C62.4553 67.5154 66.8507 63.2459 69.9657 58.0844C73.0807 52.9228 74.8097 47.0442 74.985 41.0181C75.1604 34.992 73.7762 29.0227 70.9666 23.6888C70.8076 23.4025 70.5427 23.19 70.2287 23.0971C69.9147 23.0041 69.5767 23.0381 69.2875 23.1917C68.9983 23.3453 68.7809 23.6063 68.6821 23.9185C68.5833 24.2307 68.611 24.5692 68.7591 24.8613C71.2198 29.5278 72.5041 34.7245 72.5004 40C70.7191 83.1088 9.28164 83.1088 7.50039 40C7.20039 15.8975 34.0004 -0.257493 55.1404 11.2425C55.2854 11.3194 55.4442 11.367 55.6076 11.3825C55.771 11.3981 55.9359 11.3813 56.0928 11.3331C56.2498 11.285 56.3957 11.2064 56.5222 11.1018C56.6488 10.9972 56.7535 10.8688 56.8304 10.7238C56.9073 10.5787 56.9549 10.42 56.9704 10.2566C56.986 10.0931 56.9692 9.92825 56.921 9.77132C56.8729 9.61439 56.7942 9.46848 56.6897 9.34193C56.5851 9.21538 56.4567 9.11066 56.3116 9.03376C51.284 6.38134 45.6848 4.99665 40.0004 5.00001C-6.42461 6.91876 -6.42461 73.0825 40.0004 75Z" fill="white"/>
<path d="M39.9999 30C41.0821 29.9993 42.1568 30.1788 43.1799 30.5312C43.4934 30.6391 43.8369 30.6181 44.1348 30.4728C44.4327 30.3274 44.6607 30.0697 44.7687 29.7563C45.3187 27.5475 41.4249 27.635 39.9999 27.5C23.4187 28.185 23.4199 51.815 39.9999 52.5C43.314 52.4964 46.4913 51.1782 48.8347 48.8348C51.1782 46.4914 52.4963 43.3141 52.4999 40C52.3724 38.55 52.4562 34.6962 50.2549 35.2437C49.9418 35.3517 49.6843 35.5795 49.539 35.8771C49.3936 36.1748 49.3724 36.518 49.4799 36.8313C49.8281 37.8513 50.0038 38.9222 49.9999 40C49.4987 53.2463 30.4999 53.2463 29.9999 40C30.0032 37.3489 31.0579 34.8072 32.9325 32.9326C34.8072 31.0579 37.3488 30.0033 39.9999 30Z" fill="white"/>
<path d="M51.9687 20.9188C52.0484 20.7751 52.099 20.6172 52.1176 20.454C52.1362 20.2909 52.1225 20.1256 52.0772 19.9677C52.0319 19.8098 51.956 19.6624 51.8537 19.5339C51.7515 19.4054 51.6249 19.2983 51.4812 19.2188C47.9669 17.2737 44.0165 16.2523 39.9999 16.25C8.49742 17.5525 8.49742 62.4487 39.9999 63.75C44.1314 63.7525 48.1919 62.6765 51.78 60.6286C55.3682 58.5806 58.3596 55.6316 60.4586 52.0731C62.5576 48.5146 63.6915 44.4698 63.748 40.3387C63.8046 36.2077 62.782 32.1334 60.7812 28.5188C60.6204 28.2287 60.3509 28.0143 60.0321 27.9229C59.7133 27.8315 59.3713 27.8705 59.0812 28.0312C58.7911 28.192 58.5768 28.4615 58.4853 28.7803C58.3939 29.0991 58.4329 29.4412 58.5937 29.7312C66.5187 43.4712 55.8749 61.525 39.9999 61.25C34.366 61.2437 28.9646 59.0029 24.9808 55.0191C20.9971 51.0353 18.7562 45.6339 18.7499 40C18.4774 24.1262 36.5262 13.4812 50.2687 21.4062C50.4122 21.4863 50.5701 21.5371 50.7334 21.5559C50.8967 21.5747 51.062 21.5611 51.22 21.5158C51.378 21.4705 51.5254 21.3944 51.6539 21.292C51.7824 21.1895 51.8894 21.0627 51.9687 20.9188Z" fill="white"/>
<path d="M54.4053 17.3724L54.864 23.3687L39.1165 39.1162C38.8888 39.3519 38.7628 39.6677 38.7657 39.9954C38.7685 40.3232 38.9 40.6367 39.1317 40.8685C39.3635 41.1002 39.677 41.2317 40.0048 41.2345C40.3325 41.2374 40.6483 41.1114 40.884 40.8837L56.6315 25.1362L62.6278 25.5949C62.8074 25.6086 62.9879 25.5833 63.1568 25.5207C63.3257 25.4582 63.4791 25.3598 63.6065 25.2324L72.704 16.1349C72.8694 15.9645 72.9832 15.7508 73.0323 15.5184C73.0813 15.2861 73.0637 15.0446 72.9813 14.8219C72.899 14.5991 72.7553 14.4042 72.5669 14.2597C72.3784 14.1151 72.153 14.0268 71.9165 14.0049L66.4165 13.5837L65.9953 8.0837C65.9734 7.84723 65.8851 7.62177 65.7406 7.43335C65.596 7.24494 65.4011 7.10126 65.1784 7.0189C64.9556 6.93655 64.7141 6.91889 64.4818 6.96796C64.2494 7.01703 64.0357 7.13082 63.8653 7.2962L54.7678 16.3937C54.6402 16.521 54.5418 16.6744 54.4792 16.8433C54.4167 17.0123 54.3914 17.1928 54.4053 17.3724ZM63.7103 10.9862C64.2103 16.8074 63.2253 15.7824 69.014 16.2899L62.2453 23.0587L57.319 22.6812L56.9415 17.7562L63.7103 10.9862Z" fill="white"/>
</svg>
