<svg width="81" height="80" viewBox="0 0 81 80" fill="none" xmlns="http://www.w3.org/2000/svg">
<path d="M47.8288 10.57C47.9457 10.6045 48.0669 10.6221 48.1888 10.6225C48.4575 10.6223 48.7189 10.5354 48.9344 10.3749C49.1499 10.2143 49.3079 9.98865 49.385 9.73125L50.8375 4.895C50.8846 4.73774 50.9003 4.57274 50.8836 4.40943C50.867 4.24611 50.8183 4.08768 50.7404 3.94316C50.6626 3.79865 50.557 3.6709 50.4297 3.56719C50.3025 3.46349 50.156 3.38586 49.9988 3.33875C49.8415 3.29164 49.6765 3.27596 49.5132 3.29262C49.3499 3.30927 49.1914 3.35793 49.0469 3.43581C48.9024 3.5137 48.7747 3.61929 48.6709 3.74654C48.5672 3.8738 48.4896 4.02024 48.4425 4.1775L46.99 9.01375C46.9429 9.17101 46.9272 9.33601 46.9439 9.49933C46.9605 9.66265 47.0092 9.82109 47.087 9.9656C47.1649 10.1101 47.2705 10.2379 47.3978 10.3416C47.525 10.4453 47.6715 10.5229 47.8288 10.57ZM56.07 12.57C56.3611 12.7284 56.7032 12.7646 57.021 12.6709C57.3389 12.5771 57.6065 12.361 57.765 12.07L60.185 7.6125C60.2634 7.46821 60.3126 7.30989 60.3298 7.14659C60.347 6.98329 60.3318 6.8182 60.2852 6.66075C60.2386 6.50329 60.1615 6.35656 60.0582 6.22893C59.9549 6.10129 59.8274 5.99526 59.6831 5.91687C59.5388 5.83849 59.3805 5.7893 59.2172 5.7721C59.0539 5.7549 58.8888 5.77003 58.7314 5.81664C58.5739 5.86324 58.4272 5.9404 58.2996 6.04371C58.1719 6.14702 58.0659 6.27446 57.9875 6.41875L55.5675 10.875C55.4892 11.0193 55.4401 11.1776 55.4229 11.3409C55.4058 11.5041 55.421 11.6692 55.4677 11.8266C55.5143 11.984 55.5915 12.1306 55.6949 12.2582C55.7982 12.3858 55.9257 12.4917 56.07 12.57ZM65.4288 16.6463C65.6109 16.6464 65.7908 16.6068 65.956 16.5301C66.1211 16.4535 66.2676 16.3417 66.385 16.2025L69.6713 12.3C69.7795 12.1748 69.8618 12.0294 69.9134 11.8722C69.9651 11.715 69.9849 11.5491 69.9719 11.3841C69.9589 11.2191 69.9133 11.0584 69.8377 10.9112C69.7621 10.764 69.658 10.6333 69.5315 10.5266C69.405 10.4199 69.2585 10.3395 69.1007 10.2898C68.9428 10.2402 68.7767 10.2224 68.6119 10.2375C68.4471 10.2526 68.2869 10.3002 68.1407 10.3777C67.9945 10.4552 67.8651 10.5609 67.76 10.6887L64.4738 14.5913C64.3205 14.7733 64.2224 14.9954 64.191 15.2313C64.1596 15.4672 64.1962 15.7072 64.2965 15.923C64.3968 16.1389 64.5566 16.3216 64.7572 16.4497C64.9578 16.5778 65.1908 16.646 65.4288 16.6463ZM73.0525 22.8563C73.3465 22.8563 73.6311 22.7527 73.8563 22.5638L77.7313 19.3138C77.9773 19.0984 78.1292 18.7952 78.1544 18.4692C78.1796 18.1432 78.0759 17.8203 77.8658 17.5698C77.6557 17.3192 77.3557 17.161 77.0303 17.129C76.7049 17.0971 76.3799 17.1939 76.125 17.3987L72.25 20.6487C72.054 20.8138 71.9134 21.0351 71.8473 21.2826C71.7812 21.5302 71.7928 21.7921 71.8806 22.0329C71.9683 22.2736 72.1279 22.4816 72.3377 22.6287C72.5475 22.7757 72.7975 22.8547 73.0538 22.855L73.0525 22.8563ZM14.615 16.2025C14.7201 16.3304 14.8495 16.4361 14.9957 16.5135C15.1419 16.591 15.3021 16.6387 15.4669 16.6537C15.6317 16.6688 15.7978 16.651 15.9557 16.6014C16.1135 16.5518 16.26 16.4713 16.3865 16.3646C16.513 16.258 16.6171 16.1273 16.6927 15.9801C16.7683 15.8329 16.8139 15.6721 16.8269 15.5072C16.8399 15.3422 16.8201 15.1763 16.7684 15.019C16.7168 14.8618 16.6345 14.7164 16.5263 14.5913L13.24 10.6887C13.0249 10.4401 12.7205 10.2861 12.3928 10.2603C12.065 10.2345 11.7402 10.3388 11.4889 10.5507C11.2375 10.7627 11.0797 11.0651 11.0498 11.3925C11.0198 11.7199 11.12 12.046 11.3288 12.3L14.615 16.2025ZM23.235 12.0675C23.3133 12.2118 23.4193 12.3392 23.5468 12.4426C23.6744 12.5459 23.821 12.6231 23.9784 12.6698C24.1358 12.7165 24.3009 12.7317 24.4641 12.7145C24.6274 12.6974 24.7857 12.6483 24.93 12.57C25.0743 12.4917 25.2017 12.3857 25.3051 12.2582C25.4084 12.1306 25.4856 11.984 25.5323 11.8266C25.579 11.6692 25.5942 11.5041 25.577 11.3409C25.5599 11.1776 25.5108 11.0193 25.4325 10.875L23.0125 6.41625C22.8542 6.12484 22.5866 5.90826 22.2686 5.81414C21.9506 5.72002 21.6083 5.75607 21.3169 5.91438C21.0255 6.07268 20.8089 6.34025 20.7148 6.65825C20.6206 6.97624 20.6567 7.31859 20.815 7.61L23.235 12.0675ZM7.18375 22.595C7.31299 22.7015 7.46232 22.781 7.62286 22.8287C7.78341 22.8763 7.9519 22.8913 8.11833 22.8726C8.28475 22.8539 8.44573 22.8019 8.59169 22.7198C8.73765 22.6377 8.86562 22.5271 8.968 22.3945C9.07038 22.262 9.14508 22.1102 9.18766 21.9482C9.23025 21.7863 9.23986 21.6174 9.21591 21.4516C9.19196 21.2859 9.13495 21.1266 9.04825 20.9833C8.96156 20.8401 8.84696 20.7156 8.71125 20.6175L5.01375 17.7612C4.88451 17.6547 4.73519 17.5753 4.57464 17.5276C4.4141 17.4799 4.24561 17.465 4.07918 17.4837C3.91275 17.5024 3.75177 17.5543 3.60581 17.6365C3.45985 17.7186 3.33189 17.8292 3.22951 17.9617C3.12713 18.0943 3.05243 18.246 3.00984 18.408C2.96725 18.57 2.95765 18.7388 2.9816 18.9046C3.00554 19.0704 3.06256 19.2296 3.14925 19.3729C3.23594 19.5162 3.35054 19.6406 3.48625 19.7388L7.18375 22.595ZM31.615 9.73125C31.6921 9.98865 31.8501 10.2143 32.0656 10.3749C32.2811 10.5354 32.5426 10.6223 32.8113 10.6225C32.9331 10.6221 33.0543 10.6045 33.1713 10.57C33.3285 10.5229 33.475 10.4453 33.6022 10.3416C33.7295 10.2379 33.8351 10.1101 33.913 9.9656C33.9909 9.82109 34.0395 9.66265 34.0562 9.49933C34.0728 9.33601 34.0571 9.17101 34.01 9.01375L32.5575 4.1775C32.5104 4.02024 32.4328 3.8738 32.3291 3.74654C32.2254 3.61929 32.0976 3.5137 31.9531 3.43581C31.8086 3.35793 31.6501 3.30927 31.4868 3.29262C31.3235 3.27596 31.1585 3.29164 31.0013 3.33875C30.844 3.38586 30.6976 3.46349 30.5703 3.56719C30.443 3.6709 30.3375 3.79865 30.2596 3.94316C30.1817 4.08768 30.133 4.24611 30.1164 4.40943C30.0997 4.57274 30.1154 4.73774 30.1625 4.895L31.615 9.73125ZM40.5 10C40.8315 10 41.1495 9.8683 41.3839 9.63388C41.6183 9.39946 41.75 9.08152 41.75 8.75V3.75C41.75 3.41848 41.6183 3.10054 41.3839 2.86612C41.1495 2.6317 40.8315 2.5 40.5 2.5C40.1685 2.5 39.8505 2.6317 39.6161 2.86612C39.3817 3.10054 39.25 3.41848 39.25 3.75V8.75C39.25 9.08152 39.3817 9.39946 39.6161 9.63388C39.8505 9.8683 40.1685 10 40.5 10ZM23.5088 48.8288C16.6097 45.6804 10.5554 40.9412 5.8425 35C8.24437 32.0001 10.9813 29.2845 14 26.9062C14.2609 26.7015 14.4298 26.4016 14.4695 26.0723C14.5093 25.7431 14.4166 25.4115 14.2119 25.1506C14.0072 24.8897 13.7072 24.7208 13.3779 24.6811C13.0487 24.6414 12.7172 24.734 12.4563 24.9388C9.02144 27.6481 5.93358 30.7704 3.2625 34.235C3.09303 34.454 3.00107 34.7231 3.00107 35C3.00107 35.2769 3.09303 35.546 3.2625 35.765C8.31405 42.3827 14.9183 47.6539 22.4913 51.1125C22.7941 51.2474 23.1381 51.2565 23.4477 51.1378C23.7572 51.0191 24.007 50.7822 24.1419 50.4794C24.2768 50.1765 24.2859 49.8325 24.1672 49.5229C24.0484 49.2134 23.8116 48.9637 23.5088 48.8288Z" fill="white"/>
<path d="M77.7385 35.765C77.908 35.546 77.9999 35.2769 77.9999 35C77.9999 34.7231 77.908 34.454 77.7385 34.235C68.2735 22.01 54.6997 15 40.4998 15C31.9301 15.0346 23.5497 17.5241 16.351 22.1738C16.0715 22.3521 15.8744 22.6342 15.8029 22.9579C15.7314 23.2817 15.7914 23.6205 15.9698 23.9C16.1481 24.1795 16.4302 24.3766 16.7539 24.4481C17.0776 24.5196 17.4165 24.4596 17.696 24.2812C20.8684 22.2578 24.2899 20.6544 27.8747 19.5113C25.5613 21.3907 23.6982 23.7646 22.4226 26.4585C21.1469 29.1525 20.4909 32.098 20.5029 35.0787C20.5149 38.0593 21.1945 40.9995 22.4918 43.683C23.7892 46.3666 25.6712 48.7255 27.9998 50.5863V52.5C27.0052 52.5 26.0514 52.8951 25.3481 53.5984C24.6448 54.3016 24.2498 55.2554 24.2498 56.25C24.2498 57.2446 24.6448 58.1984 25.3481 58.9016C26.0514 59.6049 27.0052 60 27.9998 60H52.9997C53.3313 60 53.6492 60.1317 53.8836 60.3661C54.1181 60.6005 54.2497 60.9185 54.2497 61.25C54.2497 61.5815 54.1181 61.8995 53.8836 62.1339C53.6492 62.3683 53.3313 62.5 52.9997 62.5H27.9998C27.6682 62.5 27.3503 62.6317 27.1159 62.8661C26.8814 63.1005 26.7498 63.4185 26.7498 63.75C26.7498 64.0815 26.8814 64.3995 27.1159 64.6339C27.3503 64.8683 27.6682 65 27.9998 65C27.9998 68.3152 29.3167 71.4946 31.6609 73.8388C34.0051 76.183 37.1845 77.5 40.4998 77.5C43.815 77.5 46.9944 76.183 49.3386 73.8388C51.6828 71.4946 52.9997 68.3152 52.9997 65C53.725 65.0032 54.4355 64.7951 55.0445 64.4011C55.6534 64.0071 56.1345 63.4443 56.4288 62.7814C56.7231 62.1186 56.818 61.3843 56.7018 60.6684C56.5857 59.9524 56.2635 59.2858 55.7747 58.75C56.2635 58.2142 56.5857 57.5476 56.7018 56.8316C56.818 56.1157 56.7231 55.3814 56.4288 54.7186C56.1345 54.0557 55.6534 53.4929 55.0445 53.0989C54.4355 52.7049 53.725 52.4968 52.9997 52.5V50.5863C55.3464 48.7239 57.2404 46.3539 58.5395 43.6543C59.8385 40.9547 60.5087 37.9958 60.4997 35C60.4968 33.5641 60.3401 32.1326 60.0322 30.73C59.9987 30.5682 59.9334 30.4147 59.8401 30.2783C59.7469 30.142 59.6275 30.0254 59.4889 29.9355C59.3504 29.8455 59.1953 29.7839 59.0328 29.7542C58.8703 29.7246 58.7035 29.7274 58.542 29.7626C58.3806 29.7978 58.2278 29.8646 58.0924 29.9593C57.9569 30.0539 57.8416 30.1744 57.753 30.3139C57.6645 30.4534 57.6045 30.609 57.5764 30.7719C57.5484 30.9347 57.5529 31.1014 57.5897 31.2625C57.8596 32.4901 57.9971 33.7431 57.9997 35C58.0069 37.7147 57.3774 40.3932 56.1617 42.8205C54.946 45.2478 53.178 47.3561 50.9998 48.9762C50.8445 49.0927 50.7185 49.2437 50.6317 49.4172C50.5449 49.5908 50.4997 49.7822 50.4997 49.9762V52.5H45.4998V43.65C47.5496 42.4733 49.1139 40.6058 49.9132 38.3814C50.7124 36.1571 50.6944 33.721 49.8623 31.5088C49.7801 31.2892 49.6378 31.0972 49.4517 30.9546C49.2656 30.812 49.0431 30.7247 48.8097 30.7025C48.5763 30.6784 48.3408 30.7212 48.1308 30.8259C47.9208 30.9306 47.7448 31.0929 47.6235 31.2938C47.404 31.6612 47.0929 31.9655 46.7207 32.1769C46.3485 32.3883 45.9278 32.4997 45.4998 32.5C44.8367 32.5 44.2008 32.2366 43.732 31.7678C43.2631 31.2989 42.9998 30.663 42.9998 30C42.9998 29.5718 43.1108 29.151 43.322 28.7786C43.5332 28.4061 43.8373 28.0948 44.2048 27.875C44.4047 27.7527 44.5663 27.5767 44.671 27.367C44.7757 27.1573 44.8193 26.9223 44.7969 26.689C44.7745 26.4557 44.6869 26.2334 44.5442 26.0475C44.4015 25.8615 44.2093 25.7195 43.9897 25.6375C42.4781 25.0689 40.8511 24.8758 39.2484 25.0747C37.6456 25.2736 36.1152 25.8586 34.7884 26.7795C33.4616 27.7003 32.3782 28.9294 31.6312 30.3613C30.8842 31.7932 30.4959 33.385 30.4998 35C30.5067 36.7526 30.9718 38.4729 31.8489 39.9903C32.7259 41.5076 33.9845 42.7692 35.4998 43.65V52.5H30.4998V49.9738C30.4998 49.7797 30.4546 49.5883 30.3678 49.4147C30.281 49.2412 30.155 49.0902 29.9998 48.9738C27.9033 47.3972 26.1883 45.3692 24.9818 43.04C23.7754 40.7108 23.1083 38.14 23.03 35.518C22.9518 32.8961 23.4643 30.2901 24.5297 27.8931C25.5951 25.4961 27.1861 23.3694 29.1848 21.6706C31.1835 19.9718 33.5388 18.7443 36.0762 18.0792C38.6136 17.414 41.2681 17.3281 43.8431 17.8279C46.4182 18.3277 48.8479 19.4003 50.9522 20.9664C53.0566 22.5325 54.7816 24.5519 55.9997 26.875C56.0761 27.0204 56.1803 27.1493 56.3064 27.2543C56.4326 27.3594 56.5782 27.4386 56.735 27.4874C56.8917 27.5362 57.0565 27.5537 57.22 27.5388C57.3835 27.5239 57.5425 27.477 57.6879 27.4006C57.8332 27.3243 57.9621 27.2201 58.0672 27.0939C58.1723 26.9678 58.2515 26.8222 58.3003 26.6654C58.3491 26.5087 58.3666 26.3438 58.3517 26.1803C58.3368 26.0168 58.2898 25.8579 58.2135 25.7125C56.963 23.3306 55.2465 21.2243 53.166 19.5187C61.8507 22.4214 69.4956 27.8032 75.1572 35C70.4444 40.9412 64.3901 45.6804 57.491 48.8288C57.341 48.8956 57.2057 48.9913 57.0927 49.1104C56.9798 49.2295 56.8914 49.3697 56.8326 49.5229C56.7738 49.6762 56.7458 49.8396 56.7501 50.0037C56.7544 50.1678 56.7911 50.3294 56.8579 50.4794C56.9247 50.6293 57.0204 50.7647 57.1395 50.8776C57.2586 50.9906 57.3988 51.079 57.5521 51.1378C57.7053 51.1966 57.8687 51.2246 58.0328 51.2203C58.1969 51.2159 58.3585 51.1793 58.5085 51.1125C66.0819 47.6541 72.6866 42.3829 77.7385 35.765ZM40.4998 75C37.8485 74.997 35.3067 73.9425 33.432 72.0678C31.5573 70.1931 30.5027 67.6513 30.4998 65H50.4997C50.4968 67.6513 49.4422 70.1931 47.5675 72.0678C45.6928 73.9425 43.151 74.997 40.4998 75ZM54.2497 56.25C54.2497 56.5815 54.1181 56.8995 53.8836 57.1339C53.6492 57.3683 53.3313 57.5 52.9997 57.5H27.9998C27.6682 57.5 27.3503 57.3683 27.1159 57.1339C26.8814 56.8995 26.7498 56.5815 26.7498 56.25C26.7498 55.9185 26.8814 55.6005 27.1159 55.3661C27.3503 55.1317 27.6682 55 27.9998 55H52.9997C53.3313 55 53.6492 55.1317 53.8836 55.3661C54.1181 55.6005 54.2497 55.9185 54.2497 56.25ZM37.2873 41.7675C35.7538 41.035 34.5147 39.8035 33.7727 38.2747C33.0307 36.7459 32.8299 35.0104 33.2032 33.3525C33.5765 31.6946 34.5017 30.2127 35.8273 29.1494C37.153 28.0861 38.8004 27.5046 40.4998 27.5C40.7185 27.5 40.9372 27.51 41.1535 27.5288C40.6129 28.4805 40.3996 29.5833 40.5462 30.668C40.6929 31.7527 41.1914 32.7593 41.9653 33.5334C42.7392 34.3074 43.7457 34.8061 44.8304 34.9529C45.915 35.0998 47.0179 34.8867 47.9698 34.3462C47.9898 34.5625 47.9997 34.7812 47.9997 35C47.9939 36.4171 47.5885 37.8038 46.8301 39.0009C46.0717 40.198 44.9911 41.1569 43.7122 41.7675C43.4995 41.8688 43.3198 42.0282 43.1937 42.2272C43.0677 42.4263 43.0004 42.6569 42.9998 42.8925V52.5H37.9998V42.8963C37.9998 42.66 37.9329 42.4286 37.8068 42.2288C37.6807 42.029 37.5005 41.8691 37.2873 41.7675Z" fill="white"/>
<path d="M66.385 52.0087C66.2789 51.8832 66.1491 51.7799 66.003 51.7045C65.8569 51.6292 65.6975 51.5834 65.5337 51.5697C65.3699 51.556 65.205 51.5747 65.0485 51.6247C64.8919 51.6747 64.7467 51.7551 64.6213 51.8612C64.4958 51.9674 64.3924 52.0972 64.3171 52.2432C64.2417 52.3893 64.1959 52.5488 64.1822 52.7126C64.1685 52.8763 64.1872 53.0412 64.2372 53.1978C64.2873 53.3543 64.3676 53.4995 64.4738 53.625L67.76 57.5287C67.8659 57.6542 67.9954 57.7576 68.1413 57.8331C68.2871 57.9085 68.4464 57.9544 68.61 57.9683C68.7736 57.9822 68.9383 57.9637 69.0948 57.9139C69.2513 57.8641 69.3964 57.784 69.5219 57.6781C69.6474 57.5722 69.7508 57.4427 69.8262 57.2968C69.9016 57.151 69.9476 56.9917 69.9615 56.8281C69.9753 56.6645 69.9568 56.4998 69.9071 56.3433C69.8573 56.1868 69.7771 56.0417 69.6713 55.9162L66.385 52.0087ZM73.8563 45.65C73.7315 45.5377 73.5855 45.4517 73.4268 45.3971C73.2682 45.3424 73.1001 45.3203 72.9327 45.332C72.7654 45.3437 72.602 45.389 72.4525 45.4652C72.303 45.5413 72.1703 45.6468 72.0625 45.7754C71.9546 45.9039 71.8737 46.0528 71.8246 46.2133C71.7755 46.3738 71.7592 46.5425 71.7767 46.7093C71.7942 46.8762 71.8452 47.0379 71.9265 47.1847C72.0078 47.3315 72.1178 47.4604 72.25 47.5637L76.125 50.8137C76.3798 51.0177 76.7043 51.1139 77.0291 51.0817C77.3539 51.0496 77.6533 50.8917 77.8632 50.6418C78.0732 50.3919 78.177 50.0697 78.1526 49.7443C78.1282 49.4188 77.9774 49.1158 77.7325 48.9L73.8563 45.65ZM14.615 52.0087L11.3288 55.9112C11.1149 56.1647 11.0105 56.4927 11.0385 56.8231C11.0666 57.1535 11.2247 57.4593 11.4781 57.6731C11.7316 57.8869 12.0596 57.9913 12.39 57.9633C12.7204 57.9353 13.0262 57.7772 13.24 57.5237L16.5263 53.625C16.6345 53.4998 16.7168 53.3544 16.7684 53.1972C16.8201 53.04 16.8399 52.874 16.8269 52.7091C16.8139 52.5441 16.7683 52.3834 16.6927 52.2362C16.6171 52.089 16.513 51.9582 16.3865 51.8516C16.26 51.7449 16.1135 51.6644 15.9557 51.6148C15.7978 51.5652 15.6317 51.5474 15.4669 51.5625C15.3021 51.5776 15.1419 51.6252 14.9957 51.7027C14.8495 51.7802 14.7201 51.8859 14.615 52.0137V52.0087ZM7.18375 45.6175L3.48625 48.4725C3.35054 48.5706 3.23594 48.695 3.14925 48.8383C3.06256 48.9816 3.00554 49.1409 2.9816 49.3066C2.95765 49.4724 2.96725 49.6413 3.00984 49.8032C3.05243 49.9652 3.12713 50.117 3.22951 50.2495C3.33189 50.382 3.45985 50.4927 3.60581 50.5748C3.75177 50.6569 3.91275 50.7089 4.07918 50.7276C4.24561 50.7463 4.4141 50.7313 4.57464 50.6836C4.73519 50.636 4.88451 50.5565 5.01375 50.45L8.71125 47.595C8.84696 47.4968 8.96156 47.3724 9.04825 47.2291C9.13495 47.0858 9.19196 46.9266 9.21591 46.7608C9.23986 46.5951 9.23025 46.4262 9.18766 46.2642C9.14508 46.1023 9.07038 45.9505 8.968 45.818C8.86562 45.6854 8.73765 45.5748 8.59169 45.4927C8.44573 45.4106 8.28475 45.3586 8.11832 45.3399C7.9519 45.3212 7.78341 45.3361 7.62286 45.3838C7.46232 45.4315 7.31299 45.511 7.18375 45.6175Z" fill="white"/>
</svg>
