<svg width="52" height="56" viewBox="0 0 52 56" fill="none" xmlns="http://www.w3.org/2000/svg">
<path d="M18.9992 0C17.961 0.000951627 16.9465 0.309665 16.0837 0.887116C15.221 1.46457 14.5489 2.28483 14.1523 3.24422C13.7556 4.20361 13.6524 5.25905 13.8555 6.27712C14.0586 7.2952 14.559 8.2302 15.2934 8.96394C16.0278 9.69768 16.9633 10.1972 17.9815 10.3994C18.9998 10.6016 20.0551 10.4973 21.0142 10.0998C21.9732 9.70233 22.7928 9.02943 23.3695 8.16618C23.9462 7.30293 24.2539 6.2881 24.2539 5.24996C24.2516 3.85754 23.6972 2.52287 22.7122 1.53869C21.7272 0.554508 20.3916 0.0011565 18.9992 0ZM18.9992 8.74993C18.3071 8.74924 17.6307 8.54338 17.0556 8.15838C16.4805 7.77338 16.0325 7.22651 15.7681 6.58692C15.5037 5.94732 15.4349 5.2437 15.5704 4.56501C15.7058 3.88631 16.0394 3.263 16.529 2.77387C17.0187 2.28474 17.6423 1.95175 18.3211 1.81698C19 1.68222 19.7035 1.75173 20.3429 2.01674C20.9822 2.28175 21.5286 2.73035 21.913 3.30584C22.2975 3.88133 22.5026 4.55788 22.5026 5.24996C22.5011 6.17835 22.1314 7.06824 21.4746 7.72439C20.8178 8.38053 19.9276 8.74935 18.9992 8.74993ZM13.8166 34.8278C13.716 35.0679 13.5255 35.2592 13.2859 35.3608C13.0462 35.4624 12.7763 35.4663 12.5338 35.3716L2.98326 31.7824C2.75173 31.6932 2.56386 31.5175 2.45924 31.2926C2.35462 31.0676 2.34141 30.8107 2.42239 30.5762L8.9726 13.9938C9.76447 11.9874 11.7065 10.2772 13.9413 10.0808C13.4933 9.61423 13.1118 9.08806 12.8077 8.51718C11.576 8.82585 10.4366 9.42618 9.4856 10.2675C8.53459 11.1089 7.79985 12.1666 7.34336 13.3515L0.793149 29.9335C0.634874 30.3873 0.584836 30.8718 0.647026 31.3484L2.28108 53.4332C2.29599 53.7907 2.38184 54.1417 2.53363 54.4657C2.68543 54.7897 2.90013 55.0803 3.16526 55.3206C3.64261 55.7572 4.2661 55.9995 4.91306 55.9996C4.9485 55.9996 6.29511 55.9991 6.31043 55.9982C6.9739 55.9436 7.59454 55.6484 8.05563 55.1682C8.51672 54.688 8.7865 54.0559 8.81422 53.3908L9.74959 36.1941L11.9178 37.0091C12.2283 37.1261 12.5573 37.1859 12.8891 37.1859C12.9328 37.1859 12.9757 37.1785 13.019 37.1763L11.8579 53.3111L11.8566 53.3269C11.8521 53.554 11.7665 53.7719 11.6151 53.9412C11.4637 54.1105 11.2566 54.2199 11.0315 54.2496L10.4527 54.2487C10.3062 54.8818 10.0265 55.4764 9.63234 55.993C9.65641 55.9934 11.0861 55.9991 11.1015 55.9982C11.7598 55.9482 12.3773 55.6597 12.8381 55.1869C13.299 54.7142 13.5716 54.0895 13.6048 53.4301L14.8316 36.3866C15.0982 36.1276 15.3075 35.8155 15.4458 35.4705L17.2934 30.7928L15.686 30.095L13.8166 34.8278ZM7.06511 53.2958C7.05851 53.5254 6.9729 53.7456 6.82274 53.9194C6.67257 54.0932 6.46705 54.2098 6.24087 54.2496C6.24087 54.2496 4.973 54.2478 4.95769 54.2487C4.73157 54.2561 4.51134 54.1758 4.343 54.0247C4.24676 53.9355 4.16946 53.8278 4.11572 53.708C4.06198 53.5883 4.03289 53.459 4.03019 53.3278L2.56151 33.4934L8.02979 35.5488L7.06511 53.2958ZM19.2017 21.1941L20.7911 21.9378L21.9956 18.888C22.4323 17.743 22.5888 16.5101 22.452 15.2922C22.3153 14.0744 21.8892 12.9069 21.2094 11.8872C20.5858 12.0938 19.9361 12.2112 19.2796 12.2359C19.6679 12.6771 19.9866 13.175 20.2246 13.7125C20.546 14.4213 20.724 15.1868 20.7483 15.9647C20.7726 16.7427 20.6428 17.5178 20.3663 18.2454L19.2017 21.1941Z" fill="#21409C"/>
<path d="M16.3092 21.7729L16.1561 20.0374C16.1321 19.8089 16.0192 19.5991 15.842 19.453C15.6647 19.307 15.4371 19.2364 15.2083 19.2565C14.9794 19.2767 14.7677 19.3859 14.6186 19.5607C14.4696 19.7355 14.3951 19.9618 14.4114 20.1909L14.5789 22.0857C14.6274 22.3628 14.743 22.6239 14.9157 22.846C15.0883 23.0681 15.3128 23.2445 15.5694 23.3597L23.0419 26.8566C23.3166 26.3184 23.6928 25.8382 24.1496 25.4426C24.1496 25.4426 16.3119 21.7747 16.3092 21.7729Z" fill="#21409C"/>
<path d="M22.5127 29.2418L12.7499 25.0042C12.6281 24.9492 12.5185 24.8703 12.4277 24.7723C12.3368 24.6742 12.2665 24.559 12.221 24.4333L11.0957 19.4931C11.0419 19.269 10.902 19.0751 10.7062 18.9534C10.5104 18.8318 10.2745 18.7923 10.0498 18.8434C9.82502 18.8945 9.62948 19.0322 9.50554 19.2265C9.38161 19.4209 9.33928 19.6562 9.38774 19.8816L10.5244 24.8717C10.6333 25.2568 10.827 25.6127 11.0912 25.9133C11.3553 26.214 11.6833 26.4518 12.0512 26.6094L23.1623 31.4319C22.7958 30.7552 22.5746 30.009 22.5127 29.2418ZM41.4642 24.9561C41.4733 24.9281 42.6248 19.8816 42.6248 19.8816C42.6733 19.6562 42.631 19.4209 42.507 19.2265C42.3831 19.0322 42.1876 18.8945 41.9628 18.8434C41.7381 18.7923 41.5022 18.8318 41.3064 18.9534C41.1106 19.0751 40.9706 19.269 40.9169 19.4931L39.7912 24.4333C39.7456 24.5588 39.6755 24.674 39.5848 24.7721C39.4941 24.8701 39.3847 24.949 39.2631 25.0042C39.2631 25.0042 27.6042 30.0652 27.5894 30.0718C27.458 30.135 27.3153 30.1714 27.1697 30.1787C27.0241 30.186 26.8785 30.1641 26.7415 30.1144C26.6044 30.0646 26.4787 29.9879 26.3717 29.8889C26.2648 29.7898 26.1787 29.6704 26.1185 29.5376C25.986 29.2556 25.9665 28.9337 26.0638 28.6378C26.1612 28.3419 26.3682 28.0945 26.6422 27.9464L36.4421 23.3597C36.6993 23.2451 36.9242 23.0689 37.097 22.8467C37.2699 22.6245 37.3853 22.3631 37.4331 22.0857L37.6002 20.1913C37.6168 19.962 37.5426 19.7354 37.3935 19.5603C37.2445 19.3852 37.0326 19.2758 36.8036 19.2556C36.5746 19.2354 36.3468 19.306 36.1694 19.4523C35.992 19.5985 35.8793 19.8087 35.8554 20.0373C35.8554 20.0373 35.7023 21.7729 35.6993 21.7742L25.8788 26.3714C25.1949 26.7227 24.6728 27.3242 24.4212 28.0507C24.1697 28.7772 24.208 29.5727 24.5282 30.2717C24.855 30.9586 25.4397 31.4887 26.1553 31.7467C26.8709 32.0047 27.6594 31.9697 28.3493 31.6494L39.9622 26.6094C40.3139 26.4537 40.6291 26.2263 40.8876 25.9416C41.1462 25.657 41.3424 25.3215 41.4637 24.9565L41.4642 24.9561ZM32.7326 12.2359C32.076 12.2112 31.4261 12.0939 30.8024 11.8872C30.1225 12.9069 29.6965 14.0744 29.5597 15.2922C29.4229 16.5101 29.5795 17.743 30.0162 18.888L31.221 21.9378L32.81 21.1941L31.6454 18.2453C31.3689 17.5178 31.2391 16.7427 31.2634 15.9647C31.2878 15.1868 31.4658 14.4213 31.7872 13.7124C32.0251 13.175 32.3438 12.6771 32.7322 12.2359H32.7326Z" fill="#21409C"/>
<path d="M51.2186 29.9335L44.6688 13.3515C44.2124 12.1666 43.4777 11.1088 42.5267 10.2674C41.5757 9.42604 40.4362 8.82575 39.2045 8.51718C38.9008 9.087 38.5201 9.61226 38.0731 10.0782C40.3074 10.275 42.2468 11.9878 43.0392 13.9938L49.5894 30.5762C49.6319 30.6922 49.6511 30.8155 49.646 30.9389C49.6408 31.0624 49.6113 31.1836 49.5592 31.2957C49.5071 31.4077 49.4334 31.5084 49.3423 31.5919C49.2513 31.6754 49.1446 31.7401 49.0285 31.7824L39.4779 35.3716C39.2355 35.4661 38.9657 35.4622 38.7261 35.3606C38.4866 35.259 38.2962 35.0678 38.1956 34.8278L36.3258 30.0954L34.7184 30.7932L36.5659 35.4709C36.7043 35.8159 36.9136 36.128 37.1802 36.387L38.4069 53.431C38.4402 54.0905 38.7128 54.7152 39.1738 55.188C39.6347 55.6607 40.2523 55.9492 40.9107 55.9991C40.926 55.9996 42.4831 55.9847 42.5706 55.9755C42.1901 55.4628 41.9255 54.8736 41.7949 54.2487L40.9803 54.25C40.7553 54.2202 40.5484 54.1109 40.3971 53.9417C40.2458 53.7725 40.1601 53.5547 40.1556 53.3278L40.1543 53.312L38.9932 37.1771C39.3687 37.2285 39.751 37.1705 40.0944 37.01L42.2626 36.195L43.1975 53.3908C43.2252 54.0561 43.4949 54.6883 43.9561 55.1686C44.4173 55.6489 45.0381 55.9441 45.7018 55.9987C45.7171 55.9996 47.0633 56 47.0987 56C47.7456 55.9999 48.3691 55.7577 48.8465 55.321C49.1093 55.0839 49.3226 54.7972 49.4742 54.4774C49.6257 54.1575 49.7124 53.8108 49.7294 53.4573L51.3652 31.3488C51.4055 30.8722 51.3558 30.3918 51.2186 29.9335ZM47.9811 53.351C47.9732 53.5915 47.8721 53.8196 47.6992 53.9871C47.5264 54.1546 47.2952 54.2484 47.0545 54.2487C47.0401 54.2478 45.7718 54.2496 45.7718 54.2496C45.5454 54.21 45.3397 54.0934 45.1894 53.9196C45.039 53.7459 44.9533 53.5255 44.9466 53.2958L43.982 35.5483L49.4498 33.4934L47.9811 53.351ZM33.0126 10.4999C34.0507 10.499 35.0653 10.1903 35.928 9.6128C36.7907 9.03535 37.4629 8.21509 37.8595 7.2557C38.2561 6.29631 38.3594 5.24087 38.1563 4.2228C37.9532 3.20472 37.4528 2.26972 36.7184 1.53598C35.984 0.802241 35.0485 0.302708 34.0302 0.100527C33.012 -0.101654 31.9566 0.0025936 30.9976 0.400092C30.0386 0.79759 29.2189 1.47049 28.6423 2.33374C28.0656 3.19699 27.7578 4.21182 27.7578 5.24996C27.7601 6.64246 28.3147 7.97719 29.2998 8.96138C30.2848 9.94558 31.6201 10.4989 33.0126 10.4999ZM33.0126 1.74999C33.7047 1.75059 34.3811 1.95638 34.9562 2.34133C35.5314 2.72628 35.9795 3.27311 36.244 3.9127C36.5084 4.55229 36.5773 5.25592 36.4419 5.93464C36.3065 6.61337 35.9729 7.23672 35.4833 7.72589C34.9937 8.21507 34.3701 8.5481 33.6912 8.6829C33.0124 8.8177 32.3088 8.74821 31.6694 8.48322C31.0301 8.21822 30.4836 7.76962 30.0992 7.19412C29.7147 6.61862 29.5096 5.94206 29.5096 5.24996C29.5111 4.32164 29.8807 3.43182 30.5374 2.77569C31.1941 2.11955 32.0843 1.75068 33.0126 1.74999Z" fill="#21409C"/>
</svg>
