<svg width="56" height="56" viewBox="0 0 56 56" fill="none" xmlns="http://www.w3.org/2000/svg">
<g clip-path="url(#clip0_4064_2012)">
<path d="M54.9674 34.3224C54.1934 33.4435 52.6228 33.0122 50.8592 34.0304C48.6218 35.3221 43.047 38.0394 38.8942 39.6105C39.078 38.8279 38.9557 38.0019 38.5239 37.2753C37.9218 36.2621 36.867 35.681 35.6895 35.7206C30.5557 35.7182 27.0907 34.2806 24.3058 33.1253C21.6516 32.0243 19.359 31.0735 16.6535 31.7283C13.913 32.3915 10.9926 34.6694 7.21923 39.0937C6.86289 38.9173 6.4705 38.8258 6.07287 38.8266C5.38305 38.8266 4.73576 39.0939 4.25058 39.5792L0.661765 43.168C0.590665 43.2391 0.534265 43.3235 0.495785 43.4164C0.457305 43.5093 0.4375 43.6088 0.4375 43.7094C0.4375 43.8099 0.457305 43.9095 0.495785 44.0023C0.534265 44.0952 0.590665 44.1796 0.661765 44.2507L11.7559 55.3448C11.8995 55.4884 12.0942 55.569 12.2972 55.569C12.5002 55.569 12.6949 55.4884 12.8385 55.3448L16.4273 51.7559C16.9127 51.2706 17.18 50.6234 17.18 49.9336C17.18 49.5994 17.1167 49.2753 16.9967 48.9746C19.303 47.9988 21.8712 47.914 25.1567 48.1104C25.8907 48.1543 26.6609 48.2164 27.4762 48.2821C29.4095 48.4378 31.4083 48.5987 33.3393 48.556C37.3912 48.4666 39.8311 47.3279 43.0911 45.6011C46.416 43.8398 53.506 39.6353 54.8281 37.8973C55.7537 36.6805 55.8084 35.2773 54.9673 34.3223L54.9674 34.3224ZM15.3446 50.6732L12.2971 53.7207L2.28576 43.7094L5.33317 40.6619C5.52939 40.4658 5.792 40.3577 6.07287 40.3577C6.35375 40.3577 6.61625 40.4657 6.81247 40.6619L15.3447 49.194C15.5408 49.3901 15.6488 49.6527 15.6488 49.9336C15.6488 50.2145 15.5408 50.4771 15.3447 50.6732H15.3446ZM53.6094 36.9704C52.6733 38.2009 46.6978 41.9579 42.3744 44.2481C39.308 45.8724 37.0202 46.9433 33.3055 47.0253C31.4538 47.0666 29.494 46.9085 27.5992 46.7558C26.7757 46.6896 25.9978 46.6269 25.2482 46.582C22.3489 46.4086 19.0328 46.3477 16.0409 47.725L8.39294 40.0771C15.8849 31.2912 18.6865 32.4521 23.7191 34.5397C26.6319 35.748 30.257 37.2518 35.703 37.2518C35.7126 37.2518 35.7224 37.2516 35.732 37.2513C36.3445 37.2274 36.8939 37.5296 37.2076 38.0576C37.5214 38.5855 37.5223 39.2141 37.2103 39.7391C36.648 40.6853 34.6253 41.1769 31.8038 41.0534C29.1653 40.9383 26.5081 40.3071 25.4633 39.7634C25.374 39.7161 25.2763 39.6869 25.1757 39.6776C25.0751 39.6682 24.9737 39.6789 24.8772 39.7089C24.7807 39.7389 24.6912 39.7878 24.6137 39.8526C24.5362 39.9174 24.4723 39.9969 24.4257 40.0865C24.379 40.1761 24.3506 40.2741 24.342 40.3747C24.3334 40.4754 24.3448 40.5768 24.3756 40.673C24.4063 40.7692 24.4558 40.8584 24.5212 40.9354C24.5866 41.0124 24.6666 41.0758 24.7565 41.1217C26.1624 41.8533 29.0982 42.468 31.7371 42.5832C32.0322 42.5961 32.3373 42.6035 32.648 42.6035C34.0544 42.6035 35.5714 42.4492 36.7644 41.9448C40.9469 40.7657 48.7492 37.0167 51.6248 35.3566C52.6328 34.7747 53.4685 34.9373 53.8183 35.3346C54.1663 35.7295 54.0882 36.3412 53.6094 36.9705V36.9704ZM18.0857 11.8674L20.0852 13.1368C19.7162 14.549 19.5299 16.0027 19.5308 17.4624C19.5308 26.8535 27.1711 34.4937 36.5621 34.4937C45.9532 34.4937 53.5935 26.8534 53.5935 17.4624C53.5935 8.07132 45.9532 0.431152 36.5621 0.431152C31.3536 0.431152 26.5175 2.75854 23.2636 6.82292L18.2732 9.11115C17.7412 9.35506 17.3997 9.84943 17.3599 10.4337C17.3203 11.0178 17.5917 11.5538 18.0857 11.8674ZM18.8876 10.5375C18.8892 10.5145 18.8904 10.5126 18.9114 10.5031L27.0249 6.78267C27.0386 6.77643 27.045 6.77611 27.0447 6.77611C27.0447 6.77611 27.051 6.7772 27.0638 6.7854C27.0699 6.78881 27.0754 6.7932 27.08 6.79842C27.08 6.79864 27.0825 6.80454 27.0826 6.81942L27.1672 15.7451C27.1675 15.7677 27.1663 15.7698 27.1464 15.7808C27.1265 15.7919 27.1235 15.7918 27.1046 15.7795L24.9041 14.3825C24.7991 14.3159 24.6796 14.2759 24.5558 14.2658C24.4319 14.2558 24.3075 14.276 24.1932 14.3248C24.0789 14.3736 23.9782 14.4495 23.8998 14.5458C23.8214 14.6422 23.7676 14.7562 23.7431 14.8781C23.5728 15.729 23.4871 16.5946 23.4872 17.4624C23.4872 24.6719 29.3526 30.5373 36.5621 30.5373C43.7717 30.5373 49.637 24.6719 49.637 17.4624C49.637 10.2528 43.7717 4.38746 36.5621 4.38746C33.6522 4.38746 30.8865 5.33235 28.6165 7.07678L28.6139 6.80465C28.6085 6.26182 28.3427 5.78364 27.8844 5.4927C27.6156 5.32196 27.3183 5.24048 27.016 5.24453C29.7111 3.12965 33.0433 1.96229 36.5622 1.96229C45.109 1.96229 52.0623 8.91559 52.0623 17.4624C52.0623 26.0092 45.109 32.9624 36.5622 32.9624C28.0155 32.9624 21.0622 26.0092 21.0622 17.4624C21.0622 15.9476 21.2799 14.4513 21.7096 13.0147C21.7573 12.8549 21.7516 12.6839 21.6933 12.5276C21.635 12.3713 21.5273 12.2384 21.3865 12.1489L18.9065 10.5745C18.8872 10.5622 18.8862 10.5602 18.8877 10.5374L18.8876 10.5375ZM28.6353 9.07134C30.7866 7.03565 33.5889 5.91871 36.5621 5.91871C42.9273 5.91871 48.1058 11.0972 48.1058 17.4624C48.1058 23.8276 42.9273 29.006 36.5621 29.006C30.197 29.006 25.0185 23.8276 25.0185 17.4624C25.0185 17.0757 25.0377 16.6891 25.0759 16.3053L26.2838 17.0722C26.7781 17.3861 27.3787 17.4037 27.8903 17.1192C28.4021 16.8347 28.7042 16.3154 28.6985 15.7303L28.6354 9.07145L28.6353 9.07134ZM32.7389 22.7797C33.1201 23.4399 33.7465 23.8584 34.5024 23.9579C34.6136 23.9726 34.7237 23.9798 34.8326 23.9798C35.4641 23.9798 36.0507 23.736 36.5105 23.2762L44.9101 14.8767C45.8086 13.9783 45.8086 12.5164 44.9101 11.618C44.0116 10.7195 42.5497 10.7197 41.6514 11.618L35.2893 17.98L33.817 15.4299C33.5104 14.8988 33.0132 14.5183 32.4172 14.3586C31.8208 14.1989 31.2001 14.2798 30.6693 14.5865C30.1378 14.8934 29.757 15.3905 29.5975 15.986C29.4378 16.5818 29.5189 17.2026 29.8258 17.7341L32.7389 22.7797ZM31.0764 16.3824C31.1021 16.2843 31.147 16.1922 31.2086 16.1115C31.2701 16.0309 31.347 15.9632 31.4349 15.9125C31.5506 15.8455 31.682 15.8103 31.8158 15.8104C31.884 15.8104 31.9527 15.8195 32.0208 15.8376C32.2218 15.8915 32.3886 16.0185 32.4908 16.1954L34.4619 19.6096C34.5206 19.7113 34.602 19.7981 34.6996 19.8634C34.7972 19.9286 34.9086 19.9705 35.025 19.9858C35.1414 20.0012 35.2598 19.9895 35.371 19.9518C35.4822 19.914 35.5832 19.8512 35.6662 19.7682L42.7337 12.7007C43.0352 12.3992 43.5257 12.3994 43.8272 12.7007C44.1285 13.0022 44.1285 13.4926 43.8272 13.794L35.4276 22.1935C35.2244 22.3968 34.9869 22.4775 34.702 22.4398C34.417 22.4023 34.2084 22.263 34.0648 22.014L31.1516 16.9683C31.1009 16.8805 31.0681 16.7835 31.0552 16.6829C31.0422 16.5823 31.0494 16.4801 31.0762 16.3823L31.0764 16.3824Z" fill="#21409C"/>
</g>
<defs>
<clipPath id="clip0_4064_2012">
<rect width="56" height="56" fill="white"/>
</clipPath>
</defs>
</svg>
