<svg width="57" height="56" viewBox="0 0 57 56" fill="none" xmlns="http://www.w3.org/2000/svg">
<path d="M28.4996 1.75C14.0253 1.75 2.24956 13.5258 2.24956 28C2.24126 33.1293 3.74405 38.1474 6.57031 42.4279L2.31168 53.0495C2.24804 53.2085 2.23245 53.3827 2.26687 53.5505C2.30129 53.7183 2.38419 53.8723 2.50531 53.9934C2.62642 54.1145 2.78041 54.1974 2.94819 54.2318C3.11598 54.2662 3.29017 54.2506 3.44918 54.187L14.0708 49.9284C18.3512 52.7547 23.3694 54.2575 28.4987 54.2491C42.9729 54.2491 54.7487 42.4734 54.7487 27.9991C54.7487 13.5249 42.9738 1.75 28.4996 1.75ZM28.4996 52.5C23.5629 52.5083 18.7402 51.0168 14.6702 48.223C14.5515 48.1417 14.4145 48.091 14.2715 48.0753C14.1285 48.0596 13.9838 48.0793 13.8503 48.1329L4.69868 51.8017L8.36756 42.6501C8.42112 42.5164 8.44085 42.3715 8.42497 42.2283C8.4091 42.0852 8.35812 41.9481 8.27656 41.8294C5.48258 37.7594 3.99105 32.9367 3.99956 28C3.99956 14.4909 14.9904 3.5 28.4996 3.5C42.0087 3.5 52.9996 14.4909 52.9996 28C52.9996 41.5091 42.0087 52.5 28.4996 52.5Z" fill="#21409C"/>
<path d="M45.1626 38.9794C44.8654 39.4306 44.5501 39.8696 44.2176 40.2954C44.075 40.4784 44.0109 40.7106 44.0395 40.9408C44.068 41.171 44.1869 41.3805 44.3699 41.5231C44.5528 41.6657 44.785 41.7297 45.0152 41.7012C45.2454 41.6726 45.4549 41.5538 45.5975 41.3708C45.9571 40.9097 46.3027 40.4284 46.623 39.9419C46.6885 39.846 46.7342 39.738 46.7575 39.6243C46.7808 39.5105 46.7813 39.3933 46.7588 39.2793C46.7364 39.1654 46.6914 39.0571 46.6267 38.9607C46.5619 38.8643 46.4786 38.7817 46.3817 38.7178C46.2847 38.654 46.1759 38.61 46.0618 38.5886C45.9477 38.5672 45.8304 38.5687 45.7169 38.593C45.6033 38.6174 45.4958 38.6641 45.4005 38.7304C45.3051 38.7968 45.2249 38.8814 45.1626 38.9794ZM40.0894 44.2513C33.4254 49.0026 24.3551 49.1671 17.5205 44.6634C17.4246 44.598 17.3166 44.5522 17.2028 44.5289C17.0891 44.5056 16.9718 44.5051 16.8579 44.5276C16.7439 44.5501 16.6356 44.595 16.5392 44.6597C16.4428 44.7245 16.3603 44.8078 16.2964 44.9048C16.2325 45.0017 16.1886 45.1105 16.1671 45.2246C16.1457 45.3387 16.1472 45.456 16.1716 45.5695C16.1959 45.6831 16.2426 45.7906 16.309 45.886C16.3753 45.9813 16.46 46.0624 16.558 46.1247C20.1595 48.4977 24.3306 49.6789 28.4991 49.6789C32.9354 49.6789 37.369 48.3402 41.1061 45.6767C41.2951 45.542 41.4229 45.3377 41.4613 45.1088C41.4997 44.8799 41.4456 44.6451 41.3109 44.4561C41.1761 44.267 40.9719 44.1393 40.7429 44.1009C40.514 44.0625 40.2793 44.1166 40.0902 44.2513H40.0894ZM21.164 33.5466C21.262 33.6979 21.4045 33.8153 21.5718 33.8827C21.7391 33.95 21.9231 33.964 22.0987 33.9227C22.2743 33.8814 22.4328 33.7869 22.5526 33.652C22.6724 33.5172 22.7476 33.3486 22.7679 33.1694L23.9106 23.0264C23.9263 22.9109 23.9187 22.7934 23.8883 22.6808C23.8579 22.5683 23.8053 22.4629 23.7336 22.371C23.6619 22.279 23.5726 22.2023 23.4708 22.1454C23.3691 22.0884 23.257 22.0524 23.1411 22.0394C23.0253 22.0264 22.908 22.0367 22.7961 22.0696C22.6843 22.1026 22.5802 22.1576 22.4899 22.2314C22.3996 22.3052 22.325 22.3962 22.2704 22.4992C22.2158 22.6023 22.1823 22.7152 22.172 22.8313L21.3031 30.5409L18.5451 26.2779C18.2231 25.7801 17.398 25.7801 17.076 26.2779L14.318 30.5409L13.4491 22.8313C13.4184 22.6048 13.3003 22.3993 13.12 22.2587C12.9397 22.1182 12.7116 22.0538 12.4844 22.0793C12.2573 22.1048 12.0491 22.2181 11.9045 22.3951C11.7598 22.5722 11.6902 22.7987 11.7105 23.0264L12.8532 33.1694C12.8739 33.3484 12.9492 33.5167 13.0689 33.6513C13.1887 33.7859 13.3471 33.8803 13.5224 33.9217C13.6978 33.963 13.8816 33.9492 14.0489 33.8823C14.2162 33.8153 14.3587 33.6984 14.4571 33.5474L17.811 28.3648L21.1649 33.5474L21.164 33.5466ZM45.2877 23.0264C45.3005 22.9123 45.2907 22.7967 45.2589 22.6863C45.227 22.576 45.1738 22.4729 45.1021 22.3832C45.0304 22.2934 44.9418 22.2186 44.8412 22.1631C44.7407 22.1075 44.6301 22.0724 44.516 22.0596C44.4018 22.0467 44.2863 22.0565 44.1759 22.0884C44.0655 22.1202 43.9625 22.1735 43.8727 22.2452C43.7829 22.3168 43.7081 22.4055 43.6526 22.5061C43.5971 22.6066 43.5619 22.7171 43.5491 22.8313L42.6802 30.5409L39.9222 26.2779C39.6002 25.7801 38.7751 25.7801 38.4531 26.2779L35.6951 30.5409L34.8262 22.8313C34.8134 22.7171 34.7783 22.6066 34.7227 22.5061C34.6672 22.4055 34.5924 22.3168 34.5026 22.2452C34.4128 22.1735 34.3098 22.1202 34.1995 22.0884C34.0891 22.0565 33.9735 22.0467 33.8594 22.0596C33.7452 22.0724 33.6347 22.1075 33.5341 22.1631C33.4335 22.2186 33.3449 22.2934 33.2732 22.3832C33.2016 22.4729 33.1483 22.576 33.1164 22.6863C33.0846 22.7967 33.0748 22.9123 33.0876 23.0264L34.2304 33.1694C34.2511 33.3484 34.3266 33.5165 34.4464 33.651C34.5662 33.7855 34.7246 33.8798 34.8999 33.921C35.0753 33.9623 35.259 33.9484 35.4262 33.8814C35.5934 33.8144 35.7359 33.6975 35.8342 33.5466L39.1881 28.3639L42.542 33.5466C42.6401 33.698 42.7826 33.8154 42.95 33.8826C43.1174 33.9499 43.3015 33.9638 43.4771 33.9225C43.6527 33.8811 43.8112 33.7864 43.9309 33.6515C44.0506 33.5165 44.1257 33.3478 44.1459 33.1686L45.2886 23.0256L45.2877 23.0264ZM28.6452 33.9464C29.6961 33.9453 30.7037 33.5273 31.4468 32.7842C32.1898 32.0411 32.6078 31.0336 32.609 29.9827V26.0172C32.609 23.8314 30.831 22.0534 28.6452 22.0534C26.4595 22.0534 24.6815 23.8314 24.6815 26.0172V29.9827C24.6826 31.0336 25.1006 32.0411 25.8437 32.7842C26.5868 33.5273 27.5943 33.9453 28.6452 33.9464ZM26.4315 26.0172C26.4315 24.7966 27.4246 23.8034 28.6452 23.8034C29.8659 23.8034 30.859 24.7966 30.859 26.0172V29.9827C30.859 31.2033 29.8659 32.1964 28.6452 32.1964C27.4246 32.1964 26.4315 31.2033 26.4315 29.9827V26.0172Z" fill="#21409C"/>
</svg>
