<svg width="80" height="80" viewBox="0 0 80 80" fill="none" xmlns="http://www.w3.org/2000/svg">
<path d="M22.7374 31.4589C22.7374 31.146 22.6131 30.846 22.3919 30.6248C22.1707 30.4036 21.8706 30.2793 21.5578 30.2793H13.0741C12.7613 30.2793 12.4612 30.4036 12.24 30.6248C12.0188 30.846 11.8945 31.146 11.8945 31.4589V39.9424C11.8945 40.2553 12.0188 40.5553 12.24 40.7765C12.4612 40.9977 12.7613 41.122 13.0741 41.122H21.5578C21.8706 41.122 22.1707 40.9977 22.3919 40.7765C22.6131 40.5553 22.7374 40.2553 22.7374 39.9424V31.4589ZM20.3782 38.7628H14.2537V32.6385H20.3782V38.7628ZM37.8606 31.4589C37.8606 31.304 37.8301 31.1506 37.7708 31.0075C37.7116 30.8644 37.6247 30.7343 37.5151 30.6248C37.4056 30.5153 37.2756 30.4284 37.1324 30.3691C36.9893 30.3098 36.8359 30.2793 36.681 30.2793H28.1974C27.8845 30.2793 27.5845 30.4036 27.3633 30.6248C27.142 30.846 27.0178 31.146 27.0178 31.4589V39.9424C27.0178 40.2553 27.142 40.5553 27.3633 40.7765C27.5845 40.9977 27.8845 41.122 28.1974 41.122H36.681C36.8359 41.122 36.9893 41.0915 37.1324 41.0322C37.2756 40.9729 37.4056 40.886 37.5151 40.7765C37.6247 40.667 37.7116 40.5369 37.7708 40.3938C37.8301 40.2507 37.8606 40.0973 37.8606 39.9424V31.4589ZM35.5014 38.7628H29.377V32.6385H35.5014V38.7628ZM52.9837 31.4589C52.9837 31.146 52.8594 30.846 52.6382 30.6248C52.417 30.4036 52.1169 30.2793 51.8041 30.2793H43.3204C43.1655 30.2793 43.0121 30.3098 42.869 30.369C42.7259 30.4283 42.5958 30.5152 42.4863 30.6247C42.3767 30.7343 42.2899 30.8643 42.2306 31.0075C42.1713 31.1506 42.1408 31.304 42.1408 31.4589V39.9424C42.1408 40.594 42.6688 41.122 43.3204 41.122H51.8041C52.1169 41.122 52.417 40.9977 52.6382 40.7765C52.8594 40.5553 52.9837 40.2553 52.9837 39.9424V31.4589ZM50.6245 38.7628H44.5V32.6385H50.6245V38.7628ZM58.4437 41.122H66.9273C67.5789 41.122 68.1069 40.594 68.1069 39.9424V31.4589C68.1069 30.8073 67.5789 30.2793 66.9273 30.2793H58.4437C58.2887 30.2793 58.1353 30.3098 57.9922 30.369C57.8491 30.4283 57.7191 30.5152 57.6095 30.6247C57.5 30.7343 57.4131 30.8643 57.3538 31.0075C57.2945 31.1506 57.264 31.304 57.2641 31.4589V39.9424C57.2641 40.594 57.792 41.122 58.4437 41.122ZM59.6233 32.6385H65.7477V38.7628H59.6233V32.6385ZM22.7374 46.8119C22.7374 46.4991 22.6131 46.199 22.3919 45.9778C22.1707 45.7566 21.8706 45.6323 21.5578 45.6323H13.0741C12.7613 45.6323 12.4612 45.7566 12.24 45.9778C12.0188 46.199 11.8945 46.4991 11.8945 46.8119V55.2954C11.8945 55.6083 12.0188 55.9083 12.24 56.1295C12.4612 56.3507 12.7613 56.475 13.0741 56.475H21.5578C21.8706 56.475 22.1707 56.3507 22.3919 56.1295C22.6131 55.9083 22.7374 55.6083 22.7374 55.2954V46.8119ZM20.3782 54.1158H14.2537V47.9915H20.3782V54.1158ZM37.8606 46.8119C37.8606 46.657 37.8301 46.5036 37.7708 46.3605C37.7116 46.2174 37.6247 46.0873 37.5151 45.9778C37.4056 45.8683 37.2756 45.7814 37.1324 45.7221C36.9893 45.6628 36.8359 45.6323 36.681 45.6323H28.1974C27.8845 45.6323 27.5845 45.7566 27.3633 45.9778C27.142 46.199 27.0178 46.4991 27.0178 46.8119V55.2954C27.0178 55.6083 27.142 55.9083 27.3633 56.1295C27.5845 56.3507 27.8845 56.475 28.1974 56.475H36.681C36.8359 56.475 36.9893 56.4445 37.1324 56.3852C37.2756 56.3259 37.4056 56.239 37.5151 56.1295C37.6247 56.02 37.7116 55.8899 37.7708 55.7468C37.8301 55.6037 37.8606 55.4503 37.8606 55.2954V46.8119ZM35.5014 54.1158H29.377V47.9915H35.5014V54.1158ZM52.9837 46.8119C52.9837 46.4991 52.8594 46.199 52.6382 45.9778C52.417 45.7566 52.1169 45.6323 51.8041 45.6323H43.3204C43.1655 45.6323 43.0121 45.6628 42.869 45.7221C42.7259 45.7813 42.5958 45.8682 42.4863 45.9778C42.3767 46.0873 42.2899 46.2173 42.2306 46.3605C42.1713 46.5036 42.1408 46.657 42.1408 46.8119V55.2954C42.1408 55.947 42.6688 56.475 43.3204 56.475H51.8041C52.1169 56.475 52.417 56.3507 52.6382 56.1295C52.8594 55.9083 52.9837 55.6083 52.9837 55.2954V46.8119ZM50.6245 54.1158H44.5V47.9915H50.6245V54.1158ZM57.2641 55.2954C57.2641 55.947 57.792 56.475 58.4437 56.475H66.9273C67.5789 56.475 68.1069 55.947 68.1069 55.2954V46.8119C68.1069 46.1603 67.5789 45.6323 66.9273 45.6323H58.4437C58.2887 45.6323 58.1353 45.6628 57.9922 45.7221C57.8491 45.7813 57.7191 45.8682 57.6095 45.9778C57.5 46.0873 57.4131 46.2173 57.3538 46.3605C57.2945 46.5036 57.264 46.657 57.2641 46.8119V55.2954ZM59.6233 47.9915H65.7477V54.1158H59.6233V47.9915ZM21.5578 60.9853H13.0741C12.7613 60.9853 12.4612 61.1096 12.24 61.3308C12.0188 61.552 11.8945 61.8521 11.8945 62.1649V70.6484C11.8945 70.9613 12.0188 71.2613 12.24 71.4825C12.4612 71.7037 12.7613 71.828 13.0741 71.828H21.5578C21.8706 71.828 22.1707 71.7037 22.3919 71.4825C22.6131 71.2613 22.7374 70.9613 22.7374 70.6484V62.1649C22.7374 61.8521 22.6131 61.552 22.3919 61.3308C22.1707 61.1096 21.8706 60.9853 21.5578 60.9853ZM20.3782 69.4688H14.2537V63.3445H20.3782V69.4688ZM36.681 60.9853H28.1974C27.8845 60.9853 27.5845 61.1096 27.3633 61.3308C27.142 61.552 27.0178 61.8521 27.0178 62.1649V70.6484C27.0178 70.9613 27.142 71.2613 27.3633 71.4825C27.5845 71.7037 27.8845 71.828 28.1974 71.828H36.681C36.8359 71.828 36.9893 71.7975 37.1324 71.7382C37.2756 71.679 37.4056 71.5921 37.5151 71.4825C37.6247 71.373 37.7116 71.243 37.7708 71.0998C37.8301 70.9567 37.8606 70.8033 37.8606 70.6484V62.1649C37.8606 62.01 37.8301 61.8566 37.7708 61.7135C37.7116 61.5704 37.6247 61.4404 37.5151 61.3308C37.4056 61.2213 37.2756 61.1344 37.1324 61.0751C36.9893 61.0158 36.8359 60.9853 36.681 60.9853ZM35.5014 69.4688H29.377V63.3445H35.5014V69.4688ZM51.8041 60.9853H43.3204C43.1655 60.9853 43.0121 61.0158 42.869 61.0751C42.7259 61.1343 42.5958 61.2212 42.4863 61.3308C42.3767 61.4403 42.2899 61.5704 42.2306 61.7135C42.1713 61.8566 42.1408 62.01 42.1408 62.1649V70.6484C42.1408 71.3 42.6688 71.828 43.3204 71.828H51.8041C52.1169 71.828 52.417 71.7037 52.6382 71.4825C52.8594 71.2613 52.9837 70.9613 52.9837 70.6484V62.1649C52.9837 61.5133 52.4557 60.9853 51.8041 60.9853ZM50.6245 69.4688H44.5V63.3445H50.6245V69.4688ZM57.2641 70.6484C57.2641 71.3 57.792 71.828 58.4437 71.828H66.9273C67.5789 71.828 68.1069 71.3 68.1069 70.6484V62.1649C68.1069 61.5133 67.5789 60.9853 66.9273 60.9853H58.4437C58.2887 60.9853 58.1353 61.0158 57.9922 61.0751C57.8491 61.1343 57.7191 61.2212 57.6095 61.3308C57.5 61.4403 57.4131 61.5704 57.3538 61.7135C57.2945 61.8566 57.264 62.01 57.2641 62.1649V70.6484ZM59.6233 63.3445H65.7477V69.4688H59.6233V63.3445Z" fill="#F9F9F9"/>
<path d="M73.1281 8.75576H71.6731V4.24293C71.6731 1.9034 69.7697 0 67.4301 0C65.0906 0 63.1872 1.9034 63.1872 4.24293V8.75576H57.9575V4.24293C57.9577 1.9034 56.0543 0 53.7147 0C51.3752 0 49.4718 1.9034 49.4718 4.24293V8.75576H44.2422V4.24293C44.2424 1.9034 42.339 0 39.9995 0C37.6599 0 35.7565 1.9034 35.7565 4.24293V8.75576H30.5268V4.24293C30.527 1.9034 28.6236 0 26.284 0C23.9445 0 22.0411 1.9034 22.0411 4.24293V8.75576H16.8114V4.24293C16.8116 1.9034 14.9083 0 12.5688 0C10.2292 0 8.32584 1.9034 8.32584 4.24293V8.75576H6.87085C4.19379 8.75576 2.01562 10.9339 2.01562 13.611V75.1448C2.01562 77.822 4.19363 80 6.87085 80H52.0597C52.3725 80 52.6726 79.8757 52.8938 79.6545C53.115 79.4333 53.2393 79.1332 53.2393 78.8204C53.2393 78.1688 52.7113 77.6408 52.0597 77.6408H6.87085C5.49465 77.6408 4.37482 76.5211 4.37482 75.1448V24.6855H19.4331C20.0845 24.6855 20.6127 24.1575 20.6127 23.5059C20.6127 22.8543 20.0845 22.3263 19.4331 22.3263H4.37482V13.611C4.37482 12.2346 5.49449 11.115 6.87085 11.115H8.32584V12.8545C8.32584 15.194 10.2292 17.0974 12.5688 17.0974C14.9083 17.0974 16.8117 15.194 16.8117 12.8545V11.115H22.0414V12.8545C22.0414 15.194 23.9448 17.0974 26.2844 17.0974C28.6239 17.0974 30.5273 15.194 30.5273 12.8545V11.115H35.757V12.8545C35.757 15.194 37.6604 17.0974 39.9999 17.0974C42.3395 17.0974 44.2429 15.194 44.2429 12.8545V11.115H49.4724V12.8545C49.4724 15.194 51.3758 17.0974 53.7154 17.0974C56.0549 17.0974 57.9583 15.194 57.9583 12.8545V11.115H63.188V12.8545C63.188 15.194 65.0914 17.0974 67.4309 17.0974C69.7705 17.0974 71.6739 15.194 71.6739 12.8545V11.115H73.1289C74.5052 11.115 75.6249 12.2346 75.6249 13.611V22.3263H24.1516C23.5002 22.3263 22.972 22.8543 22.972 23.5059C22.972 24.1575 23.5002 24.6855 24.1516 24.6855H75.6243V75.1448C75.6243 76.5211 74.5046 77.6408 73.1282 77.6408H56.7781C56.6231 77.6408 56.4697 77.6713 56.3266 77.7306C56.1835 77.7898 56.0535 77.8767 55.9439 77.9863C55.8344 78.0958 55.7475 78.2258 55.6882 78.369C55.6289 78.5121 55.5984 78.6655 55.5985 78.8204C55.5985 79.1332 55.7227 79.4333 55.944 79.6545C56.1652 79.8757 56.4652 80 56.7781 80H73.1281C75.8051 80 77.9833 77.8218 77.9833 75.1448V13.611C77.9833 10.9339 75.8051 8.75576 73.1281 8.75576ZM14.4524 12.8545C14.4524 13.8931 13.6075 14.7382 12.5686 14.7382C11.5299 14.7382 10.6849 13.8931 10.6849 12.8545V4.24293C10.685 3.20426 11.5301 2.3592 12.5688 2.3592C13.6075 2.3592 14.4525 3.20426 14.4525 4.24293L14.4524 12.8545ZM28.1678 12.8545C28.1678 13.8931 27.3227 14.7382 26.284 14.7382C25.2454 14.7382 24.4003 13.8931 24.4003 12.8545V4.24293C24.4003 3.20426 25.2454 2.3592 26.284 2.3592C27.3227 2.3592 28.1678 3.20426 28.1678 4.24293V12.8545ZM41.8832 12.8545C41.8832 13.8931 41.0381 14.7382 39.9995 14.7382C38.9608 14.7382 38.1157 13.8931 38.1157 12.8545V4.24293C38.1157 3.20426 38.9608 2.3592 39.9995 2.3592C41.0381 2.3592 41.8832 3.20426 41.8832 4.24293V12.8545ZM55.5985 12.8545C55.5985 13.8931 54.7534 14.7382 53.7147 14.7382C52.6762 14.7382 51.831 13.8931 51.831 12.8545V4.24293C51.831 3.20426 52.676 2.3592 53.7147 2.3592C54.7534 2.3592 55.5985 3.20426 55.5985 4.24293V12.8545ZM69.3139 12.8545C69.3139 13.8931 68.4688 14.7382 67.4301 14.7382C66.3916 14.7382 65.5464 13.8931 65.5464 12.8545V4.24293C65.5464 3.20426 66.3915 2.3592 67.4301 2.3592C68.4688 2.3592 69.3139 3.20426 69.3139 4.24293V12.8545Z" fill="#F9F9F9"/>
</svg>
