<svg width="81" height="80" viewBox="0 0 81 80" fill="none" xmlns="http://www.w3.org/2000/svg">
<g clip-path="url(#clip0_3497_168)">
<path d="M3.81466 33.0044C3.0185 33.1335 2.28558 33.517 1.72556 34.0974C1.16553 34.6779 0.808539 35.4241 0.707991 36.2244C0.43338 38.714 0.430688 41.2261 0.699962 43.7163C0.791316 44.5287 1.14511 45.2891 1.70768 45.8822C2.27025 46.4753 3.0109 46.8688 3.81729 47.0029L8.05991 47.6975C8.87444 51.1669 10.2494 54.4801 12.1305 57.5068L9.63325 60.9948C8.63815 62.344 8.66224 64.1905 9.69196 65.5134C10.4868 66.4858 11.3324 67.4156 12.2253 68.2988C13.044 69.1188 13.9492 69.9428 15.0359 70.8561C15.6748 71.3474 16.4559 71.6181 17.2619 71.6275C18.0678 71.6368 18.855 71.3844 19.5052 70.9081L23.0104 68.3934C26.0341 70.2743 29.3441 71.6496 32.8103 72.4653L33.5064 76.7147C33.6352 77.5111 34.0186 78.2443 34.5991 78.8046C35.1796 79.3649 35.9259 79.7221 36.7264 79.8227C37.4938 79.9089 38.2641 79.968 39.0357 80H39.149C39.8439 79.9994 40.5121 79.7321 41.0156 79.2532C41.2746 79.0057 41.4807 78.7081 41.6212 78.3785C41.7616 78.0489 41.8337 77.6942 41.8329 77.336V66.6507C41.825 65.2229 40.698 64.0525 39.2715 63.9908C26.5099 63.3245 16.5041 52.7827 16.5041 40.0036C16.5041 27.2246 26.5099 16.6828 39.2715 16.0165C40.7002 15.9539 41.8279 14.78 41.8329 13.3499V2.67002C41.8339 2.31138 41.7619 1.95628 41.6211 1.62641C41.4803 1.29654 41.2738 0.998819 41.0142 0.751422C40.755 0.497176 40.446 0.299432 40.1066 0.170678C39.7671 0.0419247 39.4047 -0.0150397 39.0421 0.00338317C38.2662 0.0340524 37.4968 0.089994 36.7074 0.170024C35.9076 0.273097 35.1629 0.633417 34.5857 1.19666C34.0085 1.7599 33.6301 2.49552 33.5074 3.29262L32.8128 7.53787C29.3466 8.35419 26.0366 9.73001 23.0129 11.6112L19.5077 9.10187C18.8516 8.62211 18.057 8.36955 17.2443 8.38255C16.4317 8.39554 15.6455 8.67338 15.0051 9.17387C14.0384 9.96518 13.1132 10.8059 12.2332 11.6926C11.3261 12.5792 10.4722 13.5186 9.6759 14.5058C9.18067 15.1456 8.90666 15.9289 8.89512 16.7378C8.88358 17.5468 9.13514 18.3376 9.61193 18.9912L12.1252 22.5005C10.2457 25.5269 8.87256 28.8398 8.05991 32.3084L3.81466 33.0044ZM10.472 33.7483C11.2472 29.9825 12.7342 26.3993 14.8533 23.1911C15.0016 22.9658 15.0781 22.7008 15.0726 22.431C15.0672 22.1613 14.98 21.8996 14.8227 21.6804L11.7814 17.4339C11.6444 17.2531 11.5686 17.0333 11.565 16.8065C11.5614 16.5796 11.6302 16.3576 11.7614 16.1725C12.4923 15.2667 13.2763 14.4052 14.1094 13.5925C14.9186 12.775 15.7685 11.9989 16.656 11.2671C16.8418 11.1255 17.069 11.0488 17.3027 11.0488C17.5363 11.0488 17.7635 11.1255 17.9493 11.2671L22.1893 14.3098C22.4087 14.4668 22.6706 14.5535 22.9403 14.5585C23.21 14.5635 23.4749 14.4866 23.7 14.3379C26.9054 12.218 30.4866 10.7304 34.2506 9.95521C34.515 9.90072 34.7566 9.76728 34.9435 9.57254C35.1303 9.37779 35.2537 9.13092 35.2973 8.86454L36.1359 3.72989C36.1653 3.50554 36.2658 3.29653 36.4228 3.13357C36.5798 2.97061 36.7849 2.8623 37.0079 2.82455C37.7257 2.74995 38.4456 2.69837 39.1666 2.66989L39.1373 13.3511C24.9422 14.0761 13.8069 25.801 13.8148 40.0147C13.8226 54.2284 24.9707 65.9411 39.1666 66.6504L39.1479 77.3357C38.4378 77.3062 37.7289 77.2515 37.0227 77.1717C36.7986 77.1389 36.5912 77.0344 36.4316 76.8738C36.272 76.7132 36.1687 76.5052 36.1374 76.281L35.2973 71.1437C35.2537 70.8773 35.1303 70.6304 34.9435 70.4357C34.7566 70.2409 34.515 70.1075 34.2506 70.053C30.4865 69.2772 26.9054 67.7892 23.7 65.669C23.4748 65.5205 23.2098 65.4438 22.9401 65.4491C22.6704 65.4543 22.4086 65.5412 22.1893 65.6984L17.9454 68.7437C17.769 68.8808 17.5535 68.958 17.3302 68.964C17.1069 68.97 16.8875 68.9045 16.704 68.777C15.7241 67.9517 14.8747 67.1771 14.1094 66.413C13.2918 65.6052 12.5161 64.7561 11.7854 63.869C11.6453 63.682 11.5697 63.4546 11.5697 63.221C11.5697 62.9874 11.6453 62.76 11.7854 62.573L14.824 58.3304C14.9811 58.1111 15.0681 57.8493 15.0733 57.5796C15.0785 57.3099 15.0018 57.0449 14.8533 56.8197C12.7341 53.6121 11.247 50.0293 10.472 46.2638C10.4176 45.9997 10.2843 45.7582 10.0898 45.5714C9.89534 45.3845 9.64876 45.261 9.38264 45.2171L4.2493 44.3758C4.01677 44.3373 3.80321 44.2239 3.6412 44.0527C3.47919 43.8815 3.37762 43.6621 3.35199 43.4278C3.10226 41.1345 3.10496 38.8206 3.36002 36.5279C3.39233 36.3036 3.49645 36.0959 3.65678 35.9358C3.8171 35.7757 4.025 35.6719 4.2493 35.6399L9.38119 34.7999C9.6483 34.7562 9.89575 34.6321 10.0906 34.4442C10.2855 34.2564 10.4185 34.0136 10.472 33.7483Z" fill="white"/>
<path d="M76.4992 36.0028C75.6749 36.0063 74.8717 36.2643 74.1996 36.7416C73.5276 37.219 73.0193 37.8923 72.7445 38.6695H41.8329V34.6695H63.166C65.3751 34.6695 67.1659 32.8787 67.1659 30.6696V23.7577C69.0026 23.1084 70.1044 21.2302 69.7749 19.3101C69.4454 17.3901 67.7806 15.9865 65.8325 15.9865C63.8844 15.9865 62.2196 17.3901 61.8902 19.3101C61.5607 21.2302 62.6624 23.1084 64.4991 23.7577V30.6696C64.4991 31.4059 63.9022 32.0029 63.1658 32.0029H41.8329V28.0029H56.4994C57.2357 28.0029 57.8326 27.406 57.8326 26.6695C57.8326 25.9331 57.2357 25.3362 56.4994 25.3362H41.8329V22.6695H49.8328C52.0419 22.6695 53.8328 20.8787 53.8328 18.6695V10.4245C55.6696 9.77515 56.7713 7.89696 56.4418 5.97691C56.1124 4.05686 54.4475 2.65332 52.4995 2.65332C50.5514 2.65332 48.8865 4.05686 48.5571 5.97691C48.2276 7.89696 49.3293 9.77515 51.1661 10.4245V18.6697C51.1661 19.4061 50.5691 20.0031 49.8327 20.0031H41.4808C41.2562 19.5857 40.916 19.242 40.501 19.0131C40.0859 18.7842 39.6137 18.6798 39.1408 18.7125C27.905 19.4242 19.1562 28.7446 19.1562 40.003C19.1562 51.2614 27.905 60.5818 39.1408 61.2935H39.2968C39.7438 61.2972 40.1833 61.179 40.5681 60.9516C40.9529 60.7242 41.2685 60.3962 41.4808 60.0029H49.8327C50.569 60.0029 51.1661 60.5998 51.1661 61.3363V69.5815C49.3293 70.2308 48.2276 72.109 48.5571 74.0291C48.8865 75.9491 50.5514 77.3527 52.4995 77.3527C54.4475 77.3527 56.1124 75.9491 56.4418 74.0291C56.7713 72.109 55.6696 70.2308 53.8328 69.5815V61.3363C53.8328 59.1272 52.042 57.3362 49.8328 57.3362H41.8329V54.6696H56.4994C57.2357 54.6696 57.8326 54.0727 57.8326 53.3363C57.8326 52.6 57.2357 52.0029 56.4994 52.0029H41.8329V48.0031H63.166C63.9023 48.0031 64.4994 48.6 64.4994 49.3363V56.2482C62.6627 56.8975 61.561 58.7757 61.8904 60.6958C62.2199 62.6158 63.8847 64.0193 65.8328 64.0193C67.7809 64.0193 69.4457 62.6158 69.7752 60.6958C70.1046 58.7757 69.0029 56.8975 67.1662 56.2482V49.3363C67.1662 47.1272 65.3754 45.3364 63.1663 45.3364H41.8329V41.3361H72.7445C73.4258 43.2489 75.4341 44.3458 77.4118 43.8854C79.3894 43.4249 80.7067 41.5538 80.4732 39.5368C80.2395 37.52 78.5296 35.9993 76.4992 36.0028ZM65.8327 18.6697C66.569 18.6697 67.1659 19.2667 67.1659 20.0031C67.1659 20.7396 66.569 21.3365 65.8327 21.3365C65.0963 21.3365 64.4994 20.7396 64.4994 20.0031C64.4994 19.2667 65.0962 18.6697 65.8327 18.6697ZM52.4995 5.33655C53.2358 5.33655 53.8328 5.93348 53.8328 6.66993C53.8328 7.40639 53.2359 8.00319 52.4995 8.00319C51.763 8.00319 51.1662 7.40626 51.1662 6.66993C51.1662 5.93361 51.763 5.33655 52.4995 5.33655ZM52.4995 74.6692C51.7631 74.6692 51.1662 74.0723 51.1662 73.3358C51.1662 72.5994 51.7631 72.0024 52.4995 72.0024C53.2358 72.0024 53.8328 72.5994 53.8328 73.3358C53.8328 74.0723 53.2358 74.6692 52.4995 74.6692ZM65.8327 61.336C65.0963 61.336 64.4994 60.7391 64.4994 60.0026C64.4994 59.2662 65.0963 58.6694 65.8327 58.6694C66.569 58.6694 67.1659 59.2663 67.1659 60.0026C67.1659 60.7389 66.569 61.336 65.8327 61.336ZM21.833 40.0029C21.8442 30.2155 29.4046 22.0946 39.1663 21.3844V58.6214C29.4046 57.9112 21.8442 49.7902 21.833 40.0029ZM76.4992 41.3361C75.7629 41.3361 75.1658 40.7392 75.1658 40.0027C75.1658 39.2663 75.7628 38.6695 76.4992 38.6695C77.2357 38.6695 77.8326 39.2664 77.8326 40.0027C77.8326 40.7391 77.2355 41.3361 76.4992 41.3361Z" fill="white"/>
</g>
<defs>
<clipPath id="clip0_3497_168">
<rect width="80" height="80" fill="white" transform="translate(0.5)"/>
</clipPath>
</defs>
</svg>
