<svg width="81" height="81" viewBox="0 0 81 81" fill="none" xmlns="http://www.w3.org/2000/svg">
<g clip-path="url(#clip0_3463_7134)">
<path d="M58.3606 35.304L68.5881 37.6416M12.418 37.6416L22.6258 35.3084M28.9028 26.495L31.7846 26.0762C32.1055 26.0296 32.4102 25.9057 32.6725 25.7151C32.9347 25.5245 33.1468 25.273 33.2902 24.9822L38.7098 14.0014C39.4433 12.5152 41.5627 12.5152 42.2963 14.0014L47.7158 24.9824C47.8593 25.2731 48.0713 25.5246 48.3336 25.7152C48.5958 25.9057 48.9005 26.0297 49.2214 26.0764L61.3397 27.8373C62.9799 28.0757 63.6347 30.0912 62.4479 31.2482L53.6789 39.7958C53.3103 40.1551 53.0945 40.6428 53.0763 41.1573M27.9302 41.1724C27.9158 40.6525 27.6994 40.1587 27.327 39.7956L18.5581 31.248C17.3712 30.0912 18.0261 28.0755 19.6663 27.8371L23.5684 27.2701M20.5915 74.8169L13.6652 73.2337C13.3108 73.1527 12.9945 72.9539 12.7679 72.6696C12.5413 72.3854 12.4179 72.0327 12.418 71.6692V50.3325M68.5881 50.3824V71.6692C68.5881 72.4177 68.0707 73.0669 67.341 73.2337L40.8515 79.2885C40.6222 79.3409 40.3841 79.3409 40.1549 79.2885L25.9151 76.0337M40.5031 66.0718V79.1336M40.5031 44.0611V60.6003" stroke="white" stroke-width="2.34493" stroke-miterlimit="10" stroke-linecap="round" stroke-linejoin="round"/>
<path d="M61.9433 51.8183L78.9392 47.9931L68.5879 37.6416L40.5028 44.0611M40.5028 44.0611L12.4177 37.6416L2.06641 47.9931L30.2317 54.3322L40.5028 44.0611Z" stroke="white" stroke-width="2.34493" stroke-miterlimit="10" stroke-linecap="round" stroke-linejoin="round"/>
<path d="M40.5018 44.0612L50.7729 54.3324L56.6332 53.0134M40.5018 1.67285V6.48747M53.4838 11.8652L50.3892 15.5534M67.7107 17.1771L64.0226 20.2719M27.5198 11.8652L30.6145 15.5534M13.293 17.1771L16.9811 20.2719" stroke="white" stroke-width="2.34493" stroke-miterlimit="10" stroke-linecap="round" stroke-linejoin="round"/>
</g>
<defs>
<clipPath id="clip0_3463_7134">
<rect width="80" height="80" fill="white" transform="translate(0.5 0.5)"/>
</clipPath>
</defs>
</svg>
