<svg width="740" height="564" viewBox="0 0 740 564" fill="none" xmlns="http://www.w3.org/2000/svg">
<path fill-rule="evenodd" clip-rule="evenodd" d="M171.331 258.424C171.331 289.747 165.484 315.138 158.272 315.138C157.919 315.138 157.569 315.078 157.224 314.958C157.185 314.945 157.147 314.931 157.109 314.917C150.441 312.361 145.213 288.044 145.213 258.424C145.213 228.804 150.441 204.487 157.109 201.932C157.147 201.917 157.185 201.903 157.224 201.89C157.569 201.77 157.919 201.71 158.272 201.71C165.484 201.71 171.331 227.102 171.331 258.424ZM145.213 258.424C145.213 228.804 150.441 204.487 157.109 201.932L1.91797 258.424L157.109 314.917C150.441 312.361 145.213 288.044 145.213 258.424Z" fill="#E8F9FF"/>
<rect x="92" y="241" width="36" height="36" rx="18" fill="#1EABDA"/>
<path d="M107.234 254.718V252.792H111.302V265.5H109.142V254.718H107.234Z" fill="white"/>
<path fill-rule="evenodd" clip-rule="evenodd" d="M183.447 192.354C176.786 194.706 171.523 223.388 171.523 258.424C171.523 293.459 176.786 322.141 183.447 324.494L339.531 381.305C329.269 377.544 321.132 323.966 321.132 258.424C321.132 192.882 329.27 139.305 339.532 135.544L183.447 192.354ZM340.686 135.333C340.304 135.333 339.924 135.401 339.547 135.538L339.532 135.544C329.27 139.305 321.132 192.882 321.132 258.424C321.132 323.966 329.269 377.544 339.531 381.305L339.547 381.311C339.924 381.447 340.304 381.517 340.686 381.517C345.391 381.517 349.708 371.056 353.082 353.63C349.401 329.529 347.114 295.781 347.114 258.424C347.114 221.067 349.401 187.319 353.082 163.218C349.707 145.792 345.391 135.333 340.686 135.333Z" fill="#E3FFF2"/>
<rect x="240.398" y="238" width="43.2" height="43.2" rx="21.6" fill="#3CC583"/>
<path d="M256.364 265.678C258.697 264.079 260.562 262.517 261.958 260.99C263.37 259.45 264.075 258.024 264.075 256.714C264.075 255.936 263.881 255.317 263.492 254.856C263.118 254.395 262.506 254.165 261.656 254.165C260.778 254.165 260.115 254.453 259.669 255.029C259.222 255.59 258.97 256.397 258.913 257.448H256.515C256.616 255.706 257.149 254.374 258.114 253.452C259.093 252.53 260.338 252.07 261.85 252.07C263.334 252.07 264.493 252.466 265.328 253.258C266.178 254.035 266.602 255.115 266.602 256.498C266.602 257.606 266.257 258.73 265.566 259.867C264.889 261.005 264.025 262.056 262.974 263.021C261.922 263.971 260.835 264.792 259.712 265.483H266.948V267.492H256.364V265.678Z" fill="white"/>
<path fill-rule="evenodd" clip-rule="evenodd" d="M365.818 390.871L521.674 447.598C507.946 442.22 497.041 359.548 497.041 258.4C497.041 157.255 507.946 74.6233 521.674 69.2458L365.818 125.973C360.874 127.523 356.408 141.427 353.081 163.217C349.4 187.317 347.113 221.065 347.113 258.422C347.113 295.779 349.401 329.529 353.081 353.628C356.408 375.417 360.874 389.321 365.818 390.871ZM521.875 447.672C522.28 447.808 522.688 447.835 523.098 447.835C527.46 447.835 531.571 440.045 535.183 426.274C527.916 390.938 523.096 328.972 523.096 258.433C523.096 187.862 527.92 125.873 535.193 90.5451C531.572 76.6851 527.475 68.9675 523.098 68.9675C522.688 68.9675 522.28 69.0365 521.875 69.173L521.674 69.2458C507.946 74.6233 497.041 157.255 497.041 258.4C497.041 359.548 507.946 442.22 521.674 447.598L521.875 447.672Z" fill="#F4FFDC"/>
<rect x="415.801" y="234" width="50.4" height="50.4" rx="25.2" fill="#92BD39"/>
<path d="M441.06 249.854C442.236 249.854 443.244 250.064 444.084 250.484C444.924 250.887 445.554 251.45 445.974 252.173C446.411 252.895 446.629 253.701 446.629 254.592C446.629 255.717 446.31 256.658 445.672 257.414C445.05 258.153 444.168 258.599 443.026 258.75V258.876C444.252 259.229 445.21 259.758 445.898 260.463C446.604 261.152 446.957 262.11 446.957 263.336C446.957 264.831 446.461 266.049 445.47 266.99C444.479 267.914 443.059 268.376 441.211 268.376C439.313 268.376 437.784 267.897 436.625 266.94C435.466 265.965 434.802 264.529 434.634 262.631H437.482C437.582 263.639 437.944 264.445 438.565 265.05C439.187 265.638 440.027 265.932 441.085 265.932C442.076 265.932 442.832 265.671 443.353 265.151C443.891 264.63 444.16 263.958 444.16 263.135C444.16 262.143 443.773 261.387 443 260.867C442.244 260.346 441.144 260.085 439.699 260.085H439.019V257.717H439.699C442.438 257.75 443.807 256.818 443.807 254.919C443.807 254.096 443.555 253.449 443.051 252.979C442.547 252.509 441.858 252.273 440.984 252.273C440.111 252.273 439.38 252.542 438.792 253.08C438.204 253.601 437.851 254.365 437.734 255.373H434.911C435.029 253.626 435.617 252.273 436.675 251.316C437.734 250.341 439.195 249.854 441.06 249.854Z" fill="white"/>
<path fill-rule="evenodd" clip-rule="evenodd" d="M738.064 258.422C738.064 367.081 729.443 459.916 717.282 496.996C713.631 508.129 709.661 514.236 705.509 514.236C705.035 514.236 704.565 514.157 704.097 513.999C704.017 513.972 703.937 513.943 703.857 513.913C686.644 507.154 672.952 395.351 672.952 258.422C672.952 121.496 686.644 9.69565 703.856 2.93218C703.937 2.90057 704.017 2.87129 704.097 2.84435C704.565 2.68737 705.035 2.60815 705.509 2.60815C709.661 2.60815 713.631 8.71477 717.282 19.8472C729.443 56.9268 738.064 149.763 738.064 258.422ZM548.187 457.26L703.857 513.913C686.644 507.154 672.952 395.351 672.952 258.422C672.952 121.496 686.644 9.69565 703.856 2.93218L548.187 59.6065C543.415 61.0185 538.971 72.1786 535.19 90.5459C527.917 125.873 523.094 187.863 523.094 258.433C523.094 328.972 527.913 390.94 535.181 426.274C538.964 444.668 543.411 455.846 548.187 457.26Z" fill="#FFFBDA"/>
<rect x="568.602" y="227" width="64.8" height="64.8" rx="32.4" fill="#E0CB15"/>
<path d="M591.634 265.975V262.864L603.006 247.831H606.959V262.735H610.167V265.975H606.959V270.9H603.233V265.975H591.634ZM603.492 252.237L595.457 262.735H603.492V252.237Z" fill="white"/>
<path d="M157.224 314.958C157.57 315.078 157.919 315.138 158.272 315.138C165.484 315.138 171.331 289.747 171.331 258.424C171.331 227.102 165.484 201.71 158.272 201.71C157.919 201.71 157.57 201.77 157.224 201.89M157.224 314.958C157.185 314.945 157.147 314.931 157.109 314.917M157.224 314.958L157.109 314.917M157.109 314.917C150.441 312.361 145.213 288.044 145.213 258.424C145.213 228.804 150.441 204.487 157.109 201.932M157.109 314.917L1.91797 258.424L157.109 201.932M157.109 201.932C157.147 201.917 157.186 201.903 157.224 201.89M157.109 201.932L157.224 201.89" stroke="#1EABDA" stroke-width="2" stroke-linecap="round" stroke-linejoin="round"/>
<path d="M183.447 192.354C176.786 194.706 171.523 223.388 171.523 258.424C171.523 293.459 176.786 322.141 183.447 324.493M183.447 192.354L339.532 135.544M183.447 192.354C183.74 192.25 184.035 192.198 184.333 192.198M183.447 324.493L339.532 381.305M183.447 324.493C183.74 324.597 184.035 324.649 184.333 324.649M339.532 381.305C329.27 377.544 321.132 323.966 321.132 258.424C321.132 192.882 329.27 139.305 339.532 135.544M339.532 381.305L339.548 381.311M339.532 381.305C339.537 381.307 339.542 381.309 339.548 381.311M339.532 135.544L339.548 135.538M339.532 135.544C339.537 135.542 339.542 135.54 339.548 135.538M339.548 135.538C339.924 135.401 340.304 135.333 340.686 135.333C345.391 135.333 349.708 145.792 353.081 163.218C349.401 187.319 347.114 221.067 347.114 258.424C347.114 295.781 349.401 329.529 353.082 353.63C349.708 371.057 345.391 381.516 340.686 381.516C340.304 381.516 339.924 381.447 339.548 381.311" stroke="#3CC583" stroke-width="2" stroke-linecap="round" stroke-linejoin="round"/>
<path d="M365.818 390.872L521.674 447.598M365.818 390.872C360.874 389.321 356.408 375.418 353.081 353.628C349.401 329.528 347.113 295.779 347.113 258.422C347.113 221.065 349.4 187.317 353.081 163.217C356.408 141.427 360.874 127.523 365.818 125.973M365.818 390.872C366.125 390.968 366.434 391.017 366.744 391.017M521.674 447.598C507.946 442.221 497.041 359.547 497.041 258.401C497.041 157.255 507.946 74.6233 521.674 69.2458M521.674 447.598L521.874 447.671M521.674 447.598C521.741 447.625 521.807 447.649 521.874 447.671M521.674 69.2458L365.818 125.973M521.674 69.2458L521.874 69.173M521.674 69.2458C521.741 69.2197 521.807 69.1955 521.874 69.173M365.818 125.973C366.125 125.876 366.434 125.828 366.744 125.828M521.874 447.671C522.28 447.808 522.688 447.834 523.099 447.834C527.46 447.834 531.571 440.044 535.183 426.274C527.916 390.938 523.096 328.972 523.096 258.433C523.096 187.862 527.92 125.873 535.193 90.5451C531.572 76.6851 527.475 68.9675 523.099 68.9675C522.688 68.9675 522.28 69.0365 521.874 69.173" stroke="#92BD39" stroke-width="2" stroke-linecap="round" stroke-linejoin="round"/>
<path d="M704.097 513.999C704.565 514.156 705.036 514.235 705.509 514.235C709.66 514.235 713.631 508.129 717.282 496.996C729.443 459.917 738.065 367.081 738.065 258.422C738.065 149.763 729.443 56.9268 717.282 19.8472C713.631 8.71477 709.66 2.60815 705.509 2.60815C705.036 2.60815 704.565 2.68737 704.097 2.84435M704.097 513.999C704.017 513.972 703.937 513.943 703.857 513.912M704.097 513.999L703.857 513.912M703.857 513.912C686.644 507.153 672.953 395.351 672.953 258.422C672.953 121.496 686.644 9.69565 703.856 2.93218M703.857 513.912L548.187 457.26M703.856 2.93218C703.936 2.90057 704.017 2.87129 704.097 2.84435M703.856 2.93218L548.187 59.6065M703.856 2.93218L704.097 2.84435M548.187 457.26C543.411 455.847 538.964 444.669 535.181 426.274C527.913 390.939 523.094 328.973 523.094 258.433C523.094 187.863 527.917 125.873 535.19 90.5458C538.971 72.1786 543.415 61.0185 548.187 59.6065M548.187 457.26C548.529 457.361 548.873 457.412 549.219 457.412M548.187 59.6065C548.529 59.5052 548.873 59.454 549.219 59.454" stroke="#E0CB15" stroke-width="2" stroke-linecap="round" stroke-linejoin="round"/>
<path d="M18.294 329.793V334.725H16.242V322.017H20.562C22.026 322.017 23.124 322.365 23.856 323.061C24.6 323.757 24.972 324.711 24.972 325.923C24.972 327.123 24.594 328.071 23.838 328.767C23.082 329.451 21.99 329.793 20.562 329.793H18.294ZM20.346 328.119C22.038 328.119 22.884 327.387 22.884 325.923C22.884 325.203 22.68 324.657 22.272 324.285C21.876 323.901 21.234 323.709 20.346 323.709H18.294V328.119H20.346ZM28.8233 326.751C29.1593 326.103 29.6393 325.593 30.2633 325.221C30.8873 324.837 31.6073 324.645 32.4233 324.645V326.877H31.8113C30.9113 326.877 30.1853 327.099 29.6333 327.543C29.0933 327.975 28.8233 328.695 28.8233 329.703V334.725H26.7713V324.807H28.8233V326.751ZM38.4968 324.681C39.4568 324.681 40.3208 324.885 41.0888 325.293C41.8568 325.701 42.4568 326.289 42.8887 327.057C43.3208 327.825 43.5368 328.725 43.5368 329.757C43.5368 330.801 43.3208 331.707 42.8887 332.475C42.4568 333.243 41.8568 333.831 41.0888 334.239C40.3208 334.647 39.4568 334.851 38.4968 334.851C37.5368 334.851 36.6728 334.647 35.9048 334.239C35.1488 333.831 34.5488 333.243 34.1048 332.475C33.6728 331.695 33.4568 330.789 33.4568 329.757C33.4568 328.725 33.6728 327.825 34.1048 327.057C34.5488 326.289 35.1488 325.701 35.9048 325.293C36.6728 324.885 37.5368 324.681 38.4968 324.681ZM38.4968 326.463C37.9688 326.463 37.4828 326.583 37.0388 326.823C36.5948 327.063 36.2348 327.435 35.9588 327.939C35.6948 328.431 35.5628 329.037 35.5628 329.757C35.5628 330.489 35.6948 331.101 35.9588 331.593C36.2348 332.085 36.5948 332.451 37.0388 332.691C37.4828 332.931 37.9688 333.051 38.4968 333.051C39.0248 333.051 39.5108 332.931 39.9548 332.691C40.3988 332.451 40.7528 332.085 41.0168 331.593C41.2928 331.101 41.4308 330.489 41.4308 329.757C41.4308 329.037 41.2928 328.431 41.0168 327.939C40.7528 327.435 40.3988 327.063 39.9548 326.823C39.5108 326.583 39.0248 326.463 38.4968 326.463ZM50.4956 332.943V334.725H49.2356C48.1796 334.725 47.3756 334.473 46.8236 333.969C46.2836 333.453 46.0136 332.601 46.0136 331.413V326.553H44.5916V324.807H46.0136V322.341H48.0836V324.807H50.4776V326.553H48.0836V331.449C48.0836 332.013 48.1856 332.403 48.3896 332.619C48.6056 332.835 48.9776 332.943 49.5056 332.943H50.4956ZM56.9538 324.681C57.9138 324.681 58.7778 324.885 59.5458 325.293C60.3138 325.701 60.9138 326.289 61.3458 327.057C61.7778 327.825 61.9938 328.725 61.9938 329.757C61.9938 330.801 61.7778 331.707 61.3458 332.475C60.9138 333.243 60.3138 333.831 59.5458 334.239C58.7778 334.647 57.9138 334.851 56.9538 334.851C55.9938 334.851 55.1298 334.647 54.3618 334.239C53.6058 333.831 53.0058 333.243 52.5618 332.475C52.1298 331.695 51.9138 330.789 51.9138 329.757C51.9138 328.725 52.1298 327.825 52.5618 327.057C53.0058 326.289 53.6058 325.701 54.3618 325.293C55.1298 324.885 55.9938 324.681 56.9538 324.681ZM56.9538 326.463C56.4258 326.463 55.9398 326.583 55.4958 326.823C55.0518 327.063 54.6918 327.435 54.4158 327.939C54.1518 328.431 54.0198 329.037 54.0198 329.757C54.0198 330.489 54.1518 331.101 54.4158 331.593C54.6918 332.085 55.0518 332.451 55.4958 332.691C55.9398 332.931 56.4258 333.051 56.9538 333.051C57.4818 333.051 57.9678 332.931 58.4118 332.691C58.8558 332.451 59.2098 332.085 59.4738 331.593C59.7498 331.101 59.8878 330.489 59.8878 329.757C59.8878 329.037 59.7498 328.431 59.4738 327.939C59.2098 327.435 58.8558 327.063 58.4118 326.823C57.9678 326.583 57.4818 326.463 56.9538 326.463ZM68.9526 332.943V334.725H67.6926C66.6366 334.725 65.8326 334.473 65.2806 333.969C64.7406 333.453 64.4706 332.601 64.4706 331.413V326.553H63.0486V324.807H64.4706V322.341H66.5406V324.807H68.9346V326.553H66.5406V331.449C66.5406 332.013 66.6426 332.403 66.8466 332.619C67.0626 332.835 67.4346 332.943 67.9626 332.943H68.9526ZM72.0448 324.807L75.0148 332.097L77.7688 324.807H80.0548L74.0608 339.441H71.7748L73.9168 334.491L69.7408 324.807H72.0448ZM87.0921 324.681C87.9561 324.681 88.7241 324.885 89.3961 325.293C90.0801 325.701 90.6141 326.289 90.9981 327.057C91.3821 327.825 91.5741 328.725 91.5741 329.757C91.5741 330.801 91.3821 331.707 90.9981 332.475C90.6141 333.243 90.0801 333.831 89.3961 334.239C88.7241 334.647 87.9561 334.851 87.0921 334.851C86.1921 334.851 85.4241 334.629 84.7881 334.185C84.1521 333.741 83.7081 333.153 83.4561 332.421V339.441H81.4041V324.807H83.4561V327.111C83.7081 326.379 84.1521 325.791 84.7881 325.347C85.4241 324.903 86.1921 324.681 87.0921 324.681ZM86.4621 326.481C85.8861 326.481 85.3701 326.619 84.9141 326.895C84.4581 327.159 84.0981 327.543 83.8341 328.047C83.5701 328.539 83.4381 329.109 83.4381 329.757C83.4381 330.417 83.5701 330.993 83.8341 331.485C84.0981 331.977 84.4581 332.361 84.9141 332.637C85.3701 332.901 85.8861 333.033 86.4621 333.033C87.3741 333.033 88.1061 332.745 88.6581 332.169C89.2101 331.581 89.4861 330.777 89.4861 329.757C89.4861 328.749 89.2101 327.951 88.6581 327.363C88.1061 326.775 87.3741 326.481 86.4621 326.481ZM93.2626 321.927C93.2626 321.579 93.3826 321.291 93.6226 321.063C93.8626 320.835 94.1806 320.721 94.5766 320.721C94.9726 320.721 95.2906 320.835 95.5306 321.063C95.7826 321.291 95.9086 321.579 95.9086 321.927C95.9086 322.275 95.7826 322.557 95.5306 322.773C95.2906 322.989 94.9726 323.097 94.5766 323.097C94.1806 323.097 93.8626 322.989 93.6226 322.773C93.3826 322.557 93.2626 322.275 93.2626 321.927ZM95.6026 324.807V334.725H93.5506V324.807H95.6026ZM103.63 324.645C104.782 324.645 105.706 325.017 106.402 325.761C107.098 326.505 107.446 327.567 107.446 328.947V334.725H105.394V329.163C105.394 328.275 105.166 327.591 104.71 327.111C104.254 326.619 103.63 326.373 102.838 326.373C102.022 326.373 101.368 326.637 100.876 327.165C100.384 327.681 100.138 328.443 100.138 329.451V334.725H98.0858V324.807H100.138V326.985C100.402 326.241 100.846 325.665 101.47 325.257C102.094 324.849 102.814 324.645 103.63 324.645ZM113.824 324.681C114.724 324.681 115.492 324.903 116.128 325.347C116.764 325.791 117.214 326.379 117.478 327.111V324.807H119.53V334.833C119.53 335.757 119.338 336.573 118.954 337.281C118.582 338.001 118.042 338.565 117.334 338.973C116.626 339.381 115.786 339.585 114.814 339.585C113.422 339.585 112.294 339.255 111.43 338.595C110.578 337.935 110.044 337.041 109.828 335.913H111.862C112.03 336.501 112.354 336.957 112.834 337.281C113.314 337.617 113.926 337.785 114.67 337.785C115.486 337.785 116.158 337.533 116.686 337.029C117.214 336.525 117.478 335.793 117.478 334.833V332.421C117.214 333.153 116.764 333.741 116.128 334.185C115.492 334.629 114.724 334.851 113.824 334.851C112.96 334.851 112.186 334.647 111.502 334.239C110.83 333.831 110.302 333.243 109.918 332.475C109.534 331.707 109.342 330.801 109.342 329.757C109.342 328.725 109.534 327.825 109.918 327.057C110.302 326.289 110.83 325.701 111.502 325.293C112.186 324.885 112.96 324.681 113.824 324.681ZM114.454 326.481C113.542 326.481 112.81 326.775 112.258 327.363C111.718 327.939 111.448 328.737 111.448 329.757C111.448 330.777 111.718 331.581 112.258 332.169C112.81 332.745 113.542 333.033 114.454 333.033C115.03 333.033 115.546 332.901 116.002 332.637C116.458 332.361 116.818 331.977 117.082 331.485C117.346 330.993 117.478 330.417 117.478 329.757C117.478 329.109 117.346 328.539 117.082 328.047C116.818 327.543 116.458 327.159 116.002 326.895C115.546 326.619 115.03 326.481 114.454 326.481ZM135.103 334.725L132.727 332.043C132.715 332.163 132.655 332.373 132.547 332.673C132.379 333.321 132.013 333.849 131.449 334.257C130.897 334.653 130.237 334.851 129.469 334.851C128.689 334.851 128.005 334.689 127.417 334.365C126.829 334.041 126.373 333.591 126.049 333.015C125.725 332.439 125.563 331.779 125.563 331.035C125.563 330.279 125.707 329.625 125.995 329.073C126.295 328.521 126.697 328.101 127.201 327.813C127.705 327.525 128.263 327.381 128.875 327.381H129.001L128.767 327.057C128.479 326.697 128.257 326.343 128.101 325.995C127.945 325.635 127.867 325.233 127.867 324.789C127.867 324.285 127.993 323.811 128.245 323.367C128.509 322.923 128.893 322.569 129.397 322.305C129.913 322.029 130.525 321.891 131.233 321.891C132.289 321.891 133.093 322.143 133.645 322.647C134.209 323.151 134.563 323.787 134.707 324.555C134.815 324.951 134.857 325.377 134.833 325.833H132.889V325.635C132.889 325.455 132.883 325.323 132.871 325.239C132.859 324.735 132.709 324.339 132.421 324.051C132.145 323.763 131.761 323.619 131.269 323.619C130.813 323.619 130.453 323.751 130.189 324.015C129.937 324.279 129.811 324.603 129.811 324.987C129.811 325.311 129.871 325.593 129.991 325.833C130.123 326.073 130.321 326.355 130.585 326.679L137.209 334.725H135.103ZM129.487 333.105C130.075 333.105 130.555 332.919 130.927 332.547C131.311 332.175 131.503 331.695 131.503 331.107C131.503 330.699 131.395 330.333 131.179 330.009C130.975 329.673 130.699 329.415 130.351 329.235C130.015 329.043 129.661 328.947 129.289 328.947C128.713 328.947 128.245 329.127 127.885 329.487C127.525 329.835 127.345 330.333 127.345 330.981C127.345 331.641 127.549 332.163 127.957 332.547C128.377 332.919 128.887 333.105 129.487 333.105ZM26.124 364.119L23.856 361.653C23.304 361.797 22.728 361.869 22.128 361.869C20.94 361.869 19.866 361.593 18.906 361.041C17.958 360.477 17.208 359.703 16.656 358.719C16.104 357.723 15.828 356.601 15.828 355.353C15.828 354.105 16.104 352.989 16.656 352.005C17.208 351.009 17.958 350.235 18.906 349.683C19.866 349.131 20.94 348.855 22.128 348.855C23.304 348.855 24.366 349.131 25.314 349.683C26.274 350.235 27.024 351.009 27.564 352.005C28.116 352.989 28.392 354.105 28.392 355.353C28.392 356.553 28.134 357.639 27.618 358.611C27.102 359.583 26.4 360.351 25.512 360.915L28.662 364.119H26.124ZM17.934 355.353C17.934 356.277 18.108 357.087 18.456 357.783C18.816 358.479 19.314 359.013 19.95 359.385C20.586 359.757 21.312 359.943 22.128 359.943C22.932 359.943 23.646 359.757 24.27 359.385C24.906 359.013 25.398 358.479 25.746 357.783C26.106 357.087 26.286 356.277 26.286 355.353C26.286 354.429 26.106 353.619 25.746 352.923C25.398 352.227 24.906 351.693 24.27 351.321C23.646 350.949 22.932 350.763 22.128 350.763C21.312 350.763 20.586 350.949 19.95 351.321C19.314 351.693 18.816 352.227 18.456 352.923C18.108 353.619 17.934 354.429 17.934 355.353ZM39.6067 351.807V361.725H37.5367V359.565C37.2847 360.297 36.8467 360.867 36.2227 361.275C35.5987 361.671 34.8727 361.869 34.0447 361.869C32.8927 361.869 31.9687 361.497 31.2727 360.753C30.5767 360.009 30.2287 358.947 30.2287 357.567V351.807H32.2807V357.351C32.2807 358.251 32.5087 358.947 32.9647 359.439C33.4207 359.919 34.0447 360.159 34.8367 360.159C35.6527 360.159 36.3067 359.895 36.7987 359.367C37.2907 358.839 37.5367 358.071 37.5367 357.063V351.807H39.6067ZM46.0423 351.681C46.9423 351.681 47.7103 351.903 48.3463 352.347C48.9823 352.791 49.4323 353.379 49.6963 354.111V351.807H51.7483V361.725H49.6963V359.421C49.4323 360.153 48.9823 360.741 48.3463 361.185C47.7103 361.629 46.9423 361.851 46.0423 361.851C45.1783 361.851 44.4043 361.647 43.7203 361.239C43.0483 360.831 42.5203 360.243 42.1363 359.475C41.7523 358.707 41.5603 357.801 41.5603 356.757C41.5603 355.725 41.7523 354.825 42.1363 354.057C42.5203 353.289 43.0483 352.701 43.7203 352.293C44.4043 351.885 45.1783 351.681 46.0423 351.681ZM46.6723 353.481C45.7603 353.481 45.0283 353.775 44.4763 354.363C43.9363 354.939 43.6663 355.737 43.6663 356.757C43.6663 357.777 43.9363 358.581 44.4763 359.169C45.0283 359.745 45.7603 360.033 46.6723 360.033C47.2483 360.033 47.7643 359.901 48.2203 359.637C48.6763 359.361 49.0363 358.977 49.3003 358.485C49.5643 357.993 49.6963 357.417 49.6963 356.757C49.6963 356.109 49.5643 355.539 49.3003 355.047C49.0363 354.543 48.6763 354.159 48.2203 353.895C47.7643 353.619 47.2483 353.481 46.6723 353.481ZM56.2628 348.405V361.725H54.2108V348.405H56.2628ZM58.4579 348.927C58.4579 348.579 58.5779 348.291 58.8179 348.063C59.0579 347.835 59.3759 347.721 59.7719 347.721C60.1679 347.721 60.4859 347.835 60.7259 348.063C60.9779 348.291 61.1039 348.579 61.1039 348.927C61.1039 349.275 60.9779 349.557 60.7259 349.773C60.4859 349.989 60.1679 350.097 59.7719 350.097C59.3759 350.097 59.0579 349.989 58.8179 349.773C58.5779 349.557 58.4579 349.275 58.4579 348.927ZM60.7979 351.807V361.725H58.7459V351.807H60.7979ZM68.2671 359.943V361.725H67.0071C65.9511 361.725 65.1471 361.473 64.5951 360.969C64.0551 360.453 63.7851 359.601 63.7851 358.413V353.553H62.3631V351.807H63.7851V349.341H65.8551V351.807H68.2491V353.553H65.8551V358.449C65.8551 359.013 65.9571 359.403 66.1611 359.619C66.3771 359.835 66.7491 359.943 67.2771 359.943H68.2671ZM71.3593 351.807L74.3293 359.097L77.0833 351.807H79.3693L73.3753 366.441H71.0893L73.2313 361.491L69.0553 351.807H71.3593ZM92.5153 358.971H87.1513L86.1793 361.725H83.9833L88.6633 349.215H91.0213L95.6833 361.725H93.4873L92.5153 358.971ZM91.9393 357.387L89.8333 351.447L87.7273 357.387H91.9393ZM102.751 351.645C103.903 351.645 104.827 352.017 105.523 352.761C106.219 353.505 106.567 354.567 106.567 355.947V361.725H104.515V356.163C104.515 355.275 104.287 354.591 103.831 354.111C103.375 353.619 102.751 353.373 101.959 353.373C101.143 353.373 100.489 353.637 99.9968 354.165C99.5048 354.681 99.2588 355.443 99.2588 356.451V361.725H97.2068V351.807H99.2588V353.985C99.5228 353.241 99.9668 352.665 100.591 352.257C101.215 351.849 101.935 351.645 102.751 351.645ZM112.945 351.681C113.845 351.681 114.613 351.903 115.249 352.347C115.885 352.791 116.335 353.379 116.599 354.111V351.807H118.651V361.725H116.599V359.421C116.335 360.153 115.885 360.741 115.249 361.185C114.613 361.629 113.845 361.851 112.945 361.851C112.081 361.851 111.307 361.647 110.623 361.239C109.951 360.831 109.423 360.243 109.039 359.475C108.655 358.707 108.463 357.801 108.463 356.757C108.463 355.725 108.655 354.825 109.039 354.057C109.423 353.289 109.951 352.701 110.623 352.293C111.307 351.885 112.081 351.681 112.945 351.681ZM113.575 353.481C112.663 353.481 111.931 353.775 111.379 354.363C110.839 354.939 110.569 355.737 110.569 356.757C110.569 357.777 110.839 358.581 111.379 359.169C111.931 359.745 112.663 360.033 113.575 360.033C114.151 360.033 114.667 359.901 115.123 359.637C115.579 359.361 115.939 358.977 116.203 358.485C116.467 357.993 116.599 357.417 116.599 356.757C116.599 356.109 116.467 355.539 116.203 355.047C115.939 354.543 115.579 354.159 115.123 353.895C114.667 353.619 114.151 353.481 113.575 353.481ZM123.165 348.405V361.725H121.113V348.405H123.165ZM126.818 351.807L129.788 359.097L132.542 351.807H134.828L128.834 366.441H126.548L128.69 361.491L124.514 351.807H126.818ZM139.436 351.681C140.6 351.681 141.53 351.981 142.226 352.581C142.934 353.169 143.366 353.961 143.522 354.957H141.578C141.494 354.417 141.26 353.985 140.876 353.661C140.504 353.325 140.006 353.157 139.382 353.157C138.866 353.157 138.464 353.283 138.176 353.535C137.9 353.775 137.762 354.105 137.762 354.525C137.762 354.837 137.864 355.089 138.068 355.281C138.272 355.473 138.524 355.623 138.824 355.731C139.136 355.839 139.574 355.959 140.138 356.091C140.882 356.259 141.482 356.433 141.938 356.613C142.406 356.793 142.802 357.081 143.126 357.477C143.462 357.861 143.63 358.389 143.63 359.061C143.63 359.889 143.312 360.561 142.676 361.077C142.052 361.593 141.206 361.851 140.138 361.851C138.902 361.851 137.9 361.563 137.132 360.987C136.376 360.411 135.92 359.607 135.764 358.575H137.762C137.822 359.115 138.062 359.553 138.482 359.889C138.902 360.225 139.454 360.393 140.138 360.393C140.63 360.393 141.014 360.267 141.29 360.015C141.578 359.751 141.722 359.421 141.722 359.025C141.722 358.677 141.614 358.401 141.398 358.197C141.182 357.993 140.912 357.837 140.588 357.729C140.264 357.609 139.82 357.489 139.256 357.369C138.536 357.201 137.948 357.033 137.492 356.865C137.048 356.697 136.664 356.427 136.34 356.055C136.028 355.671 135.872 355.155 135.872 354.507C135.872 353.667 136.184 352.989 136.808 352.473C137.444 351.945 138.32 351.681 139.436 351.681ZM145.399 348.927C145.399 348.579 145.519 348.291 145.759 348.063C145.999 347.835 146.317 347.721 146.713 347.721C147.109 347.721 147.427 347.835 147.667 348.063C147.919 348.291 148.045 348.579 148.045 348.927C148.045 349.275 147.919 349.557 147.667 349.773C147.427 349.989 147.109 350.097 146.713 350.097C146.317 350.097 145.999 349.989 145.759 349.773C145.519 349.557 145.399 349.275 145.399 348.927ZM147.739 351.807V361.725H145.687V351.807H147.739ZM153.48 351.681C154.644 351.681 155.574 351.981 156.27 352.581C156.978 353.169 157.41 353.961 157.566 354.957H155.622C155.538 354.417 155.304 353.985 154.92 353.661C154.548 353.325 154.05 353.157 153.426 353.157C152.91 353.157 152.508 353.283 152.22 353.535C151.944 353.775 151.806 354.105 151.806 354.525C151.806 354.837 151.908 355.089 152.112 355.281C152.316 355.473 152.568 355.623 152.868 355.731C153.18 355.839 153.618 355.959 154.182 356.091C154.926 356.259 155.526 356.433 155.982 356.613C156.45 356.793 156.846 357.081 157.17 357.477C157.506 357.861 157.674 358.389 157.674 359.061C157.674 359.889 157.356 360.561 156.72 361.077C156.096 361.593 155.25 361.851 154.182 361.851C152.946 361.851 151.944 361.563 151.176 360.987C150.42 360.411 149.964 359.607 149.808 358.575H151.806C151.866 359.115 152.106 359.553 152.526 359.889C152.946 360.225 153.498 360.393 154.182 360.393C154.674 360.393 155.058 360.267 155.334 360.015C155.622 359.751 155.766 359.421 155.766 359.025C155.766 358.677 155.658 358.401 155.442 358.197C155.226 357.993 154.956 357.837 154.632 357.729C154.308 357.609 153.864 357.489 153.3 357.369C152.58 357.201 151.992 357.033 151.536 356.865C151.092 356.697 150.708 356.427 150.384 356.055C150.072 355.671 149.916 355.155 149.916 354.507C149.916 353.667 150.228 352.989 150.852 352.473C151.488 351.945 152.364 351.681 153.48 351.681Z" fill="white"/>
<path d="M182.52 404.558L186.174 415.07L189.846 404.558H192.078L187.488 417.266H184.86L180.288 404.558H182.52ZM197.577 407.222C198.477 407.222 199.245 407.444 199.881 407.888C200.517 408.332 200.967 408.92 201.231 409.652V407.348H203.283V417.266H201.231V414.962C200.967 415.694 200.517 416.282 199.881 416.726C199.245 417.17 198.477 417.392 197.577 417.392C196.713 417.392 195.939 417.188 195.255 416.78C194.583 416.372 194.055 415.784 193.671 415.016C193.287 414.248 193.095 413.342 193.095 412.298C193.095 411.266 193.287 410.366 193.671 409.598C194.055 408.83 194.583 408.242 195.255 407.834C195.939 407.426 196.713 407.222 197.577 407.222ZM198.207 409.022C197.295 409.022 196.563 409.316 196.011 409.904C195.471 410.48 195.201 411.278 195.201 412.298C195.201 413.318 195.471 414.122 196.011 414.71C196.563 415.286 197.295 415.574 198.207 415.574C198.783 415.574 199.299 415.442 199.755 415.178C200.211 414.902 200.571 414.518 200.835 414.026C201.099 413.534 201.231 412.958 201.231 412.298C201.231 411.65 201.099 411.08 200.835 410.588C200.571 410.084 200.211 409.7 199.755 409.436C199.299 409.16 198.783 409.022 198.207 409.022ZM207.798 403.946V417.266H205.746V403.946H207.798ZM219.425 407.348V417.266H217.355V415.106C217.103 415.838 216.665 416.408 216.041 416.816C215.417 417.212 214.691 417.41 213.863 417.41C212.711 417.41 211.787 417.038 211.091 416.294C210.395 415.55 210.047 414.488 210.047 413.108V407.348H212.099V412.892C212.099 413.792 212.327 414.488 212.783 414.98C213.239 415.46 213.863 415.7 214.655 415.7C215.471 415.7 216.125 415.436 216.617 414.908C217.109 414.38 217.355 413.612 217.355 412.604V407.348H219.425ZM231.099 411.83C231.099 412.166 231.075 412.46 231.027 412.712H223.395C223.431 413.732 223.713 414.488 224.241 414.98C224.769 415.472 225.423 415.718 226.203 415.718C226.887 415.718 227.463 415.544 227.931 415.196C228.411 414.848 228.705 414.386 228.813 413.81H231.009C230.877 414.506 230.601 415.124 230.181 415.664C229.761 416.204 229.215 416.63 228.543 416.942C227.871 417.242 227.121 417.392 226.293 417.392C225.333 417.392 224.481 417.188 223.737 416.78C223.005 416.372 222.429 415.784 222.009 415.016C221.589 414.248 221.379 413.342 221.379 412.298C221.379 411.266 221.589 410.366 222.009 409.598C222.429 408.83 223.005 408.242 223.737 407.834C224.481 407.426 225.333 407.222 226.293 407.222C227.265 407.222 228.111 407.426 228.831 407.834C229.563 408.23 230.121 408.782 230.505 409.49C230.901 410.186 231.099 410.966 231.099 411.83ZM229.029 411.776C229.053 411.128 228.939 410.588 228.687 410.156C228.447 409.712 228.111 409.388 227.679 409.184C227.259 408.968 226.797 408.86 226.293 408.86C225.489 408.86 224.817 409.106 224.277 409.598C223.737 410.09 223.443 410.816 223.395 411.776H229.029ZM239.351 406.214V410.066H244.031V411.65H239.351V415.592H244.571V417.266H237.299V404.558H244.571V406.214H239.351ZM252.106 407.186C253.258 407.186 254.182 407.558 254.878 408.302C255.574 409.046 255.922 410.108 255.922 411.488V417.266H253.87V411.704C253.87 410.816 253.642 410.132 253.186 409.652C252.73 409.16 252.106 408.914 251.314 408.914C250.498 408.914 249.844 409.178 249.352 409.706C248.86 410.222 248.614 410.984 248.614 411.992V417.266H246.562V407.348H248.614V409.526C248.878 408.782 249.322 408.206 249.946 407.798C250.57 407.39 251.29 407.186 252.106 407.186ZM262.3 407.222C263.2 407.222 263.968 407.444 264.604 407.888C265.24 408.332 265.69 408.92 265.954 409.652V407.348H268.006V417.374C268.006 418.298 267.814 419.114 267.43 419.822C267.058 420.542 266.518 421.106 265.81 421.514C265.102 421.922 264.262 422.126 263.29 422.126C261.898 422.126 260.77 421.796 259.906 421.136C259.054 420.476 258.52 419.582 258.304 418.454H260.338C260.506 419.042 260.83 419.498 261.31 419.822C261.79 420.158 262.402 420.326 263.146 420.326C263.962 420.326 264.634 420.074 265.162 419.57C265.69 419.066 265.954 418.334 265.954 417.374V414.962C265.69 415.694 265.24 416.282 264.604 416.726C263.968 417.17 263.2 417.392 262.3 417.392C261.436 417.392 260.662 417.188 259.978 416.78C259.306 416.372 258.778 415.784 258.394 415.016C258.01 414.248 257.818 413.342 257.818 412.298C257.818 411.266 258.01 410.366 258.394 409.598C258.778 408.83 259.306 408.242 259.978 407.834C260.662 407.426 261.436 407.222 262.3 407.222ZM262.93 409.022C262.018 409.022 261.286 409.316 260.734 409.904C260.194 410.48 259.924 411.278 259.924 412.298C259.924 413.318 260.194 414.122 260.734 414.71C261.286 415.286 262.018 415.574 262.93 415.574C263.506 415.574 264.022 415.442 264.478 415.178C264.934 414.902 265.294 414.518 265.558 414.026C265.822 413.534 265.954 412.958 265.954 412.298C265.954 411.65 265.822 411.08 265.558 410.588C265.294 410.084 264.934 409.7 264.478 409.436C264.022 409.16 263.506 409.022 262.93 409.022ZM270.181 404.468C270.181 404.12 270.301 403.832 270.541 403.604C270.781 403.376 271.099 403.262 271.495 403.262C271.891 403.262 272.209 403.376 272.449 403.604C272.701 403.832 272.827 404.12 272.827 404.468C272.827 404.816 272.701 405.098 272.449 405.314C272.209 405.53 271.891 405.638 271.495 405.638C271.099 405.638 270.781 405.53 270.541 405.314C270.301 405.098 270.181 404.816 270.181 404.468ZM272.521 407.348V417.266H270.469V407.348H272.521ZM280.548 407.186C281.7 407.186 282.624 407.558 283.32 408.302C284.016 409.046 284.364 410.108 284.364 411.488V417.266H282.312V411.704C282.312 410.816 282.084 410.132 281.628 409.652C281.172 409.16 280.548 408.914 279.756 408.914C278.94 408.914 278.286 409.178 277.794 409.706C277.302 410.222 277.056 410.984 277.056 411.992V417.266H275.004V407.348H277.056V409.526C277.32 408.782 277.764 408.206 278.388 407.798C279.012 407.39 279.732 407.186 280.548 407.186ZM295.979 411.83C295.979 412.166 295.955 412.46 295.907 412.712H288.275C288.311 413.732 288.593 414.488 289.121 414.98C289.649 415.472 290.303 415.718 291.083 415.718C291.767 415.718 292.343 415.544 292.811 415.196C293.291 414.848 293.585 414.386 293.693 413.81H295.889C295.757 414.506 295.481 415.124 295.061 415.664C294.641 416.204 294.095 416.63 293.423 416.942C292.751 417.242 292.001 417.392 291.173 417.392C290.213 417.392 289.361 417.188 288.617 416.78C287.885 416.372 287.309 415.784 286.889 415.016C286.469 414.248 286.259 413.342 286.259 412.298C286.259 411.266 286.469 410.366 286.889 409.598C287.309 408.83 287.885 408.242 288.617 407.834C289.361 407.426 290.213 407.222 291.173 407.222C292.145 407.222 292.991 407.426 293.711 407.834C294.443 408.23 295.001 408.782 295.385 409.49C295.781 410.186 295.979 410.966 295.979 411.83ZM293.909 411.776C293.933 411.128 293.819 410.588 293.567 410.156C293.327 409.712 292.991 409.388 292.559 409.184C292.139 408.968 291.677 408.86 291.173 408.86C290.369 408.86 289.697 409.106 289.157 409.598C288.617 410.09 288.323 410.816 288.275 411.776H293.909ZM307.177 411.83C307.177 412.166 307.153 412.46 307.105 412.712H299.473C299.509 413.732 299.791 414.488 300.319 414.98C300.847 415.472 301.501 415.718 302.281 415.718C302.965 415.718 303.541 415.544 304.009 415.196C304.489 414.848 304.783 414.386 304.891 413.81H307.087C306.955 414.506 306.679 415.124 306.259 415.664C305.839 416.204 305.293 416.63 304.621 416.942C303.949 417.242 303.199 417.392 302.371 417.392C301.411 417.392 300.559 417.188 299.815 416.78C299.083 416.372 298.507 415.784 298.087 415.016C297.667 414.248 297.457 413.342 297.457 412.298C297.457 411.266 297.667 410.366 298.087 409.598C298.507 408.83 299.083 408.242 299.815 407.834C300.559 407.426 301.411 407.222 302.371 407.222C303.343 407.222 304.189 407.426 304.909 407.834C305.641 408.23 306.199 408.782 306.583 409.49C306.979 410.186 307.177 410.966 307.177 411.83ZM305.107 411.776C305.131 411.128 305.017 410.588 304.765 410.156C304.525 409.712 304.189 409.388 303.757 409.184C303.337 408.968 302.875 408.86 302.371 408.86C301.567 408.86 300.895 409.106 300.355 409.598C299.815 410.09 299.521 410.816 299.473 411.776H305.107ZM311.21 409.292C311.546 408.644 312.026 408.134 312.65 407.762C313.274 407.378 313.994 407.186 314.81 407.186V409.418H314.198C313.298 409.418 312.572 409.64 312.02 410.084C311.48 410.516 311.21 411.236 311.21 412.244V417.266H309.158V407.348H311.21V409.292ZM316.059 404.468C316.059 404.12 316.179 403.832 316.419 403.604C316.659 403.376 316.977 403.262 317.373 403.262C317.769 403.262 318.087 403.376 318.327 403.604C318.579 403.832 318.705 404.12 318.705 404.468C318.705 404.816 318.579 405.098 318.327 405.314C318.087 405.53 317.769 405.638 317.373 405.638C316.977 405.638 316.659 405.53 316.419 405.314C316.179 405.098 316.059 404.816 316.059 404.468ZM318.399 407.348V417.266H316.347V407.348H318.399ZM326.427 407.186C327.579 407.186 328.503 407.558 329.199 408.302C329.895 409.046 330.243 410.108 330.243 411.488V417.266H328.191V411.704C328.191 410.816 327.963 410.132 327.507 409.652C327.051 409.16 326.427 408.914 325.635 408.914C324.819 408.914 324.165 409.178 323.673 409.706C323.181 410.222 322.935 410.984 322.935 411.992V417.266H320.883V407.348H322.935V409.526C323.199 408.782 323.643 408.206 324.267 407.798C324.891 407.39 325.611 407.186 326.427 407.186ZM336.62 407.222C337.52 407.222 338.288 407.444 338.924 407.888C339.56 408.332 340.01 408.92 340.274 409.652V407.348H342.326V417.374C342.326 418.298 342.134 419.114 341.75 419.822C341.378 420.542 340.838 421.106 340.13 421.514C339.422 421.922 338.582 422.126 337.61 422.126C336.218 422.126 335.09 421.796 334.226 421.136C333.374 420.476 332.84 419.582 332.624 418.454H334.658C334.826 419.042 335.15 419.498 335.63 419.822C336.11 420.158 336.722 420.326 337.466 420.326C338.282 420.326 338.954 420.074 339.482 419.57C340.01 419.066 340.274 418.334 340.274 417.374V414.962C340.01 415.694 339.56 416.282 338.924 416.726C338.288 417.17 337.52 417.392 336.62 417.392C335.756 417.392 334.982 417.188 334.298 416.78C333.626 416.372 333.098 415.784 332.714 415.016C332.33 414.248 332.138 413.342 332.138 412.298C332.138 411.266 332.33 410.366 332.714 409.598C333.098 408.83 333.626 408.242 334.298 407.834C334.982 407.426 335.756 407.222 336.62 407.222ZM337.25 409.022C336.338 409.022 335.606 409.316 335.054 409.904C334.514 410.48 334.244 411.278 334.244 412.298C334.244 413.318 334.514 414.122 335.054 414.71C335.606 415.286 336.338 415.574 337.25 415.574C337.826 415.574 338.342 415.442 338.798 415.178C339.254 414.902 339.614 414.518 339.878 414.026C340.142 413.534 340.274 412.958 340.274 412.298C340.274 411.65 340.142 411.08 339.878 410.588C339.614 410.084 339.254 409.7 338.798 409.436C338.342 409.16 337.826 409.022 337.25 409.022Z" fill="white"/>
<path d="M380.294 458.558V463.49H378.242V450.782H382.562C384.026 450.782 385.124 451.13 385.856 451.826C386.6 452.522 386.972 453.476 386.972 454.688C386.972 455.888 386.594 456.836 385.838 457.532C385.082 458.216 383.99 458.558 382.562 458.558H380.294ZM382.346 456.884C384.038 456.884 384.884 456.152 384.884 454.688C384.884 453.968 384.68 453.422 384.272 453.05C383.876 452.666 383.234 452.474 382.346 452.474H380.294V456.884H382.346ZM390.823 455.516C391.159 454.868 391.639 454.358 392.263 453.986C392.887 453.602 393.607 453.41 394.423 453.41V455.642H393.811C392.911 455.642 392.185 455.864 391.633 456.308C391.093 456.74 390.823 457.46 390.823 458.468V463.49H388.771V453.572H390.823V455.516ZM400.497 453.446C401.457 453.446 402.321 453.65 403.089 454.058C403.857 454.466 404.457 455.054 404.889 455.822C405.321 456.59 405.537 457.49 405.537 458.522C405.537 459.566 405.321 460.472 404.889 461.24C404.457 462.008 403.857 462.596 403.089 463.004C402.321 463.412 401.457 463.616 400.497 463.616C399.537 463.616 398.673 463.412 397.905 463.004C397.149 462.596 396.549 462.008 396.105 461.24C395.673 460.46 395.457 459.554 395.457 458.522C395.457 457.49 395.673 456.59 396.105 455.822C396.549 455.054 397.149 454.466 397.905 454.058C398.673 453.65 399.537 453.446 400.497 453.446ZM400.497 455.228C399.969 455.228 399.483 455.348 399.039 455.588C398.595 455.828 398.235 456.2 397.959 456.704C397.695 457.196 397.563 457.802 397.563 458.522C397.563 459.254 397.695 459.866 397.959 460.358C398.235 460.85 398.595 461.216 399.039 461.456C399.483 461.696 399.969 461.816 400.497 461.816C401.025 461.816 401.511 461.696 401.955 461.456C402.399 461.216 402.753 460.85 403.017 460.358C403.293 459.866 403.431 459.254 403.431 458.522C403.431 457.802 403.293 457.196 403.017 456.704C402.753 456.2 402.399 455.828 401.955 455.588C401.511 455.348 401.025 455.228 400.497 455.228ZM411.488 453.446C412.388 453.446 413.156 453.668 413.792 454.112C414.428 454.556 414.872 455.144 415.124 455.876V450.17H417.194V463.49H415.124V461.186C414.872 461.918 414.428 462.506 413.792 462.95C413.156 463.394 412.388 463.616 411.488 463.616C410.624 463.616 409.85 463.412 409.166 463.004C408.494 462.596 407.966 462.008 407.582 461.24C407.198 460.472 407.006 459.566 407.006 458.522C407.006 457.49 407.198 456.59 407.582 455.822C407.966 455.054 408.494 454.466 409.166 454.058C409.85 453.65 410.624 453.446 411.488 453.446ZM412.118 455.246C411.206 455.246 410.474 455.54 409.922 456.128C409.382 456.704 409.112 457.502 409.112 458.522C409.112 459.542 409.382 460.346 409.922 460.934C410.474 461.51 411.206 461.798 412.118 461.798C412.694 461.798 413.21 461.666 413.666 461.402C414.122 461.126 414.482 460.742 414.746 460.25C415.01 459.758 415.142 459.182 415.142 458.522C415.142 457.874 415.01 457.304 414.746 456.812C414.482 456.308 414.122 455.924 413.666 455.66C413.21 455.384 412.694 455.246 412.118 455.246ZM428.8 453.572V463.49H426.73V461.33C426.478 462.062 426.04 462.632 425.416 463.04C424.792 463.436 424.066 463.634 423.238 463.634C422.086 463.634 421.162 463.262 420.466 462.518C419.77 461.774 419.422 460.712 419.422 459.332V453.572H421.474V459.116C421.474 460.016 421.702 460.712 422.158 461.204C422.614 461.684 423.238 461.924 424.03 461.924C424.846 461.924 425.5 461.66 425.992 461.132C426.484 460.604 426.73 459.836 426.73 458.828V453.572H428.8ZM435.668 453.446C436.952 453.446 438.014 453.788 438.854 454.472C439.694 455.144 440.216 456.062 440.42 457.226H438.242C438.122 456.602 437.828 456.116 437.36 455.768C436.904 455.408 436.328 455.228 435.632 455.228C434.84 455.228 434.18 455.51 433.652 456.074C433.124 456.626 432.86 457.442 432.86 458.522C432.86 459.602 433.124 460.424 433.652 460.988C434.18 461.552 434.84 461.834 435.632 461.834C436.328 461.834 436.904 461.654 437.36 461.294C437.828 460.934 438.122 460.442 438.242 459.818H440.42C440.216 460.982 439.694 461.906 438.854 462.59C438.014 463.274 436.952 463.616 435.668 463.616C434.708 463.616 433.856 463.412 433.112 463.004C432.38 462.596 431.804 462.008 431.384 461.24C430.964 460.472 430.754 459.566 430.754 458.522C430.754 457.49 430.964 456.59 431.384 455.822C431.804 455.054 432.38 454.466 433.112 454.058C433.856 453.65 434.708 453.446 435.668 453.446ZM447.388 461.708V463.49H446.128C445.072 463.49 444.268 463.238 443.716 462.734C443.176 462.218 442.906 461.366 442.906 460.178V455.318H441.484V453.572H442.906V451.106H444.976V453.572H447.37V455.318H444.976V460.214C444.976 460.778 445.078 461.168 445.282 461.384C445.498 461.6 445.87 461.708 446.398 461.708H447.388ZM384.128 477.62C385.304 477.62 386.366 477.896 387.314 478.448C388.274 479 389.024 479.774 389.564 480.77C390.116 481.754 390.392 482.87 390.392 484.118C390.392 485.366 390.116 486.488 389.564 487.484C389.024 488.468 388.274 489.242 387.314 489.806C386.366 490.358 385.304 490.634 384.128 490.634C382.94 490.634 381.866 490.358 380.906 489.806C379.958 489.242 379.208 488.468 378.656 487.484C378.104 486.488 377.828 485.366 377.828 484.118C377.828 482.87 378.104 481.754 378.656 480.77C379.208 479.774 379.958 479 380.906 478.448C381.866 477.896 382.94 477.62 384.128 477.62ZM384.128 479.528C383.312 479.528 382.586 479.714 381.95 480.086C381.314 480.458 380.816 480.992 380.456 481.688C380.108 482.384 379.934 483.194 379.934 484.118C379.934 485.042 380.108 485.852 380.456 486.548C380.816 487.244 381.314 487.778 381.95 488.15C382.586 488.522 383.312 488.708 384.128 488.708C384.932 488.708 385.646 488.522 386.27 488.15C386.906 487.778 387.398 487.244 387.746 486.548C388.106 485.852 388.286 485.042 388.286 484.118C388.286 483.194 388.106 482.384 387.746 481.688C387.398 480.992 386.906 480.458 386.27 480.086C385.646 479.714 384.932 479.528 384.128 479.528ZM398.151 480.446C399.015 480.446 399.783 480.65 400.455 481.058C401.139 481.466 401.673 482.054 402.057 482.822C402.441 483.59 402.633 484.49 402.633 485.522C402.633 486.566 402.441 487.472 402.057 488.24C401.673 489.008 401.139 489.596 400.455 490.004C399.783 490.412 399.015 490.616 398.151 490.616C397.251 490.616 396.483 490.394 395.847 489.95C395.211 489.506 394.767 488.918 394.515 488.186V495.206H392.463V480.572H394.515V482.876C394.767 482.144 395.211 481.556 395.847 481.112C396.483 480.668 397.251 480.446 398.151 480.446ZM397.521 482.246C396.945 482.246 396.429 482.384 395.973 482.66C395.517 482.924 395.157 483.308 394.893 483.812C394.629 484.304 394.497 484.874 394.497 485.522C394.497 486.182 394.629 486.758 394.893 487.25C395.157 487.742 395.517 488.126 395.973 488.402C396.429 488.666 396.945 488.798 397.521 488.798C398.433 488.798 399.165 488.51 399.717 487.934C400.269 487.346 400.545 486.542 400.545 485.522C400.545 484.514 400.269 483.716 399.717 483.128C399.165 482.54 398.433 482.246 397.521 482.246ZM409.595 488.708V490.49H408.335C407.279 490.49 406.475 490.238 405.923 489.734C405.383 489.218 405.113 488.366 405.113 487.178V482.318H403.691V480.572H405.113V478.106H407.183V480.572H409.577V482.318H407.183V487.214C407.183 487.778 407.285 488.168 407.489 488.384C407.705 488.6 408.077 488.708 408.605 488.708H409.595ZM411.229 477.692C411.229 477.344 411.349 477.056 411.589 476.828C411.829 476.6 412.147 476.486 412.543 476.486C412.939 476.486 413.257 476.6 413.497 476.828C413.749 477.056 413.875 477.344 413.875 477.692C413.875 478.04 413.749 478.322 413.497 478.538C413.257 478.754 412.939 478.862 412.543 478.862C412.147 478.862 411.829 478.754 411.589 478.538C411.349 478.322 411.229 478.04 411.229 477.692ZM413.569 480.572V490.49H411.517V480.572H413.569ZM428.455 480.41C429.631 480.41 430.567 480.782 431.263 481.526C431.971 482.27 432.325 483.332 432.325 484.712V490.49H430.273V484.928C430.273 484.064 430.057 483.398 429.625 482.93C429.193 482.45 428.599 482.21 427.843 482.21C427.039 482.21 426.397 482.468 425.917 482.984C425.449 483.488 425.215 484.232 425.215 485.216V490.49H423.163V484.928C423.163 484.064 422.947 483.398 422.515 482.93C422.083 482.45 421.489 482.21 420.733 482.21C419.929 482.21 419.287 482.468 418.807 482.984C418.339 483.488 418.105 484.232 418.105 485.216V490.49H416.053V480.572H418.105V482.642C418.357 481.922 418.777 481.37 419.365 480.986C419.953 480.602 420.643 480.41 421.435 480.41C422.263 480.41 422.977 480.614 423.577 481.022C424.189 481.43 424.633 482.018 424.909 482.786C425.197 482.042 425.659 481.46 426.295 481.04C426.931 480.62 427.651 480.41 428.455 480.41ZM434.433 477.692C434.433 477.344 434.553 477.056 434.793 476.828C435.033 476.6 435.351 476.486 435.747 476.486C436.143 476.486 436.461 476.6 436.701 476.828C436.953 477.056 437.079 477.344 437.079 477.692C437.079 478.04 436.953 478.322 436.701 478.538C436.461 478.754 436.143 478.862 435.747 478.862C435.351 478.862 435.033 478.754 434.793 478.538C434.553 478.322 434.433 478.04 434.433 477.692ZM436.773 480.572V490.49H434.721V480.572H436.773ZM442.514 480.446C443.678 480.446 444.608 480.746 445.304 481.346C446.012 481.934 446.444 482.726 446.6 483.722H444.656C444.572 483.182 444.338 482.75 443.954 482.426C443.582 482.09 443.084 481.922 442.46 481.922C441.944 481.922 441.542 482.048 441.254 482.3C440.978 482.54 440.84 482.87 440.84 483.29C440.84 483.602 440.942 483.854 441.146 484.046C441.35 484.238 441.602 484.388 441.902 484.496C442.214 484.604 442.652 484.724 443.216 484.856C443.96 485.024 444.56 485.198 445.016 485.378C445.484 485.558 445.88 485.846 446.204 486.242C446.54 486.626 446.708 487.154 446.708 487.826C446.708 488.654 446.39 489.326 445.754 489.842C445.13 490.358 444.284 490.616 443.216 490.616C441.98 490.616 440.978 490.328 440.21 489.752C439.454 489.176 438.998 488.372 438.842 487.34H440.84C440.9 487.88 441.14 488.318 441.56 488.654C441.98 488.99 442.532 489.158 443.216 489.158C443.708 489.158 444.092 489.032 444.368 488.78C444.656 488.516 444.8 488.186 444.8 487.79C444.8 487.442 444.692 487.166 444.476 486.962C444.26 486.758 443.99 486.602 443.666 486.494C443.342 486.374 442.898 486.254 442.334 486.134C441.614 485.966 441.026 485.798 440.57 485.63C440.126 485.462 439.742 485.192 439.418 484.82C439.106 484.436 438.95 483.92 438.95 483.272C438.95 482.432 439.262 481.754 439.886 481.238C440.522 480.71 441.398 480.446 442.514 480.446ZM452.743 480.446C453.643 480.446 454.411 480.668 455.047 481.112C455.683 481.556 456.133 482.144 456.397 482.876V480.572H458.449V490.49H456.397V488.186C456.133 488.918 455.683 489.506 455.047 489.95C454.411 490.394 453.643 490.616 452.743 490.616C451.879 490.616 451.105 490.412 450.421 490.004C449.749 489.596 449.221 489.008 448.837 488.24C448.453 487.472 448.261 486.566 448.261 485.522C448.261 484.49 448.453 483.59 448.837 482.822C449.221 482.054 449.749 481.466 450.421 481.058C451.105 480.65 451.879 480.446 452.743 480.446ZM453.373 482.246C452.461 482.246 451.729 482.54 451.177 483.128C450.637 483.704 450.367 484.502 450.367 485.522C450.367 486.542 450.637 487.346 451.177 487.934C451.729 488.51 452.461 488.798 453.373 488.798C453.949 488.798 454.465 488.666 454.921 488.402C455.377 488.126 455.737 487.742 456.001 487.25C456.265 486.758 456.397 486.182 456.397 485.522C456.397 484.874 456.265 484.304 456.001 483.812C455.737 483.308 455.377 482.924 454.921 482.66C454.465 482.384 453.949 482.246 453.373 482.246ZM465.898 488.708V490.49H464.638C463.582 490.49 462.778 490.238 462.226 489.734C461.686 489.218 461.416 488.366 461.416 487.178V482.318H459.994V480.572H461.416V478.106H463.486V480.572H465.88V482.318H463.486V487.214C463.486 487.778 463.588 488.168 463.792 488.384C464.008 488.6 464.38 488.708 464.908 488.708H465.898ZM467.532 477.692C467.532 477.344 467.652 477.056 467.892 476.828C468.132 476.6 468.45 476.486 468.846 476.486C469.242 476.486 469.56 476.6 469.8 476.828C470.052 477.056 470.178 477.344 470.178 477.692C470.178 478.04 470.052 478.322 469.8 478.538C469.56 478.754 469.242 478.862 468.846 478.862C468.45 478.862 468.132 478.754 467.892 478.538C467.652 478.322 467.532 478.04 467.532 477.692ZM469.872 480.572V490.49H467.82V480.572H469.872ZM476.891 480.446C477.851 480.446 478.715 480.65 479.483 481.058C480.251 481.466 480.851 482.054 481.283 482.822C481.715 483.59 481.931 484.49 481.931 485.522C481.931 486.566 481.715 487.472 481.283 488.24C480.851 489.008 480.251 489.596 479.483 490.004C478.715 490.412 477.851 490.616 476.891 490.616C475.931 490.616 475.067 490.412 474.299 490.004C473.543 489.596 472.943 489.008 472.499 488.24C472.067 487.46 471.851 486.554 471.851 485.522C471.851 484.49 472.067 483.59 472.499 482.822C472.943 482.054 473.543 481.466 474.299 481.058C475.067 480.65 475.931 480.446 476.891 480.446ZM476.891 482.228C476.363 482.228 475.877 482.348 475.433 482.588C474.989 482.828 474.629 483.2 474.353 483.704C474.089 484.196 473.957 484.802 473.957 485.522C473.957 486.254 474.089 486.866 474.353 487.358C474.629 487.85 474.989 488.216 475.433 488.456C475.877 488.696 476.363 488.816 476.891 488.816C477.419 488.816 477.905 488.696 478.349 488.456C478.793 488.216 479.147 487.85 479.411 487.358C479.687 486.866 479.825 486.254 479.825 485.522C479.825 484.802 479.687 484.196 479.411 483.704C479.147 483.2 478.793 482.828 478.349 482.588C477.905 482.348 477.419 482.228 476.891 482.228ZM489.448 480.41C490.6 480.41 491.524 480.782 492.22 481.526C492.916 482.27 493.264 483.332 493.264 484.712V490.49H491.212V484.928C491.212 484.04 490.984 483.356 490.528 482.876C490.072 482.384 489.448 482.138 488.656 482.138C487.84 482.138 487.186 482.402 486.694 482.93C486.202 483.446 485.956 484.208 485.956 485.216V490.49H483.904V480.572H485.956V482.75C486.22 482.006 486.664 481.43 487.288 481.022C487.912 480.614 488.632 480.41 489.448 480.41Z" fill="white"/>
<path d="M537.294 534.496V539.428H535.242V526.72H539.562C541.026 526.72 542.124 527.068 542.856 527.764C543.6 528.46 543.972 529.414 543.972 530.626C543.972 531.826 543.594 532.774 542.838 533.47C542.082 534.154 540.99 534.496 539.562 534.496H537.294ZM539.346 532.822C541.038 532.822 541.884 532.09 541.884 530.626C541.884 529.906 541.68 529.36 541.272 528.988C540.876 528.604 540.234 528.412 539.346 528.412H537.294V532.822H539.346ZM547.823 531.454C548.159 530.806 548.639 530.296 549.263 529.924C549.887 529.54 550.607 529.348 551.423 529.348V531.58H550.811C549.911 531.58 549.185 531.802 548.633 532.246C548.093 532.678 547.823 533.398 547.823 534.406V539.428H545.771V529.51H547.823V531.454ZM557.497 529.384C558.457 529.384 559.321 529.588 560.089 529.996C560.857 530.404 561.457 530.992 561.889 531.76C562.321 532.528 562.537 533.428 562.537 534.46C562.537 535.504 562.321 536.41 561.889 537.178C561.457 537.946 560.857 538.534 560.089 538.942C559.321 539.35 558.457 539.554 557.497 539.554C556.537 539.554 555.673 539.35 554.905 538.942C554.149 538.534 553.549 537.946 553.105 537.178C552.673 536.398 552.457 535.492 552.457 534.46C552.457 533.428 552.673 532.528 553.105 531.76C553.549 530.992 554.149 530.404 554.905 529.996C555.673 529.588 556.537 529.384 557.497 529.384ZM557.497 531.166C556.969 531.166 556.483 531.286 556.039 531.526C555.595 531.766 555.235 532.138 554.959 532.642C554.695 533.134 554.563 533.74 554.563 534.46C554.563 535.192 554.695 535.804 554.959 536.296C555.235 536.788 555.595 537.154 556.039 537.394C556.483 537.634 556.969 537.754 557.497 537.754C558.025 537.754 558.511 537.634 558.955 537.394C559.399 537.154 559.753 536.788 560.017 536.296C560.293 535.804 560.431 535.192 560.431 534.46C560.431 533.74 560.293 533.134 560.017 532.642C559.753 532.138 559.399 531.766 558.955 531.526C558.511 531.286 558.025 531.166 557.497 531.166ZM565.626 527.8C565.23 527.8 564.906 527.692 564.654 527.476C564.414 527.26 564.294 526.978 564.294 526.63C564.294 526.282 564.414 525.994 564.654 525.766C564.906 525.538 565.23 525.424 565.626 525.424C566.022 525.424 566.34 525.538 566.58 525.766C566.82 525.994 566.94 526.282 566.94 526.63C566.94 526.978 566.82 527.26 566.58 527.476C566.34 527.692 566.022 527.8 565.626 527.8ZM562.746 542.344H563.448C563.844 542.344 564.132 542.254 564.312 542.074C564.504 541.906 564.6 541.612 564.6 541.192V529.51H566.67V541.21C566.67 543.166 565.686 544.144 563.718 544.144H562.746V542.344ZM578.331 533.992C578.331 534.328 578.307 534.622 578.259 534.874H570.627C570.663 535.894 570.945 536.65 571.473 537.142C572.001 537.634 572.655 537.88 573.435 537.88C574.119 537.88 574.695 537.706 575.163 537.358C575.643 537.01 575.937 536.548 576.045 535.972H578.241C578.109 536.668 577.833 537.286 577.413 537.826C576.993 538.366 576.447 538.792 575.775 539.104C575.103 539.404 574.353 539.554 573.525 539.554C572.565 539.554 571.713 539.35 570.969 538.942C570.237 538.534 569.661 537.946 569.241 537.178C568.821 536.41 568.611 535.504 568.611 534.46C568.611 533.428 568.821 532.528 569.241 531.76C569.661 530.992 570.237 530.404 570.969 529.996C571.713 529.588 572.565 529.384 573.525 529.384C574.497 529.384 575.343 529.588 576.063 529.996C576.795 530.392 577.353 530.944 577.737 531.652C578.133 532.348 578.331 533.128 578.331 533.992ZM576.261 533.938C576.285 533.29 576.171 532.75 575.919 532.318C575.679 531.874 575.343 531.55 574.911 531.346C574.491 531.13 574.029 531.022 573.525 531.022C572.721 531.022 572.049 531.268 571.509 531.76C570.969 532.252 570.675 532.978 570.627 533.938H576.261ZM584.722 529.384C586.006 529.384 587.068 529.726 587.908 530.41C588.748 531.082 589.27 532 589.474 533.164H587.296C587.176 532.54 586.882 532.054 586.414 531.706C585.958 531.346 585.382 531.166 584.686 531.166C583.894 531.166 583.234 531.448 582.706 532.012C582.178 532.564 581.914 533.38 581.914 534.46C581.914 535.54 582.178 536.362 582.706 536.926C583.234 537.49 583.894 537.772 584.686 537.772C585.382 537.772 585.958 537.592 586.414 537.232C586.882 536.872 587.176 536.38 587.296 535.756H589.474C589.27 536.92 588.748 537.844 587.908 538.528C587.068 539.212 586.006 539.554 584.722 539.554C583.762 539.554 582.91 539.35 582.166 538.942C581.434 538.534 580.858 537.946 580.438 537.178C580.018 536.41 579.808 535.504 579.808 534.46C579.808 533.428 580.018 532.528 580.438 531.76C580.858 530.992 581.434 530.404 582.166 529.996C582.91 529.588 583.762 529.384 584.722 529.384ZM596.443 537.646V539.428H595.183C594.127 539.428 593.323 539.176 592.771 538.672C592.231 538.156 591.961 537.304 591.961 536.116V531.256H590.539V529.51H591.961V527.044H594.031V529.51H596.425V531.256H594.031V536.152C594.031 536.716 594.133 537.106 594.337 537.322C594.553 537.538 594.925 537.646 595.453 537.646H596.443ZM612.682 526.72V539.428H610.612V533.722H604.636V539.428H602.584V526.72H604.636V532.048H610.612V526.72H612.682ZM619.148 529.384C620.048 529.384 620.816 529.606 621.452 530.05C622.088 530.494 622.538 531.082 622.802 531.814V529.51H624.854V539.428H622.802V537.124C622.538 537.856 622.088 538.444 621.452 538.888C620.816 539.332 620.048 539.554 619.148 539.554C618.284 539.554 617.51 539.35 616.826 538.942C616.154 538.534 615.626 537.946 615.242 537.178C614.858 536.41 614.666 535.504 614.666 534.46C614.666 533.428 614.858 532.528 615.242 531.76C615.626 530.992 616.154 530.404 616.826 529.996C617.51 529.588 618.284 529.384 619.148 529.384ZM619.778 531.184C618.866 531.184 618.134 531.478 617.582 532.066C617.042 532.642 616.772 533.44 616.772 534.46C616.772 535.48 617.042 536.284 617.582 536.872C618.134 537.448 618.866 537.736 619.778 537.736C620.354 537.736 620.87 537.604 621.326 537.34C621.782 537.064 622.142 536.68 622.406 536.188C622.67 535.696 622.802 535.12 622.802 534.46C622.802 533.812 622.67 533.242 622.406 532.75C622.142 532.246 621.782 531.862 621.326 531.598C620.87 531.322 620.354 531.184 619.778 531.184ZM632.86 529.348C634.012 529.348 634.936 529.72 635.632 530.464C636.328 531.208 636.676 532.27 636.676 533.65V539.428H634.624V533.866C634.624 532.978 634.396 532.294 633.94 531.814C633.484 531.322 632.86 531.076 632.068 531.076C631.252 531.076 630.598 531.34 630.106 531.868C629.614 532.384 629.368 533.146 629.368 534.154V539.428H627.316V529.51H629.368V531.688C629.632 530.944 630.076 530.368 630.7 529.96C631.324 529.552 632.044 529.348 632.86 529.348ZM643.054 529.384C643.954 529.384 644.722 529.606 645.358 530.05C645.994 530.494 646.438 531.082 646.69 531.814V526.108H648.76V539.428H646.69V537.124C646.438 537.856 645.994 538.444 645.358 538.888C644.722 539.332 643.954 539.554 643.054 539.554C642.19 539.554 641.416 539.35 640.732 538.942C640.06 538.534 639.532 537.946 639.148 537.178C638.764 536.41 638.572 535.504 638.572 534.46C638.572 533.428 638.764 532.528 639.148 531.76C639.532 530.992 640.06 530.404 640.732 529.996C641.416 529.588 642.19 529.384 643.054 529.384ZM643.684 531.184C642.772 531.184 642.04 531.478 641.488 532.066C640.948 532.642 640.678 533.44 640.678 534.46C640.678 535.48 640.948 536.284 641.488 536.872C642.04 537.448 642.772 537.736 643.684 537.736C644.26 537.736 644.776 537.604 645.232 537.34C645.688 537.064 646.048 536.68 646.312 536.188C646.576 535.696 646.708 535.12 646.708 534.46C646.708 533.812 646.576 533.242 646.312 532.75C646.048 532.246 645.688 531.862 645.232 531.598C644.776 531.322 644.26 531.184 643.684 531.184ZM655.758 529.384C656.718 529.384 657.582 529.588 658.35 529.996C659.118 530.404 659.718 530.992 660.15 531.76C660.582 532.528 660.798 533.428 660.798 534.46C660.798 535.504 660.582 536.41 660.15 537.178C659.718 537.946 659.118 538.534 658.35 538.942C657.582 539.35 656.718 539.554 655.758 539.554C654.798 539.554 653.934 539.35 653.166 538.942C652.41 538.534 651.81 537.946 651.366 537.178C650.934 536.398 650.718 535.492 650.718 534.46C650.718 533.428 650.934 532.528 651.366 531.76C651.81 530.992 652.41 530.404 653.166 529.996C653.934 529.588 654.798 529.384 655.758 529.384ZM655.758 531.166C655.23 531.166 654.744 531.286 654.3 531.526C653.856 531.766 653.496 532.138 653.22 532.642C652.956 533.134 652.824 533.74 652.824 534.46C652.824 535.192 652.956 535.804 653.22 536.296C653.496 536.788 653.856 537.154 654.3 537.394C654.744 537.634 655.23 537.754 655.758 537.754C656.286 537.754 656.772 537.634 657.216 537.394C657.66 537.154 658.014 536.788 658.278 536.296C658.554 535.804 658.692 535.192 658.692 534.46C658.692 533.74 658.554 533.134 658.278 532.642C658.014 532.138 657.66 531.766 657.216 531.526C656.772 531.286 656.286 531.166 655.758 531.166ZM666.839 537.304L669.647 529.51H671.843L668.063 539.428H665.579L661.799 529.51H663.995L666.839 537.304ZM682.569 533.992C682.569 534.328 682.545 534.622 682.497 534.874H674.865C674.901 535.894 675.183 536.65 675.711 537.142C676.239 537.634 676.893 537.88 677.673 537.88C678.357 537.88 678.933 537.706 679.401 537.358C679.881 537.01 680.175 536.548 680.283 535.972H682.479C682.347 536.668 682.071 537.286 681.651 537.826C681.231 538.366 680.685 538.792 680.013 539.104C679.341 539.404 678.591 539.554 677.763 539.554C676.803 539.554 675.951 539.35 675.207 538.942C674.475 538.534 673.899 537.946 673.479 537.178C673.059 536.41 672.849 535.504 672.849 534.46C672.849 533.428 673.059 532.528 673.479 531.76C673.899 530.992 674.475 530.404 675.207 529.996C675.951 529.588 676.803 529.384 677.763 529.384C678.735 529.384 679.581 529.588 680.301 529.996C681.033 530.392 681.591 530.944 681.975 531.652C682.371 532.348 682.569 533.128 682.569 533.992ZM680.499 533.938C680.523 533.29 680.409 532.75 680.157 532.318C679.917 531.874 679.581 531.55 679.149 531.346C678.729 531.13 678.267 531.022 677.763 531.022C676.959 531.022 676.287 531.268 675.747 531.76C675.207 532.252 674.913 532.978 674.865 533.938H680.499ZM686.603 531.454C686.939 530.806 687.419 530.296 688.043 529.924C688.667 529.54 689.387 529.348 690.203 529.348V531.58H689.591C688.691 531.58 687.965 531.802 687.413 532.246C686.873 532.678 686.603 533.398 686.603 534.406V539.428H684.551V529.51H686.603V531.454Z" fill="white"/>
</svg>
