<svg width="81" height="79" viewBox="0 0 81 79" fill="none" xmlns="http://www.w3.org/2000/svg">
<path d="M78.6434 43.0098L75.9262 42.1301C75.8622 42.1098 75.8356 42.0879 75.8059 42.0113C75.659 41.6176 75.495 41.2238 75.3184 40.8348C75.2903 40.7723 75.2903 40.7426 75.3247 40.6754L76.6215 38.127C77.1497 37.0941 76.9544 35.8457 76.1309 35.0145L73.1856 32.0691C72.359 31.2504 71.109 31.0551 70.0778 31.5832L67.5356 32.8801C67.4622 32.9176 67.4309 32.9145 67.3637 32.8832C66.9794 32.7082 66.5856 32.5441 66.1934 32.3973C66.1153 32.3676 66.0934 32.3395 66.0747 32.2832L65.1934 29.5598C64.8356 28.452 63.8106 27.7082 62.645 27.7082H58.4856C57.3012 27.7082 56.3012 28.4348 55.9387 29.5582L55.0544 32.277C55.034 32.3395 55.0122 32.3691 54.945 32.3957C54.5528 32.541 54.1559 32.7035 53.759 32.8848C53.6981 32.9129 53.6669 32.916 53.6028 32.8832L51.0528 31.5816C50.02 31.0535 48.7715 31.2488 47.9403 32.0723L44.995 35.0176C44.1762 35.8441 43.9809 37.0941 44.509 38.1254L45.809 40.6723C45.8419 40.7363 45.8419 40.7691 45.809 40.8395C45.634 41.2238 45.47 41.6176 45.32 42.0207C45.2997 42.077 45.2778 42.1051 45.2106 42.1285L42.484 43.0113C41.959 43.1832 41.5169 43.5051 41.195 43.9191C41.1606 43.8863 41.1262 43.8535 41.0919 43.8176L38.6794 41.3004V39.6566C39.4809 39.1379 40.2372 38.5363 40.9356 37.8535C43.384 35.4629 44.8794 32.352 45.2122 29.0004C47.4809 28.427 49.1278 26.391 49.1278 23.9457C49.1278 22.652 48.6528 21.4691 47.87 20.5582V15.2348C47.87 7.37852 41.4778 0.986328 33.6215 0.986328H25.4669C22.3669 0.986328 19.7934 3.27695 19.3512 6.25352C16.2981 6.62539 13.9247 9.23477 13.9247 12.3863V20.5566C13.1419 21.4691 12.6669 22.6535 12.6669 23.9473C12.6669 26.3926 14.3137 28.4285 16.5825 29.002C16.9153 32.352 18.4106 35.4645 20.859 37.8551C21.5575 38.5379 22.3137 39.1395 23.1153 39.6582V41.3004L20.7012 43.8191C20.2075 44.3363 19.6778 44.6473 18.984 44.8285L8.72155 47.5301C6.38092 48.1457 4.70123 49.9316 4.23092 52.3098L0.61842 70.6379C0.259045 72.4676 0.726233 74.3363 1.9028 75.766C3.0778 77.1941 4.82154 78.0145 6.68561 78.0145H55.1137C56.9778 78.0145 58.7215 77.1957 59.8965 75.766C61.0715 74.3363 61.5403 72.4676 61.1809 70.6363L60.5762 67.5691H62.6481C63.8106 67.5691 64.8356 66.8254 65.1965 65.7176L66.0762 63.0004C66.1012 62.9254 66.1294 62.9035 66.195 62.8801C66.5887 62.7332 66.9825 62.5691 67.3715 62.3926C67.4356 62.3629 67.4684 62.3629 67.5278 62.3941L70.0778 63.6957C71.1106 64.2238 72.359 64.0285 73.1903 63.2051L76.1356 60.2598C76.9544 59.4332 77.1497 58.1832 76.6215 57.152L75.3247 54.6098C75.2872 54.5363 75.2903 54.5051 75.3215 54.4379C75.5012 54.0457 75.6637 53.6488 75.8059 53.2676C75.8356 53.1894 75.8669 53.1676 75.9231 53.1488L78.645 52.2629C79.77 51.8988 80.4965 50.8988 80.4965 49.7145V45.5551C80.4965 44.391 79.7512 43.3676 78.6434 43.0098ZM20.1059 8.70664H20.5356C21.2247 8.70664 21.784 8.14727 21.784 7.4582V7.16602C21.784 5.13633 23.4372 3.48477 25.4684 3.48477H33.6231C40.1028 3.48477 45.3731 8.75664 45.3731 15.2348V18.9441C44.8887 18.802 44.3762 18.7285 43.845 18.7348V18.1316C43.845 16.6863 43.3044 15.3879 42.2825 14.3785C41.2528 13.3598 39.9512 12.8285 38.5137 12.8488C32.8715 12.8973 28.1528 12.3895 24.0887 11.2926C24.0137 11.2723 23.9372 11.2598 23.859 11.2535C22.5778 11.1535 20.8028 11.6051 19.6153 14.3129C19.0184 15.6723 18.6809 17.3254 18.4184 18.7629C17.7479 18.6926 17.07 18.7542 16.4231 18.9441V12.3879C16.4247 10.3582 18.0762 8.70664 20.1059 8.70664ZM19.0153 27.8801C18.9981 27.2176 18.4653 26.6832 17.8028 26.6629C16.3247 26.6207 15.1669 25.427 15.1669 23.9473C15.1669 22.4504 16.384 21.2316 17.8825 21.2316C18.2419 21.2316 18.5981 21.3035 18.9403 21.4426C19.2887 21.5863 19.6825 21.5645 20.0137 21.3848C20.345 21.2051 20.5762 20.8848 20.6434 20.5145C20.6856 20.2879 20.7278 20.052 20.77 19.8082C21.3169 16.7332 21.984 13.7379 23.5684 13.7379H23.5715C27.8278 14.8707 32.7262 15.3973 38.5419 15.3441C39.3169 15.3348 39.9684 15.5988 40.5278 16.152C41.0794 16.6973 41.3481 17.3441 41.3481 18.1301V20.2066C41.3481 20.6129 41.545 20.9926 41.8762 21.227C42.2075 21.4613 42.6325 21.5191 43.0137 21.3832C43.3012 21.2816 43.6059 21.2285 43.9153 21.2285C45.4122 21.2285 46.6309 22.4457 46.6309 23.9441C46.6309 25.4238 45.4731 26.616 43.995 26.6598C43.3325 26.6785 42.7997 27.2129 42.7825 27.877C42.6184 34.2613 37.2872 39.4551 30.8981 39.4551C24.509 39.4551 19.1794 34.2645 19.0153 27.8801ZM30.8997 41.9566C32.734 41.9566 34.52 41.6082 36.184 40.9473V42.3816C36.184 45.2957 33.8137 47.666 30.8997 47.666C27.9856 47.666 25.6153 45.2957 25.6153 42.3816V40.9473C27.297 41.6152 29.0902 41.9578 30.8997 41.9566ZM15.6731 75.516L13.1262 54.2848C13.1137 54.1863 13.1356 54.1426 13.1856 54.0879C13.2465 54.0191 13.2903 54.0004 13.3794 54.0004H48.42C48.509 54.0004 48.5528 54.0207 48.6137 54.0879C48.6637 54.1426 48.684 54.1863 48.6731 54.2848L46.1262 75.516H15.6731ZM57.9669 74.1785C57.2684 75.0285 56.2278 75.516 55.1137 75.516H48.6419L51.1544 54.5816C51.2497 53.7848 51.009 53.0176 50.4778 52.4223C49.9387 51.8191 49.2278 51.5004 48.4215 51.5004H13.3778C12.5715 51.5004 11.8606 51.8191 11.3215 52.4223C10.7903 53.0176 10.5497 53.7848 10.645 54.5816L13.1559 75.516H6.68561C5.57154 75.516 4.53092 75.0285 3.83248 74.1785C3.13248 73.3285 2.85592 72.2129 3.06998 71.1191L6.68404 52.7926C6.96842 51.3551 7.94342 50.316 9.36061 49.9441L19.62 47.2426C20.7544 46.9457 21.7012 46.3895 22.509 45.5426L23.4356 44.5754C24.3856 47.8004 27.3715 50.1613 30.8997 50.1613C34.4278 50.1613 37.4137 47.8004 38.3637 44.5754L39.2887 45.5395C40.0997 46.3879 41.045 46.9441 42.1778 47.2395L52.4403 49.941C53.8559 50.3129 54.8309 51.352 55.1153 52.7879L55.2622 53.5332L55.2715 53.5832L57.8294 66.5551L57.834 66.5785L58.7294 71.116C58.9434 72.2129 58.6653 73.3285 57.9669 74.1785ZM54.8075 47.6395C54.8075 44.4629 57.3903 41.8769 60.5653 41.8769C63.7419 41.8769 66.3278 44.4613 66.3278 47.6395C66.3278 50.8144 63.7434 53.3973 60.5653 53.3973C59.5122 53.3973 58.5044 53.1191 57.62 52.5895L57.5653 52.3082C57.2247 50.5863 56.2465 49.177 54.8434 48.2957C54.8197 48.0778 54.8077 47.8587 54.8075 47.6395ZM77.9981 49.716C77.9981 49.8082 77.9606 49.8598 77.8731 49.8879L75.145 50.7754C74.359 51.0348 73.7637 51.6051 73.4653 52.3926C73.3403 52.7301 73.2044 53.0598 73.0512 53.3941C72.7028 54.1488 72.7153 54.977 73.095 55.7348L74.3981 58.2863C74.4231 58.3363 74.4481 58.4129 74.3653 58.4957L71.4294 61.4316C71.3419 61.5176 71.2653 61.4941 71.2153 61.4676L68.659 60.1629C67.9122 59.7848 67.0825 59.7707 66.3278 60.1191C66.0001 60.2692 65.6671 60.4073 65.3294 60.5332C64.5434 60.8191 63.9669 61.416 63.7012 62.2207L62.82 64.9426C62.7919 65.0269 62.7356 65.0676 62.6481 65.0676H60.0825L58.2059 55.5488C58.9637 55.7738 59.7559 55.891 60.5669 55.891C65.1215 55.891 68.8278 52.1879 68.8278 47.6348C68.8278 43.0801 65.1215 39.3738 60.5669 39.3738C56.1184 39.3738 52.4825 42.9129 52.3184 47.3254L44.009 45.1379L45.9872 44.4973C46.7856 44.2348 47.3825 43.6566 47.6653 42.8801C47.7919 42.5426 47.9325 42.2035 48.0809 41.8769C48.4325 41.1176 48.4169 40.2879 48.0372 39.5363L46.734 36.9848C46.709 36.9348 46.684 36.8582 46.7669 36.7754L49.7028 33.8395C49.7903 33.7535 49.8669 33.777 49.9169 33.8035L52.4778 35.1098C53.2262 35.4832 54.0544 35.4973 54.8044 35.1504C55.1382 34.998 55.4775 34.8578 55.8215 34.7301C56.5981 34.4348 57.17 33.841 57.4309 33.0488L58.3169 30.3238C58.345 30.2379 58.3965 30.2004 58.4887 30.2004H62.6481C62.7372 30.2004 62.7919 30.2395 62.82 30.3238L63.7044 33.0551C63.9637 33.8441 64.5387 34.4395 65.3215 34.7332C65.659 34.8598 65.9981 35.0004 66.3247 35.1488C67.0794 35.4988 67.9075 35.4848 68.6653 35.1051L71.2169 33.802C71.2669 33.777 71.3434 33.752 71.4262 33.8348L74.3622 36.7707C74.4481 36.8582 74.4247 36.9348 74.3981 36.9863L73.1044 39.5301C72.7184 40.2785 72.6997 41.1113 73.0512 41.8707C73.2034 42.2018 73.343 42.5385 73.47 42.8801C73.7637 43.6613 74.359 44.2363 75.1544 44.4973L77.8778 45.3785C77.9622 45.4051 78.0012 45.4598 78.0012 45.5504V49.716H77.9981ZM30.8997 60.7316C28.6825 60.7316 26.8778 62.5379 26.8778 64.7582C26.8778 66.9754 28.6825 68.7801 30.8997 68.7801C33.1169 68.7801 34.9215 66.9754 34.9215 64.7582C34.92 62.5379 33.1169 60.7316 30.8997 60.7316ZM30.8997 66.2816C30.059 66.2816 29.3762 65.5988 29.3762 64.7582C29.3762 63.916 30.059 63.2301 30.8997 63.2301C31.7403 63.2301 32.4231 63.916 32.4231 64.7582C32.4231 65.5973 31.7387 66.2816 30.8997 66.2816Z" fill="white"/>
</svg>
