<svg width="80" height="81" viewBox="0 0 80 81" fill="none" xmlns="http://www.w3.org/2000/svg">
<g clip-path="url(#clip0_3463_7130)">
<path d="M39.9538 0.503906C38.5198 0.503906 37.0868 0.580995 35.661 0.734672C34.3541 0.868159 33.0633 1.08708 31.7899 1.35272C31.5428 1.40445 31.2963 1.45874 31.0503 1.51557C23.5472 3.22389 16.696 7.06012 11.3183 12.5643C10.8156 13.0796 10.326 13.6075 9.84991 14.1475C-4.67683 30.8247 -2.93349 56.1205 13.7439 70.6472C29.7103 84.5547 53.7438 83.6293 68.5936 68.5354C69.0967 68.0206 69.5863 67.4927 70.062 66.9523C76.4729 59.6515 80.0057 50.2659 80.0001 40.5499C80.0001 18.4329 62.0707 0.503739 39.9538 0.503906ZM13.0976 14.5666C13.3086 14.3477 13.5275 14.1381 13.7424 13.9259C13.9907 13.6816 14.2376 13.436 14.4913 13.1997C14.7142 12.9915 14.9438 12.7912 15.172 12.5883C15.4297 12.3601 15.686 12.1318 15.9503 11.9115C16.1825 11.7153 16.4215 11.5271 16.6591 11.3376C16.9261 11.124 17.193 10.9104 17.468 10.7048C17.7109 10.5225 17.957 10.3445 18.2062 10.1709C18.4825 9.97332 18.7602 9.77042 19.0418 9.5862C19.2942 9.4161 19.5487 9.24923 19.8054 9.08563C20.0896 8.90242 20.377 8.72441 20.6677 8.55168C21.2199 8.22204 21.7794 7.90471 22.3456 7.59991C22.6126 7.45758 22.8796 7.31826 23.1466 7.1821C23.4512 7.02902 23.7578 6.87995 24.0663 6.73492C24.3333 6.60811 24.6109 6.48129 24.8859 6.36115C25.1996 6.22767 25.5173 6.09418 25.835 5.96069C26.1113 5.84723 26.3863 5.73643 26.6653 5.62964C26.9883 5.50684 27.3154 5.39204 27.6424 5.27724C27.9217 5.17857 28.202 5.0829 28.4834 4.99024C28.8158 4.88345 29.1508 4.78467 29.4872 4.68723C29.7689 4.6058 30.0478 4.5217 30.3308 4.44561C30.439 4.41758 30.5471 4.39489 30.6552 4.36686C26.7039 8.20352 23.7718 12.9649 22.124 18.2201C18.9557 17.3845 15.8886 16.2041 12.9775 14.7001C13.0216 14.6534 13.0589 14.6067 13.0976 14.5666ZM11.1781 16.7157C14.3846 18.4531 17.7849 19.8063 21.3084 20.7471C19.5811 26.7533 18.6745 32.9656 18.6133 39.215H2.60823C2.89902 30.9741 5.91274 23.0619 11.1781 16.7157ZM11.1781 64.384C5.91306 58.0377 2.89938 50.1256 2.60823 41.8847H18.6133C18.6744 48.1341 19.581 54.3465 21.3084 60.3527C17.785 61.2938 14.3848 62.6469 11.1781 64.384ZM30.3228 76.6595C30.0532 76.5914 29.7742 76.5033 29.4965 76.4219C29.1588 76.3231 28.8198 76.2243 28.486 76.1162C28.2044 76.0254 27.9267 75.928 27.6491 75.8305C27.3201 75.718 26.993 75.6001 26.6679 75.4768C26.3912 75.3707 26.1158 75.2612 25.8417 75.1484C25.5226 75.0149 25.2036 74.8814 24.8872 74.7479C24.6147 74.6277 24.3437 74.504 24.0743 74.3768C23.7633 74.23 23.4536 74.0805 23.1399 73.9257C22.8729 73.7922 22.6059 73.6587 22.339 73.5132C22.0373 73.3517 21.7383 73.1861 21.4393 73.0153C21.1723 72.8671 20.9187 72.7149 20.661 72.5601C20.3681 72.3836 20.0779 72.2024 19.7907 72.0168C19.5371 71.8553 19.2834 71.6911 19.0338 71.5229C18.7494 71.3293 18.4677 71.1317 18.1888 70.9302C17.9446 70.7553 17.7003 70.5805 17.46 70.3963C17.1845 70.1872 16.9122 69.9741 16.6431 69.7569C16.4068 69.5686 16.1719 69.3818 15.9409 69.1882C15.674 68.9666 15.4163 68.7357 15.1574 68.5061C14.9304 68.3045 14.7022 68.1056 14.4806 67.9001C14.2256 67.6624 13.9787 67.4155 13.7304 67.1712C13.5155 66.959 13.2965 66.7494 13.0856 66.5318C13.0469 66.4904 13.0095 66.4477 12.9708 66.4077C15.8817 64.9029 18.9489 63.7221 22.1174 62.8863C23.7654 68.1414 26.6975 72.9027 30.6485 76.7396C30.5404 76.7115 30.431 76.6888 30.3228 76.6595ZM38.6191 77.8208C32.9071 77.0092 27.9 71.0477 24.7497 62.2442C29.3044 61.2243 33.9521 60.6773 38.6191 60.6117V77.8208ZM38.6191 57.9419C33.6684 58.007 28.7385 58.595 23.9114 59.6959C22.2353 53.9047 21.3512 47.9132 21.2831 41.8847H38.6191V57.9419ZM38.6191 39.215H21.2831C21.351 33.1865 22.2352 27.195 23.9114 21.4038C28.7386 22.5046 33.6684 23.0926 38.6191 23.1578V39.215ZM38.6191 20.4881C33.9521 20.423 29.3043 19.8759 24.7497 18.8555C27.9 10.0521 32.9071 4.09054 38.6191 3.27894V20.4881ZM68.7298 16.7157C73.9948 23.0621 77.0085 30.9742 77.2996 39.215H61.2945C61.2335 32.9656 60.3269 26.7533 58.5994 20.7471C62.1228 19.8058 65.523 18.4527 68.7298 16.7157ZM49.5743 4.43894C49.8547 4.50835 50.1337 4.59645 50.4113 4.67788C50.749 4.77666 51.0881 4.87544 51.4218 4.98357C51.7035 5.07434 51.9811 5.17178 52.2588 5.26923C52.5872 5.38269 52.9155 5.49883 53.2399 5.62297C53.5176 5.72843 53.7912 5.83922 54.0662 5.95135C54.3852 6.08484 54.7043 6.21832 55.0206 6.35181C55.2929 6.47195 55.5639 6.59559 55.8336 6.7229C56.1446 6.86974 56.4543 7.01925 56.768 7.17409C57.0349 7.30758 57.3019 7.44107 57.5689 7.58657C57.8706 7.74809 58.1696 7.91361 58.4686 8.08447C58.7356 8.23264 58.9892 8.38482 59.2468 8.53966C59.5398 8.71619 59.8299 8.89731 60.1172 9.08296C60.3708 9.24448 60.6244 9.40866 60.874 9.57686C61.158 9.77003 61.4392 9.96716 61.7177 10.1682C61.9641 10.3426 62.208 10.5206 62.4492 10.7022C62.7242 10.9091 62.9938 11.124 63.2648 11.3402C63.4997 11.5271 63.736 11.714 63.9669 11.9089C64.2339 12.1305 64.4915 12.3614 64.7505 12.591C64.9774 12.7926 65.2057 12.9915 65.4273 13.197C65.6822 13.4346 65.9292 13.6816 66.1775 13.9259C66.3924 14.1381 66.6113 14.3477 66.8222 14.5653C66.8609 14.6067 66.8983 14.6494 66.937 14.6894C64.0261 16.1942 60.9589 17.375 57.7905 18.2108C56.1392 12.9551 53.2034 8.19412 49.2486 4.35885C49.3568 4.38688 49.4662 4.40957 49.5743 4.43894ZM41.2888 3.27894C47.0007 4.09054 52.0078 10.0521 55.1581 18.8555C50.6035 19.8754 45.9558 20.4225 41.2888 20.4881V3.27894ZM41.2888 23.1578C46.2394 23.0927 51.1693 22.5048 55.9964 21.4038C57.6725 27.195 58.5567 33.1865 58.6248 39.215H41.2888V23.1578ZM41.2888 41.8847H58.6248C58.5568 47.9132 57.6727 53.9048 55.9964 59.6959C51.1693 58.5951 46.2394 58.0072 41.2888 57.9419V41.8847ZM41.2888 77.8208V60.6117C45.9558 60.6767 50.6035 61.2239 55.1581 62.2442C52.0078 71.0477 47.0007 77.0092 41.2888 77.8208ZM66.8102 66.5331C66.5993 66.7507 66.3817 66.9603 66.1668 67.1725C65.9185 67.4168 65.6702 67.6638 65.4153 67.9014C65.1937 68.1083 64.9654 68.3018 64.7385 68.5088C64.4795 68.7383 64.2219 68.9679 63.9576 69.1895C63.724 69.3844 63.4864 69.5726 63.2488 69.7622C62.9818 69.9758 62.7148 70.1894 62.4398 70.3949C62.1969 70.5772 61.9508 70.7552 61.7016 70.9289C61.4253 71.1264 61.1477 71.3293 60.866 71.5135C60.614 71.6837 60.3594 71.8501 60.1025 72.0128C59.818 72.1963 59.5301 72.3743 59.2388 72.5467C58.9718 72.7029 58.7169 72.8551 58.4539 73.0059C57.8971 73.323 57.3328 73.6265 56.7613 73.9163C56.4567 74.0694 56.1501 74.2185 55.8416 74.3635C55.5746 74.4903 55.2969 74.6171 55.022 74.7373C54.7083 74.8707 54.3906 75.0042 54.0729 75.1377C53.7965 75.2498 53.5216 75.362 53.2439 75.4674C52.9182 75.5916 52.5912 75.7077 52.2628 75.8212C51.985 75.92 51.706 76.0152 51.4258 76.1068C51.0921 76.215 50.7584 76.3137 50.418 76.4112C50.139 76.4939 49.8587 76.5767 49.577 76.6528C49.4689 76.6808 49.3608 76.7035 49.2526 76.7316C53.2039 72.8949 56.1361 68.1335 57.7838 62.8783C60.9521 63.7139 64.0193 64.8943 66.9303 66.3983C66.8863 66.4464 66.8489 66.4931 66.8102 66.5331ZM68.7298 64.384C65.5232 62.6466 62.1229 61.2935 58.5994 60.3527C60.3268 54.3465 61.2334 48.1341 61.2945 41.8847H77.2996C77.0089 50.1257 73.9952 58.0379 68.7298 64.384Z" fill="white"/>
</g>
<defs>
<clipPath id="clip0_3463_7130">
<rect width="80" height="80" fill="white" transform="translate(0 0.5)"/>
</clipPath>
</defs>
</svg>
