<svg width="81" height="80" viewBox="0 0 81 80" fill="none" xmlns="http://www.w3.org/2000/svg">
<g clip-path="url(#clip0_3497_173)">
<path d="M77.8333 64V16C77.8312 14.2325 77.1282 12.5381 75.8784 11.2883C74.6286 10.0385 72.9341 9.33545 71.1667 9.33333H57.4693C57.4822 8.96934 57.4203 8.60657 57.2875 8.26741C57.1547 7.92825 56.9539 7.61989 56.6973 7.36133L54.472 5.13733C54.0367 4.70099 53.4636 4.42893 52.8503 4.36743C52.237 4.30593 51.6213 4.45878 51.108 4.8L47.6867 7.04933C46.9782 6.69349 46.2436 6.39217 45.4893 6.148L44.6893 2.148C44.5693 1.54252 44.2429 0.997443 43.7658 0.605732C43.2888 0.214021 42.6906 -6.01592e-05 42.0733 1.26809e-08L38.9267 1.26809e-08C38.3104 2.36972e-06 37.7131 0.213466 37.2364 0.604093C36.7598 0.99472 36.4331 1.53839 36.312 2.14267L35.48 6.15467C34.7271 6.40211 33.9942 6.707 33.288 7.06667L29.8933 4.8C29.3805 4.45776 28.7649 4.30381 28.1513 4.36434C27.5377 4.42487 26.9641 4.69615 26.528 5.132L24.304 7.36133C23.784 7.88267 23.504 8.59733 23.5307 9.33333H9.83333C8.06587 9.33545 6.37141 10.0385 5.12163 11.2883C3.87184 12.5381 3.16878 14.2325 3.16667 16V64C2.45942 64 1.78115 64.281 1.28105 64.7811C0.780952 65.2811 0.5 65.9594 0.5 66.6667L0.5 70.6667C0.502823 73.1412 1.48706 75.5135 3.23679 77.2632C4.98652 79.0129 7.35885 79.9972 9.83333 80H71.1667C73.6412 79.9972 76.0135 79.0129 77.7632 77.2632C79.5129 75.5135 80.4972 73.1412 80.5 70.6667V66.6667C80.5 65.9594 80.2191 65.2811 79.719 64.7811C79.2189 64.281 78.5406 64 77.8333 64ZM28.4133 7.02133L31.8093 9.288C32.6187 9.81733 33.6493 9.87467 34.512 9.43467C35.0933 9.14133 35.696 8.89333 36.3147 8.68933C36.7685 8.54271 37.1753 8.27819 37.4935 7.92281C37.8116 7.56743 38.0297 7.13394 38.1253 6.66667L38.9253 2.66667H42.072L42.872 6.66667C42.9687 7.13273 43.1873 7.56483 43.5053 7.91896C43.8234 8.27309 44.2296 8.53661 44.6827 8.68267C45.3013 8.88667 45.904 9.136 46.4867 9.428C47.348 9.868 48.38 9.812 49.188 9.28133L52.584 7.01467L54.8093 9.24L52.5427 12.636C52.2823 13.0336 52.1316 13.493 52.1058 13.9676C52.08 14.4422 52.1802 14.9152 52.396 15.3387C52.6893 15.92 52.9373 16.5227 53.1413 17.1413C53.2872 17.5968 53.5517 18.0052 53.9076 18.3246C54.2636 18.644 54.6981 18.8628 55.1667 18.9587L59.1667 19.7587V22.9053L55.1667 23.7053C54.7006 23.8021 54.2685 24.0206 53.9144 24.3387C53.5602 24.6567 53.2967 25.063 53.1507 25.516C52.9467 26.1347 52.6973 26.7373 52.4053 27.32C51.9653 28.1813 52.0213 29.2133 52.552 30.0213L54.8187 33.4173L52.5933 35.6427L49.1973 33.376C48.7993 33.1165 48.3401 32.9663 47.8657 32.9406C47.3912 32.9148 46.9184 33.0144 46.4947 33.2293C45.9133 33.5227 45.3107 33.7707 44.692 33.9747C44.2365 34.1205 43.8281 34.385 43.5087 34.7409C43.1894 35.0969 42.9705 35.5315 42.8747 36L42.0747 40H38.9267L38.1267 36C38.0299 35.5339 37.8114 35.1018 37.4933 34.7477C37.1753 34.3936 36.769 34.1301 36.316 33.984C35.6973 33.78 35.0947 33.5307 34.512 33.2387C34.1293 33.0463 33.707 32.9458 33.2787 32.9453C32.7573 32.9453 32.2467 33.0973 31.812 33.3853L28.416 35.652L26.1907 33.4267L28.4573 30.0307C28.988 29.2213 29.044 28.1907 28.604 27.328C28.3118 26.7462 28.0627 26.1436 27.8587 25.5253C27.7128 25.0699 27.4483 24.6615 27.0924 24.3421C26.7364 24.0227 26.3019 23.8038 25.8333 23.708L21.8333 22.908V19.76L25.8333 18.96C26.2994 18.8633 26.7315 18.6447 27.0856 18.3267C27.4398 18.0086 27.7033 17.6024 27.8493 17.1493C28.0533 16.5307 28.3027 15.928 28.5947 15.3453C29.0347 14.484 28.9787 13.452 28.448 12.644L26.1813 9.248L28.4133 7.02133ZM5.83333 16C5.83333 14.9391 6.25476 13.9217 7.00491 13.1716C7.75505 12.4214 8.77247 12 9.83333 12H24.8053L26.216 14.1467C25.8602 14.8551 25.5588 15.5897 25.3147 16.344L21.3147 17.144C20.7092 17.2641 20.1641 17.5905 19.7724 18.0675C19.3807 18.5446 19.1666 19.1427 19.1667 19.76V22.9067C19.1667 23.523 19.3801 24.1202 19.7708 24.5969C20.1614 25.0736 20.7051 25.4002 21.3093 25.5213L25.3213 26.3533C25.5693 27.1067 25.8733 27.8387 26.2333 28.5453L23.9667 31.94C23.6244 32.4529 23.4705 33.0684 23.531 33.682C23.5915 34.2956 23.8628 34.8692 24.2987 35.3053L26.524 37.5293C26.9597 37.9653 27.5329 38.2368 28.1462 38.2978C28.7595 38.3589 29.375 38.2056 29.888 37.864L33.3093 35.6173C34.0178 35.9732 34.7524 36.2745 35.5067 36.5187L36.3067 40.5187C36.4269 41.1248 36.7538 41.6704 37.2317 42.0622C37.7096 42.454 38.3087 42.6677 38.9267 42.6667H42.0733C42.6896 42.6667 43.2869 42.4532 43.7636 42.0626C44.2402 41.6719 44.5669 41.1283 44.688 40.524L45.52 36.512C46.2729 36.2646 47.0058 35.9597 47.712 35.6L51.1067 37.8667C51.6195 38.2089 52.2351 38.3629 52.8487 38.3023C53.4623 38.2418 54.0359 37.9705 54.472 37.5347L56.696 35.3093C57.1319 34.8737 57.4035 34.3004 57.4645 33.6871C57.5255 33.0738 57.3722 32.4584 57.0307 31.9453L54.784 28.52C55.1398 27.8115 55.4412 27.077 55.6853 26.3227L59.6853 25.5227C60.2908 25.4026 60.8359 25.0762 61.2276 24.5992C61.6193 24.1221 61.8334 23.5239 61.8333 22.9067V19.76C61.8333 19.1437 61.6199 18.5465 61.2292 18.0698C60.8386 17.5931 60.2949 17.2664 59.6907 17.1453L55.6787 16.3133C55.4312 15.5604 55.1263 14.8276 54.7667 14.1213L56.1813 12H71.1667C72.2275 12 73.2449 12.4214 73.9951 13.1716C74.7452 13.9217 75.1667 14.9391 75.1667 16V64H5.83333V16ZM28.5 66.6667H52.5V68C52.5 68.7072 52.2191 69.3855 51.719 69.8856C51.2189 70.3857 50.5406 70.6667 49.8333 70.6667H31.1667C30.4594 70.6667 29.7811 70.3857 29.281 69.8856C28.781 69.3855 28.5 68.7072 28.5 68V66.6667ZM77.8333 70.6667C77.8312 72.4341 77.1282 74.1286 75.8784 75.3784C74.6286 76.6282 72.9341 77.3312 71.1667 77.3333H9.83333C8.06587 77.3312 6.37141 76.6282 5.12163 75.3784C3.87184 74.1286 3.16878 72.4341 3.16667 70.6667V66.6667H25.8333V68C25.8333 69.4145 26.3952 70.771 27.3954 71.7712C28.3956 72.7714 29.7522 73.3333 31.1667 73.3333H49.8333C51.2478 73.3333 52.6044 72.7714 53.6046 71.7712C54.6048 70.771 55.1667 69.4145 55.1667 68V66.6667H77.8333V70.6667Z" fill="white"/>
<path d="M20.5013 69.333H16.5013C16.1477 69.333 15.8085 69.4735 15.5585 69.7235C15.3084 69.9736 15.168 70.3127 15.168 70.6663C15.168 71.02 15.3084 71.3591 15.5585 71.6092C15.8085 71.8592 16.1477 71.9997 16.5013 71.9997H20.5013C20.8549 71.9997 21.1941 71.8592 21.4441 71.6092C21.6942 71.3591 21.8346 71.02 21.8346 70.6663C21.8346 70.3127 21.6942 69.9736 21.4441 69.7235C21.1941 69.4735 20.8549 69.333 20.5013 69.333Z" fill="white"/>
<path d="M8.5013 71.9997C9.23768 71.9997 9.83464 71.4027 9.83464 70.6663C9.83464 69.93 9.23768 69.333 8.5013 69.333C7.76492 69.333 7.16797 69.93 7.16797 70.6663C7.16797 71.4027 7.76492 71.9997 8.5013 71.9997Z" fill="white"/>
<path d="M12.5013 71.9997C13.2377 71.9997 13.8346 71.4027 13.8346 70.6663C13.8346 69.93 13.2377 69.333 12.5013 69.333C11.7649 69.333 11.168 69.93 11.168 70.6663C11.168 71.4027 11.7649 71.9997 12.5013 71.9997Z" fill="white"/>
<path d="M40.5 32.0003C42.6097 32.0003 44.672 31.3747 46.4261 30.2027C48.1802 29.0306 49.5474 27.3647 50.3547 25.4156C51.1621 23.4665 51.3733 21.3218 50.9617 19.2527C50.5501 17.1836 49.5342 15.283 48.0425 13.7912C46.5507 12.2994 44.6501 11.2835 42.581 10.872C40.5118 10.4604 38.3671 10.6716 36.4181 11.4789C34.469 12.2863 32.8031 13.6535 31.631 15.4076C30.4589 17.1617 29.8333 19.224 29.8333 21.3337C29.8365 24.1617 30.9613 26.8729 32.961 28.8726C34.9607 30.8723 37.672 31.9972 40.5 32.0003ZM40.5 13.3337C42.6217 13.3337 44.6566 14.1765 46.1569 15.6768C47.6572 17.1771 48.5 19.2119 48.5 21.3337C48.5 23.4554 47.6572 25.4902 46.1569 26.9905C44.6566 28.4908 42.6217 29.3337 40.5 29.3337C38.3783 29.3337 36.3434 28.4908 34.8432 26.9905C33.3429 25.4902 32.5 23.4554 32.5 21.3337C32.5 19.2119 33.3429 17.1771 34.8432 15.6768C36.3434 14.1765 38.3783 13.3337 40.5 13.3337ZM32.5 49.3337C32.5 46.9603 31.7962 44.6402 30.4776 42.6668C29.1591 40.6934 27.2849 39.1554 25.0922 38.2471C22.8995 37.3389 20.4867 37.1012 18.1589 37.5642C15.8312 38.0273 13.693 39.1702 12.0147 40.8484C10.3365 42.5266 9.1936 44.6648 8.73058 46.9926C8.26756 49.3204 8.5052 51.7332 9.41345 53.9259C10.3217 56.1186 11.8598 57.9927 13.8332 59.3113C15.8066 60.6299 18.1266 61.3337 20.5 61.3337C23.6814 61.3298 26.7314 60.0643 28.981 57.8147C31.2306 55.5651 32.4961 52.5151 32.5 49.3337ZM20.5 58.667C18.654 58.667 16.8495 58.1196 15.3147 57.0941C13.7798 56.0685 12.5835 54.6108 11.8771 52.9054C11.1707 51.1999 10.9859 49.3233 11.346 47.5128C11.7061 45.7023 12.5951 44.0393 13.9003 42.734C15.2056 41.4287 16.8687 40.5398 18.6792 40.1797C20.4897 39.8195 22.3663 40.0044 24.0717 40.7108C25.7772 41.4172 27.2348 42.6135 28.2604 44.1483C29.286 45.6832 29.8333 47.4877 29.8333 49.3337C29.8305 51.8082 28.8463 54.1805 27.0966 55.9302C25.3468 57.6799 22.9745 58.6642 20.5 58.667ZM60.5 61.3337C62.8734 61.3337 65.1935 60.6299 67.1669 59.3113C69.1402 57.9927 70.6783 56.1186 71.5866 53.9259C72.4948 51.7332 72.7325 49.3204 72.2694 46.9926C71.8064 44.6648 70.6635 42.5266 68.9853 40.8484C67.3071 39.1702 65.1689 38.0273 62.8411 37.5642C60.5133 37.1012 58.1005 37.3389 55.9078 38.2471C53.7151 39.1554 51.841 40.6934 50.5224 42.6668C49.2038 44.6402 48.5 46.9603 48.5 49.3337C48.5039 52.5151 49.7694 55.5651 52.019 57.8147C54.2686 60.0643 57.3186 61.3298 60.5 61.3337ZM60.5 40.0003C62.346 40.0003 64.1505 40.5477 65.6853 41.5733C67.2202 42.5988 68.4165 44.0565 69.1229 45.762C69.8293 47.4674 70.0141 49.344 69.654 51.1545C69.2939 52.965 68.405 54.628 67.0997 55.9333C65.7944 57.2386 64.1313 58.1275 62.3209 58.4877C60.5104 58.8478 58.6337 58.663 56.9283 57.9565C55.2229 57.2501 53.7652 56.0539 52.7396 54.519C51.7141 52.9841 51.1667 51.1796 51.1667 49.3337C51.1695 46.8592 52.1537 44.4868 53.9035 42.7371C55.6532 40.9874 58.0255 40.0032 60.5 40.0003Z" fill="white"/>
<path d="M26.7778 44.3904C26.5278 44.1404 26.1887 44 25.8352 44C25.4816 44 25.1425 44.1404 24.8925 44.3904L17.8352 51.4477L16.1112 49.7237C15.8597 49.4808 15.5229 49.3464 15.1733 49.3495C14.8237 49.3525 14.4893 49.4927 14.2421 49.74C13.9949 49.9872 13.8547 50.3216 13.8516 50.6712C13.8486 51.0208 13.983 51.3576 14.2258 51.609L16.8925 54.2757C17.1425 54.5257 17.4816 54.6661 17.8352 54.6661C18.1887 54.6661 18.5278 54.5257 18.7778 54.2757L26.7778 46.2757C27.0278 46.0257 27.1682 45.6866 27.1682 45.333C27.1682 44.9795 27.0278 44.6404 26.7778 44.3904ZM55.5592 54.2757C55.8092 54.5257 56.1483 54.6661 56.5019 54.6661C56.8554 54.6661 57.1945 54.5257 57.4445 54.2757L60.5019 51.2184L63.5592 54.2757C63.8107 54.5186 64.1475 54.653 64.4971 54.6499C64.8467 54.6469 65.1811 54.5067 65.4283 54.2595C65.6755 54.0123 65.8157 53.6778 65.8188 53.3283C65.8218 52.9787 65.6874 52.6419 65.4445 52.3904L62.3872 49.333L65.4445 46.2757C65.6874 46.0242 65.8218 45.6874 65.8188 45.3378C65.8157 44.9882 65.6755 44.6538 65.4283 44.4066C65.1811 44.1594 64.8467 44.0192 64.4971 44.0161C64.1475 44.0131 63.8107 44.1475 63.5592 44.3904L60.5019 47.4477L57.4445 44.3904C57.1931 44.1475 56.8562 44.0131 56.5066 44.0161C56.1571 44.0192 55.8226 44.1594 55.5754 44.4066C55.3282 44.6538 55.188 44.9882 55.1849 45.3378C55.1819 45.6874 55.3163 46.0242 55.5592 46.2757L58.6165 49.333L55.5592 52.3904C55.3092 52.6404 55.1688 52.9795 55.1688 53.333C55.1688 53.6866 55.3092 54.0257 55.5592 54.2757Z" fill="white"/>
</g>
<defs>
<clipPath id="clip0_3497_173">
<rect width="80" height="80" fill="white" transform="translate(0.5)"/>
</clipPath>
</defs>
</svg>
