<svg width="56" height="56" viewBox="0 0 56 56" fill="none" xmlns="http://www.w3.org/2000/svg">
<g clip-path="url(#clip0_4058_941)">
<path d="M35.3565 5.52347C35.2425 5.17244 35.0352 4.85897 34.7569 4.61651C34.4786 4.37406 34.1397 4.21171 33.7764 4.1468L31.0763 3.6792L29.8088 1.13307C29.4588 0.434933 28.7663 0 28 0C27.2337 0 26.5412 0.434933 26.1912 1.134L24.9237 3.68013L22.2245 4.14773C21.8609 4.2121 21.5216 4.37424 21.243 4.61676C20.9645 4.85929 20.7572 5.17305 20.6435 5.5244C20.5216 5.88518 20.5001 6.27231 20.5813 6.64436C20.6625 7.0164 20.8434 7.35936 21.1045 7.63653L23.0459 9.69173L22.6333 12.5533C22.5756 12.9341 22.6246 13.3234 22.7749 13.678C22.9251 14.0326 23.1708 14.3385 23.4845 14.5619C23.7837 14.7748 24.1359 14.9008 24.5023 14.926C24.8686 14.9512 25.2348 14.8746 25.5603 14.7047L27.9991 13.4344L30.4379 14.7047C30.7633 14.8754 31.1298 14.9525 31.4964 14.9273C31.8631 14.9021 32.2155 14.7756 32.5145 14.5619C32.8284 14.3386 33.0741 14.0327 33.2244 13.6781C33.3746 13.3234 33.4236 12.9341 33.3657 12.5533L32.9532 9.69173L34.8945 7.63653C35.1557 7.35936 35.3365 7.0164 35.4177 6.64436C35.499 6.27231 35.4775 5.88518 35.3556 5.5244L35.3565 5.52347ZM33.5393 6.35413L31.2881 8.73787C31.1914 8.83991 31.1191 8.96255 31.0766 9.09656C31.0341 9.23057 31.0225 9.37247 31.0427 9.5116L31.5205 12.8193C31.5392 12.9519 31.4673 13.0172 31.4365 13.0396C31.3712 13.0835 31.3264 13.062 31.3012 13.0499L28.4312 11.5537C28.2979 11.4847 28.1501 11.4487 28 11.4487C27.8499 11.4487 27.7021 11.4847 27.5688 11.5537L24.6988 13.0499C24.6736 13.0629 24.6279 13.0835 24.5635 13.0396C24.5327 13.0172 24.4617 12.9509 24.4795 12.8193L24.9573 9.5116C24.9775 9.37247 24.9659 9.23057 24.9234 9.09656C24.8809 8.96255 24.8086 8.83991 24.7119 8.73787L22.4607 6.35413C22.4316 6.32212 22.4118 6.28273 22.4036 6.24027C22.3954 6.1978 22.399 6.1539 22.414 6.11333C22.4383 6.0396 22.4812 5.9976 22.5428 5.9864L25.7087 5.4376C26.0008 5.38627 26.2519 5.1996 26.3853 4.9336L27.8637 1.9656C27.8759 1.94133 27.9132 1.86667 28 1.86667C28.0868 1.86667 28.1251 1.9404 28.1363 1.96467L29.6147 4.9336C29.7481 5.1996 29.9983 5.38627 30.2913 5.4376L33.4581 5.9864C33.5179 5.9976 33.5608 6.0396 33.586 6.11333C33.6012 6.15386 33.6049 6.19782 33.5967 6.24033C33.5885 6.28284 33.5686 6.32223 33.5393 6.35413ZM18.5565 12.9901C18.4425 12.6391 18.2352 12.3256 17.9569 12.0832C17.6786 11.8407 17.3397 11.6784 16.9764 11.6135L14.2763 11.1459L13.0088 8.59973C12.6607 7.9016 11.9681 7.46667 11.2009 7.46667C10.4337 7.46667 9.74213 7.9016 9.39213 8.60067L8.12467 11.1468L5.42547 11.6144C5.0618 11.6788 4.72251 11.8409 4.44398 12.0834C4.16545 12.326 3.95818 12.6397 3.8444 12.9911C3.72253 13.3518 3.70105 13.739 3.78226 14.111C3.86348 14.4831 4.04433 14.826 4.30547 15.1032L6.2468 17.1584L5.83427 20.02C5.77653 20.4008 5.82553 20.7901 5.9758 21.1447C6.12606 21.4992 6.37173 21.8052 6.68547 22.0285C6.98463 22.2415 7.33686 22.3675 7.70319 22.3927C8.06953 22.4179 8.43569 22.3413 8.7612 22.1713L11.2 20.9011L13.6388 22.1713C13.9642 22.3421 14.3307 22.4192 14.6974 22.3939C15.064 22.3687 15.4165 22.2422 15.7155 22.0285C16.0293 21.8053 16.275 21.4993 16.4253 21.1447C16.5756 20.7901 16.6245 20.4008 16.5667 20.02L16.1541 17.1584L18.0955 15.1032C18.3566 14.826 18.5375 14.4831 18.6187 14.111C18.6999 13.739 18.6784 13.3509 18.5565 12.9901ZM16.7393 13.8208L14.4881 16.2045C14.3914 16.3066 14.3191 16.4292 14.2766 16.5632C14.2341 16.6972 14.2225 16.8391 14.2427 16.9783L14.7205 20.286C14.7392 20.4185 14.6673 20.4839 14.6365 20.5063C14.5712 20.5501 14.5264 20.5296 14.5012 20.5165L11.6312 19.0204C11.4979 18.9514 11.3501 18.9154 11.2 18.9154C11.0499 18.9154 10.9021 18.9514 10.7688 19.0204L7.8988 20.5165C7.8736 20.5305 7.8288 20.5501 7.76347 20.5063C7.73267 20.4839 7.66173 20.4176 7.67947 20.286L8.15733 16.9783C8.17753 16.8391 8.16593 16.6972 8.12342 16.5632C8.0809 16.4292 8.00857 16.3066 7.91187 16.2045L5.66067 13.8208C5.63158 13.7888 5.61184 13.7494 5.60362 13.7069C5.59539 13.6645 5.59898 13.6206 5.614 13.58C5.63827 13.5063 5.6812 13.4643 5.7428 13.4531L8.90867 12.9043C9.2008 12.8529 9.45187 12.6663 9.58533 12.4003L11.0637 9.43227C11.0759 9.408 11.1132 9.33333 11.2 9.33333C11.2868 9.33333 11.3251 9.40707 11.3363 9.43133L12.8147 12.4003C12.9481 12.6663 13.1983 12.8529 13.4913 12.9043L16.6581 13.4531C16.7179 13.4643 16.7608 13.5063 16.786 13.58C16.8012 13.6205 16.8049 13.6645 16.7967 13.707C16.7885 13.7495 16.7686 13.7889 16.7393 13.8208ZM52.1565 12.9901C52.0425 12.6391 51.8352 12.3256 51.5569 12.0832C51.2786 11.8407 50.9397 11.6784 50.5764 11.6135L47.8763 11.1459L46.6088 8.59973C46.2607 7.9016 45.5681 7.46667 44.8009 7.46667C44.0337 7.46667 43.3421 7.9016 42.9921 8.60067L41.7247 11.1468L39.0255 11.6144C38.6618 11.6788 38.3225 11.8409 38.044 12.0834C37.7655 12.326 37.5582 12.6397 37.4444 12.9911C37.3225 13.3518 37.301 13.739 37.3823 14.111C37.4635 14.4831 37.6443 14.826 37.9055 15.1032L39.8468 17.1584L39.4343 20.02C39.3765 20.4008 39.4255 20.7901 39.5758 21.1447C39.7261 21.4992 39.9717 21.8052 40.2855 22.0285C40.5846 22.2415 40.9369 22.3675 41.3032 22.3927C41.6695 22.4179 42.0357 22.3413 42.3612 22.1713L44.8 20.9011L47.2388 22.1713C47.5642 22.3421 47.9307 22.4192 48.2974 22.3939C48.664 22.3687 49.0165 22.2422 49.3155 22.0285C49.6293 21.8053 49.875 21.4993 50.0253 21.1447C50.1756 20.7901 50.2245 20.4008 50.1667 20.02L49.7541 17.1584L51.6955 15.1032C51.9566 14.826 52.1375 14.4831 52.2187 14.111C52.2999 13.739 52.2784 13.3509 52.1565 12.9901ZM50.3393 13.8208L48.0881 16.2045C47.9914 16.3066 47.9191 16.4292 47.8766 16.5632C47.8341 16.6972 47.8225 16.8391 47.8427 16.9783L48.3205 20.286C48.3392 20.4185 48.2673 20.4839 48.2365 20.5063C48.1712 20.5501 48.1264 20.5296 48.1012 20.5165L45.2312 19.0204C45.0979 18.9514 44.9501 18.9154 44.8 18.9154C44.6499 18.9154 44.5021 18.9514 44.3688 19.0204L41.4988 20.5165C41.4745 20.5305 41.4279 20.5501 41.3635 20.5063C41.3327 20.4839 41.2617 20.4176 41.2795 20.286L41.7573 16.9783C41.7775 16.8391 41.7659 16.6972 41.7234 16.5632C41.6809 16.4292 41.6086 16.3066 41.5119 16.2045L39.2607 13.8208C39.2316 13.7888 39.2118 13.7494 39.2036 13.7069C39.1954 13.6645 39.199 13.6206 39.214 13.58C39.2383 13.5063 39.2812 13.4643 39.3428 13.4531L42.5087 12.9043C42.8008 12.8529 43.0519 12.6663 43.1853 12.4003L44.6637 9.43227C44.6759 9.408 44.7132 9.33333 44.8 9.33333C44.8868 9.33333 44.9251 9.40707 44.9363 9.43133L46.4147 12.4003C46.5481 12.6663 46.7983 12.8529 47.0913 12.9043L50.2581 13.4531C50.3179 13.4643 50.3608 13.5063 50.386 13.58C50.4012 13.6205 50.4049 13.6645 50.3967 13.707C50.3885 13.7495 50.3686 13.7889 50.3393 13.8208ZM28 22.4C12.5608 22.4 0 34.9608 0 50.4C0 51.4295 0.8372 52.2667 1.86667 52.2667H13.0667C14.0961 52.2667 14.9333 51.4295 14.9333 50.4C14.9333 43.1947 20.7947 37.3333 28 37.3333C30.1653 37.3347 32.2962 37.8746 34.2009 38.9043C36.1057 39.934 37.7245 41.4212 38.9116 43.232C34.7489 44.7039 31.5215 45.892 29.1452 46.8253C28.7717 46.7244 28.3869 46.6711 28 46.6667C25.4268 46.6667 23.3333 48.7601 23.3333 51.3333C23.3333 53.9065 25.4268 56 28 56C29.8377 56 31.416 54.9229 32.1767 53.3745C34.6155 52.0464 37.7459 50.2432 40.8949 48.3952C40.9976 49.056 41.0667 49.7243 41.0667 50.4C41.0667 51.4295 41.9039 52.2667 42.9333 52.2667H54.1333C55.1628 52.2667 56 51.4295 56 50.4C56 34.9608 43.4392 22.4 28 22.4ZM37.8719 39.2084C35.3879 37.0119 32.2426 35.7064 28.9333 35.4984V24.29C35.4349 24.5196 41.3383 27.1329 45.7949 31.2853L37.8719 39.2084ZM13.0667 50.4H1.86667C1.86667 43.5297 4.53507 37.2745 8.88533 32.6051L16.8168 40.5365C14.4909 43.1704 13.0667 46.6181 13.0667 50.4ZM18.1365 39.2168L10.2051 31.2853C14.6617 27.1339 20.5641 24.5205 27.0667 24.29V35.5133C23.7602 35.7171 20.6168 37.0208 18.1365 39.2168ZM47.838 42.1036C43.3589 44.7841 37.1541 48.4727 32.6312 50.9917C32.5544 49.8634 32.0682 48.802 31.2639 48.0069C35.0205 46.5743 40.4712 44.632 47.838 42.1036ZM27.9991 54.1333C26.4553 54.1333 25.1991 52.8771 25.1991 51.3333C25.1991 49.7896 26.4553 48.5333 27.9991 48.5333C29.5428 48.5333 30.7991 49.7896 30.7991 51.3333C30.7991 52.8771 29.5428 54.1333 27.9991 54.1333ZM42.9324 50.4C42.9324 49.3789 42.8241 48.3672 42.6197 47.3797C44.814 46.0843 46.9532 44.8084 48.8003 43.7043C49.6393 43.1956 49.9483 42.1867 49.5367 41.3047C49.3463 40.8834 49.004 40.5496 48.5782 40.3698C48.1524 40.19 47.6743 40.1775 47.2397 40.3349C44.8681 41.1488 42.7009 41.9011 40.7167 42.5973C40.2672 41.8663 39.7557 41.1753 39.1879 40.5319L47.1128 32.6069C51.4631 37.2764 54.1315 43.5316 54.1315 50.4019H42.9315L42.9324 50.4Z" fill="#21409C"/>
</g>
<defs>
<clipPath id="clip0_4058_941">
<rect width="56" height="56" fill="white"/>
</clipPath>
</defs>
</svg>
