<svg width="56" height="56" viewBox="0 0 56 56" fill="none" xmlns="http://www.w3.org/2000/svg">
<path d="M51.1908 8.13993L44.5934 7.26839V4.39931C44.5934 2.11279 42.7167 0.253418 40.4115 0.253418H10.7491C8.44274 0.253418 6.56721 2.11279 6.56721 4.39931V26.8408L6.19791 27.2069C5.76241 27.6386 5.52318 28.2131 5.52318 28.8268C5.52318 29.4404 5.76241 30.0149 6.19791 30.4467C6.31288 30.5607 6.43714 30.6597 6.56721 30.7437V35.9845L1.41328 41.0929C0.49584 42.0024 0.429645 43.072 1.21586 44.2717C1.22863 44.2912 1.24141 44.3097 1.25186 44.3258C1.2867 44.419 1.34128 44.5042 1.41328 44.5756C1.88129 45.0396 2.50492 45.2952 3.17035 45.2952C3.83579 45.2952 4.45942 45.0396 4.92743 44.5756L6.56721 42.95V44.0967C6.56721 46.4488 8.13847 47.9801 10.7154 48.2115V50.3921C10.7154 50.7732 11.0278 51.0829 11.4122 51.0829H13.513C14.0689 51.48 14.7152 51.7347 15.3944 51.8243L44.7966 55.7088C44.9836 55.733 45.1682 55.7457 45.3517 55.7457C47.4142 55.7457 49.2143 54.2283 49.4942 52.1467L54.784 12.7959C55.0882 10.5312 53.4763 8.44273 51.1908 8.13993ZM22.216 34.6283L17.9493 38.8582C17.7774 39.0286 17.5475 39.123 17.3013 39.123C17.0551 39.123 16.8251 39.0286 16.6533 38.8582C16.2956 38.5036 16.2956 37.9268 16.6533 37.5722L20.9199 33.3422C21.0988 33.1649 21.3334 33.0763 21.5679 33.0763C21.8025 33.0763 22.0371 33.1649 22.216 33.3422C22.3011 33.4265 22.3686 33.5267 22.4144 33.6369C22.4603 33.7472 22.4836 33.8654 22.4831 33.9847C22.4819 34.2287 22.3878 34.4579 22.216 34.6283ZM18.8435 32.1172L18.8447 32.1184L19.5136 32.7815L16.0865 36.1791L9.88509 30.0311L13.3121 26.6335L18.8435 32.1172ZM12.7466 25.2404L8.4799 29.4704C8.12221 29.825 7.54039 29.825 7.18271 29.4704C6.82502 29.1158 6.82502 28.5389 7.18271 28.1843L11.4494 23.9544C11.6213 23.784 11.8512 23.6908 12.0974 23.6908C12.3436 23.6908 12.5735 23.784 12.7454 23.9544C12.9173 24.1248 13.0125 24.3528 13.0125 24.5968C13.0125 24.8409 12.9185 25.07 12.7466 25.2404ZM7.96079 31.111C8.24763 31.0949 8.531 31.0269 8.79694 30.906L10.2439 32.3406L7.96079 34.6041V31.111ZM3.94147 43.6005C3.73708 43.8031 3.46301 43.9148 3.17035 43.9148C2.91603 43.9148 2.67563 43.8307 2.48169 43.6741C2.4515 43.6223 2.41782 43.5705 2.38414 43.5187C2.00555 42.9419 1.90452 42.5597 2.39808 42.0704L11.2276 33.3169L12.7698 34.8459L3.94147 43.6005ZM10.7154 45.8709V46.8253C9.46702 46.6883 7.96079 46.1057 7.96079 44.0978V41.5695L13.7569 35.8233L15.2039 37.2579C14.8126 38.1041 14.9647 39.1391 15.6661 39.8345C16.1016 40.2662 16.6811 40.5034 17.3001 40.5034C17.9191 40.5034 18.4986 40.2662 18.9341 39.8345L22.3623 36.4358H36.8137C37.1981 36.4358 37.5105 36.1261 37.5105 35.745C37.5105 35.3639 37.1981 35.0542 36.8137 35.0542H23.6107C23.7837 34.7284 23.8766 34.3646 23.8766 33.9847C23.8766 33.371 23.6374 32.7965 23.2019 32.3648C23.1857 32.3486 23.1682 32.3348 23.152 32.3199H36.8149C37.1993 32.3199 37.5117 32.0102 37.5117 31.6291C37.5117 31.248 37.1993 30.9383 36.8149 30.9383H19.6251L14.1936 25.5536C14.3333 25.2532 14.4058 24.9265 14.4061 24.5957C14.4061 23.9832 14.1669 23.4075 13.7314 22.9758C13.2959 22.544 12.7164 22.3069 12.0974 22.3069C11.4784 22.3069 10.8989 22.544 10.4634 22.9758L7.95963 25.458V4.39931C7.96079 2.87496 9.21153 1.635 10.7491 1.635H40.4115C41.9491 1.635 43.1998 2.87496 43.1998 4.39931V44.0978C43.1998 45.6222 41.9491 46.8621 40.4115 46.8621H33.9035V45.8709C33.9035 45.4898 33.5911 45.1801 33.2067 45.1801H30.9258V43.924C30.9258 43.8894 30.9247 43.8549 30.9235 43.8204H36.8137C37.1981 43.8204 37.5105 43.5107 37.5105 43.1296C37.5105 42.7485 37.1981 42.4388 36.8137 42.4388H30.4625C29.9829 41.7434 29.1769 41.2863 28.2653 41.2863H16.3548C14.888 41.2863 13.6942 42.4699 13.6942 43.924V45.1801H11.4134C11.0278 45.1801 10.7154 45.4898 10.7154 45.8709ZM29.5323 43.924V45.1801H15.0866V43.924C15.0866 43.2309 15.6557 42.6679 16.3536 42.6679H28.2653C28.9632 42.6679 29.5323 43.2309 29.5323 43.924ZM12.109 46.5616H32.5099V49.7024H12.109V46.5616ZM53.402 12.6151L48.1122 51.9659C47.909 53.4764 46.5014 54.5414 44.9801 54.3411L20.3288 51.084H33.2055C33.5899 51.084 33.9023 50.7743 33.9023 50.3932V48.2437H40.4103C42.7167 48.2437 44.5922 46.3843 44.5922 44.0978V8.66263L51.005 9.51C52.531 9.71148 53.6052 11.1046 53.402 12.6151ZM35.966 6.35309C32.1104 6.22875 28.7611 5.08434 26.0088 2.9498C25.8864 2.8547 25.7353 2.80302 25.5797 2.80302C25.4242 2.80302 25.2731 2.8547 25.1506 2.9498C22.3983 5.08434 19.049 6.2299 15.1935 6.35309C14.8393 6.3646 14.5501 6.63746 14.5211 6.98631C14.002 13.2368 14.8044 18.1241 16.9749 21.9269C18.7483 25.0332 21.3833 27.3738 25.2691 29.2908C25.3654 29.3384 25.4715 29.3631 25.5791 29.3631C25.6868 29.3631 25.7929 29.3384 25.8892 29.2908C29.775 27.3738 32.41 25.0332 34.1822 21.9269C36.3527 18.1241 37.1552 13.2368 36.636 6.98631C36.6093 6.63746 36.3202 6.3646 35.966 6.35309ZM25.5803 27.8988C20.2034 25.1736 14.967 20.5592 15.8647 7.70473C19.5658 7.48368 22.8291 6.36 25.5803 4.36016C28.3315 6.36 31.5948 7.48368 35.2959 7.70473C36.1936 20.5603 30.9572 25.1736 25.5803 27.8988ZM33.0441 8.9021C30.2802 8.81345 27.9796 8.0271 26.0088 6.49931C25.8864 6.4042 25.7353 6.35252 25.5797 6.35252C25.4242 6.35252 25.2731 6.4042 25.1506 6.49931C23.181 8.0271 20.8793 8.81345 18.1153 8.9021C17.7611 8.91362 17.472 9.18648 17.4429 9.53533C16.5696 20.0457 21.1661 23.7172 25.2679 25.7412C25.3642 25.7889 25.4704 25.8136 25.578 25.8136C25.6856 25.8136 25.7917 25.7889 25.888 25.7412C29.9898 23.7172 34.5863 20.0457 33.713 9.53533C33.6875 9.18648 33.3983 8.91362 33.0441 8.9021ZM25.5803 24.3493C21.8327 22.4278 18.2152 19.1684 18.7889 10.2514C21.3624 10.0695 23.6421 9.28319 25.5803 7.90737C27.5185 9.28319 29.7982 10.0695 32.3717 10.2514C32.9454 19.1684 29.3279 22.4266 25.5803 24.3493ZM29.5601 13.3934C29.8319 13.6628 29.8319 14.1003 29.5601 14.3709L25.1181 18.7746C25.0535 18.8388 24.9767 18.8897 24.8922 18.9245C24.8077 18.9592 24.7172 18.9771 24.6257 18.9771C24.5342 18.9771 24.4437 18.9592 24.3592 18.9245C24.2747 18.8897 24.1979 18.8388 24.1333 18.7746L21.5993 16.2625C21.3276 15.9931 21.3276 15.5556 21.5993 15.285C21.73 15.1556 21.9071 15.083 22.0917 15.083C22.2764 15.083 22.4535 15.1556 22.5841 15.285L24.6245 17.3079L28.5742 13.3922C28.8471 13.1228 29.2884 13.1228 29.5601 13.3934ZM28.2362 39.861C28.2362 39.4799 28.5486 39.1702 28.933 39.1702H36.8137C37.1981 39.1702 37.5105 39.4799 37.5105 39.861C37.5105 40.2421 37.1981 40.5518 36.8137 40.5518H28.933C28.5486 40.5518 28.2362 40.2421 28.2362 39.861Z" fill="#21409C"/>
</svg>
