<svg width="50" height="56" viewBox="0 0 50 56" fill="none" xmlns="http://www.w3.org/2000/svg">
<path d="M25 6.24306C24.7462 6.24306 24.5028 6.1434 24.3233 5.966C24.1438 5.7886 24.043 5.54799 24.043 5.29711V1.51333C24.043 1.26245 24.1438 1.02184 24.3233 0.844444C24.5028 0.667045 24.7462 0.567383 25 0.567383C25.2538 0.567383 25.4972 0.667045 25.6767 0.844444C25.8562 1.02184 25.957 1.26245 25.957 1.51333V5.29711C25.957 5.54799 25.8562 5.7886 25.6767 5.966C25.4972 6.1434 25.2538 6.24306 25 6.24306ZM15.4297 8.77819C15.2615 8.77836 15.0963 8.73472 14.9506 8.65169C14.805 8.56866 14.684 8.44916 14.5999 8.30522L12.6859 5.02846C12.622 4.92084 12.5804 4.80181 12.5633 4.6782C12.5462 4.5546 12.554 4.42888 12.5863 4.30827C12.6185 4.18766 12.6746 4.07455 12.7513 3.97546C12.8279 3.87636 12.9237 3.79323 13.033 3.73085C13.1423 3.66847 13.263 3.62808 13.3881 3.612C13.5133 3.59592 13.6404 3.60447 13.7622 3.63716C13.884 3.66984 13.9981 3.72602 14.0979 3.80245C14.1976 3.87889 14.2811 3.97407 14.3435 4.08252L16.2575 7.35927C16.3415 7.50301 16.3857 7.66604 16.3857 7.83201C16.3858 7.99797 16.3416 8.16103 16.2578 8.3048C16.1739 8.44857 16.0532 8.568 15.9079 8.6511C15.7625 8.73419 15.5976 8.77802 15.4297 8.77819ZM8.42326 15.7025C8.25522 15.7029 8.09009 15.6591 7.94475 15.5758L4.62863 13.6839C4.41061 13.5575 4.252 13.3511 4.18741 13.1096C4.12281 12.8681 4.15748 12.6112 4.28384 12.3948C4.4102 12.1785 4.618 12.0204 4.86189 11.9549C5.10579 11.8895 5.36597 11.922 5.58566 12.0455L8.90178 13.9374C9.08422 14.0415 9.2268 14.2022 9.30741 14.3946C9.38803 14.587 9.40217 14.8003 9.34764 15.0014C9.29311 15.2025 9.17297 15.3803 9.00584 15.507C8.83871 15.6338 8.63393 15.7025 8.42326 15.7025ZM5.85938 25.162H2.03125C1.77743 25.162 1.53401 25.0623 1.35453 24.8849C1.17505 24.7075 1.07422 24.4669 1.07422 24.216C1.07422 23.9652 1.17505 23.7245 1.35453 23.5471C1.53401 23.3697 1.77743 23.2701 2.03125 23.2701H5.85938C6.1132 23.2701 6.35662 23.3697 6.5361 23.5471C6.71558 23.7245 6.81641 23.9652 6.81641 24.216C6.81641 24.4669 6.71558 24.7075 6.5361 24.8849C6.35662 25.0623 6.1132 25.162 5.85938 25.162ZM5.10906 36.5133C4.89839 36.5133 4.69362 36.4446 4.52649 36.3178C4.35935 36.1911 4.23921 36.0133 4.18468 35.8122C4.13016 35.6111 4.1443 35.3978 4.22491 35.2054C4.30553 35.013 4.44811 34.8523 4.63055 34.7482L7.94666 32.8563C8.05554 32.7932 8.17598 32.752 8.30103 32.7351C8.42607 32.7182 8.55327 32.7259 8.67529 32.7578C8.79731 32.7897 8.91175 32.8451 9.01201 32.9209C9.11227 32.9967 9.19637 33.0913 9.25948 33.1994C9.32259 33.3074 9.36345 33.4267 9.37972 33.5504C9.39599 33.6741 9.38734 33.7998 9.35427 33.9202C9.3212 34.0406 9.26437 34.1533 9.18704 34.2519C9.10971 34.3505 9.01341 34.433 8.90369 34.4947L5.58758 36.3866C5.44223 36.4699 5.27711 36.5137 5.10906 36.5133ZM44.8909 36.5133C44.7229 36.5137 44.5578 36.4699 44.4124 36.3866L41.0963 34.4947C40.9866 34.433 40.8903 34.3505 40.813 34.2519C40.7356 34.1533 40.6788 34.0406 40.6457 33.9202C40.6127 33.7998 40.604 33.6741 40.6203 33.5504C40.6365 33.4267 40.6774 33.3074 40.7405 33.1994C40.8036 33.0913 40.8877 32.9967 40.988 32.9209C41.0883 32.8451 41.2027 32.7897 41.3247 32.7578C41.4467 32.7259 41.5739 32.7182 41.699 32.7351C41.824 32.752 41.9445 32.7932 42.0533 32.8563L45.3695 34.7482C45.5519 34.8523 45.6945 35.013 45.7751 35.2054C45.8557 35.3978 45.8698 35.6111 45.8153 35.8122C45.7608 36.0133 45.6406 36.1911 45.4735 36.3178C45.3064 36.4446 45.1016 36.5133 44.8909 36.5133ZM47.9688 25.162H44.1406C43.8868 25.162 43.6434 25.0623 43.4639 24.8849C43.2844 24.7075 43.1836 24.4669 43.1836 24.216C43.1836 23.9652 43.2844 23.7245 43.4639 23.5471C43.6434 23.3697 43.8868 23.2701 44.1406 23.2701H47.9688C48.2226 23.2701 48.466 23.3697 48.6455 23.5471C48.825 23.7245 48.9258 23.9652 48.9258 24.216C48.9258 24.4669 48.825 24.7075 48.6455 24.8849C48.466 25.0623 48.2226 25.162 47.9688 25.162Z" fill="#21409C"/>
<path d="M40.3096 23.2704H35.5244C35.5244 22.2669 35.1211 21.3044 34.4032 20.5949C33.6853 19.8853 32.7116 19.4866 31.6963 19.4866C30.681 19.4866 29.7073 19.8853 28.9894 20.5949C28.2715 21.3044 27.8682 22.2669 27.8682 23.2704H25.9541V20.2585C25.954 20.1073 25.9172 19.9583 25.8467 19.824C25.7763 19.6898 25.6744 19.5741 25.5494 19.4869C25.4245 19.3996 25.2802 19.3432 25.1286 19.3224C24.9771 19.3016 24.8227 19.3171 24.6784 19.3674C24.3889 19.4741 24.0776 19.5099 23.771 19.4718C23.4645 19.4337 23.1718 19.3229 22.918 19.1487C22.6642 18.9745 22.4569 18.7422 22.3137 18.4716C22.1705 18.201 22.0957 17.9001 22.0957 17.5947C22.0957 17.2893 22.1705 16.9885 22.3137 16.7179C22.4569 16.4473 22.6642 16.2149 22.918 16.0408C23.1718 15.8666 23.4645 15.7557 23.771 15.7176C24.0776 15.6795 24.3889 15.7153 24.6784 15.822C24.8227 15.8724 24.9771 15.8878 25.1286 15.867C25.2802 15.8462 25.4245 15.7898 25.5494 15.7026C25.6744 15.6153 25.7763 15.4997 25.8467 15.3654C25.9172 15.2312 25.954 15.0822 25.9541 14.9309V9.0812C25.9541 8.83032 25.8533 8.58971 25.6738 8.41232C25.4943 8.23492 25.2509 8.13525 24.9971 8.13525C21.2799 8.13856 17.676 9.3999 14.785 11.7094C11.894 14.0189 9.89028 17.2372 9.10727 20.8289C8.32425 24.4205 8.80916 28.1689 10.4813 31.4503C12.1534 34.7317 14.912 37.3481 18.2979 38.8643V40.2974H17.3408C16.5794 40.2974 15.8491 40.5964 15.3107 41.1286C14.7722 41.6608 14.4697 42.3826 14.4697 43.1353V45.0271C14.4697 45.7798 14.7722 46.5016 15.3107 47.0338C15.8491 47.566 16.5794 47.865 17.3408 47.865H18.2979V50.7028C18.2994 51.9568 18.804 53.1589 19.7011 54.0456C20.5981 54.9323 21.8144 55.431 23.083 55.4325H26.9112C28.1798 55.431 29.396 54.9323 30.2931 54.0456C31.1902 53.1589 31.6948 51.9568 31.6963 50.7028V47.865H32.6533C33.4148 47.865 34.1451 47.566 34.6835 47.0338C35.2219 46.5016 35.5244 45.7798 35.5244 45.0271V43.1353C35.5244 42.3826 35.2219 41.6608 34.6835 41.1286C34.1451 40.5964 33.4148 40.2974 32.6533 40.2974H31.6963V38.8643C34.5531 37.5981 36.9775 35.5407 38.676 32.9411C40.3745 30.3414 41.2743 27.3109 41.2666 24.2163C41.2666 23.9655 41.1658 23.7248 40.9863 23.5474C40.8068 23.37 40.5634 23.2704 40.3096 23.2704ZM24.0401 10.0584V13.8109C23.0248 13.8109 22.0511 14.2096 21.3332 14.9192C20.6153 15.6288 20.2119 16.5912 20.2119 17.5947C20.2119 18.5982 20.6153 19.5607 21.3332 20.2703C22.0511 20.9798 23.0248 21.3785 24.0401 21.3785V23.2704H20.9929C20.8398 23.2705 20.6889 23.3069 20.553 23.3765C20.417 23.4462 20.3 23.5471 20.2117 23.6707C20.1233 23.7943 20.0663 23.9371 20.0454 24.087C20.0244 24.2369 20.0402 24.3896 20.0913 24.5323C20.1993 24.8184 20.2355 25.1261 20.197 25.4292C20.1584 25.7322 20.0463 26.0214 19.87 26.2723C19.6938 26.5231 19.4588 26.7281 19.185 26.8696C18.9112 27.0111 18.6068 27.0851 18.2979 27.0851C17.9889 27.0851 17.6845 27.0111 17.4107 26.8696C17.137 26.7281 16.9019 26.5231 16.7257 26.2723C16.5495 26.0214 16.4373 25.7322 16.3988 25.4292C16.3602 25.1261 16.3965 24.8184 16.5044 24.5323C16.5555 24.3896 16.5713 24.2369 16.5504 24.087C16.5294 23.9371 16.4724 23.7943 16.3841 23.6707C16.2958 23.5471 16.1787 23.4462 16.0428 23.3765C15.9068 23.3069 15.756 23.2705 15.6029 23.2704H10.6732C10.9095 19.8433 12.3936 16.6167 14.851 14.1878C17.3084 11.7588 20.5728 10.2919 24.0401 10.0584ZM19.6138 37.365C17.1111 36.3717 14.9438 34.6987 13.3624 32.5394C11.7809 30.3801 10.85 27.8225 10.677 25.1623H14.4697C14.4697 26.1658 14.8731 27.1282 15.591 27.8378C16.3089 28.5474 17.2826 28.9461 18.2979 28.9461C19.3132 28.9461 20.2868 28.5474 21.0048 27.8378C21.7227 27.1282 22.126 26.1658 22.126 25.1623H24.0401V28.1742C24.0402 28.3254 24.077 28.4744 24.1474 28.6087C24.2179 28.7429 24.3198 28.8585 24.4448 28.9458C24.5697 29.0331 24.714 29.0895 24.8656 29.1103C25.0171 29.1311 25.1715 29.1156 25.3158 29.0653C25.6053 28.9586 25.9166 28.9227 26.2232 28.9608C26.5297 28.9989 26.8224 29.1098 27.0762 29.284C27.3299 29.4582 27.5373 29.6905 27.6805 29.9611C27.8237 30.2317 27.8985 30.5326 27.8985 30.838C27.8985 31.1433 27.8237 31.4442 27.6805 31.7148C27.5373 31.9854 27.3299 32.2177 27.0762 32.3919C26.8224 32.5661 26.5297 32.677 26.2232 32.7151C25.9166 32.7532 25.6053 32.7173 25.3158 32.6107C25.1715 32.5603 25.0171 32.5449 24.8656 32.5656C24.714 32.5864 24.5697 32.6428 24.4448 32.7301C24.3198 32.8174 24.2179 32.933 24.1474 33.0673C24.077 33.2015 24.0402 33.3505 24.0401 33.5017V40.2974H20.2119V38.2409C20.2117 38.0527 20.1547 37.8687 20.0482 37.7127C19.9416 37.5566 19.7904 37.4356 19.6138 37.365ZM29.7822 50.7028C29.7822 51.4555 29.4798 52.1773 28.9413 52.7095C28.4029 53.2417 27.6726 53.5407 26.9112 53.5407H23.083C22.3216 53.5407 21.5913 53.2417 21.0529 52.7095C20.5144 52.1773 20.2119 51.4555 20.2119 50.7028V47.865H22.126V50.7028C22.126 50.9537 22.2268 51.1943 22.4063 51.3717C22.5858 51.5491 22.8292 51.6488 23.083 51.6488C23.3368 51.6488 23.5803 51.5491 23.7598 51.3717C23.9392 51.1943 24.0401 50.9537 24.0401 50.7028V47.865H25.9541V50.7028C25.9541 50.9537 26.0549 51.1943 26.2344 51.3717C26.4139 51.5491 26.6573 51.6488 26.9112 51.6488C27.165 51.6488 27.4084 51.5491 27.5879 51.3717C27.7674 51.1943 27.8682 50.9537 27.8682 50.7028V47.865H29.7822V50.7028ZM32.6533 42.1893C32.9072 42.1893 33.1506 42.289 33.3301 42.4664C33.5095 42.6438 33.6104 42.8844 33.6104 43.1353V45.0271C33.6104 45.278 33.5095 45.5186 33.3301 45.696C33.1506 45.8734 32.9072 45.9731 32.6533 45.9731H17.3408C17.087 45.9731 16.8436 45.8734 16.6641 45.696C16.4846 45.5186 16.3838 45.278 16.3838 45.0271V43.1353C16.3838 42.8844 16.4846 42.6438 16.6641 42.4664C16.8436 42.289 17.087 42.1893 17.3408 42.1893H32.6533ZM30.3804 37.365C30.2037 37.4356 30.0523 37.5569 29.9458 37.7131C29.8392 37.8693 29.7823 38.0534 29.7822 38.2419V40.2974H25.9541V34.6217C26.9694 34.6217 27.9431 34.2231 28.661 33.5135C29.3789 32.8039 29.7822 31.8415 29.7822 30.838C29.7822 29.8344 29.3789 28.872 28.661 28.1624C27.9431 27.4528 26.9694 27.0542 25.9541 27.0542V25.1623H29.0013C29.1544 25.1622 29.3053 25.1258 29.4412 25.0561C29.5772 24.9865 29.6942 24.8856 29.7825 24.762C29.8708 24.6384 29.9279 24.4956 29.9488 24.3457C29.9697 24.1957 29.954 24.043 29.9028 23.9004C29.7949 23.6142 29.7587 23.3065 29.7972 23.0035C29.8357 22.7005 29.9479 22.4112 30.1241 22.1604C30.3004 21.9096 30.5354 21.7046 30.8092 21.5631C31.083 21.4215 31.3873 21.3476 31.6963 21.3476C32.0053 21.3476 32.3096 21.4215 32.5834 21.5631C32.8572 21.7046 33.0923 21.9096 33.2685 22.1604C33.4447 22.4112 33.5569 22.7005 33.5954 23.0035C33.634 23.3065 33.5977 23.6142 33.4898 23.9004C33.4386 24.043 33.4229 24.1957 33.4438 24.3457C33.4647 24.4956 33.5218 24.6384 33.6101 24.762C33.6984 24.8856 33.8155 24.9865 33.9514 25.0561C34.0873 25.1258 34.2382 25.1622 34.3913 25.1623H39.321C39.1473 27.8228 38.2155 30.3805 36.6335 32.5398C35.0514 34.6991 32.8836 36.3719 30.3804 37.365Z" fill="#21409C"/>
<path d="M32.6562 0.567383C32.4024 0.567383 32.159 0.667045 31.9795 0.844444C31.8 1.02184 31.6992 1.26245 31.6992 1.51333V6.24306C30.6839 6.24306 29.7102 6.64171 28.9923 7.3513C28.2744 8.0609 27.8711 9.02332 27.8711 10.0268C27.8711 11.0304 28.2744 11.9928 28.9923 12.7024C29.7102 13.412 30.6839 13.8106 31.6992 13.8106V16.6485C31.6992 16.8993 31.8 17.14 31.9795 17.3173C32.159 17.4947 32.4024 17.5944 32.6562 17.5944H36.6605C36.8136 17.5943 36.9644 17.5579 37.1004 17.4883C37.2363 17.4186 37.3534 17.3177 37.4417 17.1941C37.53 17.0705 37.587 16.9277 37.608 16.7778C37.6289 16.6279 37.6131 16.4752 37.562 16.3325C37.4541 16.0464 37.4178 15.7386 37.4564 15.4356C37.4949 15.1326 37.6071 14.8434 37.7833 14.5925C37.9595 14.3417 38.1946 14.1367 38.4684 13.9952C38.7421 13.8537 39.0465 13.7797 39.3555 13.7797C39.6644 13.7797 39.9688 13.8537 40.2426 13.9952C40.5164 14.1367 40.7514 14.3417 40.9276 14.5925C41.1039 14.8434 41.216 15.1326 41.2546 15.4356C41.2931 15.7386 41.2569 16.0464 41.1489 16.3325C41.0978 16.4752 41.082 16.6279 41.103 16.7778C41.1239 16.9277 41.1809 17.0705 41.2693 17.1941C41.3576 17.3177 41.4746 17.4186 41.6106 17.4883C41.7465 17.5579 41.8974 17.5943 42.0505 17.5944H47.9688C48.2226 17.5944 48.466 17.4947 48.6455 17.3173C48.825 17.14 48.9258 16.8993 48.9258 16.6485C48.921 12.385 47.2053 8.29743 44.1552 5.28268C41.1051 2.26792 36.9697 0.57214 32.6562 0.567383ZM43.1836 15.7025C43.1836 14.699 42.7803 13.7366 42.0624 13.027C41.3444 12.3174 40.3708 11.9187 39.3555 11.9187C38.3402 11.9187 37.3665 12.3174 36.6486 13.027C35.9307 13.7366 35.5273 14.699 35.5273 15.7025H33.6133V12.6906C33.6131 12.5394 33.5763 12.3904 33.5059 12.2561C33.4355 12.1219 33.3335 12.0063 33.2086 11.919C33.0836 11.8317 32.9393 11.7753 32.7878 11.7545C32.6362 11.7337 32.4818 11.7492 32.3376 11.7995C32.0481 11.9062 31.7367 11.9421 31.4302 11.904C31.1236 11.8659 30.831 11.755 30.5772 11.5808C30.3234 11.4066 30.116 11.1743 29.9729 10.9037C29.8297 10.6331 29.7549 10.3322 29.7549 10.0268C29.7549 9.72145 29.8297 9.4206 29.9729 9.15C30.116 8.87939 30.3234 8.64707 30.5772 8.47288C30.831 8.29869 31.1236 8.18782 31.4302 8.14973C31.7367 8.11163 32.0481 8.14746 32.3376 8.25414C32.4818 8.3045 32.6362 8.31994 32.7878 8.29915C32.9393 8.27837 33.0836 8.22198 33.2086 8.1347C33.3335 8.04742 33.4355 7.93181 33.5059 7.79754C33.5763 7.66328 33.6131 7.51429 33.6133 7.36306V2.49049C37.0806 2.724 40.3449 4.19095 42.8023 6.61991C45.2597 9.04886 46.7439 12.2754 46.9801 15.7025H43.1836Z" fill="#21409C"/>
</svg>
