<svg width="56" height="56" viewBox="0 0 56 56" fill="none" xmlns="http://www.w3.org/2000/svg">
<path d="M17.9535 18.5904L19.2601 20.2704C18.7341 21.1019 18.3268 22.0013 18.0553 22.9516L16.0444 23.2061C15.722 23.2485 15.4844 23.5201 15.4844 23.834V27.0752C15.4844 27.3976 15.722 27.6692 16.0444 27.7031L17.8771 27.9322C18.0977 28.9928 18.4795 30.011 19.0226 30.9443L17.962 32.3104C17.7668 32.5649 17.7838 32.9213 18.0129 33.1504L20.3038 35.4413C20.5329 35.6704 20.8892 35.6873 21.1438 35.4922L22.408 34.5079C23.3838 35.1358 24.4444 35.594 25.5644 35.8655L25.7595 37.4013C25.802 37.7237 26.0735 37.9613 26.3874 37.9613H29.6286C29.951 37.9613 30.2226 37.7237 30.2565 37.4013L30.4516 35.8655C31.5716 35.594 32.6323 35.1358 33.608 34.5079L34.8723 35.4922C35.1268 35.6873 35.4832 35.6704 35.7123 35.4413L38.0032 33.1504C38.2323 32.9213 38.2492 32.5649 38.0541 32.3104L36.9935 30.9443C37.528 30.0025 37.9183 28.9928 38.1389 27.9322L39.9716 27.7031C40.2941 27.6607 40.5316 27.3892 40.5316 27.0752V23.834C40.5316 23.5116 40.2941 23.2401 39.9716 23.2061L37.9607 22.9516C37.6892 22.0013 37.282 21.1019 36.7559 20.2704L38.0626 18.5904C38.2577 18.3358 38.2407 17.9795 38.0116 17.7504L35.7207 15.4595C35.611 15.35 35.4651 15.2844 35.3104 15.275C35.1557 15.2657 35.0029 15.3131 34.8807 15.4085L33.0904 16.8001C32.2844 16.3419 31.4274 15.994 30.5535 15.7734L30.2735 13.4995C30.2544 13.3459 30.1802 13.2045 30.0647 13.1015C29.9492 12.9985 29.8003 12.9409 29.6456 12.9395H26.4044C26.082 12.9395 25.8104 13.177 25.7765 13.4995L25.4965 15.7734C24.6141 15.994 23.7656 16.3419 22.9595 16.8001L21.1692 15.4085C21.0471 15.3131 20.8943 15.2657 20.7396 15.275C20.5849 15.2844 20.4389 15.35 20.3292 15.4595L18.0383 17.7504C17.7753 17.9795 17.7583 18.3358 17.9535 18.5904ZM20.7959 16.7576L22.4844 18.0728C22.6965 18.234 22.985 18.251 23.2141 18.1067C24.1389 17.5298 25.1401 17.131 26.1668 16.9188C26.4383 16.8679 26.6335 16.6473 26.6674 16.3758L26.9389 14.2122H29.0516L29.3232 16.3758C29.3571 16.6473 29.5607 16.8679 29.8238 16.9188C30.8589 17.131 31.8516 17.5298 32.7765 18.1067C33.0056 18.251 33.2941 18.234 33.5062 18.0728L35.1947 16.7576L36.688 18.251L35.4407 19.8546C35.3576 19.9622 35.3111 20.0935 35.3081 20.2294C35.305 20.3653 35.3456 20.4986 35.4238 20.6098C36.0771 21.5346 36.5353 22.5698 36.8068 23.6813C36.8662 23.9358 37.0868 24.131 37.3498 24.1649L39.2335 24.4025V26.5152L37.5026 26.7273C37.2226 26.7613 37.002 26.9819 36.951 27.2619C36.7559 28.4752 36.3232 29.6207 35.6698 30.6558C35.5256 30.8849 35.5426 31.1734 35.7038 31.3855L36.688 32.6582L35.1947 34.1516L34.0068 33.2267C33.8992 33.1436 33.7679 33.0971 33.632 33.0941C33.4961 33.091 33.3628 33.1316 33.2516 33.2098C32.191 33.9649 31.0116 34.474 29.7389 34.7201C29.4674 34.771 29.2638 34.9916 29.2298 35.2631L29.0516 36.6885H26.9389L26.7607 35.2631C26.7445 35.1303 26.6864 35.006 26.5949 34.9084C26.5034 34.8108 26.3832 34.7448 26.2516 34.7201C24.9874 34.474 23.808 33.9649 22.7389 33.2098C22.6277 33.1316 22.4944 33.091 22.3586 33.0941C22.2227 33.0971 22.0913 33.1436 21.9838 33.2267L20.7959 34.1516L19.3026 32.6582L20.2868 31.3855C20.448 31.1734 20.465 30.8849 20.3207 30.6558C19.6674 29.6207 19.2347 28.4752 19.0395 27.2619C19.0166 27.1256 18.9507 27.0003 18.8515 26.9041C18.7522 26.808 18.6249 26.746 18.488 26.7273L16.7486 26.5067V24.394L18.6323 24.1564C18.8953 24.1225 19.1074 23.9358 19.1753 23.6728C19.4468 22.5613 19.905 21.5261 20.5583 20.6013C20.6365 20.4901 20.677 20.3568 20.674 20.2209C20.6709 20.085 20.6244 19.9537 20.5413 19.8461L19.2941 18.2425L20.7959 16.7576Z" fill="#21409C"/>
<path d="M28.0006 31.487C31.1315 31.487 33.6769 28.9415 33.6769 25.8106C33.6769 22.6797 31.1315 20.1342 28.0006 20.1342C24.8697 20.1342 22.3242 22.6797 22.3242 25.8106C22.3242 28.9415 24.8697 31.487 28.0006 31.487ZM28.0006 21.407C30.4272 21.407 32.4042 23.3839 32.4042 25.8106C32.4042 28.2373 30.4272 30.2143 28.0006 30.2143C25.5739 30.2143 23.5969 28.2373 23.5969 25.8106C23.5969 23.3839 25.5739 21.407 28.0006 21.407ZM37.3594 15.0603C37.7072 15.0603 37.9957 14.7718 37.9957 14.4239V9.12092H41.0079C41.3048 10.5718 42.586 11.6664 44.1218 11.6664C45.8782 11.6664 47.3036 10.2409 47.3036 8.48455C47.3036 6.72819 45.8782 5.30273 44.1218 5.30273C42.586 5.30273 41.2963 6.39728 41.0079 7.84819H37.3594C37.0115 7.84819 36.723 8.13667 36.723 8.48455V14.4239C36.723 14.7718 37.003 15.0603 37.3594 15.0603ZM44.1218 6.57546C45.1739 6.57546 46.0309 7.43243 46.0309 8.48455C46.0309 9.53667 45.1739 10.3936 44.1218 10.3936C43.0697 10.3936 42.2127 9.53667 42.2127 8.48455C42.2127 7.43243 43.0697 6.57546 44.1218 6.57546Z" fill="#21409C"/>
<path d="M50.0608 12.0908C48.5251 12.0908 47.2354 13.1854 46.9469 14.6363H44.1215C43.7736 14.6363 43.4851 14.9248 43.4851 15.2726V19.7272H39.0221C38.6742 19.7272 38.3857 20.0157 38.3857 20.3635C38.3857 20.7114 38.6742 20.9999 39.0221 20.9999H43.4851V24.8181H42.4245C42.0766 24.8181 41.7881 25.1066 41.7881 25.4545C41.7881 25.8023 42.0766 26.0908 42.4245 26.0908H44.1215C44.4693 26.0908 44.7578 25.8023 44.7578 25.4545V20.9999H45.8184C47.3372 20.9999 48.576 22.2387 48.576 23.7575V43.4848H7.42448V23.7575C7.42448 22.2387 8.66327 20.9999 10.1821 20.9999H11.2427V25.4545C11.2427 25.8023 11.5311 26.0908 11.879 26.0908H13.576C13.9239 26.0908 14.2124 25.8023 14.2124 25.4545C14.2124 25.1066 13.9239 24.8181 13.576 24.8181H12.5154V20.9999H16.9784C17.3263 20.9999 17.6148 20.7114 17.6148 20.3635C17.6148 20.0157 17.3263 19.7272 16.9784 19.7272H12.5154V15.2726C12.5154 14.9248 12.2269 14.6363 11.879 14.6363H9.05357C8.7566 13.1854 7.47539 12.0908 5.93963 12.0908C4.18327 12.0908 2.75781 13.5163 2.75781 15.2726C2.75781 17.029 4.18327 18.4545 5.93963 18.4545C7.47539 18.4545 8.76509 17.3599 9.05357 15.909H11.2427V19.7272H10.1821C7.95903 19.7272 6.15175 21.5345 6.15175 23.7575V45.8181C6.15175 48.0411 7.95903 49.8484 10.1821 49.8484H19.7275V53.6666H16.9699C16.6221 53.6666 16.3336 53.9551 16.3336 54.3029C16.3336 54.6508 16.6221 54.9393 16.9699 54.9393H39.0305C39.3784 54.9393 39.6669 54.6508 39.6669 54.3029C39.6669 53.9551 39.3784 53.6666 39.0305 53.6666H36.273V49.8484H45.8184C48.0415 49.8484 49.8487 48.0411 49.8487 45.8181V23.7575C49.8487 21.5345 48.0415 19.7272 45.8184 19.7272H44.7578V15.909H46.9469C47.2439 17.3599 48.5251 18.4545 50.0608 18.4545C51.8172 18.4545 53.2427 17.029 53.2427 15.2726C53.2427 13.5163 51.8172 12.0908 50.0608 12.0908ZM5.93963 17.1817C4.88751 17.1817 4.03054 16.3248 4.03054 15.2726C4.03054 14.2205 4.88751 13.3635 5.93963 13.3635C6.99175 13.3635 7.84872 14.2205 7.84872 15.2726C7.84872 16.3248 6.99175 17.1817 5.93963 17.1817ZM35.0002 53.6666H21.0002V49.8484H35.0002V53.6666ZM48.576 45.8181C48.576 47.3369 47.3372 48.5757 45.8184 48.5757H10.1821C8.66327 48.5757 7.42448 47.3369 7.42448 45.8181V44.7575H48.576V45.8181ZM50.0608 17.1817C49.0087 17.1817 48.1518 16.3248 48.1518 15.2726C48.1518 14.2205 49.0087 13.3635 50.0608 13.3635C51.113 13.3635 51.9699 14.2205 51.9699 15.2726C51.9699 16.3248 51.113 17.1817 50.0608 17.1817Z" fill="#21409C"/>
<path d="M11.8771 11.6666C13.4129 11.6666 14.7026 10.5721 14.9911 9.12115H18.0032V14.4242C18.0032 14.7721 18.2917 15.0605 18.6396 15.0605C18.9874 15.0605 19.2759 14.7721 19.2759 14.4242V8.48479C19.2759 8.13691 18.9874 7.84843 18.6396 7.84843H14.9911C14.6941 6.39752 13.4129 5.30297 11.8771 5.30297C10.1208 5.30297 8.69531 6.72843 8.69531 8.48479C8.69531 10.2412 10.1208 11.6666 11.8771 11.6666ZM11.8771 6.5757C12.9293 6.5757 13.7862 7.43267 13.7862 8.48479C13.7862 9.53691 12.9293 10.3939 11.8771 10.3939C10.825 10.3939 9.96804 9.53691 9.96804 8.48479C9.96804 7.43267 10.825 6.5757 11.8771 6.5757ZM27.362 7.3563V11.0302C27.362 11.3781 27.6505 11.6666 27.9983 11.6666C28.3462 11.6666 28.6347 11.3781 28.6347 11.0302V7.3563C30.0856 7.05934 31.1802 5.77812 31.1802 4.24237C31.1802 2.486 29.7547 1.06055 27.9983 1.06055C26.242 1.06055 24.8165 2.486 24.8165 4.24237C24.8165 5.77812 25.9111 7.06782 27.362 7.3563ZM27.9983 2.33327C29.0505 2.33327 29.9074 3.19024 29.9074 4.24237C29.9074 5.29449 29.0505 6.15146 27.9983 6.15146C26.9462 6.15146 26.0893 5.29449 26.0893 4.24237C26.0893 3.19024 26.9462 2.33327 27.9983 2.33327Z" fill="#21409C"/>
</svg>
