<svg width="56" height="56" viewBox="0 0 56 56" fill="none" xmlns="http://www.w3.org/2000/svg">
<path d="M44.8489 34.5728C39.1826 34.5728 34.5728 39.1826 34.5728 44.8489C34.5728 50.5152 39.1826 55.125 44.8489 55.125C50.5152 55.125 55.125 50.5152 55.125 44.8489C55.125 39.1826 50.5152 34.5728 44.8489 34.5728ZM44.8489 53.375C40.1476 53.375 36.3228 49.5502 36.3228 44.8489C36.3228 40.1476 40.1475 36.3228 44.8489 36.3228C49.5503 36.3228 53.375 40.1475 53.375 44.8489C53.375 49.5503 49.5502 53.375 44.8489 53.375ZM47.9815 46.6574C47.9241 46.757 47.8476 46.8442 47.7565 46.9142C47.6653 46.9842 47.5612 47.0356 47.4502 47.0653C47.3392 47.0951 47.2234 47.1026 47.1095 47.0876C46.9955 47.0726 46.8857 47.0353 46.7861 46.9778L44.4114 45.6068C44.2784 45.5299 44.1679 45.4195 44.0911 45.2864C44.0143 45.1534 43.9739 45.0025 43.9739 44.8489V41.292C43.9739 41.06 44.0661 40.8374 44.2302 40.6733C44.3943 40.5092 44.6168 40.417 44.8489 40.417C45.081 40.417 45.3035 40.5092 45.4676 40.6733C45.6317 40.8374 45.7239 41.06 45.7239 41.292V44.3436L47.6611 45.462C47.8621 45.5781 48.0087 45.7693 48.0688 45.9934C48.1289 46.2176 48.0975 46.4564 47.9815 46.6574ZM43.9739 38.1752V37.3638C43.9739 37.1317 44.0661 36.9092 44.2302 36.7451C44.3943 36.581 44.6168 36.4888 44.8489 36.4888C45.081 36.4888 45.3035 36.581 45.4676 36.7451C45.6317 36.9092 45.7239 37.1317 45.7239 37.3638V38.1752C45.7239 38.4072 45.6317 38.6298 45.4676 38.7939C45.3035 38.958 45.081 39.0502 44.8489 39.0502C44.6168 39.0502 44.3943 38.958 44.2302 38.7939C44.0661 38.6298 43.9739 38.4072 43.9739 38.1752ZM48.9493 40.7486C48.868 40.6674 48.8035 40.5709 48.7596 40.4648C48.7156 40.3586 48.693 40.2448 48.693 40.1299C48.693 40.015 48.7156 39.9012 48.7596 39.795C48.8035 39.6889 48.868 39.5924 48.9493 39.5112L49.5229 38.9375C49.6874 38.7751 49.9094 38.6843 50.1405 38.685C50.3717 38.6857 50.5932 38.7778 50.7566 38.9413C50.92 39.1047 51.0121 39.3262 51.0128 39.5574C51.0135 39.7885 50.9227 40.0105 50.7603 40.175L50.1866 40.7486C50.0158 40.9195 49.7919 41.0049 49.5679 41.0049C49.3439 41.0049 49.1201 40.9194 48.9493 40.7486ZM50.7603 49.5228C50.8415 49.6041 50.906 49.7005 50.95 49.8067C50.9939 49.9128 51.0166 50.0266 51.0166 50.1415C51.0166 50.2564 50.9939 50.3702 50.95 50.4763C50.906 50.5825 50.8415 50.6789 50.7603 50.7602C50.5894 50.931 50.3654 51.0165 50.1415 51.0165C49.9177 51.0165 49.6938 50.9311 49.5228 50.7603L48.949 50.1866C48.7849 50.0225 48.6927 49.7999 48.6927 49.5679C48.6927 49.3358 48.7849 49.1132 48.949 48.9491C49.1131 48.785 49.3357 48.6929 49.5678 48.6929C49.7998 48.6929 50.0224 48.785 50.1865 48.9491L50.7603 49.5228ZM40.7486 48.9493C40.9127 49.1133 41.0049 49.3359 41.0049 49.5679C41.0049 49.8 40.9127 50.0225 40.7486 50.1866L40.1749 50.7603C40.004 50.9311 39.7801 51.0165 39.5561 51.0165C39.3321 51.0165 39.1082 50.9311 38.9374 50.7602C38.7733 50.5961 38.6811 50.3735 38.6811 50.1415C38.6811 49.9094 38.7733 49.6869 38.9374 49.5228L39.5112 48.9491C39.6753 48.7851 39.8979 48.693 40.1299 48.693C40.362 48.6931 40.5845 48.7852 40.7486 48.9493ZM40.7486 39.5111C40.8299 39.5923 40.8943 39.6888 40.9383 39.7949C40.9823 39.9011 41.0049 40.0148 41.0049 40.1297C41.0049 40.2446 40.9823 40.3584 40.9383 40.4646C40.8943 40.5707 40.8299 40.6672 40.7486 40.7484C40.5778 40.9193 40.3538 41.0048 40.1299 41.0048C39.906 41.0048 39.6821 40.9194 39.5112 40.7485L38.9375 40.1749C38.7734 40.0108 38.6812 39.7882 38.6812 39.5561C38.6812 39.3241 38.7734 39.1015 38.9375 38.9374C39.1016 38.7733 39.3242 38.6811 39.5562 38.6811C39.7883 38.6811 40.0109 38.7733 40.175 38.9374L40.7486 39.5111ZM53.2089 44.8489C53.2089 45.081 53.1167 45.3035 52.9526 45.4676C52.7885 45.6317 52.5659 45.7239 52.3339 45.7239H51.5225C51.2904 45.7239 51.0679 45.6317 50.9038 45.4676C50.7397 45.3035 50.6475 45.081 50.6475 44.8489C50.6475 44.6168 50.7397 44.3943 50.9038 44.2302C51.0679 44.0661 51.2904 43.9739 51.5225 43.9739H52.3339C52.5659 43.9739 52.7885 44.0661 52.9526 44.2302C53.1167 44.3943 53.2089 44.6168 53.2089 44.8489ZM45.7239 51.5225V52.3339C45.7239 52.5659 45.6317 52.7885 45.4676 52.9526C45.3035 53.1167 45.081 53.2089 44.8489 53.2089C44.6168 53.2089 44.3943 53.1167 44.2302 52.9526C44.0661 52.7885 43.9739 52.5659 43.9739 52.3339V51.5225C43.9739 51.2904 44.0661 51.0679 44.2302 50.9038C44.3943 50.7397 44.6168 50.6475 44.8489 50.6475C45.081 50.6475 45.3035 50.7397 45.4676 50.9038C45.6317 51.0679 45.7239 51.2904 45.7239 51.5225ZM38.1752 45.7239H37.3638C37.1317 45.7239 36.9092 45.6317 36.7451 45.4676C36.581 45.3035 36.4888 45.081 36.4888 44.8489C36.4888 44.6168 36.581 44.3943 36.7451 44.2302C36.9092 44.0661 37.1317 43.9739 37.3638 43.9739H38.1752C38.4072 43.9739 38.6298 44.0661 38.7939 44.2302C38.958 44.3943 39.0502 44.6168 39.0502 44.8489C39.0502 45.081 38.958 45.3035 38.7939 45.4676C38.6298 45.6317 38.4072 45.7239 38.1752 45.7239ZM7.28645 13.8919C7.23266 13.6676 7.26963 13.4311 7.38933 13.2339C7.50904 13.0367 7.70178 12.8947 7.92563 12.8389C8.14947 12.7831 8.3863 12.8179 8.58458 12.9358C8.78287 13.0538 8.92656 13.2452 8.98439 13.4685C9.25542 14.5555 10.3772 14.919 11.2534 14.896C12.02 14.8778 12.733 14.6144 13.07 14.2248C13.2526 14.0135 13.3201 13.7698 13.2823 13.4575C13.2185 12.9326 12.9036 12.2904 11.0182 11.9809C8.27072 11.5298 7.62934 10.1012 7.57498 8.98242C7.49973 7.43444 8.57292 6.13955 10.2453 5.76023C10.2557 5.75794 10.2659 5.75553 10.2764 5.75334V5.2022C10.2764 4.97014 10.3686 4.74758 10.5327 4.58348C10.6968 4.41939 10.9194 4.3272 11.1514 4.3272C11.3835 4.3272 11.6061 4.41939 11.7702 4.58348C11.9343 4.74758 12.0264 4.97014 12.0264 5.2022V5.74569C13.1261 5.97275 14.1804 6.65722 14.726 7.95681C14.8139 8.17042 14.8138 8.41012 14.7257 8.62364C14.6376 8.83716 14.4686 9.00717 14.2556 9.0966C14.0426 9.18602 13.8029 9.1876 13.5888 9.101C13.3747 9.01439 13.2035 8.84662 13.1125 8.63428C12.6545 7.54327 11.5368 7.26195 10.6323 7.46703C9.97303 7.61655 9.28287 8.07089 9.32302 8.89766C9.3368 9.18214 9.37344 9.93759 11.3018 10.2541C13.5729 10.627 14.8237 11.6338 15.0195 13.2467C15.1169 14.0494 14.9005 14.7836 14.3936 15.3696C13.8587 15.988 13.0043 16.4176 12.0264 16.5777V17.1005C12.0264 17.3325 11.9343 17.5551 11.7702 17.7192C11.6061 17.8833 11.3835 17.9755 11.1514 17.9755C10.9194 17.9755 10.6968 17.8833 10.5327 17.7192C10.3686 17.5551 10.2764 17.3325 10.2764 17.1005V16.5636C8.78216 16.2787 7.63339 15.2835 7.28645 13.8919ZM11.1513 21.4277C16.8177 21.4277 21.4277 16.8177 21.4277 11.1513C21.4277 5.48494 16.8177 0.875 11.1513 0.875C5.48494 0.875 0.875 5.48494 0.875 11.1513C0.875 16.8177 5.48494 21.4277 11.1513 21.4277ZM11.1513 2.625C15.8527 2.625 19.6777 6.44995 19.6777 11.1513C19.6777 15.8527 15.8527 19.6777 11.1513 19.6777C6.44995 19.6777 2.625 15.8527 2.625 11.1513C2.625 6.44995 6.44995 2.625 11.1513 2.625ZM36.9603 34.9716C37.0853 34.8465 37.1696 34.6866 37.2019 34.5128C37.2342 34.3389 37.2131 34.1594 37.1413 33.9978L36.5736 32.7194C36.9225 32.0873 37.1998 31.4184 37.4006 30.7249L38.7051 30.2227C38.8701 30.1592 39.012 30.0472 39.1121 29.9014C39.2122 29.7556 39.2658 29.583 39.2657 29.4061V26.5937C39.2657 26.4168 39.2122 26.2442 39.1121 26.0984C39.012 25.9526 38.8701 25.8406 38.7051 25.7771L37.4011 25.2751C37.2004 24.5814 36.923 23.9122 36.574 23.2799L37.1415 22.002C37.2132 21.8404 37.2343 21.6608 37.202 21.487C37.1697 21.3131 37.0855 21.1531 36.9604 21.0281L34.9718 19.0395C34.8467 18.9145 34.6867 18.8303 34.5129 18.798C34.3391 18.7657 34.1595 18.7868 33.9979 18.8585L32.7195 19.4263C32.0875 19.0774 31.4185 18.8001 30.725 18.5993L30.2228 17.2948C30.1593 17.1298 30.0473 16.9879 29.9015 16.8878C29.7557 16.7877 29.5831 16.7342 29.4062 16.7342H26.5939C26.4171 16.7342 26.2444 16.7877 26.0986 16.8878C25.9528 16.9879 25.8408 17.1298 25.7773 17.2948L25.2751 18.5993C24.5816 18.8 23.9126 19.0774 23.2806 19.4263L22.0022 18.8585C21.8406 18.7867 21.661 18.7655 21.4872 18.7978C21.3133 18.8302 21.1533 18.9144 21.0283 19.0396L19.0397 21.0283C18.9147 21.1533 18.8304 21.3133 18.7981 21.4871C18.7658 21.661 18.7869 21.8405 18.8587 22.0021L19.4263 23.2804C19.0774 23.9125 18.8 24.5815 18.5992 25.275L17.2949 25.7772C17.1299 25.8407 16.988 25.9527 16.8879 26.0985C16.7878 26.2443 16.7343 26.4169 16.7343 26.5938V29.4061C16.7343 29.5829 16.7878 29.7556 16.8879 29.9014C16.988 30.0472 17.1299 30.1592 17.2949 30.2227L18.599 30.7247C18.7998 31.4185 19.0772 32.0877 19.4261 32.72L18.8587 33.9978C18.7869 34.1594 18.7657 34.3389 18.798 34.5128C18.8303 34.6866 18.9145 34.8466 19.0396 34.9717L21.0283 36.9604C21.1534 37.0854 21.3134 37.1696 21.4872 37.2019C21.6611 37.2342 21.8406 37.2131 22.0022 37.1413L23.2806 36.5736C23.9126 36.9224 24.5816 37.1998 25.275 37.4006L25.7772 38.7051C25.8407 38.8701 25.9527 39.012 26.0985 39.1121C26.2443 39.2122 26.4169 39.2657 26.5938 39.2657H29.4061C29.5829 39.2657 29.7556 39.2122 29.9014 39.1121C30.0472 39.012 30.1592 38.8701 30.2227 38.7051L30.7246 37.401C31.4184 37.2003 32.0876 36.9229 32.7199 36.5739L33.9978 37.1415C34.1594 37.2133 34.339 37.2344 34.5128 37.2021C34.6867 37.1698 34.8467 37.0855 34.9717 36.9604L36.9603 34.9716ZM34.1591 35.2982L33.0214 34.7928C32.8915 34.7351 32.7495 34.7099 32.6077 34.7194C32.4658 34.7289 32.3285 34.7729 32.2074 34.8474C31.4838 35.2936 30.6934 35.6212 29.8664 35.818C29.7281 35.8509 29.5999 35.9169 29.493 36.0105C29.386 36.104 29.3034 36.2222 29.2523 36.3548L28.8054 37.5156H27.1946L26.7477 36.3544C26.6966 36.2217 26.6141 36.1035 26.5071 36.01C26.4001 35.9165 26.2719 35.8504 26.1336 35.8176C25.3068 35.6208 24.5167 35.2932 23.7932 34.8472C23.6722 34.7726 23.5349 34.7287 23.393 34.7192C23.2512 34.7097 23.1092 34.7349 22.9794 34.7926L21.8411 35.2982L20.702 34.1591L21.2073 33.0214C21.265 32.8915 21.2901 32.7495 21.2806 32.6077C21.2711 32.4658 21.2271 32.3285 21.1526 32.2074C20.7065 31.4838 20.3789 30.6935 20.1821 29.8665C20.1492 29.7282 20.0831 29.6001 19.9896 29.4931C19.896 29.3861 19.7778 29.3035 19.6452 29.2525L18.4844 28.8053V27.1946L19.6455 26.7475C19.7781 26.6965 19.8963 26.6139 19.9899 26.5069C20.0834 26.3999 20.1495 26.2718 20.1824 26.1335C20.3791 25.3066 20.7067 24.5165 21.1528 23.793C21.2273 23.672 21.2712 23.5346 21.2807 23.3928C21.2903 23.251 21.2651 23.109 21.2075 22.9791L20.702 21.841L21.841 20.702L22.9792 21.2075C23.1091 21.2652 23.2511 21.2904 23.3929 21.2809C23.5347 21.2714 23.6721 21.2275 23.7931 21.1529C24.5166 20.7069 25.3068 20.3793 26.1336 20.1825C26.2719 20.1497 26.4001 20.0836 26.507 19.9901C26.614 19.8965 26.6966 19.7784 26.7477 19.6457L27.1946 18.4844H28.8054L29.2525 19.6456C29.3035 19.7782 29.3861 19.8964 29.4931 19.99C29.6001 20.0835 29.7282 20.1496 29.8665 20.1824C30.6933 20.3792 31.4834 20.7068 32.2069 21.1528C32.3279 21.2273 32.4653 21.2712 32.6071 21.2807C32.7489 21.2902 32.8909 21.265 33.0207 21.2074L34.159 20.7018L35.2982 21.8409L34.7928 22.9786C34.7351 23.1085 34.71 23.2505 34.7195 23.3923C34.729 23.5342 34.773 23.6715 34.8475 23.7926C35.2937 24.5162 35.6213 25.3066 35.8181 26.1336C35.851 26.2719 35.9171 26.4 36.0107 26.507C36.1042 26.6139 36.2224 26.6965 36.355 26.7475L37.5156 27.1946V28.8054L36.3544 29.2525C36.2218 29.3035 36.1036 29.386 36.01 29.493C35.9165 29.6 35.8504 29.7281 35.8175 29.8664C35.6207 30.6932 35.2931 31.4834 34.8471 32.2069C34.7726 32.3279 34.7287 32.4653 34.7191 32.6071C34.7096 32.7489 34.7348 32.8908 34.7924 33.0207L35.2979 34.159L34.1591 35.2982ZM28 21.7914C24.5767 21.7914 21.7914 24.5766 21.7914 28C21.7914 31.4234 24.5766 34.2086 28 34.2086C31.4234 34.2086 34.2086 31.4234 34.2086 28C34.2086 24.5766 31.4233 21.7914 28 21.7914ZM28 32.4586C25.5416 32.4586 23.5414 30.4585 23.5414 28C23.5414 25.5415 25.5416 23.5414 28 23.5414C30.4584 23.5414 32.4586 25.5415 32.4586 28C32.4586 30.4585 30.4584 32.4586 28 32.4586ZM22.3903 7.51319C22.3644 7.40123 22.3608 7.28526 22.3797 7.17191C22.3987 7.05856 22.4397 6.95006 22.5006 6.85258C22.5615 6.75511 22.6409 6.67058 22.7345 6.60382C22.828 6.53707 22.9338 6.48939 23.0457 6.46352C33.3203 4.08942 43.8939 9.36753 48.1877 19.0157C49.7217 22.4626 50.3431 26.189 50.0173 29.9033L50.8389 29.0548C50.9188 28.9722 51.0142 28.9062 51.1197 28.8605C51.2251 28.8148 51.3385 28.7903 51.4534 28.7885C51.5683 28.7866 51.6824 28.8074 51.7893 28.8497C51.8961 28.8919 51.9936 28.9548 52.0762 29.0348C52.2429 29.1962 52.3387 29.4172 52.3424 29.6493C52.3462 29.8813 52.2576 30.1053 52.0962 30.272L49.3729 33.0847C49.2805 33.1801 49.1677 33.2532 49.0429 33.2985C48.9181 33.3439 48.7847 33.3602 48.6526 33.3464C48.5206 33.3324 48.3935 33.2887 48.2809 33.2184C48.1682 33.1481 48.0731 33.0531 48.0026 32.9406L45.9246 29.6225C45.8033 29.4258 45.7648 29.1892 45.8173 28.9643C45.8698 28.7393 46.0092 28.5442 46.205 28.4216C46.4008 28.299 46.6371 28.2588 46.8624 28.3098C47.0877 28.3607 47.2837 28.4987 47.4077 28.6937L48.2466 30.0333C48.604 26.5207 48.0401 22.9883 46.5888 19.7274C42.635 10.8432 32.8991 5.98172 23.4398 8.16878C22.969 8.27706 22.4991 7.98394 22.3903 7.51319ZM33.6102 48.4867C33.6624 48.7128 33.6227 48.9504 33.4998 49.1472C33.3769 49.3441 33.1808 49.484 32.9547 49.5363C31.3317 49.9119 29.6713 50.1018 28.0055 50.1021C19.4433 50.1021 11.4165 45.0826 7.81244 36.9843C6.27922 33.539 5.65786 29.8102 5.98358 26.0958L5.1613 26.9451C5.08139 27.0277 4.98599 27.0937 4.88055 27.1394C4.77512 27.1851 4.66172 27.2096 4.54682 27.2114C4.43192 27.2133 4.31778 27.1925 4.21093 27.1502C4.10407 27.1079 4.00659 27.045 3.92405 26.9651C3.75733 26.8037 3.66156 26.5826 3.6578 26.3506C3.65405 26.1186 3.74262 25.8946 3.90403 25.7278L6.62736 22.9152C6.71968 22.8197 6.83251 22.7466 6.9573 22.7012C7.08208 22.6559 7.21556 22.6395 7.3476 22.6534C7.47965 22.6673 7.6068 22.7111 7.71942 22.7814C7.83204 22.8517 7.92717 22.9468 7.99761 23.0593L10.0756 26.3774C10.1969 26.5741 10.2354 26.8107 10.1829 27.0356C10.1304 27.2606 9.99104 27.4556 9.79526 27.5783C9.59947 27.7009 9.36314 27.7411 9.13782 27.6901C8.91249 27.6392 8.71647 27.5012 8.5925 27.3062L7.75327 25.9661C7.39594 29.4783 7.96075 33.0131 9.41139 36.2726C13.3652 45.1569 23.101 50.0178 32.5607 47.8312C32.6727 47.8053 32.7886 47.8017 32.902 47.8207C33.0153 47.8396 33.1238 47.8807 33.2212 47.9416C33.3187 48.0024 33.4032 48.0819 33.4699 48.1754C33.5367 48.269 33.5843 48.3747 33.6102 48.4867Z" fill="#21409C"/>
</svg>
