<svg width="122" height="122" viewBox="0 0 122 122" fill="none" xmlns="http://www.w3.org/2000/svg">
<path d="M109.704 13.2865C108.566 11.7677 107.134 10.4938 105.493 9.54077C103.852 8.58769 102.036 7.975 100.153 7.73927C96.4322 7.35587 92.7066 8.4249 89.7549 10.7231C86.8031 13.0213 84.8532 16.371 84.3125 20.0727L82.9209 28.7843C82.8761 29.0883 82.7702 29.3801 82.6097 29.6422C82.4492 29.9042 82.2373 30.1311 81.9869 30.3093C81.6394 30.5619 81.2291 30.714 80.8009 30.7489C80.3727 30.7839 79.9431 30.7003 79.5593 30.5074C79.1754 30.3145 78.852 30.0197 78.6246 29.6552C78.3971 29.2908 78.2743 28.8707 78.2697 28.4411C78.1935 20.6827 74.0378 15.574 66.8322 14.4302C63.0842 13.7915 59.2357 14.6648 56.1306 16.8588C53.0254 19.0528 50.9167 22.3884 50.2669 26.1346L43.0231 71.7702C42.9251 72.4182 42.6993 73.0402 42.3586 73.6001C42.018 74.16 41.5695 74.6465 41.0391 75.0315C40.5087 75.4164 39.9071 75.692 39.2692 75.8423C38.6313 75.9926 37.9699 76.0145 37.3234 75.9068C36.4089 75.7452 35.556 75.3366 34.8571 74.725C34.1582 74.1135 33.6399 73.3224 33.3584 72.4374C32.6635 70.5178 31.4172 68.8461 29.7758 67.632C28.1345 66.418 26.1712 65.7156 24.1322 65.613C21.5343 65.5484 19.0022 66.4348 17.0119 68.1057C15.0215 69.7766 13.71 72.1169 13.3238 74.6868L9.72094 97.4665C8.57719 104.596 11.4175 110.143 16.9456 111.554C17.7977 111.78 18.6755 111.895 19.5572 111.897C22.0291 111.901 24.421 111.021 26.3015 109.417C28.1821 107.812 29.4274 105.589 29.8128 103.147L30.5753 98.3815C30.7587 97.2134 31.3186 96.1372 32.1699 95.3167C33.0212 94.4962 34.1172 93.9762 35.2912 93.8359C36.4652 93.6956 37.6529 93.9427 38.6736 94.5396C39.6942 95.1365 40.4919 96.0504 40.9453 97.1424C41.8898 99.6124 43.5093 101.767 45.6191 103.362C47.729 104.956 50.2444 105.925 52.8784 106.159C56.5291 106.417 60.1421 105.283 62.9895 102.984C65.837 100.684 67.7073 97.3915 68.2238 93.7683L74.3428 55.1286C74.3906 54.7983 74.5047 54.4811 74.6783 54.1961C74.852 53.9111 75.0815 53.6641 75.3531 53.4702C75.9051 53.0761 76.5887 52.9121 77.2594 53.0127C77.7998 53.1046 78.2966 53.367 78.6773 53.7614C79.058 54.1558 79.3026 54.6616 79.3753 55.2049C79.8167 58.3046 81.2715 61.1712 83.5129 63.3574C85.7542 65.5436 88.6562 66.9266 91.7659 67.2905C95.4594 67.617 99.1383 66.523 102.053 64.2315C104.968 61.9399 106.9 58.6232 107.454 54.9571L112.353 23.9996C112.656 22.1275 112.578 20.2134 112.123 18.3724C111.667 16.5314 110.845 14.8015 109.704 13.2865ZM101.85 94.2258C99.8566 94.2239 97.9075 94.8134 96.2493 95.9197C94.5911 97.026 93.2983 98.5993 92.5347 100.441C91.771 102.282 91.5706 104.308 91.9591 106.263C92.3475 108.219 93.3072 110.015 94.7167 111.424C96.1262 112.834 97.9222 113.793 99.8774 114.182C101.833 114.57 103.859 114.37 105.7 113.606C107.542 112.842 109.115 111.55 110.221 109.892C111.327 108.233 111.917 106.284 111.915 104.291C111.91 101.623 110.848 99.0658 108.961 97.1794C107.075 95.2929 104.518 94.2309 101.85 94.2258Z" fill="#F47C03"/>
<path d="M97.084 80.6534C97.0859 79.3206 96.6925 78.0172 95.9536 76.908C95.2147 75.7988 94.1635 74.9336 92.9329 74.4219C91.7024 73.9101 90.3476 73.7747 89.0401 74.0329C87.7326 74.2911 86.531 74.9312 85.5872 75.8722C84.6435 76.8133 84 78.0131 83.7381 79.3199C83.4763 80.6267 83.6078 81.9818 84.1161 83.2138C84.6244 84.4458 85.4866 85.4995 86.5937 86.2415C87.7008 86.9835 89.0031 87.3806 90.3359 87.3825C92.1212 87.379 93.8327 86.6695 95.0969 85.4088C96.3611 84.1482 97.0754 82.4387 97.084 80.6534ZM32.4049 36.3903C34.3975 36.3922 36.3458 35.8031 38.0036 34.6977C39.6614 33.5923 40.9542 32.0201 41.7185 30.1799C42.4827 28.3397 42.6841 26.3143 42.2973 24.3597C41.9104 22.405 40.9526 20.609 39.545 19.1987C38.1373 17.7884 36.3431 16.8272 34.3892 16.4367C32.4353 16.0461 30.4095 16.2437 28.5679 17.0044C26.7263 17.7652 25.1517 19.055 24.0431 20.7107C22.9345 22.3664 22.3418 24.3137 22.3399 26.3062C22.3409 28.9771 23.4011 31.5385 25.2878 33.4289C27.1746 35.3192 29.7341 36.3842 32.4049 36.3903ZM20.9102 56.7109C22.2449 56.7109 23.5496 56.3151 24.6593 55.5736C25.769 54.8321 26.6339 53.7782 27.1447 52.5452C27.6554 51.3121 27.7891 49.9553 27.5287 48.6463C27.2683 47.3373 26.6256 46.1349 25.6819 45.1911C24.7381 44.2474 23.5357 43.6047 22.2267 43.3443C20.9177 43.0839 19.5609 43.2176 18.3278 43.7283C17.0948 44.2391 16.0409 45.104 15.2994 46.2137C14.5579 47.3234 14.1621 48.6281 14.1621 49.9628C14.1616 50.8491 14.3358 51.7268 14.6748 52.5458C15.0137 53.3647 15.5108 54.1088 16.1375 54.7355C16.7642 55.3623 17.5083 55.8593 18.3272 56.1982C19.1462 56.5372 20.0239 56.7114 20.9102 56.7109Z" fill="#F47C03"/>
</svg>
