<svg width="48" height="48" viewBox="0 0 48 48" fill="none" xmlns="http://www.w3.org/2000/svg">
<rect x="0.5" y="0.5" width="47" height="47" rx="23.5" fill="#F9F9F9"/>
<rect x="0.5" y="0.5" width="47" height="47" rx="23.5" stroke="#21409C"/>
<path d="M28.3514 17.0608H30.4649V13.2021H26.624C26.3036 13.1887 22.3978 13.1141 21.3854 16.9746C21.3708 17.015 21.0472 17.9331 21.0472 20.0778L17.5352 20.0885V24.1356L21.0517 24.1254V34.8003H26.4231V24.1347H29.9783V20.0769H26.4231V18.8001C26.4231 18.0065 26.7578 17.0608 28.3514 17.0608ZM29.0895 20.9653V23.2455H25.5343V33.911H21.9405V23.2339L18.424 23.2441V20.9746L21.9498 20.9644L21.9405 20.5124C21.8943 18.2406 22.2182 17.2852 22.2329 17.2394C23.1066 13.9144 26.4427 14.0815 26.5858 14.0904L29.5761 14.0913V16.1724H28.3514C26.2747 16.1724 25.5348 17.5296 25.5348 18.7997V20.9653H29.0895Z" fill="#21409C"/>
</svg>
