<svg width="48" height="48" viewBox="0 0 48 48" fill="none" xmlns="http://www.w3.org/2000/svg">
<rect x="0.5" y="0.5" width="47" height="47" rx="23.5" fill="#F9F9F9"/>
<rect x="0.5" y="0.5" width="47" height="47" rx="23.5" stroke="#21409C"/>
<path d="M28.9523 13.2H19.0461C15.8221 13.2 13.1992 15.8228 13.1992 19.0469V28.9532C13.1992 32.177 15.8221 34.7999 19.0461 34.7999H28.9524C32.1763 34.7999 34.7992 32.177 34.7992 28.9532V19.0469C34.7992 15.8228 32.1763 13.2 28.9523 13.2ZM33.5329 28.9532C33.5329 31.4788 31.4781 33.5336 28.9523 33.5336H19.0461C16.5203 33.5336 14.4655 31.4788 14.4655 28.9532V19.0469C14.4655 16.5211 16.5203 14.4662 19.0461 14.4662H28.9524C31.4781 14.4662 33.5329 16.5211 33.5329 19.0469V28.9532Z" fill="#21409C"/>
<path d="M23.9979 18.0939C20.7412 18.0939 18.0918 20.7432 18.0918 23.9999C18.0918 27.2566 20.7412 29.906 23.9979 29.906C27.2546 29.906 29.904 27.2566 29.904 23.9999C29.904 20.7432 27.2546 18.0939 23.9979 18.0939ZM23.9979 28.6397C21.4396 28.6397 19.3581 26.5584 19.3581 23.9999C19.3581 21.4417 21.4396 19.3602 23.9979 19.3602C26.5563 19.3602 28.6377 21.4417 28.6377 23.9999C28.6377 26.5584 26.5563 28.6397 23.9979 28.6397ZM30.0452 15.9963C29.0828 15.9963 28.3 16.7793 28.3 17.7415C28.3 18.7039 29.0828 19.4868 30.0452 19.4868C31.0076 19.4868 31.7905 18.7039 31.7905 17.7416C31.7905 16.7792 31.0076 15.9963 30.0452 15.9963ZM30.0452 18.2204C29.7812 18.2204 29.5663 18.0055 29.5663 17.7415C29.5663 17.4774 29.7812 17.2626 30.0452 17.2626C30.3093 17.2626 30.5242 17.4774 30.5242 17.7415C30.5242 18.0055 30.3093 18.2204 30.0452 18.2204Z" fill="#21409C"/>
</svg>
