<svg width="48" height="48" viewBox="0 0 48 48" fill="none" xmlns="http://www.w3.org/2000/svg">
<rect x="0.5" y="0.5" width="47" height="47" rx="23.5" fill="#F9F9F9"/>
<rect x="0.5" y="0.5" width="47" height="47" rx="23.5" stroke="#21409C"/>
<path d="M16.1152 13.3799C15.3232 13.3799 14.6032 13.6679 14.0632 14.2079C13.4872 14.7839 13.1992 15.5039 13.1992 16.2599C13.1992 17.0518 13.5232 17.7719 14.0632 18.3119C14.6032 18.8519 15.3592 19.1759 16.0792 19.1399H16.1512C16.8713 19.1399 17.5552 18.8519 18.0952 18.3119C18.6352 17.7719 18.9592 17.0518 18.9592 16.2599C18.9952 15.5039 18.6712 14.7838 18.1312 14.2438C17.5912 13.6679 16.8712 13.3799 16.1152 13.3799ZM17.5912 17.8079C17.1952 18.2039 16.6552 18.4559 16.0792 18.4199C15.5392 18.4199 14.9632 18.2039 14.5672 17.8079C14.1352 17.4119 13.9192 16.8359 13.9192 16.2599C13.9192 15.6839 14.1352 15.1439 14.5672 14.7119C14.9632 14.3159 15.5032 14.0999 16.1152 14.0999C16.6552 14.0999 17.1952 14.3159 17.5912 14.7119C18.0232 15.1439 18.2392 15.6839 18.2392 16.2599C18.2392 16.8359 18.0232 17.4119 17.5912 17.8079ZM17.5192 19.8599H14.6032C14.0272 19.8599 13.5592 20.3279 13.5592 20.9399V33.5399C13.5592 34.1159 14.0632 34.6199 14.6392 34.6199H17.5192C18.0952 34.6199 18.5992 34.1159 18.5992 33.5759V20.9399C18.5992 20.3639 18.0952 19.8599 17.5192 19.8599ZM17.8792 33.5759C17.8792 33.7559 17.6992 33.8999 17.5192 33.8999H14.6392C14.4592 33.8999 14.2792 33.7199 14.2792 33.5399V20.9399C14.2792 20.7599 14.4232 20.5799 14.6032 20.5799H17.5192C17.6992 20.5799 17.8792 20.7599 17.8792 20.9399V33.5759ZM29.7592 19.4999H29.0032C27.5992 19.4999 26.2672 20.1119 25.4032 21.0839V20.5799C25.4032 20.2199 25.0432 19.8598 24.6832 19.8598H21.0832C20.7592 19.8598 20.3632 20.1479 20.3632 20.5438V33.9718C20.3632 34.3678 20.7592 34.6198 21.0832 34.6198H25.0432C25.3672 34.6198 25.7632 34.3678 25.7632 33.9718V26.1958C25.7632 25.0078 26.6272 24.0718 27.7432 24.0718C28.3192 24.0718 28.8592 24.2878 29.2552 24.6838C29.6152 25.0078 29.7592 25.5118 29.7592 26.1598V33.8998C29.7592 34.2598 30.1192 34.6199 30.4793 34.6199H34.0792C34.4392 34.6199 34.7993 34.2599 34.7993 33.8998V24.6118C34.7992 21.7319 32.6032 19.4999 29.7592 19.4999ZM34.0792 33.8639L34.0432 33.8998H30.5152L30.4792 26.1599C30.4792 25.2959 30.2632 24.6479 29.7952 24.1799C29.2552 23.6399 28.5352 23.3519 27.7792 23.3519C26.2672 23.3879 25.0792 24.6119 25.0792 26.1959V33.8998H21.1192V20.5799H24.6832L24.7192 20.6158V22.8838L25.6912 21.9118L25.7272 21.8759C26.4472 20.8679 27.7072 20.2199 29.0392 20.2199H29.7952C32.2072 20.2199 34.0792 22.1639 34.0792 24.6119V33.8639Z" fill="#21409C"/>
</svg>
