<svg width="56" height="56" viewBox="0 0 56 56" fill="none" xmlns="http://www.w3.org/2000/svg">
<path d="M54.7023 30.4564L52.8003 29.8407C52.7555 29.8264 52.7369 29.8111 52.7161 29.7575C52.6133 29.4819 52.4984 29.2063 52.3748 28.9339C52.3552 28.8902 52.3552 28.8694 52.3792 28.8224L53.287 27.0385C53.6567 26.3155 53.52 25.4416 52.9436 24.8597L50.8819 22.798C50.3033 22.2249 49.4283 22.0882 48.7064 22.4579L46.9269 23.3657C46.8755 23.3919 46.8536 23.3897 46.8066 23.3679C46.5375 23.2454 46.2619 23.1305 45.9873 23.0277C45.9327 23.0069 45.9173 22.9872 45.9042 22.9479L45.2873 21.0414C45.0369 20.266 44.3194 19.7454 43.5034 19.7454H40.5919C39.7628 19.7454 39.0628 20.2539 38.8091 21.0404L38.19 22.9435C38.1758 22.9872 38.1605 23.008 38.1134 23.0266C37.8389 23.1283 37.5611 23.2421 37.2833 23.3689C37.2406 23.3886 37.2188 23.3908 37.1739 23.3679L35.3889 22.4568C34.6659 22.0871 33.792 22.2238 33.2102 22.8002L31.1484 24.8619C30.5753 25.4405 30.4386 26.3155 30.8083 27.0374L31.7183 28.8202C31.7413 28.865 31.7413 28.888 31.7183 28.9372C31.5958 29.2063 31.4809 29.4819 31.3759 29.7641C31.3617 29.8035 31.3464 29.8232 31.2994 29.8396L29.3908 30.4575C29.0233 30.5779 28.7138 30.8032 28.4884 31.093C28.4644 31.07 28.4403 31.0471 28.4163 31.0219L26.7275 29.2599V28.1093C27.2886 27.7461 27.818 27.325 28.3069 26.8471C30.0208 25.1736 31.0675 22.996 31.3005 20.6499C32.8886 20.2485 34.0414 18.8233 34.0414 17.1116C34.0414 16.206 33.7089 15.378 33.1609 14.7404V11.0139C33.1609 5.51457 28.6864 1.04004 23.187 1.04004H17.4788C15.3088 1.04004 13.5073 2.64348 13.1978 4.72707C11.0606 4.98738 9.39922 6.81395 9.39922 9.02004V14.7393C8.85125 15.378 8.51875 16.2071 8.51875 17.1127C8.51875 18.8244 9.67157 20.2496 11.2597 20.651C11.4927 22.996 12.5394 25.1747 14.2533 26.8482C14.7422 27.3261 15.2716 27.7472 15.8327 28.1104V29.2599L14.1428 31.023C13.7972 31.385 13.4264 31.6027 12.9408 31.7296L5.75703 33.6207C4.1186 34.0516 2.94282 35.3018 2.6136 36.9664L0.0848472 49.7961C-0.166715 51.0769 0.160316 52.385 0.98391 53.3858C1.80641 54.3855 3.02703 54.9597 4.33188 54.9597H38.2316C39.5364 54.9597 40.757 54.3866 41.5795 53.3858C42.402 52.385 42.7302 51.0769 42.4786 49.795L42.0553 47.648H43.5056C44.3194 47.648 45.0369 47.1274 45.2895 46.3519L45.9053 44.4499C45.9228 44.3974 45.9425 44.3821 45.9884 44.3657C46.2641 44.2629 46.5397 44.148 46.812 44.0244C46.8569 44.0036 46.8798 44.0036 46.9214 44.0255L48.7064 44.9366C49.4294 45.3063 50.3033 45.1696 50.8852 44.5932L52.9469 42.5314C53.52 41.9528 53.6567 41.0779 53.287 40.356L52.3792 38.5764C52.353 38.525 52.3552 38.5032 52.377 38.4561C52.5028 38.1816 52.6166 37.9038 52.7161 37.6369C52.7369 37.5822 52.7588 37.5669 52.7981 37.5538L54.7034 36.9336C55.4909 36.6788 55.9995 35.9788 55.9995 35.1497V32.2382C55.9995 31.4233 55.4778 30.7069 54.7023 30.4564ZM13.7261 6.44426H14.0269C14.5092 6.44426 14.9008 6.0527 14.9008 5.57035V5.36582C14.9008 3.94504 16.058 2.78895 17.4798 2.78895H23.1881C27.7239 2.78895 31.4131 6.47926 31.4131 11.0139V13.6105C31.0741 13.511 30.7153 13.4596 30.3434 13.4639V13.0418C30.3434 12.03 29.965 11.1211 29.2497 10.4146C28.5289 9.70145 27.6178 9.32957 26.6116 9.34379C22.662 9.3777 19.3589 9.02223 16.5141 8.25441C16.4616 8.2402 16.408 8.23145 16.3533 8.22707C15.4564 8.15707 14.2139 8.47316 13.3827 10.3686C12.9648 11.3202 12.7286 12.4774 12.5448 13.4836C12.0755 13.4344 11.601 13.4775 11.1481 13.6105V9.02113C11.1492 7.60035 12.3053 6.44426 13.7261 6.44426ZM12.9627 19.8657C12.9506 19.4019 12.5777 19.0279 12.1139 19.0136C11.0792 18.9841 10.2688 18.1485 10.2688 17.1127C10.2688 16.0649 11.1208 15.2118 12.1697 15.2118C12.4213 15.2118 12.6706 15.2621 12.9102 15.3594C13.1541 15.46 13.4297 15.4447 13.6616 15.3189C13.8934 15.1932 14.0553 14.9689 14.1023 14.7097C14.1319 14.5511 14.1614 14.386 14.1909 14.2154C14.5738 12.0629 15.0408 9.96613 16.1498 9.96613H16.152C19.1314 10.7591 22.5603 11.1277 26.6313 11.0905C27.1738 11.0839 27.6298 11.2688 28.0214 11.656C28.4075 12.0377 28.5956 12.4905 28.5956 13.0407V14.4943C28.5956 14.7786 28.7334 15.0444 28.9653 15.2085C29.1972 15.3725 29.4947 15.413 29.7616 15.3179C29.9628 15.2468 30.1761 15.2096 30.3927 15.2096C31.4405 15.2096 32.2936 16.0616 32.2936 17.1105C32.2936 18.1463 31.4831 18.9808 30.4484 19.0114C29.9847 19.0246 29.6117 19.3986 29.5997 19.8635C29.4848 24.3325 25.753 27.9682 21.2806 27.9682C16.8083 27.9682 13.0775 24.3347 12.9627 19.8657ZM21.2817 29.7193C22.5658 29.7193 23.8159 29.4754 24.9808 29.0127V30.0168C24.9808 32.0566 23.3216 33.7158 21.2817 33.7158C19.2419 33.7158 17.5827 32.0566 17.5827 30.0168V29.0127C18.7598 29.4803 20.0151 29.72 21.2817 29.7193ZM10.6231 53.2108L8.84032 38.3489C8.83157 38.28 8.84688 38.2494 8.88188 38.2111C8.92453 38.163 8.95516 38.1499 9.0175 38.1499H33.5459C33.6083 38.1499 33.6389 38.1641 33.6816 38.2111C33.7166 38.2494 33.7308 38.28 33.7231 38.3489L31.9403 53.2108H10.6231ZM40.2288 52.2746C39.7398 52.8696 39.0114 53.2108 38.2316 53.2108H33.7013L35.46 38.5568C35.5267 37.9989 35.3583 37.4619 34.9864 37.0452C34.6091 36.623 34.1114 36.3999 33.547 36.3999H9.01641C8.45204 36.3999 7.95438 36.623 7.57703 37.0452C7.20516 37.4619 7.03672 37.9989 7.10344 38.5568L8.8611 53.2108H4.33188C3.55203 53.2108 2.8236 52.8696 2.33469 52.2746C1.84469 51.6796 1.6511 50.8986 1.80094 50.133L4.33078 37.3044C4.52985 36.2982 5.21235 35.5708 6.20438 35.3105L13.3859 33.4194C14.18 33.2116 14.8428 32.8222 15.4083 32.2294L16.0569 31.5524C16.7219 33.8099 18.812 35.4625 21.2817 35.4625C23.7514 35.4625 25.8416 33.8099 26.5066 31.5524L27.1541 32.2272C27.7217 32.8211 28.3834 33.2105 29.1764 33.4172L36.3602 35.3083C37.3511 35.5686 38.0336 36.296 38.2327 37.3011L38.3355 37.8229L38.342 37.8579L40.1325 46.9382L40.1358 46.9546L40.7625 50.1308C40.9123 50.8986 40.7177 51.6796 40.2288 52.2746ZM38.0172 33.6972C38.0172 31.4736 39.8252 29.6635 42.0477 29.6635C44.2713 29.6635 46.0814 31.4725 46.0814 33.6972C46.0814 35.9197 44.2723 37.7277 42.0477 37.7277C41.3105 37.7277 40.605 37.533 39.9859 37.1622L39.9477 36.9654C39.7092 35.76 39.0245 34.7735 38.0423 34.1566C38.0257 34.004 38.0173 33.8507 38.0172 33.6972ZM54.2506 35.1508C54.2506 35.2154 54.2244 35.2514 54.1631 35.2711L52.2534 35.8924C51.7033 36.0739 51.2866 36.4732 51.0777 37.0244C50.9902 37.2607 50.895 37.4914 50.7878 37.7255C50.5439 38.2538 50.5527 38.8335 50.8184 39.3639L51.7306 41.15C51.7481 41.185 51.7656 41.2386 51.7077 41.2966L49.6525 43.3518C49.5913 43.4119 49.5377 43.3955 49.5027 43.3769L47.7133 42.4636C47.1905 42.1989 46.6097 42.1891 46.0814 42.433C45.852 42.5381 45.6189 42.6347 45.3825 42.7228C44.8323 42.923 44.4288 43.3408 44.2428 43.9041L43.6259 45.8094C43.6063 45.8685 43.5669 45.8969 43.5056 45.8969H41.7097L40.3961 39.2338C40.9266 39.3913 41.4811 39.4733 42.0488 39.4733C45.237 39.4733 47.8314 36.8811 47.8314 33.6939C47.8314 30.5057 45.237 27.9113 42.0488 27.9113C38.9348 27.9113 36.3897 30.3886 36.2748 33.4774L30.4583 31.9461L31.843 31.4977C32.4019 31.3139 32.8197 30.9093 33.0177 30.3657C33.1063 30.1294 33.2047 29.8921 33.3086 29.6635C33.5547 29.1319 33.5438 28.5511 33.278 28.025L32.3658 26.2389C32.3483 26.2039 32.3308 26.1504 32.3888 26.0924L34.4439 24.0372C34.5052 23.9771 34.5588 23.9935 34.5938 24.0121L36.3864 24.9264C36.9103 25.1879 37.49 25.1977 38.015 24.9549C38.2487 24.8482 38.4862 24.7501 38.727 24.6607C39.2706 24.4539 39.6709 24.0383 39.8536 23.4838L40.4738 21.5763C40.4934 21.5161 40.5295 21.4899 40.5941 21.4899H43.5056C43.568 21.4899 43.6063 21.5172 43.6259 21.5763L44.245 23.4882C44.4266 24.0405 44.8291 24.4572 45.377 24.6629C45.6133 24.7514 45.8506 24.8499 46.0792 24.9538C46.6075 25.1988 47.1872 25.1889 47.7177 24.9232L49.5038 24.011C49.5388 23.9935 49.5923 23.976 49.6503 24.0339L51.7055 26.0891C51.7656 26.1504 51.7492 26.2039 51.7306 26.24L50.825 28.0207C50.5548 28.5446 50.5417 29.1275 50.7878 29.6591C50.8943 29.8909 50.9921 30.1266 51.0809 30.3657C51.2866 30.9125 51.7033 31.315 52.26 31.4977L54.1664 32.1146C54.2255 32.1332 54.2528 32.1714 54.2528 32.2349V35.1508H54.2506ZM21.2817 42.8618C19.7297 42.8618 18.4664 44.1261 18.4664 45.6803C18.4664 47.2324 19.7297 48.4957 21.2817 48.4957C22.8338 48.4957 24.097 47.2324 24.097 45.6803C24.0959 44.1261 22.8338 42.8618 21.2817 42.8618ZM21.2817 46.7468C20.6933 46.7468 20.2153 46.2688 20.2153 45.6803C20.2153 45.0908 20.6933 44.6107 21.2817 44.6107C21.8702 44.6107 22.3481 45.0908 22.3481 45.6803C22.3481 46.2677 21.8691 46.7468 21.2817 46.7468Z" fill="#21409C"/>
</svg>
