<svg width="57" height="56" viewBox="0 0 57 56" fill="none" xmlns="http://www.w3.org/2000/svg">
<path d="M54.4325 26.3909L42.7775 16.7659C42.6495 16.6601 42.4941 16.593 42.3294 16.5722C42.1647 16.5515 41.9975 16.578 41.8473 16.6488C41.6971 16.7195 41.5702 16.8315 41.4812 16.9717C41.3923 17.1119 41.3451 17.2745 41.3451 17.4405V22.7631C38.3348 22.9898 35.4262 23.9525 32.8751 25.5666V15.1559H38.1251C38.291 15.1555 38.4534 15.1081 38.5933 15.0191C38.7333 14.9302 38.8451 14.8033 38.9158 14.6532C38.9865 14.5031 39.0131 14.3361 38.9925 14.1715C38.972 14.0069 38.9052 13.8516 38.7998 13.7235L29.1748 2.06762C28.8423 1.66512 28.158 1.66512 27.8255 2.06762L18.2005 13.7226C18.0944 13.8505 18.0269 14.0059 18.006 14.1708C17.9851 14.3356 18.0116 14.503 18.0824 14.6533C18.1532 14.8037 18.2653 14.9307 18.4057 15.0195C18.5462 15.1084 18.709 15.1554 18.8751 15.155H24.1251V34.7279C21.5959 32.9942 18.6945 31.8795 15.6551 31.4737V26.0514C15.6548 25.8855 15.6074 25.7232 15.5184 25.5832C15.4294 25.4432 15.3025 25.3314 15.1525 25.2607C15.0024 25.19 14.8354 25.1634 14.6708 25.184C14.5062 25.2045 14.3508 25.2714 14.2228 25.3767L2.56777 35.0009C2.46838 35.083 2.38835 35.186 2.33342 35.3026C2.27849 35.4193 2.25 35.5466 2.25 35.6755C2.25 35.8044 2.27849 35.9317 2.33342 36.0484C2.38835 36.165 2.46838 36.268 2.56777 36.3501L14.2228 45.9751C14.3508 46.0805 14.5062 46.1474 14.6708 46.1679C14.8354 46.1884 15.0024 46.1618 15.1525 46.0911C15.3025 46.0205 15.4294 45.9087 15.5184 45.7687C15.6074 45.6287 15.6548 45.4664 15.6551 45.3005V40.3707C20.549 41.5511 24.1251 45.9979 24.1251 51.1052V53.375C24.1251 53.6071 24.2173 53.8296 24.3814 53.9937C24.5455 54.1578 24.7681 54.25 25.0001 54.25H32.0001C32.2322 54.25 32.4548 54.1578 32.6189 53.9937C32.783 53.8296 32.8751 53.6071 32.8751 53.375V41.3166C32.8743 38.9421 33.7307 36.647 35.2868 34.8535C36.8429 33.0599 38.9942 31.8883 41.3451 31.5542V36.6905C41.3455 36.8564 41.3929 37.0187 41.4819 37.1587C41.5709 37.2987 41.6978 37.4105 41.8478 37.4811C41.9979 37.5518 42.1649 37.5784 42.3295 37.5579C42.4941 37.5374 42.6494 37.4705 42.7775 37.3651L54.4325 27.7401C54.5319 27.658 54.6119 27.555 54.6669 27.4384C54.7218 27.3217 54.7503 27.1944 54.7503 27.0655C54.7503 26.9366 54.7218 26.8093 54.6669 26.6926C54.6119 26.576 54.5319 26.473 54.4325 26.3909ZM31.1251 52.5H25.8751V51.1052C25.8751 44.7921 21.1589 39.3505 14.9053 38.4466C14.7811 38.4288 14.6545 38.4379 14.5342 38.4733C14.4138 38.5086 14.3024 38.5694 14.2076 38.6516C14.1127 38.7337 14.0367 38.8353 13.9845 38.9494C13.9323 39.0634 13.9053 39.1874 13.9051 39.3129V43.4437L4.49889 35.6764L13.9051 27.909V32.2577C13.9051 32.4762 13.9868 32.6867 14.1342 32.848C14.2815 33.0093 14.4838 33.1096 14.7014 33.1292C23.9108 33.9579 31.1251 41.8539 31.1251 51.1061V52.5ZM43.0951 34.8329V30.5926C43.0953 30.4741 43.0713 30.3567 43.0245 30.2478C42.9777 30.1389 42.9091 30.0406 42.823 29.9591C42.7367 29.8779 42.635 29.8148 42.524 29.7735C42.413 29.7322 42.2948 29.7135 42.1764 29.7185C35.9788 30.0239 31.1243 35.1181 31.1243 41.3166V43.0815C29.9089 40.391 28.1166 38.0009 25.8743 36.0806V14.28C25.8743 14.0479 25.7821 13.8254 25.618 13.6613C25.4539 13.4972 25.2313 13.405 24.9993 13.405H20.7319L28.4993 3.99875L36.2666 13.405H31.9993C31.7672 13.405 31.5446 13.4972 31.3805 13.6613C31.2165 13.8254 31.1243 14.0479 31.1243 14.28V27.2396C31.1244 27.4027 31.1701 27.5625 31.2562 27.701C31.3423 27.8396 31.4654 27.9512 31.6117 28.0235C31.7579 28.0957 31.9214 28.1257 32.0837 28.1099C32.2461 28.0942 32.4008 28.0334 32.5304 27.9344C35.3636 25.7705 38.7236 24.5717 42.2455 24.4667C42.473 24.4599 42.6889 24.3647 42.8473 24.2014C43.0058 24.038 43.0944 23.8193 43.0943 23.5917V19.2964L52.5005 27.0637L43.0943 34.8311L43.0951 34.8329Z" fill="#21409C"/>
</svg>
