  <svg
                  width="89"
                  height="73"
                  viewBox="0 0 89 73"
                  fill="none"
                  xmlns="http://www.w3.org/2000/svg"
                >
                  <path
                    d="M35.5529 16.2757C35.5529 16.2757 49.0774 7.87887 57.6227 14.3435C66.168 20.8081 57.2515 30.915 69.5868 30.915C81.9222 30.915 88.6102 40.9464 84.4489 54.3966C80.2876 67.8469 69.958 58.8562 64.3107 66.435C61.0761 70.7768 47.6656 72.8254 40.0118 63.5365C32.358 54.2475 44.3958 50.9784 37.4851 44.885C30.5744 38.7915 19.3532 25.4161 35.5529 16.2757Z"
                    fill="#9E97FC"
                    fill-opacity="0.15"
                  />
                  <path
                    d="M65.3504 19.9917C65.3504 19.9917 65.127 28.1658 72.1869 28.3117C79.2467 28.4577 76.5709 23.4074 73.4502 23.4817C70.3296 23.5559 68.9171 20.4346 68.9914 17.4625C69.0656 14.4903 65.5002 16.2017 65.3504 19.9917Z"
                    fill="#9E97FC"
                    fill-opacity="0.15"
                  />
                  <g clip-path="url(#clip0_2524_2401)">
                    <path
                      d="M38.7735 53.2376H17.3379C22.723 50.7413 22.2504 43.4707 22.2504 43.4707H33.8611C33.8611 43.4707 33.3884 50.7412 38.7735 53.2376Z"
                      fill="#7CA1B1"
                    />
                    <path
                      d="M33.86 43.4707H29.9969C29.9969 43.4707 29.5242 50.7413 34.9094 53.2376H38.7725C33.3874 50.7413 33.86 43.4707 33.86 43.4707Z"
                      fill="#678D98"
                    />
                    <path
                      d="M41.7056 56.5957H14.4057C14.2691 56.5957 14.1381 56.5414 14.0415 56.4448C13.9449 56.3482 13.8906 56.2172 13.8906 56.0805V55.5654C13.8906 54.0008 15.159 52.7324 16.7236 52.7324H39.3876C40.9522 52.7324 42.2206 54.0008 42.2206 55.5654V56.0805C42.2206 56.1482 42.2073 56.2152 42.1815 56.2777C42.1556 56.3402 42.1177 56.397 42.0698 56.4448C42.022 56.4926 41.9652 56.5306 41.9027 56.5565C41.8402 56.5823 41.7733 56.5957 41.7056 56.5957Z"
                      fill="#FE646F"
                    />
                    <path
                      d="M39.3866 52.7324H35.5234C37.0881 52.7324 38.3564 54.0008 38.3564 55.5654V56.0805C38.3564 56.2172 38.3022 56.3482 38.2056 56.4448C38.109 56.5414 37.9779 56.5957 37.8413 56.5957H41.7044C41.8411 56.5957 41.9721 56.5414 42.0687 56.4448C42.1653 56.3482 42.2196 56.2172 42.2196 56.0805V55.5654C42.2196 54.0008 40.9512 52.7324 39.3866 52.7324Z"
                      fill="#FD4755"
                    />
                    <path
                      d="M54.1314 43.9758H1.84975C0.854 43.9758 0.046875 43.1687 0.046875 42.1729V9.20717C0.046875 8.21155 0.854 7.4043 1.84975 7.4043H54.1315C55.1271 7.4043 55.9344 8.21142 55.9344 9.20717V42.1729C55.9342 43.1687 55.127 43.9758 54.1314 43.9758Z"
                      fill="#678D98"
                    />
                    <path
                      d="M54.1307 7.4043H50.2676C51.2632 7.4043 52.0705 8.21142 52.0705 9.20717V42.1729C52.0705 43.1685 51.2633 43.9758 50.2676 43.9758H54.1307C55.1263 43.9758 55.9336 43.1687 55.9336 42.1729V9.20717C55.9336 8.21155 55.1263 7.4043 54.1307 7.4043Z"
                      fill="#537983"
                    />
                    <path
                      d="M3.91016 39.5976V11.7827C3.91016 11.6461 3.96443 11.5151 4.06103 11.4185C4.15764 11.3219 4.28866 11.2676 4.42528 11.2676H51.556C51.6926 11.2676 51.8237 11.3219 51.9203 11.4185C52.0169 11.5151 52.0712 11.6461 52.0712 11.7827V39.5976C52.0712 39.7342 52.0169 39.8652 51.9203 39.9618C51.8237 40.0584 51.6926 40.1127 51.556 40.1127H4.42528C4.28867 40.1127 4.15767 40.0584 4.06107 39.9618C3.96447 39.8652 3.91019 39.7342 3.91016 39.5976Z"
                      fill="#D4F2F6"
                    />
                    <path
                      d="M48.207 11.2676V40.1127H51.5552C51.6918 40.1127 51.8228 40.0584 51.9194 39.9618C52.016 39.8652 52.0703 39.7342 52.0703 39.5976V11.7827C52.0703 11.6461 52.016 11.5151 51.9194 11.4185C51.8228 11.3219 51.6918 11.2676 51.5552 11.2676H48.207Z"
                      fill="#A6E7F0"
                    />
                    <path
                      d="M63.5327 56.5954H46.5347C46.398 56.5954 46.267 56.5412 46.1704 56.4446C46.0738 56.3479 46.0195 56.2169 46.0195 56.0803V25.6899C46.0195 25.5533 46.0738 25.4223 46.1704 25.3257C46.267 25.2291 46.398 25.1748 46.5347 25.1748H63.5327C63.6693 25.1748 63.8003 25.2291 63.8969 25.3257C63.9935 25.4223 64.0478 25.5533 64.0478 25.6899V56.0803C64.0478 56.2169 63.9935 56.3479 63.8969 56.4446C63.8003 56.5412 63.6693 56.5954 63.5327 56.5954Z"
                      fill="#FFD15B"
                    />
                    <path
                      d="M60.1836 25.1748V56.5953H63.5317C63.6683 56.5953 63.7994 56.541 63.896 56.4444C63.9926 56.3478 64.0468 56.2168 64.0468 56.0802V25.6899C64.0468 25.5533 63.9926 25.4223 63.896 25.3257C63.7994 25.2291 63.6683 25.1748 63.5317 25.1748H60.1836Z"
                      fill="#FFC344"
                    />
                    <path
                      d="M63.5327 56.5957H46.5347C46.398 56.5957 46.267 56.5415 46.1704 56.4449C46.0738 56.3483 46.0195 56.2172 46.0195 56.0806V47.7612H64.0478V56.0806C64.0478 56.2172 63.9935 56.3483 63.8969 56.4449C63.8003 56.5415 63.6693 56.5957 63.5327 56.5957Z"
                      fill="#FE646F"
                    />
                    <path
                      d="M60.1836 47.7612V56.5957H63.5317C63.6683 56.5957 63.7994 56.5415 63.896 56.4449C63.9926 56.3483 64.0468 56.2172 64.0468 56.0806V47.7612H60.1836Z"
                      fill="#FD4755"
                    />
                    <path
                      d="M60.3128 33.7475H49.7534C49.6168 33.7475 49.4858 33.6933 49.3892 33.5967C49.2926 33.5 49.2383 33.369 49.2383 33.2324V30.3994C49.2383 30.3318 49.2516 30.2648 49.2775 30.2023C49.3034 30.1398 49.3413 30.083 49.3892 30.0352C49.437 29.9873 49.4938 29.9494 49.5563 29.9235C49.6188 29.8976 49.6858 29.8843 49.7534 29.8843H60.3128C60.3804 29.8843 60.4474 29.8976 60.5099 29.9235C60.5724 29.9494 60.6292 29.9873 60.677 30.0352C60.7249 30.083 60.7628 30.1398 60.7887 30.2023C60.8146 30.2648 60.8279 30.3318 60.8279 30.3994V33.2324C60.8279 33.369 60.7736 33.5 60.677 33.5966C60.5804 33.6932 60.4494 33.7475 60.3128 33.7475Z"
                      fill="#EEF5F6"
                    />
                    <path
                      d="M51.1076 53.8524C52.0321 53.8524 52.7816 53.1029 52.7816 52.1784C52.7816 51.2539 52.0321 50.5044 51.1076 50.5044C50.1831 50.5044 49.4336 51.2539 49.4336 52.1784C49.4336 53.1029 50.1831 53.8524 51.1076 53.8524Z"
                      fill="#678D98"
                    />
                    <path
                      d="M60.8278 35.8594H49.2383C48.7204 35.8594 48.3008 36.279 48.3008 36.7969C48.3008 37.3147 48.7204 37.7344 49.2383 37.7344H60.8278C61.3457 37.7344 61.7653 37.3147 61.7653 36.7969C61.7653 36.279 61.3457 35.8594 60.8278 35.8594Z"
                      fill="#EEF5F6"
                    />
                  </g>
                  <defs>
                    <clipPath id="clip0_2524_2401">
                      <rect
                        width="64"
                        height="64"
                        fill="white"
                        transform="translate(0.046875)"
                      />
                    </clipPath>
                  </defs>
                </svg>
  