  <svg
                width="89"
                height="73"
                viewBox="0 0 89 73"
                fill="none"
                xmlns="http://www.w3.org/2000/svg"
              >
                <path
                  d="M35.8029 16.2757C35.8029 16.2757 49.3274 7.87887 57.8727 14.3435C66.418 20.8081 57.5015 30.915 69.8368 30.915C82.1722 30.915 88.8602 40.9464 84.6989 54.3966C80.5376 67.8469 70.208 58.8562 64.5607 66.435C61.3261 70.7768 47.9156 72.8254 40.2618 63.5365C32.608 54.2475 44.6458 50.9784 37.7351 44.885C30.8244 38.7915 19.6032 25.4161 35.8029 16.2757Z"
                  fill="#9E97FC"
                  fill-opacity="0.15"
                />
                <path
                  d="M65.6004 19.9917C65.6004 19.9917 65.377 28.1658 72.4369 28.3117C79.4967 28.4577 76.8209 23.4074 73.7002 23.4817C70.5796 23.5559 69.1671 20.4346 69.2414 17.4625C69.3156 14.4903 65.7502 16.2017 65.6004 19.9917Z"
                  fill="#9E97FC"
                  fill-opacity="0.15"
                />
                <path
                  d="M62.915 5.17068V44.7246H2.67969V5.17068C2.67969 4.37821 3.32157 3.73633 4.11404 3.73633H61.4806C62.2731 3.73633 62.915 4.37821 62.915 5.17068Z"
                  fill="#4C5C75"
                />
                <path
                  d="M5.20312 41.5859V6.87535C5.20312 6.44994 5.5476 6.10547 5.97301 6.10547H59.6201C60.0455 6.10547 60.3899 6.44994 60.3899 6.87441V41.585C60.3899 41.7892 60.3088 41.985 60.1645 42.1294C60.0201 42.2738 59.8243 42.3549 59.6201 42.3549H5.97301C5.76898 42.3549 5.5733 42.2739 5.42895 42.1297C5.2846 41.9855 5.20337 41.79 5.20312 41.5859Z"
                  fill="white"
                />
                <path
                  d="M2.67969 44.7246V47.4888C2.67969 48.2794 3.32157 48.9222 4.1131 48.9222H61.4816C62.2722 48.9222 62.915 48.2803 62.915 47.4888V44.7236L2.67969 44.7246ZM23.0562 55.8229C25.0232 53.8559 25.6444 51.7288 25.3997 48.9241H40.0632C39.8185 51.7288 40.4303 53.8559 42.4067 55.8229H23.0562Z"
                  fill="#C9CEE2"
                />
                <path
                  d="M49.9441 57.4182V59.7636C49.9441 59.8292 49.9312 59.8941 49.906 59.9547C49.8809 60.0153 49.8441 60.0703 49.7977 60.1166C49.7513 60.163 49.6962 60.1997 49.6355 60.2247C49.5749 60.2497 49.5099 60.2625 49.4443 60.2624H16.1512C16.0857 60.2624 16.0208 60.2495 15.9603 60.2244C15.8998 60.1994 15.8448 60.1626 15.7984 60.1163C15.7521 60.07 15.7154 60.015 15.6903 59.9545C15.6652 59.8939 15.6523 59.8291 15.6523 59.7636V57.421C15.6523 56.54 16.3658 55.8257 17.2476 55.8257H48.3516C49.2307 55.8257 49.9441 56.5382 49.9441 57.4182Z"
                  fill="#4C5C75"
                />
                <path
                  d="M5.44007 47.8191C5.99053 47.8191 6.43677 47.3729 6.43677 46.8224C6.43677 46.2719 5.99053 45.8257 5.44007 45.8257C4.8896 45.8257 4.44336 46.2719 4.44336 46.8224C4.44336 47.3729 4.8896 47.8191 5.44007 47.8191Z"
                  fill="#F45170"
                />
                <path
                  d="M9.19007 47.8191C9.74053 47.8191 10.1868 47.3729 10.1868 46.8224C10.1868 46.2719 9.74053 45.8257 9.19007 45.8257C8.6396 45.8257 8.19336 46.2719 8.19336 46.8224C8.19336 47.3729 8.6396 47.8191 9.19007 47.8191Z"
                  fill="#4C5C75"
                />
                <path
                  d="M12.942 47.8191C13.4925 47.8191 13.9387 47.3729 13.9387 46.8224C13.9387 46.2719 13.4925 45.8257 12.942 45.8257C12.3916 45.8257 11.9453 46.2719 11.9453 46.8224C11.9453 47.3729 12.3916 47.8191 12.942 47.8191Z"
                  fill="#5094FF"
                />
                <path
                  d="M42.4074 55.8231L25.4004 48.9243H40.0639C39.8192 51.729 40.431 53.8561 42.4074 55.8231Z"
                  fill="#26314C"
                  fill-opacity="0.0823529"
                />
                <path
                  d="M42.4891 15.1106C42.3771 15.1108 42.2667 15.0834 42.1677 15.0309C42.0688 14.9784 41.9842 14.9023 41.9216 14.8094C40.9393 13.3525 39.6141 12.1593 38.0626 11.3344C36.5111 10.5096 34.7808 10.0785 33.0237 10.0791C31.5637 10.0734 30.1182 10.3683 28.7771 10.9456C27.4361 11.5228 26.2282 12.37 25.2289 13.4344C25.1043 13.566 24.9325 13.6428 24.7514 13.6479C24.5702 13.6529 24.3944 13.5858 24.2627 13.4612C24.1311 13.3366 24.0543 13.1649 24.0492 12.9837C24.0442 12.8025 24.1114 12.6268 24.2359 12.4951C25.3626 11.2952 26.7243 10.3401 28.2362 9.68936C29.7481 9.03859 31.3777 8.70607 33.0237 8.71249C35.0044 8.71207 36.9549 9.19813 38.7038 10.128C40.4527 11.0578 41.9465 12.4029 43.0538 14.0452C43.1231 14.1479 43.1631 14.2674 43.1697 14.3911C43.1762 14.5148 43.1491 14.6379 43.0911 14.7473C43.0331 14.8567 42.9464 14.9483 42.8404 15.0123C42.7344 15.0763 42.6129 15.1103 42.4891 15.1106ZM30.1023 32.5516C27.4793 31.9036 25.1495 30.3944 23.4858 28.2656C21.8221 26.1367 20.9207 23.5113 20.9258 20.8094C20.9258 19.073 21.2872 17.3948 21.9987 15.824C22.0801 15.6698 22.2173 15.5525 22.3822 15.496C22.5472 15.4395 22.7275 15.4481 22.8863 15.5201C23.0451 15.5921 23.1705 15.7219 23.2367 15.8832C23.303 16.0445 23.3053 16.2249 23.243 16.3878C22.6129 17.7765 22.2887 19.2845 22.2924 20.8094C22.2924 25.7534 25.6392 30.0377 30.4317 31.2254C30.5188 31.2471 30.6007 31.2856 30.6729 31.3389C30.7451 31.3922 30.806 31.4592 30.8523 31.5361C30.8986 31.613 30.9293 31.6982 30.9426 31.7869C30.9559 31.8756 30.9517 31.9661 30.93 32.0532C30.9084 32.1403 30.8698 32.2222 30.8165 32.2944C30.7632 32.3666 30.6962 32.4275 30.6194 32.4738C30.5425 32.5201 30.4573 32.5508 30.3686 32.5641C30.2798 32.5774 30.1893 32.5732 30.1023 32.5516ZM34.1747 32.849C33.9959 32.8548 33.8219 32.7901 33.6903 32.6689C33.5586 32.5477 33.4799 32.3796 33.471 32.2009C33.4621 32.0221 33.5238 31.8471 33.6427 31.7134C33.7617 31.5797 33.9284 31.4981 34.107 31.4861C36.7552 31.2261 39.2114 29.9879 40.9954 28.0135C42.7794 26.0391 43.763 23.4704 43.754 20.8094C43.754 19.8485 43.6279 18.897 43.3766 17.9803C43.3344 17.8074 43.3614 17.6249 43.4517 17.4715C43.5419 17.3182 43.6885 17.2061 43.8601 17.1592C44.0318 17.1122 44.215 17.1341 44.3707 17.2201C44.5265 17.3061 44.6426 17.4495 44.6943 17.6198C44.9766 18.6532 45.1197 19.7271 45.1197 20.8094C45.1197 27.0494 40.4449 32.2231 34.2434 32.8461C34.2206 32.8482 34.1977 32.8492 34.1747 32.849Z"
                  fill="#F45170"
                />
                <path
                  d="M40.4697 14.1365L42.5393 12.5365C42.5717 12.5117 42.61 12.4956 42.6504 12.4898C42.6908 12.4839 42.7321 12.4885 42.7702 12.5032C42.8083 12.5178 42.8421 12.5419 42.8682 12.5733C42.8944 12.6047 42.912 12.6422 42.9195 12.6824L43.3873 15.2734C43.3949 15.3153 43.3912 15.3583 43.3766 15.3983C43.3619 15.4382 43.337 15.4735 43.3042 15.5005C43.2714 15.5275 43.232 15.5453 43.19 15.5521C43.148 15.5588 43.105 15.5543 43.0654 15.5389L40.529 14.5469C40.4897 14.5314 40.4552 14.5059 40.4289 14.4728C40.4027 14.4397 40.3857 14.4002 40.3797 14.3584C40.3737 14.3167 40.3788 14.274 40.3946 14.2349C40.4104 14.1957 40.4363 14.1615 40.4697 14.1356V14.1365ZM32.6344 32.1506L34.7031 30.5506C34.7356 30.5256 34.774 30.5093 34.8146 30.5034C34.8552 30.4975 34.8966 30.5021 34.9349 30.5169C34.9732 30.5316 35.0071 30.556 35.0332 30.5876C35.0594 30.6192 35.077 30.6571 35.0843 30.6974L35.552 33.2885C35.5596 33.3303 35.5559 33.3734 35.5413 33.4133C35.5267 33.4532 35.5017 33.4885 35.4689 33.5156C35.4361 33.5426 35.3967 33.5604 35.3547 33.5671C35.3127 33.5739 35.2697 33.5693 35.2301 33.5539L32.6937 32.5619C32.6544 32.5465 32.6199 32.5209 32.5936 32.4878C32.5674 32.4547 32.5505 32.4153 32.5444 32.3735C32.5384 32.3317 32.5436 32.2891 32.5594 32.2499C32.5751 32.2108 32.601 32.1765 32.6344 32.1506ZM23.7666 13.7205L24.0715 16.288C24.0763 16.3281 24.0705 16.3687 24.0547 16.4058C24.0389 16.4429 24.0137 16.4752 23.9815 16.4995C23.9493 16.5237 23.9113 16.5392 23.8713 16.5442C23.8312 16.5492 23.7906 16.5436 23.7534 16.528L21.3111 15.5511C21.1379 15.4824 21.104 15.2527 21.2499 15.1436L23.3864 13.553C23.4204 13.5284 23.4603 13.5132 23.5021 13.5088C23.5438 13.5044 23.586 13.511 23.6244 13.5279C23.6629 13.5448 23.6962 13.5715 23.7211 13.6053C23.7461 13.6391 23.7617 13.6788 23.7666 13.7205Z"
                  fill="#F45170"
                />
                <path
                  d="M41.3084 19.8332V21.4634C41.3084 21.5398 41.2826 21.6139 41.2351 21.6738C41.1875 21.7336 41.1211 21.7755 41.0467 21.7928L39.8957 22.0572C39.8344 22.0719 39.7784 22.1034 39.734 22.1481C39.6896 22.1928 39.6586 22.249 39.6444 22.3104C39.4736 23.0176 39.1932 23.6937 38.8133 24.3142C38.78 24.3677 38.7624 24.4295 38.7624 24.4925C38.7624 24.5556 38.78 24.6174 38.8133 24.6709L39.4401 25.6714C39.4809 25.7362 39.4984 25.8129 39.4899 25.889C39.4813 25.9651 39.4472 26.036 39.3931 26.0902L38.2401 27.2422C38.186 27.2961 38.1153 27.3301 38.0394 27.3386C37.9635 27.3472 37.887 27.3298 37.8222 27.2892L36.8199 26.6624C36.7662 26.629 36.7043 26.6112 36.6411 26.6112C36.5778 26.6112 36.5159 26.629 36.4622 26.6624C35.8427 27.042 35.1676 27.3221 34.4613 27.4925C34.4001 27.5069 34.3441 27.538 34.2995 27.5824C34.255 27.6268 34.2236 27.6827 34.2091 27.7438L33.9437 28.8968C33.9264 28.9712 33.8845 29.0376 33.8246 29.0851C33.7648 29.1326 33.6906 29.1585 33.6142 29.1584H31.9841C31.9077 29.1585 31.8336 29.1326 31.7737 29.0851C31.7139 29.0376 31.6719 28.9712 31.6547 28.8968L31.3893 27.7438C31.3747 27.6827 31.3434 27.6268 31.2988 27.5824C31.2543 27.538 31.1983 27.5069 31.1371 27.4925C30.4302 27.3221 29.7544 27.042 29.1342 26.6624C29.0807 26.6291 29.0189 26.6115 28.9559 26.6115C28.8929 26.6115 28.8311 26.6291 28.7775 26.6624L27.7752 27.2902C27.7105 27.3307 27.6339 27.3481 27.558 27.3396C27.4821 27.331 27.4114 27.297 27.3573 27.2431L26.2044 26.0902C26.1502 26.036 26.1161 25.9651 26.1075 25.889C26.099 25.8129 26.1165 25.7362 26.1573 25.6714L26.7851 24.6709C26.8185 24.6172 26.8363 24.5553 26.8363 24.4921C26.8363 24.4288 26.8185 24.3669 26.7851 24.3132C26.405 23.6932 26.1245 23.0174 25.954 22.3104C25.9398 22.249 25.9088 22.1928 25.8644 22.1481C25.82 22.1034 25.764 22.0719 25.7027 22.0572L24.5507 21.7928C24.4763 21.7755 24.4099 21.7336 24.3624 21.6738C24.3148 21.6139 24.289 21.5398 24.2891 21.4634V19.8332C24.2891 19.6751 24.3973 19.5387 24.5507 19.5038L25.7027 19.2403C25.764 19.2256 25.82 19.1942 25.8644 19.1495C25.9088 19.1047 25.9398 19.0485 25.954 18.9871C26.1243 18.2796 26.4044 17.6032 26.7841 16.9824C26.8174 16.9291 26.835 16.8675 26.8352 16.8047C26.8354 16.7418 26.818 16.6802 26.7851 16.6267L26.1573 15.6252C26.1168 15.5605 26.0993 15.484 26.1079 15.4081C26.1164 15.3322 26.1504 15.2614 26.2044 15.2074L27.3573 14.0544C27.4114 14.0005 27.4821 13.9665 27.558 13.958C27.6339 13.9494 27.7105 13.9668 27.7752 14.0074L28.7766 14.6351C28.8858 14.7038 29.0232 14.701 29.1333 14.6351C29.7542 14.2553 30.4306 13.9746 31.138 13.8031C31.1993 13.7889 31.2553 13.7578 31.2999 13.7134C31.3445 13.669 31.3758 13.613 31.3902 13.5518L31.6547 12.4008C31.6718 12.3262 31.7136 12.2596 31.7735 12.2119C31.8333 12.1642 31.9076 12.1382 31.9841 12.1382H33.6142C33.7714 12.1382 33.9088 12.2474 33.9437 12.4008L34.2072 13.5518C34.2364 13.677 34.3352 13.773 34.4604 13.8031C35.1677 13.9743 35.8441 14.2547 36.4651 14.6342C36.5186 14.6675 36.5804 14.6851 36.6434 14.6851C36.7065 14.6851 36.7682 14.6675 36.8218 14.6342L37.8213 14.0074C37.8861 13.9666 37.9629 13.949 38.0389 13.9576C38.115 13.9661 38.186 14.0003 38.2401 14.0544L39.3931 15.2074C39.5041 15.3184 39.5239 15.4916 39.4401 15.6252L38.8133 16.6267C38.7802 16.6801 38.7627 16.7417 38.7627 16.8045C38.7627 16.8674 38.7802 16.929 38.8133 16.9824C39.1879 17.5951 39.4712 18.2699 39.6434 18.9871C39.6577 19.0486 39.6889 19.1049 39.7334 19.1497C39.778 19.1944 39.8342 19.2258 39.8957 19.2403L41.0458 19.5038C41.1205 19.5207 41.1874 19.5625 41.2353 19.6224C41.2831 19.6822 41.3083 19.7566 41.3084 19.8332Z"
                  fill="#5EC363"
                />
                <path
                  d="M38.5091 20.6494C38.5091 23.8033 35.9585 26.3624 32.8008 26.3624C32.0505 26.3626 31.3075 26.215 30.6143 25.928C29.9211 25.641 29.2912 25.2202 28.7606 24.6896C28.2301 24.1591 27.8093 23.5292 27.5223 22.836C27.2352 22.1427 27.0876 21.3997 27.0879 20.6494C27.0875 19.899 27.235 19.1559 27.522 18.4626C27.8089 17.7693 28.2297 17.1393 28.7603 16.6086C29.2908 16.078 29.9208 15.6571 30.6141 15.37C31.3074 15.0829 32.0504 14.9353 32.8008 14.9355C33.5508 14.9355 34.2935 15.0833 34.9864 15.3705C35.6792 15.6577 36.3087 16.0786 36.8388 16.6091C37.369 17.1397 37.7893 17.7695 38.0759 18.4626C38.3625 19.1557 38.5097 19.8985 38.5091 20.6485V20.6494Z"
                  fill="white"
                />
                <path
                  d="M35.7033 20.649C35.7033 21.4198 35.3971 22.1591 34.8521 22.7041C34.307 23.2492 33.5678 23.5554 32.797 23.5554C32.0262 23.5554 31.2869 23.2492 30.7419 22.7041C30.1968 22.1591 29.8906 21.4198 29.8906 20.649C29.8906 19.8782 30.1968 19.139 30.7419 18.5939C31.2869 18.0489 32.0262 17.7427 32.797 17.7427C33.5678 17.7427 34.307 18.0489 34.8521 18.5939C35.3971 19.139 35.7033 19.8782 35.7033 20.649Z"
                  fill="#5EC363"
                />
                <path
                  d="M50.4472 37.8323C50.4455 38.3304 50.2464 38.8075 49.8935 39.159C49.5407 39.5106 49.0629 39.708 48.5648 39.708H17.0223C16.5248 39.708 16.0477 39.5104 15.6959 39.1586C15.3441 38.8069 15.1465 38.3298 15.1465 37.8323C15.146 37.5858 15.1942 37.3416 15.2882 37.1137C15.3823 36.8859 15.5205 36.6788 15.6947 36.5045C15.869 36.3301 16.076 36.1919 16.3038 36.0977C16.5316 36.0035 16.7757 35.9552 17.0223 35.9556H48.5658C49.602 35.9556 50.4472 36.7951 50.4472 37.8323Z"
                  fill="#8FABFE"
                />
                <path
                  d="M48.5674 35.9556H32.8008V39.708H48.5674C49.0653 39.7078 49.5428 39.5103 49.8955 39.1587C50.2481 38.8072 50.447 38.3302 50.4488 37.8323C50.4478 37.3339 50.249 36.8562 49.896 36.5043C49.5431 36.1525 49.0658 35.9551 48.5674 35.9556Z"
                  fill="#748BFD"
                />
              </svg>