<svg width="578" height="579" viewBox="0 0 578 579" fill="none" xmlns="http://www.w3.org/2000/svg">
<g clip-path="url(#clip0_0_1)">
<path d="M289 577.459C448.058 577.459 577 448.517 577 289.459C577 130.401 448.058 1.45898 289 1.45898C129.942 1.45898 1 130.401 1 289.459C1 448.384 130.126 577.243 289 577.459ZM289 577.459C153.322 577.243 43 467.188 43 331.459C43 195.597 153.138 85.459 289 85.459C424.862 85.459 535 195.597 535 331.459C535 467.321 424.862 577.459 289 577.459ZM289 577.459C288.867 577.459 289.133 577.46 289 577.459Z" stroke="white" stroke-width="2" stroke-linecap="round" stroke-linejoin="round"/>
<path d="M289 577.459C424.862 577.459 535 467.321 535 331.459C535 195.597 424.862 85.459 289 85.459C153.138 85.459 43 195.597 43 331.459C43 467.188 153.322 577.243 289 577.459ZM289 577.459C176.518 577.243 85 485.992 85 373.459C85 260.793 176.334 169.459 289 169.459C401.666 169.459 493 260.793 493 373.459C493 486.125 401.666 577.459 289 577.459ZM289 577.459C288.867 577.459 289.133 577.46 289 577.459Z" stroke="white" stroke-width="2" stroke-linecap="round" stroke-linejoin="round"/>
<path d="M289 577.459C401.666 577.459 493 486.125 493 373.459C493 260.793 401.666 169.459 289 169.459C176.334 169.459 85 260.793 85 373.459C85 485.992 176.518 577.243 289 577.459ZM289 577.459C199.714 577.243 127 504.796 127 415.459C127 325.989 199.53 253.459 289 253.459C378.47 253.459 451 325.989 451 415.459C451 504.929 378.47 577.459 289 577.459ZM289 577.459C288.867 577.459 289.133 577.46 289 577.459Z" stroke="white" stroke-width="2" stroke-linecap="round" stroke-linejoin="round"/>
<path d="M289 577.459C378.47 577.459 451 504.929 451 415.459C451 325.989 378.47 253.459 289 253.459C199.53 253.459 127 325.989 127 415.459C127 504.796 199.714 577.243 289 577.459ZM289 577.459C222.91 577.243 169 523.6 169 457.459C169 391.185 222.726 337.459 289 337.459C355.274 337.459 409 391.185 409 457.459C409 523.733 355.274 577.459 289 577.459ZM289 577.459C288.867 577.459 289.133 577.46 289 577.459Z" stroke="white" stroke-width="2" stroke-linecap="round" stroke-linejoin="round"/>
<path d="M289 577.459C355.274 577.459 409 523.733 409 457.459C409 391.185 355.274 337.459 289 337.459C222.726 337.459 169 391.185 169 457.459C169 523.6 222.91 577.243 289 577.459ZM289 577.459C246.106 577.244 211 542.404 211 499.459C211 456.381 245.922 421.459 289 421.459C332.078 421.459 367 456.381 367 499.459C367 542.537 332.078 577.459 289 577.459ZM289 577.459C288.867 577.459 289.133 577.46 289 577.459Z" stroke="white" stroke-width="2" stroke-linecap="round" stroke-linejoin="round"/>
<path d="M289 577.459C332.078 577.459 367 542.537 367 499.459C367 456.381 332.078 421.459 289 421.459C245.922 421.459 211 456.381 211 499.459C211 542.404 246.106 577.244 289 577.459ZM289 577.459C288.867 577.459 289.133 577.46 289 577.459Z" stroke="white" stroke-width="2" stroke-linecap="round" stroke-linejoin="round"/>
</g>
<rect x="271" y="451" width="36" height="36" rx="18" fill="#A3DC72"/>
<path d="M286.234 464.718V462.792H290.302V475.5H288.142V464.718H286.234Z" fill="white"/>
<path d="M236.232 510L233.064 504.924H231.606V510H229.554V497.292H234.036C235.488 497.292 236.586 497.646 237.33 498.354C238.086 499.062 238.464 499.998 238.464 501.162C238.464 502.158 238.182 502.974 237.618 503.61C237.066 504.246 236.262 504.654 235.206 504.834L238.536 510H236.232ZM231.606 503.466H233.874C235.53 503.466 236.358 502.734 236.358 501.27C236.358 500.574 236.154 500.034 235.746 499.65C235.35 499.254 234.726 499.056 233.874 499.056H231.606V503.466ZM249.527 504.564C249.527 504.9 249.503 505.194 249.455 505.446H241.823C241.859 506.466 242.141 507.222 242.669 507.714C243.197 508.206 243.851 508.452 244.631 508.452C245.315 508.452 245.891 508.278 246.359 507.93C246.839 507.582 247.133 507.12 247.241 506.544H249.437C249.305 507.24 249.029 507.858 248.609 508.398C248.189 508.938 247.643 509.364 246.971 509.676C246.299 509.976 245.549 510.126 244.721 510.126C243.761 510.126 242.909 509.922 242.165 509.514C241.433 509.106 240.857 508.518 240.437 507.75C240.017 506.982 239.807 506.076 239.807 505.032C239.807 504 240.017 503.1 240.437 502.332C240.857 501.564 241.433 500.976 242.165 500.568C242.909 500.16 243.761 499.956 244.721 499.956C245.693 499.956 246.539 500.16 247.259 500.568C247.991 500.964 248.549 501.516 248.933 502.224C249.329 502.92 249.527 503.7 249.527 504.564ZM247.457 504.51C247.481 503.862 247.367 503.322 247.115 502.89C246.875 502.446 246.539 502.122 246.107 501.918C245.687 501.702 245.225 501.594 244.721 501.594C243.917 501.594 243.245 501.84 242.705 502.332C242.165 502.824 241.871 503.55 241.823 504.51H247.457ZM255.631 499.974C256.471 499.974 257.191 500.166 257.791 500.55C258.391 500.934 258.841 501.468 259.141 502.152V500.082H261.193V514.716H259.141V507.822C258.829 508.542 258.373 509.106 257.773 509.514C257.173 509.922 256.459 510.126 255.631 510.126C254.767 510.126 253.981 509.916 253.273 509.496C252.565 509.076 252.007 508.488 251.599 507.732C251.203 506.964 251.005 506.076 251.005 505.068C251.005 504.06 251.203 503.172 251.599 502.404C252.007 501.636 252.565 501.042 253.273 500.622C253.981 500.19 254.767 499.974 255.631 499.974ZM256.117 501.774C255.241 501.774 254.521 502.068 253.957 502.656C253.393 503.232 253.111 504.036 253.111 505.068C253.111 506.1 253.387 506.898 253.939 507.462C254.503 508.026 255.229 508.308 256.117 508.308C256.669 508.308 257.173 508.182 257.629 507.93C258.085 507.666 258.451 507.288 258.727 506.796C259.003 506.304 259.141 505.716 259.141 505.032C259.141 504.36 259.003 503.778 258.727 503.286C258.451 502.794 258.085 502.422 257.629 502.17C257.173 501.906 256.669 501.774 256.117 501.774ZM272.799 500.082V510H270.729V507.84C270.477 508.572 270.039 509.142 269.415 509.55C268.791 509.946 268.065 510.144 267.237 510.144C266.085 510.144 265.161 509.772 264.465 509.028C263.769 508.284 263.421 507.222 263.421 505.842V500.082H265.473V505.626C265.473 506.526 265.701 507.222 266.157 507.714C266.613 508.194 267.237 508.434 268.029 508.434C268.845 508.434 269.499 508.17 269.991 507.642C270.483 507.114 270.729 506.346 270.729 505.338V500.082H272.799ZM274.969 497.202C274.969 496.854 275.089 496.566 275.329 496.338C275.569 496.11 275.887 495.996 276.283 495.996C276.679 495.996 276.997 496.11 277.237 496.338C277.489 496.566 277.615 496.854 277.615 497.202C277.615 497.55 277.489 497.832 277.237 498.048C276.997 498.264 276.679 498.372 276.283 498.372C275.887 498.372 275.569 498.264 275.329 498.048C275.089 497.832 274.969 497.55 274.969 497.202ZM277.309 500.082V510H275.257V500.082H277.309ZM281.844 502.026C282.18 501.378 282.66 500.868 283.284 500.496C283.908 500.112 284.628 499.92 285.444 499.92V502.152H284.832C283.932 502.152 283.206 502.374 282.654 502.818C282.114 503.25 281.844 503.97 281.844 504.978V510H279.792V500.082H281.844V502.026ZM296.197 504.564C296.197 504.9 296.173 505.194 296.125 505.446H288.493C288.529 506.466 288.811 507.222 289.339 507.714C289.867 508.206 290.521 508.452 291.301 508.452C291.985 508.452 292.561 508.278 293.029 507.93C293.509 507.582 293.803 507.12 293.911 506.544H296.107C295.975 507.24 295.699 507.858 295.279 508.398C294.859 508.938 294.313 509.364 293.641 509.676C292.969 509.976 292.219 510.126 291.391 510.126C290.431 510.126 289.579 509.922 288.835 509.514C288.103 509.106 287.527 508.518 287.107 507.75C286.687 506.982 286.477 506.076 286.477 505.032C286.477 504 286.687 503.1 287.107 502.332C287.527 501.564 288.103 500.976 288.835 500.568C289.579 500.16 290.431 499.956 291.391 499.956C292.363 499.956 293.209 500.16 293.929 500.568C294.661 500.964 295.219 501.516 295.603 502.224C295.999 502.92 296.197 503.7 296.197 504.564ZM294.127 504.51C294.151 503.862 294.037 503.322 293.785 502.89C293.545 502.446 293.209 502.122 292.777 501.918C292.357 501.702 291.895 501.594 291.391 501.594C290.587 501.594 289.915 501.84 289.375 502.332C288.835 502.824 288.541 503.55 288.493 504.51H294.127ZM310.581 499.92C311.757 499.92 312.693 500.292 313.389 501.036C314.097 501.78 314.451 502.842 314.451 504.222V510H312.399V504.438C312.399 503.574 312.183 502.908 311.751 502.44C311.319 501.96 310.725 501.72 309.969 501.72C309.165 501.72 308.523 501.978 308.043 502.494C307.575 502.998 307.341 503.742 307.341 504.726V510H305.289V504.438C305.289 503.574 305.073 502.908 304.641 502.44C304.209 501.96 303.615 501.72 302.859 501.72C302.055 501.72 301.413 501.978 300.933 502.494C300.465 502.998 300.231 503.742 300.231 504.726V510H298.179V500.082H300.231V502.152C300.483 501.432 300.903 500.88 301.491 500.496C302.079 500.112 302.769 499.92 303.561 499.92C304.389 499.92 305.103 500.124 305.703 500.532C306.315 500.94 306.759 501.528 307.035 502.296C307.323 501.552 307.785 500.97 308.421 500.55C309.057 500.13 309.777 499.92 310.581 499.92ZM326.062 504.564C326.062 504.9 326.038 505.194 325.99 505.446H318.358C318.394 506.466 318.676 507.222 319.204 507.714C319.732 508.206 320.386 508.452 321.166 508.452C321.85 508.452 322.426 508.278 322.894 507.93C323.374 507.582 323.668 507.12 323.776 506.544H325.972C325.84 507.24 325.564 507.858 325.144 508.398C324.724 508.938 324.178 509.364 323.506 509.676C322.834 509.976 322.084 510.126 321.256 510.126C320.296 510.126 319.444 509.922 318.7 509.514C317.968 509.106 317.392 508.518 316.972 507.75C316.552 506.982 316.342 506.076 316.342 505.032C316.342 504 316.552 503.1 316.972 502.332C317.392 501.564 317.968 500.976 318.7 500.568C319.444 500.16 320.296 499.956 321.256 499.956C322.228 499.956 323.074 500.16 323.794 500.568C324.526 500.964 325.084 501.516 325.468 502.224C325.864 502.92 326.062 503.7 326.062 504.564ZM323.992 504.51C324.016 503.862 323.902 503.322 323.65 502.89C323.41 502.446 323.074 502.122 322.642 501.918C322.222 501.702 321.76 501.594 321.256 501.594C320.452 501.594 319.78 501.84 319.24 502.332C318.7 502.824 318.406 503.55 318.358 504.51H323.992ZM333.588 499.92C334.74 499.92 335.664 500.292 336.36 501.036C337.056 501.78 337.404 502.842 337.404 504.222V510H335.352V504.438C335.352 503.55 335.124 502.866 334.668 502.386C334.212 501.894 333.588 501.648 332.796 501.648C331.98 501.648 331.326 501.912 330.834 502.44C330.342 502.956 330.096 503.718 330.096 504.726V510H328.044V500.082H330.096V502.26C330.36 501.516 330.804 500.94 331.428 500.532C332.052 500.124 332.772 499.92 333.588 499.92ZM344.79 508.218V510H343.53C342.474 510 341.67 509.748 341.118 509.244C340.578 508.728 340.308 507.876 340.308 506.688V501.828H338.886V500.082H340.308V497.616H342.378V500.082H344.772V501.828H342.378V506.724C342.378 507.288 342.48 507.678 342.684 507.894C342.9 508.11 343.272 508.218 343.8 508.218H344.79ZM250.274 524.184C251.786 524.184 253.046 524.556 254.054 525.3C255.062 526.044 255.728 527.058 256.052 528.342H253.892C253.616 527.658 253.16 527.112 252.524 526.704C251.9 526.296 251.156 526.092 250.292 526.092C249.5 526.092 248.786 526.278 248.15 526.65C247.526 527.022 247.034 527.55 246.674 528.234C246.326 528.918 246.152 529.722 246.152 530.646C246.152 531.618 246.332 532.452 246.692 533.148C247.052 533.844 247.556 534.378 248.204 534.75C248.864 535.11 249.626 535.29 250.49 535.29C251.546 535.29 252.452 534.966 253.208 534.318C253.964 533.658 254.42 532.758 254.576 531.618H249.914V530.106H256.304V532.068C256.16 533.004 255.824 533.856 255.296 534.624C254.78 535.38 254.09 535.986 253.226 536.442C252.374 536.898 251.396 537.126 250.292 537.126C249.056 537.126 247.964 536.85 247.016 536.298C246.068 535.746 245.336 534.984 244.82 534.012C244.304 533.028 244.046 531.906 244.046 530.646C244.046 529.386 244.304 528.27 244.82 527.298C245.336 526.314 246.062 525.552 246.998 525.012C247.946 524.46 249.038 524.184 250.274 524.184ZM262.36 526.956C263.26 526.956 264.028 527.178 264.664 527.622C265.3 528.066 265.75 528.654 266.014 529.386V527.082H268.066V537H266.014V534.696C265.75 535.428 265.3 536.016 264.664 536.46C264.028 536.904 263.26 537.126 262.36 537.126C261.496 537.126 260.722 536.922 260.038 536.514C259.366 536.106 258.838 535.518 258.454 534.75C258.07 533.982 257.878 533.076 257.878 532.032C257.878 531 258.07 530.1 258.454 529.332C258.838 528.564 259.366 527.976 260.038 527.568C260.722 527.16 261.496 526.956 262.36 526.956ZM262.99 528.756C262.078 528.756 261.346 529.05 260.794 529.638C260.254 530.214 259.984 531.012 259.984 532.032C259.984 533.052 260.254 533.856 260.794 534.444C261.346 535.02 262.078 535.308 262.99 535.308C263.566 535.308 264.082 535.176 264.538 534.912C264.994 534.636 265.354 534.252 265.618 533.76C265.882 533.268 266.014 532.692 266.014 532.032C266.014 531.384 265.882 530.814 265.618 530.322C265.354 529.818 264.994 529.434 264.538 529.17C264.082 528.894 263.566 528.756 262.99 528.756ZM275.514 535.218V537H274.254C273.198 537 272.394 536.748 271.842 536.244C271.302 535.728 271.032 534.876 271.032 533.688V528.828H269.61V527.082H271.032V524.616H273.102V527.082H275.496V528.828H273.102V533.724C273.102 534.288 273.204 534.678 273.408 534.894C273.624 535.11 273.996 535.218 274.524 535.218H275.514ZM282.98 526.92C284.132 526.92 285.056 527.292 285.752 528.036C286.448 528.78 286.796 529.842 286.796 531.222V537H284.744V531.438C284.744 530.55 284.516 529.866 284.06 529.386C283.604 528.894 282.98 528.648 282.188 528.648C281.372 528.648 280.718 528.912 280.226 529.44C279.734 529.956 279.488 530.718 279.488 531.726V537H277.436V523.68H279.488V529.26C279.752 528.516 280.196 527.94 280.82 527.532C281.444 527.124 282.164 526.92 282.98 526.92ZM298.412 531.564C298.412 531.9 298.388 532.194 298.34 532.446H290.708C290.744 533.466 291.026 534.222 291.554 534.714C292.082 535.206 292.736 535.452 293.516 535.452C294.2 535.452 294.776 535.278 295.244 534.93C295.724 534.582 296.018 534.12 296.126 533.544H298.322C298.19 534.24 297.914 534.858 297.494 535.398C297.074 535.938 296.528 536.364 295.856 536.676C295.184 536.976 294.434 537.126 293.606 537.126C292.646 537.126 291.794 536.922 291.05 536.514C290.318 536.106 289.742 535.518 289.322 534.75C288.902 533.982 288.692 533.076 288.692 532.032C288.692 531 288.902 530.1 289.322 529.332C289.742 528.564 290.318 527.976 291.05 527.568C291.794 527.16 292.646 526.956 293.606 526.956C294.578 526.956 295.424 527.16 296.144 527.568C296.876 527.964 297.434 528.516 297.818 529.224C298.214 529.92 298.412 530.7 298.412 531.564ZM296.342 531.51C296.366 530.862 296.252 530.322 296 529.89C295.76 529.446 295.424 529.122 294.992 528.918C294.572 528.702 294.11 528.594 293.606 528.594C292.802 528.594 292.13 528.84 291.59 529.332C291.05 529.824 290.756 530.55 290.708 531.51H296.342ZM302.445 529.026C302.781 528.378 303.261 527.868 303.885 527.496C304.509 527.112 305.229 526.92 306.045 526.92V529.152H305.433C304.533 529.152 303.807 529.374 303.255 529.818C302.715 530.25 302.445 530.97 302.445 531.978V537H300.393V527.082H302.445V529.026ZM307.295 524.202C307.295 523.854 307.415 523.566 307.655 523.338C307.895 523.11 308.213 522.996 308.609 522.996C309.005 522.996 309.323 523.11 309.563 523.338C309.815 523.566 309.941 523.854 309.941 524.202C309.941 524.55 309.815 524.832 309.563 525.048C309.323 525.264 309.005 525.372 308.609 525.372C308.213 525.372 307.895 525.264 307.655 525.048C307.415 524.832 307.295 524.55 307.295 524.202ZM309.635 527.082V537H307.583V527.082H309.635ZM317.662 526.92C318.814 526.92 319.738 527.292 320.434 528.036C321.13 528.78 321.478 529.842 321.478 531.222V537H319.426V531.438C319.426 530.55 319.198 529.866 318.742 529.386C318.286 528.894 317.662 528.648 316.87 528.648C316.054 528.648 315.4 528.912 314.908 529.44C314.416 529.956 314.17 530.718 314.17 531.726V537H312.118V527.082H314.17V529.26C314.434 528.516 314.878 527.94 315.502 527.532C316.126 527.124 316.846 526.92 317.662 526.92ZM327.856 526.956C328.756 526.956 329.524 527.178 330.16 527.622C330.796 528.066 331.246 528.654 331.51 529.386V527.082H333.562V537.108C333.562 538.032 333.37 538.848 332.986 539.556C332.614 540.276 332.074 540.84 331.366 541.248C330.658 541.656 329.818 541.86 328.846 541.86C327.454 541.86 326.326 541.53 325.462 540.87C324.61 540.21 324.076 539.316 323.86 538.188H325.894C326.062 538.776 326.386 539.232 326.866 539.556C327.346 539.892 327.958 540.06 328.702 540.06C329.518 540.06 330.19 539.808 330.718 539.304C331.246 538.8 331.51 538.068 331.51 537.108V534.696C331.246 535.428 330.796 536.016 330.16 536.46C329.524 536.904 328.756 537.126 327.856 537.126C326.992 537.126 326.218 536.922 325.534 536.514C324.862 536.106 324.334 535.518 323.95 534.75C323.566 533.982 323.374 533.076 323.374 532.032C323.374 531 323.566 530.1 323.95 529.332C324.334 528.564 324.862 527.976 325.534 527.568C326.218 527.16 326.992 526.956 327.856 526.956ZM328.486 528.756C327.574 528.756 326.842 529.05 326.29 529.638C325.75 530.214 325.48 531.012 325.48 532.032C325.48 533.052 325.75 533.856 326.29 534.444C326.842 535.02 327.574 535.308 328.486 535.308C329.062 535.308 329.578 535.176 330.034 534.912C330.49 534.636 330.85 534.252 331.114 533.76C331.378 533.268 331.51 532.692 331.51 532.032C331.51 531.384 331.378 530.814 331.114 530.322C330.85 529.818 330.49 529.434 330.034 529.17C329.578 528.894 329.062 528.756 328.486 528.756Z" fill="white"/>
<rect x="270" y="348" width="36" height="36" rx="18" fill="#5D98FA"/>
<path d="M283.22 370.898C285.164 369.566 286.718 368.264 287.882 366.992C289.058 365.708 289.646 364.52 289.646 363.428C289.646 362.78 289.484 362.264 289.16 361.88C288.848 361.496 288.338 361.304 287.63 361.304C286.898 361.304 286.346 361.544 285.974 362.024C285.602 362.492 285.392 363.164 285.344 364.04H283.346C283.43 362.588 283.874 361.478 284.678 360.71C285.494 359.942 286.532 359.558 287.792 359.558C289.028 359.558 289.994 359.888 290.69 360.548C291.398 361.196 291.752 362.096 291.752 363.248C291.752 364.172 291.464 365.108 290.888 366.056C290.324 367.004 289.604 367.88 288.728 368.684C287.852 369.476 286.946 370.16 286.01 370.736H292.04V372.41H283.22V370.898Z" fill="white"/>
<path d="M269.089 400.628C269.089 401.912 268.825 403.034 268.297 403.994C267.781 404.942 267.019 405.68 266.011 406.208C265.015 406.736 263.821 407 262.429 407H258.181V394.292H262.429C263.821 394.292 265.015 394.556 266.011 395.084C267.019 395.6 267.781 396.332 268.297 397.28C268.825 398.228 269.089 399.344 269.089 400.628ZM262.267 405.146C263.791 405.146 264.961 404.75 265.777 403.958C266.593 403.166 267.001 402.056 267.001 400.628C267.001 399.2 266.593 398.09 265.777 397.298C264.961 396.506 263.791 396.11 262.267 396.11H260.233V405.146H262.267ZM280.37 401.564C280.37 401.9 280.346 402.194 280.298 402.446H272.666C272.702 403.466 272.984 404.222 273.512 404.714C274.04 405.206 274.694 405.452 275.474 405.452C276.158 405.452 276.734 405.278 277.202 404.93C277.682 404.582 277.976 404.12 278.084 403.544H280.28C280.148 404.24 279.872 404.858 279.452 405.398C279.032 405.938 278.486 406.364 277.814 406.676C277.142 406.976 276.392 407.126 275.564 407.126C274.604 407.126 273.752 406.922 273.008 406.514C272.276 406.106 271.7 405.518 271.28 404.75C270.86 403.982 270.65 403.076 270.65 402.032C270.65 401 270.86 400.1 271.28 399.332C271.7 398.564 272.276 397.976 273.008 397.568C273.752 397.16 274.604 396.956 275.564 396.956C276.536 396.956 277.382 397.16 278.102 397.568C278.834 397.964 279.392 398.516 279.776 399.224C280.172 399.92 280.37 400.7 280.37 401.564ZM278.3 401.51C278.324 400.862 278.21 400.322 277.958 399.89C277.718 399.446 277.382 399.122 276.95 398.918C276.53 398.702 276.068 398.594 275.564 398.594C274.76 398.594 274.088 398.84 273.548 399.332C273.008 399.824 272.714 400.55 272.666 401.51H278.3ZM285.609 396.956C286.773 396.956 287.703 397.256 288.399 397.856C289.107 398.444 289.539 399.236 289.695 400.232H287.751C287.667 399.692 287.433 399.26 287.049 398.936C286.677 398.6 286.179 398.432 285.555 398.432C285.039 398.432 284.637 398.558 284.349 398.81C284.073 399.05 283.935 399.38 283.935 399.8C283.935 400.112 284.037 400.364 284.241 400.556C284.445 400.748 284.697 400.898 284.997 401.006C285.309 401.114 285.747 401.234 286.311 401.366C287.055 401.534 287.655 401.708 288.111 401.888C288.579 402.068 288.975 402.356 289.299 402.752C289.635 403.136 289.803 403.664 289.803 404.336C289.803 405.164 289.485 405.836 288.849 406.352C288.225 406.868 287.379 407.126 286.311 407.126C285.075 407.126 284.073 406.838 283.305 406.262C282.549 405.686 282.093 404.882 281.937 403.85H283.935C283.995 404.39 284.235 404.828 284.655 405.164C285.075 405.5 285.627 405.668 286.311 405.668C286.803 405.668 287.187 405.542 287.463 405.29C287.751 405.026 287.895 404.696 287.895 404.3C287.895 403.952 287.787 403.676 287.571 403.472C287.355 403.268 287.085 403.112 286.761 403.004C286.437 402.884 285.993 402.764 285.429 402.644C284.709 402.476 284.121 402.308 283.665 402.14C283.221 401.972 282.837 401.702 282.513 401.33C282.201 400.946 282.045 400.43 282.045 399.782C282.045 398.942 282.357 398.264 282.981 397.748C283.617 397.22 284.493 396.956 285.609 396.956ZM291.573 394.202C291.573 393.854 291.693 393.566 291.933 393.338C292.173 393.11 292.491 392.996 292.887 392.996C293.283 392.996 293.601 393.11 293.841 393.338C294.093 393.566 294.219 393.854 294.219 394.202C294.219 394.55 294.093 394.832 293.841 395.048C293.601 395.264 293.283 395.372 292.887 395.372C292.491 395.372 292.173 395.264 291.933 395.048C291.693 394.832 291.573 394.55 291.573 394.202ZM293.913 397.082V407H291.861V397.082H293.913ZM300.374 396.956C301.274 396.956 302.042 397.178 302.678 397.622C303.314 398.066 303.764 398.654 304.028 399.386V397.082H306.08V407.108C306.08 408.032 305.888 408.848 305.504 409.556C305.132 410.276 304.592 410.84 303.884 411.248C303.176 411.656 302.336 411.86 301.364 411.86C299.972 411.86 298.844 411.53 297.98 410.87C297.128 410.21 296.594 409.316 296.378 408.188H298.412C298.58 408.776 298.904 409.232 299.384 409.556C299.864 409.892 300.476 410.06 301.22 410.06C302.036 410.06 302.708 409.808 303.236 409.304C303.764 408.8 304.028 408.068 304.028 407.108V404.696C303.764 405.428 303.314 406.016 302.678 406.46C302.042 406.904 301.274 407.126 300.374 407.126C299.51 407.126 298.736 406.922 298.052 406.514C297.38 406.106 296.852 405.518 296.468 404.75C296.084 403.982 295.892 403.076 295.892 402.032C295.892 401 296.084 400.1 296.468 399.332C296.852 398.564 297.38 397.976 298.052 397.568C298.736 397.16 299.51 396.956 300.374 396.956ZM301.004 398.756C300.092 398.756 299.36 399.05 298.808 399.638C298.268 400.214 297.998 401.012 297.998 402.032C297.998 403.052 298.268 403.856 298.808 404.444C299.36 405.02 300.092 405.308 301.004 405.308C301.58 405.308 302.096 405.176 302.552 404.912C303.008 404.636 303.368 404.252 303.632 403.76C303.896 403.268 304.028 402.692 304.028 402.032C304.028 401.384 303.896 400.814 303.632 400.322C303.368 399.818 303.008 399.434 302.552 399.17C302.096 398.894 301.58 398.756 301.004 398.756ZM314.087 396.92C315.239 396.92 316.163 397.292 316.859 398.036C317.555 398.78 317.903 399.842 317.903 401.222V407H315.851V401.438C315.851 400.55 315.623 399.866 315.167 399.386C314.711 398.894 314.087 398.648 313.295 398.648C312.479 398.648 311.825 398.912 311.333 399.44C310.841 399.956 310.595 400.718 310.595 401.726V407H308.543V397.082H310.595V399.26C310.859 398.516 311.303 397.94 311.927 397.532C312.551 397.124 313.271 396.92 314.087 396.92Z" fill="white"/>
<rect x="270" y="268" width="36" height="36" rx="18" fill="#1EABDA"/>
<path d="M287.9 279.396C288.74 279.396 289.46 279.546 290.06 279.846C290.66 280.134 291.11 280.536 291.41 281.052C291.722 281.568 291.878 282.144 291.878 282.78C291.878 283.584 291.65 284.256 291.194 284.796C290.75 285.324 290.12 285.642 289.304 285.75V285.84C290.18 286.092 290.864 286.47 291.356 286.974C291.86 287.466 292.112 288.15 292.112 289.026C292.112 290.094 291.758 290.964 291.05 291.636C290.342 292.296 289.328 292.626 288.008 292.626C286.652 292.626 285.56 292.284 284.732 291.6C283.904 290.904 283.43 289.878 283.31 288.522H285.344C285.416 289.242 285.674 289.818 286.118 290.25C286.562 290.67 287.162 290.88 287.918 290.88C288.626 290.88 289.166 290.694 289.538 290.322C289.922 289.95 290.114 289.47 290.114 288.882C290.114 288.174 289.838 287.634 289.286 287.262C288.746 286.89 287.96 286.704 286.928 286.704H286.442V285.012H286.928C288.884 285.036 289.862 284.37 289.862 283.014C289.862 282.426 289.682 281.964 289.322 281.628C288.962 281.292 288.47 281.124 287.846 281.124C287.222 281.124 286.7 281.316 286.28 281.7C285.86 282.072 285.608 282.618 285.524 283.338H283.508C283.592 282.09 284.012 281.124 284.768 280.44C285.524 279.744 286.568 279.396 287.9 279.396Z" fill="white"/>
<path d="M238.419 322.068V327H236.367V314.292H240.687C242.151 314.292 243.249 314.64 243.981 315.336C244.725 316.032 245.097 316.986 245.097 318.198C245.097 319.398 244.719 320.346 243.963 321.042C243.207 321.726 242.115 322.068 240.687 322.068H238.419ZM240.471 320.394C242.163 320.394 243.009 319.662 243.009 318.198C243.009 317.478 242.805 316.932 242.397 316.56C242.001 316.176 241.359 315.984 240.471 315.984H238.419V320.394H240.471ZM248.948 319.026C249.284 318.378 249.764 317.868 250.388 317.496C251.012 317.112 251.732 316.92 252.548 316.92V319.152H251.936C251.036 319.152 250.31 319.374 249.758 319.818C249.218 320.25 248.948 320.97 248.948 321.978V327H246.896V317.082H248.948V319.026ZM258.622 316.956C259.582 316.956 260.446 317.16 261.214 317.568C261.982 317.976 262.582 318.564 263.014 319.332C263.446 320.1 263.662 321 263.662 322.032C263.662 323.076 263.446 323.982 263.014 324.75C262.582 325.518 261.982 326.106 261.214 326.514C260.446 326.922 259.582 327.126 258.622 327.126C257.662 327.126 256.798 326.922 256.03 326.514C255.274 326.106 254.674 325.518 254.23 324.75C253.798 323.97 253.582 323.064 253.582 322.032C253.582 321 253.798 320.1 254.23 319.332C254.674 318.564 255.274 317.976 256.03 317.568C256.798 317.16 257.662 316.956 258.622 316.956ZM258.622 318.738C258.094 318.738 257.608 318.858 257.164 319.098C256.72 319.338 256.36 319.71 256.084 320.214C255.82 320.706 255.688 321.312 255.688 322.032C255.688 322.764 255.82 323.376 256.084 323.868C256.36 324.36 256.72 324.726 257.164 324.966C257.608 325.206 258.094 325.326 258.622 325.326C259.15 325.326 259.636 325.206 260.08 324.966C260.524 324.726 260.878 324.36 261.142 323.868C261.418 323.376 261.556 322.764 261.556 322.032C261.556 321.312 261.418 320.706 261.142 320.214C260.878 319.71 260.524 319.338 260.08 319.098C259.636 318.858 259.15 318.738 258.622 318.738ZM270.621 325.218V327H269.361C268.305 327 267.501 326.748 266.949 326.244C266.409 325.728 266.139 324.876 266.139 323.688V318.828H264.717V317.082H266.139V314.616H268.209V317.082H270.603V318.828H268.209V323.724C268.209 324.288 268.311 324.678 268.515 324.894C268.731 325.11 269.103 325.218 269.631 325.218H270.621ZM277.079 316.956C278.039 316.956 278.903 317.16 279.671 317.568C280.439 317.976 281.039 318.564 281.471 319.332C281.903 320.1 282.119 321 282.119 322.032C282.119 323.076 281.903 323.982 281.471 324.75C281.039 325.518 280.439 326.106 279.671 326.514C278.903 326.922 278.039 327.126 277.079 327.126C276.119 327.126 275.255 326.922 274.487 326.514C273.731 326.106 273.131 325.518 272.687 324.75C272.255 323.97 272.039 323.064 272.039 322.032C272.039 321 272.255 320.1 272.687 319.332C273.131 318.564 273.731 317.976 274.487 317.568C275.255 317.16 276.119 316.956 277.079 316.956ZM277.079 318.738C276.551 318.738 276.065 318.858 275.621 319.098C275.177 319.338 274.817 319.71 274.541 320.214C274.277 320.706 274.145 321.312 274.145 322.032C274.145 322.764 274.277 323.376 274.541 323.868C274.817 324.36 275.177 324.726 275.621 324.966C276.065 325.206 276.551 325.326 277.079 325.326C277.607 325.326 278.093 325.206 278.537 324.966C278.981 324.726 279.335 324.36 279.599 323.868C279.875 323.376 280.013 322.764 280.013 322.032C280.013 321.312 279.875 320.706 279.599 320.214C279.335 319.71 278.981 319.338 278.537 319.098C278.093 318.858 277.607 318.738 277.079 318.738ZM289.078 325.218V327H287.818C286.762 327 285.958 326.748 285.406 326.244C284.866 325.728 284.596 324.876 284.596 323.688V318.828H283.174V317.082H284.596V314.616H286.666V317.082H289.06V318.828H286.666V323.724C286.666 324.288 286.768 324.678 286.972 324.894C287.188 325.11 287.56 325.218 288.088 325.218H289.078ZM292.17 317.082L295.14 324.372L297.894 317.082H300.18L294.186 331.716H291.9L294.042 326.766L289.866 317.082H292.17ZM307.217 316.956C308.081 316.956 308.849 317.16 309.521 317.568C310.205 317.976 310.739 318.564 311.123 319.332C311.507 320.1 311.699 321 311.699 322.032C311.699 323.076 311.507 323.982 311.123 324.75C310.739 325.518 310.205 326.106 309.521 326.514C308.849 326.922 308.081 327.126 307.217 327.126C306.317 327.126 305.549 326.904 304.913 326.46C304.277 326.016 303.833 325.428 303.581 324.696V331.716H301.529V317.082H303.581V319.386C303.833 318.654 304.277 318.066 304.913 317.622C305.549 317.178 306.317 316.956 307.217 316.956ZM306.587 318.756C306.011 318.756 305.495 318.894 305.039 319.17C304.583 319.434 304.223 319.818 303.959 320.322C303.695 320.814 303.563 321.384 303.563 322.032C303.563 322.692 303.695 323.268 303.959 323.76C304.223 324.252 304.583 324.636 305.039 324.912C305.495 325.176 306.011 325.308 306.587 325.308C307.499 325.308 308.231 325.02 308.783 324.444C309.335 323.856 309.611 323.052 309.611 322.032C309.611 321.024 309.335 320.226 308.783 319.638C308.231 319.05 307.499 318.756 306.587 318.756ZM313.388 314.202C313.388 313.854 313.508 313.566 313.748 313.338C313.988 313.11 314.306 312.996 314.702 312.996C315.098 312.996 315.416 313.11 315.656 313.338C315.908 313.566 316.034 313.854 316.034 314.202C316.034 314.55 315.908 314.832 315.656 315.048C315.416 315.264 315.098 315.372 314.702 315.372C314.306 315.372 313.988 315.264 313.748 315.048C313.508 314.832 313.388 314.55 313.388 314.202ZM315.728 317.082V327H313.676V317.082H315.728ZM323.755 316.92C324.907 316.92 325.831 317.292 326.527 318.036C327.223 318.78 327.571 319.842 327.571 321.222V327H325.519V321.438C325.519 320.55 325.291 319.866 324.835 319.386C324.379 318.894 323.755 318.648 322.963 318.648C322.147 318.648 321.493 318.912 321.001 319.44C320.509 319.956 320.263 320.718 320.263 321.726V327H318.211V317.082H320.263V319.26C320.527 318.516 320.971 317.94 321.595 317.532C322.219 317.124 322.939 316.92 323.755 316.92ZM333.949 316.956C334.849 316.956 335.617 317.178 336.253 317.622C336.889 318.066 337.339 318.654 337.603 319.386V317.082H339.655V327.108C339.655 328.032 339.463 328.848 339.079 329.556C338.707 330.276 338.167 330.84 337.459 331.248C336.751 331.656 335.911 331.86 334.939 331.86C333.547 331.86 332.419 331.53 331.555 330.87C330.703 330.21 330.169 329.316 329.953 328.188H331.987C332.155 328.776 332.479 329.232 332.959 329.556C333.439 329.892 334.051 330.06 334.795 330.06C335.611 330.06 336.283 329.808 336.811 329.304C337.339 328.8 337.603 328.068 337.603 327.108V324.696C337.339 325.428 336.889 326.016 336.253 326.46C335.617 326.904 334.849 327.126 333.949 327.126C333.085 327.126 332.311 326.922 331.627 326.514C330.955 326.106 330.427 325.518 330.043 324.75C329.659 323.982 329.467 323.076 329.467 322.032C329.467 321 329.659 320.1 330.043 319.332C330.427 318.564 330.955 317.976 331.627 317.568C332.311 317.16 333.085 316.956 333.949 316.956ZM334.579 318.756C333.667 318.756 332.935 319.05 332.383 319.638C331.843 320.214 331.573 321.012 331.573 322.032C331.573 323.052 331.843 323.856 332.383 324.444C332.935 325.02 333.667 325.308 334.579 325.308C335.155 325.308 335.671 325.176 336.127 324.912C336.583 324.636 336.943 324.252 337.207 323.76C337.471 323.268 337.603 322.692 337.603 322.032C337.603 321.384 337.471 320.814 337.207 320.322C336.943 319.818 336.583 319.434 336.127 319.17C335.671 318.894 335.155 318.756 334.579 318.756Z" fill="white"/>
<rect x="270" y="178" width="36" height="36" rx="18" fill="#3CC583"/>
<path d="M282.63 199.764V198.036L288.948 189.684H291.144V197.964H292.926V199.764H291.144V202.5H289.074V199.764H282.63ZM289.218 192.132L284.754 197.964H289.218V192.132Z" fill="white"/>
<path d="M264.324 224.49V226.164H260.994V237H258.942V226.164H255.594V224.49H264.324ZM275.492 231.798C275.492 232.17 275.468 232.506 275.42 232.806H267.842C267.902 233.598 268.196 234.234 268.724 234.714C269.252 235.194 269.9 235.434 270.668 235.434C271.772 235.434 272.552 234.972 273.008 234.048H275.222C274.922 234.96 274.376 235.71 273.584 236.298C272.804 236.874 271.832 237.162 270.668 237.162C269.72 237.162 268.868 236.952 268.112 236.532C267.368 236.1 266.78 235.5 266.348 234.732C265.928 233.952 265.718 233.052 265.718 232.032C265.718 231.012 265.922 230.118 266.33 229.35C266.75 228.57 267.332 227.97 268.076 227.55C268.832 227.13 269.696 226.92 270.668 226.92C271.604 226.92 272.438 227.124 273.17 227.532C273.902 227.94 274.472 228.516 274.88 229.26C275.288 229.992 275.492 230.838 275.492 231.798ZM273.35 231.15C273.338 230.394 273.068 229.788 272.54 229.332C272.012 228.876 271.358 228.648 270.578 228.648C269.87 228.648 269.264 228.876 268.76 229.332C268.256 229.776 267.956 230.382 267.86 231.15H273.35ZM281.111 237.162C280.331 237.162 279.629 237.024 279.005 236.748C278.393 236.46 277.907 236.076 277.547 235.596C277.187 235.104 276.995 234.558 276.971 233.958H279.095C279.131 234.378 279.329 234.732 279.689 235.02C280.061 235.296 280.523 235.434 281.075 235.434C281.651 235.434 282.095 235.326 282.407 235.11C282.731 234.882 282.893 234.594 282.893 234.246C282.893 233.874 282.713 233.598 282.353 233.418C282.005 233.238 281.447 233.04 280.679 232.824C279.935 232.62 279.329 232.422 278.861 232.23C278.393 232.038 277.985 231.744 277.637 231.348C277.301 230.952 277.133 230.43 277.133 229.782C277.133 229.254 277.289 228.774 277.601 228.342C277.913 227.898 278.357 227.55 278.933 227.298C279.521 227.046 280.193 226.92 280.949 226.92C282.077 226.92 282.983 227.208 283.667 227.784C284.363 228.348 284.735 229.122 284.783 230.106H282.731C282.695 229.662 282.515 229.308 282.191 229.044C281.867 228.78 281.429 228.648 280.877 228.648C280.337 228.648 279.923 228.75 279.635 228.954C279.347 229.158 279.203 229.428 279.203 229.764C279.203 230.028 279.299 230.25 279.491 230.43C279.683 230.61 279.917 230.754 280.193 230.862C280.469 230.958 280.877 231.084 281.417 231.24C282.137 231.432 282.725 231.63 283.181 231.834C283.649 232.026 284.051 232.314 284.387 232.698C284.723 233.082 284.897 233.592 284.909 234.228C284.909 234.792 284.753 235.296 284.441 235.74C284.129 236.184 283.685 236.532 283.109 236.784C282.545 237.036 281.879 237.162 281.111 237.162ZM289.52 228.756V234.246C289.52 234.618 289.604 234.888 289.772 235.056C289.952 235.212 290.252 235.29 290.672 235.29H291.932V237H290.312C289.388 237 288.68 236.784 288.188 236.352C287.696 235.92 287.45 235.218 287.45 234.246V228.756H286.28V227.082H287.45V224.616H289.52V227.082H291.932V228.756H289.52ZM294.868 225.768C294.496 225.768 294.184 225.642 293.932 225.39C293.68 225.138 293.554 224.826 293.554 224.454C293.554 224.082 293.68 223.77 293.932 223.518C294.184 223.266 294.496 223.14 294.868 223.14C295.228 223.14 295.534 223.266 295.786 223.518C296.038 223.77 296.164 224.082 296.164 224.454C296.164 224.826 296.038 225.138 295.786 225.39C295.534 225.642 295.228 225.768 294.868 225.768ZM295.876 227.082V237H293.824V227.082H295.876ZM303.574 226.92C304.354 226.92 305.05 227.082 305.662 227.406C306.286 227.73 306.772 228.21 307.12 228.846C307.468 229.482 307.642 230.25 307.642 231.15V237H305.608V231.456C305.608 230.568 305.386 229.89 304.942 229.422C304.498 228.942 303.892 228.702 303.124 228.702C302.356 228.702 301.744 228.942 301.288 229.422C300.844 229.89 300.622 230.568 300.622 231.456V237H298.57V227.082H300.622V228.216C300.958 227.808 301.384 227.49 301.9 227.262C302.428 227.034 302.986 226.92 303.574 226.92ZM314.255 226.92C315.023 226.92 315.701 227.076 316.289 227.388C316.889 227.688 317.357 228.066 317.693 228.522V227.082H319.763V237.162C319.763 238.074 319.571 238.884 319.187 239.592C318.803 240.312 318.245 240.876 317.513 241.284C316.793 241.692 315.929 241.896 314.921 241.896C313.577 241.896 312.461 241.578 311.573 240.942C310.685 240.318 310.181 239.466 310.061 238.386H312.095C312.251 238.902 312.581 239.316 313.085 239.628C313.601 239.952 314.213 240.114 314.921 240.114C315.749 240.114 316.415 239.862 316.919 239.358C317.435 238.854 317.693 238.122 317.693 237.162V235.506C317.345 235.974 316.871 236.37 316.271 236.694C315.683 237.006 315.011 237.162 314.255 237.162C313.391 237.162 312.599 236.946 311.879 236.514C311.171 236.07 310.607 235.458 310.187 234.678C309.779 233.886 309.575 232.992 309.575 231.996C309.575 231 309.779 230.118 310.187 229.35C310.607 228.582 311.171 227.988 311.879 227.568C312.599 227.136 313.391 226.92 314.255 226.92ZM317.693 232.032C317.693 231.348 317.549 230.754 317.261 230.25C316.985 229.746 316.619 229.362 316.163 229.098C315.707 228.834 315.215 228.702 314.687 228.702C314.159 228.702 313.667 228.834 313.211 229.098C312.755 229.35 312.383 229.728 312.095 230.232C311.819 230.724 311.681 231.312 311.681 231.996C311.681 232.68 311.819 233.28 312.095 233.796C312.383 234.312 312.755 234.708 313.211 234.984C313.679 235.248 314.171 235.38 314.687 235.38C315.215 235.38 315.707 235.248 316.163 234.984C316.619 234.72 316.985 234.336 317.261 233.832C317.549 233.316 317.693 232.716 317.693 232.032Z" fill="white"/>
<rect x="270" y="98" width="36" height="36" rx="18" fill="#E0CB15"/>
<path d="M291.738 111.412H285.456V115.192C285.744 114.82 286.152 114.526 286.68 114.31C287.208 114.082 287.79 113.968 288.426 113.968C289.314 113.968 290.052 114.16 290.64 114.544C291.228 114.916 291.66 115.414 291.936 116.038C292.224 116.662 292.368 117.352 292.368 118.108C292.368 119.44 291.996 120.52 291.252 121.348C290.508 122.164 289.428 122.572 288.012 122.572C286.68 122.572 285.606 122.218 284.79 121.51C283.974 120.802 283.53 119.86 283.458 118.684H285.474C285.582 119.332 285.846 119.842 286.266 120.214C286.698 120.586 287.244 120.772 287.904 120.772C288.72 120.772 289.332 120.526 289.74 120.034C290.148 119.542 290.352 118.888 290.352 118.072C290.352 117.304 290.142 116.704 289.722 116.272C289.302 115.828 288.702 115.606 287.922 115.606C287.37 115.606 286.884 115.726 286.464 115.966C286.056 116.206 285.756 116.524 285.564 116.92H283.566V109.594H291.738V111.412Z" fill="white"/>
<path d="M244.419 150.628C244.419 151.912 244.155 153.034 243.627 153.994C243.111 154.942 242.349 155.68 241.341 156.208C240.345 156.736 239.151 157 237.759 157H233.511V144.292H237.759C239.151 144.292 240.345 144.556 241.341 145.084C242.349 145.6 243.111 146.332 243.627 147.28C244.155 148.228 244.419 149.344 244.419 150.628ZM237.597 155.146C239.121 155.146 240.291 154.75 241.107 153.958C241.923 153.166 242.331 152.056 242.331 150.628C242.331 149.2 241.923 148.09 241.107 147.298C240.291 146.506 239.121 146.11 237.597 146.11H235.563V155.146H237.597ZM255.699 151.564C255.699 151.9 255.675 152.194 255.627 152.446H247.995C248.031 153.466 248.313 154.222 248.841 154.714C249.369 155.206 250.023 155.452 250.803 155.452C251.487 155.452 252.063 155.278 252.531 154.93C253.011 154.582 253.305 154.12 253.413 153.544H255.609C255.477 154.24 255.201 154.858 254.781 155.398C254.361 155.938 253.815 156.364 253.143 156.676C252.471 156.976 251.721 157.126 250.893 157.126C249.933 157.126 249.081 156.922 248.337 156.514C247.605 156.106 247.029 155.518 246.609 154.75C246.189 153.982 245.979 153.076 245.979 152.032C245.979 151 246.189 150.1 246.609 149.332C247.029 148.564 247.605 147.976 248.337 147.568C249.081 147.16 249.933 146.956 250.893 146.956C251.865 146.956 252.711 147.16 253.431 147.568C254.163 147.964 254.721 148.516 255.105 149.224C255.501 149.92 255.699 150.7 255.699 151.564ZM253.629 151.51C253.653 150.862 253.539 150.322 253.287 149.89C253.047 149.446 252.711 149.122 252.279 148.918C251.859 148.702 251.397 148.594 250.893 148.594C250.089 148.594 249.417 148.84 248.877 149.332C248.337 149.824 248.043 150.55 247.995 151.51H253.629ZM263.368 146.956C264.232 146.956 265 147.16 265.672 147.568C266.356 147.976 266.89 148.564 267.274 149.332C267.658 150.1 267.85 151 267.85 152.032C267.85 153.076 267.658 153.982 267.274 154.75C266.89 155.518 266.356 156.106 265.672 156.514C265 156.922 264.232 157.126 263.368 157.126C262.468 157.126 261.7 156.904 261.064 156.46C260.428 156.016 259.984 155.428 259.732 154.696V161.716H257.68V147.082H259.732V149.386C259.984 148.654 260.428 148.066 261.064 147.622C261.7 147.178 262.468 146.956 263.368 146.956ZM262.738 148.756C262.162 148.756 261.646 148.894 261.19 149.17C260.734 149.434 260.374 149.818 260.11 150.322C259.846 150.814 259.714 151.384 259.714 152.032C259.714 152.692 259.846 153.268 260.11 153.76C260.374 154.252 260.734 154.636 261.19 154.912C261.646 155.176 262.162 155.308 262.738 155.308C263.65 155.308 264.382 155.02 264.934 154.444C265.486 153.856 265.762 153.052 265.762 152.032C265.762 151.024 265.486 150.226 264.934 149.638C264.382 149.05 263.65 148.756 262.738 148.756ZM271.879 143.68V157H269.827V143.68H271.879ZM278.898 146.956C279.858 146.956 280.722 147.16 281.49 147.568C282.258 147.976 282.858 148.564 283.29 149.332C283.722 150.1 283.938 151 283.938 152.032C283.938 153.076 283.722 153.982 283.29 154.75C282.858 155.518 282.258 156.106 281.49 156.514C280.722 156.922 279.858 157.126 278.898 157.126C277.938 157.126 277.074 156.922 276.306 156.514C275.55 156.106 274.95 155.518 274.506 154.75C274.074 153.97 273.858 153.064 273.858 152.032C273.858 151 274.074 150.1 274.506 149.332C274.95 148.564 275.55 147.976 276.306 147.568C277.074 147.16 277.938 146.956 278.898 146.956ZM278.898 148.738C278.37 148.738 277.884 148.858 277.44 149.098C276.996 149.338 276.636 149.71 276.36 150.214C276.096 150.706 275.964 151.312 275.964 152.032C275.964 152.764 276.096 153.376 276.36 153.868C276.636 154.36 276.996 154.726 277.44 154.966C277.884 155.206 278.37 155.326 278.898 155.326C279.426 155.326 279.912 155.206 280.356 154.966C280.8 154.726 281.154 154.36 281.418 153.868C281.694 153.376 281.832 152.764 281.832 152.032C281.832 151.312 281.694 150.706 281.418 150.214C281.154 149.71 280.8 149.338 280.356 149.098C279.912 148.858 279.426 148.738 278.898 148.738ZM287.081 147.082L290.051 154.372L292.805 147.082H295.091L289.097 161.716H286.811L288.953 156.766L284.777 147.082H287.081ZM308.842 146.92C310.018 146.92 310.954 147.292 311.65 148.036C312.358 148.78 312.712 149.842 312.712 151.222V157H310.66V151.438C310.66 150.574 310.444 149.908 310.012 149.44C309.58 148.96 308.986 148.72 308.23 148.72C307.426 148.72 306.784 148.978 306.304 149.494C305.836 149.998 305.602 150.742 305.602 151.726V157H303.55V151.438C303.55 150.574 303.334 149.908 302.902 149.44C302.47 148.96 301.876 148.72 301.12 148.72C300.316 148.72 299.674 148.978 299.194 149.494C298.726 149.998 298.492 150.742 298.492 151.726V157H296.44V147.082H298.492V149.152C298.744 148.432 299.164 147.88 299.752 147.496C300.34 147.112 301.03 146.92 301.822 146.92C302.65 146.92 303.364 147.124 303.964 147.532C304.576 147.94 305.02 148.528 305.296 149.296C305.584 148.552 306.046 147.97 306.682 147.55C307.318 147.13 308.038 146.92 308.842 146.92ZM324.324 151.564C324.324 151.9 324.3 152.194 324.252 152.446H316.62C316.656 153.466 316.938 154.222 317.466 154.714C317.994 155.206 318.648 155.452 319.428 155.452C320.112 155.452 320.688 155.278 321.156 154.93C321.636 154.582 321.93 154.12 322.038 153.544H324.234C324.102 154.24 323.826 154.858 323.406 155.398C322.986 155.938 322.44 156.364 321.768 156.676C321.096 156.976 320.346 157.126 319.518 157.126C318.558 157.126 317.706 156.922 316.962 156.514C316.23 156.106 315.654 155.518 315.234 154.75C314.814 153.982 314.604 153.076 314.604 152.032C314.604 151 314.814 150.1 315.234 149.332C315.654 148.564 316.23 147.976 316.962 147.568C317.706 147.16 318.558 146.956 319.518 146.956C320.49 146.956 321.336 147.16 322.056 147.568C322.788 147.964 323.346 148.516 323.73 149.224C324.126 149.92 324.324 150.7 324.324 151.564ZM322.254 151.51C322.278 150.862 322.164 150.322 321.912 149.89C321.672 149.446 321.336 149.122 320.904 148.918C320.484 148.702 320.022 148.594 319.518 148.594C318.714 148.594 318.042 148.84 317.502 149.332C316.962 149.824 316.668 150.55 316.62 151.51H322.254ZM331.849 146.92C333.001 146.92 333.925 147.292 334.621 148.036C335.317 148.78 335.665 149.842 335.665 151.222V157H333.613V151.438C333.613 150.55 333.385 149.866 332.929 149.386C332.473 148.894 331.849 148.648 331.057 148.648C330.241 148.648 329.587 148.912 329.095 149.44C328.603 149.956 328.357 150.718 328.357 151.726V157H326.305V147.082H328.357V149.26C328.621 148.516 329.065 147.94 329.689 147.532C330.313 147.124 331.033 146.92 331.849 146.92ZM343.051 155.218V157H341.791C340.735 157 339.931 156.748 339.379 156.244C338.839 155.728 338.569 154.876 338.569 153.688V148.828H337.147V147.082H338.569V144.616H340.639V147.082H343.033V148.828H340.639V153.724C340.639 154.288 340.741 154.678 340.945 154.894C341.161 155.11 341.533 155.218 342.061 155.218H343.051Z" fill="white"/>
<rect x="270" y="8" width="36" height="36" rx="18" fill="#F9A870"/>
<path d="M289.902 23.212C289.686 21.796 288.948 21.088 287.688 21.088C286.776 21.088 286.092 21.454 285.636 22.186C285.18 22.906 284.952 24.04 284.952 25.588L284.97 26.2C285.15 25.552 285.54 25.036 286.14 24.652C286.74 24.268 287.448 24.076 288.264 24.076C289.512 24.076 290.49 24.448 291.198 25.192C291.906 25.936 292.26 26.986 292.26 28.342C292.26 29.158 292.098 29.89 291.774 30.538C291.45 31.174 290.964 31.684 290.316 32.068C289.668 32.44 288.87 32.626 287.922 32.626C286.086 32.626 284.826 32.056 284.142 30.916C283.458 29.776 283.116 28.21 283.116 26.218C283.116 23.938 283.482 22.234 284.214 21.106C284.946 19.978 286.146 19.414 287.814 19.414C289.062 19.414 290.016 19.768 290.676 20.476C291.348 21.184 291.738 22.096 291.846 23.212H289.902ZM285.15 28.108C285.15 28.888 285.378 29.542 285.834 30.07C286.29 30.586 286.962 30.844 287.85 30.844C288.606 30.844 289.206 30.622 289.65 30.178C290.106 29.734 290.334 29.116 290.334 28.324C290.334 27.472 290.106 26.818 289.65 26.362C289.194 25.906 288.576 25.678 287.796 25.678C287.088 25.678 286.47 25.888 285.942 26.308C285.414 26.728 285.15 27.328 285.15 28.108Z" fill="white"/>
<path d="M182.15 60.628C182.15 61.912 181.886 63.034 181.358 63.994C180.842 64.942 180.08 65.68 179.072 66.208C178.076 66.736 176.882 67 175.49 67H171.242V54.292H175.49C176.882 54.292 178.076 54.556 179.072 55.084C180.08 55.6 180.842 56.332 181.358 57.28C181.886 58.228 182.15 59.344 182.15 60.628ZM175.328 65.146C176.852 65.146 178.022 64.75 178.838 63.958C179.654 63.166 180.062 62.056 180.062 60.628C180.062 59.2 179.654 58.09 178.838 57.298C178.022 56.506 176.852 56.11 175.328 56.11H173.294V65.146H175.328ZM193.431 61.564C193.431 61.9 193.407 62.194 193.359 62.446H185.727C185.763 63.466 186.045 64.222 186.573 64.714C187.101 65.206 187.755 65.452 188.535 65.452C189.219 65.452 189.795 65.278 190.263 64.93C190.743 64.582 191.037 64.12 191.145 63.544H193.341C193.209 64.24 192.933 64.858 192.513 65.398C192.093 65.938 191.547 66.364 190.875 66.676C190.203 66.976 189.453 67.126 188.625 67.126C187.665 67.126 186.813 66.922 186.069 66.514C185.337 66.106 184.761 65.518 184.341 64.75C183.921 63.982 183.711 63.076 183.711 62.032C183.711 61 183.921 60.1 184.341 59.332C184.761 58.564 185.337 57.976 186.069 57.568C186.813 57.16 187.665 56.956 188.625 56.956C189.597 56.956 190.443 57.16 191.163 57.568C191.895 57.964 192.453 58.516 192.837 59.224C193.233 59.92 193.431 60.7 193.431 61.564ZM191.361 61.51C191.385 60.862 191.271 60.322 191.019 59.89C190.779 59.446 190.443 59.122 190.011 58.918C189.591 58.702 189.129 58.594 188.625 58.594C187.821 58.594 187.149 58.84 186.609 59.332C186.069 59.824 185.775 60.55 185.727 61.51H191.361ZM201.1 56.956C201.964 56.956 202.732 57.16 203.404 57.568C204.088 57.976 204.622 58.564 205.006 59.332C205.39 60.1 205.582 61 205.582 62.032C205.582 63.076 205.39 63.982 205.006 64.75C204.622 65.518 204.088 66.106 203.404 66.514C202.732 66.922 201.964 67.126 201.1 67.126C200.2 67.126 199.432 66.904 198.796 66.46C198.16 66.016 197.716 65.428 197.464 64.696V71.716H195.412V57.082H197.464V59.386C197.716 58.654 198.16 58.066 198.796 57.622C199.432 57.178 200.2 56.956 201.1 56.956ZM200.47 58.756C199.894 58.756 199.378 58.894 198.922 59.17C198.466 59.434 198.106 59.818 197.842 60.322C197.578 60.814 197.446 61.384 197.446 62.032C197.446 62.692 197.578 63.268 197.842 63.76C198.106 64.252 198.466 64.636 198.922 64.912C199.378 65.176 199.894 65.308 200.47 65.308C201.382 65.308 202.114 65.02 202.666 64.444C203.218 63.856 203.494 63.052 203.494 62.032C203.494 61.024 203.218 60.226 202.666 59.638C202.114 59.05 201.382 58.756 200.47 58.756ZM209.61 53.68V67H207.558V53.68H209.61ZM216.63 56.956C217.59 56.956 218.454 57.16 219.222 57.568C219.99 57.976 220.59 58.564 221.022 59.332C221.454 60.1 221.67 61 221.67 62.032C221.67 63.076 221.454 63.982 221.022 64.75C220.59 65.518 219.99 66.106 219.222 66.514C218.454 66.922 217.59 67.126 216.63 67.126C215.67 67.126 214.806 66.922 214.038 66.514C213.282 66.106 212.682 65.518 212.238 64.75C211.806 63.97 211.59 63.064 211.59 62.032C211.59 61 211.806 60.1 212.238 59.332C212.682 58.564 213.282 57.976 214.038 57.568C214.806 57.16 215.67 56.956 216.63 56.956ZM216.63 58.738C216.102 58.738 215.616 58.858 215.172 59.098C214.728 59.338 214.368 59.71 214.092 60.214C213.828 60.706 213.696 61.312 213.696 62.032C213.696 62.764 213.828 63.376 214.092 63.868C214.368 64.36 214.728 64.726 215.172 64.966C215.616 65.206 216.102 65.326 216.63 65.326C217.158 65.326 217.644 65.206 218.088 64.966C218.532 64.726 218.886 64.36 219.15 63.868C219.426 63.376 219.564 62.764 219.564 62.032C219.564 61.312 219.426 60.706 219.15 60.214C218.886 59.71 218.532 59.338 218.088 59.098C217.644 58.858 217.158 58.738 216.63 58.738ZM224.812 57.082L227.782 64.372L230.536 57.082H232.822L226.828 71.716H224.542L226.684 66.766L222.508 57.082H224.812ZM246.574 56.92C247.75 56.92 248.686 57.292 249.382 58.036C250.09 58.78 250.444 59.842 250.444 61.222V67H248.392V61.438C248.392 60.574 248.176 59.908 247.744 59.44C247.312 58.96 246.718 58.72 245.962 58.72C245.158 58.72 244.516 58.978 244.036 59.494C243.568 59.998 243.334 60.742 243.334 61.726V67H241.282V61.438C241.282 60.574 241.066 59.908 240.634 59.44C240.202 58.96 239.608 58.72 238.852 58.72C238.048 58.72 237.406 58.978 236.926 59.494C236.458 59.998 236.224 60.742 236.224 61.726V67H234.172V57.082H236.224V59.152C236.476 58.432 236.896 57.88 237.484 57.496C238.072 57.112 238.762 56.92 239.554 56.92C240.382 56.92 241.096 57.124 241.696 57.532C242.308 57.94 242.752 58.528 243.028 59.296C243.316 58.552 243.778 57.97 244.414 57.55C245.05 57.13 245.77 56.92 246.574 56.92ZM262.056 61.564C262.056 61.9 262.032 62.194 261.984 62.446H254.352C254.388 63.466 254.67 64.222 255.198 64.714C255.726 65.206 256.38 65.452 257.16 65.452C257.844 65.452 258.42 65.278 258.888 64.93C259.368 64.582 259.662 64.12 259.77 63.544H261.966C261.834 64.24 261.558 64.858 261.138 65.398C260.718 65.938 260.172 66.364 259.5 66.676C258.828 66.976 258.078 67.126 257.25 67.126C256.29 67.126 255.438 66.922 254.694 66.514C253.962 66.106 253.386 65.518 252.966 64.75C252.546 63.982 252.336 63.076 252.336 62.032C252.336 61 252.546 60.1 252.966 59.332C253.386 58.564 253.962 57.976 254.694 57.568C255.438 57.16 256.29 56.956 257.25 56.956C258.222 56.956 259.068 57.16 259.788 57.568C260.52 57.964 261.078 58.516 261.462 59.224C261.858 59.92 262.056 60.7 262.056 61.564ZM259.986 61.51C260.01 60.862 259.896 60.322 259.644 59.89C259.404 59.446 259.068 59.122 258.636 58.918C258.216 58.702 257.754 58.594 257.25 58.594C256.446 58.594 255.774 58.84 255.234 59.332C254.694 59.824 254.4 60.55 254.352 61.51H259.986ZM269.581 56.92C270.733 56.92 271.657 57.292 272.353 58.036C273.049 58.78 273.397 59.842 273.397 61.222V67H271.345V61.438C271.345 60.55 271.117 59.866 270.661 59.386C270.205 58.894 269.581 58.648 268.789 58.648C267.973 58.648 267.319 58.912 266.827 59.44C266.335 59.956 266.089 60.718 266.089 61.726V67H264.037V57.082H266.089V59.26C266.353 58.516 266.797 57.94 267.421 57.532C268.045 57.124 268.765 56.92 269.581 56.92ZM280.783 65.218V67H279.523C278.467 67 277.663 66.748 277.111 66.244C276.571 65.728 276.301 64.876 276.301 63.688V58.828H274.879V57.082H276.301V54.616H278.371V57.082H280.765V58.828H278.371V63.724C278.371 64.288 278.473 64.678 278.677 64.894C278.893 65.11 279.265 65.218 279.793 65.218H280.783ZM300.1 54.49V67H298.03V57.622L294.412 67H292.612L288.976 57.622V67H286.924V54.49H289.408L293.548 64.48L297.616 54.49H300.1ZM306.546 56.956C307.446 56.956 308.214 57.178 308.85 57.622C309.486 58.066 309.936 58.654 310.2 59.386V57.082H312.252V67H310.2V64.696C309.936 65.428 309.486 66.016 308.85 66.46C308.214 66.904 307.446 67.126 306.546 67.126C305.682 67.126 304.908 66.922 304.224 66.514C303.552 66.106 303.024 65.518 302.64 64.75C302.256 63.982 302.064 63.076 302.064 62.032C302.064 61 302.256 60.1 302.64 59.332C303.024 58.564 303.552 57.976 304.224 57.568C304.908 57.16 305.682 56.956 306.546 56.956ZM307.176 58.756C306.264 58.756 305.532 59.05 304.98 59.638C304.44 60.214 304.17 61.012 304.17 62.032C304.17 63.052 304.44 63.856 304.98 64.444C305.532 65.02 306.264 65.308 307.176 65.308C307.752 65.308 308.268 65.176 308.724 64.912C309.18 64.636 309.54 64.252 309.804 63.76C310.068 63.268 310.2 62.692 310.2 62.032C310.2 61.384 310.068 60.814 309.804 60.322C309.54 59.818 309.18 59.434 308.724 59.17C308.268 58.894 307.752 58.756 307.176 58.756ZM314.427 54.202C314.427 53.854 314.547 53.566 314.787 53.338C315.027 53.11 315.345 52.996 315.741 52.996C316.137 52.996 316.455 53.11 316.695 53.338C316.947 53.566 317.073 53.854 317.073 54.202C317.073 54.55 316.947 54.832 316.695 55.048C316.455 55.264 316.137 55.372 315.741 55.372C315.345 55.372 315.027 55.264 314.787 55.048C314.547 54.832 314.427 54.55 314.427 54.202ZM316.767 57.082V67H314.715V57.082H316.767ZM324.794 56.92C325.946 56.92 326.87 57.292 327.566 58.036C328.262 58.78 328.61 59.842 328.61 61.222V67H326.558V61.438C326.558 60.55 326.33 59.866 325.874 59.386C325.418 58.894 324.794 58.648 324.002 58.648C323.186 58.648 322.532 58.912 322.04 59.44C321.548 59.956 321.302 60.718 321.302 61.726V67H319.25V57.082H321.302V59.26C321.566 58.516 322.01 57.94 322.634 57.532C323.258 57.124 323.978 56.92 324.794 56.92ZM335.996 65.218V67H334.736C333.68 67 332.876 66.748 332.324 66.244C331.784 65.728 331.514 64.876 331.514 63.688V58.828H330.092V57.082H331.514V54.616H333.584V57.082H335.978V58.828H333.584V63.724C333.584 64.288 333.686 64.678 333.89 64.894C334.106 65.11 334.478 65.218 335.006 65.218H335.996ZM347.134 61.564C347.134 61.9 347.11 62.194 347.062 62.446H339.43C339.466 63.466 339.748 64.222 340.276 64.714C340.804 65.206 341.458 65.452 342.238 65.452C342.922 65.452 343.498 65.278 343.966 64.93C344.446 64.582 344.74 64.12 344.848 63.544H347.044C346.912 64.24 346.636 64.858 346.216 65.398C345.796 65.938 345.25 66.364 344.578 66.676C343.906 66.976 343.156 67.126 342.328 67.126C341.368 67.126 340.516 66.922 339.772 66.514C339.04 66.106 338.464 65.518 338.044 64.75C337.624 63.982 337.414 63.076 337.414 62.032C337.414 61 337.624 60.1 338.044 59.332C338.464 58.564 339.04 57.976 339.772 57.568C340.516 57.16 341.368 56.956 342.328 56.956C343.3 56.956 344.146 57.16 344.866 57.568C345.598 57.964 346.156 58.516 346.54 59.224C346.936 59.92 347.134 60.7 347.134 61.564ZM345.064 61.51C345.088 60.862 344.974 60.322 344.722 59.89C344.482 59.446 344.146 59.122 343.714 58.918C343.294 58.702 342.832 58.594 342.328 58.594C341.524 58.594 340.852 58.84 340.312 59.332C339.772 59.824 339.478 60.55 339.43 61.51H345.064ZM354.659 56.92C355.811 56.92 356.735 57.292 357.431 58.036C358.127 58.78 358.475 59.842 358.475 61.222V67H356.423V61.438C356.423 60.55 356.195 59.866 355.739 59.386C355.283 58.894 354.659 58.648 353.867 58.648C353.051 58.648 352.397 58.912 351.905 59.44C351.413 59.956 351.167 60.718 351.167 61.726V67H349.115V57.082H351.167V59.26C351.431 58.516 351.875 57.94 352.499 57.532C353.123 57.124 353.843 56.92 354.659 56.92ZM364.853 56.956C365.753 56.956 366.521 57.178 367.157 57.622C367.793 58.066 368.243 58.654 368.507 59.386V57.082H370.559V67H368.507V64.696C368.243 65.428 367.793 66.016 367.157 66.46C366.521 66.904 365.753 67.126 364.853 67.126C363.989 67.126 363.215 66.922 362.531 66.514C361.859 66.106 361.331 65.518 360.947 64.75C360.563 63.982 360.371 63.076 360.371 62.032C360.371 61 360.563 60.1 360.947 59.332C361.331 58.564 361.859 57.976 362.531 57.568C363.215 57.16 363.989 56.956 364.853 56.956ZM365.483 58.756C364.571 58.756 363.839 59.05 363.287 59.638C362.747 60.214 362.477 61.012 362.477 62.032C362.477 63.052 362.747 63.856 363.287 64.444C363.839 65.02 364.571 65.308 365.483 65.308C366.059 65.308 366.575 65.176 367.031 64.912C367.487 64.636 367.847 64.252 368.111 63.76C368.375 63.268 368.507 62.692 368.507 62.032C368.507 61.384 368.375 60.814 368.111 60.322C367.847 59.818 367.487 59.434 367.031 59.17C366.575 58.894 366.059 58.756 365.483 58.756ZM378.565 56.92C379.717 56.92 380.641 57.292 381.337 58.036C382.033 58.78 382.381 59.842 382.381 61.222V67H380.329V61.438C380.329 60.55 380.101 59.866 379.645 59.386C379.189 58.894 378.565 58.648 377.773 58.648C376.957 58.648 376.303 58.912 375.811 59.44C375.319 59.956 375.073 60.718 375.073 61.726V67H373.021V57.082H375.073V59.26C375.337 58.516 375.781 57.94 376.405 57.532C377.029 57.124 377.749 56.92 378.565 56.92ZM389.191 56.956C390.475 56.956 391.537 57.298 392.377 57.982C393.217 58.654 393.739 59.572 393.943 60.736H391.765C391.645 60.112 391.351 59.626 390.883 59.278C390.427 58.918 389.851 58.738 389.155 58.738C388.363 58.738 387.703 59.02 387.175 59.584C386.647 60.136 386.383 60.952 386.383 62.032C386.383 63.112 386.647 63.934 387.175 64.498C387.703 65.062 388.363 65.344 389.155 65.344C389.851 65.344 390.427 65.164 390.883 64.804C391.351 64.444 391.645 63.952 391.765 63.328H393.943C393.739 64.492 393.217 65.416 392.377 66.1C391.537 66.784 390.475 67.126 389.191 67.126C388.231 67.126 387.379 66.922 386.635 66.514C385.903 66.106 385.327 65.518 384.907 64.75C384.487 63.982 384.277 63.076 384.277 62.032C384.277 61 384.487 60.1 384.907 59.332C385.327 58.564 385.903 57.976 386.635 57.568C387.379 57.16 388.231 56.956 389.191 56.956ZM405.142 61.564C405.142 61.9 405.118 62.194 405.07 62.446H397.438C397.474 63.466 397.756 64.222 398.284 64.714C398.812 65.206 399.466 65.452 400.246 65.452C400.93 65.452 401.506 65.278 401.974 64.93C402.454 64.582 402.748 64.12 402.856 63.544H405.052C404.92 64.24 404.644 64.858 404.224 65.398C403.804 65.938 403.258 66.364 402.586 66.676C401.914 66.976 401.164 67.126 400.336 67.126C399.376 67.126 398.524 66.922 397.78 66.514C397.048 66.106 396.472 65.518 396.052 64.75C395.632 63.982 395.422 63.076 395.422 62.032C395.422 61 395.632 60.1 396.052 59.332C396.472 58.564 397.048 57.976 397.78 57.568C398.524 57.16 399.376 56.956 400.336 56.956C401.308 56.956 402.154 57.16 402.874 57.568C403.606 57.964 404.164 58.516 404.548 59.224C404.944 59.92 405.142 60.7 405.142 61.564ZM403.072 61.51C403.096 60.862 402.982 60.322 402.73 59.89C402.49 59.446 402.154 59.122 401.722 58.918C401.302 58.702 400.84 58.594 400.336 58.594C399.532 58.594 398.86 58.84 398.32 59.332C397.78 59.824 397.486 60.55 397.438 61.51H403.072Z" fill="white"/>
<defs>
<clipPath id="clip0_0_1">
<rect width="578" height="578" fill="white" transform="translate(0 0.458984)"/>
</clipPath>
</defs>
</svg>
