<svg width="56" height="56" viewBox="0 0 56 56" fill="none" xmlns="http://www.w3.org/2000/svg">
<path d="M8.31584 13.6776H8.1122C6.13523 13.6945 4.74372 14.0763 3.92069 14.8909C3.38614 15.4254 3.09766 16.1297 3.09766 16.9442V42.2206C3.09766 44.1551 3.09766 47.3879 6.98372 47.4303L9.35099 47.4557H9.41038C9.69887 47.4557 9.98735 47.4303 10.2589 47.3879C12.168 47.0824 13.3558 45.8266 13.3558 44.1127V16.9442C13.3643 13.6945 10.0807 13.6776 8.31584 13.6776ZM11.6928 44.1127C11.6928 45.3006 10.6322 45.6485 9.99584 45.7503C9.7922 45.7842 9.58008 45.8012 9.36796 45.7927L7.00069 45.7673C5.10008 45.7418 4.76069 44.8169 4.76069 42.2206V16.9357C4.76069 16.5624 4.8625 16.2824 5.0916 16.0618C5.56675 15.5866 6.61038 15.3321 8.03584 15.3321H8.31584C10.6577 15.3406 11.7013 15.5697 11.7013 16.9357V44.1127H11.6928ZM19.8552 21.3988C18.8031 21.3988 17.3522 21.3903 16.334 22.2897C15.1801 23.3079 15.2819 24.8691 15.3583 26.1163C15.3752 26.3963 15.3922 26.6679 15.3922 26.9139V43.2727C15.3922 44.7151 15.3922 47.3963 18.9049 47.4303L20.9837 47.4473H21.0431C21.2892 47.4473 21.5437 47.4303 21.7813 47.3963C23.5207 47.1588 24.6067 46.1236 24.6067 44.7066V25.8109C24.6067 22.1454 22.8758 21.4157 19.8552 21.3988ZM22.9437 44.7151C22.9437 45.4788 21.9764 45.6994 21.5522 45.7588C21.374 45.7842 21.1874 45.8012 21.0007 45.7927L18.9219 45.7757C17.3013 45.7588 17.0552 45.1988 17.0552 43.2812V26.9139C17.0552 26.6339 17.0383 26.3285 17.0128 26.006C16.9534 25.0303 16.8855 24.0121 17.4286 23.5285C17.9207 23.0957 18.7777 23.0533 19.6092 23.0533H19.8807C22.4771 23.0618 22.9352 23.4776 22.9352 25.8024V44.7151H22.9437ZM31.7849 27.9915C30.6989 27.983 29.3498 27.983 28.3655 28.6194C27.0928 29.4424 27.2116 30.7915 27.288 31.6909C27.3049 31.886 27.3219 32.0727 27.3219 32.2424V44.1806C27.3219 45.7757 27.7377 47.4133 30.8346 47.4388L32.9134 47.4557H32.9643C33.2019 47.4557 33.4395 47.4473 33.677 47.4218C35.4674 47.2436 36.528 46.4206 36.528 45.2327V31.4363C36.5364 28.2715 34.3049 28 31.7849 27.9915ZM34.8734 40.7188V45.2327C34.8734 45.3685 34.4661 45.6654 33.5158 45.7673C33.3207 45.7842 33.134 45.7927 32.9304 45.7927L30.8516 45.7757C28.9849 45.7588 28.9849 45.2327 28.9849 44.1806V32.2424C28.9849 32.0303 28.968 31.7927 28.9425 31.5466C28.8661 30.6727 28.8746 30.2654 29.2649 30.0194C29.7825 29.68 30.7158 29.6545 31.5474 29.6545H31.8104C34.8649 29.663 34.8649 30.223 34.8649 31.4363C34.8734 32.4206 34.8734 37.0448 34.8734 40.7188ZM48.9583 38.1563C48.9498 37.9697 48.9583 37.7745 48.9583 37.5709C48.9752 36.7054 49.0007 35.6194 48.271 34.7624C47.2528 33.566 45.6746 33.5745 44.5292 33.583H44.0964C42.2807 33.583 39.9983 33.5745 39.7522 36.646C39.6164 38.3345 39.7183 40.1418 39.8201 41.8812C39.871 42.6957 39.9134 43.4933 39.9389 44.2739C39.9983 46.5054 40.9486 47.4218 43.2225 47.4303L45.3013 47.4388H45.3607C45.5898 47.4388 45.8189 47.4303 46.048 47.4133C47.8637 47.286 48.831 46.8363 49.0431 44.6982C49.1958 43.12 49.1195 41.5079 49.0431 39.9466C49.0007 39.3612 48.9752 38.7588 48.9583 38.1563ZM47.3716 44.5539C47.2613 45.623 47.1934 45.6824 45.9207 45.7673C45.7089 45.7818 45.4966 45.7875 45.2843 45.7842L43.231 45.7757C41.8564 45.7673 41.6443 45.5636 41.6019 44.24C41.5764 43.4424 41.534 42.6194 41.4831 41.7963C41.3898 40.1079 41.288 38.36 41.4152 36.7903C41.534 35.3648 42.077 35.263 43.9183 35.263H44.5377C45.488 35.2545 46.4892 35.246 46.9983 35.8569C47.3207 36.2388 47.3037 36.8412 47.2952 37.5539C47.2867 37.7745 47.2867 37.9951 47.2952 38.2157C47.3122 38.8266 47.3377 39.4376 47.3716 40.0569C47.4395 41.5503 47.5158 43.0945 47.3716 44.5539ZM46.3364 27.16C46.3874 27.1685 46.4467 27.1769 46.4977 27.1769C46.7025 27.1735 46.8988 27.0946 47.0491 26.9554C47.1993 26.8161 47.2928 26.6263 47.3118 26.4224C47.3307 26.2184 47.2737 26.0146 47.1516 25.8501C47.0296 25.6856 46.8511 25.5719 46.6504 25.5309C36.9946 23.6388 21.5098 16.8 9.64796 3.69937C9.49874 3.53627 9.29124 3.43857 9.07046 3.42746C8.84968 3.41634 8.63342 3.4927 8.46857 3.63998C8.30547 3.7892 8.20777 3.9967 8.19665 4.21748C8.18553 4.43826 8.26189 4.65452 8.40917 4.81937C20.551 18.2169 36.4261 25.2254 46.3364 27.16Z" fill="#21409C"/>
<path d="M50.9779 27.8303C51.0115 27.6889 51.0081 27.5411 50.9679 27.4014C50.9278 27.2617 50.8523 27.1347 50.7488 27.0327C48.7856 25.1225 47.1082 22.9392 45.7682 20.5503C45.7142 20.4549 45.642 20.3712 45.5556 20.3038C45.4692 20.2364 45.3704 20.1867 45.2648 20.1575C45.1592 20.1283 45.0489 20.1203 44.9401 20.1338C44.8314 20.1473 44.7264 20.1822 44.6312 20.2363C44.2324 20.4654 44.0882 20.966 44.3172 21.3733C45.5051 23.486 46.9475 25.4545 48.6021 27.2194C46.6691 27.7572 44.7127 28.2073 42.7391 28.5685C42.2894 28.6533 41.9839 29.086 42.0688 29.5357C42.1451 29.9345 42.493 30.2145 42.8833 30.2145C42.9342 30.2145 42.9851 30.206 43.036 30.1975C45.5136 29.7394 47.9912 29.1454 50.4009 28.4242C50.6894 28.3478 50.91 28.1188 50.9779 27.8303ZM5.533 51.2739C4.26876 50.4509 3.59846 49.3818 3.44573 49.4666C3.30149 49.5091 3.80209 50.8497 5.20209 51.766C6.60209 52.6994 8.02755 52.64 8.01058 52.4872C8.02755 52.3175 6.78027 52.1139 5.533 51.2739Z" fill="#21409C"/>
<path d="M50.7657 50.2811C50.9297 50.2811 51.0627 49.0731 51.0627 47.5829C51.0627 46.0928 50.9297 44.8848 50.7657 44.8848C50.6017 44.8848 50.4688 46.0928 50.4688 47.5829C50.4688 49.0731 50.6017 50.2811 50.7657 50.2811Z" fill="#21409C"/>
<path d="M52.895 45.9709C52.8696 44.4606 52.5981 43.2642 52.4369 43.2812C52.2672 43.2982 52.2672 44.503 52.3011 45.9879C52.335 47.4642 52.3859 48.6691 52.5472 48.686C52.7084 48.6945 52.9205 47.4812 52.895 45.9709ZM5.89747 49.823C4.83686 49.1782 4.37019 48.2194 4.21747 48.2788C4.14959 48.3042 4.16656 48.5927 4.37019 49.0085C4.57383 49.4242 4.9811 49.9418 5.58353 50.3151C6.18595 50.6969 6.8308 50.8412 7.28898 50.8412C7.75565 50.8412 8.01868 50.7309 8.01868 50.6545C8.00171 50.5018 6.9411 50.5018 5.89747 49.823Z" fill="#21409C"/>
</svg>
