<svg width="89" height="73" viewBox="0 0 89 73" fill="none" xmlns="http://www.w3.org/2000/svg">
<path d="M35.5529 16.2757C35.5529 16.2757 49.0774 7.87887 57.6227 14.3435C66.168 20.8081 57.2515 30.915 69.5868 30.915C81.9222 30.915 88.6102 40.9464 84.4489 54.3966C80.2876 67.8469 69.958 58.8562 64.3107 66.435C61.0761 70.7768 47.6656 72.8254 40.0118 63.5365C32.358 54.2475 44.3958 50.9784 37.4851 44.885C30.5744 38.7915 19.3532 25.4161 35.5529 16.2757Z" fill="#9E97FC" fill-opacity="0.15"/>
<path d="M65.3504 19.9917C65.3504 19.9917 65.127 28.1658 72.1869 28.3117C79.2467 28.4577 76.5709 23.4074 73.4502 23.4817C70.3296 23.5559 68.9171 20.4346 68.9914 17.4625C69.0656 14.4903 65.5002 16.2017 65.3504 19.9917Z" fill="#9E97FC" fill-opacity="0.15"/>
<path fill-rule="evenodd" clip-rule="evenodd" d="M34.3379 7.91377C36.3395 8.42954 38.2583 9.22544 40.0374 10.2779L44.5976 7.21965L50.9014 13.5235L47.8431 18.0839C48.8955 19.863 49.6915 21.7818 50.2074 23.7834L55.5909 24.8449V33.7598L50.2074 34.8213C49.6916 36.823 48.8957 38.7418 47.8431 40.5208L50.9014 45.081L44.5976 51.3848L40.0374 48.3265C38.2583 49.3789 36.3395 50.1749 34.3379 50.6907L33.2764 56.0742H24.3615L23.3 50.6907C21.2983 50.1749 19.3795 49.379 17.6005 48.3265L13.0401 51.3848L6.73637 45.081L9.79463 40.5208C8.74221 38.7417 7.94627 36.8229 7.43038 34.8213L2.04688 33.7598V24.8449L7.43038 23.7834C7.94613 21.7817 8.74208 19.8629 9.79463 18.0839L6.73637 13.5235L13.0401 7.21965L17.6005 10.2779C19.3795 9.22535 21.2983 8.42944 23.3 7.91377L24.3615 2.53027H33.2764L34.3379 7.91377Z" fill="#006FED"/>
<path fill-rule="evenodd" clip-rule="evenodd" d="M34.3377 7.9139C36.3393 8.42967 38.2581 9.22557 40.0372 10.278C40.4644 10.5313 41.0002 10.955 41.2233 11.1933L45.6213 8.24365L50.9012 13.5235L47.8429 18.0839C48.8953 19.863 49.6912 21.7817 50.2072 23.7833L55.5907 24.8448V33.7596L50.2072 34.8212C49.6913 36.8228 48.8954 38.7415 47.8429 40.5205L50.9012 45.0808L45.6213 50.3606L41.2233 47.411C41.0002 47.6494 40.4643 48.073 40.0372 48.3263C38.2581 49.3788 36.3393 50.1747 34.3377 50.6904L33.2762 56.0739H26.912L25.7742 50.3033C23.5017 49.8552 20.3978 48.6681 18.6399 47.629L17.6003 48.3263L14.5669 50.3606L9.28703 45.0808L12.3453 40.5205C11.2928 38.7416 10.4968 36.8228 9.98116 34.8212L4.59766 33.7596V24.8448L9.98116 23.7833C10.4969 21.7816 11.2928 19.8629 12.3453 18.0839L9.28703 13.5235L14.5669 8.24365L17.6003 10.278L18.6399 10.9753C20.3979 9.93615 23.5017 8.74902 25.7742 8.3009L26.912 2.53027H33.2762L34.3377 7.9139Z" fill="#057AFF"/>
<path fill-rule="evenodd" clip-rule="evenodd" d="M28.8327 45.5415C19.8605 45.5377 12.5938 38.2687 12.5938 29.3025C12.5938 20.3362 19.8642 13.0635 28.8327 13.0635C37.8012 13.0635 45.0718 20.334 45.0718 29.3025C45.0718 38.271 37.805 45.5379 28.8327 45.5415Z" fill="#DBEBFF"/>
<path fill-rule="evenodd" clip-rule="evenodd" d="M62.0473 61.3809L28.8262 61.4692V18.1279H54.53L62.0473 25.6452V61.3809Z" fill="#DBEBFF"/>
<path fill-rule="evenodd" clip-rule="evenodd" d="M54.5293 18.1279L62.0465 25.6452H54.5293V18.1279Z" fill="#ADC8F0"/>
<path d="M28.8262 18.1279H30.036V61.4663H28.8262V18.1279Z" fill="#CDE1FA"/>
<path d="M34.5117 51.1504H56.341V56.0804H34.5117V51.1504Z" fill="#57A4FF"/>
<path fill-rule="evenodd" clip-rule="evenodd" d="M42.264 45.1706C42.4569 45.2952 42.5929 45.4909 42.6426 45.7151C42.6922 45.9393 42.6514 46.1741 42.529 46.3685C42.4067 46.5628 42.2126 46.7011 41.989 46.7533C41.7653 46.8055 41.5301 46.7674 41.3343 46.6473L36.4553 43.557C36.3297 43.4779 36.2263 43.368 36.1549 43.2378C36.0836 43.1075 36.0467 42.9612 36.0477 42.8127C36.0487 42.6642 36.0876 42.5184 36.1607 42.3891C36.2338 42.2599 36.3387 42.1514 36.4655 42.074L41.3343 38.9903C41.4313 38.9277 41.5397 38.8849 41.6533 38.8645C41.7669 38.8441 41.8835 38.8464 41.9962 38.8714C42.1088 38.8963 42.2155 38.9433 42.3099 39.0098C42.4042 39.0762 42.4845 39.1607 42.546 39.2584C42.6075 39.3561 42.649 39.465 42.6681 39.5788C42.6872 39.6926 42.6835 39.8091 42.6573 39.9215C42.6311 40.0339 42.5828 40.14 42.5153 40.2336C42.4478 40.3272 42.3623 40.4065 42.264 40.4669L38.5506 42.8188L42.264 45.1706ZM34.5117 26.5254C34.2797 26.5254 34.0571 26.4332 33.893 26.2691C33.7289 26.105 33.6367 25.8825 33.6367 25.6504C33.6367 25.4183 33.7289 25.1958 33.893 25.0317C34.0571 24.8676 34.2797 24.7754 34.5117 24.7754H48.3376C48.5697 24.7754 48.7922 24.8676 48.9563 25.0317C49.1204 25.1958 49.2126 25.4183 49.2126 25.6504C49.2126 25.8825 49.1204 26.105 48.9563 26.2691C48.7922 26.4332 48.5697 26.5254 48.3376 26.5254H34.5117ZM34.5117 30.9438C34.2797 30.9438 34.0571 30.8516 33.893 30.6875C33.7289 30.5234 33.6367 30.3008 33.6367 30.0688C33.6367 29.8367 33.7289 29.6141 33.893 29.45C34.0571 29.286 34.2797 29.1938 34.5117 29.1938H56.341C56.573 29.1938 56.7956 29.286 56.9597 29.45C57.1238 29.6141 57.216 29.8367 57.216 30.0688C57.216 30.3008 57.1238 30.5234 56.9597 30.6875C56.7956 30.8516 56.573 30.9438 56.341 30.9438H34.5117ZM34.5117 35.3624C34.2797 35.3624 34.0571 35.2702 33.893 35.1061C33.7289 34.942 33.6367 34.7195 33.6367 34.4874C33.6367 34.2553 33.7289 34.0328 33.893 33.8687C34.0571 33.7046 34.2797 33.6124 34.5117 33.6124H48.3376C48.5697 33.6124 48.7922 33.7046 48.9563 33.8687C49.1204 34.0328 49.2126 34.2553 49.2126 34.4874C49.2126 34.7195 49.1204 34.942 48.9563 35.1061C48.7922 35.2702 48.5697 35.3624 48.3376 35.3624H34.5117ZM49.5183 46.6473C49.4214 46.7099 49.313 46.7526 49.1994 46.773C49.0858 46.7934 48.9692 46.7911 48.8565 46.7662C48.7438 46.7412 48.6372 46.6942 48.5428 46.6278C48.4485 46.5613 48.3682 46.4768 48.3067 46.3791C48.2452 46.2815 48.2037 46.1725 48.1846 46.0587C48.1655 45.9449 48.1692 45.8284 48.1954 45.716C48.2216 45.6036 48.2699 45.4975 48.3374 45.4039C48.4049 45.3103 48.4903 45.231 48.5887 45.1706L52.3021 42.8188L48.5887 40.4669C48.3958 40.3423 48.2597 40.1467 48.2101 39.9224C48.1605 39.6982 48.2013 39.4634 48.3236 39.2691C48.446 39.0747 48.6401 38.9364 48.8637 38.8842C49.0874 38.832 49.3226 38.8701 49.5183 38.9903L54.3872 42.074C54.514 42.1514 54.6189 42.2599 54.692 42.3891C54.7651 42.5184 54.804 42.6642 54.805 42.8127C54.806 42.9612 54.7691 43.1075 54.6978 43.2378C54.6264 43.368 54.523 43.4779 54.3973 43.557L49.5183 46.6473ZM45.6387 38.6498C45.6683 38.5389 45.7195 38.435 45.7893 38.3439C45.8591 38.2528 45.9461 38.1763 46.0455 38.1189C46.1448 38.0614 46.2545 38.0241 46.3682 38.0091C46.482 37.994 46.5976 38.0015 46.7085 38.0311C46.8193 38.0608 46.9233 38.1119 47.0144 38.1817C47.1055 38.2515 47.1819 38.3385 47.2394 38.4379C47.2968 38.5372 47.3341 38.6469 47.3492 38.7607C47.3642 38.8744 47.3567 38.99 47.3271 39.1009L45.2137 46.9879C45.1841 47.0988 45.1329 47.2027 45.0631 47.2938C44.9934 47.3849 44.9063 47.4613 44.807 47.5188C44.7076 47.5762 44.598 47.6135 44.4842 47.6286C44.3704 47.6436 44.2548 47.6361 44.144 47.6065C44.0331 47.5769 43.9292 47.5257 43.8381 47.4559C43.747 47.3861 43.6706 47.2991 43.6131 47.1998C43.5557 47.1004 43.5183 46.9907 43.5033 46.877C43.4882 46.7632 43.4957 46.6476 43.5253 46.5368L45.6387 38.6498Z" fill="#8AABDB"/>
<path d="M34.5117 51.1504H35.2522V56.0804H34.5117V51.1504Z" fill="#3B96FF"/>
</svg>
