 <svg
                      width="48"
                      height="49"
                      viewBox="0 0 48 49"
                      fill="none"
                      xmlns="http://www.w3.org/2000/svg"
                    >
                      <rect
                        x="0.5"
                        y="1.16235"
                        width="47"
                        height="47"
                        rx="23.5"
                        stroke="#21409C"
                      />
                      <path
                        d="M28.8344 16.9521H31.1828V12.6646H26.9151C26.5591 12.6498 22.2193 12.5668 21.0945 16.8563C21.0782 16.9012 20.7187 17.9213 20.7187 20.3043L16.8164 20.3162V24.813L20.7237 24.8016V36.6626H26.6919V24.812H30.6421V20.3033H26.6919V18.8847C26.6919 18.0028 27.0637 16.9521 28.8344 16.9521ZM29.6546 21.2904V23.8239H25.7044V35.6746H21.7112V23.8111L17.804 23.8225V21.3007L21.7216 21.2894L21.7112 20.7872C21.6599 18.263 22.0198 17.2014 22.0361 17.1506C23.0069 13.4561 26.7137 13.6418 26.8727 13.6517L30.1953 13.6526V15.965H28.8344C26.527 15.965 25.7049 17.473 25.7049 18.8842V21.2904H29.6546Z"
                        fill="#21409C"
                      />
                    </svg>