 <svg
                      width="48"
                      height="49"
                      viewBox="0 0 48 49"
                      fill="none"
                      xmlns="http://www.w3.org/2000/svg"
                    >
                      <rect
                        x="0.5"
                        y="1.16235"
                        width="47"
                        height="47"
                        rx="23.5"
                        stroke="#21409C"
                      />
                      <path
                        d="M29.5034 12.6624H18.4966C14.9143 12.6624 12 15.5767 12 19.1589V30.1659C12 33.748 14.9143 36.6623 18.4966 36.6623H29.5036C33.0856 36.6623 36 33.748 36 30.1659V19.1589C36 15.5767 33.0856 12.6624 29.5034 12.6624ZM34.593 30.1659C34.593 32.9722 32.3098 35.2553 29.5034 35.2553H18.4966C15.6901 35.2553 13.407 32.9722 13.407 30.1659V19.1589C13.407 16.3525 15.6901 14.0694 18.4966 14.0694H29.5036C32.3098 14.0694 34.593 16.3525 34.593 19.1589V30.1659Z"
                        fill="#21409C"
                      />
                      <path
                        d="M23.9998 18.1C20.3813 18.1 17.4375 21.0437 17.4375 24.6623C17.4375 28.2809 20.3813 31.2246 23.9998 31.2246C27.6184 31.2246 30.5621 28.2809 30.5621 24.6623C30.5621 21.0437 27.6184 18.1 23.9998 18.1ZM23.9998 29.8176C21.1573 29.8176 18.8445 27.505 18.8445 24.6623C18.8445 21.8198 21.1573 19.507 23.9998 19.507C26.8425 19.507 29.1551 21.8198 29.1551 24.6623C29.1551 27.505 26.8425 29.8176 23.9998 29.8176ZM30.7191 15.7694C29.6497 15.7694 28.78 16.6394 28.78 17.7085C28.78 18.7778 29.6497 19.6478 30.7191 19.6478C31.7884 19.6478 32.6583 18.7778 32.6583 17.7085C32.6583 16.6392 31.7884 15.7694 30.7191 15.7694ZM30.7191 18.2406C30.4257 18.2406 30.1869 18.0018 30.1869 17.7085C30.1869 17.415 30.4257 17.1764 30.7191 17.1764C31.0125 17.1764 31.2513 17.415 31.2513 17.7085C31.2513 18.0018 31.0125 18.2406 30.7191 18.2406Z"
                        fill="#21409C"
                      />
                    </svg>