   <svg
                      width="48"
                      height="49"
                      viewBox="0 0 48 49"
                      fill="none"
                      xmlns="http://www.w3.org/2000/svg"
                    >
                      <rect
                        x="0.5"
                        y="1.16241"
                        width="47"
                        height="47"
                        rx="23.5"
                        stroke="#21409C"
                      />
                      <path
                        d="M15.24 12.8624C14.36 12.8624 13.56 13.1824 12.96 13.7824C12.32 14.4224 12 15.2224 12 16.0624C12 16.9424 12.36 17.7424 12.96 18.3424C13.56 18.9424 14.4 19.3024 15.2 19.2624H15.28C16.08 19.2624 16.84 18.9424 17.44 18.3424C18.04 17.7424 18.4 16.9424 18.4 16.0624C18.44 15.2224 18.08 14.4224 17.48 13.8224C16.88 13.1824 16.08 12.8624 15.24 12.8624ZM16.88 17.7824C16.44 18.2224 15.84 18.5024 15.2 18.4624C14.6 18.4624 13.96 18.2224 13.52 17.7824C13.04 17.3424 12.8 16.7024 12.8 16.0624C12.8 15.4224 13.04 14.8224 13.52 14.3424C13.96 13.9024 14.56 13.6624 15.24 13.6624C15.84 13.6624 16.44 13.9024 16.88 14.3424C17.36 14.8224 17.6 15.4224 17.6 16.0624C17.6 16.7024 17.36 17.3424 16.88 17.7824ZM16.8 20.0624H13.56C12.92 20.0624 12.4 20.5824 12.4 21.2624V35.2624C12.4 35.9024 12.96 36.4624 13.6 36.4624H16.8C17.44 36.4624 18 35.9024 18 35.3024V21.2624C18 20.6224 17.44 20.0624 16.8 20.0624ZM17.2 35.3024C17.2 35.5024 17 35.6624 16.8 35.6624H13.6C13.4 35.6624 13.2 35.4624 13.2 35.2624V21.2624C13.2 21.0624 13.36 20.8624 13.56 20.8624H16.8C17 20.8624 17.2 21.0624 17.2 21.2624V35.3024ZM30.4 19.6624H29.56C28 19.6624 26.52 20.3424 25.56 21.4224V20.8624C25.56 20.4624 25.16 20.0624 24.76 20.0624H20.76C20.4 20.0624 19.96 20.3824 19.96 20.8223V35.7423C19.96 36.1824 20.4 36.4623 20.76 36.4623H25.16C25.52 36.4623 25.96 36.1824 25.96 35.7423V27.1023C25.96 25.7823 26.92 24.7423 28.16 24.7423C28.8 24.7423 29.4 24.9823 29.84 25.4223C30.24 25.7823 30.4 26.3423 30.4 27.0623V35.6624C30.4 36.0623 30.8 36.4624 31.2 36.4624H35.2C35.6 36.4624 36 36.0624 36 35.6624V25.3424C36 22.1424 33.56 19.6624 30.4 19.6624ZM35.2 35.6224L35.16 35.6624H31.24L31.2 27.0624C31.2 26.1024 30.96 25.3824 30.44 24.8624C29.84 24.2624 29.04 23.9424 28.2 23.9424C26.52 23.9824 25.2 25.3424 25.2 27.1024V35.6624H20.8V20.8624H24.76L24.8 20.9024V23.4224L25.88 22.3424L25.92 22.3024C26.72 21.1824 28.1199 20.4624 29.6 20.4624H30.44C33.12 20.4624 35.2 22.6224 35.2 25.3424V35.6224Z"
                        fill="#21409C"
                      />
                    </svg>