<svg width="25" height="25" viewBox="0 0 25 25" fill="none" xmlns="http://www.w3.org/2000/svg">
<g clip-path="url(#clip0_3383_7268)">
<path d="M8.5284 4.86123L8.52874 5.78986C8.52879 5.90183 8.57328 6.0092 8.65246 6.08837C8.73163 6.16755 8.839 6.21205 8.95097 6.21209L17.657 6.21192L4.10994 19.759C4.0308 19.8382 3.98636 19.9457 3.9864 20.0576C3.98643 20.1696 4.03093 20.277 4.11011 20.3562L4.76687 21.013C4.93166 21.1778 5.19911 21.1778 5.36407 21.0128L18.9112 7.46571L18.9108 16.1723C18.9109 16.2843 18.9554 16.3916 19.0345 16.4708C19.1137 16.55 19.2211 16.5945 19.333 16.5945L20.2617 16.5945C20.3736 16.5945 20.481 16.55 20.5602 16.4708C20.6394 16.3916 20.6839 16.2843 20.6839 16.1723L20.6841 4.86123C20.684 4.74927 20.6395 4.6419 20.5604 4.56273C20.4812 4.48355 20.3738 4.43905 20.2618 4.43901L8.95063 4.43901C8.83866 4.43905 8.73129 4.48355 8.65212 4.56273C8.57295 4.6419 8.52845 4.74927 8.5284 4.86123Z" fill="white"/>
</g>
<defs>
<clipPath id="clip0_3383_7268">
<rect width="24" height="24" fill="white" transform="translate(0.5 0.623047)"/>
</clipPath>
</defs>
</svg>
