<svg width="250" height="250" viewBox="0 0 250 250" fill="none" xmlns="http://www.w3.org/2000/svg">
<path d="M155.134 45.7578C70.001 49.2812 70.0244 170.594 155.134 174.105C156.17 174.105 157.163 173.694 157.896 172.961C158.628 172.229 159.04 171.235 159.04 170.199C159.04 169.163 158.628 168.17 157.896 167.437C157.163 166.705 156.17 166.293 155.134 166.293C140.192 166.275 125.867 160.332 115.301 149.766C104.735 139.201 98.792 124.876 98.7744 109.934C101.868 35.1602 208.411 35.1797 211.497 109.934C211.497 110.97 211.909 111.963 212.641 112.696C213.374 113.428 214.367 113.84 215.403 113.84C216.439 113.84 217.433 113.428 218.165 112.696C218.898 111.963 219.31 110.97 219.31 109.934C219.291 92.9178 212.523 76.6043 200.491 64.5723C188.459 52.5403 172.146 45.7725 155.13 45.7539L155.134 45.7578Z" fill="white" fill-opacity="0.04"/>
<path d="M155.133 196.43C40.375 191.672 40.4297 28.168 155.133 23.4375C156.169 23.4375 157.162 23.0259 157.895 22.2934C158.628 21.5608 159.039 20.5673 159.039 19.5312C159.039 18.4952 158.628 17.5017 157.895 16.7691C157.162 16.0366 156.169 15.625 155.133 15.625C130.121 15.625 106.133 25.5611 88.4466 43.2473C70.7603 60.9336 60.8242 84.9214 60.8242 109.934C60.8242 134.946 70.7603 158.934 88.4466 176.62C106.133 194.306 130.121 204.242 155.133 204.242C156.169 204.242 157.162 203.831 157.895 203.098C158.628 202.366 159.039 201.372 159.039 200.336C159.039 199.3 158.628 198.306 157.895 197.574C157.162 196.841 156.169 196.43 155.133 196.43Z" fill="white" fill-opacity="0.04"/>
<path d="M155.133 226.562C124.211 226.528 94.5662 214.23 72.7014 192.365C50.8366 170.5 38.538 140.855 38.5039 109.934C38.5039 108.898 38.0924 107.904 37.3598 107.171C36.6272 106.439 35.6337 106.027 34.5977 106.027C33.5617 106.027 32.5681 106.439 31.8355 107.171C31.103 107.904 30.6914 108.898 30.6914 109.934C30.7286 142.926 43.8513 174.557 67.1806 197.886C90.5098 221.215 122.14 234.338 155.133 234.375C156.169 234.375 157.162 233.963 157.895 233.231C158.628 232.498 159.039 231.505 159.039 230.469C159.039 229.433 158.628 228.439 157.895 227.707C157.162 226.974 156.169 226.562 155.133 226.562ZM155.133 75.8945C146.108 75.9049 137.456 79.4944 131.075 85.8758C124.694 92.2571 121.104 100.909 121.094 109.934C122.879 155.062 187.398 155.047 189.176 109.934C189.165 100.908 185.575 92.2558 179.193 85.8744C172.811 79.4929 164.158 75.9038 155.133 75.8945ZM155.133 136.16C148.18 136.152 141.514 133.386 136.597 128.469C131.68 123.553 128.915 116.887 128.906 109.934C130.137 75.2187 180.137 75.2305 181.363 109.934C181.354 116.887 178.587 123.553 173.67 128.47C168.753 133.386 162.086 136.152 155.133 136.16Z" fill="white" fill-opacity="0.04"/>
</svg>
