<svg width="24" height="24" viewBox="0 0 24 24" fill="none" xmlns="http://www.w3.org/2000/svg">
<g clip-path="url(#clip0_3376_2934)">
<path fill-rule="evenodd" clip-rule="evenodd" d="M11.9907 19.7958C7.68838 19.7958 4.1875 16.2949 4.1875 11.9926C4.1875 7.69033 7.68838 4.18945 11.9907 4.18945C16.2929 4.18945 19.7938 7.69033 19.7938 11.9926C19.7938 16.2949 16.2929 19.7958 11.9907 19.7958Z" fill="#F47C03"/>
<path fill-rule="evenodd" clip-rule="evenodd" d="M11.993 3.00879C11.7961 3.00879 11.6274 2.85413 11.6274 2.64323V0.365554C11.6274 0.168717 11.7961 0 11.993 0C12.2039 0 12.3585 0.168717 12.3585 0.365554V2.64323C12.3585 2.85413 12.2039 3.00879 11.993 3.00879ZM16.6749 4.26011C16.6046 4.26011 16.5483 4.24605 16.4921 4.21793C16.3093 4.11951 16.2531 3.89455 16.3515 3.72583L17.5044 1.74341C17.6028 1.56063 17.8278 1.50439 17.9965 1.60281C18.1652 1.70123 18.2355 1.92619 18.123 2.10896L16.9842 4.07733C16.9139 4.20387 16.8014 4.26011 16.6749 4.26011ZM20.0914 7.69069C19.9649 7.69069 19.8383 7.62039 19.7821 7.50791C19.6837 7.32513 19.7399 7.11424 19.9086 7.00176L21.891 5.86292C22.0598 5.7645 22.2847 5.82074 22.3831 6.00351C22.4815 6.17223 22.4253 6.39719 22.2566 6.49561L20.2742 7.63445C20.2179 7.67663 20.1617 7.69069 20.0914 7.69069ZM23.6344 12.3585H21.3427C21.1459 12.3585 20.9772 12.2039 20.9772 11.993C20.9772 11.7961 21.1459 11.6274 21.3427 11.6274H23.6344C23.8313 11.6274 24 11.7961 24 11.993C24 12.2039 23.8313 12.3585 23.6344 12.3585ZM22.0738 18.1793C22.0035 18.1793 21.9473 18.1652 21.891 18.123L19.9086 16.9842C19.7399 16.8858 19.6837 16.6608 19.7821 16.4921C19.8805 16.3093 20.1054 16.2531 20.2742 16.3515L22.2566 17.5044C22.4253 17.6028 22.4815 17.8278 22.3831 17.9965C22.3269 18.109 22.2004 18.1793 22.0738 18.1793ZM17.8137 22.4394C17.6872 22.4394 17.5606 22.3691 17.5044 22.2566L16.3515 20.2742C16.2531 20.1054 16.3093 19.8805 16.4921 19.7821C16.6608 19.6837 16.8858 19.7399 16.9842 19.9086L18.123 21.891C18.2355 22.0598 18.1652 22.2847 17.9965 22.3831C17.9402 22.4253 17.8699 22.4394 17.8137 22.4394ZM11.993 24C11.7961 24 11.6274 23.8313 11.6274 23.6344V21.3427C11.6274 21.1459 11.7961 20.9772 11.993 20.9772C12.2039 20.9772 12.3585 21.1459 12.3585 21.3427V23.6344C12.3585 23.8313 12.2039 24 11.993 24ZM6.18629 22.4394C6.11599 22.4394 6.05975 22.4253 6.00351 22.3831C5.82074 22.2847 5.7645 22.0598 5.86292 21.891L7.00176 19.9086C7.11424 19.7399 7.32513 19.6696 7.50791 19.7821C7.67663 19.8805 7.73286 20.1054 7.63445 20.2742L6.49561 22.2566C6.42531 22.3691 6.31283 22.4394 6.18629 22.4394ZM1.92619 18.1793C1.79965 18.1793 1.67311 18.109 1.60281 17.9965C1.50439 17.8278 1.56063 17.6028 1.74341 17.5044L3.72583 16.3515C3.89455 16.2531 4.11951 16.3093 4.21793 16.4921C4.31634 16.6608 4.26011 16.8858 4.09139 16.9842L2.10896 18.123C2.05272 18.1652 1.98243 18.1793 1.92619 18.1793ZM2.64323 12.3585H0.365554C0.168717 12.3585 0 12.2039 0 11.993C0 11.7961 0.168717 11.6274 0.365554 11.6274H2.64323C2.85413 11.6274 3.00879 11.7961 3.00879 11.993C3.00879 12.2039 2.85413 12.3585 2.64323 12.3585ZM3.90861 7.69069C3.83831 7.69069 3.78207 7.67663 3.72583 7.63445L1.74341 6.49561C1.56063 6.39719 1.50439 6.17223 1.60281 6.00351C1.70123 5.82074 1.92619 5.7645 2.10896 5.86292L4.09139 7.00176C4.26011 7.11424 4.31634 7.32513 4.21793 7.50791C4.14763 7.62039 4.02109 7.69069 3.90861 7.69069ZM7.32513 4.26011C7.19859 4.26011 7.07206 4.20387 7.00176 4.09139L5.86292 2.10896C5.7645 1.92619 5.82074 1.70123 6.00351 1.60281C6.17223 1.50439 6.39719 1.56063 6.49561 1.74341L7.63445 3.72583C7.73286 3.89455 7.67663 4.11951 7.50791 4.21793C7.45167 4.24605 7.38137 4.26011 7.32513 4.26011Z" fill="#F47C03"/>
<path fill-rule="evenodd" clip-rule="evenodd" d="M14.6379 16.4217C14.5958 16.4217 14.5536 16.4217 14.5114 16.3936L11.9947 15.4235L9.49206 16.3936C9.37958 16.4498 9.23899 16.4217 9.14057 16.3514C9.04215 16.2811 8.98591 16.1686 8.99997 16.0421L9.15463 13.3567L7.43934 11.2758C7.36904 11.1774 7.34092 11.0509 7.3831 10.9243C7.42528 10.8119 7.50964 10.7134 7.63617 10.6853L10.2372 10.0105L11.6994 7.73278C11.7557 7.63436 11.8822 7.57812 11.9947 7.57812C12.1212 7.57812 12.2337 7.63436 12.304 7.73278L13.7662 10.0105L16.3673 10.6853C16.4798 10.7134 16.5782 10.8119 16.6204 10.9243C16.6625 11.0509 16.6344 11.1774 16.5501 11.2758L14.8488 13.3567L15.0035 16.0421C15.0035 16.1686 14.9472 16.2811 14.8488 16.3514C14.7926 16.4076 14.7082 16.4217 14.6379 16.4217Z" fill="white"/>
</g>
<defs>
<clipPath id="clip0_3376_2934">
<rect width="24" height="24" fill="white"/>
</clipPath>
</defs>
</svg>
