<svg width="32" height="32" viewBox="0 0 32 32" fill="none" xmlns="http://www.w3.org/2000/svg">
<path fill-rule="evenodd" clip-rule="evenodd" d="M13.8722 29.8725C6.22003 29.8725 0 23.6517 0 16.0003C0 8.34894 6.22003 2.12817 13.8722 2.12817C17.3808 2.12817 20.6739 3.4023 23.2391 5.75419C22.3841 6.26114 21.5598 6.81822 20.7706 7.42251C18.8177 5.84535 16.3823 4.98691 13.8722 4.99089C7.80788 4.99089 2.86272 9.93606 2.86272 16.0003C2.86272 22.0646 7.80788 27.009 13.8722 27.009C22.3097 27.009 27.3191 17.9898 23.6901 10.9777C24.404 10.3136 25.1433 9.67727 25.9062 9.07016C27.1205 11.1666 27.7443 13.5444 27.7443 15.9996C27.7443 23.6517 21.5243 29.8725 13.8722 29.8725Z" fill="#21409C"/>
<path fill-rule="evenodd" clip-rule="evenodd" d="M14.2366 23.1313C14.1633 23.1302 14.092 23.1073 14.0317 23.0657C13.9714 23.024 13.9248 22.9654 13.8978 22.8973C13.8719 22.8456 11.6337 17.067 8.17233 14.8805C7.49541 14.4642 6.97498 14.022 7.18315 13.0328C7.39132 12.0702 8.04167 11.5232 9.21319 11.2633C11.2949 10.8204 13.5338 14.0478 14.3658 15.3751C17.2817 11.1334 23.1112 4.47047 31.596 3.68946C32.0049 3.64148 32.157 4.24827 31.7783 4.41806C31.6484 4.46973 19.5199 10.0136 14.6005 22.9231C14.5638 22.987 14.5107 23.0399 14.4467 23.0765C14.3828 23.113 14.3103 23.132 14.2366 23.1313Z" fill="#21409C"/>
</svg>
