<svg width="57" height="57" viewBox="0 0 57 57" fill="none" xmlns="http://www.w3.org/2000/svg">
<g clip-path="url(#clip0_3383_7102)">
<path d="M56.3554 33.3713C56.0994 33.1154 55.7523 32.9717 55.3904 32.9717C55.0285 32.9717 54.6814 33.1154 54.4255 33.3713L42.282 45.5148C42.2307 45.5661 42.1698 45.6068 42.1027 45.6346C42.0357 45.6624 41.9638 45.6767 41.8912 45.6767C41.8187 45.6767 41.7468 45.6624 41.6798 45.6346C41.6127 45.6068 41.5518 45.5661 41.5005 45.5148L37.5643 41.5786C37.3077 41.326 36.9616 41.1851 36.6015 41.1865C36.2415 41.188 35.8965 41.3316 35.6419 41.5862C35.3873 41.8409 35.2436 42.1858 35.2422 42.5459C35.2408 42.906 35.3817 43.252 35.6343 43.5086L41.5005 49.3749C41.5518 49.4262 41.6127 49.4669 41.6798 49.4947C41.7468 49.5224 41.8187 49.5367 41.8912 49.5367C41.9638 49.5367 42.0357 49.5224 42.1027 49.4947C42.1698 49.4669 42.2307 49.4262 42.282 49.3749L56.3554 35.3014C56.4821 35.1746 56.5827 35.0242 56.6512 34.8586C56.7198 34.693 56.7551 34.5156 56.7551 34.3363C56.7551 34.1571 56.7198 33.9797 56.6512 33.8141C56.5827 33.6485 56.4821 33.4981 56.3554 33.3713Z" fill="#21409C"/>
<path d="M54.0392 42.2897C53.6772 42.2897 53.3301 42.4335 53.0742 42.6894C52.8183 42.9454 52.6745 43.2925 52.6745 43.6544C52.6745 45.6589 52.0801 47.6183 50.9665 49.2849C49.8529 50.9515 48.2701 52.2505 46.4183 53.0176C44.5664 53.7846 42.5287 53.9853 40.5628 53.5943C38.5969 53.2032 36.791 52.238 35.3737 50.8207C33.9564 49.4033 32.9911 47.5975 32.6001 45.6316C32.209 43.6657 32.4097 41.628 33.1768 39.7761C33.9439 37.9243 35.2428 36.3415 36.9095 35.2279C38.5761 34.1143 40.5355 33.5199 42.5399 33.5199C44.1173 33.5149 45.6737 33.8822 47.0825 34.5917C47.4059 34.7542 47.7807 34.7815 48.1242 34.6677C48.4678 34.5538 48.7521 34.3082 48.9145 33.9847C49.077 33.6613 49.1043 33.2866 48.9904 32.943C48.8766 32.5994 48.6309 32.3151 48.3075 32.1527C46.5189 31.2512 44.5428 30.7843 42.5398 30.7901C39.9956 30.7901 37.5085 31.5445 35.393 32.958C33.2775 34.3716 31.6287 36.3806 30.655 38.7312C29.6814 41.0818 29.4266 43.6683 29.9229 46.1636C30.4193 48.659 31.6444 50.9512 33.4435 52.7502C35.2425 54.5493 37.5346 55.7745 40.03 56.2709C42.5253 56.7673 45.1118 56.5126 47.4624 55.539C49.813 54.5654 51.8222 52.9167 53.2357 50.8012C54.6493 48.6858 55.4038 46.1987 55.4039 43.6544C55.4039 43.2925 55.2601 42.9454 55.0042 42.6894C54.7482 42.4335 54.4011 42.2897 54.0392 42.2897Z" fill="#21409C"/>
<path d="M45.3715 22.5967H43.0747C42.6955 22.5967 42.332 22.7473 42.0639 23.0153C41.7958 23.2834 41.6452 23.647 41.6452 24.0261C41.6452 24.4052 41.7958 24.7688 42.0639 25.0368C42.332 25.3049 42.6955 25.4555 43.0747 25.4555H46.8078C47.202 25.4406 47.5755 25.2754 47.8516 24.9938C48.1277 24.7121 48.2855 24.3355 48.2925 23.9411C48.2215 17.7047 45.6944 11.7479 41.2593 7.36293C36.8243 2.97799 30.8391 0.518669 24.6023 0.518555C11.5385 0.518555 0.910156 11.1467 0.910156 24.2106C0.910156 37.2745 11.5385 47.9025 24.6023 47.9025C24.9087 47.9024 25.207 47.8038 25.4532 47.6213C25.6993 47.4388 25.8803 47.182 25.9695 46.8889C26.0123 46.7667 26.0332 46.6379 26.0314 46.5084V42.4986C26.0281 42.1217 25.876 41.7613 25.6083 41.4959C25.3406 41.2305 24.9789 41.0816 24.6019 41.0816C24.225 41.0816 23.8632 41.2305 23.5955 41.4959C23.3278 41.7613 23.1757 42.1217 23.1725 42.4986V44.9937C12.7607 44.2846 4.42558 35.8919 3.80706 25.4561H6.12953C6.50864 25.4561 6.87222 25.3055 7.14028 25.0374C7.40835 24.7693 7.55895 24.4057 7.55895 24.0266C7.55895 23.6475 7.40835 23.2839 7.14028 23.0159C6.87222 22.7478 6.50864 22.5972 6.12953 22.5972H3.83112C4.62136 12.3318 12.8835 4.12793 23.1728 3.42793V5.55341C23.1761 5.93037 23.3281 6.29076 23.5959 6.55615C23.8636 6.82154 24.2253 6.97044 24.6023 6.97044C24.9792 6.97044 25.3409 6.82154 25.6087 6.55615C25.8764 6.29076 26.0284 5.93037 26.0317 5.55341V3.42793C36.2805 4.13263 44.5777 12.3521 45.3715 22.5967Z" fill="#21409C"/>
<path d="M24.6012 14.5117C24.2221 14.5117 23.8585 14.6623 23.5904 14.9304C23.3223 15.1985 23.1717 15.5621 23.1717 15.9413V23.3847L13.5054 28.9562C13.3414 29.0493 13.1975 29.1738 13.0818 29.3227C12.9661 29.4716 12.8811 29.642 12.8315 29.8239C12.782 30.0058 12.7689 30.1957 12.793 30.3827C12.8172 30.5697 12.8781 30.7501 12.9722 30.9135C13.0664 31.0768 13.1919 31.22 13.3416 31.3346C13.4914 31.4492 13.6623 31.5331 13.8445 31.5814C14.0268 31.6298 14.2168 31.6415 14.4036 31.6161C14.5905 31.5907 14.7704 31.5285 14.9331 31.4332L25.315 25.4498C25.3412 25.4347 25.3642 25.42 25.3856 25.406C25.5839 25.2762 25.7467 25.099 25.8593 24.8905C25.972 24.682 26.031 24.4487 26.031 24.2118V15.9413C26.031 15.7535 25.994 15.5676 25.9221 15.3941C25.8503 15.2207 25.745 15.0631 25.6122 14.9303C25.4794 14.7976 25.3218 14.6923 25.1483 14.6205C24.9749 14.5486 24.789 14.5117 24.6012 14.5117Z" fill="#21409C"/>
</g>
<defs>
<clipPath id="clip0_3383_7102">
<rect width="56" height="56" fill="white" transform="translate(0.832031 0.518555)"/>
</clipPath>
</defs>
</svg>
