<svg width="57" height="57" viewBox="0 0 57 57" fill="none" xmlns="http://www.w3.org/2000/svg">
<g clip-path="url(#clip0_3383_7115)">
<path d="M25.5616 31.0803C25.4582 31.0577 25.3515 31.054 25.2468 31.0695C24.195 30.9471 23.4016 30.0572 23.3998 28.9987C23.3998 28.7551 23.303 28.5215 23.1307 28.3492C22.9585 28.1769 22.7248 28.0802 22.4812 28.0802C22.2376 28.0802 22.004 28.1769 21.8317 28.3492C21.6594 28.5215 21.5627 28.7551 21.5627 28.9987C21.5654 30.7663 22.7476 32.3146 24.452 32.7824V33.701C24.452 33.9446 24.5488 34.1782 24.721 34.3505C24.8933 34.5227 25.1269 34.6195 25.3706 34.6195C25.6142 34.6195 25.8478 34.5227 26.0201 34.3505C26.1923 34.1782 26.2891 33.9446 26.2891 33.701V32.838C28.2563 32.4262 29.5933 30.594 29.3866 28.595C29.1794 26.596 27.4952 25.0769 25.4854 25.0765C24.3336 25.0765 23.3998 24.1426 23.3998 22.9909C23.3998 21.8391 24.3336 20.9053 25.4854 20.9053C26.6371 20.9053 27.571 21.839 27.571 22.9909C27.571 23.2345 27.6677 23.4681 27.84 23.6404C28.0123 23.8127 28.2459 23.9094 28.4895 23.9094C28.7332 23.9094 28.9668 23.8127 29.1391 23.6404C29.3113 23.4681 29.4081 23.2345 29.4081 22.9909C29.4055 21.1349 28.1052 19.5341 26.2891 19.1511V18.315C26.2891 18.0714 26.1923 17.8378 26.0201 17.6655C25.8478 17.4933 25.6142 17.3965 25.3706 17.3965C25.1269 17.3965 24.8933 17.4933 24.721 17.6655C24.5488 17.8378 24.452 18.0714 24.452 18.315V19.2072C22.5565 19.7247 21.3366 21.565 21.5976 23.5125C21.8586 25.46 23.5205 26.9135 25.4854 26.9131C26.622 26.9131 27.549 27.8232 27.5696 28.9592C27.5907 30.0954 26.6973 31.039 25.5616 31.0803Z" fill="#21409C"/>
<path d="M12.168 26.0662C12.168 33.4227 18.1315 39.3862 25.488 39.3862C32.8446 39.3862 38.8081 33.4227 38.8081 26.0662C38.8081 18.7096 32.8446 12.7461 25.488 12.7461C18.1351 12.7541 12.1766 18.7132 12.168 26.0662ZM25.488 14.5832C31.83 14.5832 36.971 19.7242 36.971 26.0662C36.971 32.4081 31.83 37.5491 25.488 37.5491C19.1461 37.5491 14.0051 32.4081 14.0051 26.0662C14.0123 19.7273 19.1492 14.5905 25.488 14.5832Z" fill="#21409C"/>
<path d="M43.3368 41.6506L36.1412 45.0504C35.6531 44.1425 34.9341 43.3794 34.0569 42.8381C33.1797 42.2968 32.1752 41.9964 31.1448 41.9673L24.5022 41.7847C23.4502 41.7546 22.4184 41.4882 21.4833 41.0052L20.8074 40.655C19.1023 39.7662 17.2074 39.3031 15.2845 39.3051C13.3616 39.3072 11.4678 39.7743 9.76447 40.6666L9.80661 39.1353C9.80996 39.0147 9.78952 38.8947 9.74645 38.782C9.70339 38.6693 9.63854 38.5662 9.55562 38.4785C9.4727 38.3909 9.37332 38.3204 9.26317 38.2712C9.15302 38.222 9.03426 38.195 8.91365 38.1916L1.62969 37.9913C1.50911 37.9879 1.38905 38.0084 1.27637 38.0515C1.1637 38.0946 1.06062 38.1594 0.973023 38.2424C0.885427 38.3253 0.815031 38.4247 0.765858 38.5348C0.716685 38.645 0.689699 38.7638 0.686442 38.8843L0.246451 54.8684C0.243087 54.989 0.263522 55.1091 0.306589 55.2218C0.349655 55.3345 0.414508 55.4376 0.497444 55.5253C0.580379 55.6129 0.679771 55.6834 0.789941 55.7326C0.900111 55.7818 1.0189 55.8089 1.13952 55.8122L8.42337 56.0126H8.44852C8.68786 56.0127 8.91778 55.9194 9.08935 55.7525C9.26091 55.5856 9.36056 55.3584 9.36708 55.1191L9.38809 54.3544L11.2803 53.3412C12.0228 52.9416 12.8916 52.8465 13.7029 53.0761L25.0028 56.2476C25.0226 56.2534 25.0422 56.2579 25.0625 56.2625C25.8793 56.4333 26.7115 56.5191 27.5459 56.5186C29.3131 56.5196 31.0596 56.1385 32.6657 55.4014C32.7052 55.3833 32.7433 55.3623 32.7796 55.3384L49.1635 44.741C49.3601 44.6137 49.5008 44.4163 49.5567 44.1888C49.6126 43.9614 49.5796 43.7212 49.4644 43.5173C48.2481 41.3591 45.5501 40.537 43.3368 41.6506ZM2.10826 54.001L2.4975 39.853L7.9448 40.0028L7.55556 54.1513L2.10826 54.001ZM31.8382 53.7606C29.8427 54.6611 27.6142 54.9098 25.4692 54.4715L14.1999 51.3081C12.9318 50.9497 11.5741 51.0981 10.4134 51.7221L9.44642 52.2401L9.70522 42.8334C11.2096 41.8327 12.955 41.2541 14.7592 41.1579C16.5635 41.0617 18.3605 41.4513 19.9628 42.2862L20.6388 42.6364C21.82 43.2463 23.1231 43.583 24.4519 43.6215L31.095 43.804C32.9608 43.8578 34.5454 45.1863 34.924 47.0144L25.0292 46.7413C24.522 46.7275 24.0999 47.1275 24.0855 47.6343C24.0789 47.8779 24.1692 48.1141 24.3367 48.2911C24.5042 48.4681 24.7351 48.5713 24.9786 48.578L35.8981 48.8785H35.9237C36.1629 48.8784 36.3926 48.7849 36.564 48.6181C36.7353 48.4512 36.8349 48.2241 36.8414 47.985C36.8527 47.5858 36.8229 47.1865 36.7526 46.7934L44.1329 43.3061C44.1402 43.303 44.1473 43.2994 44.1545 43.2957C44.6656 43.0371 45.2437 42.9411 45.811 43.0205C46.3783 43.1 46.9077 43.3512 47.3281 43.7403L31.8382 53.7606ZM26.4071 10.1635V1.43712C26.4071 1.1935 26.3103 0.959859 26.138 0.787595C25.9658 0.615331 25.7321 0.518555 25.4885 0.518555C25.2449 0.518555 25.0113 0.615331 24.839 0.787595C24.6667 0.959859 24.57 1.1935 24.57 1.43712V10.1635C24.57 10.4071 24.6667 10.6407 24.839 10.813C25.0113 10.9852 25.2449 11.082 25.4885 11.082C25.7321 11.082 25.9658 10.9852 26.138 10.813C26.3103 10.6407 26.4071 10.4071 26.4071 10.1635ZM33.2963 10.1635V6.02992C33.2963 5.78631 33.1995 5.55267 33.0273 5.3804C32.855 5.20814 32.6214 5.11136 32.3777 5.11136C32.1341 5.11136 31.9005 5.20814 31.7282 5.3804C31.556 5.55267 31.4592 5.78631 31.4592 6.02992V10.1635C31.4592 10.4071 31.556 10.6407 31.7282 10.813C31.9005 10.9852 32.1341 11.082 32.3777 11.082C32.6214 11.082 32.855 10.9852 33.0273 10.813C33.1995 10.6407 33.2963 10.4071 33.2963 10.1635ZM19.5179 10.1635V6.02992C19.5179 5.78631 19.4211 5.55267 19.2488 5.3804C19.0766 5.20814 18.8429 5.11136 18.5993 5.11136C18.3557 5.11136 18.1221 5.20814 17.9498 5.3804C17.7775 5.55267 17.6808 5.78631 17.6808 6.02992V10.1635C17.6808 10.4071 17.7775 10.6407 17.9498 10.813C18.1221 10.9852 18.3557 11.082 18.5993 11.082C18.8429 11.082 19.0766 10.9852 19.2488 10.813C19.4211 10.6407 19.5179 10.4071 19.5179 10.1635Z" fill="#21409C"/>
</g>
<defs>
<clipPath id="clip0_3383_7115">
<rect width="56" height="56" fill="white" transform="translate(0.164062 0.518555)"/>
</clipPath>
</defs>
</svg>
