<svg width="16" height="9" viewBox="0 0 16 9" fill="none" xmlns="http://www.w3.org/2000/svg">
<g clip-path="url(#clip0_2920_532)">
<path d="M7.99913 8.73528C7.90642 8.73538 7.8146 8.71715 7.72896 8.68166C7.64332 8.64617 7.56553 8.5941 7.50007 8.52846L0.441243 1.46963C0.165419 1.19381 0.165419 0.747163 0.441243 0.471516C0.717066 0.195869 1.16371 0.195693 1.43936 0.471516L7.99913 7.03128L14.5589 0.471516C14.8347 0.195693 15.2814 0.195693 15.557 0.471516C15.8327 0.74734 15.8328 1.19399 15.557 1.46963L8.49818 8.52846C8.43272 8.5941 8.35493 8.64617 8.26929 8.68166C8.18364 8.71715 8.09183 8.73538 7.99913 8.73528Z" fill="black"/>
</g>
<defs>
<clipPath id="clip0_2920_532">
<rect width="16" height="8.47063" fill="white" transform="translate(0 0.264648)"/>
</clipPath>
</defs>
</svg>
