<svg width="57" height="57" viewBox="0 0 57 57" fill="none" xmlns="http://www.w3.org/2000/svg">
<path fill-rule="evenodd" clip-rule="evenodd" d="M22.8054 14.9526C22.5356 14.6489 22.5607 14.1851 22.8681 13.9159C23.1694 13.6474 23.6337 13.6756 23.9035 13.9787L26.4262 16.8296L33.1597 10.9044C33.4672 10.637 33.9316 10.6666 34.1951 10.9709C34.465 11.2752 34.4336 11.739 34.1324 12.0063L26.8467 18.4141C26.5427 18.6838 26.0816 18.6504 25.8112 18.3501L22.8054 14.9526ZM45.0264 38.312L29.2314 46.1643V30.0103L45.6602 21.8423V37.2903C45.6602 37.739 45.428 38.1112 45.0264 38.312ZM11.3403 37.2903V21.8423L27.7628 30.0103V46.1643L11.9741 38.312C11.5724 38.1112 11.3403 37.739 11.3403 37.2903ZM28.4971 24.3393C24.0479 24.3393 20.289 21.3196 19.1657 17.2218L12.2565 20.6582L28.4972 28.7347L44.7442 20.6582L37.835 17.2218C36.7053 21.3196 32.9526 24.3393 28.4971 24.3393ZM28.4971 6.44823C23.9725 6.44823 20.289 10.1312 20.289 14.6602C20.289 19.1872 23.9725 22.8715 28.4971 22.8715C33.028 22.8715 36.7115 19.1872 36.7115 14.6602C36.7115 10.1312 33.028 6.44823 28.4971 6.44823ZM50.2663 15.7195C50.3628 15.7197 50.4583 15.7009 50.5474 15.6641C50.6365 15.6273 50.7175 15.5733 50.7858 15.5051C50.854 15.437 50.908 15.356 50.9449 15.2669C50.9817 15.1778 51.0006 15.0823 51.0005 14.9859V7.78864C51.0006 7.69219 50.9817 7.59666 50.9449 7.50752C50.9081 7.41838 50.854 7.33739 50.7858 7.26919C50.7176 7.20098 50.6366 7.14691 50.5475 7.11007C50.4583 7.07323 50.3628 7.05434 50.2663 7.05448H43.0685C42.9721 7.05435 42.8766 7.07325 42.7874 7.1101C42.6983 7.14695 42.6173 7.20102 42.5491 7.26922C42.4809 7.33742 42.4268 7.4184 42.39 7.50754C42.3531 7.59667 42.3342 7.6922 42.3344 7.78864C42.3344 8.19408 42.6607 8.52224 43.0685 8.52224H48.4967L40.2384 16.7781L38.1174 15.7257C38.1613 15.375 38.1801 15.0198 38.1801 14.6602C38.1801 9.3217 33.8375 4.98047 28.4972 4.98047C22.7512 4.98047 18.2595 9.97399 18.8771 15.7257L16.7623 16.7781L8.50387 8.52224H13.9321C14.3337 8.52224 14.6662 8.19408 14.6662 7.78864C14.6662 7.38388 14.3336 7.05448 13.9321 7.05448H6.73416C6.63771 7.05435 6.54219 7.07325 6.45305 7.1101C6.36392 7.14695 6.28293 7.20102 6.21474 7.26922C6.14654 7.33742 6.09246 7.4184 6.05561 7.50754C6.01877 7.59667 5.99987 7.6922 6 7.78864V14.9859C5.99987 15.0823 6.01877 15.1778 6.05563 15.2669C6.09248 15.356 6.14656 15.4369 6.21477 15.5051C6.28298 15.5733 6.36397 15.6273 6.4531 15.6641C6.54222 15.7009 6.63774 15.7197 6.73416 15.7195C6.83059 15.7197 6.92611 15.7009 7.01524 15.6641C7.10438 15.6273 7.18538 15.5733 7.25359 15.5051C7.3218 15.437 7.37588 15.356 7.41273 15.2669C7.44958 15.1778 7.46847 15.0823 7.46832 14.9859V9.56082L15.3753 17.4671L10.2797 20.0005C10.1571 20.0611 10.054 20.1548 9.98188 20.271C9.90979 20.3873 9.87168 20.5213 9.87184 20.6581V37.2903C9.87184 38.3019 10.4116 39.1754 11.3215 39.626L15.3753 41.6417L7.46832 49.5492V44.1241C7.46832 43.7181 7.14206 43.3899 6.73416 43.3899C6.32626 43.3899 6 43.718 6 44.1241V51.3214C5.99987 51.4178 6.01877 51.5133 6.05563 51.6024C6.09248 51.6915 6.14656 51.7724 6.21477 51.8406C6.28298 51.9087 6.36397 51.9628 6.4531 51.9996C6.54222 52.0363 6.63774 52.0552 6.73416 52.055H13.932C14.3336 52.055 14.6661 51.7261 14.6661 51.3214C14.6661 50.9147 14.3335 50.5872 13.932 50.5872H8.50387L16.7622 42.3313L28.1707 48.0062C28.3779 48.107 28.6217 48.1074 28.8234 48.0062L40.2383 42.3313L48.4966 50.5872H43.0684C42.9719 50.5869 42.8763 50.6057 42.7871 50.6425C42.6979 50.6793 42.6169 50.7333 42.5486 50.8016C42.4804 50.8698 42.4263 50.9509 42.3895 51.0401C42.3528 51.1293 42.334 51.2249 42.3343 51.3214C42.3341 51.4178 42.353 51.5133 42.3899 51.6024C42.4267 51.6915 42.4808 51.7724 42.549 51.8406C42.6172 51.9087 42.6982 51.9628 42.7874 51.9996C42.8765 52.0363 42.972 52.0552 43.0684 52.055H50.2662C50.3626 52.0552 50.4582 52.0364 50.5473 51.9996C50.6364 51.9628 50.7174 51.9088 50.7856 51.8406C50.8538 51.7725 50.9079 51.6915 50.9448 51.6024C50.9816 51.5133 51.0005 51.4178 51.0004 51.3214V44.1241C51.0004 43.7181 50.6741 43.3899 50.2662 43.3899C49.8583 43.3899 49.5319 43.718 49.5319 44.1241V49.5492L41.625 41.6417L45.6788 39.626C46.5887 39.1754 47.1284 38.3019 47.1284 37.2903V20.6581C47.1286 20.5213 47.0905 20.3873 47.0184 20.271C46.9463 20.1548 46.8431 20.0611 46.7205 20.0005L41.6249 17.4671L49.5318 9.56082V14.9859C49.5318 15.0823 49.5507 15.1778 49.5876 15.2669C49.6245 15.356 49.6786 15.4369 49.7468 15.5051C49.8151 15.5732 49.8961 15.6273 49.9852 15.664C50.0744 15.7008 50.1699 15.7197 50.2663 15.7195Z" fill="#21409C"/>
</svg>
