  <svg
                    width="48"
                    height="48"
                    viewBox="0 0 48 48"
                    fill="none"
                    xmlns="http://www.w3.org/2000/svg"
                  >
                    <path
                      fill-rule="evenodd"
                      clip-rule="evenodd"
                      d="M28.1518 47.9973C24.9052 47.9973 21.234 46.0445 17.5336 42.3489C14.2796 39.0995 11.0696 34.5545 8.49708 29.552C6.11865 24.9282 4.40396 20.1329 3.66896 16.0501C2.84771 11.4911 3.24708 7.91543 4.8249 5.71137C6.02583 4.03137 7.9974 1.7973 10.5643 0.70043C11.6761 0.22418 12.5471 0.00292969 13.3065 0.00292969C15.7271 0.00292969 17.0058 2.09637 19.1302 7.10356C20.4268 10.1579 20.7183 11.9495 20.1052 13.0942C19.5155 14.1957 18.2246 14.4376 16.8596 14.6954C16.6861 14.7273 16.5099 14.7611 16.3308 14.7967C13.9055 15.2776 13.9571 17.2661 13.9608 17.3504C13.9608 17.3551 13.9608 17.3598 13.9618 17.3636C14.033 21.7173 19.9093 31.9042 23.6527 34.1814C23.6715 34.1907 23.6893 34.202 23.7071 34.2132C23.8065 34.2695 24.3015 34.5273 24.9502 34.5273C25.7302 34.5273 26.4502 34.1579 27.0877 33.4295C27.2086 33.2917 27.3258 33.1557 27.4402 33.0226C28.329 31.9876 29.168 31.0107 30.3793 31.0107C31.6946 31.0107 33.1215 32.1592 35.1502 34.8507C37.8361 38.4142 39.069 40.4279 38.813 42.2364C38.6527 43.3632 37.9355 44.3307 36.413 45.4717C33.9258 47.3345 30.5508 47.8398 28.7602 47.9748C28.5615 47.9898 28.3571 47.9973 28.1536 47.9973H28.1518Z"
                      fill="url(#paint0_linear_1784_73)"
                    />
                    <path
                      fill-rule="evenodd"
                      clip-rule="evenodd"
                      d="M43.5386 27.4744C43.4908 27.4744 43.4421 27.4679 43.3933 27.4557C43.0933 27.3751 42.9152 27.0666 42.9949 26.7666C45.6077 17.0185 39.8017 6.96287 30.0536 4.35099C29.7536 4.27131 29.5755 3.96287 29.6561 3.66287C29.7367 3.36193 30.0452 3.18474 30.3452 3.26443C40.6924 6.03756 46.8546 16.711 44.0814 27.0572C44.0149 27.3085 43.7871 27.4744 43.5386 27.4744Z"
                      fill="url(#paint1_linear_1784_73)"
                    />
                    <path
                      fill-rule="evenodd"
                      clip-rule="evenodd"
                      d="M38.3045 26.0719C38.2558 26.0719 38.207 26.0654 38.1583 26.0532C38.0869 26.034 38.0201 26.001 37.9615 25.9561C37.9029 25.9111 37.8537 25.855 37.8168 25.791C37.7799 25.727 37.756 25.6564 37.7464 25.5831C37.7367 25.5099 37.7416 25.4355 37.7608 25.3641C38.6514 22.0398 38.1948 18.5682 36.4736 15.5879C34.7533 12.6085 31.9755 10.4766 28.6511 9.58601C28.507 9.54734 28.3842 9.45303 28.3096 9.3238C28.2351 9.19458 28.2149 9.04103 28.2536 8.89695C28.2923 8.75286 28.3866 8.63003 28.5158 8.55549C28.645 8.48094 28.7986 8.46078 28.9427 8.49945C32.5567 9.46788 35.5773 11.7854 37.4477 15.0254C39.3189 18.2663 39.8158 22.0407 38.8473 25.6548C38.8153 25.7743 38.7448 25.88 38.6467 25.9554C38.5485 26.0308 38.4283 26.0718 38.3045 26.0719Z"
                      fill="url(#paint2_linear_1784_73)"
                    />
                    <path
                      fill-rule="evenodd"
                      clip-rule="evenodd"
                      d="M33.0706 24.6695C33.0219 24.6695 32.9731 24.6629 32.9244 24.6498C32.6244 24.5701 32.4462 24.2617 32.5269 23.9617C33.5919 19.9858 31.2238 15.8851 27.2487 14.8201C27.1774 14.801 27.1105 14.768 27.0519 14.723C26.9934 14.678 26.9442 14.6219 26.9073 14.5579C26.8704 14.4939 26.8464 14.4233 26.8368 14.3501C26.8272 14.2768 26.8321 14.2024 26.8513 14.1311C26.8704 14.0597 26.9034 13.9929 26.9484 13.9343C26.9934 13.8757 27.0495 13.8265 27.1135 13.7896C27.1774 13.7527 27.2481 13.7288 27.3213 13.7191C27.3946 13.7095 27.469 13.7144 27.5403 13.7336C32.1144 14.9598 34.8387 19.6783 33.6134 24.2523C33.5813 24.3718 33.5107 24.4774 33.4126 24.5528C33.3145 24.6282 33.1943 24.6692 33.0706 24.6695Z"
                      fill="url(#paint3_linear_1784_73)"
                    />
                    <defs>
                      <linearGradient
                        id="paint0_linear_1784_73"
                        x1="1.38946"
                        y1="45.3195"
                        x2="44.0184"
                        y2="19.7014"
                        gradientUnits="userSpaceOnUse"
                      >
                        <stop stop-color="#FFF33B" />
                        <stop offset="0.04" stop-color="#FEE72E" />
                        <stop offset="0.117" stop-color="#FED51B" />
                        <stop offset="0.196" stop-color="#FDCA10" />
                        <stop offset="0.281" stop-color="#FDC70C" />
                        <stop offset="0.669" stop-color="#F3903F" />
                        <stop offset="0.888" stop-color="#ED683C" />
                        <stop offset="1" stop-color="#E93E3A" />
                      </linearGradient>
                      <linearGradient
                        id="paint1_linear_1784_73"
                        x1="28.8457"
                        y1="26.1226"
                        x2="48.4666"
                        y2="16.2077"
                        gradientUnits="userSpaceOnUse"
                      >
                        <stop stop-color="#FFF33B" />
                        <stop offset="0.04" stop-color="#FEE72E" />
                        <stop offset="0.117" stop-color="#FED51B" />
                        <stop offset="0.196" stop-color="#FDCA10" />
                        <stop offset="0.281" stop-color="#FDC70C" />
                        <stop offset="0.669" stop-color="#F3903F" />
                        <stop offset="0.888" stop-color="#ED683C" />
                        <stop offset="1" stop-color="#E93E3A" />
                      </linearGradient>
                      <linearGradient
                        id="paint2_linear_1784_73"
                        x1="27.6534"
                        y1="25.0904"
                        x2="41.9957"
                        y2="17.7596"
                        gradientUnits="userSpaceOnUse"
                      >
                        <stop stop-color="#FFF33B" />
                        <stop offset="0.04" stop-color="#FEE72E" />
                        <stop offset="0.117" stop-color="#FED51B" />
                        <stop offset="0.196" stop-color="#FDCA10" />
                        <stop offset="0.281" stop-color="#FDC70C" />
                        <stop offset="0.669" stop-color="#F3903F" />
                        <stop offset="0.888" stop-color="#ED683C" />
                        <stop offset="1" stop-color="#E93E3A" />
                      </linearGradient>
                      <linearGradient
                        id="paint3_linear_1784_73"
                        x1="26.4616"
                        y1="24.0583"
                        x2="35.5156"
                        y2="19.3202"
                        gradientUnits="userSpaceOnUse"
                      >
                        <stop stop-color="#FFF33B" />
                        <stop offset="0.04" stop-color="#FEE72E" />
                        <stop offset="0.117" stop-color="#FED51B" />
                        <stop offset="0.196" stop-color="#FDCA10" />
                        <stop offset="0.281" stop-color="#FDC70C" />
                        <stop offset="0.669" stop-color="#F3903F" />
                        <stop offset="0.888" stop-color="#ED683C" />
                        <stop offset="1" stop-color="#E93E3A" />
                      </linearGradient>
                    </defs>
                  </svg>