<svg width="48" height="48" viewBox="0 0 48 48" fill="none" xmlns="http://www.w3.org/2000/svg">
<path d="M46.2794 20.8049C45.4674 14.8914 42.3396 9.54271 37.584 5.9354C32.8284 2.32809 26.8346 0.757683 20.9211 1.56964C15.0076 2.3816 9.65892 5.50942 6.05161 10.265C2.4443 15.0206 0.873894 21.0144 1.68585 26.9279C2.35221 31.8218 4.59998 36.3638 8.08674 39.8619C11.5735 43.3601 16.1081 45.6226 20.9999 46.3049C22.0026 46.4352 23.0127 46.5003 24.0239 46.4999C28.1032 46.5073 32.1062 45.3943 35.5964 43.2824C35.7753 43.1862 35.9328 43.0546 36.0593 42.8957C36.1858 42.7367 36.2787 42.5538 36.3324 42.3578C36.3861 42.1619 36.3995 41.9571 36.3716 41.7559C36.3438 41.5547 36.2754 41.3612 36.1706 41.1872C36.0657 41.0132 35.9266 40.8623 35.7617 40.7437C35.5968 40.6251 35.4095 40.5412 35.2112 40.4971C35.0129 40.453 34.8077 40.4497 34.6081 40.4873C34.4084 40.5249 34.2185 40.6027 34.0499 40.7159C30.0958 43.0928 25.4274 43.9916 20.8735 43.2528C16.3195 42.514 12.1747 40.1853 9.17496 36.6803C6.17517 33.1752 4.51449 28.7206 4.48776 24.1072C4.46102 19.4938 6.06996 15.0202 9.02892 11.4806C11.9879 7.94098 16.1054 5.56445 20.6505 4.77291C25.1955 3.98136 29.874 4.82602 33.8554 7.15693C37.8367 9.48783 40.8633 13.1542 42.3977 17.505C43.9321 21.8558 43.8751 26.6096 42.2369 30.9224C41.9693 31.6268 41.4635 32.2152 40.8072 32.5855C40.151 32.9557 39.3857 33.0844 38.6445 32.9491C37.9032 32.8137 37.2328 32.423 36.7497 31.8448C36.2665 31.2666 36.0012 30.5374 35.9999 29.7839V13.4999C35.9999 13.1021 35.8418 12.7205 35.5605 12.4392C35.2792 12.1579 34.8977 11.9999 34.4999 11.9999C34.102 11.9999 33.7205 12.1579 33.4392 12.4392C33.1579 12.7205 32.9999 13.1021 32.9999 13.4999V16.0889C31.3766 14.2417 29.225 12.9378 26.8363 12.3536C24.4476 11.7695 21.9371 11.9333 19.6446 12.8229C17.352 13.7126 15.3881 15.285 14.0187 17.3275C12.6493 19.37 11.9404 21.7839 11.988 24.2426C12.0357 26.7012 12.8375 29.0858 14.285 31.0738C15.7325 33.0617 17.7558 34.5569 20.0811 35.3571C22.4063 36.1573 24.9213 36.2238 27.2856 35.5475C29.6499 34.8713 31.7493 33.4851 33.2999 31.5764C33.672 32.8193 34.4245 33.9143 35.4515 34.7072C36.4785 35.5 37.7282 35.9509 39.0249 35.9962C40.3215 36.0416 41.5998 35.6792 42.6797 34.9601C43.7596 34.241 44.5868 33.2013 45.0449 31.9874C46.384 28.4215 46.8084 24.577 46.2794 20.8049ZM23.9999 32.9999C22.2198 32.9999 20.4798 32.4721 18.9997 31.4831C17.5197 30.4942 16.3661 29.0886 15.6849 27.444C15.0037 25.7995 14.8255 23.9899 15.1728 22.2441C15.5201 20.4983 16.3772 18.8946 17.6359 17.6359C18.8946 16.3773 20.4982 15.5201 22.244 15.1728C23.9899 14.8256 25.7995 15.0038 27.444 15.685C29.0885 16.3662 30.4941 17.5197 31.4831 18.9998C32.472 20.4798 32.9999 22.2199 32.9999 23.9999C32.9975 26.3861 32.0485 28.6739 30.3612 30.3612C28.6739 32.0485 26.3861 32.9975 23.9999 32.9999Z" fill="url(#paint0_linear_3376_3030)"/>
<defs>
<linearGradient id="paint0_linear_3376_3030" x1="-0.880647" y1="43.9814" x2="43.5149" y2="8.0984" gradientUnits="userSpaceOnUse">
<stop stop-color="#FFF33B"/>
<stop offset="0.04" stop-color="#FEE72E"/>
<stop offset="0.117" stop-color="#FED51B"/>
<stop offset="0.196" stop-color="#FDCA10"/>
<stop offset="0.281" stop-color="#FDC70C"/>
<stop offset="0.669" stop-color="#F3903F"/>
<stop offset="0.888" stop-color="#ED683C"/>
<stop offset="1" stop-color="#E93E3A"/>
</linearGradient>
</defs>
</svg>
