<svg width="57" height="57" viewBox="0 0 57 57" fill="none" xmlns="http://www.w3.org/2000/svg">
<g clip-path="url(#clip0_3383_7090)">
<path d="M37.7105 31.8683V30.2241H30.3117V41.7334H37.7105V40.0892H31.9559V36.8008H37.7105V35.1567H31.9559V31.8683H37.7105ZM48.0141 31.8683V30.2241H40.6153V41.7334H48.0141V40.0892H42.2595V36.8008H48.0141V35.1567H42.2595V31.8683H48.0141ZM44.5613 27.0453H49.7679V25.4011H46.2055V23.7569H49.7679V22.1127H46.2055V20.4685H49.7679V18.8243H44.5613V27.0453ZM16.4456 31.8683V30.2241H9.04677V41.7882H10.691V36.8008H14.8014V35.1567H10.691V31.8683H16.4456ZM26.2012 22.1127H25.1051C24.6517 22.1127 24.283 21.744 24.283 21.2906C24.283 20.8373 24.6517 20.4685 25.1051 20.4685H28.2838V18.8243H25.1051C23.7452 18.8243 22.6388 19.9308 22.6388 21.2906C22.6388 22.6505 23.7452 23.7569 25.1051 23.7569H26.2012C26.6545 23.7569 27.0233 24.1257 27.0233 24.579C27.0233 25.0324 26.6545 25.4011 26.2012 25.4011H23.0224V27.0453H26.2012C27.561 27.0453 28.6675 25.9389 28.6675 24.579C28.6675 23.2192 27.5612 22.1127 26.2012 22.1127ZM29.8732 21.2906C29.8732 22.6505 30.9796 23.7569 32.3395 23.7569H33.4356C33.889 23.7569 34.2577 24.1257 34.2577 24.579C34.2577 25.0324 33.889 25.4011 33.4356 25.4011H30.2569V27.0453H33.4356C34.7955 27.0453 35.9019 25.9389 35.9019 24.579C35.9019 23.2192 34.7955 22.1127 33.4356 22.1127H32.3395C31.8861 22.1127 31.5174 21.744 31.5174 21.2906C31.5174 20.8373 31.8861 20.4685 32.3395 20.4685H35.5183V18.8243H32.3395C30.9796 18.8243 29.8732 19.9308 29.8732 21.2906ZM42.7527 25.4011H39.1903V18.7695H37.5461V27.0453H42.7527V25.4011ZM20.9946 27.1001V21.8387C20.9946 20.1766 19.6423 18.8243 17.9802 18.8243C16.3182 18.8243 14.9659 20.1766 14.9659 21.8387V27.1001H16.6101V25.5107H19.3504V27.1001H20.9946ZM16.6101 23.8665V21.8387C16.6101 21.0831 17.2247 20.4685 17.9802 20.4685C18.7358 20.4685 19.3504 21.0831 19.3504 21.8387V23.8665H16.6101ZM8.93716 23.7569H11.6775V27.1001H13.3217V18.7695H11.6775V22.1127H8.93716V18.7695H7.29297V27.1001H8.93716V23.7569ZM27.5713 33.8413C27.5713 31.8468 25.9486 30.2241 23.9541 30.2241H19.3504V41.7882H20.9946V37.4585H23.8342L24.53 38.0053C25.209 38.5386 25.5983 39.3397 25.5983 40.2031V41.7882H27.2425V40.2031C27.2425 38.9505 26.7251 37.7813 25.8137 36.9425C26.8659 36.3092 27.5713 35.1562 27.5713 33.8413ZM23.9541 35.8143H20.9946V31.8683H23.9541C25.042 31.8683 25.9272 32.7534 25.9272 33.8413C25.9272 34.9292 25.042 35.8143 23.9541 35.8143Z" fill="#21409C"/>
<path d="M54.7542 43.98C54.7542 45.9444 53.1562 47.5425 51.1918 47.5425H32.096L28.0113 48.8968L28.5288 50.4575L32.3615 49.1867H51.1918C54.0627 49.1867 56.3984 46.8509 56.3984 43.98V25.774H54.7542V43.98ZM51.1918 8.08184H50.6233V9.72603H51.1918C53.1562 9.72603 54.7542 11.3241 54.7542 13.2885V24.1298H56.3984V13.2885C56.3984 10.4176 54.0628 8.08184 51.1918 8.08184ZM2.24966 13.2885C2.24966 11.3241 3.84771 9.72603 5.81208 9.72603H30.6942V8.08184H5.81208C2.94121 8.08184 0.605469 10.4176 0.605469 13.2885V29.7461H2.24966V13.2885ZM11.8956 54.241V47.5425H5.81208C3.84771 47.5425 2.24966 45.9444 2.24966 43.98V31.3902H0.605469V43.98C0.605469 46.8509 2.94121 49.1867 5.81208 49.1867H10.2514V56.5186L26.9682 50.9752L26.4508 49.4145L11.8956 54.241ZM40.6589 16.4124C45.0409 16.4124 48.6058 12.8475 48.6058 8.46549C48.6058 4.08349 45.0408 0.518555 40.6588 0.518555C38.9416 0.518664 37.3067 1.05774 35.9308 2.07758L36.9099 3.39852C38.0004 2.59024 39.2968 2.16297 40.6589 2.16286C44.1343 2.16286 46.9616 4.99021 46.9616 8.4656C46.9616 11.941 44.1343 14.7683 40.6589 14.7683C37.1835 14.7683 34.3561 11.941 34.3561 8.4656C34.3563 6.97336 34.8857 5.52955 35.8503 4.39096L34.5964 3.32738C33.3799 4.76307 32.7122 6.58373 32.7119 8.46549C32.7119 12.8475 36.2769 16.4124 40.6589 16.4124Z" fill="#21409C"/>
<path d="M43.6951 5.25293L39.2343 9.71395L37.4041 7.88364L36.2415 9.04641L39.2343 12.0391L44.8578 6.4157L43.6951 5.25293ZM46.0952 44.2536H47.7394V45.8978H46.0952V44.2536ZM49.3836 44.2536H51.0278V45.8978H49.3836V44.2536ZM5.8125 11.3698H7.45669V13.014H5.8125V11.3698ZM9.10089 11.3698H10.7451V13.014H9.10089V11.3698Z" fill="#21409C"/>
</g>
<defs>
<clipPath id="clip0_3383_7090">
<rect width="56" height="56" fill="white" transform="translate(0.5 0.518555)"/>
</clipPath>
</defs>
</svg>
