<svg width="57" height="57" viewBox="0 0 57 57" fill="none" xmlns="http://www.w3.org/2000/svg">
<path fill-rule="evenodd" clip-rule="evenodd" d="M43.8458 25.9359C43.5255 26.2948 43.548 26.8509 43.903 27.1811L46.7937 29.8702C47.1522 30.2037 47.719 30.1833 48.0527 29.8246L52.9919 24.5148L52.9915 24.5143C53.2866 24.2269 53.3079 23.6218 52.9319 23.2717L52.9161 23.2571L52.9155 23.2577L52.9036 23.2455L50.0412 20.5827C49.6874 20.2535 49.131 20.2685 48.7943 20.6151C48.6851 20.7274 48.5362 20.7925 48.3796 20.7964C48.223 20.8003 48.071 20.7427 47.9563 20.636L47.9561 20.6362L44.4832 17.4055C44.3911 17.3198 44.3283 17.2072 44.3037 17.0838C44.279 16.9604 44.2938 16.8324 44.3458 16.7179C44.6052 16.123 44.4541 15.385 43.9627 14.928C43.115 14.1395 42.2489 13.2724 41.3685 12.3912C36.3994 7.41694 30.9545 1.96798 24.4663 7.16461C29.136 7.71531 34.6358 10.2584 34.4315 15.6924C34.4154 16.1059 34.3686 16.5176 34.2915 16.9242C34.1565 17.6451 34.3784 18.3206 34.9155 18.8204L37.8245 21.5264C38.3215 21.9887 39.0553 22.0795 39.6497 21.7728C39.7598 21.7161 39.8848 21.6948 40.0075 21.7119C40.1301 21.7291 40.2445 21.7837 40.3349 21.8684L43.806 25.0975C43.9207 25.2043 43.9891 25.3518 43.9965 25.5084C44.0038 25.665 43.9496 25.8182 43.8453 25.9353L43.8458 25.9359ZM47.3165 43.4523C47.5678 44.3975 47.6154 45.3853 47.456 46.3503L45.1743 44.2517C43.8576 43.0408 42.3471 42.9867 41.1238 43.5702C38.9077 44.6272 37.8223 47.694 40.09 49.7795L42.3733 51.8793C41.4243 52.1178 40.4356 52.1522 39.4723 51.9802C35.6865 51.3047 33.2078 47.644 33.9609 43.8726C33.9823 43.7654 33.974 43.6544 33.937 43.5515C33.8999 43.4486 33.8355 43.3578 33.7507 43.2889L12.4635 23.7117C12.3835 23.6381 12.2851 23.5877 12.1787 23.5656C12.0723 23.5436 11.962 23.5509 11.8594 23.5867C10.732 23.9058 9.54195 23.9325 8.40139 23.6644C4.8863 22.8383 2.62256 19.4222 3.21056 15.8627L5.49234 17.9612C6.80889 19.1721 8.31936 19.2263 9.54283 18.6429C11.7588 17.586 12.8443 14.5192 10.5766 12.4335L8.29344 10.3337C9.24239 10.0952 10.2312 10.0608 11.1944 10.2328C14.9806 10.9083 17.4588 14.5695 16.7058 18.3404C16.6844 18.4477 16.6927 18.5587 16.7297 18.6615C16.7668 18.7644 16.8312 18.8552 16.916 18.9242L38.2032 38.5013C38.2832 38.5749 38.3816 38.6254 38.488 38.6474C38.5944 38.6694 38.7047 38.6621 38.8073 38.6263C39.9347 38.3072 41.1248 38.2805 42.2653 38.5487C44.7208 39.1257 46.6692 41.0211 47.3165 43.4524V43.4523ZM27.3299 26.8714L34.0475 19.6503C34.0643 19.6665 34.0811 19.6826 34.0983 19.6985L36.7444 22.1601L30.0417 29.3653L27.33 26.8715L27.3299 26.8714ZM25.6962 37.5115L19.5 31.813L7.08211 45.1617C6.51238 45.7741 6.54727 46.742 7.15988 47.3119L11.0954 50.9731C11.7078 51.5429 12.6757 51.508 13.2456 50.8954L25.6961 37.5116L25.6962 37.5115ZM46.1445 39.2936C48.4667 41.4293 49.3105 44.6993 48.3741 47.6634C48.2448 48.0726 47.7206 48.2428 47.3701 47.9011L44.3618 45.1346C41.877 42.8494 38.4138 46.6077 40.9025 48.8965L43.9358 51.686C44.2518 51.9767 44.1816 52.5238 43.725 52.6948C42.3125 53.268 40.7667 53.4306 39.2658 53.1637C34.9479 52.3932 32.045 48.3025 32.7226 43.9732L26.5793 38.3235L14.124 51.7124C13.1046 52.8081 11.3744 52.8708 10.2785 51.8512L6.34295 48.19C5.24724 47.1706 5.18467 45.4405 6.20416 44.3445L18.6172 31.0009L11.8926 24.8165C7.63019 25.8546 3.31841 23.3025 2.19042 19.0658C1.797 17.5882 1.82839 16.0172 2.2928 14.5494C2.42208 14.1402 2.94631 13.97 3.29686 14.3117L6.30511 17.0782C8.78989 19.3634 12.2531 15.6051 9.76442 13.3163L6.73124 10.5268C6.41525 10.2361 6.48547 9.68898 6.942 9.51803C8.35452 8.9448 9.90025 8.78226 11.4011 9.04914C15.7191 9.81958 18.6218 13.9103 17.9445 18.2396L26.4472 26.0592L33.3366 18.6534C33.0614 18.0517 32.9855 17.3825 33.1129 16.7033C34.0317 11.8032 29.6656 9.31645 25.4601 8.52808C24.649 8.37589 23.8279 8.28311 23.0034 8.25048C22.4505 8.2378 22.2146 7.58231 22.592 7.21897C31.6154 -1.46814 38.4749 8.18398 44.78 14.0494C45.5364 14.7532 45.8313 15.8093 45.5828 16.7895L48.4058 19.4157C49.1866 18.9762 50.1846 19.0772 50.8585 19.7041L53.7202 22.3662C53.7358 22.379 53.751 22.3927 53.7656 22.4072L53.7649 22.408C54.6152 23.2155 54.6136 24.5921 53.8417 25.364L53.841 25.3634L48.931 30.6415C48.1478 31.4834 46.8187 31.5315 45.9765 30.7482L43.0858 28.0591C42.4132 27.4333 42.2383 26.4437 42.6206 25.633L39.7981 23.0075C39.1147 23.2341 38.3626 23.19 37.7112 22.8818L30.9247 30.177L38.7744 37.3961C41.3777 36.762 44.1366 37.4466 46.1446 39.2934L46.1445 39.2936ZM30.5611 38.7363L17.9131 27.1043C16.6073 25.9034 17.3849 23.6777 19.1977 23.6019C19.714 23.5804 20.2389 23.7549 20.6479 24.1311L33.2959 35.763C34.6017 36.9639 33.8241 39.1896 32.0113 39.2654C31.4949 39.287 30.97 39.1124 30.5611 38.7363ZM18.7255 26.2213C18.6464 26.1487 18.5824 26.0611 18.5373 25.9637C18.4921 25.8662 18.4666 25.7608 18.4623 25.6535C18.4314 24.9143 19.3067 24.5277 19.8355 25.014L32.4835 36.646C32.5626 36.7187 32.6265 36.8062 32.6717 36.9037C32.7169 37.0011 32.7424 37.1065 32.7467 37.2139C32.7776 37.9531 31.9021 38.3395 31.3735 37.8534L18.7255 26.2213Z" fill="#21409C"/>
</svg>
