
<svg
            width="24"
            height="24"
            viewBox="0 0 24 24"
            fill="none"
            xmlns="http://www.w3.org/2000/svg"
          >
            <g clip-path="url(#clip0_2318_192)">
              <path
                d="M22.7692 4H1.2308C0.553828 4 0 4.55383 0 5.23075V18.7692C0 19.4461 0.553828 20 1.2308 20H22.7692C23.4461 20 24 19.4462 24 18.7692V5.23075C24 4.55383 23.4462 4 22.7692 4ZM22.3073 4.92302L12.708 12.1231C12.5354 12.2545 12.2705 12.3366 12 12.3354C11.7295 12.3366 11.4646 12.2545 11.292 12.1231L1.69261 4.92302H22.3073ZM17.1797 12.5982L22.4105 19.0598C22.4157 19.0662 22.4221 19.0712 22.4277 19.077H1.57228C1.57781 19.0709 1.58428 19.0662 1.58953 19.0598L6.82031 12.5982C6.85845 12.5511 6.88694 12.4969 6.90413 12.4387C6.92132 12.3806 6.92689 12.3196 6.92052 12.2593C6.91415 12.199 6.89596 12.1406 6.86699 12.0873C6.83802 12.0341 6.79884 11.987 6.75169 11.9489C6.55355 11.7887 6.26306 11.819 6.10275 12.0172L0.923062 18.4157V5.49995L10.7384 12.8615C11.1074 13.1363 11.5562 13.2572 11.9999 13.2584C12.443 13.2575 12.8922 13.1365 13.2614 12.8615L23.0767 5.49995V18.4156L17.8972 12.0172C17.7369 11.8191 17.4461 11.7886 17.2483 11.9489C17.0498 12.1092 17.0193 12.4 17.1797 12.5982Z"
                fill="white"
              />
            </g>
            <defs>
              <clipPath id="clip0_2318_192">
                <rect width="24" height="24" fill="white" />
              </clipPath>
            </defs>
          </svg>