<svg width="57" height="57" viewBox="0 0 57 57" fill="none" xmlns="http://www.w3.org/2000/svg">
<g clip-path="url(#clip0_3383_7084)">
<path d="M56.346 41.2635L50.606 38.3935L46.9528 28.891C46.9098 28.7786 46.8441 28.6763 46.7598 28.5905C46.6755 28.5047 46.5744 28.4372 46.4629 28.3922L23.796 19.3316C23.6375 19.2685 23.464 19.2531 23.2969 19.2873C23.1298 19.3215 22.9763 19.4038 22.8554 19.5241L19.8322 22.5472C19.7135 22.6683 19.6326 22.8212 19.5992 22.9874C19.5658 23.1536 19.5814 23.326 19.6441 23.4835L28.7047 46.1503C28.7497 46.2619 28.8172 46.363 28.903 46.4473C28.9888 46.5316 29.0911 46.5973 29.2035 46.6403L38.706 50.2935L41.576 56.0335C41.6364 56.16 41.7264 56.2702 41.8383 56.3547C41.9502 56.4392 42.0808 56.4956 42.2191 56.5191C42.2657 56.5234 42.3125 56.5234 42.3591 56.5191C42.5908 56.5181 42.8126 56.4253 42.976 56.261L56.5735 42.6635C56.6736 42.5669 56.7492 42.4479 56.7941 42.3162C56.8389 42.1846 56.8518 42.0442 56.8316 41.9066C56.8081 41.7683 56.7517 41.6377 56.6672 41.5258C56.5827 41.4139 56.4725 41.3239 56.346 41.2635ZM21.4772 23.3697L21.9629 22.8885L33.246 34.1716C32.5024 35.2253 32.1812 36.5196 32.346 37.7987C32.5108 39.0778 33.1496 40.2484 34.136 41.0792C35.1224 41.91 36.3846 42.3404 37.6731 42.2854C38.9615 42.2303 40.1824 41.6937 41.0943 40.7818C42.0063 39.8699 42.5428 38.649 42.5979 37.3605C42.6529 36.0721 42.2225 34.8098 41.3917 33.8235C40.5609 32.8371 39.3903 32.1983 38.1112 32.0335C36.8321 31.8687 35.5378 32.1899 34.4841 32.9335L23.201 21.6503L23.6822 21.1647L45.4566 29.8753L48.891 38.8091L39.1216 48.5785L30.1878 45.1441L21.4772 23.3697ZM37.4503 33.7385C38.2367 33.7396 38.9984 34.0134 39.6056 34.5132C40.2128 35.0129 40.6279 35.7077 40.7803 36.4792C40.9326 37.2507 40.8128 38.0512 40.4412 38.7443C40.0695 39.4373 39.4691 39.9801 38.7422 40.2801C38.0153 40.5801 37.2068 40.6188 36.4546 40.3896C35.7023 40.1604 35.0528 39.6775 34.6166 39.0231C34.1805 38.3688 33.9847 37.5834 34.0627 36.8009C34.1406 36.0184 34.4874 35.2871 35.0441 34.7316C35.6829 34.0948 36.5484 33.7376 37.4503 33.7385ZM42.5997 54.1653L40.4122 49.7903L50.0941 40.1085L54.4691 42.296L42.5997 54.1653Z" fill="#21409C"/>
<path d="M17.5676 47.331C17.4003 47.1728 17.1788 47.0847 16.9486 47.0847C16.7183 47.0847 16.4968 47.1728 16.3295 47.331L15.2183 48.4422C12.2528 44.4174 10.6168 39.5677 10.5384 34.5691C10.46 29.5704 11.943 24.6718 14.7808 20.556C15.6309 21.0238 16.6099 21.2035 17.5708 21.0681C18.5317 20.9328 19.4229 20.4897 20.1108 19.8053C20.7987 19.1208 21.2462 18.2319 21.3864 17.2716C21.5266 16.3114 21.3518 15.3316 20.8883 14.4791C25.0041 11.6413 29.9027 10.1583 34.9014 10.2368C39.9 10.3152 44.7497 11.9511 48.7745 14.9166L47.6458 16.0147C47.483 16.1788 47.3918 16.4005 47.392 16.6316C47.3913 16.7467 47.4134 16.8609 47.457 16.9675C47.5005 17.0741 47.5647 17.1711 47.6458 17.2528L51.5045 21.081C51.6685 21.2439 51.8902 21.3354 52.1214 21.3354C52.3526 21.3354 52.5743 21.2439 52.7383 21.081L56.5751 17.2441C56.6565 17.1628 56.721 17.0663 56.7651 16.9601C56.8091 16.8539 56.8318 16.74 56.8318 16.625C56.8318 16.51 56.8091 16.3962 56.7651 16.2899C56.721 16.1837 56.6565 16.0872 56.5751 16.006L52.7383 12.1691C52.5743 12.0061 52.3526 11.9146 52.1214 11.9146C51.8902 11.9146 51.6685 12.0061 51.5045 12.1691L50.0214 13.6435C46.3661 10.8929 42.0446 9.16476 37.5006 8.63655C32.9566 8.10834 28.3539 8.79908 24.1651 10.6378L29.2095 5.60659C29.7815 5.87988 30.4318 5.94174 31.045 5.7812C31.6582 5.62065 32.1948 5.24808 32.5594 4.72957C32.9241 4.21106 33.0933 3.58015 33.037 2.94875C32.9808 2.31735 32.7027 1.72628 32.2521 1.28042C31.8015 0.834551 31.2076 0.562706 30.5756 0.513108C29.9436 0.46351 29.3145 0.639367 28.7999 1.00948C28.2853 1.37959 27.9184 1.92004 27.7643 2.53493C27.6102 3.14982 27.6789 3.79941 27.9583 4.36846L19.4445 12.8953C18.5801 12.3155 17.5411 12.0537 16.5052 12.1548C15.4692 12.2559 14.5004 12.7136 13.7644 13.4496C13.0284 14.1856 12.5707 15.1544 12.4696 16.1904C12.3685 17.2263 12.6303 18.2653 13.2101 19.1297L4.68326 27.6435C4.11198 27.3651 3.46052 27.2983 2.84462 27.4549C2.22873 27.6115 1.6883 27.9813 1.31936 28.4988C0.950428 29.0162 0.776881 29.6477 0.829563 30.281C0.882244 30.9143 1.15774 31.5084 1.6071 31.9577C2.05646 32.4071 2.65058 32.6826 3.28388 32.7353C3.91718 32.788 4.54865 32.6144 5.06608 32.2455C5.58351 31.8765 5.95338 31.3361 6.10998 30.7202C6.26658 30.1043 6.19975 29.4529 5.92138 28.8816L10.9658 23.8503C9.12516 28.038 8.43224 32.64 8.95814 37.184C9.48404 41.7279 11.2098 46.0501 13.9583 49.7066L12.4795 51.1897C12.3165 51.3537 12.2251 51.5754 12.2251 51.8066C12.2251 52.0378 12.3165 52.2595 12.4795 52.4235L16.3164 56.2603C16.4797 56.4247 16.7016 56.5175 16.9333 56.5185C17.0487 56.5186 17.1631 56.4958 17.2697 56.4515C17.3763 56.4072 17.4731 56.3422 17.5545 56.2603L21.3958 52.4235C21.5587 52.2595 21.6502 52.0378 21.6502 51.8066C21.6502 51.5754 21.5587 51.3537 21.3958 51.1897L17.5676 47.331ZM52.1301 14.0153L54.7289 16.6141L52.1301 19.2128L49.5314 16.6141L52.1301 14.0153ZM29.7083 2.54409C29.8383 2.413 30.0043 2.3235 30.1853 2.28692C30.3663 2.25035 30.554 2.26836 30.7247 2.33867C30.8955 2.40898 31.0414 2.52842 31.1442 2.68183C31.2469 2.83524 31.3017 3.01571 31.3017 3.20034C31.3017 3.38497 31.2469 3.56543 31.1442 3.71884C31.0414 3.87225 30.8955 3.99169 30.7247 4.062C30.554 4.13231 30.3663 4.15032 30.1853 4.11375C30.0043 4.07717 29.8383 3.98767 29.7083 3.85659C29.622 3.77044 29.5536 3.66815 29.5069 3.55554C29.4602 3.44294 29.4362 3.32223 29.4362 3.20034C29.4362 3.07844 29.4602 2.95773 29.5069 2.84513C29.5536 2.73252 29.622 2.63023 29.7083 2.54409ZM15.0083 14.6935C15.2623 14.4382 15.5644 14.2356 15.897 14.0973C16.2296 13.9591 16.5862 13.8879 16.9464 13.8879C17.3066 13.8879 17.6632 13.9591 17.9958 14.0973C18.3284 14.2356 18.6304 14.4382 18.8845 14.6935C19.2686 15.0769 19.5303 15.5657 19.6365 16.0979C19.7427 16.6302 19.6886 17.1819 19.4811 17.6834C19.2736 18.1849 18.922 18.6136 18.4708 18.9152C18.0196 19.2168 17.4891 19.3778 16.9464 19.3778C16.4037 19.3778 15.8731 19.2168 15.4219 18.9152C14.9707 18.6136 14.6191 18.1849 14.4116 17.6834C14.2042 17.1819 14.1501 16.6302 14.2563 16.0979C14.3625 15.5657 14.6242 15.0769 15.0083 14.6935ZM4.17576 30.706C3.99712 30.8549 3.76923 30.9317 3.53687 30.9212C3.30451 30.9107 3.08447 30.8137 2.92 30.6492C2.75553 30.4847 2.65851 30.2647 2.64801 30.0323C2.63751 29.8 2.71429 29.5721 2.86326 29.3935C3.03835 29.2214 3.27402 29.125 3.51951 29.125C3.765 29.125 4.00067 29.2214 4.17576 29.3935C4.26201 29.4796 4.33043 29.5819 4.37711 29.6945C4.4238 29.8071 4.44782 29.9278 4.44782 30.0497C4.44782 30.1716 4.4238 30.2923 4.37711 30.4049C4.33043 30.5175 4.26201 30.6198 4.17576 30.706ZM16.9464 54.3878L14.3476 51.7891L16.9464 49.1903L19.5451 51.7891L16.9464 54.3878Z" fill="#21409C"/>
</g>
<defs>
<clipPath id="clip0_3383_7084">
<rect width="56" height="56" fill="white" transform="translate(0.832031 0.518555)"/>
</clipPath>
</defs>
</svg>
