  <svg
            width="24"
            height="24"
            viewBox="0 0 24 24"
            fill="none"
            xmlns="http://www.w3.org/2000/svg"
          >
            <path
              d="M7.82585 16.2298C9.83101 18.2318 12.0274 20.0326 14.3835 21.6065C15.3893 22.278 16.5961 22.5814 17.7999 22.4656C19.0037 22.3498 20.1305 21.8218 20.9898 20.9709L21.7451 20.2153C22.2251 19.7307 22.4944 19.0763 22.4944 18.3943C22.4944 17.7123 22.2251 17.0578 21.7451 16.5733L19.8783 14.7065C19.6188 14.4538 19.3097 14.2576 18.9705 14.1302C18.6314 14.0029 18.2695 13.9473 17.9078 13.9668C17.546 13.9863 17.1922 14.0806 16.8687 14.2436C16.5452 14.4067 16.2591 14.6351 16.0282 14.9143C15.8774 15.0667 15.679 15.1629 15.466 15.187C15.253 15.2111 15.0381 15.1615 14.8571 15.0467C12.475 13.5413 10.4583 11.5239 8.95385 9.14115C8.84028 8.96055 8.79193 8.74652 8.81683 8.53463C8.84173 8.32275 8.93838 8.12576 9.09072 7.9764C9.37035 7.74584 9.59907 7.45974 9.76241 7.13621C9.92575 6.81268 10.0202 6.45877 10.0396 6.09687C10.0591 5.73497 10.0033 5.37296 9.87565 5.03376C9.74801 4.69456 9.55134 4.38555 9.2981 4.12628L7.43135 2.25915C6.94801 1.77678 6.29303 1.50586 5.61016 1.50586C4.92729 1.50586 4.27232 1.77678 3.78897 2.25915L3.03335 3.01515C2.18484 3.86201 1.65436 4.9756 1.53139 6.16808C1.40843 7.36056 1.7005 8.55897 2.35835 9.56115C3.95484 11.9601 5.78638 14.194 7.82585 16.2298ZM3.5636 3.54578C4.1171 2.99228 4.75047 2.19915 5.61035 2.25653C5.85001 2.25602 6.08742 2.30287 6.30892 2.39438C6.53043 2.4859 6.73167 2.62027 6.9011 2.78978L8.76785 4.65728C8.95112 4.8473 9.0922 5.07388 9.18185 5.32219C9.2715 5.5705 9.3077 5.83494 9.28809 6.09821C9.26848 6.36148 9.1935 6.61764 9.06804 6.84992C8.94259 7.08221 8.7695 7.28539 8.5601 7.44615C8.28686 7.71554 8.11401 8.0703 8.07028 8.4515C8.02656 8.83271 8.11458 9.2174 8.31972 9.54165C9.88349 12.0186 11.9797 14.1158 14.4558 15.6808C14.7805 15.8876 15.1662 15.977 15.5487 15.934C15.9312 15.891 16.2875 15.7183 16.5581 15.4445C16.7395 15.2205 16.9673 15.0384 17.2258 14.9108C17.4843 14.7832 17.7673 14.7132 18.0555 14.7054C18.2953 14.7042 18.533 14.7506 18.7548 14.8418C18.9766 14.933 19.1781 15.0672 19.3477 15.2368L21.2145 17.1035C21.3846 17.2726 21.5195 17.4737 21.6113 17.6953C21.7032 17.9169 21.7502 18.1544 21.7496 18.3943C21.8088 19.253 21.0033 19.8973 20.4596 20.4407C19.7231 21.1693 18.7575 21.6212 17.7262 21.7199C16.6949 21.8186 15.6611 21.5582 14.7997 20.9825C10.119 17.8546 6.10314 13.832 2.9831 9.14603C2.42059 8.28827 2.17116 7.26273 2.27692 6.24244C2.38267 5.22215 2.83712 4.26956 3.5636 3.5454V3.54578ZM12.1271 2.5704C17.1296 2.46615 21.5385 6.8754 21.4338 11.8772C21.4338 11.9766 21.4734 12.072 21.5437 12.1423C21.614 12.2126 21.7094 12.2522 21.8088 12.2522C21.9083 12.2522 22.0037 12.2126 22.074 12.1423C22.1443 12.072 22.1838 11.9766 22.1838 11.8772C22.2963 6.47265 17.5338 1.70865 12.129 1.82078C12.0295 1.82058 11.9341 1.8599 11.8636 1.93008C11.7931 2.00027 11.7534 2.09557 11.7532 2.19503C11.753 2.29449 11.7923 2.38995 11.8625 2.46041C11.9327 2.53088 12.028 2.57058 12.1275 2.57078L12.1271 2.5704Z"
              fill="white"
            />
            <path
              d="M11.7539 8.35645C11.7539 8.4559 11.7934 8.55128 11.8637 8.62161C11.9341 8.69194 12.0294 8.73145 12.1289 8.73145C12.9618 8.73549 13.7594 9.06815 14.3484 9.6571C14.9373 10.246 15.27 11.0437 15.274 11.8766C15.274 11.976 15.3135 12.0714 15.3839 12.1417C15.4542 12.2121 15.5496 12.2516 15.649 12.2516C15.7485 12.2516 15.8439 12.2121 15.9142 12.1417C15.9845 12.0714 16.024 11.976 16.024 11.8766C16.0238 10.8436 15.6134 9.85296 14.883 9.12252C14.1525 8.39209 13.1619 7.98164 12.1289 7.98145C12.0294 7.98145 11.9341 8.02095 11.8637 8.09128C11.7934 8.16161 11.7539 8.25699 11.7539 8.35645Z"
              fill="white"
            />
            <path
              d="M18.3527 11.877C18.3527 11.9764 18.3922 12.0718 18.4625 12.1422C18.5329 12.2125 18.6282 12.252 18.7277 12.252C18.8272 12.252 18.9225 12.2125 18.9929 12.1422C19.0632 12.0718 19.1027 11.9764 19.1027 11.877C19.1803 8.12699 15.877 4.82362 12.127 4.90124C12.0275 4.90124 11.9321 4.94075 11.8618 5.01108C11.7915 5.0814 11.752 5.17679 11.752 5.27624C11.752 5.3757 11.7915 5.47108 11.8618 5.54141C11.9321 5.61173 12.0275 5.65124 12.127 5.65124C13.7758 5.65894 15.3548 6.31733 16.5207 7.48322C17.6866 8.64911 18.345 10.2282 18.3527 11.877Z"
              fill="white"
            />
          </svg>