<svg width="23" height="23" viewBox="0 0 23 23" fill="none" xmlns="http://www.w3.org/2000/svg">
<path d="M12 1.23998C10.2754 1.23998 8.68466 1.66369 7.2277 2.51111C5.77074 3.35852 4.61854 4.51071 3.77113 5.96768C2.92371 7.42464 2.5 9.01541 2.5 10.74C2.5 12.4645 2.92371 14.0553 3.77113 15.5123C4.61854 16.9692 5.77074 18.1214 7.2277 18.9689C8.68466 19.8163 10.2754 20.24 12 20.24C13.7246 20.24 15.3153 19.8163 16.7723 18.9689C18.2293 18.1214 19.3815 16.9692 20.2289 15.5123C21.0763 14.0553 21.5 12.4645 21.5 10.74C21.5 9.01541 21.0763 7.42464 20.2289 5.96768C19.3815 4.51071 18.2293 3.35852 16.7723 2.51111C15.3153 1.66369 13.7246 1.23998 12 1.23998ZM10.0822 15.5123L5.35446 10.74L6.69249 9.40195L10.0822 12.7916L17.3075 5.56627L18.6455 6.9489L10.0822 15.5123Z" fill="white"/>
</svg>
